<?xml version="1.0" encoding="UTF-8" standalone="no"?>
<!DOCTYPE svg PUBLIC "-//W3C//DTD SVG 1.1//EN"
 "http://www.w3.org/Graphics/SVG/1.1/DTD/svg11.dtd">
<!-- Generated by graphviz version 12.1.2 (20240928.0832)
 -->
<!-- Title: editor_lib/include/editor/push_button.h Pages: 1 -->
<svg width="212pt" height="204pt"
 viewBox="0.00 0.00 212.25 204.25" xmlns="http://www.w3.org/2000/svg" xmlns:xlink="http://www.w3.org/1999/xlink">
<g id="graph0" class="graph" transform="scale(1 1) rotate(0) translate(4 200.25)">
<title>editor_lib/include/editor/push_button.h</title>
<!-- Node1 -->
<g id="Node000001" class="node">
<title>Node1</title>
<g id="a_Node000001"><a xlink:title=" ">
<polygon fill="#999999" stroke="#666666" points="156.38,-196.25 49.63,-196.25 49.63,-165.75 156.38,-165.75 156.38,-196.25"/>
<text text-anchor="start" x="57.62" y="-182.75" font-family="Helvetica,sans-Serif" font-size="10.00">editor_lib/include</text>
<text text-anchor="middle" x="103" y="-171.5" font-family="Helvetica,sans-Serif" font-size="10.00">/editor/push_button.h</text>
</a>
</g>
</g>
<!-- Node2 -->
<g id="Node000002" class="node">
<title>Node2</title>
<g id="a_Node000002"><a xlink:href="../../d2/dd9/controller_8h.html" target="_top" xlink:title=" ">
<polygon fill="white" stroke="#666666" points="134.62,-129.75 71.38,-129.75 71.38,-110.5 134.62,-110.5 134.62,-129.75"/>
<text text-anchor="middle" x="103" y="-116.25" font-family="Helvetica,sans-Serif" font-size="10.00">controller.h</text>
</a>
</g>
</g>
<!-- Node1&#45;&gt;Node2 -->
<g id="edge1_Node000001_Node000002" class="edge">
<title>Node1&#45;&gt;Node2</title>
<g id="a_edge1_Node000001_Node000002"><a xlink:title=" ">
<path fill="none" stroke="#63b8ff" d="M103,-165.45C103,-158.21 103,-149.34 103,-141.44"/>
<polygon fill="#63b8ff" stroke="#63b8ff" points="106.5,-141.71 103,-131.71 99.5,-141.71 106.5,-141.71"/>
</a>
</g>
</g>
<!-- Node3 -->
<g id="Node000003" class="node">
<title>Node3</title>
<g id="a_Node000003"><a xlink:href="../../df/d65/widget_8h.html" target="_top" xlink:title=" ">
<polygon fill="white" stroke="#666666" points="52,-74.5 0,-74.5 0,-55.25 52,-55.25 52,-74.5"/>
<text text-anchor="middle" x="26" y="-61" font-family="Helvetica,sans-Serif" font-size="10.00">widget.h</text>
</a>
</g>
</g>
<!-- Node2&#45;&gt;Node3 -->
<g id="edge2_Node000002_Node000003" class="edge">
<title>Node2&#45;&gt;Node3</title>
<g id="a_edge2_Node000002_Node000003"><a xlink:title=" ">
<path fill="none" stroke="#63b8ff" d="M89.94,-110.09C78.54,-102.21 61.77,-90.61 48.26,-81.27"/>
<polygon fill="#63b8ff" stroke="#63b8ff" points="50.59,-78.62 40.37,-75.81 46.6,-84.38 50.59,-78.62"/>
</a>
</g>
</g>
<!-- Node5 -->
<g id="Node000005" class="node">
<title>Node5</title>
<g id="a_Node000005"><a xlink:href="../../d0/d09/command_8h.html" target="_top" xlink:title=" ">
<polygon fill="white" stroke="#666666" points="136.12,-74.5 69.88,-74.5 69.88,-55.25 136.12,-55.25 136.12,-74.5"/>
<text text-anchor="middle" x="103" y="-61" font-family="Helvetica,sans-Serif" font-size="10.00">command.h</text>
</a>
</g>
</g>
<!-- Node2&#45;&gt;Node5 -->
<g id="edge4_Node000002_Node000005" class="edge">
<title>Node2&#45;&gt;Node5</title>
<g id="a_edge4_Node000002_Node000005"><a xlink:title=" ">
<path fill="none" stroke="#63b8ff" d="M103,-110.33C103,-103.82 103,-94.67 103,-86.37"/>
<polygon fill="#63b8ff" stroke="#63b8ff" points="106.5,-86.37 103,-76.37 99.5,-86.37 106.5,-86.37"/>
</a>
</g>
</g>
<!-- Node6 -->
<g id="Node000006" class="node">
<title>Node6</title>
<g id="a_Node000006"><a xlink:title=" ">
<polygon fill="#e0e0e0" stroke="#999999" points="204.25,-74.5 153.75,-74.5 153.75,-55.25 204.25,-55.25 204.25,-74.5"/>
<text text-anchor="middle" x="179" y="-61" font-family="Helvetica,sans-Serif" font-size="10.00">memory</text>
</a>
</g>
</g>
<!-- Node2&#45;&gt;Node6 -->
<g id="edge5_Node000002_Node000006" class="edge">
<title>Node2&#45;&gt;Node6</title>
<g id="a_edge5_Node000002_Node000006"><a xlink:title=" ">
<path fill="none" stroke="#63b8ff" d="M115.89,-110.09C127.03,-102.29 143.37,-90.84 156.64,-81.54"/>
<polygon fill="#63b8ff" stroke="#63b8ff" points="158.62,-84.43 164.8,-75.82 154.61,-78.69 158.62,-84.43"/>
</a>
</g>
</g>
<!-- Node4 -->
<g id="Node000004" class="node">
<title>Node4</title>
<g id="a_Node000004"><a xlink:title=" ">
<polygon fill="#e0e0e0" stroke="#999999" points="47.5,-19.25 4.5,-19.25 4.5,0 47.5,0 47.5,-19.25"/>
<text text-anchor="middle" x="26" y="-5.75" font-family="Helvetica,sans-Serif" font-size="10.00">vector</text>
</a>
</g>
</g>
<!-- Node3&#45;&gt;Node4 -->
<g id="edge3_Node000003_Node000004" class="edge">
<title>Node3&#45;&gt;Node4</title>
<g id="a_edge3_Node000003_Node000004"><a xlink:title=" ">
<path fill="none" stroke="#63b8ff" d="M26,-55.08C26,-48.57 26,-39.42 26,-31.12"/>
<polygon fill="#63b8ff" stroke="#63b8ff" points="29.5,-31.12 26,-21.12 22.5,-31.12 29.5,-31.12"/>
</a>
</g>
</g>
</g>
</svg>
