<?xml version="1.0" encoding="UTF-8" standalone="no"?>
<!DOCTYPE svg PUBLIC "-//W3C//DTD SVG 1.1//EN"
 "http://www.w3.org/Graphics/SVG/1.1/DTD/svg11.dtd">
<!-- Generated by graphviz version 12.1.1 (20240910.0053)
 -->
<!-- Title: lib_sokoban_core/include/sokoban_core/game_action.hpp Pages: 1 -->
<svg width="1607pt" height="332pt"
 viewBox="0.00 0.00 1607.00 332.00" xmlns="http://www.w3.org/2000/svg" xmlns:xlink="http://www.w3.org/1999/xlink">
<g id="graph0" class="graph" transform="scale(1 1) rotate(0) translate(4 328)">
<title>lib_sokoban_core/include/sokoban_core/game_action.hpp</title>
<!-- Node1 -->
<g id="Node000001" class="node">
<title>Node1</title>
<g id="a_Node000001"><a xlink:title=" ">
<polygon fill="#999999" stroke="#666666" points="313,-324 156,-324 156,-292 313,-292 313,-324"/>
<text text-anchor="start" x="164" y="-310.5" font-family="Helvetica,sans-Serif" font-size="10.00">lib_sokoban_core/include</text>
<text text-anchor="middle" x="234.5" y="-298.5" font-family="Helvetica,sans-Serif" font-size="10.00">/sokoban_core/game_action.hpp</text>
</a>
</g>
</g>
<!-- Node2 -->
<g id="Node000002" class="node">
<title>Node2</title>
<g id="a_Node000002"><a xlink:href="../../d4/d42/game__object_8hpp.html" target="_top" xlink:title=" ">
<polygon fill="white" stroke="#666666" points="156.62,-256 66.38,-256 66.38,-236 156.62,-236 156.62,-256"/>
<text text-anchor="middle" x="111.5" y="-242.5" font-family="Helvetica,sans-Serif" font-size="10.00">game_object.hpp</text>
</a>
</g>
</g>
<!-- Node1&#45;&gt;Node2 -->
<g id="edge1_Node000001_Node000002" class="edge">
<title>Node1&#45;&gt;Node2</title>
<g id="a_edge1_Node000001_Node000002"><a xlink:title=" ">
<path fill="none" stroke="#63b8ff" d="M202.82,-291.55C183.78,-282.26 159.71,-270.52 141.06,-261.42"/>
<polygon fill="#63b8ff" stroke="#63b8ff" points="142.67,-258.31 132.15,-257.07 139.6,-264.6 142.67,-258.31"/>
</a>
</g>
</g>
<!-- Node7 -->
<g id="Node000007" class="node">
<title>Node7</title>
<g id="a_Node000007"><a xlink:href="../../da/d4c/session__context_8hpp.html" target="_top" xlink:title=" ">
<polygon fill="white" stroke="#666666" points="486.5,-256 380.5,-256 380.5,-236 486.5,-236 486.5,-256"/>
<text text-anchor="middle" x="433.5" y="-242.5" font-family="Helvetica,sans-Serif" font-size="10.00">session_context.hpp</text>
</a>
</g>
</g>
<!-- Node1&#45;&gt;Node7 -->
<g id="edge7_Node000001_Node000007" class="edge">
<title>Node1&#45;&gt;Node7</title>
<g id="a_edge7_Node000001_Node000007"><a xlink:title=" ">
<path fill="none" stroke="#63b8ff" d="M285.75,-291.55C318.47,-281.68 360.37,-269.05 391.19,-259.76"/>
<polygon fill="#63b8ff" stroke="#63b8ff" points="391.99,-263.17 400.55,-256.93 389.97,-256.47 391.99,-263.17"/>
</a>
</g>
</g>
<!-- Node3 -->
<g id="Node000003" class="node">
<title>Node3</title>
<g id="a_Node000003"><a xlink:href="../../d3/d3e/game__object__id_8hpp.html" target="_top" xlink:title=" ">
<polygon fill="white" stroke="#666666" points="203,-200 100,-200 100,-180 203,-180 203,-200"/>
<text text-anchor="middle" x="151.5" y="-186.5" font-family="Helvetica,sans-Serif" font-size="10.00">game_object_id.hpp</text>
</a>
</g>
</g>
<!-- Node2&#45;&gt;Node3 -->
<g id="edge2_Node000002_Node000003" class="edge">
<title>Node2&#45;&gt;Node3</title>
<g id="a_edge2_Node000002_Node000003"><a xlink:title=" ">
<path fill="none" stroke="#63b8ff" d="M118.47,-235.59C123.8,-228.39 131.33,-218.23 137.85,-209.43"/>
<polygon fill="#63b8ff" stroke="#63b8ff" points="140.57,-211.63 143.71,-201.51 134.95,-207.47 140.57,-211.63"/>
</a>
</g>
</g>
<!-- Node5 -->
<g id="Node000005" class="node">
<title>Node5</title>
<g id="a_Node000005"><a xlink:title=" ">
<polygon fill="#e0e0e0" stroke="#999999" points="177.12,-144 125.88,-144 125.88,-124 177.12,-124 177.12,-144"/>
<text text-anchor="middle" x="151.5" y="-130.5" font-family="Helvetica,sans-Serif" font-size="10.00">memory</text>
</a>
</g>
</g>
<!-- Node2&#45;&gt;Node5 -->
<g id="edge5_Node000002_Node000005" class="edge">
<title>Node2&#45;&gt;Node5</title>
<g id="a_edge5_Node000002_Node000005"><a xlink:title=" ">
<path fill="none" stroke="#63b8ff" d="M104.19,-235.82C94.85,-222.91 80.99,-198.84 90.5,-180 96.88,-167.37 108.66,-157.41 120.18,-150.11"/>
<polygon fill="#63b8ff" stroke="#63b8ff" points="121.88,-153.17 128.78,-145.13 118.37,-147.11 121.88,-153.17"/>
</a>
</g>
</g>
<!-- Node6 -->
<g id="Node000006" class="node">
<title>Node6</title>
<g id="a_Node000006"><a xlink:title=" ">
<polygon fill="#e0e0e0" stroke="#999999" points="43,-200 0,-200 0,-180 43,-180 43,-200"/>
<text text-anchor="middle" x="21.5" y="-186.5" font-family="Helvetica,sans-Serif" font-size="10.00">vector</text>
</a>
</g>
</g>
<!-- Node2&#45;&gt;Node6 -->
<g id="edge6_Node000002_Node000006" class="edge">
<title>Node2&#45;&gt;Node6</title>
<g id="a_edge6_Node000002_Node000006"><a xlink:title=" ">
<path fill="none" stroke="#63b8ff" d="M95.82,-235.59C82.36,-227.51 62.68,-215.71 46.96,-206.27"/>
<polygon fill="#63b8ff" stroke="#63b8ff" points="48.97,-203.4 38.6,-201.26 45.37,-209.4 48.97,-203.4"/>
</a>
</g>
</g>
<!-- Node4 -->
<g id="Node000004" class="node">
<title>Node4</title>
<g id="a_Node000004"><a xlink:title=" ">
<polygon fill="#e0e0e0" stroke="#999999" points="529.5,-144 489.5,-144 489.5,-124 529.5,-124 529.5,-144"/>
<text text-anchor="middle" x="509.5" y="-130.5" font-family="Helvetica,sans-Serif" font-size="10.00">string</text>
</a>
</g>
</g>
<!-- Node3&#45;&gt;Node4 -->
<g id="edge3_Node000003_Node000004" class="edge">
<title>Node3&#45;&gt;Node4</title>
<g id="a_edge3_Node000003_Node000004"><a xlink:title=" ">
<path fill="none" stroke="#63b8ff" d="M203.17,-181.21C278.51,-169.84 416.23,-149.07 478.03,-139.75"/>
<polygon fill="#63b8ff" stroke="#63b8ff" points="478.47,-143.22 487.84,-138.27 477.43,-136.3 478.47,-143.22"/>
</a>
</g>
</g>
<!-- Node3&#45;&gt;Node5 -->
<g id="edge4_Node000003_Node000005" class="edge">
<title>Node3&#45;&gt;Node5</title>
<g id="a_edge4_Node000003_Node000005"><a xlink:title=" ">
<path fill="none" stroke="#63b8ff" d="M151.5,-179.59C151.5,-173.01 151.5,-163.96 151.5,-155.73"/>
<polygon fill="#63b8ff" stroke="#63b8ff" points="155,-155.81 151.5,-145.81 148,-155.81 155,-155.81"/>
</a>
</g>
</g>
<!-- Node7&#45;&gt;Node5 -->
<g id="edge37_Node000007_Node000005" class="edge">
<title>Node7&#45;&gt;Node5</title>
<g id="a_edge37_Node000007_Node000005"><a xlink:title=" ">
<path fill="none" stroke="#63b8ff" d="M380.29,-236.85C342.92,-229.96 292.34,-218.24 250.5,-200 221.29,-187.27 191.16,-166.13 171.93,-151.43"/>
<polygon fill="#63b8ff" stroke="#63b8ff" points="174.17,-148.73 164.13,-145.34 169.86,-154.25 174.17,-148.73"/>
</a>
</g>
</g>
<!-- Node8 -->
<g id="Node000008" class="node">
<title>Node8</title>
<g id="a_Node000008"><a xlink:href="../../d7/dc7/command_8hpp.html" target="_top" xlink:title=" ">
<polygon fill="white" stroke="#666666" points="337.25,-200 259.75,-200 259.75,-180 337.25,-180 337.25,-200"/>
<text text-anchor="middle" x="298.5" y="-186.5" font-family="Helvetica,sans-Serif" font-size="10.00">command.hpp</text>
</a>
</g>
</g>
<!-- Node7&#45;&gt;Node8 -->
<g id="edge8_Node000007_Node000008" class="edge">
<title>Node7&#45;&gt;Node8</title>
<g id="a_edge8_Node000007_Node000008"><a xlink:title=" ">
<path fill="none" stroke="#63b8ff" d="M409.98,-235.59C388.63,-227.05 356.87,-214.35 332.7,-204.68"/>
<polygon fill="#63b8ff" stroke="#63b8ff" points="334.19,-201.51 323.6,-201.04 331.59,-208.01 334.19,-201.51"/>
</a>
</g>
</g>
<!-- Node10 -->
<g id="Node000010" class="node">
<title>Node10</title>
<g id="a_Node000010"><a xlink:href="../../dd/dc8/game__state_8hpp.html" target="_top" xlink:title=" ">
<polygon fill="white" stroke="#666666" points="441.38,-200 355.62,-200 355.62,-180 441.38,-180 441.38,-200"/>
<text text-anchor="middle" x="398.5" y="-186.5" font-family="Helvetica,sans-Serif" font-size="10.00">game_state.hpp</text>
</a>
</g>
</g>
<!-- Node7&#45;&gt;Node10 -->
<g id="edge10_Node000007_Node000010" class="edge">
<title>Node7&#45;&gt;Node10</title>
<g id="a_edge10_Node000007_Node000010"><a xlink:title=" ">
<path fill="none" stroke="#63b8ff" d="M427.4,-235.59C422.79,-228.47 416.29,-218.45 410.63,-209.72"/>
<polygon fill="#63b8ff" stroke="#63b8ff" points="413.73,-208.06 405.35,-201.57 407.85,-211.86 413.73,-208.06"/>
</a>
</g>
</g>
<!-- Node12 -->
<g id="Node000012" class="node">
<title>Node12</title>
<g id="a_Node000012"><a xlink:href="../../d9/d85/player_8hpp.html" target="_top" xlink:title=" ">
<polygon fill="white" stroke="#666666" points="588,-200 527,-200 527,-180 588,-180 588,-200"/>
<text text-anchor="middle" x="557.5" y="-186.5" font-family="Helvetica,sans-Serif" font-size="10.00">player.hpp</text>
</a>
</g>
</g>
<!-- Node7&#45;&gt;Node12 -->
<g id="edge12_Node000007_Node000012" class="edge">
<title>Node7&#45;&gt;Node12</title>
<g id="a_edge12_Node000007_Node000012"><a xlink:title=" ">
<path fill="none" stroke="#63b8ff" d="M455.1,-235.59C474.45,-227.17 503.1,-214.69 525.18,-205.07"/>
<polygon fill="#63b8ff" stroke="#63b8ff" points="526.57,-208.29 534.34,-201.08 523.78,-201.87 526.57,-208.29"/>
</a>
</g>
</g>
<!-- Node15 -->
<g id="Node000015" class="node">
<title>Node15</title>
<g id="a_Node000015"><a xlink:title=" ">
<polygon fill="#e0e0e0" stroke="#999999" points="588,-82 527,-82 527,-62 588,-62 588,-82"/>
<text text-anchor="middle" x="557.5" y="-68.5" font-family="Helvetica,sans-Serif" font-size="10.00">filesystem</text>
</a>
</g>
</g>
<!-- Node7&#45;&gt;Node15 -->
<g id="edge38_Node000007_Node000015" class="edge">
<title>Node7&#45;&gt;Node15</title>
<g id="a_edge38_Node000007_Node000015"><a xlink:title=" ">
<path fill="none" stroke="#63b8ff" d="M437.02,-235.71C447.62,-207.78 478.63,-126.33 480.5,-124 492.88,-108.64 511.15,-96.26 526.78,-87.55"/>
<polygon fill="#63b8ff" stroke="#63b8ff" points="528.05,-90.84 535.25,-83.06 524.78,-84.65 528.05,-90.84"/>
</a>
</g>
</g>
<!-- Node19 -->
<g id="Node000019" class="node">
<title>Node19</title>
<g id="a_Node000019"><a xlink:href="../../d5/ddc/console_8hpp.html" target="_top" xlink:title=" ">
<polygon fill="white" stroke="#666666" points="996.5,-200 914.5,-200 914.5,-180 996.5,-180 996.5,-200"/>
<text text-anchor="middle" x="955.5" y="-186.5" font-family="Helvetica,sans-Serif" font-size="10.00">tui/console.hpp</text>
</a>
</g>
</g>
<!-- Node7&#45;&gt;Node19 -->
<g id="edge22_Node000007_Node000019" class="edge">
<title>Node7&#45;&gt;Node19</title>
<g id="a_edge22_Node000007_Node000019"><a xlink:title=" ">
<path fill="none" stroke="#63b8ff" d="M486.91,-239.47C587.26,-229.09 802.84,-206.79 902.72,-196.46"/>
<polygon fill="#63b8ff" stroke="#63b8ff" points="902.93,-199.96 912.52,-195.45 902.21,-192.99 902.93,-199.96"/>
</a>
</g>
</g>
<!-- Node31 -->
<g id="Node000031" class="node">
<title>Node31</title>
<g id="a_Node000031"><a xlink:title=" ">
<polygon fill="#e0e0e0" stroke="#999999" points="668.75,-200 624.25,-200 624.25,-180 668.75,-180 668.75,-200"/>
<text text-anchor="middle" x="646.5" y="-186.5" font-family="Helvetica,sans-Serif" font-size="10.00">iosfwd</text>
</a>
</g>
</g>
<!-- Node7&#45;&gt;Node31 -->
<g id="edge39_Node000007_Node000031" class="edge">
<title>Node7&#45;&gt;Node31</title>
<g id="a_edge39_Node000007_Node000031"><a xlink:title=" ">
<path fill="none" stroke="#63b8ff" d="M473.74,-235.54C508.32,-227.3 559.77,-214.79 612.85,-200.64"/>
<polygon fill="#63b8ff" stroke="#63b8ff" points="613.63,-204.05 622.38,-198.08 611.82,-197.29 613.63,-204.05"/>
</a>
</g>
</g>
<!-- Node9 -->
<g id="Node000009" class="node">
<title>Node9</title>
<g id="a_Node000009"><a xlink:href="../../de/d85/key__definitions_8hpp.html" target="_top" xlink:title=" ">
<polygon fill="white" stroke="#666666" points="348.5,-144 248.5,-144 248.5,-124 348.5,-124 348.5,-144"/>
<text text-anchor="middle" x="298.5" y="-130.5" font-family="Helvetica,sans-Serif" font-size="10.00">key_definitions.hpp</text>
</a>
</g>
</g>
<!-- Node8&#45;&gt;Node9 -->
<g id="edge9_Node000008_Node000009" class="edge">
<title>Node8&#45;&gt;Node9</title>
<g id="a_edge9_Node000008_Node000009"><a xlink:title=" ">
<path fill="none" stroke="#63b8ff" d="M298.5,-179.59C298.5,-173.01 298.5,-163.96 298.5,-155.73"/>
<polygon fill="#63b8ff" stroke="#63b8ff" points="302,-155.81 298.5,-145.81 295,-155.81 302,-155.81"/>
</a>
</g>
</g>
<!-- Node11 -->
<g id="Node000011" class="node">
<title>Node11</title>
<g id="a_Node000011"><a xlink:title=" ">
<polygon fill="#e0e0e0" stroke="#999999" points="426.38,-144 370.62,-144 370.62,-124 426.38,-124 426.38,-144"/>
<text text-anchor="middle" x="398.5" y="-130.5" font-family="Helvetica,sans-Serif" font-size="10.00">cinttypes</text>
</a>
</g>
</g>
<!-- Node10&#45;&gt;Node11 -->
<g id="edge11_Node000010_Node000011" class="edge">
<title>Node10&#45;&gt;Node11</title>
<g id="a_edge11_Node000010_Node000011"><a xlink:title=" ">
<path fill="none" stroke="#63b8ff" d="M398.5,-179.59C398.5,-173.01 398.5,-163.96 398.5,-155.73"/>
<polygon fill="#63b8ff" stroke="#63b8ff" points="402,-155.81 398.5,-145.81 395,-155.81 402,-155.81"/>
</a>
</g>
</g>
<!-- Node12&#45;&gt;Node4 -->
<g id="edge18_Node000012_Node000004" class="edge">
<title>Node12&#45;&gt;Node4</title>
<g id="a_edge18_Node000012_Node000004"><a xlink:title=" ">
<path fill="none" stroke="#63b8ff" d="M549.14,-179.59C542.6,-172.24 533.32,-161.8 525.38,-152.87"/>
<polygon fill="#63b8ff" stroke="#63b8ff" points="528.03,-150.58 518.77,-145.43 522.8,-155.23 528.03,-150.58"/>
</a>
</g>
</g>
<!-- Node12&#45;&gt;Node12 -->
<g id="edge13_Node000012_Node000012" class="edge">
<title>Node12&#45;&gt;Node12</title>
<g id="a_edge13_Node000012_Node000012"><a xlink:title=" ">
<path fill="none" stroke="#63b8ff" d="M588.28,-200.5C598.17,-200.39 606,-196.89 606,-190 606,-186.12 603.52,-183.32 599.59,-181.59"/>
<polygon fill="#63b8ff" stroke="#63b8ff" points="600.24,-178.15 589.77,-179.78 598.97,-185.04 600.24,-178.15"/>
</a>
</g>
</g>
<!-- Node13 -->
<g id="Node000013" class="node">
<title>Node13</title>
<g id="a_Node000013"><a xlink:href="../../db/d42/json__utils_8hpp.html" target="_top" xlink:title=" ">
<polygon fill="white" stroke="#666666" points="705.62,-144 585.38,-144 585.38,-124 705.62,-124 705.62,-144"/>
<text text-anchor="middle" x="645.5" y="-130.5" font-family="Helvetica,sans-Serif" font-size="10.00">json_utils/json_utils.hpp</text>
</a>
</g>
</g>
<!-- Node12&#45;&gt;Node13 -->
<g id="edge14_Node000012_Node000013" class="edge">
<title>Node12&#45;&gt;Node13</title>
<g id="a_edge14_Node000012_Node000013"><a xlink:title=" ">
<path fill="none" stroke="#63b8ff" d="M572.83,-179.59C586,-171.51 605.23,-159.71 620.61,-150.27"/>
<polygon fill="#63b8ff" stroke="#63b8ff" points="622.07,-153.48 628.76,-145.27 618.41,-147.52 622.07,-153.48"/>
</a>
</g>
</g>
<!-- Node12&#45;&gt;Node15 -->
<g id="edge20_Node000012_Node000015" class="edge">
<title>Node12&#45;&gt;Node15</title>
<g id="a_edge20_Node000012_Node000015"><a xlink:title=" ">
<path fill="none" stroke="#63b8ff" d="M557.5,-179.51C557.5,-160.81 557.5,-118.82 557.5,-93.51"/>
<polygon fill="#63b8ff" stroke="#63b8ff" points="561,-93.81 557.5,-83.81 554,-93.81 561,-93.81"/>
</a>
</g>
</g>
<!-- Node17 -->
<g id="Node000017" class="node">
<title>Node17</title>
<g id="a_Node000017"><a xlink:title=" ">
<polygon fill="#e0e0e0" stroke="#999999" points="801.25,-144 723.75,-144 723.75,-124 801.25,-124 801.25,-144"/>
<text text-anchor="middle" x="762.5" y="-130.5" font-family="Helvetica,sans-Serif" font-size="10.00">unordered_set</text>
</a>
</g>
</g>
<!-- Node12&#45;&gt;Node17 -->
<g id="edge19_Node000012_Node000017" class="edge">
<title>Node12&#45;&gt;Node17</title>
<g id="a_edge19_Node000012_Node000017"><a xlink:title=" ">
<path fill="none" stroke="#63b8ff" d="M588.19,-180.92C621.94,-172.03 676.57,-157.64 715.67,-147.33"/>
<polygon fill="#63b8ff" stroke="#63b8ff" points="716.52,-150.73 725.3,-144.8 714.74,-143.96 716.52,-150.73"/>
</a>
</g>
</g>
<!-- Node18 -->
<g id="Node000018" class="node">
<title>Node18</title>
<g id="a_Node000018"><a xlink:title=" ">
<polygon fill="#e0e0e0" stroke="#999999" points="977.25,-20 923.75,-20 923.75,0 977.25,0 977.25,-20"/>
<text text-anchor="middle" x="950.5" y="-6.5" font-family="Helvetica,sans-Serif" font-size="10.00">iostream</text>
</a>
</g>
</g>
<!-- Node12&#45;&gt;Node18 -->
<g id="edge21_Node000012_Node000018" class="edge">
<title>Node12&#45;&gt;Node18</title>
<g id="a_edge21_Node000012_Node000018"><a xlink:title=" ">
<path fill="none" stroke="#63b8ff" d="M588.39,-183.9C654.93,-172.85 806.14,-147.45 810.5,-144 843.9,-117.56 818.49,-86.24 848.5,-56 865.95,-38.41 891.45,-27.16 912.59,-20.31"/>
<polygon fill="#63b8ff" stroke="#63b8ff" points="913.47,-23.7 922.04,-17.47 911.45,-17 913.47,-23.7"/>
</a>
</g>
</g>
<!-- Node14 -->
<g id="Node000014" class="node">
<title>Node14</title>
<g id="a_Node000014"><a xlink:title=" ">
<polygon fill="#e0e0e0" stroke="#999999" points="778.38,-82 680.62,-82 680.62,-62 778.38,-62 778.38,-82"/>
<text text-anchor="middle" x="729.5" y="-68.5" font-family="Helvetica,sans-Serif" font-size="10.00">nlohmann/json.hpp</text>
</a>
</g>
</g>
<!-- Node13&#45;&gt;Node14 -->
<g id="edge15_Node000013_Node000014" class="edge">
<title>Node13&#45;&gt;Node14</title>
<g id="a_edge15_Node000013_Node000014"><a xlink:title=" ">
<path fill="none" stroke="#63b8ff" d="M658.62,-123.62C671.69,-114.29 691.99,-99.79 707.52,-88.7"/>
<polygon fill="#63b8ff" stroke="#63b8ff" points="709.13,-91.85 715.24,-83.19 705.06,-86.15 709.13,-91.85"/>
</a>
</g>
</g>
<!-- Node13&#45;&gt;Node15 -->
<g id="edge16_Node000013_Node000015" class="edge">
<title>Node13&#45;&gt;Node15</title>
<g id="a_edge16_Node000013_Node000015"><a xlink:title=" ">
<path fill="none" stroke="#63b8ff" d="M631.75,-123.62C618.06,-114.29 596.8,-99.79 580.53,-88.7"/>
<polygon fill="#63b8ff" stroke="#63b8ff" points="582.64,-85.9 572.4,-83.16 578.69,-91.69 582.64,-85.9"/>
</a>
</g>
</g>
<!-- Node16 -->
<g id="Node000016" class="node">
<title>Node16</title>
<g id="a_Node000016"><a xlink:title=" ">
<polygon fill="#e0e0e0" stroke="#999999" points="663,-82 614,-82 614,-62 663,-62 663,-82"/>
<text text-anchor="middle" x="638.5" y="-68.5" font-family="Helvetica,sans-Serif" font-size="10.00">fstream</text>
</a>
</g>
</g>
<!-- Node13&#45;&gt;Node16 -->
<g id="edge17_Node000013_Node000016" class="edge">
<title>Node13&#45;&gt;Node16</title>
<g id="a_edge17_Node000013_Node000016"><a xlink:title=" ">
<path fill="none" stroke="#63b8ff" d="M644.41,-123.62C643.47,-115.56 642.08,-103.65 640.88,-93.41"/>
<polygon fill="#63b8ff" stroke="#63b8ff" points="644.37,-93.14 639.74,-83.62 637.42,-93.95 644.37,-93.14"/>
</a>
</g>
</g>
<!-- Node20 -->
<g id="Node000020" class="node">
<title>Node20</title>
<g id="a_Node000020"><a xlink:href="../../df/d13/console__linux_8hpp.html" target="_top" xlink:title=" ">
<polygon fill="white" stroke="#666666" points="1230.5,-144 1136.5,-144 1136.5,-124 1230.5,-124 1230.5,-144"/>
<text text-anchor="middle" x="1183.5" y="-130.5" font-family="Helvetica,sans-Serif" font-size="10.00">console_linux.hpp</text>
</a>
</g>
</g>
<!-- Node19&#45;&gt;Node20 -->
<g id="edge23_Node000019_Node000020" class="edge">
<title>Node19&#45;&gt;Node20</title>
<g id="a_edge23_Node000019_Node000020"><a xlink:title=" ">
<path fill="none" stroke="#63b8ff" d="M995.48,-179.53C1033.61,-170.5 1091.22,-156.85 1132.62,-147.05"/>
<polygon fill="#63b8ff" stroke="#63b8ff" points="1133.17,-150.52 1142.1,-144.81 1131.56,-143.7 1133.17,-150.52"/>
</a>
</g>
</g>
<!-- Node21 -->
<g id="Node000021" class="node">
<title>Node21</title>
<g id="a_Node000021"><a xlink:href="../../dd/d90/system_8hpp.html" target="_top" xlink:title=" ">
<polygon fill="white" stroke="#666666" points="1117.88,-82 987.12,-82 987.12,-62 1117.88,-62 1117.88,-82"/>
<text text-anchor="middle" x="1052.5" y="-68.5" font-family="Helvetica,sans-Serif" font-size="10.00">sokoban_core/system.hpp</text>
</a>
</g>
</g>
<!-- Node20&#45;&gt;Node21 -->
<g id="edge24_Node000020_Node000021" class="edge">
<title>Node20&#45;&gt;Node21</title>
<g id="a_edge24_Node000020_Node000021"><a xlink:title=" ">
<path fill="none" stroke="#63b8ff" d="M1163.03,-123.62C1141.59,-113.81 1107.68,-98.27 1083.07,-87"/>
<polygon fill="#63b8ff" stroke="#63b8ff" points="1084.75,-83.92 1074.2,-82.94 1081.84,-90.29 1084.75,-83.92"/>
</a>
</g>
</g>
<!-- Node22 -->
<g id="Node000022" class="node">
<title>Node22</title>
<g id="a_Node000022"><a xlink:title=" ">
<polygon fill="#e0e0e0" stroke="#999999" points="1126.75,-20 1070.25,-20 1070.25,0 1126.75,0 1126.75,-20"/>
<text text-anchor="middle" x="1098.5" y="-6.5" font-family="Helvetica,sans-Serif" font-size="10.00">termios.h</text>
</a>
</g>
</g>
<!-- Node20&#45;&gt;Node22 -->
<g id="edge35_Node000020_Node000022" class="edge">
<title>Node20&#45;&gt;Node22</title>
<g id="a_edge35_Node000020_Node000022"><a xlink:title=" ">
<path fill="none" stroke="#63b8ff" d="M1177.11,-123.83C1163.2,-103.87 1129.96,-56.15 1111.47,-29.61"/>
<polygon fill="#63b8ff" stroke="#63b8ff" points="1114.42,-27.72 1105.83,-21.52 1108.67,-31.72 1114.42,-27.72"/>
</a>
</g>
</g>
<!-- Node23 -->
<g id="Node000023" class="node">
<title>Node23</title>
<g id="a_Node000023"><a xlink:href="../../d7/dff/key__definitions__linux_8hpp.html" target="_top" xlink:title=" ">
<polygon fill="white" stroke="#666666" points="1305.88,-88 1211.12,-88 1211.12,-56 1305.88,-56 1305.88,-88"/>
<text text-anchor="start" x="1219.12" y="-74.5" font-family="Helvetica,sans-Serif" font-size="10.00">tui/key_definitions</text>
<text text-anchor="middle" x="1258.5" y="-62.5" font-family="Helvetica,sans-Serif" font-size="10.00">_linux.hpp</text>
</a>
</g>
</g>
<!-- Node20&#45;&gt;Node23 -->
<g id="edge27_Node000020_Node000023" class="edge">
<title>Node20&#45;&gt;Node23</title>
<g id="a_edge27_Node000020_Node000023"><a xlink:title=" ">
<path fill="none" stroke="#63b8ff" d="M1195.22,-123.62C1204.61,-116.11 1218.18,-105.26 1230.34,-95.52"/>
<polygon fill="#63b8ff" stroke="#63b8ff" points="1232.48,-98.3 1238.1,-89.32 1228.11,-92.83 1232.48,-98.3"/>
</a>
</g>
</g>
<!-- Node24 -->
<g id="Node000024" class="node">
<title>Node24</title>
<g id="a_Node000024"><a xlink:title=" ">
<polygon fill="#e0e0e0" stroke="#999999" points="1243.12,-20 1197.88,-20 1197.88,0 1243.12,0 1243.12,-20"/>
<text text-anchor="middle" x="1220.5" y="-6.5" font-family="Helvetica,sans-Serif" font-size="10.00">cstdint</text>
</a>
</g>
</g>
<!-- Node20&#45;&gt;Node24 -->
<g id="edge36_Node000020_Node000024" class="edge">
<title>Node20&#45;&gt;Node24</title>
<g id="a_edge36_Node000020_Node000024"><a xlink:title=" ">
<path fill="none" stroke="#63b8ff" d="M1185.32,-123.88C1188.32,-109.34 1194.74,-80.12 1202.5,-56 1205.2,-47.6 1208.71,-38.52 1211.92,-30.74"/>
<polygon fill="#63b8ff" stroke="#63b8ff" points="1215.13,-32.14 1215.81,-21.56 1208.68,-29.41 1215.13,-32.14"/>
</a>
</g>
</g>
<!-- Node25 -->
<g id="Node000025" class="node">
<title>Node25</title>
<g id="a_Node000025"><a xlink:title=" ">
<polygon fill="#e0e0e0" stroke="#999999" points="1369.12,-82 1323.88,-82 1323.88,-62 1369.12,-62 1369.12,-82"/>
<text text-anchor="middle" x="1346.5" y="-68.5" font-family="Helvetica,sans-Serif" font-size="10.00">stdio.h</text>
</a>
</g>
</g>
<!-- Node20&#45;&gt;Node25 -->
<g id="edge29_Node000020_Node000025" class="edge">
<title>Node20&#45;&gt;Node25</title>
<g id="a_edge29_Node000020_Node000025"><a xlink:title=" ">
<path fill="none" stroke="#63b8ff" d="M1214.02,-123.54C1240.79,-115.01 1280.62,-101.71 1314.5,-88 1315.29,-87.68 1316.09,-87.35 1316.89,-87.02"/>
<polygon fill="#63b8ff" stroke="#63b8ff" points="1318.25,-90.24 1325.97,-82.99 1315.41,-83.84 1318.25,-90.24"/>
</a>
</g>
</g>
<!-- Node26 -->
<g id="Node000026" class="node">
<title>Node26</title>
<g id="a_Node000026"><a xlink:title=" ">
<polygon fill="#e0e0e0" stroke="#999999" points="1434.25,-82 1386.75,-82 1386.75,-62 1434.25,-62 1434.25,-82"/>
<text text-anchor="middle" x="1410.5" y="-68.5" font-family="Helvetica,sans-Serif" font-size="10.00">stdlib.h</text>
</a>
</g>
</g>
<!-- Node20&#45;&gt;Node26 -->
<g id="edge30_Node000020_Node000026" class="edge">
<title>Node20&#45;&gt;Node26</title>
<g id="a_edge30_Node000020_Node000026"><a xlink:title=" ">
<path fill="none" stroke="#63b8ff" d="M1230.77,-124.99C1270.76,-117.54 1329.24,-105.01 1378.5,-88 1379.63,-87.61 1380.78,-87.19 1381.92,-86.75"/>
<polygon fill="#63b8ff" stroke="#63b8ff" points="1382.93,-90.13 1390.77,-83 1380.2,-83.68 1382.93,-90.13"/>
</a>
</g>
</g>
<!-- Node27 -->
<g id="Node000027" class="node">
<title>Node27</title>
<g id="a_Node000027"><a xlink:title=" ">
<polygon fill="#e0e0e0" stroke="#999999" points="1514.38,-82 1452.62,-82 1452.62,-62 1514.38,-62 1514.38,-82"/>
<text text-anchor="middle" x="1483.5" y="-68.5" font-family="Helvetica,sans-Serif" font-size="10.00">sys/time.h</text>
</a>
</g>
</g>
<!-- Node20&#45;&gt;Node27 -->
<g id="edge31_Node000020_Node000027" class="edge">
<title>Node20&#45;&gt;Node27</title>
<g id="a_edge31_Node000020_Node000027"><a xlink:title=" ">
<path fill="none" stroke="#63b8ff" d="M1230.57,-127.55C1283.1,-120.85 1370.33,-107.86 1443.5,-88 1445.51,-87.46 1447.55,-86.85 1449.61,-86.2"/>
<polygon fill="#63b8ff" stroke="#63b8ff" points="1450.72,-89.52 1459.04,-82.96 1448.45,-82.9 1450.72,-89.52"/>
</a>
</g>
</g>
<!-- Node28 -->
<g id="Node000028" class="node">
<title>Node28</title>
<g id="a_Node000028"><a xlink:title=" ">
<polygon fill="#e0e0e0" stroke="#999999" points="1599,-82 1532,-82 1532,-62 1599,-62 1599,-82"/>
<text text-anchor="middle" x="1565.5" y="-68.5" font-family="Helvetica,sans-Serif" font-size="10.00">sys/types.h</text>
</a>
</g>
</g>
<!-- Node20&#45;&gt;Node28 -->
<g id="edge32_Node000020_Node000028" class="edge">
<title>Node20&#45;&gt;Node28</title>
<g id="a_edge32_Node000020_Node000028"><a xlink:title=" ">
<path fill="none" stroke="#63b8ff" d="M1230.83,-129.91C1297.05,-124.87 1420.77,-112.85 1523.5,-88 1525.95,-87.41 1528.45,-86.73 1530.95,-85.98"/>
<polygon fill="#63b8ff" stroke="#63b8ff" points="1531.92,-89.35 1540.34,-82.93 1529.75,-82.69 1531.92,-89.35"/>
</a>
</g>
</g>
<!-- Node29 -->
<g id="Node000029" class="node">
<title>Node29</title>
<g id="a_Node000029"><a xlink:title=" ">
<polygon fill="#e0e0e0" stroke="#999999" points="907.75,-82 857.25,-82 857.25,-62 907.75,-62 907.75,-82"/>
<text text-anchor="middle" x="882.5" y="-68.5" font-family="Helvetica,sans-Serif" font-size="10.00">unistd.h</text>
</a>
</g>
</g>
<!-- Node20&#45;&gt;Node29 -->
<g id="edge33_Node000020_Node000029" class="edge">
<title>Node20&#45;&gt;Node29</title>
<g id="a_edge33_Node000020_Node000029"><a xlink:title=" ">
<path fill="none" stroke="#63b8ff" d="M1136.13,-128.42C1082.33,-122.43 992.31,-110.02 917.5,-88 915.91,-87.53 914.3,-87.01 912.69,-86.46"/>
<polygon fill="#63b8ff" stroke="#63b8ff" points="914.19,-83.29 903.6,-82.95 911.67,-89.82 914.19,-83.29"/>
</a>
</g>
</g>
<!-- Node30 -->
<g id="Node000030" class="node">
<title>Node30</title>
<g id="a_Node000030"><a xlink:title=" ">
<polygon fill="#e0e0e0" stroke="#999999" points="969,-82 926,-82 926,-62 969,-62 969,-82"/>
<text text-anchor="middle" x="947.5" y="-68.5" font-family="Helvetica,sans-Serif" font-size="10.00">fcntl.h</text>
</a>
</g>
</g>
<!-- Node20&#45;&gt;Node30 -->
<g id="edge34_Node000020_Node000030" class="edge">
<title>Node20&#45;&gt;Node30</title>
<g id="a_edge34_Node000020_Node000030"><a xlink:title=" ">
<path fill="none" stroke="#63b8ff" d="M1136.23,-125.87C1094.12,-118.75 1031.18,-106.24 978.5,-88 977.54,-87.67 976.56,-87.31 975.59,-86.94"/>
<polygon fill="#63b8ff" stroke="#63b8ff" points="977.19,-83.82 966.62,-83.06 974.41,-90.24 977.19,-83.82"/>
</a>
</g>
</g>
<!-- Node21&#45;&gt;Node18 -->
<g id="edge26_Node000021_Node000018" class="edge">
<title>Node21&#45;&gt;Node18</title>
<g id="a_edge26_Node000021_Node000018"><a xlink:title=" ">
<path fill="none" stroke="#63b8ff" d="M1036.56,-61.62C1020.39,-52.11 995.11,-37.24 976.13,-26.08"/>
<polygon fill="#63b8ff" stroke="#63b8ff" points="978.02,-23.13 967.63,-21.08 974.47,-29.16 978.02,-23.13"/>
</a>
</g>
</g>
<!-- Node21&#45;&gt;Node22 -->
<g id="edge25_Node000021_Node000022" class="edge">
<title>Node21&#45;&gt;Node22</title>
<g id="a_edge25_Node000021_Node000022"><a xlink:title=" ">
<path fill="none" stroke="#63b8ff" d="M1059.69,-61.62C1066.34,-52.94 1076.42,-39.8 1084.64,-29.08"/>
<polygon fill="#63b8ff" stroke="#63b8ff" points="1087.29,-31.38 1090.59,-21.31 1081.73,-27.12 1087.29,-31.38"/>
</a>
</g>
</g>
<!-- Node23&#45;&gt;Node24 -->
<g id="edge28_Node000023_Node000024" class="edge">
<title>Node23&#45;&gt;Node24</title>
<g id="a_edge28_Node000023_Node000024"><a xlink:title=" ">
<path fill="none" stroke="#63b8ff" d="M1248.71,-55.55C1243.77,-47.74 1237.72,-38.19 1232.49,-29.94"/>
<polygon fill="#63b8ff" stroke="#63b8ff" points="1235.58,-28.26 1227.27,-21.69 1229.66,-32.01 1235.58,-28.26"/>
</a>
</g>
</g>
</g>
</svg>
