<?xml version="1.0" encoding="UTF-8" standalone="no"?>
<!DOCTYPE svg PUBLIC "-//W3C//DTD SVG 1.1//EN"
 "http://www.w3.org/Graphics/SVG/1.1/DTD/svg11.dtd">
<!-- Generated by graphviz version 12.1.1 (20240910.0053)
 -->
<!-- Title: lib_sokoban_core/include/tui/console_win.hpp Pages: 1 -->
<svg width="472pt" height="164pt"
 viewBox="0.00 0.00 472.12 164.00" xmlns="http://www.w3.org/2000/svg" xmlns:xlink="http://www.w3.org/1999/xlink">
<g id="graph0" class="graph" transform="scale(1 1) rotate(0) translate(4 160)">
<title>lib_sokoban_core/include/tui/console_win.hpp</title>
<!-- Node1 -->
<g id="Node000001" class="node">
<title>Node1</title>
<g id="a_Node000001"><a xlink:title=" ">
<polygon fill="#999999" stroke="#666666" points="267,-156 141.5,-156 141.5,-124 267,-124 267,-156"/>
<text text-anchor="start" x="149.5" y="-142.5" font-family="Helvetica,sans-Serif" font-size="10.00">lib_sokoban_core/include</text>
<text text-anchor="middle" x="204.25" y="-130.5" font-family="Helvetica,sans-Serif" font-size="10.00">/tui/console_win.hpp</text>
</a>
</g>
</g>
<!-- Node2 -->
<g id="Node000002" class="node">
<title>Node2</title>
<g id="a_Node000002"><a xlink:href="../../d5/d34/windows_8hpp.html" target="_top" xlink:title=" ">
<polygon fill="white" stroke="#666666" points="282.62,-20 145.88,-20 145.88,0 282.62,0 282.62,-20"/>
<text text-anchor="middle" x="214.25" y="-6.5" font-family="Helvetica,sans-Serif" font-size="10.00">sokoban_core/windows.hpp</text>
</a>
</g>
</g>
<!-- Node1&#45;&gt;Node2 -->
<g id="edge1_Node000001_Node000002" class="edge">
<title>Node1&#45;&gt;Node2</title>
<g id="a_edge1_Node000001_Node000002"><a xlink:title=" ">
<path fill="none" stroke="#63b8ff" d="M205.46,-123.56C207.25,-100.58 210.63,-57.34 212.64,-31.66"/>
<polygon fill="#63b8ff" stroke="#63b8ff" points="216.11,-32.08 213.4,-21.84 209.14,-31.53 216.11,-32.08"/>
</a>
</g>
</g>
<!-- Node3 -->
<g id="Node000003" class="node">
<title>Node3</title>
<g id="a_Node000003"><a xlink:href="../../dd/d90/system_8hpp.html" target="_top" xlink:title=" ">
<polygon fill="white" stroke="#666666" points="166.62,-82 35.88,-82 35.88,-62 166.62,-62 166.62,-82"/>
<text text-anchor="middle" x="101.25" y="-68.5" font-family="Helvetica,sans-Serif" font-size="10.00">sokoban_core/system.hpp</text>
</a>
</g>
</g>
<!-- Node1&#45;&gt;Node3 -->
<g id="edge2_Node000001_Node000003" class="edge">
<title>Node1&#45;&gt;Node3</title>
<g id="a_edge2_Node000001_Node000003"><a xlink:title=" ">
<path fill="none" stroke="#63b8ff" d="M180.1,-123.53C163.65,-112.99 141.97,-99.09 125.5,-88.54"/>
<polygon fill="#63b8ff" stroke="#63b8ff" points="127.6,-85.72 117.29,-83.28 123.82,-91.62 127.6,-85.72"/>
</a>
</g>
</g>
<!-- Node6 -->
<g id="Node000006" class="node">
<title>Node6</title>
<g id="a_Node000006"><a xlink:href="../../d1/d73/key__definitions__win_8hpp.html" target="_top" xlink:title=" ">
<polygon fill="white" stroke="#666666" points="326.62,-88 231.88,-88 231.88,-56 326.62,-56 326.62,-88"/>
<text text-anchor="start" x="239.88" y="-74.5" font-family="Helvetica,sans-Serif" font-size="10.00">tui/key_definitions</text>
<text text-anchor="middle" x="279.25" y="-62.5" font-family="Helvetica,sans-Serif" font-size="10.00">_win.hpp</text>
</a>
</g>
</g>
<!-- Node1&#45;&gt;Node6 -->
<g id="edge5_Node000001_Node000006" class="edge">
<title>Node1&#45;&gt;Node6</title>
<g id="a_edge5_Node000001_Node000006"><a xlink:title=" ">
<path fill="none" stroke="#63b8ff" d="M221.65,-123.69C231.04,-115.42 242.83,-105.05 253.3,-95.84"/>
<polygon fill="#63b8ff" stroke="#63b8ff" points="255.36,-98.69 260.55,-89.45 250.73,-93.43 255.36,-98.69"/>
</a>
</g>
</g>
<!-- Node4 -->
<g id="Node000004" class="node">
<title>Node4</title>
<g id="a_Node000004"><a xlink:title=" ">
<polygon fill="#e0e0e0" stroke="#999999" points="56.5,-20 0,-20 0,0 56.5,0 56.5,-20"/>
<text text-anchor="middle" x="28.25" y="-6.5" font-family="Helvetica,sans-Serif" font-size="10.00">termios.h</text>
</a>
</g>
</g>
<!-- Node3&#45;&gt;Node4 -->
<g id="edge3_Node000003_Node000004" class="edge">
<title>Node3&#45;&gt;Node4</title>
<g id="a_edge3_Node000003_Node000004"><a xlink:title=" ">
<path fill="none" stroke="#63b8ff" d="M89.84,-61.62C78.64,-52.41 61.31,-38.17 47.88,-27.14"/>
<polygon fill="#63b8ff" stroke="#63b8ff" points="50.45,-24.72 40.51,-21.07 46.01,-30.13 50.45,-24.72"/>
</a>
</g>
</g>
<!-- Node5 -->
<g id="Node000005" class="node">
<title>Node5</title>
<g id="a_Node000005"><a xlink:title=" ">
<polygon fill="#e0e0e0" stroke="#999999" points="128,-20 74.5,-20 74.5,0 128,0 128,-20"/>
<text text-anchor="middle" x="101.25" y="-6.5" font-family="Helvetica,sans-Serif" font-size="10.00">iostream</text>
</a>
</g>
</g>
<!-- Node3&#45;&gt;Node5 -->
<g id="edge4_Node000003_Node000005" class="edge">
<title>Node3&#45;&gt;Node5</title>
<g id="a_edge4_Node000003_Node000005"><a xlink:title=" ">
<path fill="none" stroke="#63b8ff" d="M101.25,-61.62C101.25,-53.56 101.25,-41.65 101.25,-31.41"/>
<polygon fill="#63b8ff" stroke="#63b8ff" points="104.75,-31.63 101.25,-21.63 97.75,-31.63 104.75,-31.63"/>
</a>
</g>
</g>
<!-- Node6&#45;&gt;Node2 -->
<g id="edge7_Node000006_Node000002" class="edge">
<title>Node6&#45;&gt;Node2</title>
<g id="a_edge7_Node000006_Node000002"><a xlink:title=" ">
<path fill="none" stroke="#63b8ff" d="M262.51,-55.55C253.39,-47.13 242.08,-36.69 232.71,-28.04"/>
<polygon fill="#63b8ff" stroke="#63b8ff" points="235.28,-25.65 225.55,-21.43 230.53,-30.79 235.28,-25.65"/>
</a>
</g>
</g>
<!-- Node7 -->
<g id="Node000007" class="node">
<title>Node7</title>
<g id="a_Node000007"><a xlink:href="../../de/d85/key__definitions_8hpp.html" target="_top" xlink:title=" ">
<polygon fill="white" stroke="#666666" points="464.12,-20 300.38,-20 300.38,0 464.12,0 464.12,-20"/>
<text text-anchor="middle" x="382.25" y="-6.5" font-family="Helvetica,sans-Serif" font-size="10.00">sokoban_core/key_definitions.hpp</text>
</a>
</g>
</g>
<!-- Node6&#45;&gt;Node7 -->
<g id="edge6_Node000006_Node000007" class="edge">
<title>Node6&#45;&gt;Node7</title>
<g id="a_edge6_Node000006_Node000007"><a xlink:title=" ">
<path fill="none" stroke="#63b8ff" d="M305.78,-55.55C321.27,-46.52 340.75,-35.17 356.17,-26.19"/>
<polygon fill="#63b8ff" stroke="#63b8ff" points="357.91,-29.23 364.79,-21.17 354.39,-23.18 357.91,-29.23"/>
</a>
</g>
</g>
</g>
</svg>
