<?xml version="1.0" encoding="UTF-8" standalone="no"?>
<!DOCTYPE svg PUBLIC "-//W3C//DTD SVG 1.1//EN"
 "http://www.w3.org/Graphics/SVG/1.1/DTD/svg11.dtd">
<!-- Generated by graphviz version 12.1.1 (20240910.0053)
 -->
<!-- Title: lib_sokoban_core/include/sokoban_core/action_logger.hpp Pages: 1 -->
<svg width="316pt" height="96pt"
 viewBox="0.00 0.00 315.50 96.00" xmlns="http://www.w3.org/2000/svg" xmlns:xlink="http://www.w3.org/1999/xlink">

<svg id="main" version="1.1" xmlns="http://www.w3.org/2000/svg" xmlns:xlink="http://www.w3.org/1999/xlink" xml:space="preserve" onload="init(evt)">
<style type="text/css"><![CDATA[
.node, .edge {opacity: 0.7;}
.node.selected, .edge.selected {opacity: 1;}
.edge:hover path { stroke: red; }
.edge:hover polygon { stroke: red; fill: red; }
]]></style>
<script type="application/ecmascript" xlink:href="../../svg.min.js"/>
<svg id="graph" class="graph">
<g id="graph0" class="graph" transform="scale(1 1) rotate(0) translate(4 92)">
<title>lib_sokoban_core/include/sokoban_core/action_logger.hpp</title>
<!-- Node1 -->
<g id="Node000001" class="node">
<title>Node1</title>
<g id="a_Node000001"><a xlink:title=" ">
<polygon fill="#999999" stroke="#666666" points="263.62,-88 104.38,-88 104.38,-56 263.62,-56 263.62,-88"/>
<text text-anchor="start" x="112.38" y="-74.5" font-family="Helvetica,sans-Serif" font-size="10.00">lib_sokoban_core/include</text>
<text text-anchor="middle" x="184" y="-62.5" font-family="Helvetica,sans-Serif" font-size="10.00">/sokoban_core/action_logger.hpp</text>
</a>
</g>
</g>
<!-- Node2 -->
<g id="Node000002" class="node">
<title>Node2</title>
<g id="a_Node000002"><a xlink:href="../../de/d85/key__definitions_8hpp.html" target="_top" xlink:title=" ">
<polygon fill="white" stroke="#666666" points="100,-20 0,-20 0,0 100,0 100,-20"/>
<text text-anchor="middle" x="50" y="-6.5" font-family="Helvetica,sans-Serif" font-size="10.00">key_definitions.hpp</text>
</a>
</g>
</g>
<!-- Node1&#45;&gt;Node2 -->
<g id="edge1_Node000001_Node000002" class="edge">
<title>Node1&#45;&gt;Node2</title>
<g id="a_edge1_Node000001_Node000002"><a xlink:title=" ">
<path fill="none" stroke="#63b8ff" d="M149.49,-55.55C128.46,-46.13 101.79,-34.19 81.35,-25.04"/>
<polygon fill="#63b8ff" stroke="#63b8ff" points="82.95,-21.92 72.39,-21.03 80.09,-28.31 82.95,-21.92"/>
</a>
</g>
</g>
<!-- Node3 -->
<g id="Node000003" class="node">
<title>Node3</title>
<g id="a_Node000003"><a xlink:title=" ">
<polygon fill="#e0e0e0" stroke="#999999" points="179.5,-20 118.5,-20 118.5,0 179.5,0 179.5,-20"/>
<text text-anchor="middle" x="149" y="-6.5" font-family="Helvetica,sans-Serif" font-size="10.00">filesystem</text>
</a>
</g>
</g>
<!-- Node1&#45;&gt;Node3 -->
<g id="edge2_Node000001_Node000003" class="edge">
<title>Node1&#45;&gt;Node3</title>
<g id="a_edge2_Node000001_Node000003"><a xlink:title=" ">
<path fill="none" stroke="#63b8ff" d="M174.99,-55.55C170.48,-47.82 164.98,-38.4 160.21,-30.21"/>
<polygon fill="#63b8ff" stroke="#63b8ff" points="163.31,-28.59 155.25,-21.72 157.27,-32.12 163.31,-28.59"/>
</a>
</g>
</g>
<!-- Node4 -->
<g id="Node000004" class="node">
<title>Node4</title>
<g id="a_Node000004"><a xlink:title=" ">
<polygon fill="#e0e0e0" stroke="#999999" points="240.5,-20 197.5,-20 197.5,0 240.5,0 240.5,-20"/>
<text text-anchor="middle" x="219" y="-6.5" font-family="Helvetica,sans-Serif" font-size="10.00">vector</text>
</a>
</g>
</g>
<!-- Node1&#45;&gt;Node4 -->
<g id="edge3_Node000001_Node000004" class="edge">
<title>Node1&#45;&gt;Node4</title>
<g id="a_edge3_Node000001_Node000004"><a xlink:title=" ">
<path fill="none" stroke="#63b8ff" d="M193.01,-55.55C197.52,-47.82 203.02,-38.4 207.79,-30.21"/>
<polygon fill="#63b8ff" stroke="#63b8ff" points="210.73,-32.12 212.75,-21.72 204.69,-28.59 210.73,-32.12"/>
</a>
</g>
</g>
<!-- Node5 -->
<g id="Node000005" class="node">
<title>Node5</title>
<g id="a_Node000005"><a xlink:title=" ">
<polygon fill="#e0e0e0" stroke="#999999" points="307.5,-20 258.5,-20 258.5,0 307.5,0 307.5,-20"/>
<text text-anchor="middle" x="283" y="-6.5" font-family="Helvetica,sans-Serif" font-size="10.00">fstream</text>
</a>
</g>
</g>
<!-- Node1&#45;&gt;Node5 -->
<g id="edge4_Node000001_Node000005" class="edge">
<title>Node1&#45;&gt;Node5</title>
<g id="a_edge4_Node000001_Node000005"><a xlink:title=" ">
<path fill="none" stroke="#63b8ff" d="M209.49,-55.55C224.39,-46.52 243.11,-35.17 257.93,-26.19"/>
<polygon fill="#63b8ff" stroke="#63b8ff" points="259.44,-29.37 266.18,-21.19 255.82,-23.38 259.44,-29.37"/>
</a>
</g>
</g>
</g>
</svg>
</svg>

<style type='text/css'>
<![CDATA[
[data-mouse-over-selected='false'] { opacity: 0.7; }
[data-mouse-over-selected='true']  { opacity: 1.0; }
]]>
</style>
<script type="application/ecmascript"><![CDATA[
document.addEventListener('DOMContentLoaded', (event) => {
  highlightEdges();
  highlightAdjacentNodes();
});
]]></script>
</svg>
