<?xml version="1.0" encoding="UTF-8" standalone="no"?>
<!DOCTYPE svg PUBLIC "-//W3C//DTD SVG 1.1//EN"
 "http://www.w3.org/Graphics/SVG/1.1/DTD/svg11.dtd">
<!-- Generated by graphviz version 12.1.1 (20240910.0053)
 -->
<!-- Title: lib_base_game/include/objects_to_symbol_hasher.hpp Pages: 1 -->
<svg width="373pt" height="244pt"
 viewBox="0.00 0.00 372.50 244.00" xmlns="http://www.w3.org/2000/svg" xmlns:xlink="http://www.w3.org/1999/xlink">
<g id="graph0" class="graph" transform="scale(1 1) rotate(0) translate(4 240)">
<title>lib_base_game/include/objects_to_symbol_hasher.hpp</title>
<!-- Node1 -->
<g id="Node000001" class="node">
<title>Node1</title>
<g id="a_Node000001"><a xlink:title=" ">
<polygon fill="#999999" stroke="#666666" points="235,-236 81,-236 81,-204 235,-204 235,-236"/>
<text text-anchor="start" x="89" y="-222.5" font-family="Helvetica,sans-Serif" font-size="10.00">lib_base_game/include</text>
<text text-anchor="middle" x="158" y="-210.5" font-family="Helvetica,sans-Serif" font-size="10.00">/objects_to_symbol_hasher.hpp</text>
</a>
</g>
</g>
<!-- Node2 -->
<g id="Node000002" class="node">
<title>Node2</title>
<g id="a_Node000002"><a xlink:href="../../de/d37/base__game__object__factory_8hpp.html" target="_top" xlink:title=" ">
<polygon fill="white" stroke="#666666" points="235,-168 81,-168 81,-136 235,-136 235,-168"/>
<text text-anchor="start" x="89" y="-154.5" font-family="Helvetica,sans-Serif" font-size="10.00">lib_base_game/include</text>
<text text-anchor="middle" x="158" y="-142.5" font-family="Helvetica,sans-Serif" font-size="10.00">/base_game_object_factory.hpp</text>
</a>
</g>
</g>
<!-- Node1&#45;&gt;Node2 -->
<g id="edge1_Node000001_Node000002" class="edge">
<title>Node1&#45;&gt;Node2</title>
<g id="a_edge1_Node000001_Node000002"><a xlink:title=" ">
<path fill="none" stroke="#63b8ff" d="M158,-192.31C158,-184.12 158,-175.38 158,-168.22"/>
<polygon fill="#63b8ff" stroke="#63b8ff" points="154.5,-192.18 158,-202.18 161.5,-192.18 154.5,-192.18"/>
</a>
</g>
</g>
<!-- Node3 -->
<g id="Node000003" class="node">
<title>Node3</title>
<g id="a_Node000003"><a xlink:href="../../d0/da1/base__game__object__factory_8cpp.html" target="_top" xlink:title=" ">
<polygon fill="white" stroke="#666666" points="154,-100 0,-100 0,-68 154,-68 154,-100"/>
<text text-anchor="start" x="8" y="-86.5" font-family="Helvetica,sans-Serif" font-size="10.00">lib_base_game/include</text>
<text text-anchor="middle" x="77" y="-74.5" font-family="Helvetica,sans-Serif" font-size="10.00">/base_game_object_factory.cpp</text>
</a>
</g>
</g>
<!-- Node2&#45;&gt;Node3 -->
<g id="edge2_Node000002_Node000003" class="edge">
<title>Node2&#45;&gt;Node3</title>
<g id="a_edge2_Node000002_Node000003"><a xlink:title=" ">
<path fill="none" stroke="#63b8ff" d="M130.51,-128.6C119.14,-119.34 106.25,-108.83 95.97,-100.45"/>
<polygon fill="#63b8ff" stroke="#63b8ff" points="128.08,-131.13 138.04,-134.74 132.5,-125.71 128.08,-131.13"/>
</a>
</g>
</g>
<!-- Node4 -->
<g id="Node000004" class="node">
<title>Node4</title>
<g id="a_Node000004"><a xlink:href="../../d5/ddc/base__session__context_8hpp.html" target="_top" xlink:title=" ">
<polygon fill="white" stroke="#666666" points="307.62,-100 172.38,-100 172.38,-68 307.62,-68 307.62,-100"/>
<text text-anchor="start" x="180.38" y="-86.5" font-family="Helvetica,sans-Serif" font-size="10.00">lib_base_game/include</text>
<text text-anchor="middle" x="240" y="-74.5" font-family="Helvetica,sans-Serif" font-size="10.00">/base_session_context.hpp</text>
</a>
</g>
</g>
<!-- Node2&#45;&gt;Node4 -->
<g id="edge3_Node000002_Node000004" class="edge">
<title>Node2&#45;&gt;Node4</title>
<g id="a_edge3_Node000002_Node000004"><a xlink:title=" ">
<path fill="none" stroke="#63b8ff" d="M185.83,-128.6C197.34,-119.34 210.39,-108.83 220.8,-100.45"/>
<polygon fill="#63b8ff" stroke="#63b8ff" points="183.79,-125.75 178.2,-134.74 188.18,-131.2 183.79,-125.75"/>
</a>
</g>
</g>
<!-- Node5 -->
<g id="Node000005" class="node">
<title>Node5</title>
<g id="a_Node000005"><a xlink:href="../../d0/d8e/base__game__action_8cpp.html" target="_top" xlink:title=" ">
<polygon fill="white" stroke="#666666" points="231.75,-32 112.25,-32 112.25,0 231.75,0 231.75,-32"/>
<text text-anchor="start" x="120.25" y="-18.5" font-family="Helvetica,sans-Serif" font-size="10.00">lib_base_game/include</text>
<text text-anchor="middle" x="172" y="-6.5" font-family="Helvetica,sans-Serif" font-size="10.00">/base_game_action.cpp</text>
</a>
</g>
</g>
<!-- Node4&#45;&gt;Node5 -->
<g id="edge4_Node000004_Node000005" class="edge">
<title>Node4&#45;&gt;Node5</title>
<g id="a_edge4_Node000004_Node000005"><a xlink:title=" ">
<path fill="none" stroke="#63b8ff" d="M216,-59.71C206.6,-50.59 196.08,-40.37 187.69,-32.22"/>
<polygon fill="#63b8ff" stroke="#63b8ff" points="213.53,-62.18 223.14,-66.64 218.4,-57.16 213.53,-62.18"/>
</a>
</g>
</g>
<!-- Node6 -->
<g id="Node000006" class="node">
<title>Node6</title>
<g id="a_Node000006"><a xlink:href="../../db/db9/lib__base__game_2include_2mod_8hpp.html" target="_top" xlink:title=" ">
<polygon fill="white" stroke="#666666" points="364.5,-32 249.5,-32 249.5,0 364.5,0 364.5,-32"/>
<text text-anchor="start" x="257.5" y="-18.5" font-family="Helvetica,sans-Serif" font-size="10.00">lib_base_game/include</text>
<text text-anchor="middle" x="307" y="-6.5" font-family="Helvetica,sans-Serif" font-size="10.00">/mod.hpp</text>
</a>
</g>
</g>
<!-- Node4&#45;&gt;Node6 -->
<g id="edge5_Node000004_Node000006" class="edge">
<title>Node4&#45;&gt;Node6</title>
<g id="a_edge5_Node000004_Node000006"><a xlink:title=" ">
<path fill="none" stroke="#63b8ff" d="M263.64,-59.71C272.91,-50.59 283.27,-40.37 291.54,-32.22"/>
<polygon fill="#63b8ff" stroke="#63b8ff" points="261.29,-57.12 256.62,-66.63 266.2,-62.11 261.29,-57.12"/>
</a>
</g>
</g>
</g>
</svg>
