<?xml version="1.0" encoding="UTF-8" standalone="no"?>
<!DOCTYPE svg PUBLIC "-//W3C//DTD SVG 1.1//EN"
 "http://www.w3.org/Graphics/SVG/1.1/DTD/svg11.dtd">
<!-- Generated by graphviz version 12.1.1 (20240910.0053)
 -->
<!-- Title: sokoban::sbg::BaseGameObjectFactory Pages: 1 -->
<svg width="159pt" height="240pt"
 viewBox="0.00 0.00 159.00 240.00" xmlns="http://www.w3.org/2000/svg" xmlns:xlink="http://www.w3.org/1999/xlink">
<g id="graph0" class="graph" transform="scale(1 1) rotate(0) translate(4 236)">
<title>sokoban::sbg::BaseGameObjectFactory</title>
<!-- Node1 -->
<g id="Node000001" class="node">
<title>Node1</title>
<g id="a_Node000001"><a xlink:title=" ">
<polygon fill="#999999" stroke="none" points="151,-112 0,-112 0,0 151,0 151,-112"/>
<text text-anchor="start" x="4.62" y="-98.5" font-family="Helvetica,sans-Serif" font-size="10.00">sokoban::sbg::BaseGameObject</text>
<text text-anchor="start" x="59" y="-86.5" font-family="Helvetica,sans-Serif" font-size="10.00">Factory</text>
<text text-anchor="start" x="74" y="-70.5" font-family="Helvetica,sans-Serif" font-size="10.00"> </text>
<text text-anchor="start" x="8" y="-54.5" font-family="Helvetica,sans-Serif" font-size="10.00">+</text>
<text text-anchor="start" x="22" y="-54.5" font-family="Helvetica,sans-Serif" font-size="10.00">BaseGameObjectFactory()</text>
<text text-anchor="start" x="8" y="-38.5" font-family="Helvetica,sans-Serif" font-size="10.00">+</text>
<text text-anchor="start" x="22" y="-38.5" font-family="Helvetica,sans-Serif" font-size="10.00">create()</text>
<text text-anchor="start" x="8" y="-22.5" font-family="Helvetica,sans-Serif" font-size="10.00">+</text>
<text text-anchor="start" x="22" y="-22.5" font-family="Helvetica,sans-Serif" font-size="10.00">create()</text>
<text text-anchor="start" x="8" y="-6.5" font-family="Helvetica,sans-Serif" font-size="10.00">+</text>
<text text-anchor="start" x="22" y="-6.5" font-family="Helvetica,sans-Serif" font-size="10.00">symbol()</text>
<polygon fill="#666666" stroke="#666666" points="0,-82 0,-82 151,-82 151,-82 0,-82"/>
<polygon fill="#666666" stroke="#666666" points="0,-66 0,-66 151,-66 151,-66 0,-66"/>
<polygon fill="none" stroke="#666666" points="0,0 0,-112 151,-112 151,0 0,0"/>
</a>
</g>
</g>
<!-- Node2 -->
<g id="Node000002" class="node">
<title>Node2</title>
<g id="a_Node000002"><a xlink:href="../../d8/ddb/classsokoban_1_1_game_object_factory.html" target="_top" xlink:title=" ">
<polygon fill="white" stroke="none" points="145.5,-232 5.5,-232 5.5,-148 145.5,-148 145.5,-232"/>
<text text-anchor="start" x="10.25" y="-218.5" font-family="Helvetica,sans-Serif" font-size="10.00">sokoban::GameObjectFactory</text>
<text text-anchor="start" x="74" y="-202.5" font-family="Helvetica,sans-Serif" font-size="10.00"> </text>
<text text-anchor="start" x="15" y="-186.5" font-family="Helvetica,sans-Serif" font-size="10.00">+</text>
<text text-anchor="start" x="30.5" y="-186.5" font-family="Helvetica,sans-Serif" font-size="10.00">~GameObjectFactory()</text>
<text text-anchor="start" x="15" y="-170.5" font-family="Helvetica,sans-Serif" font-size="10.00">+</text>
<text text-anchor="start" x="30.5" y="-170.5" font-family="Helvetica,sans-Serif" font-size="10.00">create()</text>
<text text-anchor="start" x="15" y="-154.5" font-family="Helvetica,sans-Serif" font-size="10.00">+</text>
<text text-anchor="start" x="30.5" y="-154.5" font-family="Helvetica,sans-Serif" font-size="10.00">create()</text>
<polygon fill="#666666" stroke="#666666" points="5.5,-214 5.5,-214 145.5,-214 145.5,-214 5.5,-214"/>
<polygon fill="#666666" stroke="#666666" points="5.5,-198 5.5,-198 145.5,-198 145.5,-198 5.5,-198"/>
<polygon fill="none" stroke="#666666" points="5.5,-148 5.5,-232 145.5,-232 145.5,-148 5.5,-148"/>
</a>
</g>
</g>
<!-- Node2&#45;&gt;Node1 -->
<g id="edge1_Node000001_Node000002" class="edge">
<title>Node2&#45;&gt;Node1</title>
<g id="a_edge1_Node000001_Node000002"><a xlink:title=" ">
<path fill="none" stroke="#63b8ff" d="M75.5,-136.94C75.5,-128.71 75.5,-120.17 75.5,-111.87"/>
<polygon fill="none" stroke="#63b8ff" points="72,-136.8 75.5,-146.81 79,-136.81 72,-136.8"/>
</a>
</g>
</g>
</g>
</svg>
