<?xml version="1.0" encoding="UTF-8" standalone="no"?>
<!DOCTYPE svg PUBLIC "-//W3C//DTD SVG 1.1//EN"
 "http://www.w3.org/Graphics/SVG/1.1/DTD/svg11.dtd">
<!-- Generated by graphviz version 12.1.1 (20240910.0053)
 -->
<!-- Title: lib_sokoban_core/include/sokoban_core/mod.hpp Pages: 1 -->
<svg width="287pt" height="164pt"
 viewBox="0.00 0.00 287.25 164.00" xmlns="http://www.w3.org/2000/svg" xmlns:xlink="http://www.w3.org/1999/xlink">

<svg id="main" version="1.1" xmlns="http://www.w3.org/2000/svg" xmlns:xlink="http://www.w3.org/1999/xlink" xml:space="preserve" onload="init(evt)">
<style type="text/css"><![CDATA[
.node, .edge {opacity: 0.7;}
.node.selected, .edge.selected {opacity: 1;}
.edge:hover path { stroke: red; }
.edge:hover polygon { stroke: red; fill: red; }
]]></style>
<script type="application/ecmascript" xlink:href="../../svg.min.js"/>
<svg id="graph" class="graph">
<g id="graph0" class="graph" transform="scale(1 1) rotate(0) translate(4 160)">
<title>lib_sokoban_core/include/sokoban_core/mod.hpp</title>
<!-- Node1 -->
<g id="Node000001" class="node">
<title>Node1</title>
<g id="a_Node000001"><a xlink:title=" ">
<polygon fill="#999999" stroke="#666666" points="206.25,-156 80.75,-156 80.75,-124 206.25,-124 206.25,-156"/>
<text text-anchor="start" x="88.75" y="-142.5" font-family="Helvetica,sans-Serif" font-size="10.00">lib_sokoban_core/include</text>
<text text-anchor="middle" x="143.5" y="-130.5" font-family="Helvetica,sans-Serif" font-size="10.00">/sokoban_core/mod.hpp</text>
</a>
</g>
</g>
<!-- Node2 -->
<g id="Node000002" class="node">
<title>Node2</title>
<g id="a_Node000002"><a xlink:href="../../db/db9/lib__base__game_2include_2mod_8hpp.html" target="_top" xlink:title=" ">
<polygon fill="white" stroke="#666666" points="115,-88 0,-88 0,-56 115,-56 115,-88"/>
<text text-anchor="start" x="8" y="-74.5" font-family="Helvetica,sans-Serif" font-size="10.00">lib_base_game/include</text>
<text text-anchor="middle" x="57.5" y="-62.5" font-family="Helvetica,sans-Serif" font-size="10.00">/mod.hpp</text>
</a>
</g>
</g>
<!-- Node1&#45;&gt;Node2 -->
<g id="edge1_Node000001_Node000002" class="edge">
<title>Node1&#45;&gt;Node2</title>
<g id="a_edge1_Node000001_Node000002"><a xlink:title=" ">
<path fill="none" stroke="#63b8ff" d="M114.67,-116.87C102.51,-107.55 88.66,-96.91 77.64,-88.45"/>
<polygon fill="#63b8ff" stroke="#63b8ff" points="112.29,-119.46 122.35,-122.77 116.55,-113.91 112.29,-119.46"/>
</a>
</g>
</g>
<!-- Node3 -->
<g id="Node000003" class="node">
<title>Node3</title>
<g id="a_Node000003"><a xlink:href="../../df/d0a/main_8cpp.html" target="_top" xlink:title=" ">
<polygon fill="white" stroke="#666666" points="246.88,-20 122.12,-20 122.12,0 246.88,0 246.88,-20"/>
<text text-anchor="middle" x="184.5" y="-6.5" font-family="Helvetica,sans-Serif" font-size="10.00">sokoban_driver/main.cpp</text>
</a>
</g>
</g>
<!-- Node1&#45;&gt;Node3 -->
<g id="edge2_Node000001_Node000003" class="edge">
<title>Node1&#45;&gt;Node3</title>
<g id="a_edge2_Node000001_Node000003"><a xlink:title=" ">
<path fill="none" stroke="#63b8ff" d="M147.92,-112.68C151.09,-96.14 155.96,-74.5 162.5,-56 167.02,-43.21 174.2,-29.3 179.12,-20.38"/>
<polygon fill="#63b8ff" stroke="#63b8ff" points="144.53,-111.76 146.18,-122.22 151.42,-113.01 144.53,-111.76"/>
</a>
</g>
</g>
<!-- Node4 -->
<g id="Node000004" class="node">
<title>Node4</title>
<g id="a_Node000004"><a xlink:href="../../d5/d6f/mod__dynamic__library_8hpp.html" target="_top" xlink:title=" ">
<polygon fill="white" stroke="#666666" points="279.25,-88 171.75,-88 171.75,-56 279.25,-56 279.25,-88"/>
<text text-anchor="start" x="179.75" y="-74.5" font-family="Helvetica,sans-Serif" font-size="10.00">sokoban_driver/mod</text>
<text text-anchor="middle" x="225.5" y="-62.5" font-family="Helvetica,sans-Serif" font-size="10.00">_dynamic_library.hpp</text>
</a>
</g>
</g>
<!-- Node1&#45;&gt;Node4 -->
<g id="edge3_Node000001_Node000004" class="edge">
<title>Node1&#45;&gt;Node4</title>
<g id="a_edge3_Node000001_Node000004"><a xlink:title=" ">
<path fill="none" stroke="#63b8ff" d="M171.33,-116.6C182.84,-107.34 195.89,-96.83 206.3,-88.45"/>
<polygon fill="#63b8ff" stroke="#63b8ff" points="169.29,-113.75 163.7,-122.74 173.68,-119.2 169.29,-113.75"/>
</a>
</g>
</g>
<!-- Node4&#45;&gt;Node3 -->
<g id="edge4_Node000004_Node000003" class="edge">
<title>Node4&#45;&gt;Node3</title>
<g id="a_edge4_Node000004_Node000003"><a xlink:title=" ">
<path fill="none" stroke="#63b8ff" d="M208.49,-46.11C202.29,-37.04 195.65,-27.32 190.93,-20.41"/>
<polygon fill="#63b8ff" stroke="#63b8ff" points="205.56,-48.02 214.09,-54.3 211.34,-44.07 205.56,-48.02"/>
</a>
</g>
</g>
</g>
</svg>
</svg>

<style type='text/css'>
<![CDATA[
[data-mouse-over-selected='false'] { opacity: 0.7; }
[data-mouse-over-selected='true']  { opacity: 1.0; }
]]>
</style>
<script type="application/ecmascript"><![CDATA[
document.addEventListener('DOMContentLoaded', (event) => {
  highlightEdges();
  highlightAdjacentNodes();
});
]]></script>
</svg>
