<?xml version="1.0" encoding="UTF-8" standalone="no"?>
<!DOCTYPE svg PUBLIC "-//W3C//DTD SVG 1.1//EN"
 "http://www.w3.org/Graphics/SVG/1.1/DTD/svg11.dtd">
<!-- Generated by graphviz version 12.1.1 (20240910.0053)
 -->
<!-- Title: lib_sokoban_core/include/sokoban_core/game.hpp Pages: 1 -->
<svg width="353pt" height="244pt"
 viewBox="0.00 0.00 352.88 244.00" xmlns="http://www.w3.org/2000/svg" xmlns:xlink="http://www.w3.org/1999/xlink">

<svg id="main" version="1.1" xmlns="http://www.w3.org/2000/svg" xmlns:xlink="http://www.w3.org/1999/xlink" xml:space="preserve" onload="init(evt)">
<style type="text/css"><![CDATA[
.node, .edge {opacity: 0.7;}
.node.selected, .edge.selected {opacity: 1;}
.edge:hover path { stroke: red; }
.edge:hover polygon { stroke: red; fill: red; }
]]></style>
<script type="application/ecmascript" xlink:href="../../svg.min.js"/>
<svg id="graph" class="graph">
<g id="graph0" class="graph" transform="scale(1 1) rotate(0) translate(4 240)">
<title>lib_sokoban_core/include/sokoban_core/game.hpp</title>
<!-- Node1 -->
<g id="Node000001" class="node">
<title>Node1</title>
<g id="a_Node000001"><a xlink:title=" ">
<polygon fill="#999999" stroke="#666666" points="255.25,-236 129.75,-236 129.75,-204 255.25,-204 255.25,-236"/>
<text text-anchor="start" x="137.75" y="-222.5" font-family="Helvetica,sans-Serif" font-size="10.00">lib_sokoban_core/include</text>
<text text-anchor="middle" x="192.5" y="-210.5" font-family="Helvetica,sans-Serif" font-size="10.00">/sokoban_core/game.hpp</text>
</a>
</g>
</g>
<!-- Node2 -->
<g id="Node000002" class="node">
<title>Node2</title>
<g id="a_Node000002"><a xlink:href="../../d9/dc0/base__game_8hpp.html" target="_top" xlink:title=" ">
<polygon fill="white" stroke="#666666" points="159,-168 44,-168 44,-136 159,-136 159,-168"/>
<text text-anchor="start" x="52" y="-154.5" font-family="Helvetica,sans-Serif" font-size="10.00">lib_base_game/include</text>
<text text-anchor="middle" x="101.5" y="-142.5" font-family="Helvetica,sans-Serif" font-size="10.00">/base_game.hpp</text>
</a>
</g>
</g>
<!-- Node1&#45;&gt;Node2 -->
<g id="edge1_Node000001_Node000002" class="edge">
<title>Node1&#45;&gt;Node2</title>
<g id="a_edge1_Node000001_Node000002"><a xlink:title=" ">
<path fill="none" stroke="#63b8ff" d="M162.37,-197.15C149.42,-187.75 134.59,-177 122.81,-168.45"/>
<polygon fill="#63b8ff" stroke="#63b8ff" points="160.02,-199.77 170.17,-202.8 164.13,-194.1 160.02,-199.77"/>
</a>
</g>
</g>
<!-- Node4 -->
<g id="Node000004" class="node">
<title>Node4</title>
<g id="a_Node000004"><a xlink:href="../../d0/d8e/base__game__action_8cpp.html" target="_top" xlink:title=" ">
<polygon fill="white" stroke="#666666" points="252.25,-32 132.75,-32 132.75,0 252.25,0 252.25,-32"/>
<text text-anchor="start" x="140.75" y="-18.5" font-family="Helvetica,sans-Serif" font-size="10.00">lib_base_game/include</text>
<text text-anchor="middle" x="192.5" y="-6.5" font-family="Helvetica,sans-Serif" font-size="10.00">/base_game_action.cpp</text>
</a>
</g>
</g>
<!-- Node1&#45;&gt;Node4 -->
<g id="edge5_Node000001_Node000004" class="edge">
<title>Node1&#45;&gt;Node4</title>
<g id="a_edge5_Node000001_Node000004"><a xlink:title=" ">
<path fill="none" stroke="#63b8ff" d="M192.5,-192.38C192.5,-149.53 192.5,-66.6 192.5,-32.36"/>
<polygon fill="#63b8ff" stroke="#63b8ff" points="189,-192.3 192.5,-202.3 196,-192.3 189,-192.3"/>
</a>
</g>
</g>
<!-- Node6 -->
<g id="Node000006" class="node">
<title>Node6</title>
<g id="a_Node000006"><a xlink:href="../../df/d0a/main_8cpp.html" target="_top" xlink:title=" ">
<polygon fill="white" stroke="#666666" points="344.88,-162 220.12,-162 220.12,-142 344.88,-142 344.88,-162"/>
<text text-anchor="middle" x="282.5" y="-148.5" font-family="Helvetica,sans-Serif" font-size="10.00">sokoban_driver/main.cpp</text>
</a>
</g>
</g>
<!-- Node1&#45;&gt;Node6 -->
<g id="edge6_Node000001_Node000006" class="edge">
<title>Node1&#45;&gt;Node6</title>
<g id="a_edge6_Node000001_Node000006"><a xlink:title=" ">
<path fill="none" stroke="#63b8ff" d="M222.44,-197.04C238.54,-185.24 257.54,-171.3 269.8,-162.32"/>
<polygon fill="#63b8ff" stroke="#63b8ff" points="220.59,-194.06 214.59,-202.8 224.73,-199.71 220.59,-194.06"/>
</a>
</g>
</g>
<!-- Node3 -->
<g id="Node000003" class="node">
<title>Node3</title>
<g id="a_Node000003"><a xlink:href="../../d5/ddc/base__session__context_8hpp.html" target="_top" xlink:title=" ">
<polygon fill="white" stroke="#666666" points="164.12,-100 28.88,-100 28.88,-68 164.12,-68 164.12,-100"/>
<text text-anchor="start" x="36.88" y="-86.5" font-family="Helvetica,sans-Serif" font-size="10.00">lib_base_game/include</text>
<text text-anchor="middle" x="96.5" y="-74.5" font-family="Helvetica,sans-Serif" font-size="10.00">/base_session_context.hpp</text>
</a>
</g>
</g>
<!-- Node2&#45;&gt;Node3 -->
<g id="edge2_Node000002_Node000003" class="edge">
<title>Node2&#45;&gt;Node3</title>
<g id="a_edge2_Node000002_Node000003"><a xlink:title=" ">
<path fill="none" stroke="#63b8ff" d="M99.48,-124.31C98.86,-116.12 98.2,-107.38 97.65,-100.22"/>
<polygon fill="#63b8ff" stroke="#63b8ff" points="95.98,-124.48 100.23,-134.18 102.96,-123.95 95.98,-124.48"/>
</a>
</g>
</g>
<!-- Node3&#45;&gt;Node4 -->
<g id="edge3_Node000003_Node000004" class="edge">
<title>Node3&#45;&gt;Node4</title>
<g id="a_edge3_Node000003_Node000004"><a xlink:title=" ">
<path fill="none" stroke="#63b8ff" d="M127.89,-61.42C141.64,-51.96 157.47,-41.08 170.02,-32.45"/>
<polygon fill="#63b8ff" stroke="#63b8ff" points="126.27,-58.29 120.01,-66.83 130.24,-64.05 126.27,-58.29"/>
</a>
</g>
</g>
<!-- Node5 -->
<g id="Node000005" class="node">
<title>Node5</title>
<g id="a_Node000005"><a xlink:href="../../db/db9/lib__base__game_2include_2mod_8hpp.html" target="_top" xlink:title=" ">
<polygon fill="white" stroke="#666666" points="115,-32 0,-32 0,0 115,0 115,-32"/>
<text text-anchor="start" x="8" y="-18.5" font-family="Helvetica,sans-Serif" font-size="10.00">lib_base_game/include</text>
<text text-anchor="middle" x="57.5" y="-6.5" font-family="Helvetica,sans-Serif" font-size="10.00">/mod.hpp</text>
</a>
</g>
</g>
<!-- Node3&#45;&gt;Node5 -->
<g id="edge4_Node000003_Node000005" class="edge">
<title>Node3&#45;&gt;Node5</title>
<g id="a_edge4_Node000003_Node000005"><a xlink:title=" ">
<path fill="none" stroke="#63b8ff" d="M81.74,-58.02C76.61,-49.34 71.02,-39.88 66.5,-32.22"/>
<polygon fill="#63b8ff" stroke="#63b8ff" points="78.58,-59.56 86.68,-66.39 84.61,-56 78.58,-59.56"/>
</a>
</g>
</g>
</g>
</svg>
</svg>

<style type='text/css'>
<![CDATA[
[data-mouse-over-selected='false'] { opacity: 0.7; }
[data-mouse-over-selected='true']  { opacity: 1.0; }
]]>
</style>
<script type="application/ecmascript"><![CDATA[
document.addEventListener('DOMContentLoaded', (event) => {
  highlightEdges();
  highlightAdjacentNodes();
});
]]></script>
</svg>
