<?xml version="1.0" encoding="UTF-8" standalone="no"?>
<!DOCTYPE svg PUBLIC "-//W3C//DTD SVG 1.1//EN"
 "http://www.w3.org/Graphics/SVG/1.1/DTD/svg11.dtd">
<!-- Generated by graphviz version 12.1.2 (20240928.0832)
 -->
<!-- Title: editor_lib/include/editor/primitive_items.h Pages: 1 -->
<svg width="315pt" height="316pt"
 viewBox="0.00 0.00 315.19 315.75" xmlns="http://www.w3.org/2000/svg" xmlns:xlink="http://www.w3.org/1999/xlink">

<svg id="main" version="1.1" xmlns="http://www.w3.org/2000/svg" xmlns:xlink="http://www.w3.org/1999/xlink" xml:space="preserve">

<style type="text/css"><![CDATA[
.node, .edge {opacity: 0.7;}
.node.selected, .edge.selected {opacity: 1;}
.edge:hover path { stroke: red; }
.edge:hover polygon { stroke: red; fill: red; }
]]></style>
<script type="application/ecmascript" xlink:href="../../svg.min.js"/>
<svg id="graph" class="graph">
<g id="graph0" class="graph" transform="scale(1 1) rotate(0) translate(4 311.75)">
<title>editor_lib/include/editor/primitive_items.h</title>
<!-- Node1 -->
<g id="Node000001" class="node">
<title>Node1</title>
<g id="a_Node000001"><a xlink:title=" ">
<polygon fill="#999999" stroke="#666666" points="279.62,-307.75 160.12,-307.75 160.12,-277.25 279.62,-277.25 279.62,-307.75"/>
<text text-anchor="start" x="168.12" y="-294.25" font-family="Helvetica,sans-Serif" font-size="10.00">editor_lib/include</text>
<text text-anchor="middle" x="219.88" y="-283" font-family="Helvetica,sans-Serif" font-size="10.00">/editor/primitive_items.h</text>
</a>
</g>
</g>
<!-- Node2 -->
<g id="Node000002" class="node">
<title>Node2</title>
<g id="a_Node000002"><a xlink:href="../../d7/d8d/graphics__items__prototype__collection_8h.html" target="_top" xlink:title=" ">
<polygon fill="white" stroke="#666666" points="234.38,-241.25 119.38,-241.25 119.38,-199.5 234.38,-199.5 234.38,-241.25"/>
<text text-anchor="start" x="127.38" y="-227.75" font-family="Helvetica,sans-Serif" font-size="10.00">editor_lib/include</text>
<text text-anchor="start" x="127.38" y="-216.5" font-family="Helvetica,sans-Serif" font-size="10.00">/editor/graphics_items</text>
<text text-anchor="middle" x="176.88" y="-205.25" font-family="Helvetica,sans-Serif" font-size="10.00">_prototype_collection.h</text>
</a>
</g>
</g>
<!-- Node1&#45;&gt;Node2 -->
<g id="edge1_Node000001_Node000002" class="edge">
<title>Node1&#45;&gt;Node2</title>
<g id="a_edge1_Node000001_Node000002"><a xlink:title=" ">
<path fill="none" stroke="#63b8ff" d="M205.09,-267.38C199.97,-259.03 194.28,-249.76 189.36,-241.74"/>
<polygon fill="#63b8ff" stroke="#63b8ff" points="201.96,-268.98 210.17,-275.68 207.93,-265.33 201.96,-268.98"/>
</a>
</g>
</g>
<!-- Node5 -->
<g id="Node000005" class="node">
<title>Node5</title>
<g id="a_Node000005"><a xlink:href="../../df/d0a/main_8cpp.html" target="_top" xlink:title=" ">
<polygon fill="white" stroke="#666666" points="167.62,-19.25 96.12,-19.25 96.12,0 167.62,0 167.62,-19.25"/>
<text text-anchor="middle" x="131.88" y="-5.75" font-family="Helvetica,sans-Serif" font-size="10.00">src/main.cpp</text>
</a>
</g>
</g>
<!-- Node1&#45;&gt;Node5 -->
<g id="edge7_Node000001_Node000005" class="edge">
<title>Node1&#45;&gt;Node5</title>
<g id="a_edge7_Node000001_Node000005"><a xlink:title=" ">
<path fill="none" stroke="#63b8ff" d="M239,-268.08C273.64,-222.67 338.77,-121.3 288.88,-55.25 274.31,-35.97 209.51,-22.58 167.84,-15.78"/>
<polygon fill="#63b8ff" stroke="#63b8ff" points="236.45,-265.66 233.05,-275.7 241.96,-269.97 236.45,-265.66"/>
</a>
</g>
</g>
<!-- Node3 -->
<g id="Node000003" class="node">
<title>Node3</title>
<g id="a_Node000003"><a xlink:href="../../db/df5/document_8h.html" target="_top" xlink:title=" ">
<polygon fill="white" stroke="#666666" points="202,-163.5 105.75,-163.5 105.75,-133 202,-133 202,-163.5"/>
<text text-anchor="start" x="113.75" y="-150" font-family="Helvetica,sans-Serif" font-size="10.00">editor_lib/include</text>
<text text-anchor="middle" x="153.88" y="-138.75" font-family="Helvetica,sans-Serif" font-size="10.00">/editor/document.h</text>
</a>
</g>
</g>
<!-- Node2&#45;&gt;Node3 -->
<g id="edge2_Node000002_Node000003" class="edge">
<title>Node2&#45;&gt;Node3</title>
<g id="a_edge2_Node000002_Node000003"><a xlink:title=" ">
<path fill="none" stroke="#63b8ff" d="M166.65,-188.21C163.85,-179.67 160.95,-170.81 158.61,-163.7"/>
<polygon fill="#63b8ff" stroke="#63b8ff" points="163.31,-189.24 169.75,-197.65 169.96,-187.06 163.31,-189.24"/>
</a>
</g>
</g>
<!-- Node4 -->
<g id="Node000004" class="node">
<title>Node4</title>
<g id="a_Node000004"><a xlink:href="../../da/de3/add__graphics__item__command_8h.html" target="_top" xlink:title=" ">
<polygon fill="white" stroke="#666666" points="103.75,-97 0,-97 0,-55.25 103.75,-55.25 103.75,-97"/>
<text text-anchor="start" x="8" y="-83.5" font-family="Helvetica,sans-Serif" font-size="10.00">editor_lib/include</text>
<text text-anchor="start" x="8" y="-72.25" font-family="Helvetica,sans-Serif" font-size="10.00">/editor/add_graphics</text>
<text text-anchor="middle" x="51.88" y="-61" font-family="Helvetica,sans-Serif" font-size="10.00">_item_command.h</text>
</a>
</g>
</g>
<!-- Node3&#45;&gt;Node4 -->
<g id="edge3_Node000003_Node000004" class="edge">
<title>Node3&#45;&gt;Node4</title>
<g id="a_edge3_Node000003_Node000004"><a xlink:title=" ">
<path fill="none" stroke="#63b8ff" d="M123.53,-126.39C110.24,-117.25 94.7,-106.56 81.49,-97.49"/>
<polygon fill="#63b8ff" stroke="#63b8ff" points="121.27,-129.08 131.49,-131.86 125.24,-123.31 121.27,-129.08"/>
</a>
</g>
</g>
<!-- Node3&#45;&gt;Node5 -->
<g id="edge6_Node000003_Node000005" class="edge">
<title>Node3&#45;&gt;Node5</title>
<g id="a_edge6_Node000003_Node000005"><a xlink:title=" ">
<path fill="none" stroke="#63b8ff" d="M149.71,-121.4C144.71,-90.33 136.58,-39.85 133.31,-19.52"/>
<polygon fill="#63b8ff" stroke="#63b8ff" points="146.23,-121.82 151.28,-131.13 153.15,-120.71 146.23,-121.82"/>
</a>
</g>
</g>
<!-- Node6 -->
<g id="Node000006" class="node">
<title>Node6</title>
<g id="a_Node000006"><a xlink:href="../../d9/d02/remove__graphics__item__command_8h.html" target="_top" xlink:title=" ">
<polygon fill="white" stroke="#666666" points="280,-97 159.75,-97 159.75,-55.25 280,-55.25 280,-97"/>
<text text-anchor="start" x="167.75" y="-83.5" font-family="Helvetica,sans-Serif" font-size="10.00">editor_lib/include</text>
<text text-anchor="start" x="167.75" y="-72.25" font-family="Helvetica,sans-Serif" font-size="10.00">/editor/remove_graphics</text>
<text text-anchor="middle" x="219.88" y="-61" font-family="Helvetica,sans-Serif" font-size="10.00">_item_command.h</text>
</a>
</g>
</g>
<!-- Node3&#45;&gt;Node6 -->
<g id="edge5_Node000003_Node000006" class="edge">
<title>Node3&#45;&gt;Node6</title>
<g id="a_edge5_Node000003_Node000006"><a xlink:title=" ">
<path fill="none" stroke="#63b8ff" d="M175.28,-124.5C183.47,-115.8 192.75,-105.95 200.71,-97.49"/>
<polygon fill="#63b8ff" stroke="#63b8ff" points="172.89,-121.94 168.59,-131.62 177.99,-126.73 172.89,-121.94"/>
</a>
</g>
</g>
<!-- Node4&#45;&gt;Node5 -->
<g id="edge4_Node000004_Node000005" class="edge">
<title>Node4&#45;&gt;Node5</title>
<g id="a_edge4_Node000004_Node000005"><a xlink:title=" ">
<path fill="none" stroke="#63b8ff" d="M85.64,-47.9C98.16,-37.81 111.5,-27.05 120.62,-19.7"/>
<polygon fill="#63b8ff" stroke="#63b8ff" points="83.52,-45.12 77.93,-54.12 87.91,-50.57 83.52,-45.12"/>
</a>
</g>
</g>
</g>
</svg>
</svg>

<style type='text/css'>
<![CDATA[
[data-mouse-over-selected='false'] { opacity: 0.7; }
[data-mouse-over-selected='true']  { opacity: 1.0; }
]]>
</style>
<script type="application/ecmascript"><![CDATA[
document.addEventListener('DOMContentLoaded', (event) => {
  highlightEdges();
  highlightAdjacentNodes();
});
]]></script>
</svg>
