<?xml version="1.0" encoding="UTF-8" standalone="no"?>
<!DOCTYPE svg PUBLIC "-//W3C//DTD SVG 1.1//EN"
 "http://www.w3.org/Graphics/SVG/1.1/DTD/svg11.dtd">
<!-- Generated by graphviz version 12.1.1 (20240910.0053)
 -->
<!-- Title: sokoban::sbg::BaseGameAction Pages: 1 -->
<svg width="159pt" height="180pt"
 viewBox="0.00 0.00 159.00 180.00" xmlns="http://www.w3.org/2000/svg" xmlns:xlink="http://www.w3.org/1999/xlink">
<g id="graph0" class="graph" transform="scale(1 1) rotate(0) translate(4 176)">
<title>sokoban::sbg::BaseGameAction</title>
<!-- Node1 -->
<g id="Node000001" class="node">
<title>Node1</title>
<g id="a_Node000001"><a xlink:title=" ">
<polygon fill="#999999" stroke="none" points="151,-84 0,-84 0,0 151,0 151,-84"/>
<text text-anchor="start" x="5" y="-70.5" font-family="Helvetica,sans-Serif" font-size="10.00">sokoban::sbg::BaseGameAction</text>
<text text-anchor="start" x="74" y="-54.5" font-family="Helvetica,sans-Serif" font-size="10.00"> </text>
<text text-anchor="start" x="16.5" y="-38.5" font-family="Helvetica,sans-Serif" font-size="10.00">+</text>
<text text-anchor="start" x="39" y="-38.5" font-family="Helvetica,sans-Serif" font-size="10.00">BaseGameAction()</text>
<text text-anchor="start" x="16.5" y="-22.5" font-family="Helvetica,sans-Serif" font-size="10.00">+</text>
<text text-anchor="start" x="39" y="-22.5" font-family="Helvetica,sans-Serif" font-size="10.00">key()</text>
<text text-anchor="start" x="16.5" y="-6.5" font-family="Helvetica,sans-Serif" font-size="10.00">+</text>
<text text-anchor="start" x="39" y="-6.5" font-family="Helvetica,sans-Serif" font-size="10.00">perform()</text>
<polygon fill="#666666" stroke="#666666" points="0,-66 0,-66 151,-66 151,-66 0,-66"/>
<polygon fill="#666666" stroke="#666666" points="0,-50 0,-50 151,-50 151,-50 0,-50"/>
<polygon fill="none" stroke="#666666" points="0,0 0,-84 151,-84 151,0 0,0"/>
</a>
</g>
</g>
<!-- Node2 -->
<g id="Node000002" class="node">
<title>Node2</title>
<g id="a_Node000002"><a xlink:href="../../d8/dc2/classsokoban_1_1_game_action.html" target="_top" xlink:title=" ">
<polygon fill="white" stroke="none" points="128.5,-172 22.5,-172 22.5,-120 128.5,-120 128.5,-172"/>
<text text-anchor="start" x="27.12" y="-158.5" font-family="Helvetica,sans-Serif" font-size="10.00">sokoban::GameAction</text>
<text text-anchor="start" x="74" y="-142.5" font-family="Helvetica,sans-Serif" font-size="10.00"> </text>
<text text-anchor="start" x="32" y="-126.5" font-family="Helvetica,sans-Serif" font-size="10.00">+</text>
<text text-anchor="start" x="47.5" y="-126.5" font-family="Helvetica,sans-Serif" font-size="10.00">~GameAction()</text>
<polygon fill="#666666" stroke="#666666" points="22.5,-154 22.5,-154 128.5,-154 128.5,-154 22.5,-154"/>
<polygon fill="#666666" stroke="#666666" points="22.5,-138 22.5,-138 128.5,-138 128.5,-138 22.5,-138"/>
<polygon fill="none" stroke="#666666" points="22.5,-120 22.5,-172 128.5,-172 128.5,-120 22.5,-120"/>
</a>
</g>
</g>
<!-- Node2&#45;&gt;Node1 -->
<g id="edge1_Node000001_Node000002" class="edge">
<title>Node2&#45;&gt;Node1</title>
<g id="a_edge1_Node000001_Node000002"><a xlink:title=" ">
<path fill="none" stroke="#63b8ff" d="M75.5,-108.77C75.5,-100.75 75.5,-92.19 75.5,-83.99"/>
<polygon fill="none" stroke="#63b8ff" points="72,-108.53 75.5,-118.53 79,-108.53 72,-108.53"/>
</a>
</g>
</g>
</g>
</svg>
