<?xml version="1.0" encoding="UTF-8" standalone="no"?>
<!DOCTYPE svg PUBLIC "-//W3C//DTD SVG 1.1//EN"
 "http://www.w3.org/Graphics/SVG/1.1/DTD/svg11.dtd">
<!-- Generated by graphviz version 12.1.1 (20240910.0053)
 -->
<!-- Title: lib_sokoban_core/include/tui/menu_entry.hpp Pages: 1 -->
<svg width="179pt" height="232pt"
 viewBox="0.00 0.00 178.50 232.00" xmlns="http://www.w3.org/2000/svg" xmlns:xlink="http://www.w3.org/1999/xlink">
<g id="graph0" class="graph" transform="scale(1 1) rotate(0) translate(4 228)">
<title>lib_sokoban_core/include/tui/menu_entry.hpp</title>
<!-- Node1 -->
<g id="Node000001" class="node">
<title>Node1</title>
<g id="a_Node000001"><a xlink:title=" ">
<polygon fill="#999999" stroke="#666666" points="170.5,-224 45,-224 45,-192 170.5,-192 170.5,-224"/>
<text text-anchor="start" x="53" y="-210.5" font-family="Helvetica,sans-Serif" font-size="10.00">lib_sokoban_core/include</text>
<text text-anchor="middle" x="107.75" y="-198.5" font-family="Helvetica,sans-Serif" font-size="10.00">/tui/menu_entry.hpp</text>
</a>
</g>
</g>
<!-- Node2 -->
<g id="Node000002" class="node">
<title>Node2</title>
<g id="a_Node000002"><a xlink:href="../../d9/d8f/menu_8hpp.html" target="_top" xlink:title=" ">
<polygon fill="white" stroke="#666666" points="170.5,-156 45,-156 45,-124 170.5,-124 170.5,-156"/>
<text text-anchor="start" x="53" y="-142.5" font-family="Helvetica,sans-Serif" font-size="10.00">lib_sokoban_core/include</text>
<text text-anchor="middle" x="107.75" y="-130.5" font-family="Helvetica,sans-Serif" font-size="10.00">/tui/menu.hpp</text>
</a>
</g>
</g>
<!-- Node1&#45;&gt;Node2 -->
<g id="edge1_Node000001_Node000002" class="edge">
<title>Node1&#45;&gt;Node2</title>
<g id="a_edge1_Node000001_Node000002"><a xlink:title=" ">
<path fill="none" stroke="#63b8ff" d="M107.75,-180.31C107.75,-172.12 107.75,-163.38 107.75,-156.22"/>
<polygon fill="#63b8ff" stroke="#63b8ff" points="104.25,-180.18 107.75,-190.18 111.25,-180.18 104.25,-180.18"/>
</a>
</g>
</g>
<!-- Node3 -->
<g id="Node000003" class="node">
<title>Node3</title>
<g id="a_Node000003"><a xlink:href="../../dc/d7c/menu__collection_8hpp.html" target="_top" xlink:title=" ">
<polygon fill="white" stroke="#666666" points="125.5,-88 0,-88 0,-56 125.5,-56 125.5,-88"/>
<text text-anchor="start" x="8" y="-74.5" font-family="Helvetica,sans-Serif" font-size="10.00">lib_sokoban_core/include</text>
<text text-anchor="middle" x="62.75" y="-62.5" font-family="Helvetica,sans-Serif" font-size="10.00">/tui/menu_collection.hpp</text>
</a>
</g>
</g>
<!-- Node2&#45;&gt;Node3 -->
<g id="edge2_Node000002_Node000003" class="edge">
<title>Node2&#45;&gt;Node3</title>
<g id="a_edge2_Node000002_Node000003"><a xlink:title=" ">
<path fill="none" stroke="#63b8ff" d="M90.91,-114.3C84.94,-105.55 78.4,-95.96 73.13,-88.22"/>
<polygon fill="#63b8ff" stroke="#63b8ff" points="87.94,-116.15 96.46,-122.44 93.72,-112.21 87.94,-116.15"/>
</a>
</g>
</g>
<!-- Node4 -->
<g id="Node000004" class="node">
<title>Node4</title>
<g id="a_Node000004"><a xlink:href="../../df/d0a/main_8cpp.html" target="_top" xlink:title=" ">
<polygon fill="white" stroke="#666666" points="170.12,-20 45.38,-20 45.38,0 170.12,0 170.12,-20"/>
<text text-anchor="middle" x="107.75" y="-6.5" font-family="Helvetica,sans-Serif" font-size="10.00">sokoban_driver/main.cpp</text>
</a>
</g>
</g>
<!-- Node2&#45;&gt;Node4 -->
<g id="edge4_Node000002_Node000004" class="edge">
<title>Node2&#45;&gt;Node4</title>
<g id="a_edge4_Node000002_Node000004"><a xlink:title=" ">
<path fill="none" stroke="#63b8ff" d="M124.09,-113.98C128.44,-106 132.53,-96.92 134.75,-88 138.18,-74.2 138.55,-69.71 134.75,-56 131,-42.48 121.99,-28.94 115.41,-20.3"/>
<polygon fill="#63b8ff" stroke="#63b8ff" points="121.18,-112.03 119.14,-122.42 127.22,-115.57 121.18,-112.03"/>
</a>
</g>
</g>
<!-- Node3&#45;&gt;Node4 -->
<g id="edge3_Node000003_Node000004" class="edge">
<title>Node3&#45;&gt;Node4</title>
<g id="a_edge3_Node000003_Node000004"><a xlink:title=" ">
<path fill="none" stroke="#63b8ff" d="M81.2,-46.4C88.07,-37.24 95.46,-27.39 100.69,-20.41"/>
<polygon fill="#63b8ff" stroke="#63b8ff" points="78.45,-44.24 75.25,-54.34 84.05,-48.44 78.45,-44.24"/>
</a>
</g>
</g>
</g>
</svg>
