<?xml version="1.0" encoding="UTF-8" standalone="no"?>
<!DOCTYPE svg PUBLIC "-//W3C//DTD SVG 1.1//EN"
 "http://www.w3.org/Graphics/SVG/1.1/DTD/svg11.dtd">
<!-- Generated by graphviz version 12.1.1 (20240910.0053)
 -->
<!-- Title: lib_sokoban_core/include/sokoban_core/game_object_factory.hpp Pages: 1 -->
<svg width="359pt" height="324pt"
 viewBox="0.00 0.00 358.50 324.00" xmlns="http://www.w3.org/2000/svg" xmlns:xlink="http://www.w3.org/1999/xlink">

<svg id="main" version="1.1" xmlns="http://www.w3.org/2000/svg" xmlns:xlink="http://www.w3.org/1999/xlink" xml:space="preserve" onload="init(evt)">
<style type="text/css"><![CDATA[
.node, .edge {opacity: 0.7;}
.node.selected, .edge.selected {opacity: 1;}
.edge:hover path { stroke: red; }
.edge:hover polygon { stroke: red; fill: red; }
]]></style>
<script type="application/ecmascript" xlink:href="../../svg.min.js"/>
<svg id="graph" class="graph">
<g id="graph0" class="graph" transform="scale(1 1) rotate(0) translate(4 320)">
<title>lib_sokoban_core/include/sokoban_core/game_object_factory.hpp</title>
<!-- Node1 -->
<g id="Node000001" class="node">
<title>Node1</title>
<g id="a_Node000001"><a xlink:title=" ">
<polygon fill="#999999" stroke="#666666" points="255.12,-316 116.88,-316 116.88,-272 255.12,-272 255.12,-316"/>
<text text-anchor="start" x="124.88" y="-302.5" font-family="Helvetica,sans-Serif" font-size="10.00">lib_sokoban_core/include</text>
<text text-anchor="start" x="124.88" y="-290.5" font-family="Helvetica,sans-Serif" font-size="10.00">/sokoban_core/game_object</text>
<text text-anchor="middle" x="186" y="-278.5" font-family="Helvetica,sans-Serif" font-size="10.00">_factory.hpp</text>
</a>
</g>
</g>
<!-- Node2 -->
<g id="Node000002" class="node">
<title>Node2</title>
<g id="a_Node000002"><a xlink:href="../../de/d37/base__game__object__factory_8hpp.html" target="_top" xlink:title=" ">
<polygon fill="white" stroke="#666666" points="181,-236 27,-236 27,-204 181,-204 181,-236"/>
<text text-anchor="start" x="35" y="-222.5" font-family="Helvetica,sans-Serif" font-size="10.00">lib_base_game/include</text>
<text text-anchor="middle" x="104" y="-210.5" font-family="Helvetica,sans-Serif" font-size="10.00">/base_game_object_factory.hpp</text>
</a>
</g>
</g>
<!-- Node1&#45;&gt;Node2 -->
<g id="edge1_Node000001_Node000002" class="edge">
<title>Node1&#45;&gt;Node2</title>
<g id="a_edge1_Node000001_Node000002"><a xlink:title=" ">
<path fill="none" stroke="#63b8ff" d="M153.35,-264.33C142.47,-254.77 130.76,-244.5 121.48,-236.35"/>
<polygon fill="#63b8ff" stroke="#63b8ff" points="150.88,-266.82 160.7,-270.79 155.5,-261.56 150.88,-266.82"/>
</a>
</g>
</g>
<!-- Node7 -->
<g id="Node000007" class="node">
<title>Node7</title>
<g id="a_Node000007"><a xlink:href="../../df/d74/tile__map_8hpp.html" target="_top" xlink:title=" ">
<polygon fill="white" stroke="#666666" points="337.12,-236 198.88,-236 198.88,-204 337.12,-204 337.12,-236"/>
<text text-anchor="start" x="206.88" y="-222.5" font-family="Helvetica,sans-Serif" font-size="10.00">lib_sokoban_core/include</text>
<text text-anchor="middle" x="268" y="-210.5" font-family="Helvetica,sans-Serif" font-size="10.00">/sokoban_core/tile_map.hpp</text>
</a>
</g>
</g>
<!-- Node1&#45;&gt;Node7 -->
<g id="edge6_Node000001_Node000007" class="edge">
<title>Node1&#45;&gt;Node7</title>
<g id="a_edge6_Node000001_Node000007"><a xlink:title=" ">
<path fill="none" stroke="#63b8ff" d="M218.65,-264.33C229.53,-254.77 241.24,-244.5 250.52,-236.35"/>
<polygon fill="#63b8ff" stroke="#63b8ff" points="216.5,-261.56 211.3,-270.79 221.12,-266.82 216.5,-261.56"/>
</a>
</g>
</g>
<!-- Node3 -->
<g id="Node000003" class="node">
<title>Node3</title>
<g id="a_Node000003"><a xlink:href="../../d0/da1/base__game__object__factory_8cpp.html" target="_top" xlink:title=" ">
<polygon fill="white" stroke="#666666" points="154,-168 0,-168 0,-136 154,-136 154,-168"/>
<text text-anchor="start" x="8" y="-154.5" font-family="Helvetica,sans-Serif" font-size="10.00">lib_base_game/include</text>
<text text-anchor="middle" x="77" y="-142.5" font-family="Helvetica,sans-Serif" font-size="10.00">/base_game_object_factory.cpp</text>
</a>
</g>
</g>
<!-- Node2&#45;&gt;Node3 -->
<g id="edge2_Node000002_Node000003" class="edge">
<title>Node2&#45;&gt;Node3</title>
<g id="a_edge2_Node000002_Node000003"><a xlink:title=" ">
<path fill="none" stroke="#63b8ff" d="M93.43,-193.17C89.98,-184.73 86.26,-175.63 83.23,-168.22"/>
<polygon fill="#63b8ff" stroke="#63b8ff" points="90.14,-194.36 97.16,-202.29 96.62,-191.71 90.14,-194.36"/>
</a>
</g>
</g>
<!-- Node4 -->
<g id="Node000004" class="node">
<title>Node4</title>
<g id="a_Node000004"><a xlink:href="../../d5/ddc/base__session__context_8hpp.html" target="_top" xlink:title=" ">
<polygon fill="white" stroke="#666666" points="292.62,-100 157.38,-100 157.38,-68 292.62,-68 292.62,-100"/>
<text text-anchor="start" x="165.38" y="-86.5" font-family="Helvetica,sans-Serif" font-size="10.00">lib_base_game/include</text>
<text text-anchor="middle" x="225" y="-74.5" font-family="Helvetica,sans-Serif" font-size="10.00">/base_session_context.hpp</text>
</a>
</g>
</g>
<!-- Node2&#45;&gt;Node4 -->
<g id="edge3_Node000002_Node000004" class="edge">
<title>Node2&#45;&gt;Node4</title>
<g id="a_edge3_Node000002_Node000004"><a xlink:title=" ">
<path fill="none" stroke="#63b8ff" d="M132.66,-196.38C142.69,-187.92 153.75,-177.94 163,-168 183.35,-146.15 203.38,-117.74 214.94,-100.46"/>
<polygon fill="#63b8ff" stroke="#63b8ff" points="130.47,-193.65 124.98,-202.72 134.92,-199.05 130.47,-193.65"/>
</a>
</g>
</g>
<!-- Node5 -->
<g id="Node000005" class="node">
<title>Node5</title>
<g id="a_Node000005"><a xlink:href="../../d0/d8e/base__game__action_8cpp.html" target="_top" xlink:title=" ">
<polygon fill="white" stroke="#666666" points="217.75,-32 98.25,-32 98.25,0 217.75,0 217.75,-32"/>
<text text-anchor="start" x="106.25" y="-18.5" font-family="Helvetica,sans-Serif" font-size="10.00">lib_base_game/include</text>
<text text-anchor="middle" x="158" y="-6.5" font-family="Helvetica,sans-Serif" font-size="10.00">/base_game_action.cpp</text>
</a>
</g>
</g>
<!-- Node4&#45;&gt;Node5 -->
<g id="edge4_Node000004_Node000005" class="edge">
<title>Node4&#45;&gt;Node5</title>
<g id="a_edge4_Node000004_Node000005"><a xlink:title=" ">
<path fill="none" stroke="#63b8ff" d="M201.36,-59.71C192.09,-50.59 181.73,-40.37 173.46,-32.22"/>
<polygon fill="#63b8ff" stroke="#63b8ff" points="198.8,-62.11 208.38,-66.63 203.71,-57.12 198.8,-62.11"/>
</a>
</g>
</g>
<!-- Node6 -->
<g id="Node000006" class="node">
<title>Node6</title>
<g id="a_Node000006"><a xlink:href="../../db/db9/lib__base__game_2include_2mod_8hpp.html" target="_top" xlink:title=" ">
<polygon fill="white" stroke="#666666" points="350.5,-32 235.5,-32 235.5,0 350.5,0 350.5,-32"/>
<text text-anchor="start" x="243.5" y="-18.5" font-family="Helvetica,sans-Serif" font-size="10.00">lib_base_game/include</text>
<text text-anchor="middle" x="293" y="-6.5" font-family="Helvetica,sans-Serif" font-size="10.00">/mod.hpp</text>
</a>
</g>
</g>
<!-- Node4&#45;&gt;Node6 -->
<g id="edge5_Node000004_Node000006" class="edge">
<title>Node4&#45;&gt;Node6</title>
<g id="a_edge5_Node000004_Node000006"><a xlink:title=" ">
<path fill="none" stroke="#63b8ff" d="M249,-59.71C258.4,-50.59 268.92,-40.37 277.31,-32.22"/>
<polygon fill="#63b8ff" stroke="#63b8ff" points="246.6,-57.16 241.86,-66.64 251.47,-62.18 246.6,-57.16"/>
</a>
</g>
</g>
<!-- Node8 -->
<g id="Node000008" class="node">
<title>Node8</title>
<g id="a_Node000008"><a xlink:href="../../d9/dc0/base__game_8hpp.html" target="_top" xlink:title=" ">
<polygon fill="white" stroke="#666666" points="325.5,-168 210.5,-168 210.5,-136 325.5,-136 325.5,-168"/>
<text text-anchor="start" x="218.5" y="-154.5" font-family="Helvetica,sans-Serif" font-size="10.00">lib_base_game/include</text>
<text text-anchor="middle" x="268" y="-142.5" font-family="Helvetica,sans-Serif" font-size="10.00">/base_game.hpp</text>
</a>
</g>
</g>
<!-- Node7&#45;&gt;Node8 -->
<g id="edge7_Node000007_Node000008" class="edge">
<title>Node7&#45;&gt;Node8</title>
<g id="a_edge7_Node000007_Node000008"><a xlink:title=" ">
<path fill="none" stroke="#63b8ff" d="M268,-192.31C268,-184.12 268,-175.38 268,-168.22"/>
<polygon fill="#63b8ff" stroke="#63b8ff" points="264.5,-192.18 268,-202.18 271.5,-192.18 264.5,-192.18"/>
</a>
</g>
</g>
<!-- Node8&#45;&gt;Node4 -->
<g id="edge8_Node000008_Node000004" class="edge">
<title>Node8&#45;&gt;Node4</title>
<g id="a_edge8_Node000008_Node000004"><a xlink:title=" ">
<path fill="none" stroke="#63b8ff" d="M251.91,-126.3C246.21,-117.55 239.96,-107.96 234.92,-100.22"/>
<polygon fill="#63b8ff" stroke="#63b8ff" points="248.81,-127.96 257.2,-134.42 254.67,-124.14 248.81,-127.96"/>
</a>
</g>
</g>
</g>
</svg>
</svg>

<style type='text/css'>
<![CDATA[
[data-mouse-over-selected='false'] { opacity: 0.7; }
[data-mouse-over-selected='true']  { opacity: 1.0; }
]]>
</style>
<script type="application/ecmascript"><![CDATA[
document.addEventListener('DOMContentLoaded', (event) => {
  highlightEdges();
  highlightAdjacentNodes();
});
]]></script>
</svg>
