<?xml version="1.0" encoding="UTF-8" standalone="no"?>
<!DOCTYPE svg PUBLIC "-//W3C//DTD SVG 1.1//EN"
 "http://www.w3.org/Graphics/SVG/1.1/DTD/svg11.dtd">
<!-- Generated by graphviz version 12.1.1 (20240910.0053)
 -->
<!-- Title: lib_sokoban_core/include/sokoban_core/campaign.hpp Pages: 1 -->
<svg width="400pt" height="152pt"
 viewBox="0.00 0.00 399.88 152.00" xmlns="http://www.w3.org/2000/svg" xmlns:xlink="http://www.w3.org/1999/xlink">
<g id="graph0" class="graph" transform="scale(1 1) rotate(0) translate(4 148)">
<title>lib_sokoban_core/include/sokoban_core/campaign.hpp</title>
<!-- Node1 -->
<g id="Node000001" class="node">
<title>Node1</title>
<g id="a_Node000001"><a xlink:title=" ">
<polygon fill="#999999" stroke="#666666" points="349.62,-144 206.12,-144 206.12,-112 349.62,-112 349.62,-144"/>
<text text-anchor="start" x="214.12" y="-130.5" font-family="Helvetica,sans-Serif" font-size="10.00">lib_sokoban_core/include</text>
<text text-anchor="middle" x="277.88" y="-118.5" font-family="Helvetica,sans-Serif" font-size="10.00">/sokoban_core/campaign.hpp</text>
</a>
</g>
</g>
<!-- Node2 -->
<g id="Node000002" class="node">
<title>Node2</title>
<g id="a_Node000002"><a xlink:href="../../db/d42/json__utils_8hpp.html" target="_top" xlink:title=" ">
<polygon fill="white" stroke="#666666" points="206,-76 85.75,-76 85.75,-56 206,-56 206,-76"/>
<text text-anchor="middle" x="145.88" y="-62.5" font-family="Helvetica,sans-Serif" font-size="10.00">json_utils/json_utils.hpp</text>
</a>
</g>
</g>
<!-- Node1&#45;&gt;Node2 -->
<g id="edge1_Node000001_Node000002" class="edge">
<title>Node1&#45;&gt;Node2</title>
<g id="a_edge1_Node000001_Node000002"><a xlink:title=" ">
<path fill="none" stroke="#63b8ff" d="M243.88,-111.55C223.26,-102.17 197.13,-90.3 177.04,-81.17"/>
<polygon fill="#63b8ff" stroke="#63b8ff" points="178.5,-77.99 167.95,-77.03 175.61,-84.36 178.5,-77.99"/>
</a>
</g>
</g>
<!-- Node6 -->
<g id="Node000006" class="node">
<title>Node6</title>
<g id="a_Node000006"><a xlink:title=" ">
<polygon fill="#e0e0e0" stroke="#999999" points="267.38,-76 224.38,-76 224.38,-56 267.38,-56 267.38,-76"/>
<text text-anchor="middle" x="245.88" y="-62.5" font-family="Helvetica,sans-Serif" font-size="10.00">vector</text>
</a>
</g>
</g>
<!-- Node1&#45;&gt;Node6 -->
<g id="edge5_Node000001_Node000006" class="edge">
<title>Node1&#45;&gt;Node6</title>
<g id="a_edge5_Node000001_Node000006"><a xlink:title=" ">
<path fill="none" stroke="#63b8ff" d="M269.63,-111.55C265.56,-103.91 260.6,-94.61 256.27,-86.49"/>
<polygon fill="#63b8ff" stroke="#63b8ff" points="259.4,-84.92 251.6,-77.74 253.22,-88.21 259.4,-84.92"/>
</a>
</g>
</g>
<!-- Node7 -->
<g id="Node000007" class="node">
<title>Node7</title>
<g id="a_Node000007"><a xlink:title=" ">
<polygon fill="#e0e0e0" stroke="#999999" points="334,-76 285.75,-76 285.75,-56 334,-56 334,-76"/>
<text text-anchor="middle" x="309.88" y="-62.5" font-family="Helvetica,sans-Serif" font-size="10.00">istream</text>
</a>
</g>
</g>
<!-- Node1&#45;&gt;Node7 -->
<g id="edge6_Node000001_Node000007" class="edge">
<title>Node1&#45;&gt;Node7</title>
<g id="a_edge6_Node000001_Node000007"><a xlink:title=" ">
<path fill="none" stroke="#63b8ff" d="M286.12,-111.55C290.19,-103.91 295.15,-94.61 299.48,-86.49"/>
<polygon fill="#63b8ff" stroke="#63b8ff" points="302.53,-88.21 304.15,-77.74 296.35,-84.92 302.53,-88.21"/>
</a>
</g>
</g>
<!-- Node8 -->
<g id="Node000008" class="node">
<title>Node8</title>
<g id="a_Node000008"><a xlink:title=" ">
<polygon fill="#e0e0e0" stroke="#999999" points="391.88,-76 351.88,-76 351.88,-56 391.88,-56 391.88,-76"/>
<text text-anchor="middle" x="371.88" y="-62.5" font-family="Helvetica,sans-Serif" font-size="10.00">string</text>
</a>
</g>
</g>
<!-- Node1&#45;&gt;Node8 -->
<g id="edge7_Node000001_Node000008" class="edge">
<title>Node1&#45;&gt;Node8</title>
<g id="a_edge7_Node000001_Node000008"><a xlink:title=" ">
<path fill="none" stroke="#63b8ff" d="M302.08,-111.55C316.09,-102.61 333.66,-91.39 347.67,-82.45"/>
<polygon fill="#63b8ff" stroke="#63b8ff" points="349.31,-85.55 355.86,-77.22 345.55,-79.65 349.31,-85.55"/>
</a>
</g>
</g>
<!-- Node3 -->
<g id="Node000003" class="node">
<title>Node3</title>
<g id="a_Node000003"><a xlink:title=" ">
<polygon fill="#e0e0e0" stroke="#999999" points="97.75,-20 0,-20 0,0 97.75,0 97.75,-20"/>
<text text-anchor="middle" x="48.88" y="-6.5" font-family="Helvetica,sans-Serif" font-size="10.00">nlohmann/json.hpp</text>
</a>
</g>
</g>
<!-- Node2&#45;&gt;Node3 -->
<g id="edge2_Node000002_Node000003" class="edge">
<title>Node2&#45;&gt;Node3</title>
<g id="a_edge2_Node000002_Node000003"><a xlink:title=" ">
<path fill="none" stroke="#63b8ff" d="M128.98,-55.59C114.33,-47.44 92.85,-35.48 75.83,-26"/>
<polygon fill="#63b8ff" stroke="#63b8ff" points="77.67,-23.02 67.23,-21.22 74.26,-29.14 77.67,-23.02"/>
</a>
</g>
</g>
<!-- Node4 -->
<g id="Node000004" class="node">
<title>Node4</title>
<g id="a_Node000004"><a xlink:title=" ">
<polygon fill="#e0e0e0" stroke="#999999" points="176.38,-20 115.38,-20 115.38,0 176.38,0 176.38,-20"/>
<text text-anchor="middle" x="145.88" y="-6.5" font-family="Helvetica,sans-Serif" font-size="10.00">filesystem</text>
</a>
</g>
</g>
<!-- Node2&#45;&gt;Node4 -->
<g id="edge3_Node000002_Node000004" class="edge">
<title>Node2&#45;&gt;Node4</title>
<g id="a_edge3_Node000002_Node000004"><a xlink:title=" ">
<path fill="none" stroke="#63b8ff" d="M145.88,-55.59C145.88,-49.01 145.88,-39.96 145.88,-31.73"/>
<polygon fill="#63b8ff" stroke="#63b8ff" points="149.38,-31.81 145.88,-21.81 142.38,-31.81 149.38,-31.81"/>
</a>
</g>
</g>
<!-- Node5 -->
<g id="Node000005" class="node">
<title>Node5</title>
<g id="a_Node000005"><a xlink:title=" ">
<polygon fill="#e0e0e0" stroke="#999999" points="243.38,-20 194.38,-20 194.38,0 243.38,0 243.38,-20"/>
<text text-anchor="middle" x="218.88" y="-6.5" font-family="Helvetica,sans-Serif" font-size="10.00">fstream</text>
</a>
</g>
</g>
<!-- Node2&#45;&gt;Node5 -->
<g id="edge4_Node000002_Node000005" class="edge">
<title>Node2&#45;&gt;Node5</title>
<g id="a_edge4_Node000002_Node000005"><a xlink:title=" ">
<path fill="none" stroke="#63b8ff" d="M158.59,-55.59C169.27,-47.7 184.75,-36.24 197.36,-26.92"/>
<polygon fill="#63b8ff" stroke="#63b8ff" points="199.13,-29.96 205.09,-21.2 194.97,-24.33 199.13,-29.96"/>
</a>
</g>
</g>
</g>
</svg>
