<?xml version="1.0" encoding="UTF-8" standalone="no"?>
<!DOCTYPE svg PUBLIC "-//W3C//DTD SVG 1.1//EN"
 "http://www.w3.org/Graphics/SVG/1.1/DTD/svg11.dtd">
<!-- Generated by graphviz version 12.1.1 (20240910.0053)
 -->
<!-- Title: lib_sokoban_core/include/json_utils/json_utils.hpp Pages: 1 -->
<svg width="834pt" height="584pt"
 viewBox="0.00 0.00 834.20 584.00" xmlns="http://www.w3.org/2000/svg" xmlns:xlink="http://www.w3.org/1999/xlink">
<g id="graph0" class="graph" transform="scale(1 1) rotate(0) translate(4 580)">
<title>lib_sokoban_core/include/json_utils/json_utils.hpp</title>
<!-- Node1 -->
<g id="Node000001" class="node">
<title>Node1</title>
<g id="a_Node000001"><a xlink:title=" ">
<polygon fill="#999999" stroke="#666666" points="370.58,-576 245.08,-576 245.08,-544 370.58,-544 370.58,-576"/>
<text text-anchor="start" x="253.08" y="-562.5" font-family="Helvetica,sans-Serif" font-size="10.00">lib_sokoban_core/include</text>
<text text-anchor="middle" x="307.83" y="-550.5" font-family="Helvetica,sans-Serif" font-size="10.00">/json_utils/json_utils.hpp</text>
</a>
</g>
</g>
<!-- Node2 -->
<g id="Node000002" class="node">
<title>Node2</title>
<g id="a_Node000002"><a xlink:href="../../de/d37/base__game__object__factory_8hpp.html" target="_top" xlink:title=" ">
<polygon fill="white" stroke="#666666" points="182.83,-508 28.83,-508 28.83,-476 182.83,-476 182.83,-508"/>
<text text-anchor="start" x="36.83" y="-494.5" font-family="Helvetica,sans-Serif" font-size="10.00">lib_base_game/include</text>
<text text-anchor="middle" x="105.83" y="-482.5" font-family="Helvetica,sans-Serif" font-size="10.00">/base_game_object_factory.hpp</text>
</a>
</g>
</g>
<!-- Node1&#45;&gt;Node2 -->
<g id="edge1_Node000001_Node000002" class="edge">
<title>Node1&#45;&gt;Node2</title>
<g id="a_edge1_Node000001_Node000002"><a xlink:title=" ">
<path fill="none" stroke="#63b8ff" d="M249.52,-539.95C218.97,-529.97 182.02,-517.89 153.24,-508.49"/>
<polygon fill="#63b8ff" stroke="#63b8ff" points="248.43,-543.28 259.03,-543.06 250.61,-536.62 248.43,-543.28"/>
</a>
</g>
</g>
<!-- Node7 -->
<g id="Node000007" class="node">
<title>Node7</title>
<g id="a_Node000007"><a xlink:href="../../d8/d8b/campaign_8hpp.html" target="_top" xlink:title=" ">
<polygon fill="white" stroke="#666666" points="222.58,-168 79.08,-168 79.08,-136 222.58,-136 222.58,-168"/>
<text text-anchor="start" x="87.08" y="-154.5" font-family="Helvetica,sans-Serif" font-size="10.00">lib_sokoban_core/include</text>
<text text-anchor="middle" x="150.83" y="-142.5" font-family="Helvetica,sans-Serif" font-size="10.00">/sokoban_core/campaign.hpp</text>
</a>
</g>
</g>
<!-- Node1&#45;&gt;Node7 -->
<g id="edge6_Node000001_Node000007" class="edge">
<title>Node1&#45;&gt;Node7</title>
<g id="a_edge6_Node000001_Node000007"><a xlink:title=" ">
<path fill="none" stroke="#63b8ff" d="M277.94,-536.67C249.44,-512.58 210.83,-471.39 210.83,-425 210.83,-425 210.83,-425 210.83,-287 210.83,-240.61 180.5,-192.45 162.97,-168.49"/>
<polygon fill="#63b8ff" stroke="#63b8ff" points="275.64,-539.31 285.61,-542.92 280.07,-533.89 275.64,-539.31"/>
</a>
</g>
</g>
<!-- Node8 -->
<g id="Node000008" class="node">
<title>Node8</title>
<g id="a_Node000008"><a xlink:href="../../d9/d85/player_8hpp.html" target="_top" xlink:title=" ">
<polygon fill="white" stroke="#666666" points="587.7,-508 459.95,-508 459.95,-476 587.7,-476 587.7,-508"/>
<text text-anchor="start" x="467.95" y="-494.5" font-family="Helvetica,sans-Serif" font-size="10.00">lib_sokoban_core/include</text>
<text text-anchor="middle" x="523.83" y="-482.5" font-family="Helvetica,sans-Serif" font-size="10.00">/sokoban_core/player.hpp</text>
</a>
</g>
</g>
<!-- Node1&#45;&gt;Node8 -->
<g id="edge8_Node000001_Node000008" class="edge">
<title>Node1&#45;&gt;Node8</title>
<g id="a_edge8_Node000001_Node000008"><a xlink:title=" ">
<path fill="none" stroke="#63b8ff" d="M369.31,-540.21C402.15,-530.18 442.08,-517.98 473.13,-508.49"/>
<polygon fill="#63b8ff" stroke="#63b8ff" points="368.46,-536.81 359.92,-543.08 370.5,-543.51 368.46,-536.81"/>
</a>
</g>
</g>
<!-- Node15 -->
<g id="Node000015" class="node">
<title>Node15</title>
<g id="a_Node000015"><a xlink:href="../../df/d0a/main_8cpp.html" target="_top" xlink:title=" ">
<polygon fill="white" stroke="#666666" points="826.2,-230 701.45,-230 701.45,-210 826.2,-210 826.2,-230"/>
<text text-anchor="middle" x="763.83" y="-216.5" font-family="Helvetica,sans-Serif" font-size="10.00">sokoban_driver/main.cpp</text>
</a>
</g>
</g>
<!-- Node1&#45;&gt;Node15 -->
<g id="edge29_Node000001_Node000015" class="edge">
<title>Node1&#45;&gt;Node15</title>
<g id="a_edge29_Node000001_Node000015"><a xlink:title=" ">
<path fill="none" stroke="#63b8ff" d="M382.19,-555.03C524.38,-545.4 820.83,-514.57 820.83,-425 820.83,-425 820.83,-425 820.83,-355 820.83,-304.69 786.38,-251.63 771.04,-230.49"/>
<polygon fill="#63b8ff" stroke="#63b8ff" points="382.25,-551.52 372.5,-555.67 382.71,-558.5 382.25,-551.52"/>
</a>
</g>
</g>
<!-- Node17 -->
<g id="Node000017" class="node">
<title>Node17</title>
<g id="a_Node000017"><a xlink:href="../../df/d74/tile__map_8hpp.html" target="_top" xlink:title=" ">
<polygon fill="white" stroke="#666666" points="376.95,-440 238.7,-440 238.7,-408 376.95,-408 376.95,-440"/>
<text text-anchor="start" x="246.7" y="-426.5" font-family="Helvetica,sans-Serif" font-size="10.00">lib_sokoban_core/include</text>
<text text-anchor="middle" x="307.83" y="-414.5" font-family="Helvetica,sans-Serif" font-size="10.00">/sokoban_core/tile_map.hpp</text>
</a>
</g>
</g>
<!-- Node1&#45;&gt;Node17 -->
<g id="edge27_Node000001_Node000017" class="edge">
<title>Node1&#45;&gt;Node17</title>
<g id="a_edge27_Node000001_Node000017"><a xlink:title=" ">
<path fill="none" stroke="#63b8ff" d="M307.83,-532.45C307.83,-504.84 307.83,-462.6 307.83,-440.19"/>
<polygon fill="#63b8ff" stroke="#63b8ff" points="304.33,-532.11 307.83,-542.11 311.33,-532.11 304.33,-532.11"/>
</a>
</g>
</g>
<!-- Node3 -->
<g id="Node000003" class="node">
<title>Node3</title>
<g id="a_Node000003"><a xlink:href="../../d0/da1/base__game__object__factory_8cpp.html" target="_top" xlink:title=" ">
<polygon fill="white" stroke="#666666" points="182.83,-440 28.83,-440 28.83,-408 182.83,-408 182.83,-440"/>
<text text-anchor="start" x="36.83" y="-426.5" font-family="Helvetica,sans-Serif" font-size="10.00">lib_base_game/include</text>
<text text-anchor="middle" x="105.83" y="-414.5" font-family="Helvetica,sans-Serif" font-size="10.00">/base_game_object_factory.cpp</text>
</a>
</g>
</g>
<!-- Node2&#45;&gt;Node3 -->
<g id="edge2_Node000002_Node000003" class="edge">
<title>Node2&#45;&gt;Node3</title>
<g id="a_edge2_Node000002_Node000003"><a xlink:title=" ">
<path fill="none" stroke="#63b8ff" d="M105.83,-464.31C105.83,-456.12 105.83,-447.38 105.83,-440.22"/>
<polygon fill="#63b8ff" stroke="#63b8ff" points="102.33,-464.18 105.83,-474.18 109.33,-464.18 102.33,-464.18"/>
</a>
</g>
</g>
<!-- Node4 -->
<g id="Node000004" class="node">
<title>Node4</title>
<g id="a_Node000004"><a xlink:href="../../d5/ddc/base__session__context_8hpp.html" target="_top" xlink:title=" ">
<polygon fill="white" stroke="#666666" points="438.45,-100 303.2,-100 303.2,-68 438.45,-68 438.45,-100"/>
<text text-anchor="start" x="311.2" y="-86.5" font-family="Helvetica,sans-Serif" font-size="10.00">lib_base_game/include</text>
<text text-anchor="middle" x="370.83" y="-74.5" font-family="Helvetica,sans-Serif" font-size="10.00">/base_session_context.hpp</text>
</a>
</g>
</g>
<!-- Node2&#45;&gt;Node4 -->
<g id="edge3_Node000002_Node000004" class="edge">
<title>Node2&#45;&gt;Node4</title>
<g id="a_edge3_Node000002_Node000004"><a xlink:title=" ">
<path fill="none" stroke="#63b8ff" d="M55.91,-470.43C42.43,-462.7 29.05,-452.64 19.83,-440 -2.48,-409.43 0.83,-394.84 0.83,-357 0.83,-357 0.83,-357 0.83,-219 0.83,-171.03 28.26,-159.94 69.83,-136 108.52,-113.71 226.68,-98.67 302.93,-90.99"/>
<polygon fill="#63b8ff" stroke="#63b8ff" points="53.88,-473.31 64.35,-474.94 57.18,-467.14 53.88,-473.31"/>
</a>
</g>
</g>
<!-- Node5 -->
<g id="Node000005" class="node">
<title>Node5</title>
<g id="a_Node000005"><a xlink:href="../../d0/d8e/base__game__action_8cpp.html" target="_top" xlink:title=" ">
<polygon fill="white" stroke="#666666" points="449.58,-32 330.08,-32 330.08,0 449.58,0 449.58,-32"/>
<text text-anchor="start" x="338.08" y="-18.5" font-family="Helvetica,sans-Serif" font-size="10.00">lib_base_game/include</text>
<text text-anchor="middle" x="389.83" y="-6.5" font-family="Helvetica,sans-Serif" font-size="10.00">/base_game_action.cpp</text>
</a>
</g>
</g>
<!-- Node4&#45;&gt;Node5 -->
<g id="edge4_Node000004_Node000005" class="edge">
<title>Node4&#45;&gt;Node5</title>
<g id="a_edge4_Node000004_Node000005"><a xlink:title=" ">
<path fill="none" stroke="#63b8ff" d="M378.34,-56.89C380.75,-48.52 383.34,-39.54 385.44,-32.22"/>
<polygon fill="#63b8ff" stroke="#63b8ff" points="375.05,-55.66 375.65,-66.24 381.78,-57.6 375.05,-55.66"/>
</a>
</g>
</g>
<!-- Node6 -->
<g id="Node000006" class="node">
<title>Node6</title>
<g id="a_Node000006"><a xlink:href="../../db/db9/lib__base__game_2include_2mod_8hpp.html" target="_top" xlink:title=" ">
<polygon fill="white" stroke="#666666" points="600.33,-32 485.33,-32 485.33,0 600.33,0 600.33,-32"/>
<text text-anchor="start" x="493.33" y="-18.5" font-family="Helvetica,sans-Serif" font-size="10.00">lib_base_game/include</text>
<text text-anchor="middle" x="542.83" y="-6.5" font-family="Helvetica,sans-Serif" font-size="10.00">/mod.hpp</text>
</a>
</g>
</g>
<!-- Node4&#45;&gt;Node6 -->
<g id="edge5_Node000004_Node000006" class="edge">
<title>Node4&#45;&gt;Node6</title>
<g id="a_edge5_Node000004_Node000006"><a xlink:title=" ">
<path fill="none" stroke="#63b8ff" d="M421.84,-63.42C447.59,-53.54 478.38,-41.73 502.45,-32.49"/>
<polygon fill="#63b8ff" stroke="#63b8ff" points="420.65,-60.13 412.57,-66.98 423.16,-66.67 420.65,-60.13"/>
</a>
</g>
</g>
<!-- Node7&#45;&gt;Node4 -->
<g id="edge7_Node000007_Node000004" class="edge">
<title>Node7&#45;&gt;Node4</title>
<g id="a_edge7_Node000007_Node000004"><a xlink:title=" ">
<path fill="none" stroke="#63b8ff" d="M213.01,-132.34C246.54,-122.28 287.43,-110.02 319.19,-100.49"/>
<polygon fill="#63b8ff" stroke="#63b8ff" points="212.43,-128.87 203.86,-135.09 214.44,-135.57 212.43,-128.87"/>
</a>
</g>
</g>
<!-- Node8&#45;&gt;Node8 -->
<g id="edge9_Node000008_Node000008" class="edge">
<title>Node8&#45;&gt;Node8</title>
<g id="a_edge9_Node000008_Node000008"><a xlink:title=" ">
<path fill="none" stroke="#63b8ff" d="M598.9,-500.63C603.16,-498.54 605.7,-495.67 605.7,-492 605.7,-485.82 598.5,-481.89 588.02,-480.2"/>
<polygon fill="#63b8ff" stroke="#63b8ff" points="598.09,-497.22 589.47,-503.37 600.05,-503.94 598.09,-497.22"/>
</a>
</g>
</g>
<!-- Node9 -->
<g id="Node000009" class="node">
<title>Node9</title>
<g id="a_Node000009"><a xlink:href="../../da/d4c/session__context_8hpp.html" target="_top" xlink:title=" ">
<polygon fill="white" stroke="#666666" points="610.2,-440 437.45,-440 437.45,-408 610.2,-408 610.2,-440"/>
<text text-anchor="start" x="445.45" y="-426.5" font-family="Helvetica,sans-Serif" font-size="10.00">lib_sokoban_core/include</text>
<text text-anchor="middle" x="523.83" y="-414.5" font-family="Helvetica,sans-Serif" font-size="10.00">/sokoban_core/session_context.hpp</text>
</a>
</g>
</g>
<!-- Node8&#45;&gt;Node9 -->
<g id="edge10_Node000008_Node000009" class="edge">
<title>Node8&#45;&gt;Node9</title>
<g id="a_edge10_Node000008_Node000009"><a xlink:title=" ">
<path fill="none" stroke="#63b8ff" d="M523.83,-464.31C523.83,-456.12 523.83,-447.38 523.83,-440.22"/>
<polygon fill="#63b8ff" stroke="#63b8ff" points="520.33,-464.18 523.83,-474.18 527.33,-464.18 520.33,-464.18"/>
</a>
</g>
</g>
<!-- Node8&#45;&gt;Node15 -->
<g id="edge26_Node000008_Node000015" class="edge">
<title>Node8&#45;&gt;Node15</title>
<g id="a_edge26_Node000008_Node000015"><a xlink:title=" ">
<path fill="none" stroke="#63b8ff" d="M575.76,-471.16C619.88,-451.9 682.04,-418.72 720.83,-372 757.04,-328.38 762.79,-255.96 763.68,-230.33"/>
<polygon fill="#63b8ff" stroke="#63b8ff" points="574.47,-467.91 566.64,-475.05 577.21,-474.35 574.47,-467.91"/>
</a>
</g>
</g>
<!-- Node9&#45;&gt;Node4 -->
<g id="edge11_Node000009_Node000004" class="edge">
<title>Node9&#45;&gt;Node4</title>
<g id="a_edge11_Node000009_Node000004"><a xlink:title=" ">
<path fill="none" stroke="#63b8ff" d="M516.93,-396.73C505.43,-354.79 480.36,-270.63 447.83,-204 428.61,-164.64 398.89,-122.48 382.56,-100.45"/>
<polygon fill="#63b8ff" stroke="#63b8ff" points="513.49,-397.43 519.47,-406.17 520.25,-395.6 513.49,-397.43"/>
</a>
</g>
</g>
<!-- Node9&#45;&gt;Node6 -->
<g id="edge12_Node000009_Node000006" class="edge">
<title>Node9&#45;&gt;Node6</title>
<g id="a_edge12_Node000009_Node000006"><a xlink:title=" ">
<path fill="none" stroke="#63b8ff" d="M529.79,-396.68C535.36,-369.77 542.83,-326.7 542.83,-289 542.83,-289 542.83,-289 542.83,-151 542.83,-107.96 542.83,-57.15 542.83,-32.27"/>
<polygon fill="#63b8ff" stroke="#63b8ff" points="526.39,-395.83 527.72,-406.35 533.24,-397.3 526.39,-395.83"/>
</a>
</g>
</g>
<!-- Node10 -->
<g id="Node000010" class="node">
<title>Node10</title>
<g id="a_Node000010"><a xlink:href="../../d1/dab/game__action_8hpp.html" target="_top" xlink:title=" ">
<polygon fill="white" stroke="#666666" points="466.33,-372 309.33,-372 309.33,-340 466.33,-340 466.33,-372"/>
<text text-anchor="start" x="317.33" y="-358.5" font-family="Helvetica,sans-Serif" font-size="10.00">lib_sokoban_core/include</text>
<text text-anchor="middle" x="387.83" y="-346.5" font-family="Helvetica,sans-Serif" font-size="10.00">/sokoban_core/game_action.hpp</text>
</a>
</g>
</g>
<!-- Node9&#45;&gt;Node10 -->
<g id="edge13_Node000009_Node000010" class="edge">
<title>Node9&#45;&gt;Node10</title>
<g id="a_edge13_Node000009_Node000010"><a xlink:title=" ">
<path fill="none" stroke="#63b8ff" d="M481.8,-402.61C461.71,-392.86 438.06,-381.38 419.51,-372.38"/>
<polygon fill="#63b8ff" stroke="#63b8ff" points="480.05,-405.65 490.58,-406.87 483.11,-399.35 480.05,-405.65"/>
</a>
</g>
</g>
<!-- Node14 -->
<g id="Node000014" class="node">
<title>Node14</title>
<g id="a_Node000014"><a xlink:href="../../d7/d87/lib__sokoban__core_2include_2sokoban__core_2mod_8hpp.html" target="_top" xlink:title=" ">
<polygon fill="white" stroke="#666666" points="711.58,-372 586.08,-372 586.08,-340 711.58,-340 711.58,-372"/>
<text text-anchor="start" x="594.08" y="-358.5" font-family="Helvetica,sans-Serif" font-size="10.00">lib_sokoban_core/include</text>
<text text-anchor="middle" x="648.83" y="-346.5" font-family="Helvetica,sans-Serif" font-size="10.00">/sokoban_core/mod.hpp</text>
</a>
</g>
</g>
<!-- Node9&#45;&gt;Node14 -->
<g id="edge21_Node000009_Node000014" class="edge">
<title>Node9&#45;&gt;Node14</title>
<g id="a_edge21_Node000009_Node000014"><a xlink:title=" ">
<path fill="none" stroke="#63b8ff" d="M563.21,-402.2C581.51,-392.54 602.89,-381.26 619.7,-372.38"/>
<polygon fill="#63b8ff" stroke="#63b8ff" points="561.68,-399.05 554.47,-406.82 564.95,-405.25 561.68,-399.05"/>
</a>
</g>
</g>
<!-- Node11 -->
<g id="Node000011" class="node">
<title>Node11</title>
<g id="a_Node000011"><a xlink:href="../../d9/dc0/base__game_8hpp.html" target="_top" xlink:title=" ">
<polygon fill="white" stroke="#666666" points="355.33,-168 240.33,-168 240.33,-136 355.33,-136 355.33,-168"/>
<text text-anchor="start" x="248.33" y="-154.5" font-family="Helvetica,sans-Serif" font-size="10.00">lib_base_game/include</text>
<text text-anchor="middle" x="297.83" y="-142.5" font-family="Helvetica,sans-Serif" font-size="10.00">/base_game.hpp</text>
</a>
</g>
</g>
<!-- Node10&#45;&gt;Node11 -->
<g id="edge14_Node000010_Node000011" class="edge">
<title>Node10&#45;&gt;Node11</title>
<g id="a_edge14_Node000010_Node000011"><a xlink:title=" ">
<path fill="none" stroke="#63b8ff" d="M348.49,-333.55C337.32,-325.66 326.2,-315.72 318.83,-304 291.62,-260.76 293.5,-196.89 296.07,-168.08"/>
<polygon fill="#63b8ff" stroke="#63b8ff" points="346.27,-336.28 356.54,-338.87 350.13,-330.44 346.27,-336.28"/>
</a>
</g>
</g>
<!-- Node12 -->
<g id="Node000012" class="node">
<title>Node12</title>
<g id="a_Node000012"><a xlink:href="../../dc/d77/base__game__action_8hpp.html" target="_top" xlink:title=" ">
<polygon fill="white" stroke="#666666" points="447.58,-304 328.08,-304 328.08,-272 447.58,-272 447.58,-304"/>
<text text-anchor="start" x="336.08" y="-290.5" font-family="Helvetica,sans-Serif" font-size="10.00">lib_base_game/include</text>
<text text-anchor="middle" x="387.83" y="-278.5" font-family="Helvetica,sans-Serif" font-size="10.00">/base_game_action.hpp</text>
</a>
</g>
</g>
<!-- Node10&#45;&gt;Node12 -->
<g id="edge16_Node000010_Node000012" class="edge">
<title>Node10&#45;&gt;Node12</title>
<g id="a_edge16_Node000010_Node000012"><a xlink:title=" ">
<path fill="none" stroke="#63b8ff" d="M387.83,-328.31C387.83,-320.12 387.83,-311.38 387.83,-304.22"/>
<polygon fill="#63b8ff" stroke="#63b8ff" points="384.33,-328.18 387.83,-338.18 391.33,-328.18 384.33,-328.18"/>
</a>
</g>
</g>
<!-- Node11&#45;&gt;Node4 -->
<g id="edge15_Node000011_Node000004" class="edge">
<title>Node11&#45;&gt;Node4</title>
<g id="a_edge15_Node000011_Node000004"><a xlink:title=" ">
<path fill="none" stroke="#63b8ff" d="M323.21,-128.05C333.31,-118.92 344.65,-108.67 353.73,-100.45"/>
<polygon fill="#63b8ff" stroke="#63b8ff" points="320.95,-125.37 315.88,-134.68 325.64,-130.57 320.95,-125.37"/>
</a>
</g>
</g>
<!-- Node12&#45;&gt;Node5 -->
<g id="edge20_Node000012_Node000005" class="edge">
<title>Node12&#45;&gt;Node5</title>
<g id="a_edge20_Node000012_Node000005"><a xlink:title=" ">
<path fill="none" stroke="#63b8ff" d="M424.22,-264.61C433.68,-256.83 442.65,-247.19 447.83,-236 479.17,-168.23 478.6,-136.03 447.83,-68 441.19,-53.34 428.04,-41.22 415.93,-32.47"/>
<polygon fill="#63b8ff" stroke="#63b8ff" points="422.19,-261.76 416.32,-270.59 426.41,-267.34 422.19,-261.76"/>
</a>
</g>
</g>
<!-- Node13 -->
<g id="Node000013" class="node">
<title>Node13</title>
<g id="a_Node000013"><a xlink:href="../../db/d29/base__action__factory_8hpp.html" target="_top" xlink:title=" ">
<polygon fill="white" stroke="#666666" points="439.2,-236 314.45,-236 314.45,-204 439.2,-204 439.2,-236"/>
<text text-anchor="start" x="322.45" y="-222.5" font-family="Helvetica,sans-Serif" font-size="10.00">lib_base_game/include</text>
<text text-anchor="middle" x="376.83" y="-210.5" font-family="Helvetica,sans-Serif" font-size="10.00">/base_action_factory.hpp</text>
</a>
</g>
</g>
<!-- Node12&#45;&gt;Node13 -->
<g id="edge17_Node000012_Node000013" class="edge">
<title>Node12&#45;&gt;Node13</title>
<g id="a_edge17_Node000012_Node000013"><a xlink:title=" ">
<path fill="none" stroke="#63b8ff" d="M383.43,-260.6C382.05,-252.32 380.57,-243.46 379.36,-236.22"/>
<polygon fill="#63b8ff" stroke="#63b8ff" points="379.93,-260.91 385.03,-270.2 386.83,-259.76 379.93,-260.91"/>
</a>
</g>
</g>
<!-- Node13&#45;&gt;Node4 -->
<g id="edge19_Node000013_Node000004" class="edge">
<title>Node13&#45;&gt;Node4</title>
<g id="a_edge19_Node000013_Node000004"><a xlink:title=" ">
<path fill="none" stroke="#63b8ff" d="M375.64,-192.45C374.4,-164.84 372.51,-122.6 371.51,-100.19"/>
<polygon fill="#63b8ff" stroke="#63b8ff" points="372.13,-192.28 376.07,-202.12 379.12,-191.97 372.13,-192.28"/>
</a>
</g>
</g>
<!-- Node13&#45;&gt;Node11 -->
<g id="edge18_Node000013_Node000011" class="edge">
<title>Node13&#45;&gt;Node11</title>
<g id="a_edge18_Node000013_Node000011"><a xlink:title=" ">
<path fill="none" stroke="#63b8ff" d="M349.68,-196.32C338.68,-187.13 326.25,-176.75 316.32,-168.45"/>
<polygon fill="#63b8ff" stroke="#63b8ff" points="347.42,-199 357.34,-202.72 351.91,-193.62 347.42,-199"/>
</a>
</g>
</g>
<!-- Node14&#45;&gt;Node6 -->
<g id="edge22_Node000014_Node000006" class="edge">
<title>Node14&#45;&gt;Node6</title>
<g id="a_edge22_Node000014_Node000006"><a xlink:title=" ">
<path fill="none" stroke="#63b8ff" d="M621.64,-332.04C613.55,-323.93 605.37,-314.26 599.83,-304 581.84,-270.7 580.83,-258.84 580.83,-221 580.83,-221 580.83,-221 580.83,-151 580.83,-106.51 561.2,-56.75 550.15,-32.28"/>
<polygon fill="#63b8ff" stroke="#63b8ff" points="619.16,-334.51 628.83,-338.83 623.97,-329.42 619.16,-334.51"/>
</a>
</g>
</g>
<!-- Node14&#45;&gt;Node15 -->
<g id="edge23_Node000014_Node000015" class="edge">
<title>Node14&#45;&gt;Node15</title>
<g id="a_edge23_Node000014_Node000015"><a xlink:title=" ">
<path fill="none" stroke="#63b8ff" d="M689.57,-333.95C702.37,-325.88 715.78,-315.75 725.83,-304 745.3,-281.24 756.73,-246.85 761.38,-230.4"/>
<polygon fill="#63b8ff" stroke="#63b8ff" points="688.04,-330.79 681.26,-338.93 691.63,-336.79 688.04,-330.79"/>
</a>
</g>
</g>
<!-- Node16 -->
<g id="Node000016" class="node">
<title>Node16</title>
<g id="a_Node000016"><a xlink:href="../../d5/d6f/mod__dynamic__library_8hpp.html" target="_top" xlink:title=" ">
<polygon fill="white" stroke="#666666" points="716.58,-304 609.08,-304 609.08,-272 716.58,-272 716.58,-304"/>
<text text-anchor="start" x="617.08" y="-290.5" font-family="Helvetica,sans-Serif" font-size="10.00">sokoban_driver/mod</text>
<text text-anchor="middle" x="662.83" y="-278.5" font-family="Helvetica,sans-Serif" font-size="10.00">_dynamic_library.hpp</text>
</a>
</g>
</g>
<!-- Node14&#45;&gt;Node16 -->
<g id="edge24_Node000014_Node000016" class="edge">
<title>Node14&#45;&gt;Node16</title>
<g id="a_edge24_Node000014_Node000016"><a xlink:title=" ">
<path fill="none" stroke="#63b8ff" d="M654.43,-328.6C656.18,-320.32 658.06,-311.46 659.6,-304.22"/>
<polygon fill="#63b8ff" stroke="#63b8ff" points="651.04,-327.7 652.39,-338.21 657.89,-329.16 651.04,-327.7"/>
</a>
</g>
</g>
<!-- Node16&#45;&gt;Node15 -->
<g id="edge25_Node000016_Node000015" class="edge">
<title>Node16&#45;&gt;Node15</title>
<g id="a_edge25_Node000016_Node000015"><a xlink:title=" ">
<path fill="none" stroke="#63b8ff" d="M696.11,-265.25C714.15,-253.46 735.51,-239.5 749.35,-230.46"/>
<polygon fill="#63b8ff" stroke="#63b8ff" points="694.23,-262.3 687.77,-270.7 698.06,-268.16 694.23,-262.3"/>
</a>
</g>
</g>
<!-- Node17&#45;&gt;Node11 -->
<g id="edge28_Node000017_Node000011" class="edge">
<title>Node17&#45;&gt;Node11</title>
<g id="a_edge28_Node000017_Node000011"><a xlink:title=" ">
<path fill="none" stroke="#63b8ff" d="M303.26,-396.41C296.75,-355.21 286.08,-273.45 290.83,-204 291.65,-191.87 293.58,-178.24 295.2,-168.12"/>
<polygon fill="#63b8ff" stroke="#63b8ff" points="299.78,-396.81 304.84,-406.11 306.69,-395.68 299.78,-396.81"/>
</a>
</g>
</g>
</g>
</svg>
