<?xml version="1.0" encoding="UTF-8" standalone="no"?>
<!DOCTYPE svg PUBLIC "-//W3C//DTD SVG 1.1//EN"
 "http://www.w3.org/Graphics/SVG/1.1/DTD/svg11.dtd">
<!-- Generated by graphviz version 12.1.2 (20240928.0832)
 -->
<!-- Title: Graphical Class Hierarchy Pages: 1 -->
<svg width="265pt" height="101pt"
 viewBox="0.00 0.00 264.50 101.25" xmlns="http://www.w3.org/2000/svg" xmlns:xlink="http://www.w3.org/1999/xlink">
<g id="graph0" class="graph" transform="scale(1 1) rotate(0) translate(4 97.25)">
<title>Graphical Class Hierarchy</title>
<!-- Node0 -->
<g id="Node000000" class="node">
<title>Node0</title>
<g id="a_Node000000"><a xlink:href="dd/ddb/classWidget.html" target="_top" xlink:title=" ">
<polygon fill="white" stroke="#666666" points="46,-56.25 0,-56.25 0,-37 46,-37 46,-56.25"/>
<text text-anchor="middle" x="23" y="-42.75" font-family="Helvetica,sans-Serif" font-size="10.00">Widget</text>
</a>
</g>
</g>
<!-- Node1 -->
<g id="Node000001" class="node">
<title>Node1</title>
<g id="a_Node000001"><a xlink:href="d9/d85/classController.html" target="_top" xlink:title=" ">
<polygon fill="white" stroke="#666666" points="146.38,-93.25 89.12,-93.25 89.12,-74 146.38,-74 146.38,-93.25"/>
<text text-anchor="middle" x="117.75" y="-79.75" font-family="Helvetica,sans-Serif" font-size="10.00">Controller</text>
</a>
</g>
</g>
<!-- Node0&#45;&gt;Node1 -->
<g id="edge10_Node000000_Node000001" class="edge">
<title>Node0&#45;&gt;Node1</title>
<g id="a_edge10_Node000000_Node000001"><a xlink:title=" ">
<path fill="none" stroke="#63b8ff" d="M56.91,-59.75C68.31,-64.3 80.89,-69.32 91.56,-73.58"/>
<polygon fill="#63b8ff" stroke="#63b8ff" points="58.44,-56.6 47.86,-56.14 55.85,-63.1 58.44,-56.6"/>
</a>
</g>
</g>
<!-- Node3 -->
<g id="Node000003" class="node">
<title>Node3</title>
<g id="a_Node000003"><a xlink:href="d6/d1a/classMainWindow.html" target="_top" xlink:title=" ">
<polygon fill="white" stroke="#666666" points="153.5,-56.25 82,-56.25 82,-37 153.5,-37 153.5,-56.25"/>
<text text-anchor="middle" x="117.75" y="-42.75" font-family="Helvetica,sans-Serif" font-size="10.00">MainWindow</text>
</a>
</g>
</g>
<!-- Node0&#45;&gt;Node3 -->
<g id="edge12_Node000000_Node000003" class="edge">
<title>Node0&#45;&gt;Node3</title>
<g id="a_edge12_Node000000_Node000003"><a xlink:title=" ">
<path fill="none" stroke="#63b8ff" d="M57.8,-46.62C65.63,-46.62 73.97,-46.62 81.84,-46.62"/>
<polygon fill="#63b8ff" stroke="#63b8ff" points="57.97,-43.13 47.97,-46.63 57.97,-50.13 57.97,-43.13"/>
</a>
</g>
</g>
<!-- Node4 -->
<g id="Node000004" class="node">
<title>Node4</title>
<g id="a_Node000004"><a xlink:href="d7/d9f/classView.html" target="_top" xlink:title=" ">
<polygon fill="white" stroke="#666666" points="136.62,-19.25 98.88,-19.25 98.88,0 136.62,0 136.62,-19.25"/>
<text text-anchor="middle" x="117.75" y="-5.75" font-family="Helvetica,sans-Serif" font-size="10.00">View</text>
</a>
</g>
</g>
<!-- Node0&#45;&gt;Node4 -->
<g id="edge13_Node000000_Node000004" class="edge">
<title>Node0&#45;&gt;Node4</title>
<g id="a_edge13_Node000000_Node000004"><a xlink:title=" ">
<path fill="none" stroke="#63b8ff" d="M56.74,-33.57C70.78,-27.96 86.65,-21.63 98.55,-16.89"/>
<polygon fill="#63b8ff" stroke="#63b8ff" points="55.85,-30.15 47.86,-37.11 58.44,-36.65 55.85,-30.15"/>
</a>
</g>
</g>
<!-- Node2 -->
<g id="Node000002" class="node">
<title>Node2</title>
<g id="a_Node000002"><a xlink:href="de/d6e/classPushButton.html" target="_top" xlink:title=" ">
<polygon fill="white" stroke="#666666" points="256.5,-93.25 189.5,-93.25 189.5,-74 256.5,-74 256.5,-93.25"/>
<text text-anchor="middle" x="223" y="-79.75" font-family="Helvetica,sans-Serif" font-size="10.00">PushButton</text>
</a>
</g>
</g>
<!-- Node1&#45;&gt;Node2 -->
<g id="edge11_Node000001_Node000002" class="edge">
<title>Node1&#45;&gt;Node2</title>
<g id="a_edge11_Node000001_Node000002"><a xlink:title=" ">
<path fill="none" stroke="#63b8ff" d="M157.96,-83.62C168.29,-83.62 179.33,-83.62 189.28,-83.62"/>
<polygon fill="#63b8ff" stroke="#63b8ff" points="158.2,-80.13 148.2,-83.63 158.2,-87.13 158.2,-80.13"/>
</a>
</g>
</g>
</g>
</svg>
