<?xml version="1.0" encoding="UTF-8" standalone="no"?>
<!DOCTYPE svg PUBLIC "-//W3C//DTD SVG 1.1//EN"
 "http://www.w3.org/Graphics/SVG/1.1/DTD/svg11.dtd">
<!-- Generated by graphviz version 12.1.2 (20240928.0832)
 -->
<!-- Title: Graphical Class Hierarchy Pages: 1 -->
<svg width="323pt" height="138pt"
 viewBox="0.00 0.00 323.00 138.25" xmlns="http://www.w3.org/2000/svg" xmlns:xlink="http://www.w3.org/1999/xlink">
<g id="graph0" class="graph" transform="scale(1 1) rotate(0) translate(4 134.25)">
<title>Graphical Class Hierarchy</title>
<!-- Node0 -->
<g id="Node000000" class="node">
<title>Node0</title>
<g id="a_Node000000"><a xlink:href="df/d4d/classSerializeble.html" target="_top" xlink:title=" ">
<polygon fill="white" stroke="#666666" points="65.5,-92.25 0,-92.25 0,-73 65.5,-73 65.5,-92.25"/>
<text text-anchor="middle" x="32.75" y="-78.75" font-family="Helvetica,sans-Serif" font-size="10.00">Serializeble</text>
</a>
</g>
</g>
<!-- Node1 -->
<g id="Node000001" class="node">
<title>Node1</title>
<g id="a_Node000001"><a xlink:href="d1/d67/classDocument.html" target="_top" xlink:title=" ">
<polygon fill="white" stroke="#666666" points="168.88,-111.25 108.62,-111.25 108.62,-92 168.88,-92 168.88,-111.25"/>
<text text-anchor="middle" x="138.75" y="-97.75" font-family="Helvetica,sans-Serif" font-size="10.00">Document</text>
</a>
</g>
</g>
<!-- Node0&#45;&gt;Node1 -->
<g id="edge4_Node000000_Node000001" class="edge">
<title>Node0&#45;&gt;Node1</title>
<g id="a_edge4_Node000000_Node000001"><a xlink:title=" ">
<path fill="none" stroke="#63b8ff" d="M77.01,-90.53C87.61,-92.46 98.7,-94.49 108.46,-96.27"/>
<polygon fill="#63b8ff" stroke="#63b8ff" points="77.76,-87.11 67.29,-88.75 76.5,-93.99 77.76,-87.11"/>
</a>
</g>
</g>
<!-- Node2 -->
<g id="Node000002" class="node">
<title>Node2</title>
<g id="a_Node000002"><a xlink:href="d8/d48/classGraphicsItem.html" target="_top" xlink:title=" ">
<polygon fill="white" stroke="#666666" points="176,-74.25 101.5,-74.25 101.5,-55 176,-55 176,-74.25"/>
<text text-anchor="middle" x="138.75" y="-60.75" font-family="Helvetica,sans-Serif" font-size="10.00">GraphicsItem</text>
</a>
</g>
</g>
<!-- Node0&#45;&gt;Node2 -->
<g id="edge5_Node000000_Node000002" class="edge">
<title>Node0&#45;&gt;Node2</title>
<g id="a_edge5_Node000000_Node000002"><a xlink:title=" ">
<path fill="none" stroke="#63b8ff" d="M76.95,-75.15C85.03,-73.75 93.4,-72.3 101.26,-70.94"/>
<polygon fill="#63b8ff" stroke="#63b8ff" points="76.55,-71.67 67.29,-76.82 77.74,-78.56 76.55,-71.67"/>
</a>
</g>
</g>
<!-- Node3 -->
<g id="Node000003" class="node">
<title>Node3</title>
<g id="a_Node000003"><a xlink:href="d6/db0/classGraphicsEllipseItem.html" target="_top" xlink:title=" ">
<polygon fill="white" stroke="#666666" points="315,-130.25 212,-130.25 212,-111 315,-111 315,-130.25"/>
<text text-anchor="middle" x="263.5" y="-116.75" font-family="Helvetica,sans-Serif" font-size="10.00">GraphicsEllipseItem</text>
</a>
</g>
</g>
<!-- Node2&#45;&gt;Node3 -->
<g id="edge6_Node000002_Node000003" class="edge">
<title>Node2&#45;&gt;Node3</title>
<g id="a_edge6_Node000002_Node000003"><a xlink:title=" ">
<path fill="none" stroke="#63b8ff" d="M170.75,-79.9C172.53,-80.81 174.29,-81.73 176,-82.62 192.2,-91.14 195.32,-95.08 212,-102.62 218.28,-105.46 225.14,-108.16 231.74,-110.57"/>
<polygon fill="#63b8ff" stroke="#63b8ff" points="172.39,-76.81 161.89,-75.42 169.24,-83.06 172.39,-76.81"/>
</a>
</g>
</g>
<!-- Node4 -->
<g id="Node000004" class="node">
<title>Node4</title>
<g id="a_Node000004"><a xlink:href="d2/de4/classGraphicsLineItem.html" target="_top" xlink:title=" ">
<polygon fill="white" stroke="#666666" points="310.12,-93.25 216.88,-93.25 216.88,-74 310.12,-74 310.12,-93.25"/>
<text text-anchor="middle" x="263.5" y="-79.75" font-family="Helvetica,sans-Serif" font-size="10.00">GraphicsLineItem</text>
</a>
</g>
</g>
<!-- Node2&#45;&gt;Node4 -->
<g id="edge7_Node000002_Node000004" class="edge">
<title>Node2&#45;&gt;Node4</title>
<g id="a_edge7_Node000002_Node000004"><a xlink:title=" ">
<path fill="none" stroke="#63b8ff" d="M187.33,-71.99C197,-73.49 207.17,-75.06 216.78,-76.55"/>
<polygon fill="#63b8ff" stroke="#63b8ff" points="188.16,-68.58 177.74,-70.51 187.09,-75.49 188.16,-68.58"/>
</a>
</g>
</g>
<!-- Node5 -->
<g id="Node000005" class="node">
<title>Node5</title>
<g id="a_Node000005"><a xlink:href="df/d70/classGraphicsRectItem.html" target="_top" xlink:title=" ">
<polygon fill="white" stroke="#666666" points="310.88,-56.25 216.12,-56.25 216.12,-37 310.88,-37 310.88,-56.25"/>
<text text-anchor="middle" x="263.5" y="-42.75" font-family="Helvetica,sans-Serif" font-size="10.00">GraphicsRectItem</text>
</a>
</g>
</g>
<!-- Node2&#45;&gt;Node5 -->
<g id="edge8_Node000002_Node000005" class="edge">
<title>Node2&#45;&gt;Node5</title>
<g id="a_edge8_Node000002_Node000005"><a xlink:title=" ">
<path fill="none" stroke="#63b8ff" d="M187.38,-57.64C196.74,-56.27 206.56,-54.83 215.89,-53.46"/>
<polygon fill="#63b8ff" stroke="#63b8ff" points="187.13,-54.14 177.74,-59.05 188.15,-61.07 187.13,-54.14"/>
</a>
</g>
</g>
<!-- Node6 -->
<g id="Node000006" class="node">
<title>Node6</title>
<g id="a_Node000006"><a xlink:href="da/dc2/classGraphicsTextItem.html" target="_top" xlink:title=" ">
<polygon fill="white" stroke="#666666" points="310.12,-19.25 216.88,-19.25 216.88,0 310.12,0 310.12,-19.25"/>
<text text-anchor="middle" x="263.5" y="-5.75" font-family="Helvetica,sans-Serif" font-size="10.00">GraphicsTextItem</text>
</a>
</g>
</g>
<!-- Node2&#45;&gt;Node6 -->
<g id="edge9_Node000002_Node000006" class="edge">
<title>Node2&#45;&gt;Node6</title>
<g id="a_edge9_Node000002_Node000006"><a xlink:title=" ">
<path fill="none" stroke="#63b8ff" d="M167.75,-49.2C180.98,-42.2 197.1,-34.06 212,-27.62 218.41,-24.86 225.4,-22.16 232.07,-19.74"/>
<polygon fill="#63b8ff" stroke="#63b8ff" points="166.33,-45.99 159.18,-53.81 169.64,-52.16 166.33,-45.99"/>
</a>
</g>
</g>
</g>
</svg>
