<?xml version="1.0" encoding="UTF-8" standalone="no"?>
<!DOCTYPE svg PUBLIC "-//W3C//DTD SVG 1.1//EN"
 "http://www.w3.org/Graphics/SVG/1.1/DTD/svg11.dtd">
<!-- Generated by graphviz version 12.1.2 (20240928.0832)
 -->
<!-- Title: Graphical Class Hierarchy Pages: 1 -->
<svg width="259pt" height="64pt"
 viewBox="0.00 0.00 259.00 64.25" xmlns="http://www.w3.org/2000/svg" xmlns:xlink="http://www.w3.org/1999/xlink">
<g id="graph0" class="graph" transform="scale(1 1) rotate(0) translate(4 60.25)">
<title>Graphical Class Hierarchy</title>
<!-- Node0 -->
<g id="Node000000" class="node">
<title>Node0</title>
<g id="a_Node000000"><a xlink:href="d9/d71/classCommand.html" target="_top" xlink:title=" ">
<polygon fill="white" stroke="#666666" points="60.25,-37.25 0,-37.25 0,-18 60.25,-18 60.25,-37.25"/>
<text text-anchor="middle" x="30.12" y="-23.75" font-family="Helvetica,sans-Serif" font-size="10.00">Command</text>
</a>
</g>
</g>
<!-- Node1 -->
<g id="Node000001" class="node">
<title>Node1</title>
<g id="a_Node000001"><a xlink:href="d7/d0a/classAddGraphicsItemCommand.html" target="_top" xlink:title=" ">
<polygon fill="white" stroke="#666666" points="241.62,-56.25 105.62,-56.25 105.62,-37 241.62,-37 241.62,-56.25"/>
<text text-anchor="middle" x="173.62" y="-42.75" font-family="Helvetica,sans-Serif" font-size="10.00">AddGraphicsItemCommand</text>
</a>
</g>
</g>
<!-- Node0&#45;&gt;Node1 -->
<g id="edge1_Node000000_Node000001" class="edge">
<title>Node0&#45;&gt;Node1</title>
<g id="a_edge1_Node000000_Node000001"><a xlink:title=" ">
<path fill="none" stroke="#63b8ff" d="M71.79,-33.09C82.32,-34.5 93.93,-36.06 105.41,-37.6"/>
<polygon fill="#63b8ff" stroke="#63b8ff" points="72.32,-29.63 61.94,-31.76 71.39,-36.56 72.32,-29.63"/>
</a>
</g>
</g>
<!-- Node2 -->
<g id="Node000002" class="node">
<title>Node2</title>
<g id="a_Node000002"><a xlink:href="d1/dc0/classRemoveGraphicsItemCommand.html" target="_top" xlink:title=" ">
<polygon fill="white" stroke="#666666" points="251,-19.25 96.25,-19.25 96.25,0 251,0 251,-19.25"/>
<text text-anchor="middle" x="173.62" y="-5.75" font-family="Helvetica,sans-Serif" font-size="10.00">RemoveGraphicsItemCommand</text>
</a>
</g>
</g>
<!-- Node0&#45;&gt;Node2 -->
<g id="edge2_Node000000_Node000002" class="edge">
<title>Node0&#45;&gt;Node2</title>
<g id="a_edge2_Node000000_Node000002"><a xlink:title=" ">
<path fill="none" stroke="#63b8ff" d="M71.63,-22.47C79.33,-21.49 87.63,-20.44 96.04,-19.37"/>
<polygon fill="#63b8ff" stroke="#63b8ff" points="71.42,-18.97 61.95,-23.7 72.31,-25.91 71.42,-18.97"/>
</a>
</g>
</g>
</g>
</svg>
