<?xml version="1.0" encoding="UTF-8" standalone="no"?>
<!DOCTYPE svg PUBLIC "-//W3C//DTD SVG 1.1//EN"
 "http://www.w3.org/Graphics/SVG/1.1/DTD/svg11.dtd">
<!-- Generated by graphviz version 12.1.2 (20240928.0832)
 -->
<!-- Title: editor_lib/include/editor/controller.h Pages: 1 -->
<svg width="212pt" height="149pt"
 viewBox="0.00 0.00 212.25 149.00" xmlns="http://www.w3.org/2000/svg" xmlns:xlink="http://www.w3.org/1999/xlink">
<g id="graph0" class="graph" transform="scale(1 1) rotate(0) translate(4 145)">
<title>editor_lib/include/editor/controller.h</title>
<!-- Node1 -->
<g id="Node000001" class="node">
<title>Node1</title>
<g id="a_Node000001"><a xlink:title=" ">
<polygon fill="#999999" stroke="#666666" points="149.62,-141 56.38,-141 56.38,-110.5 149.62,-110.5 149.62,-141"/>
<text text-anchor="start" x="64.38" y="-127.5" font-family="Helvetica,sans-Serif" font-size="10.00">editor_lib/include</text>
<text text-anchor="middle" x="103" y="-116.25" font-family="Helvetica,sans-Serif" font-size="10.00">/editor/controller.h</text>
</a>
</g>
</g>
<!-- Node2 -->
<g id="Node000002" class="node">
<title>Node2</title>
<g id="a_Node000002"><a xlink:href="../../df/d65/widget_8h.html" target="_top" xlink:title=" ">
<polygon fill="white" stroke="#666666" points="52,-74.5 0,-74.5 0,-55.25 52,-55.25 52,-74.5"/>
<text text-anchor="middle" x="26" y="-61" font-family="Helvetica,sans-Serif" font-size="10.00">widget.h</text>
</a>
</g>
</g>
<!-- Node1&#45;&gt;Node2 -->
<g id="edge1_Node000001_Node000002" class="edge">
<title>Node1&#45;&gt;Node2</title>
<g id="a_edge1_Node000001_Node000002"><a xlink:title=" ">
<path fill="none" stroke="#63b8ff" d="M83.97,-110.2C72.69,-101.58 58.4,-90.65 46.83,-81.8"/>
<polygon fill="#63b8ff" stroke="#63b8ff" points="49.14,-79.16 39.07,-75.87 44.89,-84.73 49.14,-79.16"/>
</a>
</g>
</g>
<!-- Node4 -->
<g id="Node000004" class="node">
<title>Node4</title>
<g id="a_Node000004"><a xlink:href="../../d0/d09/command_8h.html" target="_top" xlink:title=" ">
<polygon fill="white" stroke="#666666" points="136.12,-74.5 69.88,-74.5 69.88,-55.25 136.12,-55.25 136.12,-74.5"/>
<text text-anchor="middle" x="103" y="-61" font-family="Helvetica,sans-Serif" font-size="10.00">command.h</text>
</a>
</g>
</g>
<!-- Node1&#45;&gt;Node4 -->
<g id="edge3_Node000001_Node000004" class="edge">
<title>Node1&#45;&gt;Node4</title>
<g id="a_edge3_Node000001_Node000004"><a xlink:title=" ">
<path fill="none" stroke="#63b8ff" d="M103,-110.2C103,-102.96 103,-94.09 103,-86.19"/>
<polygon fill="#63b8ff" stroke="#63b8ff" points="106.5,-86.46 103,-76.46 99.5,-86.46 106.5,-86.46"/>
</a>
</g>
</g>
<!-- Node5 -->
<g id="Node000005" class="node">
<title>Node5</title>
<g id="a_Node000005"><a xlink:title=" ">
<polygon fill="#e0e0e0" stroke="#999999" points="204.25,-74.5 153.75,-74.5 153.75,-55.25 204.25,-55.25 204.25,-74.5"/>
<text text-anchor="middle" x="179" y="-61" font-family="Helvetica,sans-Serif" font-size="10.00">memory</text>
</a>
</g>
</g>
<!-- Node1&#45;&gt;Node5 -->
<g id="edge4_Node000001_Node000005" class="edge">
<title>Node1&#45;&gt;Node5</title>
<g id="a_edge4_Node000001_Node000005"><a xlink:title=" ">
<path fill="none" stroke="#63b8ff" d="M121.79,-110.2C132.91,-101.58 147.02,-90.65 158.44,-81.8"/>
<polygon fill="#63b8ff" stroke="#63b8ff" points="160.33,-84.77 166.09,-75.88 156.04,-79.24 160.33,-84.77"/>
</a>
</g>
</g>
<!-- Node3 -->
<g id="Node000003" class="node">
<title>Node3</title>
<g id="a_Node000003"><a xlink:title=" ">
<polygon fill="#e0e0e0" stroke="#999999" points="47.5,-19.25 4.5,-19.25 4.5,0 47.5,0 47.5,-19.25"/>
<text text-anchor="middle" x="26" y="-5.75" font-family="Helvetica,sans-Serif" font-size="10.00">vector</text>
</a>
</g>
</g>
<!-- Node2&#45;&gt;Node3 -->
<g id="edge2_Node000002_Node000003" class="edge">
<title>Node2&#45;&gt;Node3</title>
<g id="a_edge2_Node000002_Node000003"><a xlink:title=" ">
<path fill="none" stroke="#63b8ff" d="M26,-55.08C26,-48.57 26,-39.42 26,-31.12"/>
<polygon fill="#63b8ff" stroke="#63b8ff" points="29.5,-31.12 26,-21.12 22.5,-31.12 29.5,-31.12"/>
</a>
</g>
</g>
</g>
</svg>
