<?xml version="1.0" encoding="UTF-8" standalone="no"?>
<!DOCTYPE svg PUBLIC "-//W3C//DTD SVG 1.1//EN"
 "http://www.w3.org/Graphics/SVG/1.1/DTD/svg11.dtd">
<!-- Generated by graphviz version 12.1.1 (20240910.0053)
 -->
<!-- Title: lib_sokoban_core/include/sokoban_core/tile_map.hpp Pages: 1 -->
<!--zoomable 264 -->

<svg id="main" version="1.1" xmlns="http://www.w3.org/2000/svg" xmlns:xlink="http://www.w3.org/1999/xlink" xml:space="preserve" onload="init(evt)">
<style type="text/css"><![CDATA[
.node, .edge {opacity: 0.7;}
.node.selected, .edge.selected {opacity: 1;}
.edge:hover path { stroke: red; }
.edge:hover polygon { stroke: red; fill: red; }
]]></style>

<defs>
  <circle id="rim" cx="0" cy="0" r="7"/>
  <circle id="rim2" cx="0" cy="0" r="3.5"/>
  <g id="zoomPlus">
    <use xlink:href="#rim" fill="#404040"><set attributeName="fill" to="#808080" begin="zoomplus.mouseover" end="zoomplus.mouseout"/></use>
    <path d="M-4,0h8M0,-4v8" fill="none" stroke="white" stroke-width="1.5" pointer-events="none"/>
  </g>
  <g id="zoomMin">
    <use xlink:href="#rim" fill="#404040"><set attributeName="fill" to="#808080" begin="zoomminus.mouseover" end="zoomminus.mouseout"/></use>
    <path d="M-4,0h8" fill="none" stroke="white" stroke-width="1.5" pointer-events="none"/>
  </g>
  <g id="arrowUp" transform="translate(30 24)">
    <use xlink:href="#rim"/>
    <path pointer-events="none" fill="none" stroke="white" stroke-width="1.5" d="M0,-3.0v7 M-2.5,-0.5L0,-3.0L2.5,-0.5"/>
  </g>
  <g id="arrowRight" transform="rotate(90) translate(36 -43)">
    <use xlink:href="#rim"/>
    <path pointer-events="none" fill="none" stroke="white" stroke-width="1.5" d="M0,-3.0v7 M-2.5,-0.5L0,-3.0L2.5,-0.5"/>
  </g>
  <g id="arrowDown" transform="rotate(180) translate(-30 -48)">
    <use xlink:href="#rim"/>
    <path pointer-events="none" fill="none" stroke="white" stroke-width="1.5" d="M0,-3.0v7 M-2.5,-0.5L0,-3.0L2.5,-0.5"/>
  </g>
  <g id="arrowLeft" transform="rotate(270) translate(-36 17)">
    <use xlink:href="#rim"/>
    <path pointer-events="none" fill="none" stroke="white" stroke-width="1.5" d="M0,-3.0v7 M-2.5,-0.5L0,-3.0L2.5,-0.5"/>
  </g>
  <g id="resetDef">
    <use xlink:href="#rim2" fill="#404040"><set attributeName="fill" to="#808080" begin="reset.mouseover" end="reset.mouseout"/></use>
  </g>
</defs>
<script type="application/ecmascript">
var viewWidth = 753;
var viewHeight = 264;
var sectionId = 'dynsection-0';
</script>
<script type="application/ecmascript" xlink:href="../../svg.min.js"/>
<svg id="graph" class="graph">
<g id="viewport">
<title>lib_sokoban_core/include/sokoban_core/tile_map.hpp</title>
<!-- Node1 -->
<g id="Node000001" class="node">
<title>Node1</title>
<g id="a_Node000001"><a xlink:title=" ">
<polygon fill="#999999" stroke="#666666" points="505.08,-256 366.83,-256 366.83,-224 505.08,-224 505.08,-256"/>
<text text-anchor="start" x="374.83" y="-242.5" font-family="Helvetica,sans-Serif" font-size="10.00">lib_sokoban_core/include</text>
<text text-anchor="middle" x="435.95" y="-230.5" font-family="Helvetica,sans-Serif" font-size="10.00">/sokoban_core/tile_map.hpp</text>
</a>
</g>
</g>
<!-- Node2 -->
<g id="Node000002" class="node">
<title>Node2</title>
<g id="a_Node000002"><a xlink:href="../../df/d7a/tile_8hpp.html" target="_top" xlink:title=" ">
<polygon fill="white" stroke="#666666" points="81.7,-188 34.2,-188 34.2,-168 81.7,-168 81.7,-188"/>
<text text-anchor="middle" x="57.95" y="-174.5" font-family="Helvetica,sans-Serif" font-size="10.00">tile.hpp</text>
</a>
</g>
</g>
<!-- Node1&#45;&gt;Node2 -->
<g id="edge1_Node000001_Node000002" class="edge">
<title>Node1&#45;&gt;Node2</title>
<g id="a_edge1_Node000001_Node000002"><a xlink:title=" ">
<path fill="none" stroke="#63b8ff" d="M366.58,-228.48C300.55,-218.39 198.41,-202.57 109.95,-188 104.53,-187.11 98.8,-186.14 93.19,-185.18"/>
<polygon fill="#63b8ff" stroke="#63b8ff" points="93.96,-181.76 83.51,-183.51 92.76,-188.66 93.96,-181.76"/>
</a>
</g>
</g>
<!-- Node8 -->
<g id="Node000008" class="node">
<title>Node8</title>
<g id="a_Node000008"><a xlink:href="../../d0/d01/coords_8hpp.html" target="_top" xlink:title=" ">
<polygon fill="white" stroke="#666666" points="324.95,-188 260.95,-188 260.95,-168 324.95,-168 324.95,-188"/>
<text text-anchor="middle" x="292.95" y="-174.5" font-family="Helvetica,sans-Serif" font-size="10.00">coords.hpp</text>
</a>
</g>
</g>
<!-- Node1&#45;&gt;Node8 -->
<g id="edge10_Node000001_Node000008" class="edge">
<title>Node1&#45;&gt;Node8</title>
<g id="a_edge10_Node000001_Node000008"><a xlink:title=" ">
<path fill="none" stroke="#63b8ff" d="M399.13,-223.55C376.47,-214.04 347.69,-201.97 325.81,-192.79"/>
<polygon fill="#63b8ff" stroke="#63b8ff" points="327.34,-189.64 316.77,-188.99 324.64,-196.09 327.34,-189.64"/>
</a>
</g>
</g>
<!-- Node10 -->
<g id="Node000010" class="node">
<title>Node10</title>
<g id="a_Node000010"><a xlink:href="../../dc/d7a/direction_8hpp.html" target="_top" xlink:title=" ">
<polygon fill="white" stroke="#666666" points="414.7,-188 343.2,-188 343.2,-168 414.7,-168 414.7,-188"/>
<text text-anchor="middle" x="378.95" y="-174.5" font-family="Helvetica,sans-Serif" font-size="10.00">direction.hpp</text>
</a>
</g>
</g>
<!-- Node1&#45;&gt;Node10 -->
<g id="edge12_Node000001_Node000010" class="edge">
<title>Node1&#45;&gt;Node10</title>
<g id="a_edge12_Node000001_Node000010"><a xlink:title=" ">
<path fill="none" stroke="#63b8ff" d="M421.27,-223.55C413.44,-215.3 403.77,-205.12 395.65,-196.57"/>
<polygon fill="#63b8ff" stroke="#63b8ff" points="398.36,-194.34 388.93,-189.51 393.28,-199.17 398.36,-194.34"/>
</a>
</g>
</g>
<!-- Node11 -->
<g id="Node000011" class="node">
<title>Node11</title>
<g id="a_Node000011"><a xlink:href="../../d8/dd9/game__object__factory_8hpp.html" target="_top" xlink:title=" ">
<polygon fill="white" stroke="#666666" points="243.33,-188 118.58,-188 118.58,-168 243.33,-168 243.33,-188"/>
<text text-anchor="middle" x="180.95" y="-174.5" font-family="Helvetica,sans-Serif" font-size="10.00">game_object_factory.hpp</text>
</a>
</g>
</g>
<!-- Node1&#45;&gt;Node11 -->
<g id="edge14_Node000001_Node000011" class="edge">
<title>Node1&#45;&gt;Node11</title>
<g id="a_edge14_Node000001_Node000011"><a xlink:title=" ">
<path fill="none" stroke="#63b8ff" d="M370.28,-223.55C327.35,-213.45 272.07,-200.44 232.34,-191.09"/>
<polygon fill="#63b8ff" stroke="#63b8ff" points="233.32,-187.73 222.78,-188.84 231.72,-194.54 233.32,-187.73"/>
</a>
</g>
</g>
<!-- Node13 -->
<g id="Node000013" class="node">
<title>Node13</title>
<g id="a_Node000013"><a xlink:href="../../db/d42/json__utils_8hpp.html" target="_top" xlink:title=" ">
<polygon fill="white" stroke="#666666" points="553.08,-188 432.83,-188 432.83,-168 553.08,-168 553.08,-188"/>
<text text-anchor="middle" x="492.95" y="-174.5" font-family="Helvetica,sans-Serif" font-size="10.00">json_utils/json_utils.hpp</text>
</a>
</g>
</g>
<!-- Node1&#45;&gt;Node13 -->
<g id="edge19_Node000001_Node000013" class="edge">
<title>Node1&#45;&gt;Node13</title>
<g id="a_edge19_Node000001_Node000013"><a xlink:title=" ">
<path fill="none" stroke="#63b8ff" d="M450.63,-223.55C458.46,-215.3 468.14,-205.12 476.26,-196.57"/>
<polygon fill="#63b8ff" stroke="#63b8ff" points="478.62,-199.17 482.97,-189.51 473.55,-194.34 478.62,-199.17"/>
</a>
</g>
</g>
<!-- Node17 -->
<g id="Node000017" class="node">
<title>Node17</title>
<g id="a_Node000017"><a xlink:title=" ">
<polygon fill="#e0e0e0" stroke="#999999" points="620.83,-188 571.08,-188 571.08,-168 620.83,-168 620.83,-188"/>
<text text-anchor="middle" x="595.95" y="-174.5" font-family="Helvetica,sans-Serif" font-size="10.00">optional</text>
</a>
</g>
</g>
<!-- Node1&#45;&gt;Node17 -->
<g id="edge23_Node000001_Node000017" class="edge">
<title>Node1&#45;&gt;Node17</title>
<g id="a_edge23_Node000001_Node000017"><a xlink:title=" ">
<path fill="none" stroke="#63b8ff" d="M477.16,-223.55C502.85,-213.91 535.59,-201.64 560.19,-192.41"/>
<polygon fill="#63b8ff" stroke="#63b8ff" points="561.31,-195.73 569.45,-188.94 558.85,-189.17 561.31,-195.73"/>
</a>
</g>
</g>
<!-- Node18 -->
<g id="Node000018" class="node">
<title>Node18</title>
<g id="a_Node000018"><a xlink:title=" ">
<polygon fill="#e0e0e0" stroke="#999999" points="678.58,-188 639.33,-188 639.33,-168 678.58,-168 678.58,-188"/>
<text text-anchor="middle" x="658.95" y="-174.5" font-family="Helvetica,sans-Serif" font-size="10.00">limits</text>
</a>
</g>
</g>
<!-- Node1&#45;&gt;Node18 -->
<g id="edge24_Node000001_Node000018" class="edge">
<title>Node1&#45;&gt;Node18</title>
<g id="a_edge24_Node000001_Node000018"><a xlink:title=" ">
<path fill="none" stroke="#63b8ff" d="M497.3,-223.61C532.95,-214.49 578.95,-202.44 628.14,-188.43"/>
<polygon fill="#63b8ff" stroke="#63b8ff" points="628.91,-191.85 637.56,-185.73 626.99,-185.12 628.91,-191.85"/>
</a>
</g>
</g>
<!-- Node19 -->
<g id="Node000019" class="node">
<title>Node19</title>
<g id="a_Node000019"><a xlink:title=" ">
<polygon fill="#e0e0e0" stroke="#999999" points="745.08,-188 696.83,-188 696.83,-168 745.08,-168 745.08,-188"/>
<text text-anchor="middle" x="720.95" y="-174.5" font-family="Helvetica,sans-Serif" font-size="10.00">istream</text>
</a>
</g>
</g>
<!-- Node1&#45;&gt;Node19 -->
<g id="edge25_Node000001_Node000019" class="edge">
<title>Node1&#45;&gt;Node19</title>
<g id="a_edge25_Node000001_Node000019"><a xlink:title=" ">
<path fill="none" stroke="#63b8ff" d="M505.48,-226.22C553.56,-217.08 619.24,-204.02 685.43,-188.48"/>
<polygon fill="#63b8ff" stroke="#63b8ff" points="686.09,-191.92 695.02,-186.21 684.48,-185.11 686.09,-191.92"/>
</a>
</g>
</g>
<!-- Node3 -->
<g id="Node000003" class="node">
<title>Node3</title>
<g id="a_Node000003"><a xlink:href="../../d4/d42/game__object_8hpp.html" target="_top" xlink:title=" ">
<polygon fill="white" stroke="#666666" points="158.08,-132 67.83,-132 67.83,-112 158.08,-112 158.08,-132"/>
<text text-anchor="middle" x="112.95" y="-118.5" font-family="Helvetica,sans-Serif" font-size="10.00">game_object.hpp</text>
</a>
</g>
</g>
<!-- Node2&#45;&gt;Node3 -->
<g id="edge2_Node000002_Node000003" class="edge">
<title>Node2&#45;&gt;Node3</title>
<g id="a_edge2_Node000002_Node000003"><a xlink:title=" ">
<path fill="none" stroke="#63b8ff" d="M67.53,-167.59C75.18,-160.08 86.11,-149.35 95.33,-140.3"/>
<polygon fill="#63b8ff" stroke="#63b8ff" points="97.72,-142.86 102.4,-133.36 92.81,-137.87 97.72,-142.86"/>
</a>
</g>
</g>
<!-- Node6 -->
<g id="Node000006" class="node">
<title>Node6</title>
<g id="a_Node000006"><a xlink:title=" ">
<polygon fill="#e0e0e0" stroke="#999999" points="126.58,-20 75.33,-20 75.33,0 126.58,0 126.58,-20"/>
<text text-anchor="middle" x="100.95" y="-6.5" font-family="Helvetica,sans-Serif" font-size="10.00">memory</text>
</a>
</g>
</g>
<!-- Node2&#45;&gt;Node6 -->
<g id="edge9_Node000002_Node000006" class="edge">
<title>Node2&#45;&gt;Node6</title>
<g id="a_edge9_Node000002_Node000006"><a xlink:title=" ">
<path fill="none" stroke="#63b8ff" d="M47.56,-167.69C38.81,-159.25 26.68,-146.01 19.95,-132 5.18,-101.23 -9.12,-84.95 8.95,-56 21.05,-36.62 44.18,-25.36 64.22,-18.94"/>
<polygon fill="#63b8ff" stroke="#63b8ff" points="65.15,-22.32 73.8,-16.2 63.22,-15.59 65.15,-22.32"/>
</a>
</g>
</g>
<!-- Node7 -->
<g id="Node000007" class="node">
<title>Node7</title>
<g id="a_Node000007"><a xlink:title=" ">
<polygon fill="#e0e0e0" stroke="#999999" points="61.45,-76 18.45,-76 18.45,-56 61.45,-56 61.45,-76"/>
<text text-anchor="middle" x="39.95" y="-62.5" font-family="Helvetica,sans-Serif" font-size="10.00">vector</text>
</a>
</g>
</g>
<!-- Node2&#45;&gt;Node7 -->
<g id="edge8_Node000002_Node000007" class="edge">
<title>Node2&#45;&gt;Node7</title>
<g id="a_edge8_Node000002_Node000007"><a xlink:title=" ">
<path fill="none" stroke="#63b8ff" d="M48.59,-167.63C40.83,-159.14 30.38,-145.88 25.95,-132 21.22,-117.18 25.35,-99.95 30.32,-86.96"/>
<polygon fill="#63b8ff" stroke="#63b8ff" points="33.53,-88.36 34.29,-77.79 27.1,-85.58 33.53,-88.36"/>
</a>
</g>
</g>
<!-- Node4 -->
<g id="Node000004" class="node">
<title>Node4</title>
<g id="a_Node000004"><a xlink:href="../../d3/d3e/game__object__id_8hpp.html" target="_top" xlink:title=" ">
<polygon fill="white" stroke="#666666" points="232.45,-76 129.45,-76 129.45,-56 232.45,-56 232.45,-76"/>
<text text-anchor="middle" x="180.95" y="-62.5" font-family="Helvetica,sans-Serif" font-size="10.00">game_object_id.hpp</text>
</a>
</g>
</g>
<!-- Node3&#45;&gt;Node4 -->
<g id="edge3_Node000003_Node000004" class="edge">
<title>Node3&#45;&gt;Node4</title>
<g id="a_edge3_Node000003_Node000004"><a xlink:title=" ">
<path fill="none" stroke="#63b8ff" d="M124.8,-111.59C134.64,-103.77 148.89,-92.46 160.56,-83.19"/>
<polygon fill="#63b8ff" stroke="#63b8ff" points="162.4,-86.2 168.06,-77.24 158.05,-80.72 162.4,-86.2"/>
</a>
</g>
</g>
<!-- Node3&#45;&gt;Node6 -->
<g id="edge6_Node000003_Node000006" class="edge">
<title>Node3&#45;&gt;Node6</title>
<g id="a_edge6_Node000003_Node000006"><a xlink:title=" ">
<path fill="none" stroke="#63b8ff" d="M111.93,-111.62C110.01,-94.01 105.82,-55.59 103.2,-31.65"/>
<polygon fill="#63b8ff" stroke="#63b8ff" points="106.7,-31.42 102.14,-21.86 99.74,-32.18 106.7,-31.42"/>
</a>
</g>
</g>
<!-- Node3&#45;&gt;Node7 -->
<g id="edge7_Node000003_Node000007" class="edge">
<title>Node3&#45;&gt;Node7</title>
<g id="a_edge7_Node000003_Node000007"><a xlink:title=" ">
<path fill="none" stroke="#63b8ff" d="M100.24,-111.59C89.56,-103.7 74.07,-92.24 61.47,-82.92"/>
<polygon fill="#63b8ff" stroke="#63b8ff" points="63.86,-80.33 53.74,-77.2 59.7,-85.96 63.86,-80.33"/>
</a>
</g>
</g>
<!-- Node5 -->
<g id="Node000005" class="node">
<title>Node5</title>
<g id="a_Node000005"><a xlink:title=" ">
<polygon fill="#e0e0e0" stroke="#999999" points="200.95,-20 160.95,-20 160.95,0 200.95,0 200.95,-20"/>
<text text-anchor="middle" x="180.95" y="-6.5" font-family="Helvetica,sans-Serif" font-size="10.00">string</text>
</a>
</g>
</g>
<!-- Node4&#45;&gt;Node5 -->
<g id="edge4_Node000004_Node000005" class="edge">
<title>Node4&#45;&gt;Node5</title>
<g id="a_edge4_Node000004_Node000005"><a xlink:title=" ">
<path fill="none" stroke="#63b8ff" d="M180.95,-55.59C180.95,-49.01 180.95,-39.96 180.95,-31.73"/>
<polygon fill="#63b8ff" stroke="#63b8ff" points="184.45,-31.81 180.95,-21.81 177.45,-31.81 184.45,-31.81"/>
</a>
</g>
</g>
<!-- Node4&#45;&gt;Node6 -->
<g id="edge5_Node000004_Node000006" class="edge">
<title>Node4&#45;&gt;Node6</title>
<g id="a_edge5_Node000004_Node000006"><a xlink:title=" ">
<path fill="none" stroke="#63b8ff" d="M167.02,-55.59C155.27,-47.67 138.22,-36.16 124.38,-26.82"/>
<polygon fill="#63b8ff" stroke="#63b8ff" points="126.5,-24.02 116.25,-21.33 122.58,-29.82 126.5,-24.02"/>
</a>
</g>
</g>
<!-- Node9 -->
<g id="Node000009" class="node">
<title>Node9</title>
<g id="a_Node000009"><a xlink:title=" ">
<polygon fill="#e0e0e0" stroke="#999999" points="370.83,-132 315.08,-132 315.08,-112 370.83,-112 370.83,-132"/>
<text text-anchor="middle" x="342.95" y="-118.5" font-family="Helvetica,sans-Serif" font-size="10.00">cinttypes</text>
</a>
</g>
</g>
<!-- Node8&#45;&gt;Node9 -->
<g id="edge11_Node000008_Node000009" class="edge">
<title>Node8&#45;&gt;Node9</title>
<g id="a_edge11_Node000008_Node000009"><a xlink:title=" ">
<path fill="none" stroke="#63b8ff" d="M301.66,-167.59C308.54,-160.16 318.34,-149.58 326.67,-140.58"/>
<polygon fill="#63b8ff" stroke="#63b8ff" points="329.09,-143.12 333.31,-133.41 323.95,-138.37 329.09,-143.12"/>
</a>
</g>
</g>
<!-- Node10&#45;&gt;Node9 -->
<g id="edge13_Node000010_Node000009" class="edge">
<title>Node10&#45;&gt;Node9</title>
<g id="a_edge13_Node000010_Node000009"><a xlink:title=" ">
<path fill="none" stroke="#63b8ff" d="M372.68,-167.59C367.93,-160.47 361.25,-150.45 355.43,-141.72"/>
<polygon fill="#63b8ff" stroke="#63b8ff" points="358.45,-139.94 349.99,-133.56 352.62,-143.82 358.45,-139.94"/>
</a>
</g>
</g>
<!-- Node11&#45;&gt;Node3 -->
<g id="edge16_Node000011_Node000003" class="edge">
<title>Node11&#45;&gt;Node3</title>
<g id="a_edge16_Node000011_Node000003"><a xlink:title=" ">
<path fill="none" stroke="#63b8ff" d="M169.11,-167.59C159.26,-159.77 145.02,-148.46 133.34,-139.19"/>
<polygon fill="#63b8ff" stroke="#63b8ff" points="135.85,-136.72 125.85,-133.24 131.5,-142.2 135.85,-136.72"/>
</a>
</g>
</g>
<!-- Node11&#45;&gt;Node4 -->
<g id="edge15_Node000011_Node000004" class="edge">
<title>Node11&#45;&gt;Node4</title>
<g id="a_edge15_Node000011_Node000004"><a xlink:title=" ">
<path fill="none" stroke="#63b8ff" d="M214.52,-167.5C245.25,-156.95 283.73,-137.93 267.95,-112 259.12,-97.48 243.92,-87.44 228.68,-80.6"/>
<polygon fill="#63b8ff" stroke="#63b8ff" points="230.18,-77.43 219.6,-76.92 227.55,-83.92 230.18,-77.43"/>
</a>
</g>
</g>
<!-- Node11&#45;&gt;Node7 -->
<g id="edge18_Node000011_Node000007" class="edge">
<title>Node11&#45;&gt;Node7</title>
<g id="a_edge18_Node000011_Node000007"><a xlink:title=" ">
<path fill="none" stroke="#63b8ff" d="M124.01,-167.59C101.03,-161.11 75.97,-150.24 58.95,-132 47.66,-119.9 43.04,-101.45 41.17,-87.3"/>
<polygon fill="#63b8ff" stroke="#63b8ff" points="44.69,-87.37 40.28,-77.74 37.72,-88.02 44.69,-87.37"/>
</a>
</g>
</g>
<!-- Node12 -->
<g id="Node000012" class="node">
<title>Node12</title>
<g id="a_Node000012"><a xlink:title=" ">
<polygon fill="#e0e0e0" stroke="#999999" points="259.33,-132 176.58,-132 176.58,-112 259.33,-112 259.33,-132"/>
<text text-anchor="middle" x="217.95" y="-118.5" font-family="Helvetica,sans-Serif" font-size="10.00">unordered_map</text>
</a>
</g>
</g>
<!-- Node11&#45;&gt;Node12 -->
<g id="edge17_Node000011_Node000012" class="edge">
<title>Node11&#45;&gt;Node12</title>
<g id="a_edge17_Node000011_Node000012"><a xlink:title=" ">
<path fill="none" stroke="#63b8ff" d="M187.4,-167.59C192.28,-160.47 199.14,-150.45 205.13,-141.72"/>
<polygon fill="#63b8ff" stroke="#63b8ff" points="207.96,-143.77 210.72,-133.55 202.19,-139.82 207.96,-143.77"/>
</a>
</g>
</g>
<!-- Node14 -->
<g id="Node000014" class="node">
<title>Node14</title>
<g id="a_Node000014"><a xlink:title=" ">
<polygon fill="#e0e0e0" stroke="#999999" points="486.83,-132 389.08,-132 389.08,-112 486.83,-112 486.83,-132"/>
<text text-anchor="middle" x="437.95" y="-118.5" font-family="Helvetica,sans-Serif" font-size="10.00">nlohmann/json.hpp</text>
</a>
</g>
</g>
<!-- Node13&#45;&gt;Node14 -->
<g id="edge20_Node000013_Node000014" class="edge">
<title>Node13&#45;&gt;Node14</title>
<g id="a_edge20_Node000013_Node000014"><a xlink:title=" ">
<path fill="none" stroke="#63b8ff" d="M483.37,-167.59C475.72,-160.08 464.79,-149.35 455.57,-140.3"/>
<polygon fill="#63b8ff" stroke="#63b8ff" points="458.09,-137.87 448.5,-133.36 453.19,-142.86 458.09,-137.87"/>
</a>
</g>
</g>
<!-- Node15 -->
<g id="Node000015" class="node">
<title>Node15</title>
<g id="a_Node000015"><a xlink:title=" ">
<polygon fill="#e0e0e0" stroke="#999999" points="565.45,-132 504.45,-132 504.45,-112 565.45,-112 565.45,-132"/>
<text text-anchor="middle" x="534.95" y="-118.5" font-family="Helvetica,sans-Serif" font-size="10.00">filesystem</text>
</a>
</g>
</g>
<!-- Node13&#45;&gt;Node15 -->
<g id="edge21_Node000013_Node000015" class="edge">
<title>Node13&#45;&gt;Node15</title>
<g id="a_edge21_Node000013_Node000015"><a xlink:title=" ">
<path fill="none" stroke="#63b8ff" d="M500.27,-167.59C505.93,-160.32 513.94,-150.02 520.84,-141.15"/>
<polygon fill="#63b8ff" stroke="#63b8ff" points="523.41,-143.54 526.79,-133.49 517.89,-139.24 523.41,-143.54"/>
</a>
</g>
</g>
<!-- Node16 -->
<g id="Node000016" class="node">
<title>Node16</title>
<g id="a_Node000016"><a xlink:title=" ">
<polygon fill="#e0e0e0" stroke="#999999" points="632.45,-132 583.45,-132 583.45,-112 632.45,-112 632.45,-132"/>
<text text-anchor="middle" x="607.95" y="-118.5" font-family="Helvetica,sans-Serif" font-size="10.00">fstream</text>
</a>
</g>
</g>
<!-- Node13&#45;&gt;Node16 -->
<g id="edge22_Node000013_Node000016" class="edge">
<title>Node13&#45;&gt;Node16</title>
<g id="a_edge22_Node000013_Node000016"><a xlink:title=" ">
<path fill="none" stroke="#63b8ff" d="M512.98,-167.59C530.77,-159.24 557.02,-146.92 577.42,-137.34"/>
<polygon fill="#63b8ff" stroke="#63b8ff" points="578.83,-140.54 586.39,-133.12 575.85,-134.21 578.83,-140.54"/>
</a>
</g>
</g>
</g>
</svg>

<g id="navigator" transform="translate(0 0)" fill="#404254">
  <rect fill="#f2f5e9" fill-opacity="0.5" stroke="#606060" stroke-width=".5" x="0" y="0" width="60" height="60"/>
  <use id="zoomplus" xlink:href="#zoomPlus" x="17" y="9" onmousedown="handleZoom(evt,'in')"/>
  <use id="zoomminus" xlink:href="#zoomMin" x="42" y="9" onmousedown="handleZoom(evt,'out')"/>
  <use id="reset" xlink:href="#resetDef" x="30" y="36" onmousedown="handleReset()"/>
   <use id="arrowup" xlink:href="#arrowUp" x="0" y="0" onmousedown="handlePan(0,-1)"/>
  <use id="arrowright" xlink:href="#arrowRight" x="0" y="0" onmousedown="handlePan(1,0)"/>
  <use id="arrowdown" xlink:href="#arrowDown" x="0" y="0" onmousedown="handlePan(0,1)"/>
  <use id="arrowleft" xlink:href="#arrowLeft" x="0" y="0" onmousedown="handlePan(-1,0)"/>
</g>
<svg viewBox="0 0 15 15" width="100%" height="30px" preserveAspectRatio="xMaxYMin meet">
 <g id="arrow_out" transform="scale(0.3 0.3)">
  <a xlink:href="tile__map_8hpp__incl_org.svg" target="_base">
   <rect id="button" ry="5" rx="5" y="6" x="6" height="38" width="38"
        fill="#f2f5e9" fill-opacity="0.5" stroke="#606060" stroke-width="1.0"/>
   <path id="arrow"
     d="M 11.500037,31.436501 C 11.940474,20.09759 22.043105,11.32322 32.158766,21.979434 L 37.068811,17.246167 C 37.068811,17.246167 37.088388,32 37.088388,32 L 22.160133,31.978069 C 22.160133,31.978069 26.997745,27.140456 26.997745,27.140456 C 18.528582,18.264221 13.291696,25.230495 11.500037,31.436501 z"
     style="fill:#404040;"/>
  </a>
 </g>
</svg>

<style type='text/css'>
<![CDATA[
[data-mouse-over-selected='false'] { opacity: 0.7; }
[data-mouse-over-selected='true']  { opacity: 1.0; }
]]>
</style>
<script type="application/ecmascript"><![CDATA[
document.addEventListener('DOMContentLoaded', (event) => {
  highlightEdges();
  highlightAdjacentNodes();
});
]]></script>
</svg>
