<?xml version="1.0" encoding="UTF-8" standalone="no"?>
<!DOCTYPE svg PUBLIC "-//W3C//DTD SVG 1.1//EN"
 "http://www.w3.org/Graphics/SVG/1.1/DTD/svg11.dtd">
<!-- Generated by graphviz version 12.1.2 (20240928.0832)
 -->
<!-- Title: editor_lib/include/editor/graphics_items_prototype_collection.h Pages: 1 -->
<svg width="402pt" height="271pt"
 viewBox="0.00 0.00 401.75 270.75" xmlns="http://www.w3.org/2000/svg" xmlns:xlink="http://www.w3.org/1999/xlink">
<g id="graph0" class="graph" transform="scale(1 1) rotate(0) translate(4 266.75)">
<title>editor_lib/include/editor/graphics_items_prototype_collection.h</title>
<!-- Node1 -->
<g id="Node000001" class="node">
<title>Node1</title>
<g id="a_Node000001"><a xlink:title=" ">
<polygon fill="#999999" stroke="#666666" points="320.25,-262.75 205.25,-262.75 205.25,-221 320.25,-221 320.25,-262.75"/>
<text text-anchor="start" x="213.25" y="-249.25" font-family="Helvetica,sans-Serif" font-size="10.00">editor_lib/include</text>
<text text-anchor="start" x="213.25" y="-238" font-family="Helvetica,sans-Serif" font-size="10.00">/editor/graphics_items</text>
<text text-anchor="middle" x="262.75" y="-226.75" font-family="Helvetica,sans-Serif" font-size="10.00">_prototype_collection.h</text>
</a>
</g>
</g>
<!-- Node2 -->
<g id="Node000002" class="node">
<title>Node2</title>
<g id="a_Node000002"><a xlink:href="../../d3/d24/primitive__items_8h.html" target="_top" xlink:title=" ">
<polygon fill="white" stroke="#666666" points="159.5,-185 70,-185 70,-165.75 159.5,-165.75 159.5,-185"/>
<text text-anchor="middle" x="114.75" y="-171.5" font-family="Helvetica,sans-Serif" font-size="10.00">primitive_items.h</text>
</a>
</g>
</g>
<!-- Node1&#45;&gt;Node2 -->
<g id="edge1_Node000001_Node000002" class="edge">
<title>Node1&#45;&gt;Node2</title>
<g id="a_edge1_Node000001_Node000002"><a xlink:title=" ">
<path fill="none" stroke="#63b8ff" d="M216.33,-220.64C193.33,-210.62 166.19,-198.79 145.75,-189.89"/>
<polygon fill="#63b8ff" stroke="#63b8ff" points="147.4,-186.79 136.83,-186 144.6,-193.2 147.4,-186.79"/>
</a>
</g>
</g>
<!-- Node8 -->
<g id="Node000008" class="node">
<title>Node8</title>
<g id="a_Node000008"><a xlink:title=" ">
<polygon fill="#e0e0e0" stroke="#999999" points="260.12,-185 177.38,-185 177.38,-165.75 260.12,-165.75 260.12,-185"/>
<text text-anchor="middle" x="218.75" y="-171.5" font-family="Helvetica,sans-Serif" font-size="10.00">unordered_map</text>
</a>
</g>
</g>
<!-- Node1&#45;&gt;Node8 -->
<g id="edge8_Node000001_Node000008" class="edge">
<title>Node1&#45;&gt;Node8</title>
<g id="a_edge8_Node000001_Node000008"><a xlink:title=" ">
<path fill="none" stroke="#63b8ff" d="M249.07,-220.82C243.39,-212.5 236.85,-202.91 231.3,-194.77"/>
<polygon fill="#63b8ff" stroke="#63b8ff" points="234.32,-192.98 225.79,-186.7 228.53,-196.93 234.32,-192.98"/>
</a>
</g>
</g>
<!-- Node9 -->
<g id="Node000009" class="node">
<title>Node9</title>
<g id="a_Node000009"><a xlink:title=" ">
<polygon fill="#e0e0e0" stroke="#999999" points="335.75,-185 277.75,-185 277.75,-165.75 335.75,-165.75 335.75,-185"/>
<text text-anchor="middle" x="306.75" y="-171.5" font-family="Helvetica,sans-Serif" font-size="10.00">stdexcept</text>
</a>
</g>
</g>
<!-- Node1&#45;&gt;Node9 -->
<g id="edge9_Node000001_Node000009" class="edge">
<title>Node1&#45;&gt;Node9</title>
<g id="a_edge9_Node000001_Node000009"><a xlink:title=" ">
<path fill="none" stroke="#63b8ff" d="M276.43,-220.82C282.11,-212.5 288.65,-202.91 294.2,-194.77"/>
<polygon fill="#63b8ff" stroke="#63b8ff" points="296.97,-196.93 299.71,-186.7 291.18,-192.98 296.97,-196.93"/>
</a>
</g>
</g>
<!-- Node10 -->
<g id="Node000010" class="node">
<title>Node10</title>
<g id="a_Node000010"><a xlink:title=" ">
<polygon fill="#e0e0e0" stroke="#999999" points="393.75,-185 353.75,-185 353.75,-165.75 393.75,-165.75 393.75,-185"/>
<text text-anchor="middle" x="373.75" y="-171.5" font-family="Helvetica,sans-Serif" font-size="10.00">string</text>
</a>
</g>
</g>
<!-- Node1&#45;&gt;Node10 -->
<g id="edge10_Node000001_Node000010" class="edge">
<title>Node1&#45;&gt;Node10</title>
<g id="a_edge10_Node000001_Node000010"><a xlink:title=" ">
<path fill="none" stroke="#63b8ff" d="M297.57,-220.64C314.1,-211.04 333.48,-199.77 348.56,-191.01"/>
<polygon fill="#63b8ff" stroke="#63b8ff" points="350.03,-194.21 356.92,-186.15 346.51,-188.15 350.03,-194.21"/>
</a>
</g>
</g>
<!-- Node3 -->
<g id="Node000003" class="node">
<title>Node3</title>
<g id="a_Node000003"><a xlink:href="../../d8/d38/graphics__item_8h.html" target="_top" xlink:title=" ">
<polygon fill="white" stroke="#666666" points="86.88,-129.75 2.62,-129.75 2.62,-110.5 86.88,-110.5 86.88,-129.75"/>
<text text-anchor="middle" x="44.75" y="-116.25" font-family="Helvetica,sans-Serif" font-size="10.00">graphics_item.h</text>
</a>
</g>
</g>
<!-- Node2&#45;&gt;Node3 -->
<g id="edge2_Node000002_Node000003" class="edge">
<title>Node2&#45;&gt;Node3</title>
<g id="a_edge2_Node000002_Node000003"><a xlink:title=" ">
<path fill="none" stroke="#63b8ff" d="M102.88,-165.34C92.66,-157.57 77.68,-146.17 65.49,-136.9"/>
<polygon fill="#63b8ff" stroke="#63b8ff" points="67.73,-134.21 57.65,-130.94 63.49,-139.78 67.73,-134.21"/>
</a>
</g>
</g>
<!-- Node6 -->
<g id="Node000006" class="node">
<title>Node6</title>
<g id="a_Node000006"><a xlink:title=" ">
<polygon fill="#e0e0e0" stroke="#999999" points="140,-74.5 89.5,-74.5 89.5,-55.25 140,-55.25 140,-74.5"/>
<text text-anchor="middle" x="114.75" y="-61" font-family="Helvetica,sans-Serif" font-size="10.00">memory</text>
</a>
</g>
</g>
<!-- Node2&#45;&gt;Node6 -->
<g id="edge7_Node000002_Node000006" class="edge">
<title>Node2&#45;&gt;Node6</title>
<g id="a_edge7_Node000002_Node000006"><a xlink:title=" ">
<path fill="none" stroke="#63b8ff" d="M114.75,-165.5C114.75,-148.25 114.75,-109.83 114.75,-86.06"/>
<polygon fill="#63b8ff" stroke="#63b8ff" points="118.25,-86.39 114.75,-76.39 111.25,-86.39 118.25,-86.39"/>
</a>
</g>
</g>
<!-- Node7 -->
<g id="Node000007" class="node">
<title>Node7</title>
<g id="a_Node000007"><a xlink:title=" ">
<polygon fill="#e0e0e0" stroke="#999999" points="196.5,-129.75 143,-129.75 143,-110.5 196.5,-110.5 196.5,-129.75"/>
<text text-anchor="middle" x="169.75" y="-116.25" font-family="Helvetica,sans-Serif" font-size="10.00">iostream</text>
</a>
</g>
</g>
<!-- Node2&#45;&gt;Node7 -->
<g id="edge6_Node000002_Node000007" class="edge">
<title>Node2&#45;&gt;Node7</title>
<g id="a_edge6_Node000002_Node000007"><a xlink:title=" ">
<path fill="none" stroke="#63b8ff" d="M123.83,-165.58C131.59,-158.07 142.96,-147.06 152.45,-137.88"/>
<polygon fill="#63b8ff" stroke="#63b8ff" points="154.63,-140.63 159.38,-131.16 149.76,-135.6 154.63,-140.63"/>
</a>
</g>
</g>
<!-- Node4 -->
<g id="Node000004" class="node">
<title>Node4</title>
<g id="a_Node000004"><a xlink:href="../../d5/da3/serializable_8h.html" target="_top" xlink:title=" ">
<polygon fill="white" stroke="#666666" points="71.5,-74.5 0,-74.5 0,-55.25 71.5,-55.25 71.5,-74.5"/>
<text text-anchor="middle" x="35.75" y="-61" font-family="Helvetica,sans-Serif" font-size="10.00">serializable.h</text>
</a>
</g>
</g>
<!-- Node3&#45;&gt;Node4 -->
<g id="edge3_Node000003_Node000004" class="edge">
<title>Node3&#45;&gt;Node4</title>
<g id="a_edge3_Node000003_Node000004"><a xlink:title=" ">
<path fill="none" stroke="#63b8ff" d="M43.26,-110.33C42.15,-103.74 40.58,-94.46 39.16,-86.07"/>
<polygon fill="#63b8ff" stroke="#63b8ff" points="42.64,-85.63 37.52,-76.35 35.74,-86.8 42.64,-85.63"/>
</a>
</g>
</g>
<!-- Node3&#45;&gt;Node6 -->
<g id="edge5_Node000003_Node000006" class="edge">
<title>Node3&#45;&gt;Node6</title>
<g id="a_edge5_Node000003_Node000006"><a xlink:title=" ">
<path fill="none" stroke="#63b8ff" d="M56.62,-110.09C66.84,-102.32 81.82,-90.92 94.01,-81.65"/>
<polygon fill="#63b8ff" stroke="#63b8ff" points="96.01,-84.53 101.85,-75.69 91.77,-78.96 96.01,-84.53"/>
</a>
</g>
</g>
<!-- Node5 -->
<g id="Node000005" class="node">
<title>Node5</title>
<g id="a_Node000005"><a xlink:title=" ">
<polygon fill="#e0e0e0" stroke="#999999" points="58,-19.25 13.5,-19.25 13.5,0 58,0 58,-19.25"/>
<text text-anchor="middle" x="35.75" y="-5.75" font-family="Helvetica,sans-Serif" font-size="10.00">iosfwd</text>
</a>
</g>
</g>
<!-- Node4&#45;&gt;Node5 -->
<g id="edge4_Node000004_Node000005" class="edge">
<title>Node4&#45;&gt;Node5</title>
<g id="a_edge4_Node000004_Node000005"><a xlink:title=" ">
<path fill="none" stroke="#63b8ff" d="M35.75,-55.08C35.75,-48.57 35.75,-39.42 35.75,-31.12"/>
<polygon fill="#63b8ff" stroke="#63b8ff" points="39.25,-31.12 35.75,-21.12 32.25,-31.12 39.25,-31.12"/>
</a>
</g>
</g>
</g>
</svg>
