<?xml version="1.0" encoding="UTF-8" standalone="no"?>
<!DOCTYPE svg PUBLIC "-//W3C//DTD SVG 1.1//EN"
 "http://www.w3.org/Graphics/SVG/1.1/DTD/svg11.dtd">
<!-- Generated by graphviz version 12.1.1 (20240910.0053)
 -->
<!-- Title: lib_sokoban_core/include/sokoban_core/key_definitions.hpp Pages: 1 -->
<!--zoomable 584 -->

<svg id="main" version="1.1" xmlns="http://www.w3.org/2000/svg" xmlns:xlink="http://www.w3.org/1999/xlink" xml:space="preserve" onload="init(evt)">
<style type="text/css"><![CDATA[
.node, .edge {opacity: 0.7;}
.node.selected, .edge.selected {opacity: 1;}
.edge:hover path { stroke: red; }
.edge:hover polygon { stroke: red; fill: red; }
]]></style>

<defs>
  <circle id="rim" cx="0" cy="0" r="7"/>
  <circle id="rim2" cx="0" cy="0" r="3.5"/>
  <g id="zoomPlus">
    <use xlink:href="#rim" fill="#404040"><set attributeName="fill" to="#808080" begin="zoomplus.mouseover" end="zoomplus.mouseout"/></use>
    <path d="M-4,0h8M0,-4v8" fill="none" stroke="white" stroke-width="1.5" pointer-events="none"/>
  </g>
  <g id="zoomMin">
    <use xlink:href="#rim" fill="#404040"><set attributeName="fill" to="#808080" begin="zoomminus.mouseover" end="zoomminus.mouseout"/></use>
    <path d="M-4,0h8" fill="none" stroke="white" stroke-width="1.5" pointer-events="none"/>
  </g>
  <g id="arrowUp" transform="translate(30 24)">
    <use xlink:href="#rim"/>
    <path pointer-events="none" fill="none" stroke="white" stroke-width="1.5" d="M0,-3.0v7 M-2.5,-0.5L0,-3.0L2.5,-0.5"/>
  </g>
  <g id="arrowRight" transform="rotate(90) translate(36 -43)">
    <use xlink:href="#rim"/>
    <path pointer-events="none" fill="none" stroke="white" stroke-width="1.5" d="M0,-3.0v7 M-2.5,-0.5L0,-3.0L2.5,-0.5"/>
  </g>
  <g id="arrowDown" transform="rotate(180) translate(-30 -48)">
    <use xlink:href="#rim"/>
    <path pointer-events="none" fill="none" stroke="white" stroke-width="1.5" d="M0,-3.0v7 M-2.5,-0.5L0,-3.0L2.5,-0.5"/>
  </g>
  <g id="arrowLeft" transform="rotate(270) translate(-36 17)">
    <use xlink:href="#rim"/>
    <path pointer-events="none" fill="none" stroke="white" stroke-width="1.5" d="M0,-3.0v7 M-2.5,-0.5L0,-3.0L2.5,-0.5"/>
  </g>
  <g id="resetDef">
    <use xlink:href="#rim2" fill="#404040"><set attributeName="fill" to="#808080" begin="reset.mouseover" end="reset.mouseout"/></use>
  </g>
</defs>
<script type="application/ecmascript">
var viewWidth = 882;
var viewHeight = 584;
var sectionId = 'dynsection-0';
</script>
<script type="application/ecmascript" xlink:href="../../svg.min.js"/>
<svg id="graph" class="graph">
<g id="viewport">
<title>lib_sokoban_core/include/sokoban_core/key_definitions.hpp</title>
<!-- Node1 -->
<g id="Node000001" class="node">
<title>Node1</title>
<g id="a_Node000001"><a xlink:title=" ">
<polygon fill="#999999" stroke="#666666" points="483.12,-576 316.38,-576 316.38,-544 483.12,-544 483.12,-576"/>
<text text-anchor="start" x="324.38" y="-562.5" font-family="Helvetica,sans-Serif" font-size="10.00">lib_sokoban_core/include</text>
<text text-anchor="middle" x="399.75" y="-550.5" font-family="Helvetica,sans-Serif" font-size="10.00">/sokoban_core/key_definitions.hpp</text>
</a>
</g>
</g>
<!-- Node2 -->
<g id="Node000002" class="node">
<title>Node2</title>
<g id="a_Node000002"><a xlink:href="../../db/d29/base__action__factory_8hpp.html" target="_top" xlink:title=" ">
<polygon fill="white" stroke="#666666" points="248.12,-236 123.38,-236 123.38,-204 248.12,-204 248.12,-236"/>
<text text-anchor="start" x="131.38" y="-222.5" font-family="Helvetica,sans-Serif" font-size="10.00">lib_base_game/include</text>
<text text-anchor="middle" x="185.75" y="-210.5" font-family="Helvetica,sans-Serif" font-size="10.00">/base_action_factory.hpp</text>
</a>
</g>
</g>
<!-- Node1&#45;&gt;Node2 -->
<g id="edge1_Node000001_Node000002" class="edge">
<title>Node1&#45;&gt;Node2</title>
<g id="a_edge1_Node000001_Node000002"><a xlink:title=" ">
<path fill="none" stroke="#63b8ff" d="M311.3,-540.31C252.39,-522.08 185.75,-487.62 185.75,-425 185.75,-425 185.75,-425 185.75,-355 185.75,-311.96 185.75,-261.15 185.75,-236.27"/>
<polygon fill="#63b8ff" stroke="#63b8ff" points="310.16,-543.62 320.74,-543.1 312.14,-536.91 310.16,-543.62"/>
</a>
</g>
</g>
<!-- Node7 -->
<g id="Node000007" class="node">
<title>Node7</title>
<g id="a_Node000007"><a xlink:href="../../dc/d77/base__game__action_8hpp.html" target="_top" xlink:title=" ">
<polygon fill="white" stroke="#666666" points="119.5,-304 0,-304 0,-272 119.5,-272 119.5,-304"/>
<text text-anchor="start" x="8" y="-290.5" font-family="Helvetica,sans-Serif" font-size="10.00">lib_base_game/include</text>
<text text-anchor="middle" x="59.75" y="-278.5" font-family="Helvetica,sans-Serif" font-size="10.00">/base_game_action.hpp</text>
</a>
</g>
</g>
<!-- Node1&#45;&gt;Node7 -->
<g id="edge7_Node000001_Node000007" class="edge">
<title>Node1&#45;&gt;Node7</title>
<g id="a_edge7_Node000001_Node000007"><a xlink:title=" ">
<path fill="none" stroke="#63b8ff" d="M304.99,-546.07C252.12,-537.28 192.78,-524.29 171.75,-508 102.03,-454 71.91,-344.62 62.87,-304.34"/>
<polygon fill="#63b8ff" stroke="#63b8ff" points="304.23,-549.49 314.66,-547.64 305.35,-542.58 304.23,-549.49"/>
</a>
</g>
</g>
<!-- Node8 -->
<g id="Node000008" class="node">
<title>Node8</title>
<g id="a_Node000008"><a xlink:href="../../d0/d56/action__logger_8hpp.html" target="_top" xlink:title=" ">
<polygon fill="white" stroke="#666666" points="788.38,-304 629.12,-304 629.12,-272 788.38,-272 788.38,-304"/>
<text text-anchor="start" x="637.12" y="-290.5" font-family="Helvetica,sans-Serif" font-size="10.00">lib_sokoban_core/include</text>
<text text-anchor="middle" x="708.75" y="-278.5" font-family="Helvetica,sans-Serif" font-size="10.00">/sokoban_core/action_logger.hpp</text>
</a>
</g>
</g>
<!-- Node1&#45;&gt;Node8 -->
<g id="edge10_Node000001_Node000008" class="edge">
<title>Node1&#45;&gt;Node8</title>
<g id="a_edge10_Node000001_Node000008"><a xlink:title=" ">
<path fill="none" stroke="#63b8ff" d="M448.73,-539.07C493.97,-518.94 561.17,-484.48 608.75,-440 653.08,-398.56 687.41,-333.78 701.62,-304.4"/>
<polygon fill="#63b8ff" stroke="#63b8ff" points="447.44,-535.82 439.68,-543.03 450.25,-542.23 447.44,-535.82"/>
</a>
</g>
</g>
<!-- Node10 -->
<g id="Node000010" class="node">
<title>Node10</title>
<g id="a_Node000010"><a xlink:href="../../d7/dc7/command_8hpp.html" target="_top" xlink:title=" ">
<polygon fill="white" stroke="#666666" points="471.88,-508 327.62,-508 327.62,-476 471.88,-476 471.88,-508"/>
<text text-anchor="start" x="335.62" y="-494.5" font-family="Helvetica,sans-Serif" font-size="10.00">lib_sokoban_core/include</text>
<text text-anchor="middle" x="399.75" y="-482.5" font-family="Helvetica,sans-Serif" font-size="10.00">/sokoban_core/command.hpp</text>
</a>
</g>
</g>
<!-- Node1&#45;&gt;Node10 -->
<g id="edge13_Node000001_Node000010" class="edge">
<title>Node1&#45;&gt;Node10</title>
<g id="a_edge13_Node000001_Node000010"><a xlink:title=" ">
<path fill="none" stroke="#63b8ff" d="M399.75,-532.31C399.75,-524.12 399.75,-515.38 399.75,-508.22"/>
<polygon fill="#63b8ff" stroke="#63b8ff" points="396.25,-532.18 399.75,-542.18 403.25,-532.18 396.25,-532.18"/>
</a>
</g>
</g>
<!-- Node15 -->
<g id="Node000015" class="node">
<title>Node15</title>
<g id="a_Node000015"><a xlink:href="../../d1/d73/key__definitions__win_8hpp.html" target="_top" xlink:title=" ">
<polygon fill="white" stroke="#666666" points="792.12,-508 655.38,-508 655.38,-476 792.12,-476 792.12,-508"/>
<text text-anchor="start" x="663.38" y="-494.5" font-family="Helvetica,sans-Serif" font-size="10.00">lib_sokoban_core/include</text>
<text text-anchor="middle" x="723.75" y="-482.5" font-family="Helvetica,sans-Serif" font-size="10.00">/tui/key_definitions_win.hpp</text>
</a>
</g>
</g>
<!-- Node1&#45;&gt;Node15 -->
<g id="edge27_Node000001_Node000015" class="edge">
<title>Node1&#45;&gt;Node15</title>
<g id="a_edge27_Node000001_Node000015"><a xlink:title=" ">
<path fill="none" stroke="#63b8ff" d="M486.75,-541.28C539.48,-530.54 605.82,-517.02 654.89,-507.03"/>
<polygon fill="#63b8ff" stroke="#63b8ff" points="486.3,-537.8 477.2,-543.22 487.69,-544.66 486.3,-537.8"/>
</a>
</g>
</g>
<!-- Node3 -->
<g id="Node000003" class="node">
<title>Node3</title>
<g id="a_Node000003"><a xlink:href="../../d9/dc0/base__game_8hpp.html" target="_top" xlink:title=" ">
<polygon fill="white" stroke="#666666" points="350.25,-168 235.25,-168 235.25,-136 350.25,-136 350.25,-168"/>
<text text-anchor="start" x="243.25" y="-154.5" font-family="Helvetica,sans-Serif" font-size="10.00">lib_base_game/include</text>
<text text-anchor="middle" x="292.75" y="-142.5" font-family="Helvetica,sans-Serif" font-size="10.00">/base_game.hpp</text>
</a>
</g>
</g>
<!-- Node2&#45;&gt;Node3 -->
<g id="edge2_Node000002_Node000003" class="edge">
<title>Node2&#45;&gt;Node3</title>
<g id="a_edge2_Node000002_Node000003"><a xlink:title=" ">
<path fill="none" stroke="#63b8ff" d="M220.56,-197.53C235.98,-188.02 253.76,-177.05 267.82,-168.38"/>
<polygon fill="#63b8ff" stroke="#63b8ff" points="218.8,-194.5 212.12,-202.73 222.47,-200.46 218.8,-194.5"/>
</a>
</g>
</g>
<!-- Node4 -->
<g id="Node000004" class="node">
<title>Node4</title>
<g id="a_Node000004"><a xlink:href="../../d5/ddc/base__session__context_8hpp.html" target="_top" xlink:title=" ">
<polygon fill="white" stroke="#666666" points="467.38,-100 332.12,-100 332.12,-68 467.38,-68 467.38,-100"/>
<text text-anchor="start" x="340.12" y="-86.5" font-family="Helvetica,sans-Serif" font-size="10.00">lib_base_game/include</text>
<text text-anchor="middle" x="399.75" y="-74.5" font-family="Helvetica,sans-Serif" font-size="10.00">/base_session_context.hpp</text>
</a>
</g>
</g>
<!-- Node2&#45;&gt;Node4 -->
<g id="edge6_Node000002_Node000004" class="edge">
<title>Node2&#45;&gt;Node4</title>
<g id="a_edge6_Node000002_Node000004"><a xlink:title=" ">
<path fill="none" stroke="#63b8ff" d="M192.21,-192.93C198.05,-174.54 208.46,-150.67 225.75,-136 255.4,-110.85 296.94,-98.1 331.99,-91.63"/>
<polygon fill="#63b8ff" stroke="#63b8ff" points="188.9,-191.77 189.49,-202.35 195.62,-193.71 188.9,-191.77"/>
</a>
</g>
</g>
<!-- Node3&#45;&gt;Node4 -->
<g id="edge3_Node000003_Node000004" class="edge">
<title>Node3&#45;&gt;Node4</title>
<g id="a_edge3_Node000003_Node000004"><a xlink:title=" ">
<path fill="none" stroke="#63b8ff" d="M327.56,-129.53C342.98,-120.02 360.76,-109.05 374.82,-100.38"/>
<polygon fill="#63b8ff" stroke="#63b8ff" points="325.8,-126.5 319.12,-134.73 329.47,-132.46 325.8,-126.5"/>
</a>
</g>
</g>
<!-- Node5 -->
<g id="Node000005" class="node">
<title>Node5</title>
<g id="a_Node000005"><a xlink:href="../../d0/d8e/base__game__action_8cpp.html" target="_top" xlink:title=" ">
<polygon fill="white" stroke="#666666" points="298.5,-32 179,-32 179,0 298.5,0 298.5,-32"/>
<text text-anchor="start" x="187" y="-18.5" font-family="Helvetica,sans-Serif" font-size="10.00">lib_base_game/include</text>
<text text-anchor="middle" x="238.75" y="-6.5" font-family="Helvetica,sans-Serif" font-size="10.00">/base_game_action.cpp</text>
</a>
</g>
</g>
<!-- Node4&#45;&gt;Node5 -->
<g id="edge4_Node000004_Node000005" class="edge">
<title>Node4&#45;&gt;Node5</title>
<g id="a_edge4_Node000004_Node000005"><a xlink:title=" ">
<path fill="none" stroke="#63b8ff" d="M351.67,-63.29C327.64,-53.44 298.97,-41.69 276.54,-32.49"/>
<polygon fill="#63b8ff" stroke="#63b8ff" points="350.02,-66.4 360.6,-66.95 352.68,-59.92 350.02,-66.4"/>
</a>
</g>
</g>
<!-- Node6 -->
<g id="Node000006" class="node">
<title>Node6</title>
<g id="a_Node000006"><a xlink:href="../../db/db9/lib__base__game_2include_2mod_8hpp.html" target="_top" xlink:title=" ">
<polygon fill="white" stroke="#666666" points="874.25,-32 759.25,-32 759.25,0 874.25,0 874.25,-32"/>
<text text-anchor="start" x="767.25" y="-18.5" font-family="Helvetica,sans-Serif" font-size="10.00">lib_base_game/include</text>
<text text-anchor="middle" x="816.75" y="-6.5" font-family="Helvetica,sans-Serif" font-size="10.00">/mod.hpp</text>
</a>
</g>
</g>
<!-- Node4&#45;&gt;Node6 -->
<g id="edge5_Node000004_Node000006" class="edge">
<title>Node4&#45;&gt;Node6</title>
<g id="a_edge5_Node000004_Node000006"><a xlink:title=" ">
<path fill="none" stroke="#63b8ff" d="M478.9,-70.47C560.6,-57.54 686.1,-37.68 758.94,-26.15"/>
<polygon fill="#63b8ff" stroke="#63b8ff" points="478.5,-66.99 469.17,-72.01 479.6,-73.91 478.5,-66.99"/>
</a>
</g>
</g>
<!-- Node7&#45;&gt;Node2 -->
<g id="edge8_Node000007_Node000002" class="edge">
<title>Node7&#45;&gt;Node2</title>
<g id="a_edge8_Node000007_Node000002"><a xlink:title=" ">
<path fill="none" stroke="#63b8ff" d="M99.45,-266.2C117.9,-256.54 139.44,-245.26 156.39,-236.38"/>
<polygon fill="#63b8ff" stroke="#63b8ff" points="97.87,-263.08 90.63,-270.82 101.11,-269.28 97.87,-263.08"/>
</a>
</g>
</g>
<!-- Node7&#45;&gt;Node5 -->
<g id="edge9_Node000007_Node000005" class="edge">
<title>Node7&#45;&gt;Node5</title>
<g id="a_edge9_Node000007_Node000005"><a xlink:title=" ">
<path fill="none" stroke="#63b8ff" d="M76.16,-262.23C87.09,-245.73 101.78,-223.57 114.75,-204 157.15,-140.04 207.72,-63.78 228.78,-32.03"/>
<polygon fill="#63b8ff" stroke="#63b8ff" points="73.33,-260.17 70.72,-270.44 79.16,-264.04 73.33,-260.17"/>
</a>
</g>
</g>
<!-- Node8&#45;&gt;Node4 -->
<g id="edge11_Node000008_Node000004" class="edge">
<title>Node8&#45;&gt;Node4</title>
<g id="a_edge11_Node000008_Node000004"><a xlink:title=" ">
<path fill="none" stroke="#63b8ff" d="M689.44,-263.11C674.24,-245.32 651.83,-221.24 628.75,-204 567.37,-158.15 485.81,-120.46 438.42,-100.48"/>
<polygon fill="#63b8ff" stroke="#63b8ff" points="686.62,-265.2 695.73,-270.61 691.99,-260.7 686.62,-265.2"/>
</a>
</g>
</g>
<!-- Node9 -->
<g id="Node000009" class="node">
<title>Node9</title>
<g id="a_Node000009"><a xlink:href="../../df/d0a/main_8cpp.html" target="_top" xlink:title=" ">
<polygon fill="white" stroke="#666666" points="620.12,-230 495.38,-230 495.38,-210 620.12,-210 620.12,-230"/>
<text text-anchor="middle" x="557.75" y="-216.5" font-family="Helvetica,sans-Serif" font-size="10.00">sokoban_driver/main.cpp</text>
</a>
</g>
</g>
<!-- Node8&#45;&gt;Node9 -->
<g id="edge12_Node000008_Node000009" class="edge">
<title>Node8&#45;&gt;Node9</title>
<g id="a_edge12_Node000008_Node000009"><a xlink:title=" ">
<path fill="none" stroke="#63b8ff" d="M663.06,-267.03C635.3,-254.9 601.13,-239.96 579.39,-230.46"/>
<polygon fill="#63b8ff" stroke="#63b8ff" points="661.4,-270.12 671.96,-270.92 664.2,-263.71 661.4,-270.12"/>
</a>
</g>
</g>
<!-- Node10&#45;&gt;Node2 -->
<g id="edge14_Node000010_Node000002" class="edge">
<title>Node10&#45;&gt;Node2</title>
<g id="a_edge14_Node000010_Node000002"><a xlink:title=" ">
<path fill="none" stroke="#63b8ff" d="M351.34,-471.02C308.26,-451.21 245.89,-417.29 204.75,-372 173.28,-337.35 165.5,-318.38 171.75,-272 173.39,-259.81 177.15,-246.4 180.36,-236.4"/>
<polygon fill="#63b8ff" stroke="#63b8ff" points="349.64,-474.09 360.2,-475.01 352.52,-467.71 349.64,-474.09"/>
</a>
</g>
</g>
<!-- Node10&#45;&gt;Node4 -->
<g id="edge15_Node000010_Node000004" class="edge">
<title>Node10&#45;&gt;Node4</title>
<g id="a_edge15_Node000010_Node000004"><a xlink:title=" ">
<path fill="none" stroke="#63b8ff" d="M399.75,-464.52C399.75,-437.49 399.75,-394.32 399.75,-357 399.75,-357 399.75,-357 399.75,-219 399.75,-175.96 399.75,-125.15 399.75,-100.27"/>
<polygon fill="#63b8ff" stroke="#63b8ff" points="396.25,-464.21 399.75,-474.21 403.25,-464.21 396.25,-464.21"/>
</a>
</g>
</g>
<!-- Node11 -->
<g id="Node000011" class="node">
<title>Node11</title>
<g id="a_Node000011"><a xlink:href="../../da/d4c/session__context_8hpp.html" target="_top" xlink:title=" ">
<polygon fill="white" stroke="#666666" points="600.12,-440 427.38,-440 427.38,-408 600.12,-408 600.12,-440"/>
<text text-anchor="start" x="435.38" y="-426.5" font-family="Helvetica,sans-Serif" font-size="10.00">lib_sokoban_core/include</text>
<text text-anchor="middle" x="513.75" y="-414.5" font-family="Helvetica,sans-Serif" font-size="10.00">/sokoban_core/session_context.hpp</text>
</a>
</g>
</g>
<!-- Node10&#45;&gt;Node11 -->
<g id="edge16_Node000010_Node000011" class="edge">
<title>Node10&#45;&gt;Node11</title>
<g id="a_edge16_Node000010_Node000011"><a xlink:title=" ">
<path fill="none" stroke="#63b8ff" d="M436.37,-469.8C452.9,-460.23 472.07,-449.13 487.19,-440.38"/>
<polygon fill="#63b8ff" stroke="#63b8ff" points="434.69,-466.73 427.79,-474.77 438.2,-472.79 434.69,-466.73"/>
</a>
</g>
</g>
<!-- Node11&#45;&gt;Node4 -->
<g id="edge17_Node000011_Node000004" class="edge">
<title>Node11&#45;&gt;Node4</title>
<g id="a_edge17_Node000011_Node000004"><a xlink:title=" ">
<path fill="none" stroke="#63b8ff" d="M484.46,-400.09C475.77,-392.03 466.93,-382.37 460.75,-372 441.15,-339.12 437.75,-327.28 437.75,-289 437.75,-289 437.75,-289 437.75,-219 437.75,-174.51 418.12,-124.75 407.08,-100.28"/>
<polygon fill="#63b8ff" stroke="#63b8ff" points="482.04,-402.63 491.86,-406.6 486.66,-397.37 482.04,-402.63"/>
</a>
</g>
</g>
<!-- Node11&#45;&gt;Node6 -->
<g id="edge18_Node000011_Node000006" class="edge">
<title>Node11&#45;&gt;Node6</title>
<g id="a_edge18_Node000011_Node000006"><a xlink:title=" ">
<path fill="none" stroke="#63b8ff" d="M607.88,-405.12C708.82,-383.18 854.75,-342.26 854.75,-289 854.75,-289 854.75,-289 854.75,-151 854.75,-106.51 835.12,-56.75 824.08,-32.28"/>
<polygon fill="#63b8ff" stroke="#63b8ff" points="607.26,-401.67 598.21,-407.19 608.72,-408.52 607.26,-401.67"/>
</a>
</g>
</g>
<!-- Node12 -->
<g id="Node000012" class="node">
<title>Node12</title>
<g id="a_Node000012"><a xlink:href="../../d1/dab/game__action_8hpp.html" target="_top" xlink:title=" ">
<polygon fill="white" stroke="#666666" points="371.25,-372 214.25,-372 214.25,-340 371.25,-340 371.25,-372"/>
<text text-anchor="start" x="222.25" y="-358.5" font-family="Helvetica,sans-Serif" font-size="10.00">lib_sokoban_core/include</text>
<text text-anchor="middle" x="292.75" y="-346.5" font-family="Helvetica,sans-Serif" font-size="10.00">/sokoban_core/game_action.hpp</text>
</a>
</g>
</g>
<!-- Node11&#45;&gt;Node12 -->
<g id="edge19_Node000011_Node000012" class="edge">
<title>Node11&#45;&gt;Node12</title>
<g id="a_edge19_Node000011_Node000012"><a xlink:title=" ">
<path fill="none" stroke="#63b8ff" d="M451.28,-404.34C417.6,-394.28 376.52,-382.02 344.62,-372.49"/>
<polygon fill="#63b8ff" stroke="#63b8ff" points="449.9,-407.58 460.49,-407.09 451.9,-400.88 449.9,-407.58"/>
</a>
</g>
</g>
<!-- Node13 -->
<g id="Node000013" class="node">
<title>Node13</title>
<g id="a_Node000013"><a xlink:href="../../d7/d87/lib__sokoban__core_2include_2sokoban__core_2mod_8hpp.html" target="_top" xlink:title=" ">
<polygon fill="white" stroke="#666666" points="595.5,-372 470,-372 470,-340 595.5,-340 595.5,-372"/>
<text text-anchor="start" x="478" y="-358.5" font-family="Helvetica,sans-Serif" font-size="10.00">lib_sokoban_core/include</text>
<text text-anchor="middle" x="532.75" y="-346.5" font-family="Helvetica,sans-Serif" font-size="10.00">/sokoban_core/mod.hpp</text>
</a>
</g>
</g>
<!-- Node11&#45;&gt;Node13 -->
<g id="edge22_Node000011_Node000013" class="edge">
<title>Node11&#45;&gt;Node13</title>
<g id="a_edge22_Node000011_Node000013"><a xlink:title=" ">
<path fill="none" stroke="#63b8ff" d="M521.27,-396.89C523.68,-388.52 526.26,-379.54 528.37,-372.22"/>
<polygon fill="#63b8ff" stroke="#63b8ff" points="517.98,-395.66 518.58,-406.24 524.71,-397.6 517.98,-395.66"/>
</a>
</g>
</g>
<!-- Node12&#45;&gt;Node3 -->
<g id="edge20_Node000012_Node000003" class="edge">
<title>Node12&#45;&gt;Node3</title>
<g id="a_edge20_Node000012_Node000003"><a xlink:title=" ">
<path fill="none" stroke="#63b8ff" d="M292.75,-328.38C292.75,-285.53 292.75,-202.6 292.75,-168.36"/>
<polygon fill="#63b8ff" stroke="#63b8ff" points="289.25,-328.3 292.75,-338.3 296.25,-328.3 289.25,-328.3"/>
</a>
</g>
</g>
<!-- Node12&#45;&gt;Node7 -->
<g id="edge21_Node000012_Node000007" class="edge">
<title>Node12&#45;&gt;Node7</title>
<g id="a_edge21_Node000012_Node000007"><a xlink:title=" ">
<path fill="none" stroke="#63b8ff" d="M227.35,-336.47C191.75,-326.39 148.22,-314.06 114.44,-304.49"/>
<polygon fill="#63b8ff" stroke="#63b8ff" points="226.09,-339.76 236.67,-339.11 228,-333.02 226.09,-339.76"/>
</a>
</g>
</g>
<!-- Node13&#45;&gt;Node6 -->
<g id="edge23_Node000013_Node000006" class="edge">
<title>Node13&#45;&gt;Node6</title>
<g id="a_edge23_Node000013_Node000006"><a xlink:title=" ">
<path fill="none" stroke="#63b8ff" d="M606.95,-349.69C675.62,-343.22 771.01,-329.82 797.75,-304 824.97,-277.71 816.75,-258.84 816.75,-221 816.75,-221 816.75,-221 816.75,-151 816.75,-107.96 816.75,-57.15 816.75,-32.27"/>
<polygon fill="#63b8ff" stroke="#63b8ff" points="606.89,-346.18 597.25,-350.56 607.53,-353.15 606.89,-346.18"/>
</a>
</g>
</g>
<!-- Node13&#45;&gt;Node9 -->
<g id="edge24_Node000013_Node000009" class="edge">
<title>Node13&#45;&gt;Node9</title>
<g id="a_edge24_Node000013_Node000009"><a xlink:title=" ">
<path fill="none" stroke="#63b8ff" d="M510.07,-331.07C497.18,-314.44 485.31,-291.79 494.75,-272 503.78,-253.08 523.64,-238.9 538.66,-230.36"/>
<polygon fill="#63b8ff" stroke="#63b8ff" points="507.16,-333.04 516.25,-338.47 512.53,-328.55 507.16,-333.04"/>
</a>
</g>
</g>
<!-- Node14 -->
<g id="Node000014" class="node">
<title>Node14</title>
<g id="a_Node000014"><a xlink:href="../../d5/d6f/mod__dynamic__library_8hpp.html" target="_top" xlink:title=" ">
<polygon fill="white" stroke="#666666" points="611.5,-304 504,-304 504,-272 611.5,-272 611.5,-304"/>
<text text-anchor="start" x="512" y="-290.5" font-family="Helvetica,sans-Serif" font-size="10.00">sokoban_driver/mod</text>
<text text-anchor="middle" x="557.75" y="-278.5" font-family="Helvetica,sans-Serif" font-size="10.00">_dynamic_library.hpp</text>
</a>
</g>
</g>
<!-- Node13&#45;&gt;Node14 -->
<g id="edge25_Node000013_Node000014" class="edge">
<title>Node13&#45;&gt;Node14</title>
<g id="a_edge25_Node000013_Node000014"><a xlink:title=" ">
<path fill="none" stroke="#63b8ff" d="M542.53,-329.17C545.73,-320.73 549.18,-311.63 551.98,-304.22"/>
<polygon fill="#63b8ff" stroke="#63b8ff" points="539.35,-327.69 539.08,-338.28 545.9,-330.17 539.35,-327.69"/>
</a>
</g>
</g>
<!-- Node14&#45;&gt;Node9 -->
<g id="edge26_Node000014_Node000009" class="edge">
<title>Node14&#45;&gt;Node9</title>
<g id="a_edge26_Node000014_Node000009"><a xlink:title=" ">
<path fill="none" stroke="#63b8ff" d="M557.75,-260.31C557.75,-249.67 557.75,-238.13 557.75,-230.32"/>
<polygon fill="#63b8ff" stroke="#63b8ff" points="554.25,-260.18 557.75,-270.18 561.25,-260.18 554.25,-260.18"/>
</a>
</g>
</g>
<!-- Node16 -->
<g id="Node000016" class="node">
<title>Node16</title>
<g id="a_Node000016"><a xlink:href="../../da/d21/console__win_8hpp.html" target="_top" xlink:title=" ">
<polygon fill="white" stroke="#666666" points="786.5,-440 661,-440 661,-408 786.5,-408 786.5,-440"/>
<text text-anchor="start" x="669" y="-426.5" font-family="Helvetica,sans-Serif" font-size="10.00">lib_sokoban_core/include</text>
<text text-anchor="middle" x="723.75" y="-414.5" font-family="Helvetica,sans-Serif" font-size="10.00">/tui/console_win.hpp</text>
</a>
</g>
</g>
<!-- Node15&#45;&gt;Node16 -->
<g id="edge28_Node000015_Node000016" class="edge">
<title>Node15&#45;&gt;Node16</title>
<g id="a_edge28_Node000015_Node000016"><a xlink:title=" ">
<path fill="none" stroke="#63b8ff" d="M723.75,-464.31C723.75,-456.12 723.75,-447.38 723.75,-440.22"/>
<polygon fill="#63b8ff" stroke="#63b8ff" points="720.25,-464.18 723.75,-474.18 727.25,-464.18 720.25,-464.18"/>
</a>
</g>
</g>
</g>
</svg>

<g id="navigator" transform="translate(0 0)" fill="#404254">
  <rect fill="#f2f5e9" fill-opacity="0.5" stroke="#606060" stroke-width=".5" x="0" y="0" width="60" height="60"/>
  <use id="zoomplus" xlink:href="#zoomPlus" x="17" y="9" onmousedown="handleZoom(evt,'in')"/>
  <use id="zoomminus" xlink:href="#zoomMin" x="42" y="9" onmousedown="handleZoom(evt,'out')"/>
  <use id="reset" xlink:href="#resetDef" x="30" y="36" onmousedown="handleReset()"/>
   <use id="arrowup" xlink:href="#arrowUp" x="0" y="0" onmousedown="handlePan(0,-1)"/>
  <use id="arrowright" xlink:href="#arrowRight" x="0" y="0" onmousedown="handlePan(1,0)"/>
  <use id="arrowdown" xlink:href="#arrowDown" x="0" y="0" onmousedown="handlePan(0,1)"/>
  <use id="arrowleft" xlink:href="#arrowLeft" x="0" y="0" onmousedown="handlePan(-1,0)"/>
</g>
<svg viewBox="0 0 15 15" width="100%" height="30px" preserveAspectRatio="xMaxYMin meet">
 <g id="arrow_out" transform="scale(0.3 0.3)">
  <a xlink:href="key__definitions_8hpp__dep__incl_org.svg" target="_base">
   <rect id="button" ry="5" rx="5" y="6" x="6" height="38" width="38"
        fill="#f2f5e9" fill-opacity="0.5" stroke="#606060" stroke-width="1.0"/>
   <path id="arrow"
     d="M 11.500037,31.436501 C 11.940474,20.09759 22.043105,11.32322 32.158766,21.979434 L 37.068811,17.246167 C 37.068811,17.246167 37.088388,32 37.088388,32 L 22.160133,31.978069 C 22.160133,31.978069 26.997745,27.140456 26.997745,27.140456 C 18.528582,18.264221 13.291696,25.230495 11.500037,31.436501 z"
     style="fill:#404040;"/>
  </a>
 </g>
</svg>

<style type='text/css'>
<![CDATA[
[data-mouse-over-selected='false'] { opacity: 0.7; }
[data-mouse-over-selected='true']  { opacity: 1.0; }
]]>
</style>
<script type="application/ecmascript"><![CDATA[
document.addEventListener('DOMContentLoaded', (event) => {
  highlightEdges();
  highlightAdjacentNodes();
});
]]></script>
</svg>
