<?xml version="1.0" encoding="UTF-8" standalone="no"?>
<!DOCTYPE svg PUBLIC "-//W3C//DTD SVG 1.1//EN"
 "http://www.w3.org/Graphics/SVG/1.1/DTD/svg11.dtd">
<!-- Generated by graphviz version 12.1.1 (20240910.0053)
 -->
<!-- Title: sokoban_driver/mod_dynamic_library.hpp Pages: 1 -->
<!--zoomable 388 -->

<svg id="main" version="1.1" xmlns="http://www.w3.org/2000/svg" xmlns:xlink="http://www.w3.org/1999/xlink" xml:space="preserve" onload="init(evt)">
<style type="text/css"><![CDATA[
.node, .edge {opacity: 0.7;}
.node.selected, .edge.selected {opacity: 1;}
.edge:hover path { stroke: red; }
.edge:hover polygon { stroke: red; fill: red; }
]]></style>

<defs>
  <circle id="rim" cx="0" cy="0" r="7"/>
  <circle id="rim2" cx="0" cy="0" r="3.5"/>
  <g id="zoomPlus">
    <use xlink:href="#rim" fill="#404040"><set attributeName="fill" to="#808080" begin="zoomplus.mouseover" end="zoomplus.mouseout"/></use>
    <path d="M-4,0h8M0,-4v8" fill="none" stroke="white" stroke-width="1.5" pointer-events="none"/>
  </g>
  <g id="zoomMin">
    <use xlink:href="#rim" fill="#404040"><set attributeName="fill" to="#808080" begin="zoomminus.mouseover" end="zoomminus.mouseout"/></use>
    <path d="M-4,0h8" fill="none" stroke="white" stroke-width="1.5" pointer-events="none"/>
  </g>
  <g id="arrowUp" transform="translate(30 24)">
    <use xlink:href="#rim"/>
    <path pointer-events="none" fill="none" stroke="white" stroke-width="1.5" d="M0,-3.0v7 M-2.5,-0.5L0,-3.0L2.5,-0.5"/>
  </g>
  <g id="arrowRight" transform="rotate(90) translate(36 -43)">
    <use xlink:href="#rim"/>
    <path pointer-events="none" fill="none" stroke="white" stroke-width="1.5" d="M0,-3.0v7 M-2.5,-0.5L0,-3.0L2.5,-0.5"/>
  </g>
  <g id="arrowDown" transform="rotate(180) translate(-30 -48)">
    <use xlink:href="#rim"/>
    <path pointer-events="none" fill="none" stroke="white" stroke-width="1.5" d="M0,-3.0v7 M-2.5,-0.5L0,-3.0L2.5,-0.5"/>
  </g>
  <g id="arrowLeft" transform="rotate(270) translate(-36 17)">
    <use xlink:href="#rim"/>
    <path pointer-events="none" fill="none" stroke="white" stroke-width="1.5" d="M0,-3.0v7 M-2.5,-0.5L0,-3.0L2.5,-0.5"/>
  </g>
  <g id="resetDef">
    <use xlink:href="#rim2" fill="#404040"><set attributeName="fill" to="#808080" begin="reset.mouseover" end="reset.mouseout"/></use>
  </g>
</defs>
<script type="application/ecmascript">
var viewWidth = 1711;
var viewHeight = 388;
var sectionId = 'dynsection-0';
</script>
<script type="application/ecmascript" xlink:href="../../svg.min.js"/>
<svg id="graph" class="graph">
<g id="viewport">
<title>sokoban_driver/mod_dynamic_library.hpp</title>
<!-- Node1 -->
<g id="Node000001" class="node">
<title>Node1</title>
<g id="a_Node000001"><a xlink:title=" ">
<polygon fill="#999999" stroke="#666666" points="1503.38,-380 1395.88,-380 1395.88,-348 1503.38,-348 1503.38,-380"/>
<text text-anchor="start" x="1403.88" y="-366.5" font-family="Helvetica,sans-Serif" font-size="10.00">sokoban_driver/mod</text>
<text text-anchor="middle" x="1449.62" y="-354.5" font-family="Helvetica,sans-Serif" font-size="10.00">_dynamic_library.hpp</text>
</a>
</g>
</g>
<!-- Node2 -->
<g id="Node000002" class="node">
<title>Node2</title>
<g id="a_Node000002"><a xlink:href="../../d7/d87/lib__sokoban__core_2include_2sokoban__core_2mod_8hpp.html" target="_top" xlink:title=" ">
<polygon fill="white" stroke="#666666" points="1148.25,-312 1031,-312 1031,-292 1148.25,-292 1148.25,-312"/>
<text text-anchor="middle" x="1089.62" y="-298.5" font-family="Helvetica,sans-Serif" font-size="10.00">sokoban_core/mod.hpp</text>
</a>
</g>
</g>
<!-- Node1&#45;&gt;Node2 -->
<g id="edge1_Node000001_Node000002" class="edge">
<title>Node1&#45;&gt;Node2</title>
<g id="a_edge1_Node000001_Node000002"><a xlink:title=" ">
<path fill="none" stroke="#63b8ff" d="M1395.73,-354.02C1332.28,-343.44 1226.81,-325.86 1157.75,-314.35"/>
<polygon fill="#63b8ff" stroke="#63b8ff" points="1158.5,-310.93 1148.06,-312.74 1157.35,-317.84 1158.5,-310.93"/>
</a>
</g>
</g>
<!-- Node11 -->
<g id="Node000011" class="node">
<title>Node11</title>
<g id="a_Node000011"><a xlink:title=" ">
<polygon fill="#e0e0e0" stroke="#999999" points="1097.12,-82 1036.12,-82 1036.12,-62 1097.12,-62 1097.12,-82"/>
<text text-anchor="middle" x="1066.62" y="-68.5" font-family="Helvetica,sans-Serif" font-size="10.00">filesystem</text>
</a>
</g>
</g>
<!-- Node1&#45;&gt;Node11 -->
<g id="edge40_Node000001_Node000011" class="edge">
<title>Node1&#45;&gt;Node11</title>
<g id="a_edge40_Node000001_Node000011"><a xlink:title=" ">
<path fill="none" stroke="#63b8ff" d="M1449.62,-347.61C1449.62,-325.4 1449.62,-283.05 1449.62,-247 1449.62,-247 1449.62,-247 1449.62,-189 1449.62,-118.4 1208.23,-86.79 1108.73,-76.75"/>
<polygon fill="#63b8ff" stroke="#63b8ff" points="1109.12,-73.28 1098.83,-75.78 1108.44,-80.24 1109.12,-73.28"/>
</a>
</g>
</g>
<!-- Node28 -->
<g id="Node000028" class="node">
<title>Node28</title>
<g id="a_Node000028"><a xlink:title=" ">
<polygon fill="#e0e0e0" stroke="#999999" points="1421.25,-200 1370,-200 1370,-180 1421.25,-180 1421.25,-200"/>
<text text-anchor="middle" x="1395.62" y="-186.5" font-family="Helvetica,sans-Serif" font-size="10.00">memory</text>
</a>
</g>
</g>
<!-- Node1&#45;&gt;Node28 -->
<g id="edge39_Node000001_Node000028" class="edge">
<title>Node1&#45;&gt;Node28</title>
<g id="a_edge39_Node000001_Node000028"><a xlink:title=" ">
<path fill="none" stroke="#63b8ff" d="M1444.83,-347.74C1435.04,-316.55 1412.75,-245.56 1401.86,-210.85"/>
<polygon fill="#63b8ff" stroke="#63b8ff" points="1405.3,-210.15 1398.97,-201.65 1398.63,-212.24 1405.3,-210.15"/>
</a>
</g>
</g>
<!-- Node31 -->
<g id="Node000031" class="node">
<title>Node31</title>
<g id="a_Node000031"><a xlink:title=" ">
<polygon fill="#e0e0e0" stroke="#999999" points="1584,-312 1477.25,-312 1477.25,-292 1584,-292 1584,-312"/>
<text text-anchor="middle" x="1530.62" y="-298.5" font-family="Helvetica,sans-Serif" font-size="10.00">boost/filesystem.hpp</text>
</a>
</g>
</g>
<!-- Node1&#45;&gt;Node31 -->
<g id="edge37_Node000001_Node000031" class="edge">
<title>Node1&#45;&gt;Node31</title>
<g id="a_edge37_Node000001_Node000031"><a xlink:title=" ">
<path fill="none" stroke="#63b8ff" d="M1470.48,-347.55C1482.2,-338.87 1496.82,-328.04 1508.7,-319.24"/>
<polygon fill="#63b8ff" stroke="#63b8ff" points="1510.76,-322.07 1516.71,-313.31 1506.59,-316.45 1510.76,-322.07"/>
</a>
</g>
</g>
<!-- Node32 -->
<g id="Node000032" class="node">
<title>Node32</title>
<g id="a_Node000032"><a xlink:title=" ">
<polygon fill="#e0e0e0" stroke="#999999" points="1703.38,-312 1601.88,-312 1601.88,-292 1703.38,-292 1703.38,-312"/>
<text text-anchor="middle" x="1652.62" y="-298.5" font-family="Helvetica,sans-Serif" font-size="10.00">boost/dll/import.hpp</text>
</a>
</g>
</g>
<!-- Node1&#45;&gt;Node32 -->
<g id="edge38_Node000001_Node000032" class="edge">
<title>Node1&#45;&gt;Node32</title>
<g id="a_edge38_Node000001_Node000032"><a xlink:title=" ">
<path fill="none" stroke="#63b8ff" d="M1501.9,-347.55C1535.28,-337.68 1578.02,-325.05 1609.46,-315.76"/>
<polygon fill="#63b8ff" stroke="#63b8ff" points="1610.45,-319.12 1619.04,-312.93 1608.46,-312.4 1610.45,-319.12"/>
</a>
</g>
</g>
<!-- Node3 -->
<g id="Node000003" class="node">
<title>Node3</title>
<g id="a_Node000003"><a xlink:href="../../da/d4c/session__context_8hpp.html" target="_top" xlink:title=" ">
<polygon fill="white" stroke="#666666" points="1199.62,-256 1093.62,-256 1093.62,-236 1199.62,-236 1199.62,-256"/>
<text text-anchor="middle" x="1146.62" y="-242.5" font-family="Helvetica,sans-Serif" font-size="10.00">session_context.hpp</text>
</a>
</g>
</g>
<!-- Node2&#45;&gt;Node3 -->
<g id="edge2_Node000002_Node000003" class="edge">
<title>Node2&#45;&gt;Node3</title>
<g id="a_edge2_Node000002_Node000003"><a xlink:title=" ">
<path fill="none" stroke="#63b8ff" d="M1099.55,-291.59C1107.56,-284.01 1119.04,-273.13 1128.66,-264.02"/>
<polygon fill="#63b8ff" stroke="#63b8ff" points="1130.86,-266.76 1135.71,-257.34 1126.04,-261.68 1130.86,-266.76"/>
</a>
</g>
</g>
<!-- Node13 -->
<g id="Node000013" class="node">
<title>Node13</title>
<g id="a_Node000013"><a xlink:title=" ">
<polygon fill="#e0e0e0" stroke="#999999" points="368.62,-144 328.62,-144 328.62,-124 368.62,-124 368.62,-144"/>
<text text-anchor="middle" x="348.62" y="-130.5" font-family="Helvetica,sans-Serif" font-size="10.00">string</text>
</a>
</g>
</g>
<!-- Node2&#45;&gt;Node13 -->
<g id="edge36_Node000002_Node000013" class="edge">
<title>Node2&#45;&gt;Node13</title>
<g id="a_edge36_Node000002_Node000013"><a xlink:title=" ">
<path fill="none" stroke="#63b8ff" d="M1040.08,-291.56C925.36,-269.4 632.63,-211 379.72,-144.39"/>
<polygon fill="#63b8ff" stroke="#63b8ff" points="380.87,-141.07 370.31,-141.9 379.08,-147.84 380.87,-141.07"/>
</a>
</g>
</g>
<!-- Node30 -->
<g id="Node000030" class="node">
<title>Node30</title>
<g id="a_Node000030"><a xlink:title=" ">
<polygon fill="#e0e0e0" stroke="#999999" points="1075.62,-256 987.62,-256 987.62,-236 1075.62,-236 1075.62,-256"/>
<text text-anchor="middle" x="1031.62" y="-242.5" font-family="Helvetica,sans-Serif" font-size="10.00">boost/config.hpp</text>
</a>
</g>
</g>
<!-- Node2&#45;&gt;Node30 -->
<g id="edge35_Node000002_Node000030" class="edge">
<title>Node2&#45;&gt;Node30</title>
<g id="a_edge35_Node000002_Node000030"><a xlink:title=" ">
<path fill="none" stroke="#63b8ff" d="M1079.52,-291.59C1071.37,-284.01 1059.69,-273.13 1049.91,-264.02"/>
<polygon fill="#63b8ff" stroke="#63b8ff" points="1052.42,-261.58 1042.72,-257.33 1047.65,-266.71 1052.42,-261.58"/>
</a>
</g>
</g>
<!-- Node4 -->
<g id="Node000004" class="node">
<title>Node4</title>
<g id="a_Node000004"><a xlink:href="../../d7/dc7/command_8hpp.html" target="_top" xlink:title=" ">
<polygon fill="white" stroke="#666666" points="1185.38,-200 1107.88,-200 1107.88,-180 1185.38,-180 1185.38,-200"/>
<text text-anchor="middle" x="1146.62" y="-186.5" font-family="Helvetica,sans-Serif" font-size="10.00">command.hpp</text>
</a>
</g>
</g>
<!-- Node3&#45;&gt;Node4 -->
<g id="edge3_Node000003_Node000004" class="edge">
<title>Node3&#45;&gt;Node4</title>
<g id="a_edge3_Node000003_Node000004"><a xlink:title=" ">
<path fill="none" stroke="#63b8ff" d="M1146.62,-235.59C1146.62,-229.01 1146.62,-219.96 1146.62,-211.73"/>
<polygon fill="#63b8ff" stroke="#63b8ff" points="1150.13,-211.81 1146.63,-201.81 1143.13,-211.81 1150.13,-211.81"/>
</a>
</g>
</g>
<!-- Node6 -->
<g id="Node000006" class="node">
<title>Node6</title>
<g id="a_Node000006"><a xlink:href="../../dd/dc8/game__state_8hpp.html" target="_top" xlink:title=" ">
<polygon fill="white" stroke="#666666" points="1351.5,-200 1265.75,-200 1265.75,-180 1351.5,-180 1351.5,-200"/>
<text text-anchor="middle" x="1308.62" y="-186.5" font-family="Helvetica,sans-Serif" font-size="10.00">game_state.hpp</text>
</a>
</g>
</g>
<!-- Node3&#45;&gt;Node6 -->
<g id="edge5_Node000003_Node000006" class="edge">
<title>Node3&#45;&gt;Node6</title>
<g id="a_edge5_Node000003_Node000006"><a xlink:title=" ">
<path fill="none" stroke="#63b8ff" d="M1174.84,-235.59C1201.05,-226.86 1240.31,-213.77 1269.53,-204.03"/>
<polygon fill="#63b8ff" stroke="#63b8ff" points="1270.37,-207.44 1278.75,-200.96 1268.16,-200.8 1270.37,-207.44"/>
</a>
</g>
</g>
<!-- Node8 -->
<g id="Node000008" class="node">
<title>Node8</title>
<g id="a_Node000008"><a xlink:href="../../d9/d85/player_8hpp.html" target="_top" xlink:title=" ">
<polygon fill="white" stroke="#666666" points="925.12,-200 864.12,-200 864.12,-180 925.12,-180 925.12,-200"/>
<text text-anchor="middle" x="894.62" y="-186.5" font-family="Helvetica,sans-Serif" font-size="10.00">player.hpp</text>
</a>
</g>
</g>
<!-- Node3&#45;&gt;Node8 -->
<g id="edge7_Node000003_Node000008" class="edge">
<title>Node3&#45;&gt;Node8</title>
<g id="a_edge7_Node000003_Node000008"><a xlink:title=" ">
<path fill="none" stroke="#63b8ff" d="M1102.44,-235.53C1055.6,-225.49 982.16,-209.76 936.3,-199.93"/>
<polygon fill="#63b8ff" stroke="#63b8ff" points="937.25,-196.56 926.74,-197.88 935.79,-203.4 937.25,-196.56"/>
</a>
</g>
</g>
<!-- Node3&#45;&gt;Node11 -->
<g id="edge33_Node000003_Node000011" class="edge">
<title>Node3&#45;&gt;Node11</title>
<g id="a_edge33_Node000003_Node000011"><a xlink:title=" ">
<path fill="none" stroke="#63b8ff" d="M1132.78,-235.51C1121.91,-227.33 1107.2,-214.57 1098.62,-200 1078.59,-165.99 1071.02,-119.71 1068.21,-93.43"/>
<polygon fill="#63b8ff" stroke="#63b8ff" points="1071.73,-93.43 1067.32,-83.79 1064.76,-94.07 1071.73,-93.43"/>
</a>
</g>
</g>
<!-- Node16 -->
<g id="Node000016" class="node">
<title>Node16</title>
<g id="a_Node000016"><a xlink:href="../../d5/ddc/console_8hpp.html" target="_top" xlink:title=" ">
<polygon fill="white" stroke="#666666" points="763.62,-200 681.62,-200 681.62,-180 763.62,-180 763.62,-200"/>
<text text-anchor="middle" x="722.62" y="-186.5" font-family="Helvetica,sans-Serif" font-size="10.00">tui/console.hpp</text>
</a>
</g>
</g>
<!-- Node3&#45;&gt;Node16 -->
<g id="edge17_Node000003_Node000016" class="edge">
<title>Node3&#45;&gt;Node16</title>
<g id="a_edge17_Node000003_Node000016"><a xlink:title=" ">
<path fill="none" stroke="#63b8ff" d="M1093.2,-237.17C1090.3,-236.77 1087.43,-236.38 1084.62,-236 974.63,-221.18 845.6,-205.56 775.13,-197.19"/>
<polygon fill="#63b8ff" stroke="#63b8ff" points="775.77,-193.74 765.42,-196.03 774.94,-200.69 775.77,-193.74"/>
</a>
</g>
</g>
<!-- Node3&#45;&gt;Node28 -->
<g id="edge32_Node000003_Node000028" class="edge">
<title>Node3&#45;&gt;Node28</title>
<g id="a_edge32_Node000003_Node000028"><a xlink:title=" ">
<path fill="none" stroke="#63b8ff" d="M1194.78,-235.51C1235.78,-227.29 1296.51,-214.77 1358.49,-200.42"/>
<polygon fill="#63b8ff" stroke="#63b8ff" points="1359.24,-203.84 1368.19,-198.16 1357.66,-197.02 1359.24,-203.84"/>
</a>
</g>
</g>
<!-- Node29 -->
<g id="Node000029" class="node">
<title>Node29</title>
<g id="a_Node000029"><a xlink:title=" ">
<polygon fill="#e0e0e0" stroke="#999999" points="1247.88,-200 1203.38,-200 1203.38,-180 1247.88,-180 1247.88,-200"/>
<text text-anchor="middle" x="1225.62" y="-186.5" font-family="Helvetica,sans-Serif" font-size="10.00">iosfwd</text>
</a>
</g>
</g>
<!-- Node3&#45;&gt;Node29 -->
<g id="edge34_Node000003_Node000029" class="edge">
<title>Node3&#45;&gt;Node29</title>
<g id="a_edge34_Node000003_Node000029"><a xlink:title=" ">
<path fill="none" stroke="#63b8ff" d="M1160.39,-235.59C1171.98,-227.67 1188.82,-216.16 1202.49,-206.82"/>
<polygon fill="#63b8ff" stroke="#63b8ff" points="1204.23,-209.87 1210.51,-201.33 1200.28,-204.09 1204.23,-209.87"/>
</a>
</g>
</g>
<!-- Node5 -->
<g id="Node000005" class="node">
<title>Node5</title>
<g id="a_Node000005"><a xlink:href="../../de/d85/key__definitions_8hpp.html" target="_top" xlink:title=" ">
<polygon fill="white" stroke="#666666" points="1207.62,-144 1107.62,-144 1107.62,-124 1207.62,-124 1207.62,-144"/>
<text text-anchor="middle" x="1157.62" y="-130.5" font-family="Helvetica,sans-Serif" font-size="10.00">key_definitions.hpp</text>
</a>
</g>
</g>
<!-- Node4&#45;&gt;Node5 -->
<g id="edge4_Node000004_Node000005" class="edge">
<title>Node4&#45;&gt;Node5</title>
<g id="a_edge4_Node000004_Node000005"><a xlink:title=" ">
<path fill="none" stroke="#63b8ff" d="M1148.54,-179.59C1149.9,-172.93 1151.77,-163.75 1153.46,-155.44"/>
<polygon fill="#63b8ff" stroke="#63b8ff" points="1156.86,-156.28 1155.43,-145.78 1150,-154.88 1156.86,-156.28"/>
</a>
</g>
</g>
<!-- Node7 -->
<g id="Node000007" class="node">
<title>Node7</title>
<g id="a_Node000007"><a xlink:title=" ">
<polygon fill="#e0e0e0" stroke="#999999" points="1336.5,-144 1280.75,-144 1280.75,-124 1336.5,-124 1336.5,-144"/>
<text text-anchor="middle" x="1308.62" y="-130.5" font-family="Helvetica,sans-Serif" font-size="10.00">cinttypes</text>
</a>
</g>
</g>
<!-- Node6&#45;&gt;Node7 -->
<g id="edge6_Node000006_Node000007" class="edge">
<title>Node6&#45;&gt;Node7</title>
<g id="a_edge6_Node000006_Node000007"><a xlink:title=" ">
<path fill="none" stroke="#63b8ff" d="M1308.62,-179.59C1308.62,-173.01 1308.62,-163.96 1308.62,-155.73"/>
<polygon fill="#63b8ff" stroke="#63b8ff" points="1312.13,-155.81 1308.63,-145.81 1305.13,-155.81 1312.13,-155.81"/>
</a>
</g>
</g>
<!-- Node8&#45;&gt;Node8 -->
<g id="edge8_Node000008_Node000008" class="edge">
<title>Node8&#45;&gt;Node8</title>
<g id="a_edge8_Node000008_Node000008"><a xlink:title=" ">
<path fill="none" stroke="#63b8ff" d="M925.41,-200.5C935.29,-200.39 943.12,-196.89 943.12,-190 943.12,-186.12 940.65,-183.32 936.72,-181.59"/>
<polygon fill="#63b8ff" stroke="#63b8ff" points="937.37,-178.15 926.9,-179.78 936.1,-185.04 937.37,-178.15"/>
</a>
</g>
</g>
<!-- Node9 -->
<g id="Node000009" class="node">
<title>Node9</title>
<g id="a_Node000009"><a xlink:href="../../db/d42/json__utils_8hpp.html" target="_top" xlink:title=" ">
<polygon fill="white" stroke="#666666" points="1013.75,-144 893.5,-144 893.5,-124 1013.75,-124 1013.75,-144"/>
<text text-anchor="middle" x="953.62" y="-130.5" font-family="Helvetica,sans-Serif" font-size="10.00">json_utils/json_utils.hpp</text>
</a>
</g>
</g>
<!-- Node8&#45;&gt;Node9 -->
<g id="edge9_Node000008_Node000009" class="edge">
<title>Node8&#45;&gt;Node9</title>
<g id="a_edge9_Node000008_Node000009"><a xlink:title=" ">
<path fill="none" stroke="#63b8ff" d="M904.9,-179.59C913.19,-172.01 925.07,-161.13 935.03,-152.02"/>
<polygon fill="#63b8ff" stroke="#63b8ff" points="937.34,-154.65 942.35,-145.32 932.61,-149.49 937.34,-154.65"/>
</a>
</g>
</g>
<!-- Node8&#45;&gt;Node11 -->
<g id="edge15_Node000008_Node000011" class="edge">
<title>Node8&#45;&gt;Node11</title>
<g id="a_edge15_Node000008_Node000011"><a xlink:title=" ">
<path fill="none" stroke="#63b8ff" d="M925.39,-184.19C953.25,-178.55 994.17,-166.87 1022.62,-144 1039.54,-130.4 1051.72,-108.44 1058.91,-92.53"/>
<polygon fill="#63b8ff" stroke="#63b8ff" points="1062.01,-94.2 1062.68,-83.63 1055.56,-91.47 1062.01,-94.2"/>
</a>
</g>
</g>
<!-- Node8&#45;&gt;Node13 -->
<g id="edge13_Node000008_Node000013" class="edge">
<title>Node8&#45;&gt;Node13</title>
<g id="a_edge13_Node000008_Node000013"><a xlink:title=" ">
<path fill="none" stroke="#63b8ff" d="M863.84,-186.71C765.31,-179.32 459.95,-156.01 380.22,-143.86"/>
<polygon fill="#63b8ff" stroke="#63b8ff" points="381.02,-140.45 370.57,-142.2 379.83,-147.35 381.02,-140.45"/>
</a>
</g>
</g>
<!-- Node14 -->
<g id="Node000014" class="node">
<title>Node14</title>
<g id="a_Node000014"><a xlink:title=" ">
<polygon fill="#e0e0e0" stroke="#999999" points="875.38,-144 797.88,-144 797.88,-124 875.38,-124 875.38,-144"/>
<text text-anchor="middle" x="836.62" y="-130.5" font-family="Helvetica,sans-Serif" font-size="10.00">unordered_set</text>
</a>
</g>
</g>
<!-- Node8&#45;&gt;Node14 -->
<g id="edge14_Node000008_Node000014" class="edge">
<title>Node8&#45;&gt;Node14</title>
<g id="a_edge14_Node000008_Node000014"><a xlink:title=" ">
<path fill="none" stroke="#63b8ff" d="M884.52,-179.59C876.37,-172.01 864.69,-161.13 854.91,-152.02"/>
<polygon fill="#63b8ff" stroke="#63b8ff" points="857.42,-149.58 847.72,-145.33 852.65,-154.71 857.42,-149.58"/>
</a>
</g>
</g>
<!-- Node15 -->
<g id="Node000015" class="node">
<title>Node15</title>
<g id="a_Node000015"><a xlink:title=" ">
<polygon fill="#e0e0e0" stroke="#999999" points="584.38,-20 530.88,-20 530.88,0 584.38,0 584.38,-20"/>
<text text-anchor="middle" x="557.62" y="-6.5" font-family="Helvetica,sans-Serif" font-size="10.00">iostream</text>
</a>
</g>
</g>
<!-- Node8&#45;&gt;Node15 -->
<g id="edge16_Node000008_Node000015" class="edge">
<title>Node8&#45;&gt;Node15</title>
<g id="a_edge16_Node000008_Node000015"><a xlink:title=" ">
<path fill="none" stroke="#63b8ff" d="M863.72,-182.48C840.46,-176.16 809.19,-164.44 788.62,-144 758.41,-113.97 783.31,-83.32 750.62,-56 727.47,-36.65 645.41,-22.69 596.06,-15.82"/>
<polygon fill="#63b8ff" stroke="#63b8ff" points="596.74,-12.38 586.36,-14.5 595.81,-19.31 596.74,-12.38"/>
</a>
</g>
</g>
<!-- Node10 -->
<g id="Node000010" class="node">
<title>Node10</title>
<g id="a_Node000010"><a xlink:title=" ">
<polygon fill="#e0e0e0" stroke="#999999" points="925.5,-82 827.75,-82 827.75,-62 925.5,-62 925.5,-82"/>
<text text-anchor="middle" x="876.62" y="-68.5" font-family="Helvetica,sans-Serif" font-size="10.00">nlohmann/json.hpp</text>
</a>
</g>
</g>
<!-- Node9&#45;&gt;Node10 -->
<g id="edge10_Node000009_Node000010" class="edge">
<title>Node9&#45;&gt;Node10</title>
<g id="a_edge10_Node000009_Node000010"><a xlink:title=" ">
<path fill="none" stroke="#63b8ff" d="M941.59,-123.62C929.84,-114.47 911.71,-100.34 897.58,-89.33"/>
<polygon fill="#63b8ff" stroke="#63b8ff" points="899.8,-86.63 889.77,-83.24 895.5,-92.15 899.8,-86.63"/>
</a>
</g>
</g>
<!-- Node9&#45;&gt;Node11 -->
<g id="edge11_Node000009_Node000011" class="edge">
<title>Node9&#45;&gt;Node11</title>
<g id="a_edge11_Node000009_Node000011"><a xlink:title=" ">
<path fill="none" stroke="#63b8ff" d="M971.28,-123.62C989.44,-113.98 1017.98,-98.83 1039.11,-87.61"/>
<polygon fill="#63b8ff" stroke="#63b8ff" points="1040.57,-90.8 1047.76,-83.02 1037.28,-84.62 1040.57,-90.8"/>
</a>
</g>
</g>
<!-- Node12 -->
<g id="Node000012" class="node">
<title>Node12</title>
<g id="a_Node000012"><a xlink:title=" ">
<polygon fill="#e0e0e0" stroke="#999999" points="992.12,-82 943.12,-82 943.12,-62 992.12,-62 992.12,-82"/>
<text text-anchor="middle" x="967.62" y="-68.5" font-family="Helvetica,sans-Serif" font-size="10.00">fstream</text>
</a>
</g>
</g>
<!-- Node9&#45;&gt;Node12 -->
<g id="edge12_Node000009_Node000012" class="edge">
<title>Node9&#45;&gt;Node12</title>
<g id="a_edge12_Node000009_Node000012"><a xlink:title=" ">
<path fill="none" stroke="#63b8ff" d="M955.81,-123.62C957.71,-115.48 960.53,-103.39 962.94,-93.07"/>
<polygon fill="#63b8ff" stroke="#63b8ff" points="966.29,-94.12 965.15,-83.59 959.47,-92.53 966.29,-94.12"/>
</a>
</g>
</g>
<!-- Node17 -->
<g id="Node000017" class="node">
<title>Node17</title>
<g id="a_Node000017"><a xlink:href="../../df/d13/console__linux_8hpp.html" target="_top" xlink:title=" ">
<polygon fill="white" stroke="#666666" points="480.62,-144 386.62,-144 386.62,-124 480.62,-124 480.62,-144"/>
<text text-anchor="middle" x="433.62" y="-130.5" font-family="Helvetica,sans-Serif" font-size="10.00">console_linux.hpp</text>
</a>
</g>
</g>
<!-- Node16&#45;&gt;Node17 -->
<g id="edge18_Node000016_Node000017" class="edge">
<title>Node16&#45;&gt;Node17</title>
<g id="a_edge18_Node000016_Node000017"><a xlink:title=" ">
<path fill="none" stroke="#63b8ff" d="M681.22,-181.26C631.57,-171.99 548.05,-156.38 491.91,-145.89"/>
<polygon fill="#63b8ff" stroke="#63b8ff" points="492.67,-142.47 482.2,-144.08 491.39,-149.35 492.67,-142.47"/>
</a>
</g>
</g>
<!-- Node18 -->
<g id="Node000018" class="node">
<title>Node18</title>
<g id="a_Node000018"><a xlink:href="../../dd/d90/system_8hpp.html" target="_top" xlink:title=" ">
<polygon fill="white" stroke="#666666" points="592,-82 461.25,-82 461.25,-62 592,-62 592,-82"/>
<text text-anchor="middle" x="526.62" y="-68.5" font-family="Helvetica,sans-Serif" font-size="10.00">sokoban_core/system.hpp</text>
</a>
</g>
</g>
<!-- Node17&#45;&gt;Node18 -->
<g id="edge19_Node000017_Node000018" class="edge">
<title>Node17&#45;&gt;Node18</title>
<g id="a_edge19_Node000017_Node000018"><a xlink:title=" ">
<path fill="none" stroke="#63b8ff" d="M448.16,-123.62C462.76,-114.2 485.52,-99.52 502.78,-88.39"/>
<polygon fill="#63b8ff" stroke="#63b8ff" points="504.42,-91.49 510.92,-83.13 500.62,-85.61 504.42,-91.49"/>
</a>
</g>
</g>
<!-- Node19 -->
<g id="Node000019" class="node">
<title>Node19</title>
<g id="a_Node000019"><a xlink:title=" ">
<polygon fill="#e0e0e0" stroke="#999999" points="502.88,-20 446.38,-20 446.38,0 502.88,0 502.88,-20"/>
<text text-anchor="middle" x="474.62" y="-6.5" font-family="Helvetica,sans-Serif" font-size="10.00">termios.h</text>
</a>
</g>
</g>
<!-- Node17&#45;&gt;Node19 -->
<g id="edge30_Node000017_Node000019" class="edge">
<title>Node17&#45;&gt;Node19</title>
<g id="a_edge30_Node000017_Node000019"><a xlink:title=" ">
<path fill="none" stroke="#63b8ff" d="M435.24,-123.8C437.95,-109.17 443.98,-79.81 452.62,-56 455.77,-47.33 460.09,-38.13 464.06,-30.31"/>
<polygon fill="#63b8ff" stroke="#63b8ff" points="467.02,-32.21 468.59,-21.74 460.83,-28.94 467.02,-32.21"/>
</a>
</g>
</g>
<!-- Node20 -->
<g id="Node000020" class="node">
<title>Node20</title>
<g id="a_Node000020"><a xlink:href="../../d7/dff/key__definitions__linux_8hpp.html" target="_top" xlink:title=" ">
<polygon fill="white" stroke="#666666" points="742,-88 647.25,-88 647.25,-56 742,-56 742,-88"/>
<text text-anchor="start" x="655.25" y="-74.5" font-family="Helvetica,sans-Serif" font-size="10.00">tui/key_definitions</text>
<text text-anchor="middle" x="694.62" y="-62.5" font-family="Helvetica,sans-Serif" font-size="10.00">_linux.hpp</text>
</a>
</g>
</g>
<!-- Node17&#45;&gt;Node20 -->
<g id="edge22_Node000017_Node000020" class="edge">
<title>Node17&#45;&gt;Node20</title>
<g id="a_edge22_Node000017_Node000020"><a xlink:title=" ">
<path fill="none" stroke="#63b8ff" d="M476.99,-123.5C517.54,-114.56 579.75,-100.68 633.62,-88 634.44,-87.81 635.26,-87.61 636.09,-87.42"/>
<polygon fill="#63b8ff" stroke="#63b8ff" points="636.64,-90.88 645.56,-85.15 635.02,-84.08 636.64,-90.88"/>
</a>
</g>
</g>
<!-- Node21 -->
<g id="Node000021" class="node">
<title>Node21</title>
<g id="a_Node000021"><a xlink:title=" ">
<polygon fill="#e0e0e0" stroke="#999999" points="679.25,-20 634,-20 634,0 679.25,0 679.25,-20"/>
<text text-anchor="middle" x="656.62" y="-6.5" font-family="Helvetica,sans-Serif" font-size="10.00">cstdint</text>
</a>
</g>
</g>
<!-- Node17&#45;&gt;Node21 -->
<g id="edge31_Node000017_Node000021" class="edge">
<title>Node17&#45;&gt;Node21</title>
<g id="a_edge31_Node000017_Node000021"><a xlink:title=" ">
<path fill="none" stroke="#63b8ff" d="M481.09,-128.77C516.61,-123.68 565,-112.51 600.62,-88 621.84,-73.41 637.97,-48.06 647.35,-30.45"/>
<polygon fill="#63b8ff" stroke="#63b8ff" points="650.35,-32.28 651.73,-21.77 644.1,-29.12 650.35,-32.28"/>
</a>
</g>
</g>
<!-- Node22 -->
<g id="Node000022" class="node">
<title>Node22</title>
<g id="a_Node000022"><a xlink:title=" ">
<polygon fill="#e0e0e0" stroke="#999999" points="45.25,-82 0,-82 0,-62 45.25,-62 45.25,-82"/>
<text text-anchor="middle" x="22.62" y="-68.5" font-family="Helvetica,sans-Serif" font-size="10.00">stdio.h</text>
</a>
</g>
</g>
<!-- Node17&#45;&gt;Node22 -->
<g id="edge24_Node000017_Node000022" class="edge">
<title>Node17&#45;&gt;Node22</title>
<g id="a_edge24_Node000017_Node000022"><a xlink:title=" ">
<path fill="none" stroke="#63b8ff" d="M386.29,-125.23C383.36,-124.8 380.45,-124.38 377.62,-124 234.06,-104.5 192.84,-128.13 53.62,-88 52.45,-87.66 51.26,-87.28 50.07,-86.86"/>
<polygon fill="#63b8ff" stroke="#63b8ff" points="51.56,-83.7 40.99,-83.07 48.87,-90.16 51.56,-83.7"/>
</a>
</g>
</g>
<!-- Node23 -->
<g id="Node000023" class="node">
<title>Node23</title>
<g id="a_Node000023"><a xlink:title=" ">
<polygon fill="#e0e0e0" stroke="#999999" points="110.38,-82 62.88,-82 62.88,-62 110.38,-62 110.38,-82"/>
<text text-anchor="middle" x="86.62" y="-68.5" font-family="Helvetica,sans-Serif" font-size="10.00">stdlib.h</text>
</a>
</g>
</g>
<!-- Node17&#45;&gt;Node23 -->
<g id="edge25_Node000017_Node000023" class="edge">
<title>Node17&#45;&gt;Node23</title>
<g id="a_edge25_Node000017_Node000023"><a xlink:title=" ">
<path fill="none" stroke="#63b8ff" d="M386.28,-125.32C383.35,-124.87 380.45,-124.42 377.62,-124 263.13,-106.81 230.81,-120.29 119.62,-88 118.23,-87.6 116.82,-87.14 115.41,-86.65"/>
<polygon fill="#63b8ff" stroke="#63b8ff" points="116.76,-83.42 106.17,-82.94 114.15,-89.92 116.76,-83.42"/>
</a>
</g>
</g>
<!-- Node24 -->
<g id="Node000024" class="node">
<title>Node24</title>
<g id="a_Node000024"><a xlink:title=" ">
<polygon fill="#e0e0e0" stroke="#999999" points="190.5,-82 128.75,-82 128.75,-62 190.5,-62 190.5,-82"/>
<text text-anchor="middle" x="159.62" y="-68.5" font-family="Helvetica,sans-Serif" font-size="10.00">sys/time.h</text>
</a>
</g>
</g>
<!-- Node17&#45;&gt;Node24 -->
<g id="edge26_Node000017_Node000024" class="edge">
<title>Node17&#45;&gt;Node24</title>
<g id="a_edge26_Node000017_Node000024"><a xlink:title=" ">
<path fill="none" stroke="#63b8ff" d="M386.18,-124.94C328.07,-114.9 233.13,-97.85 198.62,-88 196.67,-87.44 194.67,-86.83 192.67,-86.17"/>
<polygon fill="#63b8ff" stroke="#63b8ff" points="194.1,-82.96 183.5,-82.92 191.76,-89.56 194.1,-82.96"/>
</a>
</g>
</g>
<!-- Node25 -->
<g id="Node000025" class="node">
<title>Node25</title>
<g id="a_Node000025"><a xlink:title=" ">
<polygon fill="#e0e0e0" stroke="#999999" points="275.12,-82 208.12,-82 208.12,-62 275.12,-62 275.12,-82"/>
<text text-anchor="middle" x="241.62" y="-68.5" font-family="Helvetica,sans-Serif" font-size="10.00">sys/types.h</text>
</a>
</g>
</g>
<!-- Node17&#45;&gt;Node25 -->
<g id="edge27_Node000017_Node000025" class="edge">
<title>Node17&#45;&gt;Node25</title>
<g id="a_edge27_Node000017_Node000025"><a xlink:title=" ">
<path fill="none" stroke="#63b8ff" d="M400.95,-123.56C370.68,-114.72 324.46,-100.96 284.62,-88 282.68,-87.37 280.69,-86.71 278.68,-86.04"/>
<polygon fill="#63b8ff" stroke="#63b8ff" points="279.97,-82.78 269.38,-82.87 277.71,-89.41 279.97,-82.78"/>
</a>
</g>
</g>
<!-- Node26 -->
<g id="Node000026" class="node">
<title>Node26</title>
<g id="a_Node000026"><a xlink:title=" ">
<polygon fill="#e0e0e0" stroke="#999999" points="343.88,-82 293.38,-82 293.38,-62 343.88,-62 343.88,-82"/>
<text text-anchor="middle" x="318.62" y="-68.5" font-family="Helvetica,sans-Serif" font-size="10.00">unistd.h</text>
</a>
</g>
</g>
<!-- Node17&#45;&gt;Node26 -->
<g id="edge28_Node000017_Node000026" class="edge">
<title>Node17&#45;&gt;Node26</title>
<g id="a_edge28_Node000017_Node000026"><a xlink:title=" ">
<path fill="none" stroke="#63b8ff" d="M415.66,-123.62C397.17,-113.98 368.13,-98.83 346.63,-87.61"/>
<polygon fill="#63b8ff" stroke="#63b8ff" points="348.29,-84.53 337.81,-83.01 345.06,-90.74 348.29,-84.53"/>
</a>
</g>
</g>
<!-- Node27 -->
<g id="Node000027" class="node">
<title>Node27</title>
<g id="a_Node000027"><a xlink:title=" ">
<polygon fill="#e0e0e0" stroke="#999999" points="405.12,-82 362.12,-82 362.12,-62 405.12,-62 405.12,-82"/>
<text text-anchor="middle" x="383.62" y="-68.5" font-family="Helvetica,sans-Serif" font-size="10.00">fcntl.h</text>
</a>
</g>
</g>
<!-- Node17&#45;&gt;Node27 -->
<g id="edge29_Node000017_Node000027" class="edge">
<title>Node17&#45;&gt;Node27</title>
<g id="a_edge29_Node000017_Node000027"><a xlink:title=" ">
<path fill="none" stroke="#63b8ff" d="M425.81,-123.62C418.5,-114.86 407.4,-101.53 398.42,-90.75"/>
<polygon fill="#63b8ff" stroke="#63b8ff" points="401.28,-88.72 392.19,-83.28 395.9,-93.2 401.28,-88.72"/>
</a>
</g>
</g>
<!-- Node18&#45;&gt;Node15 -->
<g id="edge21_Node000018_Node000015" class="edge">
<title>Node18&#45;&gt;Node15</title>
<g id="a_edge21_Node000018_Node000015"><a xlink:title=" ">
<path fill="none" stroke="#63b8ff" d="M531.47,-61.62C535.82,-53.21 542.33,-40.6 547.77,-30.07"/>
<polygon fill="#63b8ff" stroke="#63b8ff" points="550.74,-31.95 552.22,-21.46 544.52,-28.74 550.74,-31.95"/>
</a>
</g>
</g>
<!-- Node18&#45;&gt;Node19 -->
<g id="edge20_Node000018_Node000019" class="edge">
<title>Node18&#45;&gt;Node19</title>
<g id="a_edge20_Node000018_Node000019"><a xlink:title=" ">
<path fill="none" stroke="#63b8ff" d="M518.5,-61.62C510.9,-52.86 499.35,-39.53 490.01,-28.75"/>
<polygon fill="#63b8ff" stroke="#63b8ff" points="492.71,-26.52 483.51,-21.26 487.42,-31.11 492.71,-26.52"/>
</a>
</g>
</g>
<!-- Node20&#45;&gt;Node21 -->
<g id="edge23_Node000020_Node000021" class="edge">
<title>Node20&#45;&gt;Node21</title>
<g id="a_edge23_Node000020_Node000021"><a xlink:title=" ">
<path fill="none" stroke="#63b8ff" d="M684.84,-55.55C679.89,-47.74 673.84,-38.19 668.62,-29.94"/>
<polygon fill="#63b8ff" stroke="#63b8ff" points="671.7,-28.26 663.39,-21.69 665.79,-32.01 671.7,-28.26"/>
</a>
</g>
</g>
</g>
</svg>

<g id="navigator" transform="translate(0 0)" fill="#404254">
  <rect fill="#f2f5e9" fill-opacity="0.5" stroke="#606060" stroke-width=".5" x="0" y="0" width="60" height="60"/>
  <use id="zoomplus" xlink:href="#zoomPlus" x="17" y="9" onmousedown="handleZoom(evt,'in')"/>
  <use id="zoomminus" xlink:href="#zoomMin" x="42" y="9" onmousedown="handleZoom(evt,'out')"/>
  <use id="reset" xlink:href="#resetDef" x="30" y="36" onmousedown="handleReset()"/>
   <use id="arrowup" xlink:href="#arrowUp" x="0" y="0" onmousedown="handlePan(0,-1)"/>
  <use id="arrowright" xlink:href="#arrowRight" x="0" y="0" onmousedown="handlePan(1,0)"/>
  <use id="arrowdown" xlink:href="#arrowDown" x="0" y="0" onmousedown="handlePan(0,1)"/>
  <use id="arrowleft" xlink:href="#arrowLeft" x="0" y="0" onmousedown="handlePan(-1,0)"/>
</g>
<svg viewBox="0 0 15 15" width="100%" height="30px" preserveAspectRatio="xMaxYMin meet">
 <g id="arrow_out" transform="scale(0.3 0.3)">
  <a xlink:href="mod__dynamic__library_8hpp__incl_org.svg" target="_base">
   <rect id="button" ry="5" rx="5" y="6" x="6" height="38" width="38"
        fill="#f2f5e9" fill-opacity="0.5" stroke="#606060" stroke-width="1.0"/>
   <path id="arrow"
     d="M 11.500037,31.436501 C 11.940474,20.09759 22.043105,11.32322 32.158766,21.979434 L 37.068811,17.246167 C 37.068811,17.246167 37.088388,32 37.088388,32 L 22.160133,31.978069 C 22.160133,31.978069 26.997745,27.140456 26.997745,27.140456 C 18.528582,18.264221 13.291696,25.230495 11.500037,31.436501 z"
     style="fill:#404040;"/>
  </a>
 </g>
</svg>

<style type='text/css'>
<![CDATA[
[data-mouse-over-selected='false'] { opacity: 0.7; }
[data-mouse-over-selected='true']  { opacity: 1.0; }
]]>
</style>
<script type="application/ecmascript"><![CDATA[
document.addEventListener('DOMContentLoaded', (event) => {
  highlightEdges();
  highlightAdjacentNodes();
});
]]></script>
</svg>
