<?xml version="1.0" encoding="UTF-8" standalone="no"?>
<!DOCTYPE svg PUBLIC "-//W3C//DTD SVG 1.1//EN"
 "http://www.w3.org/Graphics/SVG/1.1/DTD/svg11.dtd">
<!-- Generated by graphviz version 12.1.1 (20240910.0053)
 -->
<!-- Title: sokoban::sbg::BaseGame Pages: 1 -->
<svg width="131pt" height="340pt"
 viewBox="0.00 0.00 131.00 340.00" xmlns="http://www.w3.org/2000/svg" xmlns:xlink="http://www.w3.org/1999/xlink">
<g id="graph0" class="graph" transform="scale(1 1) rotate(0) translate(4 336)">
<title>sokoban::sbg::BaseGame</title>
<!-- Node1 -->
<g id="Node000001" class="node">
<title>Node1</title>
<g id="a_Node000001"><a xlink:title=" ">
<polygon fill="#999999" stroke="none" points="123,-228 0,-228 0,0 123,0 123,-228"/>
<text text-anchor="start" x="4.88" y="-214.5" font-family="Helvetica,sans-Serif" font-size="10.00">sokoban::sbg::BaseGame</text>
<text text-anchor="start" x="60" y="-198.5" font-family="Helvetica,sans-Serif" font-size="10.00"> </text>
<text text-anchor="start" x="10.5" y="-182.5" font-family="Helvetica,sans-Serif" font-size="10.00">+</text>
<text text-anchor="start" x="27" y="-182.5" font-family="Helvetica,sans-Serif" font-size="10.00">BaseGame()</text>
<text text-anchor="start" x="10.5" y="-166.5" font-family="Helvetica,sans-Serif" font-size="10.00">+</text>
<text text-anchor="start" x="27" y="-166.5" font-family="Helvetica,sans-Serif" font-size="10.00">BaseGame()</text>
<text text-anchor="start" x="10.5" y="-150.5" font-family="Helvetica,sans-Serif" font-size="10.00">+</text>
<text text-anchor="start" x="27" y="-150.5" font-family="Helvetica,sans-Serif" font-size="10.00">gameState()</text>
<text text-anchor="start" x="10.5" y="-134.5" font-family="Helvetica,sans-Serif" font-size="10.00">+</text>
<text text-anchor="start" x="27" y="-134.5" font-family="Helvetica,sans-Serif" font-size="10.00">setMap()</text>
<text text-anchor="start" x="10.5" y="-118.5" font-family="Helvetica,sans-Serif" font-size="10.00">+</text>
<text text-anchor="start" x="27" y="-118.5" font-family="Helvetica,sans-Serif" font-size="10.00">setPlayerCoords()</text>
<text text-anchor="start" x="10.5" y="-102.5" font-family="Helvetica,sans-Serif" font-size="10.00">+</text>
<text text-anchor="start" x="27" y="-102.5" font-family="Helvetica,sans-Serif" font-size="10.00">moveObject()</text>
<text text-anchor="start" x="10.5" y="-86.5" font-family="Helvetica,sans-Serif" font-size="10.00">+</text>
<text text-anchor="start" x="27" y="-86.5" font-family="Helvetica,sans-Serif" font-size="10.00">tileIsMovable()</text>
<text text-anchor="start" x="10.5" y="-70.5" font-family="Helvetica,sans-Serif" font-size="10.00">+</text>
<text text-anchor="start" x="27" y="-70.5" font-family="Helvetica,sans-Serif" font-size="10.00">moveObject()</text>
<text text-anchor="start" x="10.5" y="-54.5" font-family="Helvetica,sans-Serif" font-size="10.00">+</text>
<text text-anchor="start" x="27" y="-54.5" font-family="Helvetica,sans-Serif" font-size="10.00">movePlayer()</text>
<text text-anchor="start" x="10.5" y="-38.5" font-family="Helvetica,sans-Serif" font-size="10.00">+</text>
<text text-anchor="start" x="27" y="-38.5" font-family="Helvetica,sans-Serif" font-size="10.00">map()</text>
<text text-anchor="start" x="10.5" y="-22.5" font-family="Helvetica,sans-Serif" font-size="10.00">+</text>
<text text-anchor="start" x="27" y="-22.5" font-family="Helvetica,sans-Serif" font-size="10.00">tile()</text>
<text text-anchor="start" x="10.5" y="-6.5" font-family="Helvetica,sans-Serif" font-size="10.00">+</text>
<text text-anchor="start" x="27" y="-6.5" font-family="Helvetica,sans-Serif" font-size="10.00">playerCoords()</text>
<polygon fill="#666666" stroke="#666666" points="0,-210 0,-210 123,-210 123,-210 0,-210"/>
<polygon fill="#666666" stroke="#666666" points="0,-194 0,-194 123,-194 123,-194 0,-194"/>
<polygon fill="none" stroke="#666666" points="0,0 0,-228 123,-228 123,0 0,0"/>
</a>
</g>
</g>
<!-- Node2 -->
<g id="Node000002" class="node">
<title>Node2</title>
<g id="a_Node000002"><a xlink:href="../../dc/d80/classsokoban_1_1_game.html" target="_top" xlink:title=" ">
<polygon fill="white" stroke="none" points="101,-332 22,-332 22,-264 101,-264 101,-332"/>
<text text-anchor="start" x="27" y="-318.5" font-family="Helvetica,sans-Serif" font-size="10.00">sokoban::Game</text>
<text text-anchor="start" x="60" y="-302.5" font-family="Helvetica,sans-Serif" font-size="10.00"> </text>
<text text-anchor="start" x="31.5" y="-286.5" font-family="Helvetica,sans-Serif" font-size="10.00">+</text>
<text text-anchor="start" x="47" y="-286.5" font-family="Helvetica,sans-Serif" font-size="10.00">Game()</text>
<text text-anchor="start" x="31.5" y="-270.5" font-family="Helvetica,sans-Serif" font-size="10.00">+</text>
<text text-anchor="start" x="47" y="-270.5" font-family="Helvetica,sans-Serif" font-size="10.00">~Game()</text>
<polygon fill="#666666" stroke="#666666" points="22,-314 22,-314 101,-314 101,-314 22,-314"/>
<polygon fill="#666666" stroke="#666666" points="22,-298 22,-298 101,-298 101,-298 22,-298"/>
<polygon fill="none" stroke="#666666" points="22,-264 22,-332 101,-332 101,-264 22,-264"/>
</a>
</g>
</g>
<!-- Node2&#45;&gt;Node1 -->
<g id="edge1_Node000001_Node000002" class="edge">
<title>Node2&#45;&gt;Node1</title>
<g id="a_edge1_Node000001_Node000002"><a xlink:title=" ">
<path fill="none" stroke="#63b8ff" d="M61.5,-252.73C61.5,-244.93 61.5,-236.51 61.5,-227.8"/>
<polygon fill="none" stroke="#63b8ff" points="58,-252.53 61.5,-262.53 65,-252.53 58,-252.53"/>
</a>
</g>
</g>
</g>
</svg>
