<?xml version="1.0" encoding="UTF-8" standalone="no"?>
<!DOCTYPE svg PUBLIC "-//W3C//DTD SVG 1.1//EN"
 "http://www.w3.org/Graphics/SVG/1.1/DTD/svg11.dtd">
<!-- Generated by graphviz version 12.1.1 (20240910.0053)
 -->
<!-- Title: lib_sokoban_core/include/sokoban_core/system.hpp Pages: 1 -->
<svg width="696pt" height="652pt"
 viewBox="0.00 0.00 695.75 652.00" xmlns="http://www.w3.org/2000/svg" xmlns:xlink="http://www.w3.org/1999/xlink">
<g id="graph0" class="graph" transform="scale(1 1) rotate(0) translate(4 648)">
<title>lib_sokoban_core/include/sokoban_core/system.hpp</title>
<!-- Node1 -->
<g id="Node000001" class="node">
<title>Node1</title>
<g id="a_Node000001"><a xlink:title=" ">
<polygon fill="#999999" stroke="#666666" points="600.88,-644 467.12,-644 467.12,-612 600.88,-612 600.88,-644"/>
<text text-anchor="start" x="475.12" y="-630.5" font-family="Helvetica,sans-Serif" font-size="10.00">lib_sokoban_core/include</text>
<text text-anchor="middle" x="534" y="-618.5" font-family="Helvetica,sans-Serif" font-size="10.00">/sokoban_core/system.hpp</text>
</a>
</g>
</g>
<!-- Node2 -->
<g id="Node000002" class="node">
<title>Node2</title>
<g id="a_Node000002"><a xlink:href="../../df/d13/console__linux_8hpp.html" target="_top" xlink:title=" ">
<polygon fill="white" stroke="#666666" points="377.75,-576 252.25,-576 252.25,-544 377.75,-544 377.75,-576"/>
<text text-anchor="start" x="260.25" y="-562.5" font-family="Helvetica,sans-Serif" font-size="10.00">lib_sokoban_core/include</text>
<text text-anchor="middle" x="315" y="-550.5" font-family="Helvetica,sans-Serif" font-size="10.00">/tui/console_linux.hpp</text>
</a>
</g>
</g>
<!-- Node1&#45;&gt;Node2 -->
<g id="edge1_Node000001_Node000002" class="edge">
<title>Node1&#45;&gt;Node2</title>
<g id="a_edge1_Node000001_Node000002"><a xlink:title=" ">
<path fill="none" stroke="#63b8ff" d="M471.66,-608.21C438.37,-598.18 397.88,-585.98 366.4,-576.49"/>
<polygon fill="#63b8ff" stroke="#63b8ff" points="470.62,-611.55 481.21,-611.09 472.64,-604.85 470.62,-611.55"/>
</a>
</g>
</g>
<!-- Node13 -->
<g id="Node000013" class="node">
<title>Node13</title>
<g id="a_Node000013"><a xlink:href="../../df/d0a/main_8cpp.html" target="_top" xlink:title=" ">
<polygon fill="white" stroke="#666666" points="514.38,-230 389.62,-230 389.62,-210 514.38,-210 514.38,-230"/>
<text text-anchor="middle" x="452" y="-216.5" font-family="Helvetica,sans-Serif" font-size="10.00">sokoban_driver/main.cpp</text>
</a>
</g>
</g>
<!-- Node1&#45;&gt;Node13 -->
<g id="edge23_Node000001_Node000013" class="edge">
<title>Node1&#45;&gt;Node13</title>
<g id="a_edge23_Node000001_Node000013"><a xlink:title=" ">
<path fill="none" stroke="#63b8ff" d="M534,-600.52C534,-573.49 534,-530.32 534,-493 534,-493 534,-493 534,-355 534,-317.16 535.03,-304.11 515,-272 503.68,-253.85 483.59,-239.27 469.14,-230.43"/>
<polygon fill="#63b8ff" stroke="#63b8ff" points="530.5,-600.21 534,-610.21 537.5,-600.21 530.5,-600.21"/>
</a>
</g>
</g>
<!-- Node15 -->
<g id="Node000015" class="node">
<title>Node15</title>
<g id="a_Node000015"><a xlink:href="../../da/d21/console__win_8hpp.html" target="_top" xlink:title=" ">
<polygon fill="white" stroke="#666666" points="687.75,-576 562.25,-576 562.25,-544 687.75,-544 687.75,-576"/>
<text text-anchor="start" x="570.25" y="-562.5" font-family="Helvetica,sans-Serif" font-size="10.00">lib_sokoban_core/include</text>
<text text-anchor="middle" x="625" y="-550.5" font-family="Helvetica,sans-Serif" font-size="10.00">/tui/console_win.hpp</text>
</a>
</g>
</g>
<!-- Node1&#45;&gt;Node15 -->
<g id="edge22_Node000001_Node000015" class="edge">
<title>Node1&#45;&gt;Node15</title>
<g id="a_edge22_Node000001_Node000015"><a xlink:title=" ">
<path fill="none" stroke="#63b8ff" d="M564.13,-605.15C577.08,-595.75 591.91,-585 603.69,-576.45"/>
<polygon fill="#63b8ff" stroke="#63b8ff" points="562.37,-602.1 556.33,-610.8 566.48,-607.77 562.37,-602.1"/>
</a>
</g>
</g>
<!-- Node3 -->
<g id="Node000003" class="node">
<title>Node3</title>
<g id="a_Node000003"><a xlink:href="../../d5/ddc/console_8hpp.html" target="_top" xlink:title=" ">
<polygon fill="white" stroke="#666666" points="297.75,-508 172.25,-508 172.25,-476 297.75,-476 297.75,-508"/>
<text text-anchor="start" x="180.25" y="-494.5" font-family="Helvetica,sans-Serif" font-size="10.00">lib_sokoban_core/include</text>
<text text-anchor="middle" x="235" y="-482.5" font-family="Helvetica,sans-Serif" font-size="10.00">/tui/console.hpp</text>
</a>
</g>
</g>
<!-- Node2&#45;&gt;Node3 -->
<g id="edge2_Node000002_Node000003" class="edge">
<title>Node2&#45;&gt;Node3</title>
<g id="a_edge2_Node000002_Node000003"><a xlink:title=" ">
<path fill="none" stroke="#63b8ff" d="M287.85,-536.6C276.62,-527.34 263.89,-516.83 253.73,-508.45"/>
<polygon fill="#63b8ff" stroke="#63b8ff" points="285.34,-539.07 295.28,-542.73 289.79,-533.67 285.34,-539.07"/>
</a>
</g>
</g>
<!-- Node4 -->
<g id="Node000004" class="node">
<title>Node4</title>
<g id="a_Node000004"><a xlink:href="../../d5/ddc/base__session__context_8hpp.html" target="_top" xlink:title=" ">
<polygon fill="white" stroke="#666666" points="200.62,-100 65.38,-100 65.38,-68 200.62,-68 200.62,-100"/>
<text text-anchor="start" x="73.38" y="-86.5" font-family="Helvetica,sans-Serif" font-size="10.00">lib_base_game/include</text>
<text text-anchor="middle" x="133" y="-74.5" font-family="Helvetica,sans-Serif" font-size="10.00">/base_session_context.hpp</text>
</a>
</g>
</g>
<!-- Node3&#45;&gt;Node4 -->
<g id="edge3_Node000003_Node000004" class="edge">
<title>Node3&#45;&gt;Node4</title>
<g id="a_edge3_Node000003_Node000004"><a xlink:title=" ">
<path fill="none" stroke="#63b8ff" d="M160.76,-480.33C91.9,-465.74 0,-432.19 0,-357 0,-357 0,-357 0,-219 0,-178.43 10.23,-165.58 38,-136 52.6,-120.44 73.04,-108.62 91.22,-100.3"/>
<polygon fill="#63b8ff" stroke="#63b8ff" points="160.05,-483.75 170.54,-482.29 161.43,-476.89 160.05,-483.75"/>
</a>
</g>
</g>
<!-- Node7 -->
<g id="Node000007" class="node">
<title>Node7</title>
<g id="a_Node000007"><a xlink:href="../../da/d4c/session__context_8hpp.html" target="_top" xlink:title=" ">
<polygon fill="white" stroke="#666666" points="321.38,-440 148.62,-440 148.62,-408 321.38,-408 321.38,-440"/>
<text text-anchor="start" x="156.62" y="-426.5" font-family="Helvetica,sans-Serif" font-size="10.00">lib_sokoban_core/include</text>
<text text-anchor="middle" x="235" y="-414.5" font-family="Helvetica,sans-Serif" font-size="10.00">/sokoban_core/session_context.hpp</text>
</a>
</g>
</g>
<!-- Node3&#45;&gt;Node7 -->
<g id="edge6_Node000003_Node000007" class="edge">
<title>Node3&#45;&gt;Node7</title>
<g id="a_edge6_Node000003_Node000007"><a xlink:title=" ">
<path fill="none" stroke="#63b8ff" d="M235,-464.31C235,-456.12 235,-447.38 235,-440.22"/>
<polygon fill="#63b8ff" stroke="#63b8ff" points="231.5,-464.18 235,-474.18 238.5,-464.18 231.5,-464.18"/>
</a>
</g>
</g>
<!-- Node5 -->
<g id="Node000005" class="node">
<title>Node5</title>
<g id="a_Node000005"><a xlink:href="../../d0/d8e/base__game__action_8cpp.html" target="_top" xlink:title=" ">
<polygon fill="white" stroke="#666666" points="201.75,-32 82.25,-32 82.25,0 201.75,0 201.75,-32"/>
<text text-anchor="start" x="90.25" y="-18.5" font-family="Helvetica,sans-Serif" font-size="10.00">lib_base_game/include</text>
<text text-anchor="middle" x="142" y="-6.5" font-family="Helvetica,sans-Serif" font-size="10.00">/base_game_action.cpp</text>
</a>
</g>
</g>
<!-- Node4&#45;&gt;Node5 -->
<g id="edge4_Node000004_Node000005" class="edge">
<title>Node4&#45;&gt;Node5</title>
<g id="a_edge4_Node000004_Node000005"><a xlink:title=" ">
<path fill="none" stroke="#63b8ff" d="M136.64,-56.31C137.76,-48.12 138.95,-39.38 139.92,-32.22"/>
<polygon fill="#63b8ff" stroke="#63b8ff" points="133.18,-55.81 135.29,-66.19 140.11,-56.76 133.18,-55.81"/>
</a>
</g>
</g>
<!-- Node6 -->
<g id="Node000006" class="node">
<title>Node6</title>
<g id="a_Node000006"><a xlink:href="../../db/db9/lib__base__game_2include_2mod_8hpp.html" target="_top" xlink:title=" ">
<polygon fill="white" stroke="#666666" points="351.5,-32 236.5,-32 236.5,0 351.5,0 351.5,-32"/>
<text text-anchor="start" x="244.5" y="-18.5" font-family="Helvetica,sans-Serif" font-size="10.00">lib_base_game/include</text>
<text text-anchor="middle" x="294" y="-6.5" font-family="Helvetica,sans-Serif" font-size="10.00">/mod.hpp</text>
</a>
</g>
</g>
<!-- Node4&#45;&gt;Node6 -->
<g id="edge5_Node000004_Node000006" class="edge">
<title>Node4&#45;&gt;Node6</title>
<g id="a_edge5_Node000004_Node000006"><a xlink:title=" ">
<path fill="none" stroke="#63b8ff" d="M181.08,-63.29C205.11,-53.44 233.78,-41.69 256.21,-32.49"/>
<polygon fill="#63b8ff" stroke="#63b8ff" points="180.07,-59.92 172.15,-66.95 182.73,-66.4 180.07,-59.92"/>
</a>
</g>
</g>
<!-- Node7&#45;&gt;Node4 -->
<g id="edge7_Node000007_Node000004" class="edge">
<title>Node7&#45;&gt;Node4</title>
<g id="a_edge7_Node000007_Node000004"><a xlink:title=" ">
<path fill="none" stroke="#63b8ff" d="M150.82,-404.02C129.49,-396.47 107.65,-386.12 90,-372 56.01,-344.81 38,-332.53 38,-289 38,-289 38,-289 38,-219 38,-181.06 36.42,-167.21 58,-136 68.48,-120.85 85.05,-108.89 99.95,-100.38"/>
<polygon fill="#63b8ff" stroke="#63b8ff" points="149.53,-407.28 160.13,-407.12 151.75,-400.64 149.53,-407.28"/>
</a>
</g>
</g>
<!-- Node7&#45;&gt;Node6 -->
<g id="edge8_Node000007_Node000006" class="edge">
<title>Node7&#45;&gt;Node6</title>
<g id="a_edge8_Node000007_Node000006"><a xlink:title=" ">
<path fill="none" stroke="#63b8ff" d="M253.17,-398.51C270.5,-372.67 294,-330.07 294,-289 294,-289 294,-289 294,-151 294,-107.96 294,-57.15 294,-32.27"/>
<polygon fill="#63b8ff" stroke="#63b8ff" points="250.35,-396.42 247.52,-406.63 256.1,-400.42 250.35,-396.42"/>
</a>
</g>
</g>
<!-- Node8 -->
<g id="Node000008" class="node">
<title>Node8</title>
<g id="a_Node000008"><a xlink:href="../../d1/dab/game__action_8hpp.html" target="_top" xlink:title=" ">
<polygon fill="white" stroke="#666666" points="255.5,-372 98.5,-372 98.5,-340 255.5,-340 255.5,-372"/>
<text text-anchor="start" x="106.5" y="-358.5" font-family="Helvetica,sans-Serif" font-size="10.00">lib_sokoban_core/include</text>
<text text-anchor="middle" x="177" y="-346.5" font-family="Helvetica,sans-Serif" font-size="10.00">/sokoban_core/game_action.hpp</text>
</a>
</g>
</g>
<!-- Node7&#45;&gt;Node8 -->
<g id="edge9_Node000007_Node000008" class="edge">
<title>Node7&#45;&gt;Node8</title>
<g id="a_edge9_Node000007_Node000008"><a xlink:title=" ">
<path fill="none" stroke="#63b8ff" d="M214.04,-399.15C206.15,-390.17 197.39,-380.21 190.38,-372.22"/>
<polygon fill="#63b8ff" stroke="#63b8ff" points="211.32,-401.35 220.55,-406.56 216.58,-396.73 211.32,-401.35"/>
</a>
</g>
</g>
<!-- Node12 -->
<g id="Node000012" class="node">
<title>Node12</title>
<g id="a_Node000012"><a xlink:href="../../d7/d87/lib__sokoban__core_2include_2sokoban__core_2mod_8hpp.html" target="_top" xlink:title=" ">
<polygon fill="white" stroke="#666666" points="447.75,-372 322.25,-372 322.25,-340 447.75,-340 447.75,-372"/>
<text text-anchor="start" x="330.25" y="-358.5" font-family="Helvetica,sans-Serif" font-size="10.00">lib_sokoban_core/include</text>
<text text-anchor="middle" x="385" y="-346.5" font-family="Helvetica,sans-Serif" font-size="10.00">/sokoban_core/mod.hpp</text>
</a>
</g>
</g>
<!-- Node7&#45;&gt;Node12 -->
<g id="edge17_Node000007_Node000012" class="edge">
<title>Node7&#45;&gt;Node12</title>
<g id="a_edge17_Node000007_Node000012"><a xlink:title=" ">
<path fill="none" stroke="#63b8ff" d="M280.7,-402.89C302.9,-393.12 329.17,-381.56 349.79,-372.49"/>
<polygon fill="#63b8ff" stroke="#63b8ff" points="279.3,-399.69 271.55,-406.92 282.12,-406.09 279.3,-399.69"/>
</a>
</g>
</g>
<!-- Node9 -->
<g id="Node000009" class="node">
<title>Node9</title>
<g id="a_Node000009"><a xlink:href="../../d9/dc0/base__game_8hpp.html" target="_top" xlink:title=" ">
<polygon fill="white" stroke="#666666" points="181.5,-168 66.5,-168 66.5,-136 181.5,-136 181.5,-168"/>
<text text-anchor="start" x="74.5" y="-154.5" font-family="Helvetica,sans-Serif" font-size="10.00">lib_base_game/include</text>
<text text-anchor="middle" x="124" y="-142.5" font-family="Helvetica,sans-Serif" font-size="10.00">/base_game.hpp</text>
</a>
</g>
</g>
<!-- Node8&#45;&gt;Node9 -->
<g id="edge10_Node000008_Node000009" class="edge">
<title>Node8&#45;&gt;Node9</title>
<g id="a_edge10_Node000008_Node000009"><a xlink:title=" ">
<path fill="none" stroke="#63b8ff" d="M137.66,-333.55C126.49,-325.66 115.37,-315.72 108,-304 84.13,-266.07 83.54,-247.33 95,-204 98.44,-191 106.04,-177.85 112.6,-168.16"/>
<polygon fill="#63b8ff" stroke="#63b8ff" points="135.44,-336.28 145.71,-338.87 139.3,-330.44 135.44,-336.28"/>
</a>
</g>
</g>
<!-- Node10 -->
<g id="Node000010" class="node">
<title>Node10</title>
<g id="a_Node000010"><a xlink:href="../../dc/d77/base__game__action_8hpp.html" target="_top" xlink:title=" ">
<polygon fill="white" stroke="#666666" points="236.75,-304 117.25,-304 117.25,-272 236.75,-272 236.75,-304"/>
<text text-anchor="start" x="125.25" y="-290.5" font-family="Helvetica,sans-Serif" font-size="10.00">lib_base_game/include</text>
<text text-anchor="middle" x="177" y="-278.5" font-family="Helvetica,sans-Serif" font-size="10.00">/base_game_action.hpp</text>
</a>
</g>
</g>
<!-- Node8&#45;&gt;Node10 -->
<g id="edge12_Node000008_Node000010" class="edge">
<title>Node8&#45;&gt;Node10</title>
<g id="a_edge12_Node000008_Node000010"><a xlink:title=" ">
<path fill="none" stroke="#63b8ff" d="M177,-328.31C177,-320.12 177,-311.38 177,-304.22"/>
<polygon fill="#63b8ff" stroke="#63b8ff" points="173.5,-328.18 177,-338.18 180.5,-328.18 173.5,-328.18"/>
</a>
</g>
</g>
<!-- Node9&#45;&gt;Node4 -->
<g id="edge11_Node000009_Node000004" class="edge">
<title>Node9&#45;&gt;Node4</title>
<g id="a_edge11_Node000009_Node000004"><a xlink:title=" ">
<path fill="none" stroke="#63b8ff" d="M127.64,-124.31C128.76,-116.12 129.95,-107.38 130.92,-100.22"/>
<polygon fill="#63b8ff" stroke="#63b8ff" points="124.18,-123.81 126.29,-134.19 131.11,-124.76 124.18,-123.81"/>
</a>
</g>
</g>
<!-- Node10&#45;&gt;Node5 -->
<g id="edge16_Node000010_Node000005" class="edge">
<title>Node10&#45;&gt;Node5</title>
<g id="a_edge16_Node000010_Node000005"><a xlink:title=" ">
<path fill="none" stroke="#63b8ff" d="M213.4,-264.61C222.85,-256.83 231.83,-247.19 237,-236 242.97,-223.09 238.39,-218.15 237,-204 230.97,-142.67 242.82,-120.16 210,-68 200.65,-53.14 185.3,-41.07 171.54,-32.41"/>
<polygon fill="#63b8ff" stroke="#63b8ff" points="211.36,-261.76 205.5,-270.59 215.58,-267.34 211.36,-261.76"/>
</a>
</g>
</g>
<!-- Node11 -->
<g id="Node000011" class="node">
<title>Node11</title>
<g id="a_Node000011"><a xlink:href="../../db/d29/base__action__factory_8hpp.html" target="_top" xlink:title=" ">
<polygon fill="white" stroke="#666666" points="228.38,-236 103.62,-236 103.62,-204 228.38,-204 228.38,-236"/>
<text text-anchor="start" x="111.62" y="-222.5" font-family="Helvetica,sans-Serif" font-size="10.00">lib_base_game/include</text>
<text text-anchor="middle" x="166" y="-210.5" font-family="Helvetica,sans-Serif" font-size="10.00">/base_action_factory.hpp</text>
</a>
</g>
</g>
<!-- Node10&#45;&gt;Node11 -->
<g id="edge13_Node000010_Node000011" class="edge">
<title>Node10&#45;&gt;Node11</title>
<g id="a_edge13_Node000010_Node000011"><a xlink:title=" ">
<path fill="none" stroke="#63b8ff" d="M172.6,-260.6C171.22,-252.32 169.74,-243.46 168.54,-236.22"/>
<polygon fill="#63b8ff" stroke="#63b8ff" points="169.1,-260.91 174.2,-270.2 176.01,-259.76 169.1,-260.91"/>
</a>
</g>
</g>
<!-- Node11&#45;&gt;Node4 -->
<g id="edge15_Node000011_Node000004" class="edge">
<title>Node11&#45;&gt;Node4</title>
<g id="a_edge15_Node000011_Node000004"><a xlink:title=" ">
<path fill="none" stroke="#63b8ff" d="M182.76,-193.91C191.78,-177.12 199.47,-154.74 191,-136 184.37,-121.34 171.21,-109.22 159.1,-100.47"/>
<polygon fill="#63b8ff" stroke="#63b8ff" points="179.91,-191.87 177.87,-202.26 185.95,-195.4 179.91,-191.87"/>
</a>
</g>
</g>
<!-- Node11&#45;&gt;Node9 -->
<g id="edge14_Node000011_Node000009" class="edge">
<title>Node11&#45;&gt;Node9</title>
<g id="a_edge14_Node000011_Node000009"><a xlink:title=" ">
<path fill="none" stroke="#63b8ff" d="M150.1,-194.02C144.58,-185.34 138.56,-175.88 133.69,-168.22"/>
<polygon fill="#63b8ff" stroke="#63b8ff" points="147.12,-195.86 155.45,-202.42 153.03,-192.1 147.12,-195.86"/>
</a>
</g>
</g>
<!-- Node12&#45;&gt;Node6 -->
<g id="edge18_Node000012_Node000006" class="edge">
<title>Node12&#45;&gt;Node6</title>
<g id="a_edge18_Node000012_Node000006"><a xlink:title=" ">
<path fill="none" stroke="#63b8ff" d="M368.68,-330.25C353.11,-304.19 332,-261.42 332,-221 332,-221 332,-221 332,-151 332,-106.51 312.37,-56.75 301.33,-32.28"/>
<polygon fill="#63b8ff" stroke="#63b8ff" points="365.49,-331.75 373.73,-338.41 371.45,-328.06 365.49,-331.75"/>
</a>
</g>
</g>
<!-- Node12&#45;&gt;Node13 -->
<g id="edge19_Node000012_Node000013" class="edge">
<title>Node12&#45;&gt;Node13</title>
<g id="a_edge19_Node000012_Node000013"><a xlink:title=" ">
<path fill="none" stroke="#63b8ff" d="M380.92,-328.31C379.57,-311.3 380.23,-289.29 389,-272 398.48,-253.3 418.27,-239.09 433.15,-230.48"/>
<polygon fill="#63b8ff" stroke="#63b8ff" points="377.43,-328.61 382,-338.17 384.39,-327.84 377.43,-328.61"/>
</a>
</g>
</g>
<!-- Node14 -->
<g id="Node000014" class="node">
<title>Node14</title>
<g id="a_Node000014"><a xlink:href="../../d5/d6f/mod__dynamic__library_8hpp.html" target="_top" xlink:title=" ">
<polygon fill="white" stroke="#666666" points="505.75,-304 398.25,-304 398.25,-272 505.75,-272 505.75,-304"/>
<text text-anchor="start" x="406.25" y="-290.5" font-family="Helvetica,sans-Serif" font-size="10.00">sokoban_driver/mod</text>
<text text-anchor="middle" x="452" y="-278.5" font-family="Helvetica,sans-Serif" font-size="10.00">_dynamic_library.hpp</text>
</a>
</g>
</g>
<!-- Node12&#45;&gt;Node14 -->
<g id="edge20_Node000012_Node000014" class="edge">
<title>Node12&#45;&gt;Node14</title>
<g id="a_edge20_Node000012_Node000014"><a xlink:title=" ">
<path fill="none" stroke="#63b8ff" d="M408.64,-331.71C417.91,-322.59 428.27,-312.37 436.54,-304.22"/>
<polygon fill="#63b8ff" stroke="#63b8ff" points="406.29,-329.12 401.62,-338.63 411.2,-334.11 406.29,-329.12"/>
</a>
</g>
</g>
<!-- Node14&#45;&gt;Node13 -->
<g id="edge21_Node000014_Node000013" class="edge">
<title>Node14&#45;&gt;Node13</title>
<g id="a_edge21_Node000014_Node000013"><a xlink:title=" ">
<path fill="none" stroke="#63b8ff" d="M452,-260.31C452,-249.67 452,-238.13 452,-230.32"/>
<polygon fill="#63b8ff" stroke="#63b8ff" points="448.5,-260.18 452,-270.18 455.5,-260.18 448.5,-260.18"/>
</a>
</g>
</g>
</g>
</svg>
