<?xml version="1.0" encoding="UTF-8" standalone="no"?>
<!DOCTYPE svg PUBLIC "-//W3C//DTD SVG 1.1//EN"
 "http://www.w3.org/Graphics/SVG/1.1/DTD/svg11.dtd">
<!-- Generated by graphviz version 12.1.2 (20240928.0832)
 -->
<!-- Title: Controller Pages: 1 -->
<svg width="89pt" height="302pt"
 viewBox="0.00 0.00 89.00 302.00" xmlns="http://www.w3.org/2000/svg" xmlns:xlink="http://www.w3.org/1999/xlink">
<g id="graph0" class="graph" transform="scale(1 1) rotate(0) translate(4 298)">
<title>Controller</title>
<!-- Node1 -->
<g id="Node000001" class="node">
<title>Node1</title>
<g id="a_Node000001"><a xlink:title=" ">
<polygon fill="#999999" stroke="none" points="81,-179 0,-179 0,-100 81,-100 81,-179"/>
<text text-anchor="start" x="19.88" y="-165.5" font-family="Helvetica,sans-Serif" font-size="10.00">Controller</text>
<text text-anchor="start" x="39" y="-150.5" font-family="Helvetica,sans-Serif" font-size="10.00"> </text>
<text text-anchor="start" x="4" y="-135.5" font-family="Helvetica,sans-Serif" font-size="10.00">+</text>
<text text-anchor="start" x="14" y="-135.5" font-family="Helvetica,sans-Serif" font-size="10.00">Controller()</text>
<text text-anchor="start" x="4" y="-120.5" font-family="Helvetica,sans-Serif" font-size="10.00">+</text>
<text text-anchor="start" x="14" y="-120.5" font-family="Helvetica,sans-Serif" font-size="10.00">activate()</text>
<text text-anchor="start" x="4" y="-105.5" font-family="Helvetica,sans-Serif" font-size="10.00">+</text>
<text text-anchor="start" x="14" y="-105.5" font-family="Helvetica,sans-Serif" font-size="10.00">setCommand()</text>
<polygon fill="#666666" stroke="#666666" points="0,-162 0,-162 81,-162 81,-162 0,-162"/>
<polygon fill="#666666" stroke="#666666" points="0,-147 0,-147 81,-147 81,-147 0,-147"/>
<polygon fill="none" stroke="#666666" points="0,-100 0,-179 81,-179 81,-100 0,-100"/>
</a>
</g>
</g>
<!-- Node3 -->
<g id="Node000003" class="node">
<title>Node3</title>
<g id="a_Node000003"><a xlink:href="../../de/d6e/classPushButton.html" target="_top" xlink:title=" ">
<polygon fill="white" stroke="none" points="78,-64 3,-64 3,0 78,0 78,-64"/>
<text text-anchor="start" x="15" y="-50.5" font-family="Helvetica,sans-Serif" font-size="10.00">PushButton</text>
<text text-anchor="start" x="39" y="-35.5" font-family="Helvetica,sans-Serif" font-size="10.00"> </text>
<text text-anchor="start" x="7" y="-20.5" font-family="Helvetica,sans-Serif" font-size="10.00">+</text>
<text text-anchor="start" x="17" y="-20.5" font-family="Helvetica,sans-Serif" font-size="10.00">PushButton()</text>
<text text-anchor="start" x="7" y="-5.5" font-family="Helvetica,sans-Serif" font-size="10.00">+</text>
<text text-anchor="start" x="17" y="-5.5" font-family="Helvetica,sans-Serif" font-size="10.00">press()</text>
<polygon fill="#666666" stroke="#666666" points="3,-47 3,-47 78,-47 78,-47 3,-47"/>
<polygon fill="#666666" stroke="#666666" points="3,-32 3,-32 78,-32 78,-32 3,-32"/>
<polygon fill="none" stroke="#666666" points="3,0 3,-64 78,-64 78,0 3,0"/>
</a>
</g>
</g>
<!-- Node1&#45;&gt;Node3 -->
<g id="edge2_Node000001_Node000003" class="edge">
<title>Node1&#45;&gt;Node3</title>
<g id="a_edge2_Node000001_Node000003"><a xlink:title=" ">
<path fill="none" stroke="#63b8ff" d="M40.5,-88.73C40.5,-80.27 40.5,-71.72 40.5,-63.93"/>
<polygon fill="none" stroke="#63b8ff" points="37,-88.6 40.5,-98.6 44,-88.6 37,-88.6"/>
</a>
</g>
</g>
<!-- Node2 -->
<g id="Node000002" class="node">
<title>Node2</title>
<g id="a_Node000002"><a xlink:href="../../dd/ddb/classWidget.html" target="_top" xlink:title=" ">
<polygon fill="white" stroke="none" points="71,-294 10,-294 10,-215 71,-215 71,-294"/>
<text text-anchor="start" x="25.5" y="-280.5" font-family="Helvetica,sans-Serif" font-size="10.00">Widget</text>
<text text-anchor="start" x="39" y="-265.5" font-family="Helvetica,sans-Serif" font-size="10.00"> </text>
<text text-anchor="start" x="14" y="-250.5" font-family="Helvetica,sans-Serif" font-size="10.00">+</text>
<text text-anchor="start" x="24" y="-250.5" font-family="Helvetica,sans-Serif" font-size="10.00">width()</text>
<text text-anchor="start" x="14" y="-235.5" font-family="Helvetica,sans-Serif" font-size="10.00">+</text>
<text text-anchor="start" x="24" y="-235.5" font-family="Helvetica,sans-Serif" font-size="10.00">height()</text>
<text text-anchor="start" x="14" y="-220.5" font-family="Helvetica,sans-Serif" font-size="10.00">+</text>
<text text-anchor="start" x="24" y="-220.5" font-family="Helvetica,sans-Serif" font-size="10.00">addChild()</text>
<polygon fill="#666666" stroke="#666666" points="10,-277 10,-277 71,-277 71,-277 10,-277"/>
<polygon fill="#666666" stroke="#666666" points="10,-262 10,-262 71,-262 71,-262 10,-262"/>
<polygon fill="none" stroke="#666666" points="10,-215 10,-294 71,-294 71,-215 10,-215"/>
</a>
</g>
</g>
<!-- Node2&#45;&gt;Node1 -->
<g id="edge1_Node000001_Node000002" class="edge">
<title>Node2&#45;&gt;Node1</title>
<g id="a_edge1_Node000001_Node000002"><a xlink:title=" ">
<path fill="none" stroke="#63b8ff" d="M40.5,-203.92C40.5,-195.47 40.5,-186.81 40.5,-178.72"/>
<polygon fill="none" stroke="#63b8ff" points="37,-203.73 40.5,-213.73 44,-203.73 37,-203.73"/>
</a>
</g>
</g>
</g>
</svg>
