<?xml version="1.0" encoding="UTF-8" standalone="no"?>
<!DOCTYPE svg PUBLIC "-//W3C//DTD SVG 1.1//EN"
 "http://www.w3.org/Graphics/SVG/1.1/DTD/svg11.dtd">
<!-- Generated by graphviz version 12.1.1 (20240910.0053)
 -->
<!-- Title: lib_base_game/include/base_game_action.hpp Pages: 1 -->
<svg width="1394pt" height="388pt"
 viewBox="0.00 0.00 1393.88 388.00" xmlns="http://www.w3.org/2000/svg" xmlns:xlink="http://www.w3.org/1999/xlink">
<g id="graph0" class="graph" transform="scale(1 1) rotate(0) translate(4 384)">
<title>lib_base_game/include/base_game_action.hpp</title>
<!-- Node1 -->
<g id="Node000001" class="node">
<title>Node1</title>
<g id="a_Node000001"><a xlink:title=" ">
<polygon fill="#999999" stroke="#666666" points="1348.62,-380 1229.12,-380 1229.12,-348 1348.62,-348 1348.62,-380"/>
<text text-anchor="start" x="1237.12" y="-366.5" font-family="Helvetica,sans-Serif" font-size="10.00">lib_base_game/include</text>
<text text-anchor="middle" x="1288.88" y="-354.5" font-family="Helvetica,sans-Serif" font-size="10.00">/base_game_action.hpp</text>
</a>
</g>
</g>
<!-- Node2 -->
<g id="Node000002" class="node">
<title>Node2</title>
<g id="a_Node000002"><a xlink:href="../../d1/dab/game__action_8hpp.html" target="_top" xlink:title=" ">
<polygon fill="white" stroke="#666666" points="1268.88,-312 1114.88,-312 1114.88,-292 1268.88,-292 1268.88,-312"/>
<text text-anchor="middle" x="1191.88" y="-298.5" font-family="Helvetica,sans-Serif" font-size="10.00">sokoban_core/game_action.hpp</text>
</a>
</g>
</g>
<!-- Node1&#45;&gt;Node2 -->
<g id="edge1_Node000001_Node000002" class="edge">
<title>Node1&#45;&gt;Node2</title>
<g id="a_edge1_Node000001_Node000002"><a xlink:title=" ">
<path fill="none" stroke="#63b8ff" d="M1263.9,-347.55C1249.44,-338.61 1231.31,-327.39 1216.85,-318.45"/>
<polygon fill="#63b8ff" stroke="#63b8ff" points="1218.72,-315.49 1208.37,-313.2 1215.04,-321.44 1218.72,-315.49"/>
</a>
</g>
</g>
<!-- Node10 -->
<g id="Node000010" class="node">
<title>Node10</title>
<g id="a_Node000010"><a xlink:href="../../de/d85/key__definitions_8hpp.html" target="_top" xlink:title=" ">
<polygon fill="white" stroke="#666666" points="1385.88,-144 1285.88,-144 1285.88,-124 1385.88,-124 1385.88,-144"/>
<text text-anchor="middle" x="1335.88" y="-130.5" font-family="Helvetica,sans-Serif" font-size="10.00">key_definitions.hpp</text>
</a>
</g>
</g>
<!-- Node1&#45;&gt;Node10 -->
<g id="edge41_Node000001_Node000010" class="edge">
<title>Node1&#45;&gt;Node10</title>
<g id="a_edge41_Node000001_Node000010"><a xlink:title=" ">
<path fill="none" stroke="#63b8ff" d="M1299.25,-347.7C1317.47,-319.81 1354.51,-258.23 1367.88,-200 1369.86,-191.34 1370.58,-188.47 1367.88,-180 1364.76,-170.24 1358.67,-160.79 1352.63,-153.08"/>
<polygon fill="#63b8ff" stroke="#63b8ff" points="1355.35,-150.89 1346.21,-145.53 1350.02,-155.42 1355.35,-150.89"/>
</a>
</g>
</g>
<!-- Node3 -->
<g id="Node000003" class="node">
<title>Node3</title>
<g id="a_Node000003"><a xlink:href="../../d4/d42/game__object_8hpp.html" target="_top" xlink:title=" ">
<polygon fill="white" stroke="#666666" points="1237,-256 1146.75,-256 1146.75,-236 1237,-236 1237,-256"/>
<text text-anchor="middle" x="1191.88" y="-242.5" font-family="Helvetica,sans-Serif" font-size="10.00">game_object.hpp</text>
</a>
</g>
</g>
<!-- Node2&#45;&gt;Node3 -->
<g id="edge2_Node000002_Node000003" class="edge">
<title>Node2&#45;&gt;Node3</title>
<g id="a_edge2_Node000002_Node000003"><a xlink:title=" ">
<path fill="none" stroke="#63b8ff" d="M1191.88,-291.59C1191.88,-285.01 1191.88,-275.96 1191.88,-267.73"/>
<polygon fill="#63b8ff" stroke="#63b8ff" points="1195.38,-267.81 1191.88,-257.81 1188.38,-267.81 1195.38,-267.81"/>
</a>
</g>
</g>
<!-- Node8 -->
<g id="Node000008" class="node">
<title>Node8</title>
<g id="a_Node000008"><a xlink:href="../../da/d4c/session__context_8hpp.html" target="_top" xlink:title=" ">
<polygon fill="white" stroke="#666666" points="914.88,-256 808.88,-256 808.88,-236 914.88,-236 914.88,-256"/>
<text text-anchor="middle" x="861.88" y="-242.5" font-family="Helvetica,sans-Serif" font-size="10.00">session_context.hpp</text>
</a>
</g>
</g>
<!-- Node2&#45;&gt;Node8 -->
<g id="edge8_Node000002_Node000008" class="edge">
<title>Node2&#45;&gt;Node8</title>
<g id="a_edge8_Node000002_Node000008"><a xlink:title=" ">
<path fill="none" stroke="#63b8ff" d="M1134.02,-291.53C1076.01,-282.04 986.89,-267.46 926.58,-257.59"/>
<polygon fill="#63b8ff" stroke="#63b8ff" points="927.22,-254.15 916.79,-255.99 926.09,-261.05 927.22,-254.15"/>
</a>
</g>
</g>
<!-- Node4 -->
<g id="Node000004" class="node">
<title>Node4</title>
<g id="a_Node000004"><a xlink:href="../../d3/d3e/game__object__id_8hpp.html" target="_top" xlink:title=" ">
<polygon fill="white" stroke="#666666" points="1163.38,-200 1060.38,-200 1060.38,-180 1163.38,-180 1163.38,-200"/>
<text text-anchor="middle" x="1111.88" y="-186.5" font-family="Helvetica,sans-Serif" font-size="10.00">game_object_id.hpp</text>
</a>
</g>
</g>
<!-- Node3&#45;&gt;Node4 -->
<g id="edge3_Node000003_Node000004" class="edge">
<title>Node3&#45;&gt;Node4</title>
<g id="a_edge3_Node000003_Node000004"><a xlink:title=" ">
<path fill="none" stroke="#63b8ff" d="M1177.94,-235.59C1166.2,-227.67 1149.14,-216.16 1135.31,-206.82"/>
<polygon fill="#63b8ff" stroke="#63b8ff" points="1137.42,-204.02 1127.17,-201.33 1133.5,-209.82 1137.42,-204.02"/>
</a>
</g>
</g>
<!-- Node6 -->
<g id="Node000006" class="node">
<title>Node6</title>
<g id="a_Node000006"><a xlink:title=" ">
<polygon fill="#e0e0e0" stroke="#999999" points="1217.5,-144 1166.25,-144 1166.25,-124 1217.5,-124 1217.5,-144"/>
<text text-anchor="middle" x="1191.88" y="-130.5" font-family="Helvetica,sans-Serif" font-size="10.00">memory</text>
</a>
</g>
</g>
<!-- Node3&#45;&gt;Node6 -->
<g id="edge6_Node000003_Node000006" class="edge">
<title>Node3&#45;&gt;Node6</title>
<g id="a_edge6_Node000003_Node000006"><a xlink:title=" ">
<path fill="none" stroke="#63b8ff" d="M1191.88,-235.62C1191.88,-218.01 1191.88,-179.59 1191.88,-155.65"/>
<polygon fill="#63b8ff" stroke="#63b8ff" points="1195.38,-155.87 1191.88,-145.87 1188.38,-155.87 1195.38,-155.87"/>
</a>
</g>
</g>
<!-- Node7 -->
<g id="Node000007" class="node">
<title>Node7</title>
<g id="a_Node000007"><a xlink:title=" ">
<polygon fill="#e0e0e0" stroke="#999999" points="1358.38,-200 1315.38,-200 1315.38,-180 1358.38,-180 1358.38,-200"/>
<text text-anchor="middle" x="1336.88" y="-186.5" font-family="Helvetica,sans-Serif" font-size="10.00">vector</text>
</a>
</g>
</g>
<!-- Node3&#45;&gt;Node7 -->
<g id="edge7_Node000003_Node000007" class="edge">
<title>Node3&#45;&gt;Node7</title>
<g id="a_edge7_Node000003_Node000007"><a xlink:title=" ">
<path fill="none" stroke="#63b8ff" d="M1217.13,-235.59C1241.41,-226.55 1278.22,-212.85 1304.61,-203.02"/>
<polygon fill="#63b8ff" stroke="#63b8ff" points="1305.65,-206.36 1313.8,-199.59 1303.2,-199.8 1305.65,-206.36"/>
</a>
</g>
</g>
<!-- Node5 -->
<g id="Node000005" class="node">
<title>Node5</title>
<g id="a_Node000005"><a xlink:title=" ">
<polygon fill="#e0e0e0" stroke="#999999" points="1147.88,-144 1107.88,-144 1107.88,-124 1147.88,-124 1147.88,-144"/>
<text text-anchor="middle" x="1127.88" y="-130.5" font-family="Helvetica,sans-Serif" font-size="10.00">string</text>
</a>
</g>
</g>
<!-- Node4&#45;&gt;Node5 -->
<g id="edge4_Node000004_Node000005" class="edge">
<title>Node4&#45;&gt;Node5</title>
<g id="a_edge4_Node000004_Node000005"><a xlink:title=" ">
<path fill="none" stroke="#63b8ff" d="M1114.66,-179.59C1116.66,-172.86 1119.42,-163.53 1121.9,-155.15"/>
<polygon fill="#63b8ff" stroke="#63b8ff" points="1125.2,-156.33 1124.69,-145.75 1118.49,-154.34 1125.2,-156.33"/>
</a>
</g>
</g>
<!-- Node4&#45;&gt;Node6 -->
<g id="edge5_Node000004_Node000006" class="edge">
<title>Node4&#45;&gt;Node6</title>
<g id="a_edge5_Node000004_Node000006"><a xlink:title=" ">
<path fill="none" stroke="#63b8ff" d="M1125.81,-179.59C1137.55,-171.67 1154.61,-160.16 1168.44,-150.82"/>
<polygon fill="#63b8ff" stroke="#63b8ff" points="1170.25,-153.82 1176.58,-145.33 1166.33,-148.02 1170.25,-153.82"/>
</a>
</g>
</g>
<!-- Node8&#45;&gt;Node6 -->
<g id="edge38_Node000008_Node000006" class="edge">
<title>Node8&#45;&gt;Node6</title>
<g id="a_edge38_Node000008_Node000006"><a xlink:title=" ">
<path fill="none" stroke="#63b8ff" d="M888.88,-235.58C925.67,-222.8 993.64,-199.32 1051.88,-180 1086.85,-168.4 1126.89,-155.57 1155.17,-146.59"/>
<polygon fill="#63b8ff" stroke="#63b8ff" points="1155.85,-150.05 1164.32,-143.69 1153.73,-143.38 1155.85,-150.05"/>
</a>
</g>
</g>
<!-- Node9 -->
<g id="Node000009" class="node">
<title>Node9</title>
<g id="a_Node000009"><a xlink:href="../../d7/dc7/command_8hpp.html" target="_top" xlink:title=" ">
<polygon fill="white" stroke="#666666" points="1297.62,-200 1220.12,-200 1220.12,-180 1297.62,-180 1297.62,-200"/>
<text text-anchor="middle" x="1258.88" y="-186.5" font-family="Helvetica,sans-Serif" font-size="10.00">command.hpp</text>
</a>
</g>
</g>
<!-- Node8&#45;&gt;Node9 -->
<g id="edge9_Node000008_Node000009" class="edge">
<title>Node8&#45;&gt;Node9</title>
<g id="a_edge9_Node000008_Node000009"><a xlink:title=" ">
<path fill="none" stroke="#63b8ff" d="M915,-237.77C991.98,-227.3 1133.5,-208.05 1208.75,-197.82"/>
<polygon fill="#63b8ff" stroke="#63b8ff" points="1208.86,-201.34 1218.3,-196.52 1207.92,-194.4 1208.86,-201.34"/>
</a>
</g>
</g>
<!-- Node11 -->
<g id="Node000011" class="node">
<title>Node11</title>
<g id="a_Node000011"><a xlink:href="../../dd/dc8/game__state_8hpp.html" target="_top" xlink:title=" ">
<polygon fill="white" stroke="#666666" points="779.75,-200 694,-200 694,-180 779.75,-180 779.75,-200"/>
<text text-anchor="middle" x="736.88" y="-186.5" font-family="Helvetica,sans-Serif" font-size="10.00">game_state.hpp</text>
</a>
</g>
</g>
<!-- Node8&#45;&gt;Node11 -->
<g id="edge11_Node000008_Node000011" class="edge">
<title>Node8&#45;&gt;Node11</title>
<g id="a_edge11_Node000008_Node000011"><a xlink:title=" ">
<path fill="none" stroke="#63b8ff" d="M840.1,-235.59C820.51,-227.13 791.45,-214.58 769.15,-204.94"/>
<polygon fill="#63b8ff" stroke="#63b8ff" points="770.78,-201.83 760.21,-201.08 768,-208.26 770.78,-201.83"/>
</a>
</g>
</g>
<!-- Node13 -->
<g id="Node000013" class="node">
<title>Node13</title>
<g id="a_Node000013"><a xlink:href="../../d9/d85/player_8hpp.html" target="_top" xlink:title=" ">
<polygon fill="white" stroke="#666666" points="925.38,-200 864.38,-200 864.38,-180 925.38,-180 925.38,-200"/>
<text text-anchor="middle" x="894.88" y="-186.5" font-family="Helvetica,sans-Serif" font-size="10.00">player.hpp</text>
</a>
</g>
</g>
<!-- Node8&#45;&gt;Node13 -->
<g id="edge13_Node000008_Node000013" class="edge">
<title>Node8&#45;&gt;Node13</title>
<g id="a_edge13_Node000008_Node000013"><a xlink:title=" ">
<path fill="none" stroke="#63b8ff" d="M867.62,-235.59C871.93,-228.55 877.97,-218.67 883.26,-210"/>
<polygon fill="#63b8ff" stroke="#63b8ff" points="886.18,-211.95 888.4,-201.59 880.2,-208.3 886.18,-211.95"/>
</a>
</g>
</g>
<!-- Node16 -->
<g id="Node000016" class="node">
<title>Node16</title>
<g id="a_Node000016"><a xlink:title=" ">
<polygon fill="#e0e0e0" stroke="#999999" points="963.38,-82 902.38,-82 902.38,-62 963.38,-62 963.38,-82"/>
<text text-anchor="middle" x="932.88" y="-68.5" font-family="Helvetica,sans-Serif" font-size="10.00">filesystem</text>
</a>
</g>
</g>
<!-- Node8&#45;&gt;Node16 -->
<g id="edge39_Node000008_Node000016" class="edge">
<title>Node8&#45;&gt;Node16</title>
<g id="a_edge39_Node000008_Node000016"><a xlink:title=" ">
<path fill="none" stroke="#63b8ff" d="M854.48,-235.8C838.4,-214.58 803.48,-161.21 826.88,-124 840.98,-101.56 868.02,-88.77 891.26,-81.61"/>
<polygon fill="#63b8ff" stroke="#63b8ff" points="892.14,-84.99 900.83,-78.93 890.26,-78.25 892.14,-84.99"/>
</a>
</g>
</g>
<!-- Node20 -->
<g id="Node000020" class="node">
<title>Node20</title>
<g id="a_Node000020"><a xlink:href="../../d5/ddc/console_8hpp.html" target="_top" xlink:title=" ">
<polygon fill="white" stroke="#666666" points="535.88,-200 453.88,-200 453.88,-180 535.88,-180 535.88,-200"/>
<text text-anchor="middle" x="494.88" y="-186.5" font-family="Helvetica,sans-Serif" font-size="10.00">tui/console.hpp</text>
</a>
</g>
</g>
<!-- Node8&#45;&gt;Node20 -->
<g id="edge23_Node000008_Node000020" class="edge">
<title>Node8&#45;&gt;Node20</title>
<g id="a_edge23_Node000008_Node000020"><a xlink:title=" ">
<path fill="none" stroke="#63b8ff" d="M808.51,-237.15C738.64,-226.87 616.92,-208.96 547.45,-198.74"/>
<polygon fill="#63b8ff" stroke="#63b8ff" points="548.25,-195.32 537.85,-197.32 547.23,-202.24 548.25,-195.32"/>
</a>
</g>
</g>
<!-- Node32 -->
<g id="Node000032" class="node">
<title>Node32</title>
<g id="a_Node000032"><a xlink:title=" ">
<polygon fill="#e0e0e0" stroke="#999999" points="676.12,-200 631.62,-200 631.62,-180 676.12,-180 676.12,-200"/>
<text text-anchor="middle" x="653.88" y="-186.5" font-family="Helvetica,sans-Serif" font-size="10.00">iosfwd</text>
</a>
</g>
</g>
<!-- Node8&#45;&gt;Node32 -->
<g id="edge40_Node000008_Node000032" class="edge">
<title>Node8&#45;&gt;Node32</title>
<g id="a_edge40_Node000008_Node000032"><a xlink:title=" ">
<path fill="none" stroke="#63b8ff" d="M823.11,-235.54C789.56,-227.27 739.5,-214.72 687.63,-200.69"/>
<polygon fill="#63b8ff" stroke="#63b8ff" points="688.57,-197.32 678,-198.07 686.73,-204.07 688.57,-197.32"/>
</a>
</g>
</g>
<!-- Node9&#45;&gt;Node10 -->
<g id="edge10_Node000009_Node000010" class="edge">
<title>Node9&#45;&gt;Node10</title>
<g id="a_edge10_Node000009_Node000010"><a xlink:title=" ">
<path fill="none" stroke="#63b8ff" d="M1272.29,-179.59C1283.48,-171.74 1299.69,-160.38 1312.93,-151.09"/>
<polygon fill="#63b8ff" stroke="#63b8ff" points="1314.94,-153.96 1321.12,-145.35 1310.92,-148.22 1314.94,-153.96"/>
</a>
</g>
</g>
<!-- Node12 -->
<g id="Node000012" class="node">
<title>Node12</title>
<g id="a_Node000012"><a xlink:title=" ">
<polygon fill="#e0e0e0" stroke="#999999" points="741.75,-144 686,-144 686,-124 741.75,-124 741.75,-144"/>
<text text-anchor="middle" x="713.88" y="-130.5" font-family="Helvetica,sans-Serif" font-size="10.00">cinttypes</text>
</a>
</g>
</g>
<!-- Node11&#45;&gt;Node12 -->
<g id="edge12_Node000011_Node000012" class="edge">
<title>Node11&#45;&gt;Node12</title>
<g id="a_edge12_Node000011_Node000012"><a xlink:title=" ">
<path fill="none" stroke="#63b8ff" d="M732.87,-179.59C729.97,-172.78 725.94,-163.32 722.33,-154.86"/>
<polygon fill="#63b8ff" stroke="#63b8ff" points="725.57,-153.52 718.43,-145.69 719.13,-156.26 725.57,-153.52"/>
</a>
</g>
</g>
<!-- Node13&#45;&gt;Node5 -->
<g id="edge19_Node000013_Node000005" class="edge">
<title>Node13&#45;&gt;Node5</title>
<g id="a_edge19_Node000013_Node000005"><a xlink:title=" ">
<path fill="none" stroke="#63b8ff" d="M925.83,-183.01C963.85,-175.48 1030.54,-161.67 1096.63,-144.42"/>
<polygon fill="#63b8ff" stroke="#63b8ff" points="1097.42,-147.84 1106.19,-141.9 1095.63,-141.07 1097.42,-147.84"/>
</a>
</g>
</g>
<!-- Node13&#45;&gt;Node13 -->
<g id="edge14_Node000013_Node000013" class="edge">
<title>Node13&#45;&gt;Node13</title>
<g id="a_edge14_Node000013_Node000013"><a xlink:title=" ">
<path fill="none" stroke="#63b8ff" d="M925.66,-200.5C935.54,-200.39 943.38,-196.89 943.38,-190 943.38,-186.12 940.9,-183.32 936.97,-181.59"/>
<polygon fill="#63b8ff" stroke="#63b8ff" points="937.62,-178.15 927.15,-179.78 936.35,-185.04 937.62,-178.15"/>
</a>
</g>
</g>
<!-- Node14 -->
<g id="Node000014" class="node">
<title>Node14</title>
<g id="a_Node000014"><a xlink:href="../../db/d42/json__utils_8hpp.html" target="_top" xlink:title=" ">
<polygon fill="white" stroke="#666666" points="1090,-144 969.75,-144 969.75,-124 1090,-124 1090,-144"/>
<text text-anchor="middle" x="1029.88" y="-130.5" font-family="Helvetica,sans-Serif" font-size="10.00">json_utils/json_utils.hpp</text>
</a>
</g>
</g>
<!-- Node13&#45;&gt;Node14 -->
<g id="edge15_Node000013_Node000014" class="edge">
<title>Node13&#45;&gt;Node14</title>
<g id="a_edge15_Node000013_Node000014"><a xlink:title=" ">
<path fill="none" stroke="#63b8ff" d="M918.39,-179.59C939.75,-171.05 971.51,-158.35 995.67,-148.68"/>
<polygon fill="#63b8ff" stroke="#63b8ff" points="996.79,-152.01 1004.77,-145.04 994.19,-145.51 996.79,-152.01"/>
</a>
</g>
</g>
<!-- Node13&#45;&gt;Node16 -->
<g id="edge21_Node000013_Node000016" class="edge">
<title>Node13&#45;&gt;Node16</title>
<g id="a_edge21_Node000013_Node000016"><a xlink:title=" ">
<path fill="none" stroke="#63b8ff" d="M902.36,-179.6C908.89,-170.9 918.04,-157.32 922.88,-144 928.79,-127.71 931.23,-108.14 932.22,-93.68"/>
<polygon fill="#63b8ff" stroke="#63b8ff" points="935.7,-94.16 932.7,-84 928.71,-93.82 935.7,-94.16"/>
</a>
</g>
</g>
<!-- Node18 -->
<g id="Node000018" class="node">
<title>Node18</title>
<g id="a_Node000018"><a xlink:title=" ">
<polygon fill="#e0e0e0" stroke="#999999" points="913.62,-144 836.12,-144 836.12,-124 913.62,-124 913.62,-144"/>
<text text-anchor="middle" x="874.88" y="-130.5" font-family="Helvetica,sans-Serif" font-size="10.00">unordered_set</text>
</a>
</g>
</g>
<!-- Node13&#45;&gt;Node18 -->
<g id="edge20_Node000013_Node000018" class="edge">
<title>Node13&#45;&gt;Node18</title>
<g id="a_edge20_Node000013_Node000018"><a xlink:title=" ">
<path fill="none" stroke="#63b8ff" d="M891.39,-179.59C888.87,-172.78 885.36,-163.32 882.23,-154.86"/>
<polygon fill="#63b8ff" stroke="#63b8ff" points="885.6,-153.88 878.84,-145.72 879.04,-156.31 885.6,-153.88"/>
</a>
</g>
</g>
<!-- Node19 -->
<g id="Node000019" class="node">
<title>Node19</title>
<g id="a_Node000019"><a xlink:title=" ">
<polygon fill="#e0e0e0" stroke="#999999" points="685.62,-20 632.12,-20 632.12,0 685.62,0 685.62,-20"/>
<text text-anchor="middle" x="658.88" y="-6.5" font-family="Helvetica,sans-Serif" font-size="10.00">iostream</text>
</a>
</g>
</g>
<!-- Node13&#45;&gt;Node19 -->
<g id="edge22_Node000013_Node000019" class="edge">
<title>Node13&#45;&gt;Node19</title>
<g id="a_edge22_Node000013_Node000019"><a xlink:title=" ">
<path fill="none" stroke="#63b8ff" d="M878.04,-179.63C863.7,-171.24 842.92,-158.12 826.88,-144 788.08,-109.87 791.81,-87.55 750.88,-56 734.2,-43.15 713.26,-32.55 695.58,-24.88"/>
<polygon fill="#63b8ff" stroke="#63b8ff" points="697.03,-21.7 686.45,-21.07 694.33,-28.16 697.03,-21.7"/>
</a>
</g>
</g>
<!-- Node15 -->
<g id="Node000015" class="node">
<title>Node15</title>
<g id="a_Node000015"><a xlink:title=" ">
<polygon fill="#e0e0e0" stroke="#999999" points="1078.75,-82 981,-82 981,-62 1078.75,-62 1078.75,-82"/>
<text text-anchor="middle" x="1029.88" y="-68.5" font-family="Helvetica,sans-Serif" font-size="10.00">nlohmann/json.hpp</text>
</a>
</g>
</g>
<!-- Node14&#45;&gt;Node15 -->
<g id="edge16_Node000014_Node000015" class="edge">
<title>Node14&#45;&gt;Node15</title>
<g id="a_edge16_Node000014_Node000015"><a xlink:title=" ">
<path fill="none" stroke="#63b8ff" d="M1029.88,-123.62C1029.88,-115.56 1029.88,-103.65 1029.88,-93.41"/>
<polygon fill="#63b8ff" stroke="#63b8ff" points="1033.38,-93.63 1029.88,-83.63 1026.38,-93.63 1033.38,-93.63"/>
</a>
</g>
</g>
<!-- Node14&#45;&gt;Node16 -->
<g id="edge17_Node000014_Node000016" class="edge">
<title>Node14&#45;&gt;Node16</title>
<g id="a_edge17_Node000014_Node000016"><a xlink:title=" ">
<path fill="none" stroke="#63b8ff" d="M1014.72,-123.62C999.41,-114.16 975.52,-99.38 957.5,-88.23"/>
<polygon fill="#63b8ff" stroke="#63b8ff" points="959.56,-85.39 949.21,-83.11 955.88,-91.34 959.56,-85.39"/>
</a>
</g>
</g>
<!-- Node17 -->
<g id="Node000017" class="node">
<title>Node17</title>
<g id="a_Node000017"><a xlink:title=" ">
<polygon fill="#e0e0e0" stroke="#999999" points="1145.38,-82 1096.38,-82 1096.38,-62 1145.38,-62 1145.38,-82"/>
<text text-anchor="middle" x="1120.88" y="-68.5" font-family="Helvetica,sans-Serif" font-size="10.00">fstream</text>
</a>
</g>
</g>
<!-- Node14&#45;&gt;Node17 -->
<g id="edge18_Node000014_Node000017" class="edge">
<title>Node14&#45;&gt;Node17</title>
<g id="a_edge18_Node000014_Node000017"><a xlink:title=" ">
<path fill="none" stroke="#63b8ff" d="M1044.09,-123.62C1058.38,-114.2 1080.66,-99.52 1097.54,-88.39"/>
<polygon fill="#63b8ff" stroke="#63b8ff" points="1099.07,-91.57 1105.49,-83.14 1095.22,-85.72 1099.07,-91.57"/>
</a>
</g>
</g>
<!-- Node21 -->
<g id="Node000021" class="node">
<title>Node21</title>
<g id="a_Node000021"><a xlink:href="../../df/d13/console__linux_8hpp.html" target="_top" xlink:title=" ">
<polygon fill="white" stroke="#666666" points="463.88,-144 369.88,-144 369.88,-124 463.88,-124 463.88,-144"/>
<text text-anchor="middle" x="416.88" y="-130.5" font-family="Helvetica,sans-Serif" font-size="10.00">console_linux.hpp</text>
</a>
</g>
</g>
<!-- Node20&#45;&gt;Node21 -->
<g id="edge24_Node000020_Node000021" class="edge">
<title>Node20&#45;&gt;Node21</title>
<g id="a_edge24_Node000020_Node000021"><a xlink:title=" ">
<path fill="none" stroke="#63b8ff" d="M481.29,-179.59C469.84,-171.67 453.21,-160.16 439.72,-150.82"/>
<polygon fill="#63b8ff" stroke="#63b8ff" points="442.03,-148.16 431.81,-145.34 438.04,-153.91 442.03,-148.16"/>
</a>
</g>
</g>
<!-- Node22 -->
<g id="Node000022" class="node">
<title>Node22</title>
<g id="a_Node000022"><a xlink:href="../../dd/d90/system_8hpp.html" target="_top" xlink:title=" ">
<polygon fill="white" stroke="#666666" points="613.25,-82 482.5,-82 482.5,-62 613.25,-62 613.25,-82"/>
<text text-anchor="middle" x="547.88" y="-68.5" font-family="Helvetica,sans-Serif" font-size="10.00">sokoban_core/system.hpp</text>
</a>
</g>
</g>
<!-- Node21&#45;&gt;Node22 -->
<g id="edge25_Node000021_Node000022" class="edge">
<title>Node21&#45;&gt;Node22</title>
<g id="a_edge25_Node000021_Node000022"><a xlink:title=" ">
<path fill="none" stroke="#63b8ff" d="M437.34,-123.62C458.78,-113.81 492.69,-98.27 517.31,-87"/>
<polygon fill="#63b8ff" stroke="#63b8ff" points="518.54,-90.29 526.17,-82.94 515.62,-83.92 518.54,-90.29"/>
</a>
</g>
</g>
<!-- Node23 -->
<g id="Node000023" class="node">
<title>Node23</title>
<g id="a_Node000023"><a xlink:title=" ">
<polygon fill="#e0e0e0" stroke="#999999" points="509.12,-20 452.62,-20 452.62,0 509.12,0 509.12,-20"/>
<text text-anchor="middle" x="480.88" y="-6.5" font-family="Helvetica,sans-Serif" font-size="10.00">termios.h</text>
</a>
</g>
</g>
<!-- Node21&#45;&gt;Node23 -->
<g id="edge36_Node000021_Node000023" class="edge">
<title>Node21&#45;&gt;Node23</title>
<g id="a_edge36_Node000021_Node000023"><a xlink:title=" ">
<path fill="none" stroke="#63b8ff" d="M421.69,-123.83C432.06,-104.05 456.75,-57 470.74,-30.32"/>
<polygon fill="#63b8ff" stroke="#63b8ff" points="473.76,-32.1 475.31,-21.62 467.56,-28.85 473.76,-32.1"/>
</a>
</g>
</g>
<!-- Node24 -->
<g id="Node000024" class="node">
<title>Node24</title>
<g id="a_Node000024"><a xlink:href="../../d7/dff/key__definitions__linux_8hpp.html" target="_top" xlink:title=" ">
<polygon fill="white" stroke="#666666" points="389.25,-88 294.5,-88 294.5,-56 389.25,-56 389.25,-88"/>
<text text-anchor="start" x="302.5" y="-74.5" font-family="Helvetica,sans-Serif" font-size="10.00">tui/key_definitions</text>
<text text-anchor="middle" x="341.88" y="-62.5" font-family="Helvetica,sans-Serif" font-size="10.00">_linux.hpp</text>
</a>
</g>
</g>
<!-- Node21&#45;&gt;Node24 -->
<g id="edge28_Node000021_Node000024" class="edge">
<title>Node21&#45;&gt;Node24</title>
<g id="a_edge28_Node000021_Node000024"><a xlink:title=" ">
<path fill="none" stroke="#63b8ff" d="M405.16,-123.62C395.77,-116.11 382.2,-105.26 370.03,-95.52"/>
<polygon fill="#63b8ff" stroke="#63b8ff" points="372.27,-92.83 362.27,-89.32 367.9,-98.3 372.27,-92.83"/>
</a>
</g>
</g>
<!-- Node25 -->
<g id="Node000025" class="node">
<title>Node25</title>
<g id="a_Node000025"><a xlink:title=" ">
<polygon fill="#e0e0e0" stroke="#999999" points="412.5,-20 367.25,-20 367.25,0 412.5,0 412.5,-20"/>
<text text-anchor="middle" x="389.88" y="-6.5" font-family="Helvetica,sans-Serif" font-size="10.00">cstdint</text>
</a>
</g>
</g>
<!-- Node21&#45;&gt;Node25 -->
<g id="edge37_Node000021_Node000025" class="edge">
<title>Node21&#45;&gt;Node25</title>
<g id="a_edge37_Node000021_Node000025"><a xlink:title=" ">
<path fill="none" stroke="#63b8ff" d="M414.85,-123.83C410.53,-104.31 400.33,-58.25 394.39,-31.4"/>
<polygon fill="#63b8ff" stroke="#63b8ff" points="397.83,-30.76 392.25,-21.75 391,-32.27 397.83,-30.76"/>
</a>
</g>
</g>
<!-- Node26 -->
<g id="Node000026" class="node">
<title>Node26</title>
<g id="a_Node000026"><a xlink:title=" ">
<polygon fill="#e0e0e0" stroke="#999999" points="676.5,-82 631.25,-82 631.25,-62 676.5,-62 676.5,-82"/>
<text text-anchor="middle" x="653.88" y="-68.5" font-family="Helvetica,sans-Serif" font-size="10.00">stdio.h</text>
</a>
</g>
</g>
<!-- Node21&#45;&gt;Node26 -->
<g id="edge30_Node000021_Node000026" class="edge">
<title>Node21&#45;&gt;Node26</title>
<g id="a_edge30_Node000021_Node000026"><a xlink:title=" ">
<path fill="none" stroke="#63b8ff" d="M464.09,-125.71C506.17,-118.49 569.08,-105.92 621.88,-88 623.01,-87.62 624.15,-87.2 625.3,-86.77"/>
<polygon fill="#63b8ff" stroke="#63b8ff" points="626.31,-90.14 634.16,-83.03 623.58,-83.7 626.31,-90.14"/>
</a>
</g>
</g>
<!-- Node27 -->
<g id="Node000027" class="node">
<title>Node27</title>
<g id="a_Node000027"><a xlink:title=" ">
<polygon fill="#e0e0e0" stroke="#999999" points="741.62,-82 694.12,-82 694.12,-62 741.62,-62 741.62,-82"/>
<text text-anchor="middle" x="717.88" y="-68.5" font-family="Helvetica,sans-Serif" font-size="10.00">stdlib.h</text>
</a>
</g>
</g>
<!-- Node21&#45;&gt;Node27 -->
<g id="edge31_Node000021_Node000027" class="edge">
<title>Node21&#45;&gt;Node27</title>
<g id="a_edge31_Node000021_Node000027"><a xlink:title=" ">
<path fill="none" stroke="#63b8ff" d="M463.94,-129.04C518.36,-123.58 610.15,-111.59 685.88,-88 687.05,-87.63 688.23,-87.24 689.42,-86.81"/>
<polygon fill="#63b8ff" stroke="#63b8ff" points="690.64,-90.09 698.54,-83.03 687.97,-83.62 690.64,-90.09"/>
</a>
</g>
</g>
<!-- Node28 -->
<g id="Node000028" class="node">
<title>Node28</title>
<g id="a_Node000028"><a xlink:title=" ">
<polygon fill="#e0e0e0" stroke="#999999" points="61.75,-82 0,-82 0,-62 61.75,-62 61.75,-82"/>
<text text-anchor="middle" x="30.88" y="-68.5" font-family="Helvetica,sans-Serif" font-size="10.00">sys/time.h</text>
</a>
</g>
</g>
<!-- Node21&#45;&gt;Node28 -->
<g id="edge32_Node000021_Node000028" class="edge">
<title>Node21&#45;&gt;Node28</title>
<g id="a_edge32_Node000021_Node000028"><a xlink:title=" ">
<path fill="none" stroke="#63b8ff" d="M369.63,-130.44C302.22,-126 174.99,-114.62 69.88,-88 67.71,-87.45 65.51,-86.82 63.3,-86.13"/>
<polygon fill="#63b8ff" stroke="#63b8ff" points="64.47,-82.83 53.87,-82.84 62.16,-89.44 64.47,-82.83"/>
</a>
</g>
</g>
<!-- Node29 -->
<g id="Node000029" class="node">
<title>Node29</title>
<g id="a_Node000029"><a xlink:title=" ">
<polygon fill="#e0e0e0" stroke="#999999" points="146.38,-82 79.38,-82 79.38,-62 146.38,-62 146.38,-82"/>
<text text-anchor="middle" x="112.88" y="-68.5" font-family="Helvetica,sans-Serif" font-size="10.00">sys/types.h</text>
</a>
</g>
</g>
<!-- Node21&#45;&gt;Node29 -->
<g id="edge33_Node000021_Node000029" class="edge">
<title>Node21&#45;&gt;Node29</title>
<g id="a_edge33_Node000021_Node000029"><a xlink:title=" ">
<path fill="none" stroke="#63b8ff" d="M369.7,-127.25C317.05,-120.28 229.55,-107.06 155.88,-88 153.45,-87.37 150.97,-86.67 148.48,-85.92"/>
<polygon fill="#63b8ff" stroke="#63b8ff" points="149.7,-82.64 139.11,-82.9 147.55,-89.3 149.7,-82.64"/>
</a>
</g>
</g>
<!-- Node30 -->
<g id="Node000030" class="node">
<title>Node30</title>
<g id="a_Node000030"><a xlink:title=" ">
<polygon fill="#e0e0e0" stroke="#999999" points="215.12,-82 164.62,-82 164.62,-62 215.12,-62 215.12,-82"/>
<text text-anchor="middle" x="189.88" y="-68.5" font-family="Helvetica,sans-Serif" font-size="10.00">unistd.h</text>
</a>
</g>
</g>
<!-- Node21&#45;&gt;Node30 -->
<g id="edge34_Node000021_Node000030" class="edge">
<title>Node21&#45;&gt;Node30</title>
<g id="a_edge34_Node000021_Node000030"><a xlink:title=" ">
<path fill="none" stroke="#63b8ff" d="M369.39,-124.5C329.9,-116.82 272.5,-104.24 223.88,-88 222.53,-87.55 221.17,-87.07 219.8,-86.56"/>
<polygon fill="#63b8ff" stroke="#63b8ff" points="221.39,-83.43 210.81,-82.93 218.77,-89.92 221.39,-83.43"/>
</a>
</g>
</g>
<!-- Node31 -->
<g id="Node000031" class="node">
<title>Node31</title>
<g id="a_Node000031"><a xlink:title=" ">
<polygon fill="#e0e0e0" stroke="#999999" points="276.38,-82 233.38,-82 233.38,-62 276.38,-62 276.38,-82"/>
<text text-anchor="middle" x="254.88" y="-68.5" font-family="Helvetica,sans-Serif" font-size="10.00">fcntl.h</text>
</a>
</g>
</g>
<!-- Node21&#45;&gt;Node31 -->
<g id="edge35_Node000021_Node000031" class="edge">
<title>Node21&#45;&gt;Node31</title>
<g id="a_edge35_Node000021_Node000031"><a xlink:title=" ">
<path fill="none" stroke="#63b8ff" d="M386.05,-123.56C359.26,-115.09 319.56,-101.88 285.88,-88 285.11,-87.68 284.33,-87.36 283.55,-87.02"/>
<polygon fill="#63b8ff" stroke="#63b8ff" points="285.33,-83.99 274.78,-83.04 282.43,-90.36 285.33,-83.99"/>
</a>
</g>
</g>
<!-- Node22&#45;&gt;Node19 -->
<g id="edge27_Node000022_Node000019" class="edge">
<title>Node22&#45;&gt;Node19</title>
<g id="a_edge27_Node000022_Node000019"><a xlink:title=" ">
<path fill="none" stroke="#63b8ff" d="M565.22,-61.62C582.98,-52.03 610.84,-36.97 631.56,-25.77"/>
<polygon fill="#63b8ff" stroke="#63b8ff" points="633.19,-28.86 640.32,-21.03 629.86,-22.71 633.19,-28.86"/>
</a>
</g>
</g>
<!-- Node22&#45;&gt;Node23 -->
<g id="edge26_Node000022_Node000023" class="edge">
<title>Node22&#45;&gt;Node23</title>
<g id="a_edge26_Node000022_Node000023"><a xlink:title=" ">
<path fill="none" stroke="#63b8ff" d="M537.41,-61.62C527.32,-52.59 511.83,-38.72 499.61,-27.78"/>
<polygon fill="#63b8ff" stroke="#63b8ff" points="501.96,-25.19 492.18,-21.12 497.29,-30.4 501.96,-25.19"/>
</a>
</g>
</g>
<!-- Node24&#45;&gt;Node25 -->
<g id="edge29_Node000024_Node000025" class="edge">
<title>Node24&#45;&gt;Node25</title>
<g id="a_edge29_Node000024_Node000025"><a xlink:title=" ">
<path fill="none" stroke="#63b8ff" d="M354.24,-55.55C360.63,-47.56 368.47,-37.76 375.16,-29.39"/>
<polygon fill="#63b8ff" stroke="#63b8ff" points="377.89,-31.59 381.4,-21.59 372.42,-27.21 377.89,-31.59"/>
</a>
</g>
</g>
</g>
</svg>
