<?xml version="1.0" encoding="UTF-8" standalone="no"?>
<!DOCTYPE svg PUBLIC "-//W3C//DTD SVG 1.1//EN"
 "http://www.w3.org/Graphics/SVG/1.1/DTD/svg11.dtd">
<!-- Generated by graphviz version 12.1.1 (20240910.0053)
 -->
<!-- Title: lib_sokoban_core/include/sokoban_core/player.hpp Pages: 1 -->
<svg width="519pt" height="516pt"
 viewBox="0.00 0.00 518.67 516.00" xmlns="http://www.w3.org/2000/svg" xmlns:xlink="http://www.w3.org/1999/xlink">
<g id="graph0" class="graph" transform="scale(1 1) rotate(0) translate(4 512)">
<title>lib_sokoban_core/include/sokoban_core/player.hpp</title>
<!-- Node1 -->
<g id="Node000001" class="node">
<title>Node1</title>
<g id="a_Node000001"><a xlink:title=" ">
<polygon fill="#999999" stroke="#666666" points="202.88,-508 75.12,-508 75.12,-476 202.88,-476 202.88,-508"/>
<text text-anchor="start" x="83.12" y="-494.5" font-family="Helvetica,sans-Serif" font-size="10.00">lib_sokoban_core/include</text>
<text text-anchor="middle" x="139" y="-482.5" font-family="Helvetica,sans-Serif" font-size="10.00">/sokoban_core/player.hpp</text>
</a>
</g>
</g>
<!-- Node1&#45;&gt;Node1 -->
<g id="edge1_Node000001_Node000001" class="edge">
<title>Node1&#45;&gt;Node1</title>
<g id="a_edge1_Node000001_Node000001"><a xlink:title=" ">
<path fill="none" stroke="#63b8ff" d="M214.08,-500.63C218.34,-498.54 220.88,-495.67 220.88,-492 220.88,-485.82 213.67,-481.89 203.19,-480.2"/>
<polygon fill="#63b8ff" stroke="#63b8ff" points="213.27,-497.22 204.64,-503.37 215.22,-503.94 213.27,-497.22"/>
</a>
</g>
</g>
<!-- Node2 -->
<g id="Node000002" class="node">
<title>Node2</title>
<g id="a_Node000002"><a xlink:href="../../da/d4c/session__context_8hpp.html" target="_top" xlink:title=" ">
<polygon fill="white" stroke="#666666" points="326.38,-440 153.62,-440 153.62,-408 326.38,-408 326.38,-440"/>
<text text-anchor="start" x="161.62" y="-426.5" font-family="Helvetica,sans-Serif" font-size="10.00">lib_sokoban_core/include</text>
<text text-anchor="middle" x="240" y="-414.5" font-family="Helvetica,sans-Serif" font-size="10.00">/sokoban_core/session_context.hpp</text>
</a>
</g>
</g>
<!-- Node1&#45;&gt;Node2 -->
<g id="edge2_Node000001_Node000002" class="edge">
<title>Node1&#45;&gt;Node2</title>
<g id="a_edge2_Node000001_Node000002"><a xlink:title=" ">
<path fill="none" stroke="#63b8ff" d="M172.28,-469.25C186.73,-459.81 203.32,-448.97 216.47,-440.38"/>
<polygon fill="#63b8ff" stroke="#63b8ff" points="170.4,-466.3 163.95,-474.7 174.23,-472.16 170.4,-466.3"/>
</a>
</g>
</g>
<!-- Node11 -->
<g id="Node000011" class="node">
<title>Node11</title>
<g id="a_Node000011"><a xlink:href="../../df/d0a/main_8cpp.html" target="_top" xlink:title=" ">
<polygon fill="white" stroke="#666666" points="182.38,-230 57.63,-230 57.63,-210 182.38,-210 182.38,-230"/>
<text text-anchor="middle" x="120" y="-216.5" font-family="Helvetica,sans-Serif" font-size="10.00">sokoban_driver/main.cpp</text>
</a>
</g>
</g>
<!-- Node1&#45;&gt;Node11 -->
<g id="edge20_Node000001_Node000011" class="edge">
<title>Node1&#45;&gt;Node11</title>
<g id="a_edge20_Node000001_Node000011"><a xlink:title=" ">
<path fill="none" stroke="#63b8ff" d="M120.38,-466.83C103.61,-443.77 79.72,-407.39 67,-372 56.67,-343.25 59.23,-334.47 57,-304 55.96,-289.82 50.88,-284.84 57,-272 66.03,-253.08 85.89,-238.9 100.91,-230.36"/>
<polygon fill="#63b8ff" stroke="#63b8ff" points="117.4,-468.69 126.17,-474.64 123.02,-464.52 117.4,-468.69"/>
</a>
</g>
</g>
<!-- Node3 -->
<g id="Node000003" class="node">
<title>Node3</title>
<g id="a_Node000003"><a xlink:href="../../d5/ddc/base__session__context_8hpp.html" target="_top" xlink:title=" ">
<polygon fill="white" stroke="#666666" points="431.62,-100 296.38,-100 296.38,-68 431.62,-68 431.62,-100"/>
<text text-anchor="start" x="304.38" y="-86.5" font-family="Helvetica,sans-Serif" font-size="10.00">lib_base_game/include</text>
<text text-anchor="middle" x="364" y="-74.5" font-family="Helvetica,sans-Serif" font-size="10.00">/base_session_context.hpp</text>
</a>
</g>
</g>
<!-- Node2&#45;&gt;Node3 -->
<g id="edge3_Node000002_Node000003" class="edge">
<title>Node2&#45;&gt;Node3</title>
<g id="a_edge3_Node000002_Node000003"><a xlink:title=" ">
<path fill="none" stroke="#63b8ff" d="M251.82,-397.42C262.97,-370.89 278,-327.93 278,-289 278,-289 278,-289 278,-219 278,-181.06 277.37,-167.85 298,-136 307.52,-121.29 322.79,-109.1 336.24,-100.32"/>
<polygon fill="#63b8ff" stroke="#63b8ff" points="248.72,-395.77 247.93,-406.33 255.13,-398.56 248.72,-395.77"/>
</a>
</g>
</g>
<!-- Node5 -->
<g id="Node000005" class="node">
<title>Node5</title>
<g id="a_Node000005"><a xlink:href="../../db/db9/lib__base__game_2include_2mod_8hpp.html" target="_top" xlink:title=" ">
<polygon fill="white" stroke="#666666" points="297.5,-32 182.5,-32 182.5,0 297.5,0 297.5,-32"/>
<text text-anchor="start" x="190.5" y="-18.5" font-family="Helvetica,sans-Serif" font-size="10.00">lib_base_game/include</text>
<text text-anchor="middle" x="240" y="-6.5" font-family="Helvetica,sans-Serif" font-size="10.00">/mod.hpp</text>
</a>
</g>
</g>
<!-- Node2&#45;&gt;Node5 -->
<g id="edge6_Node000002_Node000005" class="edge">
<title>Node2&#45;&gt;Node5</title>
<g id="a_edge6_Node000002_Node000005"><a xlink:title=" ">
<path fill="none" stroke="#63b8ff" d="M240,-396.52C240,-369.49 240,-326.32 240,-289 240,-289 240,-289 240,-151 240,-107.96 240,-57.15 240,-32.27"/>
<polygon fill="#63b8ff" stroke="#63b8ff" points="236.5,-396.21 240,-406.21 243.5,-396.21 236.5,-396.21"/>
</a>
</g>
</g>
<!-- Node6 -->
<g id="Node000006" class="node">
<title>Node6</title>
<g id="a_Node000006"><a xlink:href="../../d1/dab/game__action_8hpp.html" target="_top" xlink:title=" ">
<polygon fill="white" stroke="#666666" points="463.5,-372 306.5,-372 306.5,-340 463.5,-340 463.5,-372"/>
<text text-anchor="start" x="314.5" y="-358.5" font-family="Helvetica,sans-Serif" font-size="10.00">lib_sokoban_core/include</text>
<text text-anchor="middle" x="385" y="-346.5" font-family="Helvetica,sans-Serif" font-size="10.00">/sokoban_core/game_action.hpp</text>
</a>
</g>
</g>
<!-- Node2&#45;&gt;Node6 -->
<g id="edge7_Node000002_Node000006" class="edge">
<title>Node2&#45;&gt;Node6</title>
<g id="a_edge7_Node000002_Node000006"><a xlink:title=" ">
<path fill="none" stroke="#63b8ff" d="M284.47,-402.76C305.87,-393.02 331.12,-381.52 350.97,-372.49"/>
<polygon fill="#63b8ff" stroke="#63b8ff" points="283.03,-399.57 275.37,-406.9 285.93,-405.94 283.03,-399.57"/>
</a>
</g>
</g>
<!-- Node10 -->
<g id="Node000010" class="node">
<title>Node10</title>
<g id="a_Node000010"><a xlink:href="../../d7/d87/lib__sokoban__core_2include_2sokoban__core_2mod_8hpp.html" target="_top" xlink:title=" ">
<polygon fill="white" stroke="#666666" points="201.75,-372 76.25,-372 76.25,-340 201.75,-340 201.75,-372"/>
<text text-anchor="start" x="84.25" y="-358.5" font-family="Helvetica,sans-Serif" font-size="10.00">lib_sokoban_core/include</text>
<text text-anchor="middle" x="139" y="-346.5" font-family="Helvetica,sans-Serif" font-size="10.00">/sokoban_core/mod.hpp</text>
</a>
</g>
</g>
<!-- Node2&#45;&gt;Node10 -->
<g id="edge15_Node000002_Node000010" class="edge">
<title>Node2&#45;&gt;Node10</title>
<g id="a_edge15_Node000002_Node000010"><a xlink:title=" ">
<path fill="none" stroke="#63b8ff" d="M206.72,-401.25C192.27,-391.81 175.68,-380.97 162.53,-372.38"/>
<polygon fill="#63b8ff" stroke="#63b8ff" points="204.77,-404.16 215.05,-406.7 208.6,-398.3 204.77,-404.16"/>
</a>
</g>
</g>
<!-- Node4 -->
<g id="Node000004" class="node">
<title>Node4</title>
<g id="a_Node000004"><a xlink:href="../../d0/d8e/base__game__action_8cpp.html" target="_top" xlink:title=" ">
<polygon fill="white" stroke="#666666" points="494.75,-32 375.25,-32 375.25,0 494.75,0 494.75,-32"/>
<text text-anchor="start" x="383.25" y="-18.5" font-family="Helvetica,sans-Serif" font-size="10.00">lib_base_game/include</text>
<text text-anchor="middle" x="435" y="-6.5" font-family="Helvetica,sans-Serif" font-size="10.00">/base_game_action.cpp</text>
</a>
</g>
</g>
<!-- Node3&#45;&gt;Node4 -->
<g id="edge4_Node000003_Node000004" class="edge">
<title>Node3&#45;&gt;Node4</title>
<g id="a_edge4_Node000003_Node000004"><a xlink:title=" ">
<path fill="none" stroke="#63b8ff" d="M388.76,-59.99C398.65,-50.79 409.77,-40.46 418.62,-32.22"/>
<polygon fill="#63b8ff" stroke="#63b8ff" points="386.52,-57.29 381.58,-66.66 391.28,-62.42 386.52,-57.29"/>
</a>
</g>
</g>
<!-- Node3&#45;&gt;Node5 -->
<g id="edge5_Node000003_Node000005" class="edge">
<title>Node3&#45;&gt;Node5</title>
<g id="a_edge5_Node000003_Node000005"><a xlink:title=" ">
<path fill="none" stroke="#63b8ff" d="M324.93,-62.2C306.78,-52.54 285.57,-41.26 268.89,-32.38"/>
<polygon fill="#63b8ff" stroke="#63b8ff" points="323.12,-65.21 333.59,-66.81 326.41,-59.03 323.12,-65.21"/>
</a>
</g>
</g>
<!-- Node7 -->
<g id="Node000007" class="node">
<title>Node7</title>
<g id="a_Node000007"><a xlink:href="../../d9/dc0/base__game_8hpp.html" target="_top" xlink:title=" ">
<polygon fill="white" stroke="#666666" points="421.5,-168 306.5,-168 306.5,-136 421.5,-136 421.5,-168"/>
<text text-anchor="start" x="314.5" y="-154.5" font-family="Helvetica,sans-Serif" font-size="10.00">lib_base_game/include</text>
<text text-anchor="middle" x="364" y="-142.5" font-family="Helvetica,sans-Serif" font-size="10.00">/base_game.hpp</text>
</a>
</g>
</g>
<!-- Node6&#45;&gt;Node7 -->
<g id="edge8_Node000006_Node000007" class="edge">
<title>Node6&#45;&gt;Node7</title>
<g id="a_edge8_Node000006_Node000007"><a xlink:title=" ">
<path fill="none" stroke="#63b8ff" d="M369.28,-329.61C365.15,-321.69 361.24,-312.74 359,-304 346.65,-255.72 355.39,-195.93 360.71,-168.31"/>
<polygon fill="#63b8ff" stroke="#63b8ff" points="366.22,-331.3 374.16,-338.32 372.33,-327.88 366.22,-331.3"/>
</a>
</g>
</g>
<!-- Node8 -->
<g id="Node000008" class="node">
<title>Node8</title>
<g id="a_Node000008"><a xlink:href="../../dc/d77/base__game__action_8hpp.html" target="_top" xlink:title=" ">
<polygon fill="white" stroke="#666666" points="487.75,-304 368.25,-304 368.25,-272 487.75,-272 487.75,-304"/>
<text text-anchor="start" x="376.25" y="-290.5" font-family="Helvetica,sans-Serif" font-size="10.00">lib_base_game/include</text>
<text text-anchor="middle" x="428" y="-278.5" font-family="Helvetica,sans-Serif" font-size="10.00">/base_game_action.hpp</text>
</a>
</g>
</g>
<!-- Node6&#45;&gt;Node8 -->
<g id="edge10_Node000006_Node000008" class="edge">
<title>Node6&#45;&gt;Node8</title>
<g id="a_edge10_Node000006_Node000008"><a xlink:title=" ">
<path fill="none" stroke="#63b8ff" d="M401.09,-330.3C406.79,-321.55 413.04,-311.96 418.08,-304.22"/>
<polygon fill="#63b8ff" stroke="#63b8ff" points="398.33,-328.14 395.8,-338.42 404.19,-331.96 398.33,-328.14"/>
</a>
</g>
</g>
<!-- Node7&#45;&gt;Node3 -->
<g id="edge9_Node000007_Node000003" class="edge">
<title>Node7&#45;&gt;Node3</title>
<g id="a_edge9_Node000007_Node000003"><a xlink:title=" ">
<path fill="none" stroke="#63b8ff" d="M364,-124.31C364,-116.12 364,-107.38 364,-100.22"/>
<polygon fill="#63b8ff" stroke="#63b8ff" points="360.5,-124.18 364,-134.18 367.5,-124.18 360.5,-124.18"/>
</a>
</g>
</g>
<!-- Node8&#45;&gt;Node4 -->
<g id="edge14_Node000008_Node000004" class="edge">
<title>Node8&#45;&gt;Node4</title>
<g id="a_edge14_Node000008_Node000004"><a xlink:title=" ">
<path fill="none" stroke="#63b8ff" d="M471.66,-265.33C482.57,-257.66 492.89,-247.91 499,-236 535.61,-164.63 474.26,-69.14 447.01,-32.35"/>
<polygon fill="#63b8ff" stroke="#63b8ff" points="469.8,-262.37 463.29,-270.72 473.59,-268.26 469.8,-262.37"/>
</a>
</g>
</g>
<!-- Node9 -->
<g id="Node000009" class="node">
<title>Node9</title>
<g id="a_Node000009"><a xlink:href="../../db/d29/base__action__factory_8hpp.html" target="_top" xlink:title=" ">
<polygon fill="white" stroke="#666666" points="490.38,-236 365.62,-236 365.62,-204 490.38,-204 490.38,-236"/>
<text text-anchor="start" x="373.62" y="-222.5" font-family="Helvetica,sans-Serif" font-size="10.00">lib_base_game/include</text>
<text text-anchor="middle" x="428" y="-210.5" font-family="Helvetica,sans-Serif" font-size="10.00">/base_action_factory.hpp</text>
</a>
</g>
</g>
<!-- Node8&#45;&gt;Node9 -->
<g id="edge11_Node000008_Node000009" class="edge">
<title>Node8&#45;&gt;Node9</title>
<g id="a_edge11_Node000008_Node000009"><a xlink:title=" ">
<path fill="none" stroke="#63b8ff" d="M428,-260.31C428,-252.12 428,-243.38 428,-236.22"/>
<polygon fill="#63b8ff" stroke="#63b8ff" points="424.5,-260.18 428,-270.18 431.5,-260.18 424.5,-260.18"/>
</a>
</g>
</g>
<!-- Node9&#45;&gt;Node3 -->
<g id="edge13_Node000009_Node000003" class="edge">
<title>Node9&#45;&gt;Node3</title>
<g id="a_edge13_Node000009_Node000003"><a xlink:title=" ">
<path fill="none" stroke="#63b8ff" d="M435.12,-192.85C438.32,-175.79 439.69,-153.53 431,-136 423.47,-120.81 409.01,-108.91 395.44,-100.44"/>
<polygon fill="#63b8ff" stroke="#63b8ff" points="431.79,-191.7 433.04,-202.23 438.62,-193.22 431.79,-191.7"/>
</a>
</g>
</g>
<!-- Node9&#45;&gt;Node7 -->
<g id="edge12_Node000009_Node000007" class="edge">
<title>Node9&#45;&gt;Node7</title>
<g id="a_edge12_Node000009_Node000007"><a xlink:title=" ">
<path fill="none" stroke="#63b8ff" d="M405.14,-195.43C396.37,-186.38 386.59,-176.29 378.76,-168.22"/>
<polygon fill="#63b8ff" stroke="#63b8ff" points="402.63,-197.86 412.1,-202.61 407.65,-192.99 402.63,-197.86"/>
</a>
</g>
</g>
<!-- Node10&#45;&gt;Node5 -->
<g id="edge16_Node000010_Node000005" class="edge">
<title>Node10&#45;&gt;Node5</title>
<g id="a_edge16_Node000010_Node000005"><a xlink:title=" ">
<path fill="none" stroke="#63b8ff" d="M93.56,-334.45C53.02,-312.64 0,-273.99 0,-221 0,-221 0,-221 0,-151 0,-67.85 111.19,-35.81 182.21,-23.83"/>
<polygon fill="#63b8ff" stroke="#63b8ff" points="91.73,-337.44 102.22,-338.93 94.95,-331.23 91.73,-337.44"/>
</a>
</g>
</g>
<!-- Node10&#45;&gt;Node11 -->
<g id="edge17_Node000010_Node000011" class="edge">
<title>Node10&#45;&gt;Node11</title>
<g id="a_edge17_Node000010_Node000011"><a xlink:title=" ">
<path fill="none" stroke="#63b8ff" d="M165.53,-331.32C172.58,-323.41 179.27,-314.03 183,-304 187.96,-290.67 189.12,-284.84 183,-272 173.97,-253.08 154.11,-238.9 139.09,-230.36"/>
<polygon fill="#63b8ff" stroke="#63b8ff" points="163.03,-328.87 158.6,-338.5 168.06,-333.74 163.03,-328.87"/>
</a>
</g>
</g>
<!-- Node12 -->
<g id="Node000012" class="node">
<title>Node12</title>
<g id="a_Node000012"><a xlink:href="../../d5/d6f/mod__dynamic__library_8hpp.html" target="_top" xlink:title=" ">
<polygon fill="white" stroke="#666666" points="173.75,-304 66.25,-304 66.25,-272 173.75,-272 173.75,-304"/>
<text text-anchor="start" x="74.25" y="-290.5" font-family="Helvetica,sans-Serif" font-size="10.00">sokoban_driver/mod</text>
<text text-anchor="middle" x="120" y="-278.5" font-family="Helvetica,sans-Serif" font-size="10.00">_dynamic_library.hpp</text>
</a>
</g>
</g>
<!-- Node10&#45;&gt;Node12 -->
<g id="edge18_Node000010_Node000012" class="edge">
<title>Node10&#45;&gt;Node12</title>
<g id="a_edge18_Node000010_Node000012"><a xlink:title=" ">
<path fill="none" stroke="#63b8ff" d="M131.48,-328.89C129.07,-320.52 126.49,-311.54 124.38,-304.22"/>
<polygon fill="#63b8ff" stroke="#63b8ff" points="128.04,-329.6 134.17,-338.24 134.77,-327.66 128.04,-329.6"/>
</a>
</g>
</g>
<!-- Node12&#45;&gt;Node11 -->
<g id="edge19_Node000012_Node000011" class="edge">
<title>Node12&#45;&gt;Node11</title>
<g id="a_edge19_Node000012_Node000011"><a xlink:title=" ">
<path fill="none" stroke="#63b8ff" d="M120,-260.31C120,-249.67 120,-238.13 120,-230.32"/>
<polygon fill="#63b8ff" stroke="#63b8ff" points="116.5,-260.18 120,-270.18 123.5,-260.18 116.5,-260.18"/>
</a>
</g>
</g>
</g>
</svg>
