<?xml version="1.0" encoding="UTF-8" standalone="no"?>
<!DOCTYPE svg PUBLIC "-//W3C//DTD SVG 1.1//EN"
 "http://www.w3.org/Graphics/SVG/1.1/DTD/svg11.dtd">
<!-- Generated by graphviz version 12.1.2 (20240928.0832)
 -->
<!-- Title: editor_lib/include/editor/remove_graphics_item_command.h Pages: 1 -->
<!--zoomable 393 -->

<svg id="main" version="1.1" xmlns="http://www.w3.org/2000/svg" xmlns:xlink="http://www.w3.org/1999/xlink" xml:space="preserve" onload="init(evt)">

<style type="text/css"><![CDATA[
.node, .edge {opacity: 0.7;}
.node.selected, .edge.selected {opacity: 1;}
.edge:hover path { stroke: red; }
.edge:hover polygon { stroke: red; fill: red; }
]]></style>

<defs>
  <circle id="rim" cx="0" cy="0" r="7"/>
  <circle id="rim2" cx="0" cy="0" r="3.5"/>
  <g id="zoomPlus">
    <use xlink:href="#rim" fill="#404040"><set attributeName="fill" to="#808080" begin="zoomplus.mouseover" end="zoomplus.mouseout"/></use>
    <path d="M-4,0h8M0,-4v8" fill="none" stroke="white" stroke-width="1.5" pointer-events="none"/>
  </g>
  <g id="zoomMin">
    <use xlink:href="#rim" fill="#404040"><set attributeName="fill" to="#808080" begin="zoomminus.mouseover" end="zoomminus.mouseout"/></use>
    <path d="M-4,0h8" fill="none" stroke="white" stroke-width="1.5" pointer-events="none"/>
  </g>
  <g id="arrowUp" transform="translate(30 24)">
    <use xlink:href="#rim"/>
    <path pointer-events="none" fill="none" stroke="white" stroke-width="1.5" d="M0,-3.0v7 M-2.5,-0.5L0,-3.0L2.5,-0.5"/>
  </g>
  <g id="arrowRight" transform="rotate(90) translate(36 -43)">
    <use xlink:href="#rim"/>
    <path pointer-events="none" fill="none" stroke="white" stroke-width="1.5" d="M0,-3.0v7 M-2.5,-0.5L0,-3.0L2.5,-0.5"/>
  </g>
  <g id="arrowDown" transform="rotate(180) translate(-30 -48)">
    <use xlink:href="#rim"/>
    <path pointer-events="none" fill="none" stroke="white" stroke-width="1.5" d="M0,-3.0v7 M-2.5,-0.5L0,-3.0L2.5,-0.5"/>
  </g>
  <g id="arrowLeft" transform="rotate(270) translate(-36 17)">
    <use xlink:href="#rim"/>
    <path pointer-events="none" fill="none" stroke="white" stroke-width="1.5" d="M0,-3.0v7 M-2.5,-0.5L0,-3.0L2.5,-0.5"/>
  </g>
  <g id="resetDef">
    <use xlink:href="#rim2" fill="#404040"><set attributeName="fill" to="#808080" begin="reset.mouseover" end="reset.mouseout"/></use>
  </g>
</defs>
<script type="application/ecmascript">
var viewWidth = 596;
var viewHeight = 393;
var sectionId = 'dynsection-0';
</script>
<script type="application/ecmascript" xlink:href="../../svg.min.js"/>
<svg id="graph" class="graph">
<g id="viewport">
<title>editor_lib/include/editor/remove_graphics_item_command.h</title>
<!-- Node1 -->
<g id="Node000001" class="node">
<title>Node1</title>
<g id="a_Node000001"><a xlink:title=" ">
<polygon fill="#999999" stroke="#666666" points="154.25,-384.5 34,-384.5 34,-342.75 154.25,-342.75 154.25,-384.5"/>
<text text-anchor="start" x="42" y="-371" font-family="Helvetica,sans-Serif" font-size="10.00">editor_lib/include</text>
<text text-anchor="start" x="42" y="-359.75" font-family="Helvetica,sans-Serif" font-size="10.00">/editor/remove_graphics</text>
<text text-anchor="middle" x="94.12" y="-348.5" font-family="Helvetica,sans-Serif" font-size="10.00">_item_command.h</text>
</a>
</g>
</g>
<!-- Node2 -->
<g id="Node000002" class="node">
<title>Node2</title>
<g id="a_Node000002"><a xlink:href="../../d0/d09/command_8h.html" target="_top" xlink:title=" ">
<polygon fill="white" stroke="#666666" points="66.25,-306.75 0,-306.75 0,-287.5 66.25,-287.5 66.25,-306.75"/>
<text text-anchor="middle" x="33.12" y="-293.25" font-family="Helvetica,sans-Serif" font-size="10.00">command.h</text>
</a>
</g>
</g>
<!-- Node1&#45;&gt;Node2 -->
<g id="edge1_Node000001_Node000002" class="edge">
<title>Node1&#45;&gt;Node2</title>
<g id="a_edge1_Node000001_Node000002"><a xlink:title=" ">
<path fill="none" stroke="#63b8ff" d="M75.16,-342.57C66.94,-333.88 57.41,-323.8 49.51,-315.44"/>
<polygon fill="#63b8ff" stroke="#63b8ff" points="52.16,-313.16 42.74,-308.3 47.07,-317.97 52.16,-313.16"/>
</a>
</g>
</g>
<!-- Node3 -->
<g id="Node000003" class="node">
<title>Node3</title>
<g id="a_Node000003"><a xlink:href="../../db/df5/document_8h.html" target="_top" xlink:title=" ">
<polygon fill="white" stroke="#666666" points="398.25,-306.75 332,-306.75 332,-287.5 398.25,-287.5 398.25,-306.75"/>
<text text-anchor="middle" x="365.12" y="-293.25" font-family="Helvetica,sans-Serif" font-size="10.00">document.h</text>
</a>
</g>
</g>
<!-- Node1&#45;&gt;Node3 -->
<g id="edge2_Node000001_Node000003" class="edge">
<title>Node1&#45;&gt;Node3</title>
<g id="a_edge2_Node000001_Node000003"><a xlink:title=" ">
<path fill="none" stroke="#63b8ff" d="M154.61,-348.23C204.94,-336.25 275.44,-319.47 320.7,-308.7"/>
<polygon fill="#63b8ff" stroke="#63b8ff" points="321.24,-312.17 330.16,-306.45 319.62,-305.36 321.24,-312.17"/>
</a>
</g>
</g>
<!-- Node7 -->
<g id="Node000007" class="node">
<title>Node7</title>
<g id="a_Node000007"><a xlink:title=" ">
<polygon fill="#e0e0e0" stroke="#999999" points="238.38,-74.5 187.88,-74.5 187.88,-55.25 238.38,-55.25 238.38,-74.5"/>
<text text-anchor="middle" x="213.12" y="-61" font-family="Helvetica,sans-Serif" font-size="10.00">memory</text>
</a>
</g>
</g>
<!-- Node1&#45;&gt;Node7 -->
<g id="edge21_Node000001_Node000007" class="edge">
<title>Node1&#45;&gt;Node7</title>
<g id="a_edge21_Node000001_Node000007"><a xlink:title=" ">
<path fill="none" stroke="#63b8ff" d="M94.12,-342.65C94.12,-317.91 94.12,-274.47 94.12,-237.25 94.12,-237.25 94.12,-237.25 94.12,-174.38 94.12,-128.14 143.79,-96.36 178.95,-79.65"/>
<polygon fill="#63b8ff" stroke="#63b8ff" points="180.29,-82.89 187.95,-75.58 177.4,-76.52 180.29,-82.89"/>
</a>
</g>
</g>
<!-- Node4 -->
<g id="Node000004" class="node">
<title>Node4</title>
<g id="a_Node000004"><a xlink:href="../../d8/d38/graphics__item_8h.html" target="_top" xlink:title=" ">
<polygon fill="white" stroke="#666666" points="358.25,-129.75 274,-129.75 274,-110.5 358.25,-110.5 358.25,-129.75"/>
<text text-anchor="middle" x="316.12" y="-116.25" font-family="Helvetica,sans-Serif" font-size="10.00">graphics_item.h</text>
</a>
</g>
</g>
<!-- Node3&#45;&gt;Node4 -->
<g id="edge3_Node000003_Node000004" class="edge">
<title>Node3&#45;&gt;Node4</title>
<g id="a_edge3_Node000003_Node000004"><a xlink:title=" ">
<path fill="none" stroke="#63b8ff" d="M398.74,-293.67C450.61,-289.11 546.38,-277.33 567.12,-251.5 575.61,-240.93 570.98,-233.99 567.12,-221 558.78,-192.91 555.33,-182.27 531.12,-165.75 483.23,-133.06 416.35,-123.46 369.95,-121.06"/>
<polygon fill="#63b8ff" stroke="#63b8ff" points="370.27,-117.57 360.13,-120.65 369.98,-124.56 370.27,-117.57"/>
</a>
</g>
</g>
<!-- Node5 -->
<g id="Node000005" class="node">
<title>Node5</title>
<g id="a_Node000005"><a xlink:href="../../d5/da3/serializable_8h.html" target="_top" xlink:title=" ">
<polygon fill="white" stroke="#666666" points="379.88,-74.5 308.38,-74.5 308.38,-55.25 379.88,-55.25 379.88,-74.5"/>
<text text-anchor="middle" x="344.12" y="-61" font-family="Helvetica,sans-Serif" font-size="10.00">serializable.h</text>
</a>
</g>
</g>
<!-- Node3&#45;&gt;Node5 -->
<g id="edge7_Node000003_Node000005" class="edge">
<title>Node3&#45;&gt;Node5</title>
<g id="a_edge7_Node000003_Node000005"><a xlink:title=" ">
<path fill="none" stroke="#63b8ff" d="M398.68,-294.28C453.93,-290.46 560.23,-279.56 583.12,-251.5 591.7,-241 586.18,-234.21 583.12,-221 576.97,-194.37 575.59,-184.94 556.12,-165.75 509.59,-119.87 437.99,-92.25 391.1,-78.03"/>
<polygon fill="#63b8ff" stroke="#63b8ff" points="392.36,-74.75 381.78,-75.29 390.39,-81.47 392.36,-74.75"/>
</a>
</g>
</g>
<!-- Node3&#45;&gt;Node7 -->
<g id="edge20_Node000003_Node000007" class="edge">
<title>Node3&#45;&gt;Node7</title>
<g id="a_edge20_Node000003_Node000007"><a xlink:title=" ">
<path fill="none" stroke="#63b8ff" d="M331.86,-292.84C282.59,-287.28 193.68,-274.31 172.12,-251.5 128.61,-205.45 122.24,-166.89 151.12,-110.5 157.74,-97.59 170.02,-87.57 181.92,-80.32"/>
<polygon fill="#63b8ff" stroke="#63b8ff" points="183.33,-83.54 190.36,-75.62 179.92,-77.42 183.33,-83.54"/>
</a>
</g>
</g>
<!-- Node8 -->
<g id="Node000008" class="node">
<title>Node8</title>
<g id="a_Node000008"><a xlink:href="../../d7/d8d/graphics__items__prototype__collection_8h.html" target="_top" xlink:title=" ">
<polygon fill="white" stroke="#666666" points="325.62,-251.5 198.62,-251.5 198.62,-221 325.62,-221 325.62,-251.5"/>
<text text-anchor="start" x="206.62" y="-238" font-family="Helvetica,sans-Serif" font-size="10.00">graphics_items_prototype</text>
<text text-anchor="middle" x="262.12" y="-226.75" font-family="Helvetica,sans-Serif" font-size="10.00">_collection.h</text>
</a>
</g>
</g>
<!-- Node3&#45;&gt;Node8 -->
<g id="edge8_Node000003_Node000008" class="edge">
<title>Node3&#45;&gt;Node8</title>
<g id="a_edge8_Node000003_Node000008"><a xlink:title=" ">
<path fill="none" stroke="#63b8ff" d="M349.48,-287.18C335.62,-279.26 314.87,-267.4 297.07,-257.22"/>
<polygon fill="#63b8ff" stroke="#63b8ff" points="299.28,-254.46 288.86,-252.53 295.81,-260.53 299.28,-254.46"/>
</a>
</g>
</g>
<!-- Node10 -->
<g id="Node000010" class="node">
<title>Node10</title>
<g id="a_Node000010"><a xlink:title=" ">
<polygon fill="#e0e0e0" stroke="#999999" points="213.88,-129.75 160.38,-129.75 160.38,-110.5 213.88,-110.5 213.88,-129.75"/>
<text text-anchor="middle" x="187.12" y="-116.25" font-family="Helvetica,sans-Serif" font-size="10.00">iostream</text>
</a>
</g>
</g>
<!-- Node3&#45;&gt;Node10 -->
<g id="edge16_Node000003_Node000010" class="edge">
<title>Node3&#45;&gt;Node10</title>
<g id="a_edge16_Node000003_Node000010"><a xlink:title=" ">
<path fill="none" stroke="#63b8ff" d="M331.51,-292.35C285.76,-286.45 207.55,-273.4 190.12,-251.5 164.94,-219.85 173.45,-168.89 180.88,-140.98"/>
<polygon fill="#63b8ff" stroke="#63b8ff" points="184.24,-141.96 183.68,-131.38 177.52,-140 184.24,-141.96"/>
</a>
</g>
</g>
<!-- Node14 -->
<g id="Node000014" class="node">
<title>Node14</title>
<g id="a_Node000014"><a xlink:title=" ">
<polygon fill="#e0e0e0" stroke="#999999" points="386.62,-245.88 343.62,-245.88 343.62,-226.62 386.62,-226.62 386.62,-245.88"/>
<text text-anchor="middle" x="365.12" y="-232.38" font-family="Helvetica,sans-Serif" font-size="10.00">vector</text>
</a>
</g>
</g>
<!-- Node3&#45;&gt;Node14 -->
<g id="edge17_Node000003_Node000014" class="edge">
<title>Node3&#45;&gt;Node14</title>
<g id="a_edge17_Node000003_Node000014"><a xlink:title=" ">
<path fill="none" stroke="#63b8ff" d="M365.12,-287.18C365.12,-279.4 365.12,-267.83 365.12,-257.78"/>
<polygon fill="#63b8ff" stroke="#63b8ff" points="368.63,-257.79 365.13,-247.79 361.63,-257.79 368.63,-257.79"/>
</a>
</g>
</g>
<!-- Node15 -->
<g id="Node000015" class="node">
<title>Node15</title>
<g id="a_Node000015"><a xlink:title=" ">
<polygon fill="#e0e0e0" stroke="#999999" points="481.88,-245.88 404.38,-245.88 404.38,-226.62 481.88,-226.62 481.88,-245.88"/>
<text text-anchor="middle" x="443.12" y="-232.38" font-family="Helvetica,sans-Serif" font-size="10.00">unordered_set</text>
</a>
</g>
</g>
<!-- Node3&#45;&gt;Node15 -->
<g id="edge18_Node000003_Node000015" class="edge">
<title>Node3&#45;&gt;Node15</title>
<g id="a_edge18_Node000003_Node000015"><a xlink:title=" ">
<path fill="none" stroke="#63b8ff" d="M376.97,-287.18C389,-278.11 407.86,-263.87 422.37,-252.91"/>
<polygon fill="#63b8ff" stroke="#63b8ff" points="424.09,-256.01 429.96,-247.19 419.87,-250.42 424.09,-256.01"/>
</a>
</g>
</g>
<!-- Node16 -->
<g id="Node000016" class="node">
<title>Node16</title>
<g id="a_Node000016"><a xlink:title=" ">
<polygon fill="#e0e0e0" stroke="#999999" points="558.12,-245.88 500.12,-245.88 500.12,-226.62 558.12,-226.62 558.12,-245.88"/>
<text text-anchor="middle" x="529.12" y="-232.38" font-family="Helvetica,sans-Serif" font-size="10.00">functional</text>
</a>
</g>
</g>
<!-- Node3&#45;&gt;Node16 -->
<g id="edge19_Node000003_Node000016" class="edge">
<title>Node3&#45;&gt;Node16</title>
<g id="a_edge19_Node000003_Node000016"><a xlink:title=" ">
<path fill="none" stroke="#63b8ff" d="M391.24,-287.03C416.75,-278.11 456.68,-264.06 491.12,-251.5 492.25,-251.09 493.39,-250.67 494.55,-250.25"/>
<polygon fill="#63b8ff" stroke="#63b8ff" points="495.45,-253.65 503.61,-246.89 493.01,-247.08 495.45,-253.65"/>
</a>
</g>
</g>
<!-- Node4&#45;&gt;Node5 -->
<g id="edge4_Node000004_Node000005" class="edge">
<title>Node4&#45;&gt;Node5</title>
<g id="a_edge4_Node000004_Node000005"><a xlink:title=" ">
<path fill="none" stroke="#63b8ff" d="M320.75,-110.33C324.37,-103.44 329.55,-93.59 334.12,-84.91"/>
<polygon fill="#63b8ff" stroke="#63b8ff" points="337.14,-86.68 338.7,-76.2 330.94,-83.42 337.14,-86.68"/>
</a>
</g>
</g>
<!-- Node4&#45;&gt;Node7 -->
<g id="edge6_Node000004_Node000007" class="edge">
<title>Node4&#45;&gt;Node7</title>
<g id="a_edge6_Node000004_Node000007"><a xlink:title=" ">
<path fill="none" stroke="#63b8ff" d="M298.65,-110.09C282.82,-101.91 259.22,-89.71 240.82,-80.19"/>
<polygon fill="#63b8ff" stroke="#63b8ff" points="242.52,-77.13 232.03,-75.65 239.3,-83.35 242.52,-77.13"/>
</a>
</g>
</g>
<!-- Node6 -->
<g id="Node000006" class="node">
<title>Node6</title>
<g id="a_Node000006"><a xlink:title=" ">
<polygon fill="#e0e0e0" stroke="#999999" points="366.38,-19.25 321.88,-19.25 321.88,0 366.38,0 366.38,-19.25"/>
<text text-anchor="middle" x="344.12" y="-5.75" font-family="Helvetica,sans-Serif" font-size="10.00">iosfwd</text>
</a>
</g>
</g>
<!-- Node5&#45;&gt;Node6 -->
<g id="edge5_Node000005_Node000006" class="edge">
<title>Node5&#45;&gt;Node6</title>
<g id="a_edge5_Node000005_Node000006"><a xlink:title=" ">
<path fill="none" stroke="#63b8ff" d="M344.12,-55.08C344.12,-48.57 344.12,-39.42 344.12,-31.12"/>
<polygon fill="#63b8ff" stroke="#63b8ff" points="347.63,-31.12 344.13,-21.12 340.63,-31.12 347.63,-31.12"/>
</a>
</g>
</g>
<!-- Node9 -->
<g id="Node000009" class="node">
<title>Node9</title>
<g id="a_Node000009"><a xlink:href="../../d3/d24/primitive__items_8h.html" target="_top" xlink:title=" ">
<polygon fill="white" stroke="#666666" points="287.88,-185 198.38,-185 198.38,-165.75 287.88,-165.75 287.88,-185"/>
<text text-anchor="middle" x="243.12" y="-171.5" font-family="Helvetica,sans-Serif" font-size="10.00">primitive_items.h</text>
</a>
</g>
</g>
<!-- Node8&#45;&gt;Node9 -->
<g id="edge9_Node000008_Node000009" class="edge">
<title>Node8&#45;&gt;Node9</title>
<g id="a_edge9_Node000008_Node000009"><a xlink:title=" ">
<path fill="none" stroke="#63b8ff" d="M257.43,-220.7C255.06,-213.37 252.16,-204.37 249.59,-196.41"/>
<polygon fill="#63b8ff" stroke="#63b8ff" points="252.92,-195.33 246.52,-186.89 246.26,-197.48 252.92,-195.33"/>
</a>
</g>
</g>
<!-- Node11 -->
<g id="Node000011" class="node">
<title>Node11</title>
<g id="a_Node000011"><a xlink:title=" ">
<polygon fill="#e0e0e0" stroke="#999999" points="388.5,-185 305.75,-185 305.75,-165.75 388.5,-165.75 388.5,-185"/>
<text text-anchor="middle" x="347.12" y="-171.5" font-family="Helvetica,sans-Serif" font-size="10.00">unordered_map</text>
</a>
</g>
</g>
<!-- Node8&#45;&gt;Node11 -->
<g id="edge13_Node000008_Node000011" class="edge">
<title>Node8&#45;&gt;Node11</title>
<g id="a_edge13_Node000008_Node000011"><a xlink:title=" ">
<path fill="none" stroke="#63b8ff" d="M283.14,-220.7C295.83,-211.9 311.99,-200.71 324.9,-191.77"/>
<polygon fill="#63b8ff" stroke="#63b8ff" points="326.55,-194.88 332.78,-186.31 322.56,-189.13 326.55,-194.88"/>
</a>
</g>
</g>
<!-- Node12 -->
<g id="Node000012" class="node">
<title>Node12</title>
<g id="a_Node000012"><a xlink:title=" ">
<polygon fill="#e0e0e0" stroke="#999999" points="464.12,-185 406.12,-185 406.12,-165.75 464.12,-165.75 464.12,-185"/>
<text text-anchor="middle" x="435.12" y="-171.5" font-family="Helvetica,sans-Serif" font-size="10.00">stdexcept</text>
</a>
</g>
</g>
<!-- Node8&#45;&gt;Node12 -->
<g id="edge14_Node000008_Node000012" class="edge">
<title>Node8&#45;&gt;Node12</title>
<g id="a_edge14_Node000008_Node000012"><a xlink:title=" ">
<path fill="none" stroke="#63b8ff" d="M305.33,-220.55C333.75,-210.88 370.55,-198.35 397.71,-189.11"/>
<polygon fill="#63b8ff" stroke="#63b8ff" points="398.57,-192.51 406.91,-185.98 396.31,-185.89 398.57,-192.51"/>
</a>
</g>
</g>
<!-- Node13 -->
<g id="Node000013" class="node">
<title>Node13</title>
<g id="a_Node000013"><a xlink:title=" ">
<polygon fill="#e0e0e0" stroke="#999999" points="522.12,-185 482.12,-185 482.12,-165.75 522.12,-165.75 522.12,-185"/>
<text text-anchor="middle" x="502.12" y="-171.5" font-family="Helvetica,sans-Serif" font-size="10.00">string</text>
</a>
</g>
</g>
<!-- Node8&#45;&gt;Node13 -->
<g id="edge15_Node000008_Node000013" class="edge">
<title>Node8&#45;&gt;Node13</title>
<g id="a_edge15_Node000008_Node000013"><a xlink:title=" ">
<path fill="none" stroke="#63b8ff" d="M326.07,-220.99C365.4,-211.99 417.07,-199.78 471.06,-185.45"/>
<polygon fill="#63b8ff" stroke="#63b8ff" points="471.67,-188.91 480.42,-182.94 469.86,-182.14 471.67,-188.91"/>
</a>
</g>
</g>
<!-- Node9&#45;&gt;Node4 -->
<g id="edge10_Node000009_Node000004" class="edge">
<title>Node9&#45;&gt;Node4</title>
<g id="a_edge10_Node000009_Node000004"><a xlink:title=" ">
<path fill="none" stroke="#63b8ff" d="M255.51,-165.34C266.27,-157.49 282.1,-145.95 294.88,-136.62"/>
<polygon fill="#63b8ff" stroke="#63b8ff" points="296.69,-139.64 302.7,-130.92 292.56,-133.98 296.69,-139.64"/>
</a>
</g>
</g>
<!-- Node9&#45;&gt;Node7 -->
<g id="edge12_Node000009_Node000007" class="edge">
<title>Node9&#45;&gt;Node7</title>
<g id="a_edge12_Node000009_Node000007"><a xlink:title=" ">
<path fill="none" stroke="#63b8ff" d="M240.67,-165.5C235.88,-148.17 225.18,-109.48 218.62,-85.74"/>
<polygon fill="#63b8ff" stroke="#63b8ff" points="222.06,-85.04 216.02,-76.34 215.31,-86.91 222.06,-85.04"/>
</a>
</g>
</g>
<!-- Node9&#45;&gt;Node10 -->
<g id="edge11_Node000009_Node000010" class="edge">
<title>Node9&#45;&gt;Node10</title>
<g id="a_edge11_Node000009_Node000010"><a xlink:title=" ">
<path fill="none" stroke="#63b8ff" d="M233.63,-165.34C225.69,-157.8 214.18,-146.85 204.59,-137.73"/>
<polygon fill="#63b8ff" stroke="#63b8ff" points="207.24,-135.42 197.58,-131.07 202.42,-140.49 207.24,-135.42"/>
</a>
</g>
</g>
</g>
</svg>

<g id="navigator" transform="translate(0 0)" fill="#404254">
  <rect fill="#f2f5e9" fill-opacity="0.5" stroke="#606060" stroke-width=".5" x="0" y="0" width="60" height="60"/>
  <use id="zoomplus" xlink:href="#zoomPlus" x="17" y="9" onmousedown="handleZoom(evt,'in')"/>
  <use id="zoomminus" xlink:href="#zoomMin" x="42" y="9" onmousedown="handleZoom(evt,'out')"/>
  <use id="reset" xlink:href="#resetDef" x="30" y="36" onmousedown="handleReset()"/>
   <use id="arrowup" xlink:href="#arrowUp" x="0" y="0" onmousedown="handlePan(0,-1)"/>
  <use id="arrowright" xlink:href="#arrowRight" x="0" y="0" onmousedown="handlePan(1,0)"/>
  <use id="arrowdown" xlink:href="#arrowDown" x="0" y="0" onmousedown="handlePan(0,1)"/>
  <use id="arrowleft" xlink:href="#arrowLeft" x="0" y="0" onmousedown="handlePan(-1,0)"/>
</g>
<svg viewBox="0 0 15 15" width="100%" height="30px" preserveAspectRatio="xMaxYMin meet">
 <g id="arrow_out" transform="scale(0.3 0.3)">
  <a xlink:href="remove__graphics__item__command_8h__incl_org.svg" target="_base">
   <rect id="button" ry="5" rx="5" y="6" x="6" height="38" width="38"
        fill="#f2f5e9" fill-opacity="0.5" stroke="#606060" stroke-width="1.0"/>
   <path id="arrow"
     d="M 11.500037,31.436501 C 11.940474,20.09759 22.043105,11.32322 32.158766,21.979434 L 37.068811,17.246167 C 37.068811,17.246167 37.088388,32 37.088388,32 L 22.160133,31.978069 C 22.160133,31.978069 26.997745,27.140456 26.997745,27.140456 C 18.528582,18.264221 13.291696,25.230495 11.500037,31.436501 z"
     style="fill:#404040;"/>
  </a>
 </g>
</svg>

<style type='text/css'>
<![CDATA[
[data-mouse-over-selected='false'] { opacity: 0.7; }
[data-mouse-over-selected='true']  { opacity: 1.0; }
]]>
</style>
<script type="application/ecmascript"><![CDATA[
document.addEventListener('DOMContentLoaded', (event) => {
  highlightEdges();
  highlightAdjacentNodes();
});
]]></script>
</svg>
