<?xml version="1.0" encoding="UTF-8" standalone="no"?>
<!DOCTYPE svg PUBLIC "-//W3C//DTD SVG 1.1//EN"
 "http://www.w3.org/Graphics/SVG/1.1/DTD/svg11.dtd">
<!-- Generated by graphviz version 12.1.1 (20240910.0053)
 -->
<!-- Title: lib_sokoban_core/include/tui/menu_collection.hpp Pages: 1 -->
<svg width="364pt" height="208pt"
 viewBox="0.00 0.00 363.62 208.00" xmlns="http://www.w3.org/2000/svg" xmlns:xlink="http://www.w3.org/1999/xlink">
<g id="graph0" class="graph" transform="scale(1 1) rotate(0) translate(4 204)">
<title>lib_sokoban_core/include/tui/menu_collection.hpp</title>
<!-- Node1 -->
<g id="Node000001" class="node">
<title>Node1</title>
<g id="a_Node000001"><a xlink:title=" ">
<polygon fill="#999999" stroke="#666666" points="288.25,-200 162.75,-200 162.75,-168 288.25,-168 288.25,-200"/>
<text text-anchor="start" x="170.75" y="-186.5" font-family="Helvetica,sans-Serif" font-size="10.00">lib_sokoban_core/include</text>
<text text-anchor="middle" x="225.5" y="-174.5" font-family="Helvetica,sans-Serif" font-size="10.00">/tui/menu_collection.hpp</text>
</a>
</g>
</g>
<!-- Node2 -->
<g id="Node000002" class="node">
<title>Node2</title>
<g id="a_Node000002"><a xlink:href="../../d9/d8f/menu_8hpp.html" target="_top" xlink:title=" ">
<polygon fill="white" stroke="#666666" points="197.88,-132 139.12,-132 139.12,-112 197.88,-112 197.88,-132"/>
<text text-anchor="middle" x="168.5" y="-118.5" font-family="Helvetica,sans-Serif" font-size="10.00">menu.hpp</text>
</a>
</g>
</g>
<!-- Node1&#45;&gt;Node2 -->
<g id="edge1_Node000001_Node000002" class="edge">
<title>Node1&#45;&gt;Node2</title>
<g id="a_edge1_Node000001_Node000002"><a xlink:title=" ">
<path fill="none" stroke="#63b8ff" d="M210.82,-167.55C202.99,-159.3 193.31,-149.12 185.19,-140.57"/>
<polygon fill="#63b8ff" stroke="#63b8ff" points="187.91,-138.34 178.48,-133.51 182.83,-143.17 187.91,-138.34"/>
</a>
</g>
</g>
<!-- Node7 -->
<g id="Node000007" class="node">
<title>Node7</title>
<g id="a_Node000007"><a xlink:href="../../dd/d85/main__menu__entries__id_8hpp.html" target="_top" xlink:title=" ">
<polygon fill="white" stroke="#666666" points="355.62,-132 223.38,-132 223.38,-112 355.62,-112 355.62,-132"/>
<text text-anchor="middle" x="289.5" y="-118.5" font-family="Helvetica,sans-Serif" font-size="10.00">main_menu_entries_id.hpp</text>
</a>
</g>
</g>
<!-- Node1&#45;&gt;Node7 -->
<g id="edge7_Node000001_Node000007" class="edge">
<title>Node1&#45;&gt;Node7</title>
<g id="a_edge7_Node000001_Node000007"><a xlink:title=" ">
<path fill="none" stroke="#63b8ff" d="M241.98,-167.55C250.96,-159.13 262.1,-148.69 271.33,-140.04"/>
<polygon fill="#63b8ff" stroke="#63b8ff" points="273.46,-142.84 278.36,-133.44 268.67,-137.73 273.46,-142.84"/>
</a>
</g>
</g>
<!-- Node3 -->
<g id="Node000003" class="node">
<title>Node3</title>
<g id="a_Node000003"><a xlink:href="../../d1/ded/menu__entry_8hpp.html" target="_top" xlink:title=" ">
<polygon fill="white" stroke="#666666" points="85,-76 0,-76 0,-56 85,-56 85,-76"/>
<text text-anchor="middle" x="42.5" y="-62.5" font-family="Helvetica,sans-Serif" font-size="10.00">menu_entry.hpp</text>
</a>
</g>
</g>
<!-- Node2&#45;&gt;Node3 -->
<g id="edge2_Node000002_Node000003" class="edge">
<title>Node2&#45;&gt;Node3</title>
<g id="a_edge2_Node000002_Node000003"><a xlink:title=" ">
<path fill="none" stroke="#63b8ff" d="M146.55,-111.59C126.8,-103.13 97.51,-90.58 75.03,-80.94"/>
<polygon fill="#63b8ff" stroke="#63b8ff" points="76.58,-77.8 66.01,-77.08 73.82,-84.23 76.58,-77.8"/>
</a>
</g>
</g>
<!-- Node4 -->
<g id="Node000004" class="node">
<title>Node4</title>
<g id="a_Node000004"><a xlink:title=" ">
<polygon fill="#e0e0e0" stroke="#999999" points="97.5,-20 57.5,-20 57.5,0 97.5,0 97.5,-20"/>
<text text-anchor="middle" x="77.5" y="-6.5" font-family="Helvetica,sans-Serif" font-size="10.00">string</text>
</a>
</g>
</g>
<!-- Node2&#45;&gt;Node4 -->
<g id="edge6_Node000002_Node000004" class="edge">
<title>Node2&#45;&gt;Node4</title>
<g id="a_edge6_Node000002_Node000004"><a xlink:title=" ">
<path fill="none" stroke="#63b8ff" d="M160.74,-111.62C145.63,-93.36 112.02,-52.73 92.45,-29.07"/>
<polygon fill="#63b8ff" stroke="#63b8ff" points="95.27,-27 86.2,-21.52 89.88,-31.46 95.27,-27"/>
</a>
</g>
</g>
<!-- Node5 -->
<g id="Node000005" class="node">
<title>Node5</title>
<g id="a_Node000005"><a xlink:title=" ">
<polygon fill="#e0e0e0" stroke="#999999" points="195.25,-76 141.75,-76 141.75,-56 195.25,-56 195.25,-76"/>
<text text-anchor="middle" x="168.5" y="-62.5" font-family="Helvetica,sans-Serif" font-size="10.00">iostream</text>
</a>
</g>
</g>
<!-- Node2&#45;&gt;Node5 -->
<g id="edge4_Node000002_Node000005" class="edge">
<title>Node2&#45;&gt;Node5</title>
<g id="a_edge4_Node000002_Node000005"><a xlink:title=" ">
<path fill="none" stroke="#63b8ff" d="M168.5,-111.59C168.5,-105.01 168.5,-95.96 168.5,-87.73"/>
<polygon fill="#63b8ff" stroke="#63b8ff" points="172,-87.81 168.5,-77.81 165,-87.81 172,-87.81"/>
</a>
</g>
</g>
<!-- Node6 -->
<g id="Node000006" class="node">
<title>Node6</title>
<g id="a_Node000006"><a xlink:title=" ">
<polygon fill="#e0e0e0" stroke="#999999" points="251.38,-76 213.62,-76 213.62,-56 251.38,-56 251.38,-76"/>
<text text-anchor="middle" x="232.5" y="-62.5" font-family="Helvetica,sans-Serif" font-size="10.00">array</text>
</a>
</g>
</g>
<!-- Node2&#45;&gt;Node6 -->
<g id="edge5_Node000002_Node000006" class="edge">
<title>Node2&#45;&gt;Node6</title>
<g id="a_edge5_Node000002_Node000006"><a xlink:title=" ">
<path fill="none" stroke="#63b8ff" d="M179.65,-111.59C188.83,-103.85 202.05,-92.69 212.98,-83.47"/>
<polygon fill="#63b8ff" stroke="#63b8ff" points="214.94,-86.4 220.32,-77.27 210.42,-81.05 214.94,-86.4"/>
</a>
</g>
</g>
<!-- Node3&#45;&gt;Node4 -->
<g id="edge3_Node000003_Node000004" class="edge">
<title>Node3&#45;&gt;Node4</title>
<g id="a_edge3_Node000003_Node000004"><a xlink:title=" ">
<path fill="none" stroke="#63b8ff" d="M48.6,-55.59C53.21,-48.47 59.71,-38.45 65.37,-29.72"/>
<polygon fill="#63b8ff" stroke="#63b8ff" points="68.15,-31.86 70.65,-21.57 62.27,-28.06 68.15,-31.86"/>
</a>
</g>
</g>
<!-- Node8 -->
<g id="Node000008" class="node">
<title>Node8</title>
<g id="a_Node000008"><a xlink:title=" ">
<polygon fill="#e0e0e0" stroke="#999999" points="325.38,-76 269.62,-76 269.62,-56 325.38,-56 325.38,-76"/>
<text text-anchor="middle" x="297.5" y="-62.5" font-family="Helvetica,sans-Serif" font-size="10.00">cinttypes</text>
</a>
</g>
</g>
<!-- Node7&#45;&gt;Node8 -->
<g id="edge8_Node000007_Node000008" class="edge">
<title>Node7&#45;&gt;Node8</title>
<g id="a_edge8_Node000007_Node000008"><a xlink:title=" ">
<path fill="none" stroke="#63b8ff" d="M290.89,-111.59C291.88,-104.93 293.24,-95.75 294.47,-87.44"/>
<polygon fill="#63b8ff" stroke="#63b8ff" points="297.9,-88.2 295.9,-77.8 290.97,-87.17 297.9,-88.2"/>
</a>
</g>
</g>
</g>
</svg>
