<?xml version="1.0" encoding="UTF-8" standalone="no"?>
<!DOCTYPE svg PUBLIC "-//W3C//DTD SVG 1.1//EN"
 "http://www.w3.org/Graphics/SVG/1.1/DTD/svg11.dtd">
<!-- Generated by graphviz version 12.1.2 (20240928.0832)
 -->
<!-- Title: editor_lib/include/editor/primitive_items.h Pages: 1 -->
<svg width="205pt" height="204pt"
 viewBox="0.00 0.00 204.50 204.25" xmlns="http://www.w3.org/2000/svg" xmlns:xlink="http://www.w3.org/1999/xlink">
<g id="graph0" class="graph" transform="scale(1 1) rotate(0) translate(4 200.25)">
<title>editor_lib/include/editor/primitive_items.h</title>
<!-- Node1 -->
<g id="Node000001" class="node">
<title>Node1</title>
<g id="a_Node000001"><a xlink:title=" ">
<polygon fill="#999999" stroke="#666666" points="174.5,-196.25 55,-196.25 55,-165.75 174.5,-165.75 174.5,-196.25"/>
<text text-anchor="start" x="63" y="-182.75" font-family="Helvetica,sans-Serif" font-size="10.00">editor_lib/include</text>
<text text-anchor="middle" x="114.75" y="-171.5" font-family="Helvetica,sans-Serif" font-size="10.00">/editor/primitive_items.h</text>
</a>
</g>
</g>
<!-- Node2 -->
<g id="Node000002" class="node">
<title>Node2</title>
<g id="a_Node000002"><a xlink:href="../../d8/d38/graphics__item_8h.html" target="_top" xlink:title=" ">
<polygon fill="white" stroke="#666666" points="86.88,-129.75 2.62,-129.75 2.62,-110.5 86.88,-110.5 86.88,-129.75"/>
<text text-anchor="middle" x="44.75" y="-116.25" font-family="Helvetica,sans-Serif" font-size="10.00">graphics_item.h</text>
</a>
</g>
</g>
<!-- Node1&#45;&gt;Node2 -->
<g id="edge1_Node000001_Node000002" class="edge">
<title>Node1&#45;&gt;Node2</title>
<g id="a_edge1_Node000001_Node000002"><a xlink:title=" ">
<path fill="none" stroke="#63b8ff" d="M97.45,-165.45C87.4,-157 74.72,-146.33 64.32,-137.58"/>
<polygon fill="#63b8ff" stroke="#63b8ff" points="66.61,-134.93 56.7,-131.18 62.1,-140.29 66.61,-134.93"/>
</a>
</g>
</g>
<!-- Node5 -->
<g id="Node000005" class="node">
<title>Node5</title>
<g id="a_Node000005"><a xlink:title=" ">
<polygon fill="#e0e0e0" stroke="#999999" points="140,-74.5 89.5,-74.5 89.5,-55.25 140,-55.25 140,-74.5"/>
<text text-anchor="middle" x="114.75" y="-61" font-family="Helvetica,sans-Serif" font-size="10.00">memory</text>
</a>
</g>
</g>
<!-- Node1&#45;&gt;Node5 -->
<g id="edge6_Node000001_Node000005" class="edge">
<title>Node1&#45;&gt;Node5</title>
<g id="a_edge6_Node000001_Node000005"><a xlink:title=" ">
<path fill="none" stroke="#63b8ff" d="M114.75,-165.55C114.75,-145.5 114.75,-109.15 114.75,-86.32"/>
<polygon fill="#63b8ff" stroke="#63b8ff" points="118.25,-86.46 114.75,-76.46 111.25,-86.46 118.25,-86.46"/>
</a>
</g>
</g>
<!-- Node6 -->
<g id="Node000006" class="node">
<title>Node6</title>
<g id="a_Node000006"><a xlink:title=" ">
<polygon fill="#e0e0e0" stroke="#999999" points="196.5,-129.75 143,-129.75 143,-110.5 196.5,-110.5 196.5,-129.75"/>
<text text-anchor="middle" x="169.75" y="-116.25" font-family="Helvetica,sans-Serif" font-size="10.00">iostream</text>
</a>
</g>
</g>
<!-- Node1&#45;&gt;Node6 -->
<g id="edge5_Node000001_Node000006" class="edge">
<title>Node1&#45;&gt;Node6</title>
<g id="a_edge5_Node000001_Node000006"><a xlink:title=" ">
<path fill="none" stroke="#63b8ff" d="M128.35,-165.45C135.99,-157.26 145.59,-146.98 153.62,-138.39"/>
<polygon fill="#63b8ff" stroke="#63b8ff" points="155.97,-141 160.24,-131.31 150.85,-136.23 155.97,-141"/>
</a>
</g>
</g>
<!-- Node3 -->
<g id="Node000003" class="node">
<title>Node3</title>
<g id="a_Node000003"><a xlink:href="../../d5/da3/serializable_8h.html" target="_top" xlink:title=" ">
<polygon fill="white" stroke="#666666" points="71.5,-74.5 0,-74.5 0,-55.25 71.5,-55.25 71.5,-74.5"/>
<text text-anchor="middle" x="35.75" y="-61" font-family="Helvetica,sans-Serif" font-size="10.00">serializable.h</text>
</a>
</g>
</g>
<!-- Node2&#45;&gt;Node3 -->
<g id="edge2_Node000002_Node000003" class="edge">
<title>Node2&#45;&gt;Node3</title>
<g id="a_edge2_Node000002_Node000003"><a xlink:title=" ">
<path fill="none" stroke="#63b8ff" d="M43.26,-110.33C42.15,-103.74 40.58,-94.46 39.16,-86.07"/>
<polygon fill="#63b8ff" stroke="#63b8ff" points="42.64,-85.63 37.52,-76.35 35.74,-86.8 42.64,-85.63"/>
</a>
</g>
</g>
<!-- Node2&#45;&gt;Node5 -->
<g id="edge4_Node000002_Node000005" class="edge">
<title>Node2&#45;&gt;Node5</title>
<g id="a_edge4_Node000002_Node000005"><a xlink:title=" ">
<path fill="none" stroke="#63b8ff" d="M56.62,-110.09C66.84,-102.32 81.82,-90.92 94.01,-81.65"/>
<polygon fill="#63b8ff" stroke="#63b8ff" points="96.01,-84.53 101.85,-75.69 91.77,-78.96 96.01,-84.53"/>
</a>
</g>
</g>
<!-- Node4 -->
<g id="Node000004" class="node">
<title>Node4</title>
<g id="a_Node000004"><a xlink:title=" ">
<polygon fill="#e0e0e0" stroke="#999999" points="58,-19.25 13.5,-19.25 13.5,0 58,0 58,-19.25"/>
<text text-anchor="middle" x="35.75" y="-5.75" font-family="Helvetica,sans-Serif" font-size="10.00">iosfwd</text>
</a>
</g>
</g>
<!-- Node3&#45;&gt;Node4 -->
<g id="edge3_Node000003_Node000004" class="edge">
<title>Node3&#45;&gt;Node4</title>
<g id="a_edge3_Node000003_Node000004"><a xlink:title=" ">
<path fill="none" stroke="#63b8ff" d="M35.75,-55.08C35.75,-48.57 35.75,-39.42 35.75,-31.12"/>
<polygon fill="#63b8ff" stroke="#63b8ff" points="39.25,-31.12 35.75,-21.12 32.25,-31.12 39.25,-31.12"/>
</a>
</g>
</g>
</g>
</svg>
