<?xml version="1.0" encoding="UTF-8" standalone="no"?>
<!DOCTYPE svg PUBLIC "-//W3C//DTD SVG 1.1//EN"
 "http://www.w3.org/Graphics/SVG/1.1/DTD/svg11.dtd">
<!-- Generated by graphviz version 12.1.2 (20240928.0832)
 -->
<!-- Title: Widget Pages: 1 -->
<svg width="307pt" height="332pt"
 viewBox="0.00 0.00 307.00 332.00" xmlns="http://www.w3.org/2000/svg" xmlns:xlink="http://www.w3.org/1999/xlink">
<g id="graph0" class="graph" transform="scale(1 1) rotate(0) translate(4 328)">
<title>Widget</title>
<!-- Node1 -->
<g id="Node000001" class="node">
<title>Node1</title>
<g id="a_Node000001"><a xlink:title=" ">
<polygon fill="#999999" stroke="none" points="162,-324 101,-324 101,-245 162,-245 162,-324"/>
<text text-anchor="start" x="116.5" y="-310.5" font-family="Helvetica,sans-Serif" font-size="10.00">Widget</text>
<text text-anchor="start" x="130" y="-295.5" font-family="Helvetica,sans-Serif" font-size="10.00"> </text>
<text text-anchor="start" x="105" y="-280.5" font-family="Helvetica,sans-Serif" font-size="10.00">+</text>
<text text-anchor="start" x="115" y="-280.5" font-family="Helvetica,sans-Serif" font-size="10.00">width()</text>
<text text-anchor="start" x="105" y="-265.5" font-family="Helvetica,sans-Serif" font-size="10.00">+</text>
<text text-anchor="start" x="115" y="-265.5" font-family="Helvetica,sans-Serif" font-size="10.00">height()</text>
<text text-anchor="start" x="105" y="-250.5" font-family="Helvetica,sans-Serif" font-size="10.00">+</text>
<text text-anchor="start" x="115" y="-250.5" font-family="Helvetica,sans-Serif" font-size="10.00">addChild()</text>
<polygon fill="#666666" stroke="#666666" points="101,-307 101,-307 162,-307 162,-307 101,-307"/>
<polygon fill="#666666" stroke="#666666" points="101,-292 101,-292 162,-292 162,-292 101,-292"/>
<polygon fill="none" stroke="#666666" points="101,-245 101,-324 162,-324 162,-245 101,-245"/>
</a>
</g>
</g>
<!-- Node2 -->
<g id="Node000002" class="node">
<title>Node2</title>
<g id="a_Node000002"><a xlink:href="../../d9/d85/classController.html" target="_top" xlink:title=" ">
<polygon fill="white" stroke="none" points="81,-194 0,-194 0,-115 81,-115 81,-194"/>
<text text-anchor="start" x="19.88" y="-180.5" font-family="Helvetica,sans-Serif" font-size="10.00">Controller</text>
<text text-anchor="start" x="39" y="-165.5" font-family="Helvetica,sans-Serif" font-size="10.00"> </text>
<text text-anchor="start" x="4" y="-150.5" font-family="Helvetica,sans-Serif" font-size="10.00">+</text>
<text text-anchor="start" x="14" y="-150.5" font-family="Helvetica,sans-Serif" font-size="10.00">Controller()</text>
<text text-anchor="start" x="4" y="-135.5" font-family="Helvetica,sans-Serif" font-size="10.00">+</text>
<text text-anchor="start" x="14" y="-135.5" font-family="Helvetica,sans-Serif" font-size="10.00">activate()</text>
<text text-anchor="start" x="4" y="-120.5" font-family="Helvetica,sans-Serif" font-size="10.00">+</text>
<text text-anchor="start" x="14" y="-120.5" font-family="Helvetica,sans-Serif" font-size="10.00">setCommand()</text>
<polygon fill="#666666" stroke="#666666" points="0,-177 0,-177 81,-177 81,-177 0,-177"/>
<polygon fill="#666666" stroke="#666666" points="0,-162 0,-162 81,-162 81,-162 0,-162"/>
<polygon fill="none" stroke="#666666" points="0,-115 0,-194 81,-194 81,-115 0,-115"/>
</a>
</g>
</g>
<!-- Node1&#45;&gt;Node2 -->
<g id="edge1_Node000001_Node000002" class="edge">
<title>Node1&#45;&gt;Node2</title>
<g id="a_edge1_Node000001_Node000002"><a xlink:title=" ">
<path fill="none" stroke="#63b8ff" d="M97.55,-235.74C87.73,-221.93 77.14,-207.04 67.78,-193.88"/>
<polygon fill="none" stroke="#63b8ff" points="94.67,-237.74 103.32,-243.86 100.38,-233.68 94.67,-237.74"/>
</a>
</g>
</g>
<!-- Node4 -->
<g id="Node000004" class="node">
<title>Node4</title>
<g id="a_Node000004"><a xlink:href="../../d6/d1a/classMainWindow.html" target="_top" xlink:title=" ">
<polygon fill="white" stroke="none" points="164,-179 99,-179 99,-130 164,-130 164,-179"/>
<text text-anchor="start" x="103.75" y="-165.5" font-family="Helvetica,sans-Serif" font-size="10.00">MainWindow</text>
<text text-anchor="start" x="130" y="-150.5" font-family="Helvetica,sans-Serif" font-size="10.00"> </text>
<text text-anchor="start" x="130" y="-135.5" font-family="Helvetica,sans-Serif" font-size="10.00"> </text>
<polygon fill="#666666" stroke="#666666" points="99,-162 99,-162 164,-162 164,-162 99,-162"/>
<polygon fill="#666666" stroke="#666666" points="99,-147 99,-147 164,-147 164,-147 99,-147"/>
<polygon fill="none" stroke="#666666" points="99,-130 99,-179 164,-179 164,-130 99,-130"/>
</a>
</g>
</g>
<!-- Node1&#45;&gt;Node4 -->
<g id="edge3_Node000001_Node000004" class="edge">
<title>Node1&#45;&gt;Node4</title>
<g id="a_edge3_Node000001_Node000004"><a xlink:title=" ">
<path fill="none" stroke="#63b8ff" d="M131.5,-233.85C131.5,-214.82 131.5,-194.01 131.5,-178.62"/>
<polygon fill="none" stroke="#63b8ff" points="128,-233.58 131.5,-243.58 135,-233.58 128,-233.58"/>
</a>
</g>
</g>
<!-- Node5 -->
<g id="Node000005" class="node">
<title>Node5</title>
<g id="a_Node000005"><a xlink:href="../../d7/d9f/classView.html" target="_top" xlink:title=" ">
<polygon fill="white" stroke="none" points="299,-209 182,-209 182,-100 299,-100 299,-209"/>
<text text-anchor="start" x="229.62" y="-195.5" font-family="Helvetica,sans-Serif" font-size="10.00">View</text>
<text text-anchor="start" x="186.38" y="-180.5" font-family="Helvetica,sans-Serif" font-size="10.00">#</text>
<text text-anchor="start" x="196" y="-180.5" font-family="Helvetica,sans-Serif" font-size="10.00">document_</text>
<text text-anchor="start" x="186" y="-165.5" font-family="Helvetica,sans-Serif" font-size="10.00">+</text>
<text text-anchor="start" x="196" y="-165.5" font-family="Helvetica,sans-Serif" font-size="10.00">View()</text>
<text text-anchor="start" x="186" y="-150.5" font-family="Helvetica,sans-Serif" font-size="10.00">+</text>
<text text-anchor="start" x="196" y="-150.5" font-family="Helvetica,sans-Serif" font-size="10.00">View()</text>
<text text-anchor="start" x="186" y="-135.5" font-family="Helvetica,sans-Serif" font-size="10.00">+</text>
<text text-anchor="start" x="196" y="-135.5" font-family="Helvetica,sans-Serif" font-size="10.00">update()</text>
<text text-anchor="start" x="186" y="-120.5" font-family="Helvetica,sans-Serif" font-size="10.00">+</text>
<text text-anchor="start" x="196" y="-120.5" font-family="Helvetica,sans-Serif" font-size="10.00">setDocument()</text>
<text text-anchor="start" x="186.38" y="-105.5" font-family="Helvetica,sans-Serif" font-size="10.00">#</text>
<text text-anchor="start" x="196" y="-105.5" font-family="Helvetica,sans-Serif" font-size="10.00">onDocumentChanged()</text>
<polygon fill="#666666" stroke="#666666" points="182,-192 182,-192 299,-192 299,-192 182,-192"/>
<polygon fill="#666666" stroke="#666666" points="182,-177 182,-177 194,-177 194,-177 182,-177"/>
<polygon fill="#666666" stroke="#666666" points="194,-177 194,-177 299,-177 299,-177 194,-177"/>
<polygon fill="none" stroke="#666666" points="182,-100 182,-209 299,-209 299,-100 182,-100"/>
</a>
</g>
</g>
<!-- Node1&#45;&gt;Node5 -->
<g id="edge4_Node000001_Node000005" class="edge">
<title>Node1&#45;&gt;Node5</title>
<g id="a_edge4_Node000001_Node000005"><a xlink:title=" ">
<path fill="none" stroke="#63b8ff" d="M169.08,-239.36C177.5,-229.48 186.52,-218.89 195.22,-208.68"/>
<polygon fill="none" stroke="#63b8ff" points="166.66,-236.81 162.84,-246.69 171.99,-241.35 166.66,-236.81"/>
</a>
</g>
</g>
<!-- Node3 -->
<g id="Node000003" class="node">
<title>Node3</title>
<g id="a_Node000003"><a xlink:href="../../de/d6e/classPushButton.html" target="_top" xlink:title=" ">
<polygon fill="white" stroke="none" points="78,-64 3,-64 3,0 78,0 78,-64"/>
<text text-anchor="start" x="15" y="-50.5" font-family="Helvetica,sans-Serif" font-size="10.00">PushButton</text>
<text text-anchor="start" x="39" y="-35.5" font-family="Helvetica,sans-Serif" font-size="10.00"> </text>
<text text-anchor="start" x="7" y="-20.5" font-family="Helvetica,sans-Serif" font-size="10.00">+</text>
<text text-anchor="start" x="17" y="-20.5" font-family="Helvetica,sans-Serif" font-size="10.00">PushButton()</text>
<text text-anchor="start" x="7" y="-5.5" font-family="Helvetica,sans-Serif" font-size="10.00">+</text>
<text text-anchor="start" x="17" y="-5.5" font-family="Helvetica,sans-Serif" font-size="10.00">press()</text>
<polygon fill="#666666" stroke="#666666" points="3,-47 3,-47 78,-47 78,-47 3,-47"/>
<polygon fill="#666666" stroke="#666666" points="3,-32 3,-32 78,-32 78,-32 3,-32"/>
<polygon fill="none" stroke="#666666" points="3,0 3,-64 78,-64 78,0 3,0"/>
</a>
</g>
</g>
<!-- Node2&#45;&gt;Node3 -->
<g id="edge2_Node000002_Node000003" class="edge">
<title>Node2&#45;&gt;Node3</title>
<g id="a_edge2_Node000002_Node000003"><a xlink:title=" ">
<path fill="none" stroke="#63b8ff" d="M40.5,-103.89C40.5,-90.34 40.5,-76.04 40.5,-63.87"/>
<polygon fill="none" stroke="#63b8ff" points="37,-103.53 40.5,-113.53 44,-103.53 37,-103.53"/>
</a>
</g>
</g>
</g>
</svg>
