<?xml version="1.0" encoding="UTF-8" standalone="no"?>
<!DOCTYPE svg PUBLIC "-//W3C//DTD SVG 1.1//EN"
 "http://www.w3.org/Graphics/SVG/1.1/DTD/svg11.dtd">
<!-- Generated by graphviz version 12.1.1 (20240910.0053)
 -->
<!-- Title: lib_sokoban_core/include/sokoban_core/mod.hpp Pages: 1 -->
<svg width="1050pt" height="332pt"
 viewBox="0.00 0.00 1050.25 332.00" xmlns="http://www.w3.org/2000/svg" xmlns:xlink="http://www.w3.org/1999/xlink">
<g id="graph0" class="graph" transform="scale(1 1) rotate(0) translate(4 328)">
<title>lib_sokoban_core/include/sokoban_core/mod.hpp</title>
<!-- Node1 -->
<g id="Node000001" class="node">
<title>Node1</title>
<g id="a_Node000001"><a xlink:title=" ">
<polygon fill="#999999" stroke="#666666" points="320.61,-324 195.11,-324 195.11,-292 320.61,-292 320.61,-324"/>
<text text-anchor="start" x="203.11" y="-310.5" font-family="Helvetica,sans-Serif" font-size="10.00">lib_sokoban_core/include</text>
<text text-anchor="middle" x="257.86" y="-298.5" font-family="Helvetica,sans-Serif" font-size="10.00">/sokoban_core/mod.hpp</text>
</a>
</g>
</g>
<!-- Node2 -->
<g id="Node000002" class="node">
<title>Node2</title>
<g id="a_Node000002"><a xlink:href="../../da/d4c/session__context_8hpp.html" target="_top" xlink:title=" ">
<polygon fill="white" stroke="#666666" points="310.86,-256 204.86,-256 204.86,-236 310.86,-236 310.86,-256"/>
<text text-anchor="middle" x="257.86" y="-242.5" font-family="Helvetica,sans-Serif" font-size="10.00">session_context.hpp</text>
</a>
</g>
</g>
<!-- Node1&#45;&gt;Node2 -->
<g id="edge1_Node000001_Node000002" class="edge">
<title>Node1&#45;&gt;Node2</title>
<g id="a_edge1_Node000001_Node000002"><a xlink:title=" ">
<path fill="none" stroke="#63b8ff" d="M257.86,-291.55C257.86,-284.34 257.86,-275.66 257.86,-267.88"/>
<polygon fill="#63b8ff" stroke="#63b8ff" points="261.36,-267.92 257.86,-257.92 254.36,-267.92 261.36,-267.92"/>
</a>
</g>
</g>
<!-- Node12 -->
<g id="Node000012" class="node">
<title>Node12</title>
<g id="a_Node000012"><a xlink:title=" ">
<polygon fill="#e0e0e0" stroke="#999999" points="89.86,-144 49.86,-144 49.86,-124 89.86,-124 89.86,-144"/>
<text text-anchor="middle" x="69.86" y="-130.5" font-family="Helvetica,sans-Serif" font-size="10.00">string</text>
</a>
</g>
</g>
<!-- Node1&#45;&gt;Node12 -->
<g id="edge35_Node000001_Node000012" class="edge">
<title>Node1&#45;&gt;Node12</title>
<g id="a_edge35_Node000001_Node000012"><a xlink:title=" ">
<path fill="none" stroke="#63b8ff" d="M194.79,-299.96C134.29,-289.47 46.07,-263.59 3.86,-200 -9.64,-179.67 16.06,-160.6 39.23,-148.44"/>
<polygon fill="#63b8ff" stroke="#63b8ff" points="40.76,-151.59 48.19,-144.03 37.67,-145.31 40.76,-151.59"/>
</a>
</g>
</g>
<!-- Node29 -->
<g id="Node000029" class="node">
<title>Node29</title>
<g id="a_Node000029"><a xlink:title=" ">
<polygon fill="#e0e0e0" stroke="#999999" points="416.86,-256 328.86,-256 328.86,-236 416.86,-236 416.86,-256"/>
<text text-anchor="middle" x="372.86" y="-242.5" font-family="Helvetica,sans-Serif" font-size="10.00">boost/config.hpp</text>
</a>
</g>
</g>
<!-- Node1&#45;&gt;Node29 -->
<g id="edge34_Node000001_Node000029" class="edge">
<title>Node1&#45;&gt;Node29</title>
<g id="a_edge34_Node000001_Node000029"><a xlink:title=" ">
<path fill="none" stroke="#63b8ff" d="M287.48,-291.55C305.11,-282.35 327.37,-270.74 344.73,-261.68"/>
<polygon fill="#63b8ff" stroke="#63b8ff" points="346.24,-264.84 353.49,-257.11 343,-258.63 346.24,-264.84"/>
</a>
</g>
</g>
<!-- Node3 -->
<g id="Node000003" class="node">
<title>Node3</title>
<g id="a_Node000003"><a xlink:href="../../d7/dc7/command_8hpp.html" target="_top" xlink:title=" ">
<polygon fill="white" stroke="#666666" points="349.61,-200 272.11,-200 272.11,-180 349.61,-180 349.61,-200"/>
<text text-anchor="middle" x="310.86" y="-186.5" font-family="Helvetica,sans-Serif" font-size="10.00">command.hpp</text>
</a>
</g>
</g>
<!-- Node2&#45;&gt;Node3 -->
<g id="edge2_Node000002_Node000003" class="edge">
<title>Node2&#45;&gt;Node3</title>
<g id="a_edge2_Node000002_Node000003"><a xlink:title=" ">
<path fill="none" stroke="#63b8ff" d="M267.09,-235.59C274.47,-228.08 285,-217.35 293.88,-208.3"/>
<polygon fill="#63b8ff" stroke="#63b8ff" points="296.17,-210.97 300.68,-201.38 291.17,-206.06 296.17,-210.97"/>
</a>
</g>
</g>
<!-- Node5 -->
<g id="Node000005" class="node">
<title>Node5</title>
<g id="a_Node000005"><a xlink:href="../../dd/dc8/game__state_8hpp.html" target="_top" xlink:title=" ">
<polygon fill="white" stroke="#666666" points="453.74,-200 367.99,-200 367.99,-180 453.74,-180 453.74,-200"/>
<text text-anchor="middle" x="410.86" y="-186.5" font-family="Helvetica,sans-Serif" font-size="10.00">game_state.hpp</text>
</a>
</g>
</g>
<!-- Node2&#45;&gt;Node5 -->
<g id="edge4_Node000002_Node000005" class="edge">
<title>Node2&#45;&gt;Node5</title>
<g id="a_edge4_Node000002_Node000005"><a xlink:title=" ">
<path fill="none" stroke="#63b8ff" d="M284.51,-235.59C309.04,-226.94 345.69,-214 373.21,-204.29"/>
<polygon fill="#63b8ff" stroke="#63b8ff" points="374.31,-207.61 382.58,-200.98 371.98,-201.01 374.31,-207.61"/>
</a>
</g>
</g>
<!-- Node7 -->
<g id="Node000007" class="node">
<title>Node7</title>
<g id="a_Node000007"><a xlink:href="../../d9/d85/player_8hpp.html" target="_top" xlink:title=" ">
<polygon fill="white" stroke="#666666" points="236.36,-200 175.36,-200 175.36,-180 236.36,-180 236.36,-200"/>
<text text-anchor="middle" x="205.86" y="-186.5" font-family="Helvetica,sans-Serif" font-size="10.00">player.hpp</text>
</a>
</g>
</g>
<!-- Node2&#45;&gt;Node7 -->
<g id="edge6_Node000002_Node000007" class="edge">
<title>Node2&#45;&gt;Node7</title>
<g id="a_edge6_Node000002_Node000007"><a xlink:title=" ">
<path fill="none" stroke="#63b8ff" d="M248.81,-235.59C241.65,-228.16 231.45,-217.58 222.8,-208.58"/>
<polygon fill="#63b8ff" stroke="#63b8ff" points="225.32,-206.16 215.87,-201.39 220.28,-211.02 225.32,-206.16"/>
</a>
</g>
</g>
<!-- Node10 -->
<g id="Node000010" class="node">
<title>Node10</title>
<g id="a_Node000010"><a xlink:title=" ">
<polygon fill="#e0e0e0" stroke="#999999" points="83.36,-82 22.36,-82 22.36,-62 83.36,-62 83.36,-82"/>
<text text-anchor="middle" x="52.86" y="-68.5" font-family="Helvetica,sans-Serif" font-size="10.00">filesystem</text>
</a>
</g>
</g>
<!-- Node2&#45;&gt;Node10 -->
<g id="edge32_Node000002_Node000010" class="edge">
<title>Node2&#45;&gt;Node10</title>
<g id="a_edge32_Node000002_Node000010"><a xlink:title=" ">
<path fill="none" stroke="#63b8ff" d="M204.77,-236.8C152.91,-225.66 76.72,-200.24 40.86,-144 31.01,-128.54 36.38,-107.5 42.77,-92.34"/>
<polygon fill="#63b8ff" stroke="#63b8ff" points="45.86,-93.99 46.97,-83.46 39.53,-91 45.86,-93.99"/>
</a>
</g>
</g>
<!-- Node15 -->
<g id="Node000015" class="node">
<title>Node15</title>
<g id="a_Node000015"><a xlink:href="../../d5/ddc/console_8hpp.html" target="_top" xlink:title=" ">
<polygon fill="white" stroke="#666666" points="553.86,-200 471.86,-200 471.86,-180 553.86,-180 553.86,-200"/>
<text text-anchor="middle" x="512.86" y="-186.5" font-family="Helvetica,sans-Serif" font-size="10.00">tui/console.hpp</text>
</a>
</g>
</g>
<!-- Node2&#45;&gt;Node15 -->
<g id="edge16_Node000002_Node000015" class="edge">
<title>Node2&#45;&gt;Node15</title>
<g id="a_edge16_Node000002_Node000015"><a xlink:title=" ">
<path fill="none" stroke="#63b8ff" d="M302.57,-235.53C346.65,-226.2 413.97,-211.94 460.52,-202.08"/>
<polygon fill="#63b8ff" stroke="#63b8ff" points="461.05,-205.55 470.1,-200.06 459.59,-198.7 461.05,-205.55"/>
</a>
</g>
</g>
<!-- Node27 -->
<g id="Node000027" class="node">
<title>Node27</title>
<g id="a_Node000027"><a xlink:title=" ">
<polygon fill="#e0e0e0" stroke="#999999" points="623.49,-200 572.24,-200 572.24,-180 623.49,-180 623.49,-200"/>
<text text-anchor="middle" x="597.86" y="-186.5" font-family="Helvetica,sans-Serif" font-size="10.00">memory</text>
</a>
</g>
</g>
<!-- Node2&#45;&gt;Node27 -->
<g id="edge31_Node000002_Node000027" class="edge">
<title>Node2&#45;&gt;Node27</title>
<g id="a_edge31_Node000002_Node000027"><a xlink:title=" ">
<path fill="none" stroke="#63b8ff" d="M311.05,-237.22C386.6,-226.17 519.68,-206.67 560.71,-199.96"/>
<polygon fill="#63b8ff" stroke="#63b8ff" points="561.2,-203.43 570.45,-198.25 559.99,-196.53 561.2,-203.43"/>
</a>
</g>
</g>
<!-- Node28 -->
<g id="Node000028" class="node">
<title>Node28</title>
<g id="a_Node000028"><a xlink:title=" ">
<polygon fill="#e0e0e0" stroke="#999999" points="57.11,-200 12.61,-200 12.61,-180 57.11,-180 57.11,-200"/>
<text text-anchor="middle" x="34.86" y="-186.5" font-family="Helvetica,sans-Serif" font-size="10.00">iosfwd</text>
</a>
</g>
</g>
<!-- Node2&#45;&gt;Node28 -->
<g id="edge33_Node000002_Node000028" class="edge">
<title>Node2&#45;&gt;Node28</title>
<g id="a_edge33_Node000002_Node000028"><a xlink:title=" ">
<path fill="none" stroke="#63b8ff" d="M218.08,-235.53C180.2,-226.5 121.62,-212.45 70.86,-200 70.04,-199.8 69.21,-199.59 68.37,-199.39"/>
<polygon fill="#63b8ff" stroke="#63b8ff" points="69.34,-196.02 58.79,-197.01 67.66,-202.82 69.34,-196.02"/>
</a>
</g>
</g>
<!-- Node4 -->
<g id="Node000004" class="node">
<title>Node4</title>
<g id="a_Node000004"><a xlink:href="../../de/d85/key__definitions_8hpp.html" target="_top" xlink:title=" ">
<polygon fill="white" stroke="#666666" points="517.86,-144 417.86,-144 417.86,-124 517.86,-124 517.86,-144"/>
<text text-anchor="middle" x="467.86" y="-130.5" font-family="Helvetica,sans-Serif" font-size="10.00">key_definitions.hpp</text>
</a>
</g>
</g>
<!-- Node3&#45;&gt;Node4 -->
<g id="edge3_Node000003_Node000004" class="edge">
<title>Node3&#45;&gt;Node4</title>
<g id="a_edge3_Node000003_Node000004"><a xlink:title=" ">
<path fill="none" stroke="#63b8ff" d="M338.21,-179.59C363.49,-170.9 401.32,-157.89 429.6,-148.16"/>
<polygon fill="#63b8ff" stroke="#63b8ff" points="430.55,-151.53 438.87,-144.97 428.28,-144.91 430.55,-151.53"/>
</a>
</g>
</g>
<!-- Node6 -->
<g id="Node000006" class="node">
<title>Node6</title>
<g id="a_Node000006"><a xlink:title=" ">
<polygon fill="#e0e0e0" stroke="#999999" points="591.74,-144 535.99,-144 535.99,-124 591.74,-124 591.74,-144"/>
<text text-anchor="middle" x="563.86" y="-130.5" font-family="Helvetica,sans-Serif" font-size="10.00">cinttypes</text>
</a>
</g>
</g>
<!-- Node5&#45;&gt;Node6 -->
<g id="edge5_Node000005_Node000006" class="edge">
<title>Node5&#45;&gt;Node6</title>
<g id="a_edge5_Node000005_Node000006"><a xlink:title=" ">
<path fill="none" stroke="#63b8ff" d="M437.51,-179.59C462.04,-170.94 498.69,-158 526.21,-148.29"/>
<polygon fill="#63b8ff" stroke="#63b8ff" points="527.31,-151.61 535.58,-144.98 524.98,-145.01 527.31,-151.61"/>
</a>
</g>
</g>
<!-- Node7&#45;&gt;Node7 -->
<g id="edge7_Node000007_Node000007" class="edge">
<title>Node7&#45;&gt;Node7</title>
<g id="a_edge7_Node000007_Node000007"><a xlink:title=" ">
<path fill="none" stroke="#63b8ff" d="M236.65,-200.5C246.53,-200.39 254.36,-196.89 254.36,-190 254.36,-186.12 251.88,-183.32 247.96,-181.59"/>
<polygon fill="#63b8ff" stroke="#63b8ff" points="248.61,-178.15 238.14,-179.78 247.33,-185.04 248.61,-178.15"/>
</a>
</g>
</g>
<!-- Node8 -->
<g id="Node000008" class="node">
<title>Node8</title>
<g id="a_Node000008"><a xlink:href="../../db/d42/json__utils_8hpp.html" target="_top" xlink:title=" ">
<polygon fill="white" stroke="#666666" points="265.99,-144 145.74,-144 145.74,-124 265.99,-124 265.99,-144"/>
<text text-anchor="middle" x="205.86" y="-130.5" font-family="Helvetica,sans-Serif" font-size="10.00">json_utils/json_utils.hpp</text>
</a>
</g>
</g>
<!-- Node7&#45;&gt;Node8 -->
<g id="edge8_Node000007_Node000008" class="edge">
<title>Node7&#45;&gt;Node8</title>
<g id="a_edge8_Node000007_Node000008"><a xlink:title=" ">
<path fill="none" stroke="#63b8ff" d="M205.86,-179.59C205.86,-173.01 205.86,-163.96 205.86,-155.73"/>
<polygon fill="#63b8ff" stroke="#63b8ff" points="209.36,-155.81 205.86,-145.81 202.36,-155.81 209.36,-155.81"/>
</a>
</g>
</g>
<!-- Node7&#45;&gt;Node10 -->
<g id="edge14_Node000007_Node000010" class="edge">
<title>Node7&#45;&gt;Node10</title>
<g id="a_edge14_Node000007_Node000010"><a xlink:title=" ">
<path fill="none" stroke="#63b8ff" d="M190.14,-179.52C175.91,-170.76 154.53,-157.15 136.86,-144 113.47,-126.59 88.09,-104.68 71.42,-89.84"/>
<polygon fill="#63b8ff" stroke="#63b8ff" points="74.04,-87.48 64.26,-83.41 69.36,-92.69 74.04,-87.48"/>
</a>
</g>
</g>
<!-- Node7&#45;&gt;Node12 -->
<g id="edge12_Node000007_Node000012" class="edge">
<title>Node7&#45;&gt;Node12</title>
<g id="a_edge12_Node000007_Node000012"><a xlink:title=" ">
<path fill="none" stroke="#63b8ff" d="M182.17,-179.59C159.6,-170.63 125.5,-157.09 100.79,-147.28"/>
<polygon fill="#63b8ff" stroke="#63b8ff" points="102.17,-144.06 91.58,-143.62 99.59,-150.57 102.17,-144.06"/>
</a>
</g>
</g>
<!-- Node13 -->
<g id="Node000013" class="node">
<title>Node13</title>
<g id="a_Node000013"><a xlink:title=" ">
<polygon fill="#e0e0e0" stroke="#999999" points="399.61,-144 322.11,-144 322.11,-124 399.61,-124 399.61,-144"/>
<text text-anchor="middle" x="360.86" y="-130.5" font-family="Helvetica,sans-Serif" font-size="10.00">unordered_set</text>
</a>
</g>
</g>
<!-- Node7&#45;&gt;Node13 -->
<g id="edge13_Node000007_Node000013" class="edge">
<title>Node7&#45;&gt;Node13</title>
<g id="a_edge13_Node000007_Node000013"><a xlink:title=" ">
<path fill="none" stroke="#63b8ff" d="M232.86,-179.59C257.82,-170.9 295.17,-157.89 323.08,-148.16"/>
<polygon fill="#63b8ff" stroke="#63b8ff" points="323.93,-151.57 332.22,-144.98 321.63,-144.96 323.93,-151.57"/>
</a>
</g>
</g>
<!-- Node14 -->
<g id="Node000014" class="node">
<title>Node14</title>
<g id="a_Node000014"><a xlink:title=" ">
<polygon fill="#e0e0e0" stroke="#999999" points="588.61,-20 535.11,-20 535.11,0 588.61,0 588.61,-20"/>
<text text-anchor="middle" x="561.86" y="-6.5" font-family="Helvetica,sans-Serif" font-size="10.00">iostream</text>
</a>
</g>
</g>
<!-- Node7&#45;&gt;Node14 -->
<g id="edge15_Node000007_Node000014" class="edge">
<title>Node7&#45;&gt;Node14</title>
<g id="a_edge15_Node000007_Node000014"><a xlink:title=" ">
<path fill="none" stroke="#63b8ff" d="M226.62,-179.58C241.7,-171.85 261.68,-159.64 274.86,-144 302.32,-111.42 279.5,-82.49 312.86,-56 344.94,-30.53 462.41,-18.29 523.85,-13.52"/>
<polygon fill="#63b8ff" stroke="#63b8ff" points="523.77,-17.03 533.48,-12.8 523.25,-10.05 523.77,-17.03"/>
</a>
</g>
</g>
<!-- Node9 -->
<g id="Node000009" class="node">
<title>Node9</title>
<g id="a_Node000009"><a xlink:title=" ">
<polygon fill="#e0e0e0" stroke="#999999" points="198.74,-82 100.99,-82 100.99,-62 198.74,-62 198.74,-82"/>
<text text-anchor="middle" x="149.86" y="-68.5" font-family="Helvetica,sans-Serif" font-size="10.00">nlohmann/json.hpp</text>
</a>
</g>
</g>
<!-- Node8&#45;&gt;Node9 -->
<g id="edge9_Node000008_Node000009" class="edge">
<title>Node8&#45;&gt;Node9</title>
<g id="a_edge9_Node000008_Node000009"><a xlink:title=" ">
<path fill="none" stroke="#63b8ff" d="M197.11,-123.62C188.85,-114.77 176.24,-101.26 166.13,-90.43"/>
<polygon fill="#63b8ff" stroke="#63b8ff" points="168.78,-88.14 159.4,-83.22 163.67,-92.92 168.78,-88.14"/>
</a>
</g>
</g>
<!-- Node8&#45;&gt;Node10 -->
<g id="edge10_Node000008_Node000010" class="edge">
<title>Node8&#45;&gt;Node10</title>
<g id="a_edge10_Node000008_Node000010"><a xlink:title=" ">
<path fill="none" stroke="#63b8ff" d="M181.96,-123.62C156.54,-113.66 116.12,-97.81 87.28,-86.5"/>
<polygon fill="#63b8ff" stroke="#63b8ff" points="88.85,-83.35 78.26,-82.96 86.29,-89.87 88.85,-83.35"/>
</a>
</g>
</g>
<!-- Node11 -->
<g id="Node000011" class="node">
<title>Node11</title>
<g id="a_Node000011"><a xlink:title=" ">
<polygon fill="#e0e0e0" stroke="#999999" points="265.36,-82 216.36,-82 216.36,-62 265.36,-62 265.36,-82"/>
<text text-anchor="middle" x="240.86" y="-68.5" font-family="Helvetica,sans-Serif" font-size="10.00">fstream</text>
</a>
</g>
</g>
<!-- Node8&#45;&gt;Node11 -->
<g id="edge11_Node000008_Node000011" class="edge">
<title>Node8&#45;&gt;Node11</title>
<g id="a_edge11_Node000008_Node000011"><a xlink:title=" ">
<path fill="none" stroke="#63b8ff" d="M211.33,-123.62C216.29,-115.12 223.75,-102.33 229.93,-91.74"/>
<polygon fill="#63b8ff" stroke="#63b8ff" points="232.77,-93.82 234.78,-83.42 226.72,-90.29 232.77,-93.82"/>
</a>
</g>
</g>
<!-- Node16 -->
<g id="Node000016" class="node">
<title>Node16</title>
<g id="a_Node000016"><a xlink:href="../../df/d13/console__linux_8hpp.html" target="_top" xlink:title=" ">
<polygon fill="white" stroke="#666666" points="703.86,-144 609.86,-144 609.86,-124 703.86,-124 703.86,-144"/>
<text text-anchor="middle" x="656.86" y="-130.5" font-family="Helvetica,sans-Serif" font-size="10.00">console_linux.hpp</text>
</a>
</g>
</g>
<!-- Node15&#45;&gt;Node16 -->
<g id="edge17_Node000015_Node000016" class="edge">
<title>Node15&#45;&gt;Node16</title>
<g id="a_edge17_Node000015_Node000016"><a xlink:title=" ">
<path fill="none" stroke="#63b8ff" d="M537.95,-179.59C560.93,-170.97 595.22,-158.12 621.08,-148.42"/>
<polygon fill="#63b8ff" stroke="#63b8ff" points="622.03,-151.8 630.17,-145.01 619.57,-145.25 622.03,-151.8"/>
</a>
</g>
</g>
<!-- Node17 -->
<g id="Node000017" class="node">
<title>Node17</title>
<g id="a_Node000017"><a xlink:href="../../dd/d90/system_8hpp.html" target="_top" xlink:title=" ">
<polygon fill="white" stroke="#666666" points="876.24,-82 745.49,-82 745.49,-62 876.24,-62 876.24,-82"/>
<text text-anchor="middle" x="810.86" y="-68.5" font-family="Helvetica,sans-Serif" font-size="10.00">sokoban_core/system.hpp</text>
</a>
</g>
</g>
<!-- Node16&#45;&gt;Node17 -->
<g id="edge18_Node000016_Node000017" class="edge">
<title>Node16&#45;&gt;Node17</title>
<g id="a_edge18_Node000016_Node000017"><a xlink:title=" ">
<path fill="none" stroke="#63b8ff" d="M680.93,-123.62C706.5,-113.66 747.19,-97.81 776.22,-86.5"/>
<polygon fill="#63b8ff" stroke="#63b8ff" points="777.26,-89.85 785.31,-82.96 774.72,-83.33 777.26,-89.85"/>
</a>
</g>
</g>
<!-- Node18 -->
<g id="Node000018" class="node">
<title>Node18</title>
<g id="a_Node000018"><a xlink:title=" ">
<polygon fill="#e0e0e0" stroke="#999999" points="885.11,-20 828.61,-20 828.61,0 885.11,0 885.11,-20"/>
<text text-anchor="middle" x="856.86" y="-6.5" font-family="Helvetica,sans-Serif" font-size="10.00">termios.h</text>
</a>
</g>
</g>
<!-- Node16&#45;&gt;Node18 -->
<g id="edge29_Node000016_Node000018" class="edge">
<title>Node16&#45;&gt;Node18</title>
<g id="a_edge29_Node000016_Node000018"><a xlink:title=" ">
<path fill="none" stroke="#63b8ff" d="M704.16,-130.53C764.13,-126.29 862.45,-115.27 884.86,-88 899.06,-70.73 885.27,-45.65 872.51,-28.85"/>
<polygon fill="#63b8ff" stroke="#63b8ff" points="875.32,-26.76 866.29,-21.21 869.89,-31.18 875.32,-26.76"/>
</a>
</g>
</g>
<!-- Node19 -->
<g id="Node000019" class="node">
<title>Node19</title>
<g id="a_Node000019"><a xlink:href="../../d7/dff/key__definitions__linux_8hpp.html" target="_top" xlink:title=" ">
<polygon fill="white" stroke="#666666" points="1026.24,-88 931.49,-88 931.49,-56 1026.24,-56 1026.24,-88"/>
<text text-anchor="start" x="939.49" y="-74.5" font-family="Helvetica,sans-Serif" font-size="10.00">tui/key_definitions</text>
<text text-anchor="middle" x="978.86" y="-62.5" font-family="Helvetica,sans-Serif" font-size="10.00">_linux.hpp</text>
</a>
</g>
</g>
<!-- Node16&#45;&gt;Node19 -->
<g id="edge21_Node000016_Node000019" class="edge">
<title>Node16&#45;&gt;Node19</title>
<g id="a_edge21_Node000016_Node000019"><a xlink:title=" ">
<path fill="none" stroke="#63b8ff" d="M704.2,-125.86C756.64,-117.72 843.6,-103.51 917.86,-88 918.68,-87.83 919.51,-87.65 920.34,-87.48"/>
<polygon fill="#63b8ff" stroke="#63b8ff" points="920.84,-90.95 929.84,-85.36 919.32,-84.12 920.84,-90.95"/>
</a>
</g>
</g>
<!-- Node20 -->
<g id="Node000020" class="node">
<title>Node20</title>
<g id="a_Node000020"><a xlink:title=" ">
<polygon fill="#e0e0e0" stroke="#999999" points="1038.49,-20 993.24,-20 993.24,0 1038.49,0 1038.49,-20"/>
<text text-anchor="middle" x="1015.86" y="-6.5" font-family="Helvetica,sans-Serif" font-size="10.00">cstdint</text>
</a>
</g>
</g>
<!-- Node16&#45;&gt;Node20 -->
<g id="edge30_Node000016_Node000020" class="edge">
<title>Node16&#45;&gt;Node20</title>
<g id="a_edge30_Node000016_Node000020"><a xlink:title=" ">
<path fill="none" stroke="#63b8ff" d="M704.03,-130.83C800.52,-125.9 1013.22,-112.37 1034.86,-88 1049.1,-71.97 1038.99,-46.96 1028.89,-29.82"/>
<polygon fill="#63b8ff" stroke="#63b8ff" points="1031.96,-28.13 1023.63,-21.59 1026.06,-31.9 1031.96,-28.13"/>
</a>
</g>
</g>
<!-- Node21 -->
<g id="Node000021" class="node">
<title>Node21</title>
<g id="a_Node000021"><a xlink:title=" ">
<polygon fill="#e0e0e0" stroke="#999999" points="367.49,-82 322.24,-82 322.24,-62 367.49,-62 367.49,-82"/>
<text text-anchor="middle" x="344.86" y="-68.5" font-family="Helvetica,sans-Serif" font-size="10.00">stdio.h</text>
</a>
</g>
</g>
<!-- Node16&#45;&gt;Node21 -->
<g id="edge23_Node000016_Node000021" class="edge">
<title>Node16&#45;&gt;Node21</title>
<g id="a_edge23_Node000016_Node000021"><a xlink:title=" ">
<path fill="none" stroke="#63b8ff" d="M609.51,-125.39C606.58,-124.92 603.68,-124.45 600.86,-124 500.87,-107.97 472.47,-118.38 375.86,-88 374.72,-87.64 373.57,-87.25 372.42,-86.83"/>
<polygon fill="#63b8ff" stroke="#63b8ff" points="374.17,-83.77 363.6,-83.08 371.43,-90.21 374.17,-83.77"/>
</a>
</g>
</g>
<!-- Node22 -->
<g id="Node000022" class="node">
<title>Node22</title>
<g id="a_Node000022"><a xlink:title=" ">
<polygon fill="#e0e0e0" stroke="#999999" points="432.61,-82 385.11,-82 385.11,-62 432.61,-62 432.61,-82"/>
<text text-anchor="middle" x="408.86" y="-68.5" font-family="Helvetica,sans-Serif" font-size="10.00">stdlib.h</text>
</a>
</g>
</g>
<!-- Node16&#45;&gt;Node22 -->
<g id="edge24_Node000016_Node000022" class="edge">
<title>Node16&#45;&gt;Node22</title>
<g id="a_edge24_Node000016_Node000022"><a xlink:title=" ">
<path fill="none" stroke="#63b8ff" d="M609.38,-124.33C555.88,-114.33 472.4,-98 441.86,-88 440.7,-87.62 439.52,-87.21 438.33,-86.77"/>
<polygon fill="#63b8ff" stroke="#63b8ff" points="439.75,-83.57 429.17,-83.03 437.1,-90.05 439.75,-83.57"/>
</a>
</g>
</g>
<!-- Node23 -->
<g id="Node000023" class="node">
<title>Node23</title>
<g id="a_Node000023"><a xlink:title=" ">
<polygon fill="#e0e0e0" stroke="#999999" points="512.74,-82 450.99,-82 450.99,-62 512.74,-62 512.74,-82"/>
<text text-anchor="middle" x="481.86" y="-68.5" font-family="Helvetica,sans-Serif" font-size="10.00">sys/time.h</text>
</a>
</g>
</g>
<!-- Node16&#45;&gt;Node23 -->
<g id="edge25_Node000016_Node000023" class="edge">
<title>Node16&#45;&gt;Node23</title>
<g id="a_edge25_Node000016_Node000023"><a xlink:title=" ">
<path fill="none" stroke="#63b8ff" d="M627.52,-123.57C600.11,-114.67 558.08,-100.82 521.86,-88 520.29,-87.44 518.68,-86.87 517.06,-86.28"/>
<polygon fill="#63b8ff" stroke="#63b8ff" points="518.36,-83.03 507.77,-82.87 515.95,-89.6 518.36,-83.03"/>
</a>
</g>
</g>
<!-- Node24 -->
<g id="Node000024" class="node">
<title>Node24</title>
<g id="a_Node000024"><a xlink:title=" ">
<polygon fill="#e0e0e0" stroke="#999999" points="597.36,-82 530.36,-82 530.36,-62 597.36,-62 597.36,-82"/>
<text text-anchor="middle" x="563.86" y="-68.5" font-family="Helvetica,sans-Serif" font-size="10.00">sys/types.h</text>
</a>
</g>
</g>
<!-- Node16&#45;&gt;Node24 -->
<g id="edge26_Node000016_Node000024" class="edge">
<title>Node16&#45;&gt;Node24</title>
<g id="a_edge26_Node000016_Node000024"><a xlink:title=" ">
<path fill="none" stroke="#63b8ff" d="M642.33,-123.62C627.73,-114.2 604.97,-99.52 587.71,-88.39"/>
<polygon fill="#63b8ff" stroke="#63b8ff" points="589.86,-85.61 579.56,-83.13 586.07,-91.49 589.86,-85.61"/>
</a>
</g>
</g>
<!-- Node25 -->
<g id="Node000025" class="node">
<title>Node25</title>
<g id="a_Node000025"><a xlink:title=" ">
<polygon fill="#e0e0e0" stroke="#999999" points="666.11,-82 615.61,-82 615.61,-62 666.11,-62 666.11,-82"/>
<text text-anchor="middle" x="640.86" y="-68.5" font-family="Helvetica,sans-Serif" font-size="10.00">unistd.h</text>
</a>
</g>
</g>
<!-- Node16&#45;&gt;Node25 -->
<g id="edge27_Node000016_Node000025" class="edge">
<title>Node16&#45;&gt;Node25</title>
<g id="a_edge27_Node000016_Node000025"><a xlink:title=" ">
<path fill="none" stroke="#63b8ff" d="M654.36,-123.62C652.19,-115.48 648.97,-103.39 646.22,-93.07"/>
<polygon fill="#63b8ff" stroke="#63b8ff" points="649.64,-92.34 643.68,-83.58 642.88,-94.14 649.64,-92.34"/>
</a>
</g>
</g>
<!-- Node26 -->
<g id="Node000026" class="node">
<title>Node26</title>
<g id="a_Node000026"><a xlink:title=" ">
<polygon fill="#e0e0e0" stroke="#999999" points="727.36,-82 684.36,-82 684.36,-62 727.36,-62 727.36,-82"/>
<text text-anchor="middle" x="705.86" y="-68.5" font-family="Helvetica,sans-Serif" font-size="10.00">fcntl.h</text>
</a>
</g>
</g>
<!-- Node16&#45;&gt;Node26 -->
<g id="edge28_Node000016_Node000026" class="edge">
<title>Node16&#45;&gt;Node26</title>
<g id="a_edge28_Node000016_Node000026"><a xlink:title=" ">
<path fill="none" stroke="#63b8ff" d="M664.52,-123.62C671.68,-114.86 682.56,-101.53 691.37,-90.75"/>
<polygon fill="#63b8ff" stroke="#63b8ff" points="693.85,-93.24 697.46,-83.28 688.43,-88.82 693.85,-93.24"/>
</a>
</g>
</g>
<!-- Node17&#45;&gt;Node14 -->
<g id="edge20_Node000017_Node000014" class="edge">
<title>Node17&#45;&gt;Node14</title>
<g id="a_edge20_Node000017_Node000014"><a xlink:title=" ">
<path fill="none" stroke="#63b8ff" d="M771.68,-61.56C724.72,-50.24 646.53,-31.4 600.02,-20.2"/>
<polygon fill="#63b8ff" stroke="#63b8ff" points="600.93,-16.81 590.39,-17.87 599.29,-23.62 600.93,-16.81"/>
</a>
</g>
</g>
<!-- Node17&#45;&gt;Node18 -->
<g id="edge19_Node000017_Node000018" class="edge">
<title>Node17&#45;&gt;Node18</title>
<g id="a_edge19_Node000017_Node000018"><a xlink:title=" ">
<path fill="none" stroke="#63b8ff" d="M818.05,-61.62C824.71,-52.94 834.78,-39.8 843,-29.08"/>
<polygon fill="#63b8ff" stroke="#63b8ff" points="845.65,-31.38 848.96,-21.31 840.09,-27.12 845.65,-31.38"/>
</a>
</g>
</g>
<!-- Node19&#45;&gt;Node20 -->
<g id="edge22_Node000019_Node000020" class="edge">
<title>Node19&#45;&gt;Node20</title>
<g id="a_edge22_Node000019_Node000020"><a xlink:title=" ">
<path fill="none" stroke="#63b8ff" d="M988.39,-55.55C993.21,-47.74 999.1,-38.19 1004.19,-29.94"/>
<polygon fill="#63b8ff" stroke="#63b8ff" points="1007,-32.05 1009.27,-21.7 1001.04,-28.37 1007,-32.05"/>
</a>
</g>
</g>
</g>
</svg>
