<?xml version="1.0" encoding="UTF-8" standalone="no"?>
<!DOCTYPE svg PUBLIC "-//W3C//DTD SVG 1.1//EN"
 "http://www.w3.org/Graphics/SVG/1.1/DTD/svg11.dtd">
<!-- Generated by graphviz version 12.1.2 (20240928.0832)
 -->
<!-- Title: Serializeble Pages: 1 -->
<!--zoomable 482 -->

<svg id="main" version="1.1" xmlns="http://www.w3.org/2000/svg" xmlns:xlink="http://www.w3.org/1999/xlink" xml:space="preserve" onload="init(evt)">

<style type="text/css"><![CDATA[
.node, .edge {opacity: 0.7;}
.node.selected, .edge.selected {opacity: 1;}
.edge:hover path { stroke: red; }
.edge:hover polygon { stroke: red; fill: red; }
]]></style>

<defs>
  <circle id="rim" cx="0" cy="0" r="7"/>
  <circle id="rim2" cx="0" cy="0" r="3.5"/>
  <g id="zoomPlus">
    <use xlink:href="#rim" fill="#404040"><set attributeName="fill" to="#808080" begin="zoomplus.mouseover" end="zoomplus.mouseout"/></use>
    <path d="M-4,0h8M0,-4v8" fill="none" stroke="white" stroke-width="1.5" pointer-events="none"/>
  </g>
  <g id="zoomMin">
    <use xlink:href="#rim" fill="#404040"><set attributeName="fill" to="#808080" begin="zoomminus.mouseover" end="zoomminus.mouseout"/></use>
    <path d="M-4,0h8" fill="none" stroke="white" stroke-width="1.5" pointer-events="none"/>
  </g>
  <g id="arrowUp" transform="translate(30 24)">
    <use xlink:href="#rim"/>
    <path pointer-events="none" fill="none" stroke="white" stroke-width="1.5" d="M0,-3.0v7 M-2.5,-0.5L0,-3.0L2.5,-0.5"/>
  </g>
  <g id="arrowRight" transform="rotate(90) translate(36 -43)">
    <use xlink:href="#rim"/>
    <path pointer-events="none" fill="none" stroke="white" stroke-width="1.5" d="M0,-3.0v7 M-2.5,-0.5L0,-3.0L2.5,-0.5"/>
  </g>
  <g id="arrowDown" transform="rotate(180) translate(-30 -48)">
    <use xlink:href="#rim"/>
    <path pointer-events="none" fill="none" stroke="white" stroke-width="1.5" d="M0,-3.0v7 M-2.5,-0.5L0,-3.0L2.5,-0.5"/>
  </g>
  <g id="arrowLeft" transform="rotate(270) translate(-36 17)">
    <use xlink:href="#rim"/>
    <path pointer-events="none" fill="none" stroke="white" stroke-width="1.5" d="M0,-3.0v7 M-2.5,-0.5L0,-3.0L2.5,-0.5"/>
  </g>
  <g id="resetDef">
    <use xlink:href="#rim2" fill="#404040"><set attributeName="fill" to="#808080" begin="reset.mouseover" end="reset.mouseout"/></use>
  </g>
</defs>
<script type="application/ecmascript">
var viewWidth = 422;
var viewHeight = 482;
var sectionId = 'dynsection-0';
</script>
<script type="application/ecmascript" xlink:href="../../svg.min.js"/>
<svg id="graph" class="graph">
<g id="viewport">
<title>Serializeble</title>
<!-- Node1 -->
<g id="Node000001" class="node">
<title>Node1</title>
<g id="a_Node000001"><a xlink:title=" ">
<polygon fill="#999999" stroke="none" points="181,-474 122,-474 122,-410 181,-410 181,-474"/>
<text text-anchor="start" x="126.75" y="-460.5" font-family="Helvetica,sans-Serif" font-size="10.00">Serializeble</text>
<text text-anchor="start" x="150" y="-445.5" font-family="Helvetica,sans-Serif" font-size="10.00"> </text>
<text text-anchor="start" x="129.5" y="-430.5" font-family="Helvetica,sans-Serif" font-size="10.00">+</text>
<text text-anchor="start" x="143" y="-430.5" font-family="Helvetica,sans-Serif" font-size="10.00">read()</text>
<text text-anchor="start" x="129.5" y="-415.5" font-family="Helvetica,sans-Serif" font-size="10.00">+</text>
<text text-anchor="start" x="143" y="-415.5" font-family="Helvetica,sans-Serif" font-size="10.00">write()</text>
<polygon fill="#666666" stroke="#666666" points="122,-457 122,-457 181,-457 181,-457 122,-457"/>
<polygon fill="#666666" stroke="#666666" points="122,-442 122,-442 181,-442 181,-442 122,-442"/>
<polygon fill="none" stroke="#666666" points="122,-410 122,-474 181,-474 181,-410 122,-410"/>
</a>
</g>
</g>
<!-- Node2 -->
<g id="Node000002" class="node">
<title>Node2</title>
<g id="a_Node000002"><a xlink:href="../../d1/d67/classDocument.html" target="_top" xlink:title=" ">
<polygon fill="white" stroke="none" points="159.5,-374 25.5,-374 25.5,-145 159.5,-145 159.5,-374"/>
<text text-anchor="start" x="70.38" y="-360.5" font-family="Helvetica,sans-Serif" font-size="10.00">Document</text>
<text text-anchor="start" x="29.88" y="-345.5" font-family="Helvetica,sans-Serif" font-size="10.00">#</text>
<text text-anchor="start" x="39.5" y="-345.5" font-family="Helvetica,sans-Serif" font-size="10.00">observers</text>
<text text-anchor="start" x="29.88" y="-330.5" font-family="Helvetica,sans-Serif" font-size="10.00">#</text>
<text text-anchor="start" x="39.5" y="-330.5" font-family="Helvetica,sans-Serif" font-size="10.00">graphicsItems</text>
<text text-anchor="start" x="29.5" y="-315.5" font-family="Helvetica,sans-Serif" font-size="10.00">+</text>
<text text-anchor="start" x="39.5" y="-315.5" font-family="Helvetica,sans-Serif" font-size="10.00">read()</text>
<text text-anchor="start" x="29.5" y="-300.5" font-family="Helvetica,sans-Serif" font-size="10.00">+</text>
<text text-anchor="start" x="39.5" y="-300.5" font-family="Helvetica,sans-Serif" font-size="10.00">write()</text>
<text text-anchor="start" x="29.5" y="-285.5" font-family="Helvetica,sans-Serif" font-size="10.00">+</text>
<text text-anchor="start" x="39.5" y="-285.5" font-family="Helvetica,sans-Serif" font-size="10.00">firstItem()</text>
<text text-anchor="start" x="29.5" y="-270.5" font-family="Helvetica,sans-Serif" font-size="10.00">+</text>
<text text-anchor="start" x="39.5" y="-270.5" font-family="Helvetica,sans-Serif" font-size="10.00">endItem()</text>
<text text-anchor="start" x="29.5" y="-255.5" font-family="Helvetica,sans-Serif" font-size="10.00">+</text>
<text text-anchor="start" x="39.5" y="-255.5" font-family="Helvetica,sans-Serif" font-size="10.00">addObserver()</text>
<text text-anchor="start" x="29.5" y="-240.5" font-family="Helvetica,sans-Serif" font-size="10.00">+</text>
<text text-anchor="start" x="39.5" y="-240.5" font-family="Helvetica,sans-Serif" font-size="10.00">addItem()</text>
<text text-anchor="start" x="29.5" y="-225.5" font-family="Helvetica,sans-Serif" font-size="10.00">+</text>
<text text-anchor="start" x="39.5" y="-225.5" font-family="Helvetica,sans-Serif" font-size="10.00">notifyAboutItemChanged()</text>
<text text-anchor="start" x="29.5" y="-210.5" font-family="Helvetica,sans-Serif" font-size="10.00">+</text>
<text text-anchor="start" x="39.5" y="-210.5" font-family="Helvetica,sans-Serif" font-size="10.00">removeItem()</text>
<text text-anchor="start" x="29.88" y="-195.5" font-family="Helvetica,sans-Serif" font-size="10.00">#</text>
<text text-anchor="start" x="39.5" y="-195.5" font-family="Helvetica,sans-Serif" font-size="10.00">onGraphicsItemAdded()</text>
<text text-anchor="start" x="29.88" y="-180.5" font-family="Helvetica,sans-Serif" font-size="10.00">#</text>
<text text-anchor="start" x="39.5" y="-180.5" font-family="Helvetica,sans-Serif" font-size="10.00">onGraphicsItemRemoved()</text>
<text text-anchor="start" x="29.88" y="-165.5" font-family="Helvetica,sans-Serif" font-size="10.00">#</text>
<text text-anchor="start" x="39.5" y="-165.5" font-family="Helvetica,sans-Serif" font-size="10.00">onGraphicsItemModified()</text>
<text text-anchor="start" x="29.88" y="-150.5" font-family="Helvetica,sans-Serif" font-size="10.00">#</text>
<text text-anchor="start" x="39.5" y="-150.5" font-family="Helvetica,sans-Serif" font-size="10.00">notifyAboutItemChanged()</text>
<polygon fill="#666666" stroke="#666666" points="25.5,-357 25.5,-357 159.5,-357 159.5,-357 25.5,-357"/>
<polygon fill="#666666" stroke="#666666" points="25.5,-327 25.5,-327 37.5,-327 37.5,-327 25.5,-327"/>
<polygon fill="#666666" stroke="#666666" points="37.5,-327 37.5,-327 159.5,-327 159.5,-327 37.5,-327"/>
<polygon fill="none" stroke="#666666" points="25.5,-145 25.5,-374 159.5,-374 159.5,-145 25.5,-145"/>
</a>
</g>
</g>
<!-- Node1&#45;&gt;Node2 -->
<g id="edge1_Node000001_Node000002" class="edge">
<title>Node1&#45;&gt;Node2</title>
<g id="a_edge1_Node000001_Node000002"><a xlink:title=" ">
<path fill="none" stroke="#63b8ff" d="M137.95,-399.56C135.33,-391.53 132.46,-382.76 129.49,-373.66"/>
<polygon fill="none" stroke="#63b8ff" points="134.59,-400.52 141.02,-408.94 141.24,-398.35 134.59,-400.52"/>
</a>
</g>
</g>
<!-- Node3 -->
<g id="Node000003" class="node">
<title>Node3</title>
<g id="a_Node000003"><a xlink:href="../../d8/d48/classGraphicsItem.html" target="_top" xlink:title=" ">
<polygon fill="white" stroke="none" points="245.5,-299 177.5,-299 177.5,-220 245.5,-220 245.5,-299"/>
<text text-anchor="start" x="182.25" y="-285.5" font-family="Helvetica,sans-Serif" font-size="10.00">GraphicsItem</text>
<text text-anchor="start" x="210" y="-270.5" font-family="Helvetica,sans-Serif" font-size="10.00"> </text>
<text text-anchor="start" x="186.5" y="-255.5" font-family="Helvetica,sans-Serif" font-size="10.00">+</text>
<text text-anchor="start" x="201.5" y="-255.5" font-family="Helvetica,sans-Serif" font-size="10.00">uuid()</text>
<text text-anchor="start" x="186.5" y="-240.5" font-family="Helvetica,sans-Serif" font-size="10.00">+</text>
<text text-anchor="start" x="201.5" y="-240.5" font-family="Helvetica,sans-Serif" font-size="10.00">Draw()</text>
<text text-anchor="start" x="186.5" y="-225.5" font-family="Helvetica,sans-Serif" font-size="10.00">+</text>
<text text-anchor="start" x="201.5" y="-225.5" font-family="Helvetica,sans-Serif" font-size="10.00">clone()</text>
<polygon fill="#666666" stroke="#666666" points="177.5,-282 177.5,-282 245.5,-282 245.5,-282 177.5,-282"/>
<polygon fill="#666666" stroke="#666666" points="177.5,-267 177.5,-267 245.5,-267 245.5,-267 177.5,-267"/>
<polygon fill="none" stroke="#666666" points="177.5,-220 177.5,-299 245.5,-299 245.5,-220 177.5,-220"/>
</a>
</g>
</g>
<!-- Node1&#45;&gt;Node3 -->
<g id="edge2_Node000001_Node000003" class="edge">
<title>Node1&#45;&gt;Node3</title>
<g id="a_edge2_Node000001_Node000003"><a xlink:title=" ">
<path fill="none" stroke="#63b8ff" d="M165.22,-399.72C175.31,-369.38 188.92,-328.44 198.76,-298.82"/>
<polygon fill="none" stroke="#63b8ff" points="161.99,-398.35 162.16,-408.94 168.63,-400.56 161.99,-398.35"/>
</a>
</g>
</g>
<!-- Node4 -->
<g id="Node000004" class="node">
<title>Node4</title>
<g id="a_Node000004"><a xlink:href="../../d6/db0/classGraphicsEllipseItem.html" target="_top" xlink:title=" ">
<polygon fill="white" stroke="none" points="97,-109 0,-109 0,0 97,0 97,-109"/>
<text text-anchor="start" x="5" y="-95.5" font-family="Helvetica,sans-Serif" font-size="10.00">GraphicsEllipseItem</text>
<text text-anchor="start" x="47" y="-80.5" font-family="Helvetica,sans-Serif" font-size="10.00"> </text>
<text text-anchor="start" x="16.5" y="-65.5" font-family="Helvetica,sans-Serif" font-size="10.00">+</text>
<text text-anchor="start" x="39" y="-65.5" font-family="Helvetica,sans-Serif" font-size="10.00">read()</text>
<text text-anchor="start" x="16.5" y="-50.5" font-family="Helvetica,sans-Serif" font-size="10.00">+</text>
<text text-anchor="start" x="39" y="-50.5" font-family="Helvetica,sans-Serif" font-size="10.00">write()</text>
<text text-anchor="start" x="16.5" y="-35.5" font-family="Helvetica,sans-Serif" font-size="10.00">+</text>
<text text-anchor="start" x="39" y="-35.5" font-family="Helvetica,sans-Serif" font-size="10.00">uuid()</text>
<text text-anchor="start" x="16.5" y="-20.5" font-family="Helvetica,sans-Serif" font-size="10.00">+</text>
<text text-anchor="start" x="39" y="-20.5" font-family="Helvetica,sans-Serif" font-size="10.00">Draw()</text>
<text text-anchor="start" x="16.5" y="-5.5" font-family="Helvetica,sans-Serif" font-size="10.00">+</text>
<text text-anchor="start" x="39" y="-5.5" font-family="Helvetica,sans-Serif" font-size="10.00">clone()</text>
<polygon fill="#666666" stroke="#666666" points="0,-92 0,-92 97,-92 97,-92 0,-92"/>
<polygon fill="#666666" stroke="#666666" points="0,-77 0,-77 97,-77 97,-77 0,-77"/>
<polygon fill="none" stroke="#666666" points="0,0 0,-109 97,-109 97,0 0,0"/>
</a>
</g>
</g>
<!-- Node3&#45;&gt;Node4 -->
<g id="edge3_Node000003_Node000004" class="edge">
<title>Node3&#45;&gt;Node4</title>
<g id="a_edge3_Node000003_Node000004"><a xlink:title=" ">
<path fill="none" stroke="#63b8ff" d="M200.77,-209.21C194.21,-187.69 184,-163.27 168.5,-145 147.89,-120.7 132.14,-127.92 106.5,-109 103.3,-106.64 100.09,-104.13 96.89,-101.53"/>
<polygon fill="none" stroke="#63b8ff" points="197.37,-210.03 203.47,-218.69 204.1,-208.11 197.37,-210.03"/>
</a>
</g>
</g>
<!-- Node5 -->
<g id="Node000005" class="node">
<title>Node5</title>
<g id="a_Node000005"><a xlink:href="../../d2/de4/classGraphicsLineItem.html" target="_top" xlink:title=" ">
<polygon fill="white" stroke="none" points="202,-109 115,-109 115,0 202,0 202,-109"/>
<text text-anchor="start" x="119.88" y="-95.5" font-family="Helvetica,sans-Serif" font-size="10.00">GraphicsLineItem</text>
<text text-anchor="start" x="157" y="-80.5" font-family="Helvetica,sans-Serif" font-size="10.00"> </text>
<text text-anchor="start" x="129" y="-65.5" font-family="Helvetica,sans-Serif" font-size="10.00">+</text>
<text text-anchor="start" x="149" y="-65.5" font-family="Helvetica,sans-Serif" font-size="10.00">read()</text>
<text text-anchor="start" x="129" y="-50.5" font-family="Helvetica,sans-Serif" font-size="10.00">+</text>
<text text-anchor="start" x="149" y="-50.5" font-family="Helvetica,sans-Serif" font-size="10.00">write()</text>
<text text-anchor="start" x="129" y="-35.5" font-family="Helvetica,sans-Serif" font-size="10.00">+</text>
<text text-anchor="start" x="149" y="-35.5" font-family="Helvetica,sans-Serif" font-size="10.00">uuid()</text>
<text text-anchor="start" x="129" y="-20.5" font-family="Helvetica,sans-Serif" font-size="10.00">+</text>
<text text-anchor="start" x="149" y="-20.5" font-family="Helvetica,sans-Serif" font-size="10.00">Draw()</text>
<text text-anchor="start" x="129" y="-5.5" font-family="Helvetica,sans-Serif" font-size="10.00">+</text>
<text text-anchor="start" x="149" y="-5.5" font-family="Helvetica,sans-Serif" font-size="10.00">clone()</text>
<polygon fill="#666666" stroke="#666666" points="115,-92 115,-92 202,-92 202,-92 115,-92"/>
<polygon fill="#666666" stroke="#666666" points="115,-77 115,-77 202,-77 202,-77 115,-77"/>
<polygon fill="none" stroke="#666666" points="115,0 115,-109 202,-109 202,0 115,0"/>
</a>
</g>
</g>
<!-- Node3&#45;&gt;Node5 -->
<g id="edge4_Node000003_Node000005" class="edge">
<title>Node3&#45;&gt;Node5</title>
<g id="a_edge4_Node000003_Node000005"><a xlink:title=" ">
<path fill="none" stroke="#63b8ff" d="M198.72,-209.54C190.78,-179.13 180.57,-140.03 172.42,-108.83"/>
<polygon fill="none" stroke="#63b8ff" points="195.24,-210.06 201.15,-218.85 202.01,-208.29 195.24,-210.06"/>
</a>
</g>
</g>
<!-- Node6 -->
<g id="Node000006" class="node">
<title>Node6</title>
<g id="a_Node000006"><a xlink:href="../../df/d70/classGraphicsRectItem.html" target="_top" xlink:title=" ">
<polygon fill="white" stroke="none" points="308.5,-109 220.5,-109 220.5,0 308.5,0 308.5,-109"/>
<text text-anchor="start" x="225.12" y="-95.5" font-family="Helvetica,sans-Serif" font-size="10.00">GraphicsRectItem</text>
<text text-anchor="start" x="263" y="-80.5" font-family="Helvetica,sans-Serif" font-size="10.00"> </text>
<text text-anchor="start" x="234.5" y="-65.5" font-family="Helvetica,sans-Serif" font-size="10.00">+</text>
<text text-anchor="start" x="254.5" y="-65.5" font-family="Helvetica,sans-Serif" font-size="10.00">read()</text>
<text text-anchor="start" x="234.5" y="-50.5" font-family="Helvetica,sans-Serif" font-size="10.00">+</text>
<text text-anchor="start" x="254.5" y="-50.5" font-family="Helvetica,sans-Serif" font-size="10.00">write()</text>
<text text-anchor="start" x="234.5" y="-35.5" font-family="Helvetica,sans-Serif" font-size="10.00">+</text>
<text text-anchor="start" x="254.5" y="-35.5" font-family="Helvetica,sans-Serif" font-size="10.00">uuid()</text>
<text text-anchor="start" x="234.5" y="-20.5" font-family="Helvetica,sans-Serif" font-size="10.00">+</text>
<text text-anchor="start" x="254.5" y="-20.5" font-family="Helvetica,sans-Serif" font-size="10.00">Draw()</text>
<text text-anchor="start" x="234.5" y="-5.5" font-family="Helvetica,sans-Serif" font-size="10.00">+</text>
<text text-anchor="start" x="254.5" y="-5.5" font-family="Helvetica,sans-Serif" font-size="10.00">clone()</text>
<polygon fill="#666666" stroke="#666666" points="220.5,-92 220.5,-92 308.5,-92 308.5,-92 220.5,-92"/>
<polygon fill="#666666" stroke="#666666" points="220.5,-77 220.5,-77 308.5,-77 308.5,-77 220.5,-77"/>
<polygon fill="none" stroke="#666666" points="220.5,0 220.5,-109 308.5,-109 308.5,0 220.5,0"/>
</a>
</g>
</g>
<!-- Node3&#45;&gt;Node6 -->
<g id="edge5_Node000003_Node000006" class="edge">
<title>Node3&#45;&gt;Node6</title>
<g id="a_edge5_Node000003_Node000006"><a xlink:title=" ">
<path fill="none" stroke="#63b8ff" d="M224.28,-209.54C232.22,-179.13 242.43,-140.03 250.58,-108.83"/>
<polygon fill="none" stroke="#63b8ff" points="220.99,-208.29 221.85,-218.85 227.76,-210.06 220.99,-208.29"/>
</a>
</g>
</g>
<!-- Node7 -->
<g id="Node000007" class="node">
<title>Node7</title>
<g id="a_Node000007"><a xlink:href="../../da/dc2/classGraphicsTextItem.html" target="_top" xlink:title=" ">
<polygon fill="white" stroke="none" points="414,-109 327,-109 327,0 414,0 414,-109"/>
<text text-anchor="start" x="331.88" y="-95.5" font-family="Helvetica,sans-Serif" font-size="10.00">GraphicsTextItem</text>
<text text-anchor="start" x="369" y="-80.5" font-family="Helvetica,sans-Serif" font-size="10.00"> </text>
<text text-anchor="start" x="341" y="-65.5" font-family="Helvetica,sans-Serif" font-size="10.00">+</text>
<text text-anchor="start" x="361" y="-65.5" font-family="Helvetica,sans-Serif" font-size="10.00">read()</text>
<text text-anchor="start" x="341" y="-50.5" font-family="Helvetica,sans-Serif" font-size="10.00">+</text>
<text text-anchor="start" x="361" y="-50.5" font-family="Helvetica,sans-Serif" font-size="10.00">write()</text>
<text text-anchor="start" x="341" y="-35.5" font-family="Helvetica,sans-Serif" font-size="10.00">+</text>
<text text-anchor="start" x="361" y="-35.5" font-family="Helvetica,sans-Serif" font-size="10.00">uuid()</text>
<text text-anchor="start" x="341" y="-20.5" font-family="Helvetica,sans-Serif" font-size="10.00">+</text>
<text text-anchor="start" x="361" y="-20.5" font-family="Helvetica,sans-Serif" font-size="10.00">Draw()</text>
<text text-anchor="start" x="341" y="-5.5" font-family="Helvetica,sans-Serif" font-size="10.00">+</text>
<text text-anchor="start" x="361" y="-5.5" font-family="Helvetica,sans-Serif" font-size="10.00">clone()</text>
<polygon fill="#666666" stroke="#666666" points="327,-92 327,-92 414,-92 414,-92 327,-92"/>
<polygon fill="#666666" stroke="#666666" points="327,-77 327,-77 414,-77 414,-77 327,-77"/>
<polygon fill="none" stroke="#666666" points="327,0 327,-109 414,-109 414,0 327,0"/>
</a>
</g>
</g>
<!-- Node3&#45;&gt;Node7 -->
<g id="edge6_Node000003_Node000007" class="edge">
<title>Node3&#45;&gt;Node7</title>
<g id="a_edge6_Node000003_Node000007"><a xlink:title=" ">
<path fill="none" stroke="#63b8ff" d="M248.29,-211.52C272.32,-180.84 303.76,-140.71 328.73,-108.83"/>
<polygon fill="none" stroke="#63b8ff" points="245.75,-209.09 242.34,-219.13 251.26,-213.41 245.75,-209.09"/>
</a>
</g>
</g>
</g>
</svg>

<g id="navigator" transform="translate(0 0)" fill="#404254">
  <rect fill="#f2f5e9" fill-opacity="0.5" stroke="#606060" stroke-width=".5" x="0" y="0" width="60" height="60"/>
  <use id="zoomplus" xlink:href="#zoomPlus" x="17" y="9" onmousedown="handleZoom(evt,'in')"/>
  <use id="zoomminus" xlink:href="#zoomMin" x="42" y="9" onmousedown="handleZoom(evt,'out')"/>
  <use id="reset" xlink:href="#resetDef" x="30" y="36" onmousedown="handleReset()"/>
   <use id="arrowup" xlink:href="#arrowUp" x="0" y="0" onmousedown="handlePan(0,-1)"/>
  <use id="arrowright" xlink:href="#arrowRight" x="0" y="0" onmousedown="handlePan(1,0)"/>
  <use id="arrowdown" xlink:href="#arrowDown" x="0" y="0" onmousedown="handlePan(0,1)"/>
  <use id="arrowleft" xlink:href="#arrowLeft" x="0" y="0" onmousedown="handlePan(-1,0)"/>
</g>
<svg viewBox="0 0 15 15" width="100%" height="30px" preserveAspectRatio="xMaxYMin meet">
 <g id="arrow_out" transform="scale(0.3 0.3)">
  <a xlink:href="classSerializeble__inherit__graph_org.svg" target="_base">
   <rect id="button" ry="5" rx="5" y="6" x="6" height="38" width="38"
        fill="#f2f5e9" fill-opacity="0.5" stroke="#606060" stroke-width="1.0"/>
   <path id="arrow"
     d="M 11.500037,31.436501 C 11.940474,20.09759 22.043105,11.32322 32.158766,21.979434 L 37.068811,17.246167 C 37.068811,17.246167 37.088388,32 37.088388,32 L 22.160133,31.978069 C 22.160133,31.978069 26.997745,27.140456 26.997745,27.140456 C 18.528582,18.264221 13.291696,25.230495 11.500037,31.436501 z"
     style="fill:#404040;"/>
  </a>
 </g>
</svg>

<style type='text/css'>
<![CDATA[
[data-mouse-over-selected='false'] { opacity: 0.7; }
[data-mouse-over-selected='true']  { opacity: 1.0; }
]]>
</style>
<script type="application/ecmascript"><![CDATA[
document.addEventListener('DOMContentLoaded', (event) => {
  highlightEdges();
  highlightAdjacentNodes();
});
]]></script>
</svg>
