<?xml version="1.0" encoding="UTF-8" standalone="no"?>
<!DOCTYPE svg PUBLIC "-//W3C//DTD SVG 1.1//EN"
 "http://www.w3.org/Graphics/SVG/1.1/DTD/svg11.dtd">
<!-- Generated by graphviz version 12.1.1 (20240910.0053)
 -->
<!-- Title: lib_sokoban_core/include/sokoban_core/windows.hpp Pages: 1 -->
<svg width="194pt" height="176pt"
 viewBox="0.00 0.00 194.25 176.00" xmlns="http://www.w3.org/2000/svg" xmlns:xlink="http://www.w3.org/1999/xlink">

<svg id="main" version="1.1" xmlns="http://www.w3.org/2000/svg" xmlns:xlink="http://www.w3.org/1999/xlink" xml:space="preserve" onload="init(evt)">
<style type="text/css"><![CDATA[
.node, .edge {opacity: 0.7;}
.node.selected, .edge.selected {opacity: 1;}
.edge:hover path { stroke: red; }
.edge:hover polygon { stroke: red; fill: red; }
]]></style>
<script type="application/ecmascript" xlink:href="../../svg.min.js"/>
<svg id="graph" class="graph">
<g id="graph0" class="graph" transform="scale(1 1) rotate(0) translate(4 172)">
<title>lib_sokoban_core/include/sokoban_core/windows.hpp</title>
<!-- Node1 -->
<g id="Node000001" class="node">
<title>Node1</title>
<g id="a_Node000001"><a xlink:title=" ">
<polygon fill="#999999" stroke="#666666" points="139.75,-168 0,-168 0,-136 139.75,-136 139.75,-168"/>
<text text-anchor="start" x="8" y="-154.5" font-family="Helvetica,sans-Serif" font-size="10.00">lib_sokoban_core/include</text>
<text text-anchor="middle" x="69.88" y="-142.5" font-family="Helvetica,sans-Serif" font-size="10.00">/sokoban_core/windows.hpp</text>
</a>
</g>
</g>
<!-- Node2 -->
<g id="Node000002" class="node">
<title>Node2</title>
<g id="a_Node000002"><a xlink:href="../../da/d21/console__win_8hpp.html" target="_top" xlink:title=" ">
<polygon fill="white" stroke="#666666" points="132.62,-32 7.12,-32 7.12,0 132.62,0 132.62,-32"/>
<text text-anchor="start" x="15.12" y="-18.5" font-family="Helvetica,sans-Serif" font-size="10.00">lib_sokoban_core/include</text>
<text text-anchor="middle" x="69.88" y="-6.5" font-family="Helvetica,sans-Serif" font-size="10.00">/tui/console_win.hpp</text>
</a>
</g>
</g>
<!-- Node1&#45;&gt;Node2 -->
<g id="edge1_Node000001_Node000002" class="edge">
<title>Node1&#45;&gt;Node2</title>
<g id="a_edge1_Node000001_Node000002"><a xlink:title=" ">
<path fill="none" stroke="#63b8ff" d="M52.34,-126.12C47.67,-118.15 43.26,-109.04 40.88,-100 37.24,-86.25 37.24,-81.75 40.88,-68 44.31,-55 51.91,-41.85 58.47,-32.16"/>
<polygon fill="#63b8ff" stroke="#63b8ff" points="49.37,-127.98 57.67,-134.56 55.29,-124.24 49.37,-127.98"/>
</a>
</g>
</g>
<!-- Node3 -->
<g id="Node000003" class="node">
<title>Node3</title>
<g id="a_Node000003"><a xlink:href="../../d1/d73/key__definitions__win_8hpp.html" target="_top" xlink:title=" ">
<polygon fill="white" stroke="#666666" points="186.25,-100 49.5,-100 49.5,-68 186.25,-68 186.25,-100"/>
<text text-anchor="start" x="57.5" y="-86.5" font-family="Helvetica,sans-Serif" font-size="10.00">lib_sokoban_core/include</text>
<text text-anchor="middle" x="117.88" y="-74.5" font-family="Helvetica,sans-Serif" font-size="10.00">/tui/key_definitions_win.hpp</text>
</a>
</g>
</g>
<!-- Node1&#45;&gt;Node3 -->
<g id="edge2_Node000001_Node000003" class="edge">
<title>Node1&#45;&gt;Node3</title>
<g id="a_edge2_Node000001_Node000003"><a xlink:title=" ">
<path fill="none" stroke="#63b8ff" d="M87.63,-126.59C94.05,-117.75 101.12,-108.04 106.8,-100.22"/>
<polygon fill="#63b8ff" stroke="#63b8ff" points="84.95,-124.32 81.9,-134.47 90.61,-128.44 84.95,-124.32"/>
</a>
</g>
</g>
<!-- Node3&#45;&gt;Node2 -->
<g id="edge3_Node000003_Node000002" class="edge">
<title>Node3&#45;&gt;Node2</title>
<g id="a_edge3_Node000003_Node000002"><a xlink:title=" ">
<path fill="none" stroke="#63b8ff" d="M100.12,-58.59C93.7,-49.75 86.63,-40.04 80.95,-32.22"/>
<polygon fill="#63b8ff" stroke="#63b8ff" points="97.14,-60.44 105.85,-66.47 102.8,-56.32 97.14,-60.44"/>
</a>
</g>
</g>
</g>
</svg>
</svg>

<style type='text/css'>
<![CDATA[
[data-mouse-over-selected='false'] { opacity: 0.7; }
[data-mouse-over-selected='true']  { opacity: 1.0; }
]]>
</style>
<script type="application/ecmascript"><![CDATA[
document.addEventListener('DOMContentLoaded', (event) => {
  highlightEdges();
  highlightAdjacentNodes();
});
]]></script>
</svg>
