<?xml version="1.0" encoding="UTF-8" standalone="no"?>
<!DOCTYPE svg PUBLIC "-//W3C//DTD SVG 1.1//EN"
 "http://www.w3.org/Graphics/SVG/1.1/DTD/svg11.dtd">
<!-- Generated by graphviz version 12.1.2 (20240928.0832)
 -->
<!-- Title: editor_lib/include/editor/view.h Pages: 1 -->
<svg width="276pt" height="149pt"
 viewBox="0.00 0.00 275.75 149.00" xmlns="http://www.w3.org/2000/svg" xmlns:xlink="http://www.w3.org/1999/xlink">
<g id="graph0" class="graph" transform="scale(1 1) rotate(0) translate(4 145)">
<title>editor_lib/include/editor/view.h</title>
<!-- Node1 -->
<g id="Node000001" class="node">
<title>Node1</title>
<g id="a_Node000001"><a xlink:title=" ">
<polygon fill="#999999" stroke="#666666" points="175.38,-141 86.62,-141 86.62,-110.5 175.38,-110.5 175.38,-141"/>
<text text-anchor="start" x="94.62" y="-127.5" font-family="Helvetica,sans-Serif" font-size="10.00">editor_lib/include</text>
<text text-anchor="middle" x="131" y="-116.25" font-family="Helvetica,sans-Serif" font-size="10.00">/editor/view.h</text>
</a>
</g>
</g>
<!-- Node2 -->
<g id="Node000002" class="node">
<title>Node2</title>
<g id="a_Node000002"><a xlink:href="../../df/d65/widget_8h.html" target="_top" xlink:title=" ">
<polygon fill="white" stroke="#666666" points="52,-74.5 0,-74.5 0,-55.25 52,-55.25 52,-74.5"/>
<text text-anchor="middle" x="26" y="-61" font-family="Helvetica,sans-Serif" font-size="10.00">widget.h</text>
</a>
</g>
</g>
<!-- Node1&#45;&gt;Node2 -->
<g id="edge1_Node000001_Node000002" class="edge">
<title>Node1&#45;&gt;Node2</title>
<g id="a_edge1_Node000001_Node000002"><a xlink:title=" ">
<path fill="none" stroke="#63b8ff" d="M104.77,-110.05C88.63,-100.99 68.02,-89.44 51.93,-80.41"/>
<polygon fill="#63b8ff" stroke="#63b8ff" points="53.86,-77.48 43.42,-75.64 50.43,-83.59 53.86,-77.48"/>
</a>
</g>
</g>
<!-- Node4 -->
<g id="Node000004" class="node">
<title>Node4</title>
<g id="a_Node000004"><a xlink:title=" ">
<polygon fill="#e0e0e0" stroke="#999999" points="120.25,-74.5 69.75,-74.5 69.75,-55.25 120.25,-55.25 120.25,-74.5"/>
<text text-anchor="middle" x="95" y="-61" font-family="Helvetica,sans-Serif" font-size="10.00">memory</text>
</a>
</g>
</g>
<!-- Node1&#45;&gt;Node4 -->
<g id="edge3_Node000001_Node000004" class="edge">
<title>Node1&#45;&gt;Node4</title>
<g id="a_edge3_Node000001_Node000004"><a xlink:title=" ">
<path fill="none" stroke="#63b8ff" d="M122.1,-110.2C117.36,-102.44 111.47,-92.81 106.4,-84.51"/>
<polygon fill="#63b8ff" stroke="#63b8ff" points="109.54,-82.95 101.34,-76.24 103.57,-86.6 109.54,-82.95"/>
</a>
</g>
</g>
<!-- Node5 -->
<g id="Node000005" class="node">
<title>Node5</title>
<g id="a_Node000005"><a xlink:title=" ">
<polygon fill="#e0e0e0" stroke="#999999" points="196,-74.5 138,-74.5 138,-55.25 196,-55.25 196,-74.5"/>
<text text-anchor="middle" x="167" y="-61" font-family="Helvetica,sans-Serif" font-size="10.00">functional</text>
</a>
</g>
</g>
<!-- Node1&#45;&gt;Node5 -->
<g id="edge4_Node000001_Node000005" class="edge">
<title>Node1&#45;&gt;Node5</title>
<g id="a_edge4_Node000001_Node000005"><a xlink:title=" ">
<path fill="none" stroke="#63b8ff" d="M139.9,-110.2C144.64,-102.44 150.53,-92.81 155.6,-84.51"/>
<polygon fill="#63b8ff" stroke="#63b8ff" points="158.43,-86.6 160.66,-76.24 152.46,-82.95 158.43,-86.6"/>
</a>
</g>
</g>
<!-- Node6 -->
<g id="Node000006" class="node">
<title>Node6</title>
<g id="a_Node000006"><a xlink:title=" ">
<polygon fill="#e0e0e0" stroke="#999999" points="267.75,-74.5 214.25,-74.5 214.25,-55.25 267.75,-55.25 267.75,-74.5"/>
<text text-anchor="middle" x="241" y="-61" font-family="Helvetica,sans-Serif" font-size="10.00">iostream</text>
</a>
</g>
</g>
<!-- Node1&#45;&gt;Node6 -->
<g id="edge5_Node000001_Node000006" class="edge">
<title>Node1&#45;&gt;Node6</title>
<g id="a_edge5_Node000001_Node000006"><a xlink:title=" ">
<path fill="none" stroke="#63b8ff" d="M158.47,-110.05C175.55,-100.91 197.39,-89.22 214.31,-80.16"/>
<polygon fill="#63b8ff" stroke="#63b8ff" points="215.63,-83.42 222.8,-75.62 212.33,-77.25 215.63,-83.42"/>
</a>
</g>
</g>
<!-- Node3 -->
<g id="Node000003" class="node">
<title>Node3</title>
<g id="a_Node000003"><a xlink:title=" ">
<polygon fill="#e0e0e0" stroke="#999999" points="47.5,-19.25 4.5,-19.25 4.5,0 47.5,0 47.5,-19.25"/>
<text text-anchor="middle" x="26" y="-5.75" font-family="Helvetica,sans-Serif" font-size="10.00">vector</text>
</a>
</g>
</g>
<!-- Node2&#45;&gt;Node3 -->
<g id="edge2_Node000002_Node000003" class="edge">
<title>Node2&#45;&gt;Node3</title>
<g id="a_edge2_Node000002_Node000003"><a xlink:title=" ">
<path fill="none" stroke="#63b8ff" d="M26,-55.08C26,-48.57 26,-39.42 26,-31.12"/>
<polygon fill="#63b8ff" stroke="#63b8ff" points="29.5,-31.12 26,-21.12 22.5,-31.12 29.5,-31.12"/>
</a>
</g>
</g>
</g>
</svg>
