<?xml version="1.0" encoding="UTF-8" standalone="no"?>
<!DOCTYPE svg PUBLIC "-//W3C//DTD SVG 1.1//EN"
 "http://www.w3.org/Graphics/SVG/1.1/DTD/svg11.dtd">
<!-- Generated by graphviz version 12.1.1 (20240910.0053)
 -->
<!-- Title: sokoban::tui::Menu&lt; Enum &gt; Pages: 1 -->
<svg width="101pt" height="120pt"
 viewBox="0.00 0.00 101.00 120.00" xmlns="http://www.w3.org/2000/svg" xmlns:xlink="http://www.w3.org/1999/xlink">
<g id="graph0" class="graph" transform="scale(1 1) rotate(0) translate(4 116)">
<title>sokoban::tui::Menu&lt; Enum &gt;</title>
<!-- Node1 -->
<g id="Node000001" class="node">
<title>Node1</title>
<g id="a_Node000001"><a xlink:title=" ">
<polygon fill="#999999" stroke="none" points="93,-112 0,-112 0,0 93,0 93,-112"/>
<text text-anchor="start" x="4.88" y="-98.5" font-family="Helvetica,sans-Serif" font-size="10.00">sokoban::tui::Menu</text>
<text text-anchor="start" x="24.75" y="-86.5" font-family="Helvetica,sans-Serif" font-size="10.00">&lt; Enum &gt;</text>
<text text-anchor="start" x="45" y="-70.5" font-family="Helvetica,sans-Serif" font-size="10.00"> </text>
<text text-anchor="start" x="12" y="-54.5" font-family="Helvetica,sans-Serif" font-size="10.00">+</text>
<text text-anchor="start" x="30" y="-54.5" font-family="Helvetica,sans-Serif" font-size="10.00">Menu()</text>
<text text-anchor="start" x="12" y="-38.5" font-family="Helvetica,sans-Serif" font-size="10.00">+</text>
<text text-anchor="start" x="30" y="-38.5" font-family="Helvetica,sans-Serif" font-size="10.00">getValue()</text>
<text text-anchor="start" x="12" y="-22.5" font-family="Helvetica,sans-Serif" font-size="10.00">+</text>
<text text-anchor="start" x="30" y="-22.5" font-family="Helvetica,sans-Serif" font-size="10.00">size()</text>
<text text-anchor="start" x="12" y="-6.5" font-family="Helvetica,sans-Serif" font-size="10.00">+</text>
<text text-anchor="start" x="30" y="-6.5" font-family="Helvetica,sans-Serif" font-size="10.00">text()</text>
<polygon fill="#666666" stroke="#666666" points="0,-82 0,-82 93,-82 93,-82 0,-82"/>
<polygon fill="#666666" stroke="#666666" points="0,-66 0,-66 93,-66 93,-66 0,-66"/>
<polygon fill="none" stroke="#666666" points="0,0 0,-112 93,-112 93,0 0,0"/>
</a>
</g>
</g>
</g>
</svg>
