<?xml version="1.0" encoding="UTF-8" standalone="no"?>
<!DOCTYPE svg PUBLIC "-//W3C//DTD SVG 1.1//EN"
 "http://www.w3.org/Graphics/SVG/1.1/DTD/svg11.dtd">
<!-- Generated by graphviz version 12.1.2 (20240928.0832)
 -->
<!-- Title: editor_lib/include/editor/graphics_items_prototype_collection.h Pages: 1 -->
<svg width="288pt" height="249pt"
 viewBox="0.00 0.00 288.00 249.25" xmlns="http://www.w3.org/2000/svg" xmlns:xlink="http://www.w3.org/1999/xlink">
<g id="graph0" class="graph" transform="scale(1 1) rotate(0) translate(4 245.25)">
<title>editor_lib/include/editor/graphics_items_prototype_collection.h</title>
<!-- Node1 -->
<g id="Node000001" class="node">
<title>Node1</title>
<g id="a_Node000001"><a xlink:title=" ">
<polygon fill="#999999" stroke="#666666" points="189.38,-241.25 74.38,-241.25 74.38,-199.5 189.38,-199.5 189.38,-241.25"/>
<text text-anchor="start" x="82.38" y="-227.75" font-family="Helvetica,sans-Serif" font-size="10.00">editor_lib/include</text>
<text text-anchor="start" x="82.38" y="-216.5" font-family="Helvetica,sans-Serif" font-size="10.00">/editor/graphics_items</text>
<text text-anchor="middle" x="131.88" y="-205.25" font-family="Helvetica,sans-Serif" font-size="10.00">_prototype_collection.h</text>
</a>
</g>
</g>
<!-- Node2 -->
<g id="Node000002" class="node">
<title>Node2</title>
<g id="a_Node000002"><a xlink:href="../../db/df5/document_8h.html" target="_top" xlink:title=" ">
<polygon fill="white" stroke="#666666" points="180,-163.5 83.75,-163.5 83.75,-133 180,-133 180,-163.5"/>
<text text-anchor="start" x="91.75" y="-150" font-family="Helvetica,sans-Serif" font-size="10.00">editor_lib/include</text>
<text text-anchor="middle" x="131.88" y="-138.75" font-family="Helvetica,sans-Serif" font-size="10.00">/editor/document.h</text>
</a>
</g>
</g>
<!-- Node1&#45;&gt;Node2 -->
<g id="edge1_Node000001_Node000002" class="edge">
<title>Node1&#45;&gt;Node2</title>
<g id="a_edge1_Node000001_Node000002"><a xlink:title=" ">
<path fill="none" stroke="#63b8ff" d="M131.88,-187.63C131.88,-179.27 131.88,-170.65 131.88,-163.7"/>
<polygon fill="#63b8ff" stroke="#63b8ff" points="128.38,-187.58 131.88,-197.58 135.38,-187.58 128.38,-187.58"/>
</a>
</g>
</g>
<!-- Node3 -->
<g id="Node000003" class="node">
<title>Node3</title>
<g id="a_Node000003"><a xlink:href="../../da/de3/add__graphics__item__command_8h.html" target="_top" xlink:title=" ">
<polygon fill="white" stroke="#666666" points="103.75,-97 0,-97 0,-55.25 103.75,-55.25 103.75,-97"/>
<text text-anchor="start" x="8" y="-83.5" font-family="Helvetica,sans-Serif" font-size="10.00">editor_lib/include</text>
<text text-anchor="start" x="8" y="-72.25" font-family="Helvetica,sans-Serif" font-size="10.00">/editor/add_graphics</text>
<text text-anchor="middle" x="51.88" y="-61" font-family="Helvetica,sans-Serif" font-size="10.00">_item_command.h</text>
</a>
</g>
</g>
<!-- Node2&#45;&gt;Node3 -->
<g id="edge2_Node000002_Node000003" class="edge">
<title>Node2&#45;&gt;Node3</title>
<g id="a_edge2_Node000002_Node000003"><a xlink:title=" ">
<path fill="none" stroke="#63b8ff" d="M106.85,-125.31C96.71,-116.42 85.06,-106.21 75.1,-97.49"/>
<polygon fill="#63b8ff" stroke="#63b8ff" points="104.33,-127.76 114.16,-131.72 108.95,-122.5 104.33,-127.76"/>
</a>
</g>
</g>
<!-- Node4 -->
<g id="Node000004" class="node">
<title>Node4</title>
<g id="a_Node000004"><a xlink:href="../../df/d0a/main_8cpp.html" target="_top" xlink:title=" ">
<polygon fill="white" stroke="#666666" points="127.62,-19.25 56.12,-19.25 56.12,0 127.62,0 127.62,-19.25"/>
<text text-anchor="middle" x="91.88" y="-5.75" font-family="Helvetica,sans-Serif" font-size="10.00">src/main.cpp</text>
</a>
</g>
</g>
<!-- Node2&#45;&gt;Node4 -->
<g id="edge5_Node000002_Node000004" class="edge">
<title>Node2&#45;&gt;Node4</title>
<g id="a_edge5_Node000002_Node000004"><a xlink:title=" ">
<path fill="none" stroke="#63b8ff" d="M128.23,-121.48C125.18,-102.79 120.15,-77.08 112.88,-55.25 108.6,-42.42 101.6,-28.43 96.87,-19.59"/>
<polygon fill="#63b8ff" stroke="#63b8ff" points="124.73,-121.78 129.72,-131.13 131.65,-120.72 124.73,-121.78"/>
</a>
</g>
</g>
<!-- Node5 -->
<g id="Node000005" class="node">
<title>Node5</title>
<g id="a_Node000005"><a xlink:href="../../d9/d02/remove__graphics__item__command_8h.html" target="_top" xlink:title=" ">
<polygon fill="white" stroke="#666666" points="280,-97 159.75,-97 159.75,-55.25 280,-55.25 280,-97"/>
<text text-anchor="start" x="167.75" y="-83.5" font-family="Helvetica,sans-Serif" font-size="10.00">editor_lib/include</text>
<text text-anchor="start" x="167.75" y="-72.25" font-family="Helvetica,sans-Serif" font-size="10.00">/editor/remove_graphics</text>
<text text-anchor="middle" x="219.88" y="-61" font-family="Helvetica,sans-Serif" font-size="10.00">_item_command.h</text>
</a>
</g>
</g>
<!-- Node2&#45;&gt;Node5 -->
<g id="edge4_Node000002_Node000005" class="edge">
<title>Node2&#45;&gt;Node5</title>
<g id="a_edge4_Node000002_Node000005"><a xlink:title=" ">
<path fill="none" stroke="#63b8ff" d="M159.06,-125.58C170.3,-116.63 183.26,-106.3 194.32,-97.49"/>
<polygon fill="#63b8ff" stroke="#63b8ff" points="156.93,-122.81 151.29,-131.78 161.29,-128.28 156.93,-122.81"/>
</a>
</g>
</g>
<!-- Node3&#45;&gt;Node4 -->
<g id="edge3_Node000003_Node000004" class="edge">
<title>Node3&#45;&gt;Node4</title>
<g id="a_edge3_Node000003_Node000004"><a xlink:title=" ">
<path fill="none" stroke="#63b8ff" d="M70.22,-45.54C76.04,-36.16 82.04,-26.48 86.25,-19.7"/>
<polygon fill="#63b8ff" stroke="#63b8ff" points="67.41,-43.44 65.11,-53.78 73.35,-47.13 67.41,-43.44"/>
</a>
</g>
</g>
</g>
</svg>
