<?xml version="1.0" encoding="UTF-8" standalone="no"?>
<!DOCTYPE svg PUBLIC "-//W3C//DTD SVG 1.1//EN"
 "http://www.w3.org/Graphics/SVG/1.1/DTD/svg11.dtd">
<!-- Generated by graphviz version 12.1.1 (20240910.0053)
 -->
<!-- Title: lib_sokoban_core/include/tui/console_linux.hpp Pages: 1 -->
<!--zoomable 584 -->

<svg id="main" version="1.1" xmlns="http://www.w3.org/2000/svg" xmlns:xlink="http://www.w3.org/1999/xlink" xml:space="preserve" onload="init(evt)">
<style type="text/css"><![CDATA[
.node, .edge {opacity: 0.7;}
.node.selected, .edge.selected {opacity: 1;}
.edge:hover path { stroke: red; }
.edge:hover polygon { stroke: red; fill: red; }
]]></style>

<defs>
  <circle id="rim" cx="0" cy="0" r="7"/>
  <circle id="rim2" cx="0" cy="0" r="3.5"/>
  <g id="zoomPlus">
    <use xlink:href="#rim" fill="#404040"><set attributeName="fill" to="#808080" begin="zoomplus.mouseover" end="zoomplus.mouseout"/></use>
    <path d="M-4,0h8M0,-4v8" fill="none" stroke="white" stroke-width="1.5" pointer-events="none"/>
  </g>
  <g id="zoomMin">
    <use xlink:href="#rim" fill="#404040"><set attributeName="fill" to="#808080" begin="zoomminus.mouseover" end="zoomminus.mouseout"/></use>
    <path d="M-4,0h8" fill="none" stroke="white" stroke-width="1.5" pointer-events="none"/>
  </g>
  <g id="arrowUp" transform="translate(30 24)">
    <use xlink:href="#rim"/>
    <path pointer-events="none" fill="none" stroke="white" stroke-width="1.5" d="M0,-3.0v7 M-2.5,-0.5L0,-3.0L2.5,-0.5"/>
  </g>
  <g id="arrowRight" transform="rotate(90) translate(36 -43)">
    <use xlink:href="#rim"/>
    <path pointer-events="none" fill="none" stroke="white" stroke-width="1.5" d="M0,-3.0v7 M-2.5,-0.5L0,-3.0L2.5,-0.5"/>
  </g>
  <g id="arrowDown" transform="rotate(180) translate(-30 -48)">
    <use xlink:href="#rim"/>
    <path pointer-events="none" fill="none" stroke="white" stroke-width="1.5" d="M0,-3.0v7 M-2.5,-0.5L0,-3.0L2.5,-0.5"/>
  </g>
  <g id="arrowLeft" transform="rotate(270) translate(-36 17)">
    <use xlink:href="#rim"/>
    <path pointer-events="none" fill="none" stroke="white" stroke-width="1.5" d="M0,-3.0v7 M-2.5,-0.5L0,-3.0L2.5,-0.5"/>
  </g>
  <g id="resetDef">
    <use xlink:href="#rim2" fill="#404040"><set attributeName="fill" to="#808080" begin="reset.mouseover" end="reset.mouseout"/></use>
  </g>
</defs>
<script type="application/ecmascript">
var viewWidth = 522;
var viewHeight = 584;
var sectionId = 'dynsection-1';
</script>
<script type="application/ecmascript" xlink:href="../../svg.min.js"/>
<svg id="graph" class="graph">
<g id="viewport">
<title>lib_sokoban_core/include/tui/console_linux.hpp</title>
<!-- Node1 -->
<g id="Node000001" class="node">
<title>Node1</title>
<g id="a_Node000001"><a xlink:title=" ">
<polygon fill="#999999" stroke="#666666" points="134.75,-576 9.25,-576 9.25,-544 134.75,-544 134.75,-576"/>
<text text-anchor="start" x="17.25" y="-562.5" font-family="Helvetica,sans-Serif" font-size="10.00">lib_sokoban_core/include</text>
<text text-anchor="middle" x="72" y="-550.5" font-family="Helvetica,sans-Serif" font-size="10.00">/tui/console_linux.hpp</text>
</a>
</g>
</g>
<!-- Node2 -->
<g id="Node000002" class="node">
<title>Node2</title>
<g id="a_Node000002"><a xlink:href="../../d5/ddc/console_8hpp.html" target="_top" xlink:title=" ">
<polygon fill="white" stroke="#666666" points="134.75,-508 9.25,-508 9.25,-476 134.75,-476 134.75,-508"/>
<text text-anchor="start" x="17.25" y="-494.5" font-family="Helvetica,sans-Serif" font-size="10.00">lib_sokoban_core/include</text>
<text text-anchor="middle" x="72" y="-482.5" font-family="Helvetica,sans-Serif" font-size="10.00">/tui/console.hpp</text>
</a>
</g>
</g>
<!-- Node1&#45;&gt;Node2 -->
<g id="edge1_Node000001_Node000002" class="edge">
<title>Node1&#45;&gt;Node2</title>
<g id="a_edge1_Node000001_Node000002"><a xlink:title=" ">
<path fill="none" stroke="#63b8ff" d="M72,-532.31C72,-524.12 72,-515.38 72,-508.22"/>
<polygon fill="#63b8ff" stroke="#63b8ff" points="68.5,-532.18 72,-542.18 75.5,-532.18 68.5,-532.18"/>
</a>
</g>
</g>
<!-- Node3 -->
<g id="Node000003" class="node">
<title>Node3</title>
<g id="a_Node000003"><a xlink:href="../../d5/ddc/base__session__context_8hpp.html" target="_top" xlink:title=" ">
<polygon fill="white" stroke="#666666" points="200.62,-100 65.38,-100 65.38,-68 200.62,-68 200.62,-100"/>
<text text-anchor="start" x="73.38" y="-86.5" font-family="Helvetica,sans-Serif" font-size="10.00">lib_base_game/include</text>
<text text-anchor="middle" x="133" y="-74.5" font-family="Helvetica,sans-Serif" font-size="10.00">/base_session_context.hpp</text>
</a>
</g>
</g>
<!-- Node2&#45;&gt;Node3 -->
<g id="edge2_Node000002_Node000003" class="edge">
<title>Node2&#45;&gt;Node3</title>
<g id="a_edge2_Node000002_Node000003"><a xlink:title=" ">
<path fill="none" stroke="#63b8ff" d="M49.69,-467C28.55,-441.66 0,-399.57 0,-357 0,-357 0,-357 0,-219 0,-178.43 10.23,-165.58 38,-136 52.6,-120.44 73.04,-108.62 91.22,-100.3"/>
<polygon fill="#63b8ff" stroke="#63b8ff" points="46.9,-469.12 56.09,-474.4 52.2,-464.54 46.9,-469.12"/>
</a>
</g>
</g>
<!-- Node6 -->
<g id="Node000006" class="node">
<title>Node6</title>
<g id="a_Node000006"><a xlink:href="../../da/d4c/session__context_8hpp.html" target="_top" xlink:title=" ">
<polygon fill="white" stroke="#666666" points="241.38,-440 68.62,-440 68.62,-408 241.38,-408 241.38,-440"/>
<text text-anchor="start" x="76.62" y="-426.5" font-family="Helvetica,sans-Serif" font-size="10.00">lib_sokoban_core/include</text>
<text text-anchor="middle" x="155" y="-414.5" font-family="Helvetica,sans-Serif" font-size="10.00">/sokoban_core/session_context.hpp</text>
</a>
</g>
</g>
<!-- Node2&#45;&gt;Node6 -->
<g id="edge5_Node000002_Node000006" class="edge">
<title>Node2&#45;&gt;Node6</title>
<g id="a_edge5_Node000002_Node000006"><a xlink:title=" ">
<path fill="none" stroke="#63b8ff" d="M100.17,-468.6C111.82,-459.34 125.03,-448.83 135.57,-440.45"/>
<polygon fill="#63b8ff" stroke="#63b8ff" points="98.08,-465.79 92.44,-474.75 102.44,-471.27 98.08,-465.79"/>
</a>
</g>
</g>
<!-- Node4 -->
<g id="Node000004" class="node">
<title>Node4</title>
<g id="a_Node000004"><a xlink:href="../../d0/d8e/base__game__action_8cpp.html" target="_top" xlink:title=" ">
<polygon fill="white" stroke="#666666" points="201.75,-32 82.25,-32 82.25,0 201.75,0 201.75,-32"/>
<text text-anchor="start" x="90.25" y="-18.5" font-family="Helvetica,sans-Serif" font-size="10.00">lib_base_game/include</text>
<text text-anchor="middle" x="142" y="-6.5" font-family="Helvetica,sans-Serif" font-size="10.00">/base_game_action.cpp</text>
</a>
</g>
</g>
<!-- Node3&#45;&gt;Node4 -->
<g id="edge3_Node000003_Node000004" class="edge">
<title>Node3&#45;&gt;Node4</title>
<g id="a_edge3_Node000003_Node000004"><a xlink:title=" ">
<path fill="none" stroke="#63b8ff" d="M136.64,-56.31C137.76,-48.12 138.95,-39.38 139.92,-32.22"/>
<polygon fill="#63b8ff" stroke="#63b8ff" points="133.18,-55.81 135.29,-66.19 140.11,-56.76 133.18,-55.81"/>
</a>
</g>
</g>
<!-- Node5 -->
<g id="Node000005" class="node">
<title>Node5</title>
<g id="a_Node000005"><a xlink:href="../../db/db9/lib__base__game_2include_2mod_8hpp.html" target="_top" xlink:title=" ">
<polygon fill="white" stroke="#666666" points="351.5,-32 236.5,-32 236.5,0 351.5,0 351.5,-32"/>
<text text-anchor="start" x="244.5" y="-18.5" font-family="Helvetica,sans-Serif" font-size="10.00">lib_base_game/include</text>
<text text-anchor="middle" x="294" y="-6.5" font-family="Helvetica,sans-Serif" font-size="10.00">/mod.hpp</text>
</a>
</g>
</g>
<!-- Node3&#45;&gt;Node5 -->
<g id="edge4_Node000003_Node000005" class="edge">
<title>Node3&#45;&gt;Node5</title>
<g id="a_edge4_Node000003_Node000005"><a xlink:title=" ">
<path fill="none" stroke="#63b8ff" d="M181.08,-63.29C205.11,-53.44 233.78,-41.69 256.21,-32.49"/>
<polygon fill="#63b8ff" stroke="#63b8ff" points="180.07,-59.92 172.15,-66.95 182.73,-66.4 180.07,-59.92"/>
</a>
</g>
</g>
<!-- Node6&#45;&gt;Node3 -->
<g id="edge6_Node000006_Node000003" class="edge">
<title>Node6&#45;&gt;Node3</title>
<g id="a_edge6_Node000006_Node000003"><a xlink:title=" ">
<path fill="none" stroke="#63b8ff" d="M106.56,-402.41C92.6,-394.57 78.36,-384.46 68,-372 42.92,-341.84 38,-328.22 38,-289 38,-289 38,-289 38,-219 38,-181.06 36.42,-167.21 58,-136 68.48,-120.85 85.05,-108.89 99.95,-100.38"/>
<polygon fill="#63b8ff" stroke="#63b8ff" points="104.8,-405.44 115.27,-407.01 108.06,-399.25 104.8,-405.44"/>
</a>
</g>
</g>
<!-- Node6&#45;&gt;Node5 -->
<g id="edge7_Node000006_Node000005" class="edge">
<title>Node6&#45;&gt;Node5</title>
<g id="a_edge7_Node000006_Node000005"><a xlink:title=" ">
<path fill="none" stroke="#63b8ff" d="M200.44,-402.45C240.98,-380.64 294,-341.99 294,-289 294,-289 294,-289 294,-151 294,-107.96 294,-57.15 294,-32.27"/>
<polygon fill="#63b8ff" stroke="#63b8ff" points="199.05,-399.23 191.78,-406.93 202.27,-405.44 199.05,-399.23"/>
</a>
</g>
</g>
<!-- Node7 -->
<g id="Node000007" class="node">
<title>Node7</title>
<g id="a_Node000007"><a xlink:href="../../d1/dab/game__action_8hpp.html" target="_top" xlink:title=" ">
<polygon fill="white" stroke="#666666" points="233.5,-372 76.5,-372 76.5,-340 233.5,-340 233.5,-372"/>
<text text-anchor="start" x="84.5" y="-358.5" font-family="Helvetica,sans-Serif" font-size="10.00">lib_sokoban_core/include</text>
<text text-anchor="middle" x="155" y="-346.5" font-family="Helvetica,sans-Serif" font-size="10.00">/sokoban_core/game_action.hpp</text>
</a>
</g>
</g>
<!-- Node6&#45;&gt;Node7 -->
<g id="edge8_Node000006_Node000007" class="edge">
<title>Node6&#45;&gt;Node7</title>
<g id="a_edge8_Node000006_Node000007"><a xlink:title=" ">
<path fill="none" stroke="#63b8ff" d="M155,-396.31C155,-388.12 155,-379.38 155,-372.22"/>
<polygon fill="#63b8ff" stroke="#63b8ff" points="151.5,-396.18 155,-406.18 158.5,-396.18 151.5,-396.18"/>
</a>
</g>
</g>
<!-- Node11 -->
<g id="Node000011" class="node">
<title>Node11</title>
<g id="a_Node000011"><a xlink:href="../../d7/d87/lib__sokoban__core_2include_2sokoban__core_2mod_8hpp.html" target="_top" xlink:title=" ">
<polygon fill="white" stroke="#666666" points="447.75,-372 322.25,-372 322.25,-340 447.75,-340 447.75,-372"/>
<text text-anchor="start" x="330.25" y="-358.5" font-family="Helvetica,sans-Serif" font-size="10.00">lib_sokoban_core/include</text>
<text text-anchor="middle" x="385" y="-346.5" font-family="Helvetica,sans-Serif" font-size="10.00">/sokoban_core/mod.hpp</text>
</a>
</g>
</g>
<!-- Node6&#45;&gt;Node11 -->
<g id="edge16_Node000006_Node000011" class="edge">
<title>Node6&#45;&gt;Node11</title>
<g id="a_edge16_Node000006_Node000011"><a xlink:title=" ">
<path fill="none" stroke="#63b8ff" d="M219.56,-404.47C254.7,-394.39 297.67,-382.06 331.02,-372.49"/>
<polygon fill="#63b8ff" stroke="#63b8ff" points="219.03,-400.99 210.38,-407.11 220.96,-407.71 219.03,-400.99"/>
</a>
</g>
</g>
<!-- Node8 -->
<g id="Node000008" class="node">
<title>Node8</title>
<g id="a_Node000008"><a xlink:href="../../d9/dc0/base__game_8hpp.html" target="_top" xlink:title=" ">
<polygon fill="white" stroke="#666666" points="181.5,-168 66.5,-168 66.5,-136 181.5,-136 181.5,-168"/>
<text text-anchor="start" x="74.5" y="-154.5" font-family="Helvetica,sans-Serif" font-size="10.00">lib_base_game/include</text>
<text text-anchor="middle" x="124" y="-142.5" font-family="Helvetica,sans-Serif" font-size="10.00">/base_game.hpp</text>
</a>
</g>
</g>
<!-- Node7&#45;&gt;Node8 -->
<g id="edge9_Node000007_Node000008" class="edge">
<title>Node7&#45;&gt;Node8</title>
<g id="a_edge9_Node000007_Node000008"><a xlink:title=" ">
<path fill="none" stroke="#63b8ff" d="M120.46,-332.69C111.16,-324.83 102.23,-315.13 97,-304 78.09,-263.77 83.64,-246.98 95,-204 98.44,-191 106.04,-177.85 112.6,-168.16"/>
<polygon fill="#63b8ff" stroke="#63b8ff" points="118.15,-335.33 128.19,-338.73 122.46,-329.82 118.15,-335.33"/>
</a>
</g>
</g>
<!-- Node9 -->
<g id="Node000009" class="node">
<title>Node9</title>
<g id="a_Node000009"><a xlink:href="../../dc/d77/base__game__action_8hpp.html" target="_top" xlink:title=" ">
<polygon fill="white" stroke="#666666" points="225.75,-304 106.25,-304 106.25,-272 225.75,-272 225.75,-304"/>
<text text-anchor="start" x="114.25" y="-290.5" font-family="Helvetica,sans-Serif" font-size="10.00">lib_base_game/include</text>
<text text-anchor="middle" x="166" y="-278.5" font-family="Helvetica,sans-Serif" font-size="10.00">/base_game_action.hpp</text>
</a>
</g>
</g>
<!-- Node7&#45;&gt;Node9 -->
<g id="edge11_Node000007_Node000009" class="edge">
<title>Node7&#45;&gt;Node9</title>
<g id="a_edge11_Node000007_Node000009"><a xlink:title=" ">
<path fill="none" stroke="#63b8ff" d="M159.4,-328.6C160.78,-320.32 162.26,-311.46 163.46,-304.22"/>
<polygon fill="#63b8ff" stroke="#63b8ff" points="155.99,-327.76 157.8,-338.2 162.9,-328.91 155.99,-327.76"/>
</a>
</g>
</g>
<!-- Node8&#45;&gt;Node3 -->
<g id="edge10_Node000008_Node000003" class="edge">
<title>Node8&#45;&gt;Node3</title>
<g id="a_edge10_Node000008_Node000003"><a xlink:title=" ">
<path fill="none" stroke="#63b8ff" d="M127.64,-124.31C128.76,-116.12 129.95,-107.38 130.92,-100.22"/>
<polygon fill="#63b8ff" stroke="#63b8ff" points="124.18,-123.81 126.29,-134.19 131.11,-124.76 124.18,-123.81"/>
</a>
</g>
</g>
<!-- Node9&#45;&gt;Node4 -->
<g id="edge15_Node000009_Node000004" class="edge">
<title>Node9&#45;&gt;Node4</title>
<g id="a_edge15_Node000009_Node000004"><a xlink:title=" ">
<path fill="none" stroke="#63b8ff" d="M209.66,-265.33C220.57,-257.66 230.89,-247.91 237,-236 243.49,-223.35 238.39,-218.15 237,-204 230.97,-142.67 242.82,-120.16 210,-68 200.65,-53.14 185.3,-41.07 171.54,-32.41"/>
<polygon fill="#63b8ff" stroke="#63b8ff" points="207.8,-262.37 201.29,-270.72 211.59,-268.26 207.8,-262.37"/>
</a>
</g>
</g>
<!-- Node10 -->
<g id="Node000010" class="node">
<title>Node10</title>
<g id="a_Node000010"><a xlink:href="../../db/d29/base__action__factory_8hpp.html" target="_top" xlink:title=" ">
<polygon fill="white" stroke="#666666" points="228.38,-236 103.62,-236 103.62,-204 228.38,-204 228.38,-236"/>
<text text-anchor="start" x="111.62" y="-222.5" font-family="Helvetica,sans-Serif" font-size="10.00">lib_base_game/include</text>
<text text-anchor="middle" x="166" y="-210.5" font-family="Helvetica,sans-Serif" font-size="10.00">/base_action_factory.hpp</text>
</a>
</g>
</g>
<!-- Node9&#45;&gt;Node10 -->
<g id="edge12_Node000009_Node000010" class="edge">
<title>Node9&#45;&gt;Node10</title>
<g id="a_edge12_Node000009_Node000010"><a xlink:title=" ">
<path fill="none" stroke="#63b8ff" d="M166,-260.31C166,-252.12 166,-243.38 166,-236.22"/>
<polygon fill="#63b8ff" stroke="#63b8ff" points="162.5,-260.18 166,-270.18 169.5,-260.18 162.5,-260.18"/>
</a>
</g>
</g>
<!-- Node10&#45;&gt;Node3 -->
<g id="edge14_Node000010_Node000003" class="edge">
<title>Node10&#45;&gt;Node3</title>
<g id="a_edge14_Node000010_Node000003"><a xlink:title=" ">
<path fill="none" stroke="#63b8ff" d="M182.76,-193.91C191.78,-177.12 199.47,-154.74 191,-136 184.37,-121.34 171.21,-109.22 159.1,-100.47"/>
<polygon fill="#63b8ff" stroke="#63b8ff" points="179.91,-191.87 177.87,-202.26 185.95,-195.4 179.91,-191.87"/>
</a>
</g>
</g>
<!-- Node10&#45;&gt;Node8 -->
<g id="edge13_Node000010_Node000008" class="edge">
<title>Node10&#45;&gt;Node8</title>
<g id="a_edge13_Node000010_Node000008"><a xlink:title=" ">
<path fill="none" stroke="#63b8ff" d="M150.1,-194.02C144.58,-185.34 138.56,-175.88 133.69,-168.22"/>
<polygon fill="#63b8ff" stroke="#63b8ff" points="147.12,-195.86 155.45,-202.42 153.03,-192.1 147.12,-195.86"/>
</a>
</g>
</g>
<!-- Node11&#45;&gt;Node5 -->
<g id="edge17_Node000011_Node000005" class="edge">
<title>Node11&#45;&gt;Node5</title>
<g id="a_edge17_Node000011_Node000005"><a xlink:title=" ">
<path fill="none" stroke="#63b8ff" d="M369.72,-329.73C355.34,-303.51 336,-260.84 336,-221 336,-221 336,-221 336,-151 336,-106.14 314.3,-56.54 302.1,-32.19"/>
<polygon fill="#63b8ff" stroke="#63b8ff" points="366.59,-331.3 374.57,-338.27 372.67,-327.84 366.59,-331.3"/>
</a>
</g>
</g>
<!-- Node12 -->
<g id="Node000012" class="node">
<title>Node12</title>
<g id="a_Node000012"><a xlink:href="../../df/d0a/main_8cpp.html" target="_top" xlink:title=" ">
<polygon fill="white" stroke="#666666" points="505.38,-230 380.62,-230 380.62,-210 505.38,-210 505.38,-230"/>
<text text-anchor="middle" x="443" y="-216.5" font-family="Helvetica,sans-Serif" font-size="10.00">sokoban_driver/main.cpp</text>
</a>
</g>
</g>
<!-- Node11&#45;&gt;Node12 -->
<g id="edge18_Node000011_Node000012" class="edge">
<title>Node11&#45;&gt;Node12</title>
<g id="a_edge18_Node000011_Node000012"><a xlink:title=" ">
<path fill="none" stroke="#63b8ff" d="M384.94,-328.29C385.83,-311.44 388.74,-289.61 397,-272 405,-254.94 420.65,-239.52 431.46,-230.2"/>
<polygon fill="#63b8ff" stroke="#63b8ff" points="381.45,-327.94 384.65,-338.04 388.45,-328.15 381.45,-327.94"/>
</a>
</g>
</g>
<!-- Node13 -->
<g id="Node000013" class="node">
<title>Node13</title>
<g id="a_Node000013"><a xlink:href="../../d5/d6f/mod__dynamic__library_8hpp.html" target="_top" xlink:title=" ">
<polygon fill="white" stroke="#666666" points="513.75,-304 406.25,-304 406.25,-272 513.75,-272 513.75,-304"/>
<text text-anchor="start" x="414.25" y="-290.5" font-family="Helvetica,sans-Serif" font-size="10.00">sokoban_driver/mod</text>
<text text-anchor="middle" x="460" y="-278.5" font-family="Helvetica,sans-Serif" font-size="10.00">_dynamic_library.hpp</text>
</a>
</g>
</g>
<!-- Node11&#45;&gt;Node13 -->
<g id="edge19_Node000011_Node000013" class="edge">
<title>Node11&#45;&gt;Node13</title>
<g id="a_edge19_Node000011_Node000013"><a xlink:title=" ">
<path fill="none" stroke="#63b8ff" d="M410.77,-332.32C421.22,-323.13 433.01,-312.75 442.44,-304.45"/>
<polygon fill="#63b8ff" stroke="#63b8ff" points="408.73,-329.46 403.53,-338.69 413.35,-334.71 408.73,-329.46"/>
</a>
</g>
</g>
<!-- Node13&#45;&gt;Node12 -->
<g id="edge20_Node000013_Node000012" class="edge">
<title>Node13&#45;&gt;Node12</title>
<g id="a_edge20_Node000013_Node000012"><a xlink:title=" ">
<path fill="none" stroke="#63b8ff" d="M453.21,-260.66C450.45,-249.92 447.43,-238.21 445.4,-230.32"/>
<polygon fill="#63b8ff" stroke="#63b8ff" points="449.8,-261.42 455.68,-270.23 456.57,-259.67 449.8,-261.42"/>
</a>
</g>
</g>
</g>
</svg>

<g id="navigator" transform="translate(0 0)" fill="#404254">
  <rect fill="#f2f5e9" fill-opacity="0.5" stroke="#606060" stroke-width=".5" x="0" y="0" width="60" height="60"/>
  <use id="zoomplus" xlink:href="#zoomPlus" x="17" y="9" onmousedown="handleZoom(evt,'in')"/>
  <use id="zoomminus" xlink:href="#zoomMin" x="42" y="9" onmousedown="handleZoom(evt,'out')"/>
  <use id="reset" xlink:href="#resetDef" x="30" y="36" onmousedown="handleReset()"/>
   <use id="arrowup" xlink:href="#arrowUp" x="0" y="0" onmousedown="handlePan(0,-1)"/>
  <use id="arrowright" xlink:href="#arrowRight" x="0" y="0" onmousedown="handlePan(1,0)"/>
  <use id="arrowdown" xlink:href="#arrowDown" x="0" y="0" onmousedown="handlePan(0,1)"/>
  <use id="arrowleft" xlink:href="#arrowLeft" x="0" y="0" onmousedown="handlePan(-1,0)"/>
</g>
<svg viewBox="0 0 15 15" width="100%" height="30px" preserveAspectRatio="xMaxYMin meet">
 <g id="arrow_out" transform="scale(0.3 0.3)">
  <a xlink:href="console__linux_8hpp__dep__incl_org.svg" target="_base">
   <rect id="button" ry="5" rx="5" y="6" x="6" height="38" width="38"
        fill="#f2f5e9" fill-opacity="0.5" stroke="#606060" stroke-width="1.0"/>
   <path id="arrow"
     d="M 11.500037,31.436501 C 11.940474,20.09759 22.043105,11.32322 32.158766,21.979434 L 37.068811,17.246167 C 37.068811,17.246167 37.088388,32 37.088388,32 L 22.160133,31.978069 C 22.160133,31.978069 26.997745,27.140456 26.997745,27.140456 C 18.528582,18.264221 13.291696,25.230495 11.500037,31.436501 z"
     style="fill:#404040;"/>
  </a>
 </g>
</svg>

<style type='text/css'>
<![CDATA[
[data-mouse-over-selected='false'] { opacity: 0.7; }
[data-mouse-over-selected='true']  { opacity: 1.0; }
]]>
</style>
<script type="application/ecmascript"><![CDATA[
document.addEventListener('DOMContentLoaded', (event) => {
  highlightEdges();
  highlightAdjacentNodes();
});
]]></script>
</svg>
