<?xml version="1.0" encoding="UTF-8" standalone="no"?>
<!DOCTYPE svg PUBLIC "-//W3C//DTD SVG 1.1//EN"
 "http://www.w3.org/Graphics/SVG/1.1/DTD/svg11.dtd">
<!-- Generated by graphviz version 12.1.2 (20240928.0832)
 -->
<!-- Title: editor_lib/include/editor/graphics_item.h Pages: 1 -->
<svg width="148pt" height="149pt"
 viewBox="0.00 0.00 148.00 149.00" xmlns="http://www.w3.org/2000/svg" xmlns:xlink="http://www.w3.org/1999/xlink">
<g id="graph0" class="graph" transform="scale(1 1) rotate(0) translate(4 145)">
<title>editor_lib/include/editor/graphics_item.h</title>
<!-- Node1 -->
<g id="Node000001" class="node">
<title>Node1</title>
<g id="a_Node000001"><a xlink:title=" ">
<polygon fill="#999999" stroke="#666666" points="131.88,-141 17.62,-141 17.62,-110.5 131.88,-110.5 131.88,-141"/>
<text text-anchor="start" x="25.62" y="-127.5" font-family="Helvetica,sans-Serif" font-size="10.00">editor_lib/include</text>
<text text-anchor="middle" x="74.75" y="-116.25" font-family="Helvetica,sans-Serif" font-size="10.00">/editor/graphics_item.h</text>
</a>
</g>
</g>
<!-- Node2 -->
<g id="Node000002" class="node">
<title>Node2</title>
<g id="a_Node000002"><a xlink:href="../../d5/da3/serializable_8h.html" target="_top" xlink:title=" ">
<polygon fill="white" stroke="#666666" points="71.5,-74.5 0,-74.5 0,-55.25 71.5,-55.25 71.5,-74.5"/>
<text text-anchor="middle" x="35.75" y="-61" font-family="Helvetica,sans-Serif" font-size="10.00">serializable.h</text>
</a>
</g>
</g>
<!-- Node1&#45;&gt;Node2 -->
<g id="edge1_Node000001_Node000002" class="edge">
<title>Node1&#45;&gt;Node2</title>
<g id="a_edge1_Node000001_Node000002"><a xlink:title=" ">
<path fill="none" stroke="#63b8ff" d="M65.11,-110.2C59.97,-102.44 53.59,-92.81 48.1,-84.51"/>
<polygon fill="#63b8ff" stroke="#63b8ff" points="51.04,-82.62 42.6,-76.21 45.2,-86.48 51.04,-82.62"/>
</a>
</g>
</g>
<!-- Node4 -->
<g id="Node000004" class="node">
<title>Node4</title>
<g id="a_Node000004"><a xlink:title=" ">
<polygon fill="#e0e0e0" stroke="#999999" points="140,-74.5 89.5,-74.5 89.5,-55.25 140,-55.25 140,-74.5"/>
<text text-anchor="middle" x="114.75" y="-61" font-family="Helvetica,sans-Serif" font-size="10.00">memory</text>
</a>
</g>
</g>
<!-- Node1&#45;&gt;Node4 -->
<g id="edge3_Node000001_Node000004" class="edge">
<title>Node1&#45;&gt;Node4</title>
<g id="a_edge3_Node000001_Node000004"><a xlink:title=" ">
<path fill="none" stroke="#63b8ff" d="M84.64,-110.2C89.97,-102.35 96.6,-92.6 102.28,-84.24"/>
<polygon fill="#63b8ff" stroke="#63b8ff" points="105.01,-86.44 107.73,-76.2 99.22,-82.51 105.01,-86.44"/>
</a>
</g>
</g>
<!-- Node3 -->
<g id="Node000003" class="node">
<title>Node3</title>
<g id="a_Node000003"><a xlink:title=" ">
<polygon fill="#e0e0e0" stroke="#999999" points="58,-19.25 13.5,-19.25 13.5,0 58,0 58,-19.25"/>
<text text-anchor="middle" x="35.75" y="-5.75" font-family="Helvetica,sans-Serif" font-size="10.00">iosfwd</text>
</a>
</g>
</g>
<!-- Node2&#45;&gt;Node3 -->
<g id="edge2_Node000002_Node000003" class="edge">
<title>Node2&#45;&gt;Node3</title>
<g id="a_edge2_Node000002_Node000003"><a xlink:title=" ">
<path fill="none" stroke="#63b8ff" d="M35.75,-55.08C35.75,-48.57 35.75,-39.42 35.75,-31.12"/>
<polygon fill="#63b8ff" stroke="#63b8ff" points="39.25,-31.12 35.75,-21.12 32.25,-31.12 39.25,-31.12"/>
</a>
</g>
</g>
</g>
</svg>
