<?xml version="1.0" encoding="UTF-8" standalone="no"?>
<!DOCTYPE svg PUBLIC "-//W3C//DTD SVG 1.1//EN"
 "http://www.w3.org/Graphics/SVG/1.1/DTD/svg11.dtd">
<!-- Generated by graphviz version 12.1.1 (20240910.0053)
 -->
<!-- Title: sokoban::tui::MenuEntry&lt; Enum &gt; Pages: 1 -->
<svg width="124pt" height="172pt"
 viewBox="0.00 0.00 124.00 172.00" xmlns="http://www.w3.org/2000/svg" xmlns:xlink="http://www.w3.org/1999/xlink">

<svg id="main" version="1.1" xmlns="http://www.w3.org/2000/svg" xmlns:xlink="http://www.w3.org/1999/xlink" xml:space="preserve" onload="init(evt)">
<style type="text/css"><![CDATA[
.node, .edge {opacity: 0.7;}
.node.selected, .edge.selected {opacity: 1;}
.edge:hover path { stroke: red; }
.edge:hover polygon { stroke: red; fill: red; }
]]></style>
<script type="application/ecmascript" xlink:href="../../svg.min.js"/>
<svg id="graph" class="graph">
<g id="graph0" class="graph" transform="scale(1 1) rotate(0) translate(4 168)">
<title>sokoban::tui::MenuEntry&lt; Enum &gt;</title>
<!-- Node1 -->
<g id="Node000001" class="node">
<title>Node1</title>
<g id="a_Node000001"><a xlink:title=" ">
<polygon fill="#999999" stroke="none" points="116,-64 0,-64 0,0 116,0 116,-64"/>
<text text-anchor="start" x="4.75" y="-50.5" font-family="Helvetica,sans-Serif" font-size="10.00">sokoban::tui::MenuEntry</text>
<text text-anchor="start" x="36.25" y="-38.5" font-family="Helvetica,sans-Serif" font-size="10.00">&lt; Enum &gt;</text>
<text text-anchor="start" x="56.5" y="-22.5" font-family="Helvetica,sans-Serif" font-size="10.00"> </text>
<text text-anchor="start" x="56.5" y="-6.5" font-family="Helvetica,sans-Serif" font-size="10.00"> </text>
<polygon fill="#666666" stroke="#666666" points="0,-34 0,-34 116,-34 116,-34 0,-34"/>
<polygon fill="#666666" stroke="#666666" points="0,-18 0,-18 116,-18 116,-18 0,-18"/>
<polygon fill="none" stroke="#666666" points="0,0 0,-64 116,-64 116,0 0,0"/>
</a>
</g>
</g>
<!-- Node2 -->
<g id="Node000002" class="node">
<title>Node2</title>
<g id="a_Node000002"><a xlink:title=" ">
<polygon fill="white" stroke="none" points="49,-164 15,-164 15,-112 49,-112 49,-164"/>
<text text-anchor="start" x="20" y="-150.5" font-family="Helvetica,sans-Serif" font-size="10.00">string</text>
<text text-anchor="start" x="30.5" y="-134.5" font-family="Helvetica,sans-Serif" font-size="10.00"> </text>
<text text-anchor="start" x="30.5" y="-118.5" font-family="Helvetica,sans-Serif" font-size="10.00"> </text>
<polygon fill="#666666" stroke="#666666" points="15,-146 15,-146 49,-146 49,-146 15,-146"/>
<polygon fill="#666666" stroke="#666666" points="15,-130 15,-130 49,-130 49,-130 15,-130"/>
<polygon fill="none" stroke="#666666" points="15,-112 15,-164 49,-164 49,-112 15,-112"/>
</a>
</g>
</g>
<!-- Node2&#45;&gt;Node1 -->
<g id="edge1_Node000001_Node000002" class="edge">
<title>Node2&#45;&gt;Node1</title>
<g id="a_edge1_Node000001_Node000002"><a xlink:title=" ">
<path fill="none" stroke="#63b8ff" d="M32.92,-112.09C33.68,-102.57 35.05,-91.67 37.5,-82 38,-80.03 38.56,-78.05 39.17,-76.05"/>
<polygon fill="none" stroke="#63b8ff" points="39.17,-76.06 37.39,-69.07 43.16,-64.74 44.94,-71.73 39.17,-76.06"/>
</a>
</g>
<text text-anchor="middle" x="50.25" y="-84.5" font-family="Helvetica,sans-Serif" font-size="10.00" fill="grey"> +text</text>
</g>
<!-- Node3 -->
<g id="Node000003" class="node">
<title>Node3</title>
<g id="a_Node000003"><a xlink:title=" ">
<polygon fill="white" stroke="none" points="102.5,-164 67.5,-164 67.5,-112 102.5,-112 102.5,-164"/>
<text text-anchor="start" x="72.25" y="-150.5" font-family="Helvetica,sans-Serif" font-size="10.00">Enum</text>
<text text-anchor="start" x="83.5" y="-134.5" font-family="Helvetica,sans-Serif" font-size="10.00"> </text>
<text text-anchor="start" x="83.5" y="-118.5" font-family="Helvetica,sans-Serif" font-size="10.00"> </text>
<polygon fill="#666666" stroke="#666666" points="67.5,-146 67.5,-146 102.5,-146 102.5,-146 67.5,-146"/>
<polygon fill="#666666" stroke="#666666" points="67.5,-130 67.5,-130 102.5,-130 102.5,-130 67.5,-130"/>
<polygon fill="none" stroke="#666666" points="67.5,-112 67.5,-164 102.5,-164 102.5,-112 67.5,-112"/>
</a>
</g>
</g>
<!-- Node3&#45;&gt;Node1 -->
<g id="edge2_Node000001_Node000003" class="edge">
<title>Node3&#45;&gt;Node1</title>
<g id="a_edge2_Node000001_Node000003"><a xlink:title=" ">
<path fill="none" stroke="#63b8ff" d="M78.53,-112.09C75.73,-101.3 72.37,-88.34 69.18,-76.07"/>
<polygon fill="none" stroke="#63b8ff" points="69.2,-76.14 63.82,-71.34 66.18,-64.53 71.56,-69.33 69.2,-76.14"/>
</a>
</g>
<text text-anchor="middle" x="89.24" y="-84.5" font-family="Helvetica,sans-Serif" font-size="10.00" fill="grey"> +value</text>
</g>
</g>
</svg>
</svg>

<style type='text/css'>
<![CDATA[
[data-mouse-over-selected='false'] { opacity: 0.7; }
[data-mouse-over-selected='true']  { opacity: 1.0; }
]]>
</style>
<script type="application/ecmascript"><![CDATA[
document.addEventListener('DOMContentLoaded', (event) => {
  highlightEdges();
  highlightAdjacentNodes();
});
]]></script>
</svg>
