<?xml version="1.0" encoding="UTF-8" standalone="no"?>
<!DOCTYPE svg PUBLIC "-//W3C//DTD SVG 1.1//EN"
 "http://www.w3.org/Graphics/SVG/1.1/DTD/svg11.dtd">
<!-- Generated by graphviz version 12.1.1 (20240910.0053)
 -->
<!-- Title: lib_base_game/include/base_action_factory.hpp Pages: 1 -->
<!--zoomable 444 -->

<svg id="main" version="1.1" xmlns="http://www.w3.org/2000/svg" xmlns:xlink="http://www.w3.org/1999/xlink" xml:space="preserve" onload="init(evt)">
<style type="text/css"><![CDATA[
.node, .edge {opacity: 0.7;}
.node.selected, .edge.selected {opacity: 1;}
.edge:hover path { stroke: red; }
.edge:hover polygon { stroke: red; fill: red; }
]]></style>

<defs>
  <circle id="rim" cx="0" cy="0" r="7"/>
  <circle id="rim2" cx="0" cy="0" r="3.5"/>
  <g id="zoomPlus">
    <use xlink:href="#rim" fill="#404040"><set attributeName="fill" to="#808080" begin="zoomplus.mouseover" end="zoomplus.mouseout"/></use>
    <path d="M-4,0h8M0,-4v8" fill="none" stroke="white" stroke-width="1.5" pointer-events="none"/>
  </g>
  <g id="zoomMin">
    <use xlink:href="#rim" fill="#404040"><set attributeName="fill" to="#808080" begin="zoomminus.mouseover" end="zoomminus.mouseout"/></use>
    <path d="M-4,0h8" fill="none" stroke="white" stroke-width="1.5" pointer-events="none"/>
  </g>
  <g id="arrowUp" transform="translate(30 24)">
    <use xlink:href="#rim"/>
    <path pointer-events="none" fill="none" stroke="white" stroke-width="1.5" d="M0,-3.0v7 M-2.5,-0.5L0,-3.0L2.5,-0.5"/>
  </g>
  <g id="arrowRight" transform="rotate(90) translate(36 -43)">
    <use xlink:href="#rim"/>
    <path pointer-events="none" fill="none" stroke="white" stroke-width="1.5" d="M0,-3.0v7 M-2.5,-0.5L0,-3.0L2.5,-0.5"/>
  </g>
  <g id="arrowDown" transform="rotate(180) translate(-30 -48)">
    <use xlink:href="#rim"/>
    <path pointer-events="none" fill="none" stroke="white" stroke-width="1.5" d="M0,-3.0v7 M-2.5,-0.5L0,-3.0L2.5,-0.5"/>
  </g>
  <g id="arrowLeft" transform="rotate(270) translate(-36 17)">
    <use xlink:href="#rim"/>
    <path pointer-events="none" fill="none" stroke="white" stroke-width="1.5" d="M0,-3.0v7 M-2.5,-0.5L0,-3.0L2.5,-0.5"/>
  </g>
  <g id="resetDef">
    <use xlink:href="#rim2" fill="#404040"><set attributeName="fill" to="#808080" begin="reset.mouseover" end="reset.mouseout"/></use>
  </g>
</defs>
<script type="application/ecmascript">
var viewWidth = 1069;
var viewHeight = 444;
var sectionId = 'dynsection-0';
</script>
<script type="application/ecmascript" xlink:href="../../svg.min.js"/>
<svg id="graph" class="graph">
<g id="viewport">
<title>lib_base_game/include/base_action_factory.hpp</title>
<!-- Node1 -->
<g id="Node000001" class="node">
<title>Node1</title>
<g id="a_Node000001"><a xlink:title=" ">
<polygon fill="#999999" stroke="#666666" points="960.23,-436 835.48,-436 835.48,-404 960.23,-404 960.23,-436"/>
<text text-anchor="start" x="843.48" y="-422.5" font-family="Helvetica,sans-Serif" font-size="10.00">lib_base_game/include</text>
<text text-anchor="middle" x="897.85" y="-410.5" font-family="Helvetica,sans-Serif" font-size="10.00">/base_action_factory.hpp</text>
</a>
</g>
</g>
<!-- Node2 -->
<g id="Node000002" class="node">
<title>Node2</title>
<g id="a_Node000002"><a xlink:href="../../de/d85/key__definitions_8hpp.html" target="_top" xlink:title=" ">
<polygon fill="white" stroke="#666666" points="1060.73,-144 896.98,-144 896.98,-124 1060.73,-124 1060.73,-144"/>
<text text-anchor="middle" x="978.85" y="-130.5" font-family="Helvetica,sans-Serif" font-size="10.00">sokoban_core/key_definitions.hpp</text>
</a>
</g>
</g>
<!-- Node1&#45;&gt;Node2 -->
<g id="edge1_Node000001_Node000002" class="edge">
<title>Node1&#45;&gt;Node2</title>
<g id="a_edge1_Node000001_Node000002"><a xlink:title=" ">
<path fill="none" stroke="#63b8ff" d="M931.95,-403.66C967.12,-385.24 1016.85,-350.75 1016.85,-303 1016.85,-303 1016.85,-303 1016.85,-245 1016.85,-211.77 1001.17,-175.85 989.96,-154.4"/>
<polygon fill="#63b8ff" stroke="#63b8ff" points="993.05,-152.76 985.18,-145.66 986.91,-156.12 993.05,-152.76"/>
</a>
</g>
</g>
<!-- Node3 -->
<g id="Node000003" class="node">
<title>Node3</title>
<g id="a_Node000003"><a xlink:href="../../dc/d77/base__game__action_8hpp.html" target="_top" xlink:title=" ">
<polygon fill="white" stroke="#666666" points="913.1,-368 796.6,-368 796.6,-348 913.1,-348 913.1,-368"/>
<text text-anchor="middle" x="854.85" y="-354.5" font-family="Helvetica,sans-Serif" font-size="10.00">base_game_action.hpp</text>
</a>
</g>
</g>
<!-- Node1&#45;&gt;Node3 -->
<g id="edge2_Node000001_Node000003" class="edge">
<title>Node1&#45;&gt;Node3</title>
<g id="a_edge2_Node000001_Node000003"><a xlink:title=" ">
<path fill="none" stroke="#63b8ff" d="M886.78,-403.55C881.12,-395.65 874.18,-385.97 868.23,-377.66"/>
<polygon fill="#63b8ff" stroke="#63b8ff" points="871.15,-375.73 862.48,-369.64 865.46,-379.81 871.15,-375.73"/>
</a>
</g>
</g>
<!-- Node8 -->
<g id="Node000008" class="node">
<title>Node8</title>
<g id="a_Node000008"><a xlink:title=" ">
<polygon fill="#e0e0e0" stroke="#999999" points="694.48,-144 643.23,-144 643.23,-124 694.48,-124 694.48,-144"/>
<text text-anchor="middle" x="668.85" y="-130.5" font-family="Helvetica,sans-Serif" font-size="10.00">memory</text>
</a>
</g>
</g>
<!-- Node1&#45;&gt;Node8 -->
<g id="edge45_Node000001_Node000008" class="edge">
<title>Node1&#45;&gt;Node8</title>
<g id="a_edge45_Node000001_Node000008"><a xlink:title=" ">
<path fill="none" stroke="#63b8ff" d="M841.53,-403.51C822.16,-395.68 801.86,-384.28 787.85,-368 768.22,-345.19 768.85,-333.1 768.85,-303 768.85,-303 768.85,-303 768.85,-245 768.85,-214.9 768.64,-203.52 749.85,-180 738.35,-165.6 720.92,-155.08 705.17,-147.84"/>
<polygon fill="#63b8ff" stroke="#63b8ff" points="706.6,-144.65 696.02,-143.95 703.85,-151.09 706.6,-144.65"/>
</a>
</g>
</g>
<!-- Node11 -->
<g id="Node000011" class="node">
<title>Node11</title>
<g id="a_Node000011"><a xlink:href="../../d7/dc7/command_8hpp.html" target="_top" xlink:title=" ">
<polygon fill="white" stroke="#666666" points="950.6,-200 873.1,-200 873.1,-180 950.6,-180 950.6,-200"/>
<text text-anchor="middle" x="911.85" y="-186.5" font-family="Helvetica,sans-Serif" font-size="10.00">command.hpp</text>
</a>
</g>
</g>
<!-- Node1&#45;&gt;Node11 -->
<g id="edge44_Node000001_Node000011" class="edge">
<title>Node1&#45;&gt;Node11</title>
<g id="a_edge44_Node000001_Node000011"><a xlink:title=" ">
<path fill="none" stroke="#63b8ff" d="M907.31,-403.57C912.74,-393.77 919.03,-380.61 921.85,-368 934.3,-312.33 923.48,-244.5 916.56,-211.29"/>
<polygon fill="#63b8ff" stroke="#63b8ff" points="920.05,-210.85 914.48,-201.84 913.21,-212.36 920.05,-210.85"/>
</a>
</g>
</g>
<!-- Node3&#45;&gt;Node2 -->
<g id="edge43_Node000003_Node000002" class="edge">
<title>Node3&#45;&gt;Node2</title>
<g id="a_edge43_Node000003_Node000002"><a xlink:title=" ">
<path fill="none" stroke="#63b8ff" d="M862.58,-347.7C881.68,-324.32 931.55,-260.61 959.85,-200 966.56,-185.63 971.48,-168.36 974.62,-155.23"/>
<polygon fill="#63b8ff" stroke="#63b8ff" points="978.01,-156.14 976.77,-145.62 971.17,-154.62 978.01,-156.14"/>
</a>
</g>
</g>
<!-- Node4 -->
<g id="Node000004" class="node">
<title>Node4</title>
<g id="a_Node000004"><a xlink:href="../../d1/dab/game__action_8hpp.html" target="_top" xlink:title=" ">
<polygon fill="white" stroke="#666666" points="740.85,-312 586.85,-312 586.85,-292 740.85,-292 740.85,-312"/>
<text text-anchor="middle" x="663.85" y="-298.5" font-family="Helvetica,sans-Serif" font-size="10.00">sokoban_core/game_action.hpp</text>
</a>
</g>
</g>
<!-- Node3&#45;&gt;Node4 -->
<g id="edge3_Node000003_Node000004" class="edge">
<title>Node3&#45;&gt;Node4</title>
<g id="a_edge3_Node000003_Node000004"><a xlink:title=" ">
<path fill="none" stroke="#63b8ff" d="M821.58,-347.59C790.14,-338.71 742.76,-325.31 708.14,-315.52"/>
<polygon fill="#63b8ff" stroke="#63b8ff" points="709.41,-312.24 698.84,-312.89 707.51,-318.98 709.41,-312.24"/>
</a>
</g>
</g>
<!-- Node5 -->
<g id="Node000005" class="node">
<title>Node5</title>
<g id="a_Node000005"><a xlink:href="../../d4/d42/game__object_8hpp.html" target="_top" xlink:title=" ">
<polygon fill="white" stroke="#666666" points="710.98,-256 620.73,-256 620.73,-236 710.98,-236 710.98,-256"/>
<text text-anchor="middle" x="665.85" y="-242.5" font-family="Helvetica,sans-Serif" font-size="10.00">game_object.hpp</text>
</a>
</g>
</g>
<!-- Node4&#45;&gt;Node5 -->
<g id="edge4_Node000004_Node000005" class="edge">
<title>Node4&#45;&gt;Node5</title>
<g id="a_edge4_Node000004_Node000005"><a xlink:title=" ">
<path fill="none" stroke="#63b8ff" d="M664.2,-291.59C664.44,-285.01 664.78,-275.96 665.08,-267.73"/>
<polygon fill="#63b8ff" stroke="#63b8ff" points="668.58,-267.93 665.45,-257.81 661.58,-267.67 668.58,-267.93"/>
</a>
</g>
</g>
<!-- Node10 -->
<g id="Node000010" class="node">
<title>Node10</title>
<g id="a_Node000010"><a xlink:href="../../da/d4c/session__context_8hpp.html" target="_top" xlink:title=" ">
<polygon fill="white" stroke="#666666" points="441.85,-256 335.85,-256 335.85,-236 441.85,-236 441.85,-256"/>
<text text-anchor="middle" x="388.85" y="-242.5" font-family="Helvetica,sans-Serif" font-size="10.00">session_context.hpp</text>
</a>
</g>
</g>
<!-- Node4&#45;&gt;Node10 -->
<g id="edge10_Node000004_Node000010" class="edge">
<title>Node4&#45;&gt;Node10</title>
<g id="a_edge10_Node000004_Node000010"><a xlink:title=" ">
<path fill="none" stroke="#63b8ff" d="M615.64,-291.53C568.95,-282.36 498.07,-268.45 448,-258.61"/>
<polygon fill="#63b8ff" stroke="#63b8ff" points="448.98,-255.24 438.5,-256.75 447.64,-262.11 448.98,-255.24"/>
</a>
</g>
</g>
<!-- Node6 -->
<g id="Node000006" class="node">
<title>Node6</title>
<g id="a_Node000006"><a xlink:href="../../d3/d3e/game__object__id_8hpp.html" target="_top" xlink:title=" ">
<polygon fill="white" stroke="#666666" points="602.35,-200 499.35,-200 499.35,-180 602.35,-180 602.35,-200"/>
<text text-anchor="middle" x="550.85" y="-186.5" font-family="Helvetica,sans-Serif" font-size="10.00">game_object_id.hpp</text>
</a>
</g>
</g>
<!-- Node5&#45;&gt;Node6 -->
<g id="edge5_Node000005_Node000006" class="edge">
<title>Node5&#45;&gt;Node6</title>
<g id="a_edge5_Node000005_Node000006"><a xlink:title=" ">
<path fill="none" stroke="#63b8ff" d="M645.82,-235.59C628.04,-227.24 601.79,-214.92 581.39,-205.34"/>
<polygon fill="#63b8ff" stroke="#63b8ff" points="582.95,-202.21 572.41,-201.12 579.97,-208.54 582.95,-202.21"/>
</a>
</g>
</g>
<!-- Node5&#45;&gt;Node8 -->
<g id="edge8_Node000005_Node000008" class="edge">
<title>Node5&#45;&gt;Node8</title>
<g id="a_edge8_Node000005_Node000008"><a xlink:title=" ">
<path fill="none" stroke="#63b8ff" d="M666.11,-235.62C666.59,-218.01 667.64,-179.59 668.29,-155.65"/>
<polygon fill="#63b8ff" stroke="#63b8ff" points="671.78,-155.96 668.56,-145.87 664.78,-155.77 671.78,-155.96"/>
</a>
</g>
</g>
<!-- Node9 -->
<g id="Node000009" class="node">
<title>Node9</title>
<g id="a_Node000009"><a xlink:title=" ">
<polygon fill="#e0e0e0" stroke="#999999" points="740.35,-200 697.35,-200 697.35,-180 740.35,-180 740.35,-200"/>
<text text-anchor="middle" x="718.85" y="-186.5" font-family="Helvetica,sans-Serif" font-size="10.00">vector</text>
</a>
</g>
</g>
<!-- Node5&#45;&gt;Node9 -->
<g id="edge9_Node000005_Node000009" class="edge">
<title>Node5&#45;&gt;Node9</title>
<g id="a_edge9_Node000005_Node000009"><a xlink:title=" ">
<path fill="none" stroke="#63b8ff" d="M675.08,-235.59C682.46,-228.08 692.99,-217.35 701.87,-208.3"/>
<polygon fill="#63b8ff" stroke="#63b8ff" points="704.16,-210.97 708.67,-201.38 699.16,-206.06 704.16,-210.97"/>
</a>
</g>
</g>
<!-- Node7 -->
<g id="Node000007" class="node">
<title>Node7</title>
<g id="a_Node000007"><a xlink:title=" ">
<polygon fill="#e0e0e0" stroke="#999999" points="478.85,-144 438.85,-144 438.85,-124 478.85,-124 478.85,-144"/>
<text text-anchor="middle" x="458.85" y="-130.5" font-family="Helvetica,sans-Serif" font-size="10.00">string</text>
</a>
</g>
</g>
<!-- Node6&#45;&gt;Node7 -->
<g id="edge6_Node000006_Node000007" class="edge">
<title>Node6&#45;&gt;Node7</title>
<g id="a_edge6_Node000006_Node000007"><a xlink:title=" ">
<path fill="none" stroke="#63b8ff" d="M534.83,-179.59C521.06,-171.51 500.95,-159.71 484.87,-150.27"/>
<polygon fill="#63b8ff" stroke="#63b8ff" points="486.7,-147.29 476.31,-145.25 483.16,-153.33 486.7,-147.29"/>
</a>
</g>
</g>
<!-- Node6&#45;&gt;Node8 -->
<g id="edge7_Node000006_Node000008" class="edge">
<title>Node6&#45;&gt;Node8</title>
<g id="a_edge7_Node000006_Node000008"><a xlink:title=" ">
<path fill="none" stroke="#63b8ff" d="M571.41,-179.59C589.74,-171.21 616.84,-158.8 637.81,-149.21"/>
<polygon fill="#63b8ff" stroke="#63b8ff" points="639.12,-152.45 646.76,-145.11 636.21,-146.09 639.12,-152.45"/>
</a>
</g>
</g>
<!-- Node10&#45;&gt;Node8 -->
<g id="edge40_Node000010_Node000008" class="edge">
<title>Node10&#45;&gt;Node8</title>
<g id="a_edge40_Node000010_Node000008"><a xlink:title=" ">
<path fill="none" stroke="#63b8ff" d="M442.24,-243.75C489.67,-240.51 559.39,-230.39 611.85,-200 631.27,-188.75 647.45,-168.48 657.55,-153.55"/>
<polygon fill="#63b8ff" stroke="#63b8ff" points="660.24,-155.82 662.71,-145.52 654.36,-152.04 660.24,-155.82"/>
</a>
</g>
</g>
<!-- Node10&#45;&gt;Node11 -->
<g id="edge11_Node000010_Node000011" class="edge">
<title>Node10&#45;&gt;Node11</title>
<g id="a_edge11_Node000010_Node000011"><a xlink:title=" ">
<path fill="none" stroke="#63b8ff" d="M441.88,-239.53C543.05,-229.08 762.35,-206.44 861.44,-196.2"/>
<polygon fill="#63b8ff" stroke="#63b8ff" points="861.54,-199.71 871.13,-195.2 860.82,-192.75 861.54,-199.71"/>
</a>
</g>
</g>
<!-- Node12 -->
<g id="Node000012" class="node">
<title>Node12</title>
<g id="a_Node000012"><a xlink:href="../../dd/dc8/game__state_8hpp.html" target="_top" xlink:title=" ">
<polygon fill="white" stroke="#666666" points="380.73,-200 294.98,-200 294.98,-180 380.73,-180 380.73,-200"/>
<text text-anchor="middle" x="337.85" y="-186.5" font-family="Helvetica,sans-Serif" font-size="10.00">game_state.hpp</text>
</a>
</g>
</g>
<!-- Node10&#45;&gt;Node12 -->
<g id="edge13_Node000010_Node000012" class="edge">
<title>Node10&#45;&gt;Node12</title>
<g id="a_edge13_Node000010_Node000012"><a xlink:title=" ">
<path fill="none" stroke="#63b8ff" d="M379.97,-235.59C372.95,-228.16 362.95,-217.58 354.46,-208.58"/>
<polygon fill="#63b8ff" stroke="#63b8ff" points="357.08,-206.27 347.67,-201.4 351.99,-211.07 357.08,-206.27"/>
</a>
</g>
</g>
<!-- Node14 -->
<g id="Node000014" class="node">
<title>Node14</title>
<g id="a_Node000014"><a xlink:href="../../d9/d85/player_8hpp.html" target="_top" xlink:title=" ">
<polygon fill="white" stroke="#666666" points="259.35,-200 198.35,-200 198.35,-180 259.35,-180 259.35,-200"/>
<text text-anchor="middle" x="228.85" y="-186.5" font-family="Helvetica,sans-Serif" font-size="10.00">player.hpp</text>
</a>
</g>
</g>
<!-- Node10&#45;&gt;Node14 -->
<g id="edge15_Node000010_Node000014" class="edge">
<title>Node10&#45;&gt;Node14</title>
<g id="a_edge15_Node000010_Node000014"><a xlink:title=" ">
<path fill="none" stroke="#63b8ff" d="M360.98,-235.59C335.1,-226.86 296.33,-213.77 267.47,-204.03"/>
<polygon fill="#63b8ff" stroke="#63b8ff" points="268.97,-200.85 258.37,-200.96 266.73,-207.48 268.97,-200.85"/>
</a>
</g>
</g>
<!-- Node17 -->
<g id="Node000017" class="node">
<title>Node17</title>
<g id="a_Node000017"><a xlink:title=" ">
<polygon fill="#e0e0e0" stroke="#999999" points="79.35,-82 18.35,-82 18.35,-62 79.35,-62 79.35,-82"/>
<text text-anchor="middle" x="48.85" y="-68.5" font-family="Helvetica,sans-Serif" font-size="10.00">filesystem</text>
</a>
</g>
</g>
<!-- Node10&#45;&gt;Node17 -->
<g id="edge41_Node000010_Node000017" class="edge">
<title>Node10&#45;&gt;Node17</title>
<g id="a_edge41_Node000010_Node000017"><a xlink:title=" ">
<path fill="none" stroke="#63b8ff" d="M335.55,-243.81C280.89,-240.79 194.51,-230.99 126.85,-200 91.26,-183.7 78,-178.15 58.85,-144 50.28,-128.71 48.11,-108.77 47.9,-93.92"/>
<polygon fill="#63b8ff" stroke="#63b8ff" points="51.4,-93.99 48.07,-83.93 44.4,-93.86 51.4,-93.99"/>
</a>
</g>
</g>
<!-- Node21 -->
<g id="Node000021" class="node">
<title>Node21</title>
<g id="a_Node000021"><a xlink:href="../../d5/ddc/console_8hpp.html" target="_top" xlink:title=" ">
<polygon fill="white" stroke="#666666" points="480.85,-200 398.85,-200 398.85,-180 480.85,-180 480.85,-200"/>
<text text-anchor="middle" x="439.85" y="-186.5" font-family="Helvetica,sans-Serif" font-size="10.00">tui/console.hpp</text>
</a>
</g>
</g>
<!-- Node10&#45;&gt;Node21 -->
<g id="edge25_Node000010_Node000021" class="edge">
<title>Node10&#45;&gt;Node21</title>
<g id="a_edge25_Node000010_Node000021"><a xlink:title=" ">
<path fill="none" stroke="#63b8ff" d="M397.74,-235.59C404.76,-228.16 414.75,-217.58 423.25,-208.58"/>
<polygon fill="#63b8ff" stroke="#63b8ff" points="425.71,-211.07 430.03,-201.4 420.62,-206.27 425.71,-211.07"/>
</a>
</g>
</g>
<!-- Node33 -->
<g id="Node000033" class="node">
<title>Node33</title>
<g id="a_Node000033"><a xlink:title=" ">
<polygon fill="#e0e0e0" stroke="#999999" points="180.1,-200 135.6,-200 135.6,-180 180.1,-180 180.1,-200"/>
<text text-anchor="middle" x="157.85" y="-186.5" font-family="Helvetica,sans-Serif" font-size="10.00">iosfwd</text>
</a>
</g>
</g>
<!-- Node10&#45;&gt;Node33 -->
<g id="edge42_Node000010_Node000033" class="edge">
<title>Node10&#45;&gt;Node33</title>
<g id="a_edge42_Node000010_Node000033"><a xlink:title=" ">
<path fill="none" stroke="#63b8ff" d="M344.04,-235.56C305.97,-227.39 249.64,-214.93 191.43,-200.29"/>
<polygon fill="#63b8ff" stroke="#63b8ff" points="192.56,-196.97 182.01,-197.91 190.84,-203.76 192.56,-196.97"/>
</a>
</g>
</g>
<!-- Node11&#45;&gt;Node2 -->
<g id="edge12_Node000011_Node000002" class="edge">
<title>Node11&#45;&gt;Node2</title>
<g id="a_edge12_Node000011_Node000002"><a xlink:title=" ">
<path fill="none" stroke="#63b8ff" d="M923.52,-179.59C933.13,-171.85 946.98,-160.69 958.42,-151.47"/>
<polygon fill="#63b8ff" stroke="#63b8ff" points="960.55,-154.25 966.14,-145.25 956.15,-148.8 960.55,-154.25"/>
</a>
</g>
</g>
<!-- Node13 -->
<g id="Node000013" class="node">
<title>Node13</title>
<g id="a_Node000013"><a xlink:title=" ">
<polygon fill="#e0e0e0" stroke="#999999" points="375.73,-144 319.98,-144 319.98,-124 375.73,-124 375.73,-144"/>
<text text-anchor="middle" x="347.85" y="-130.5" font-family="Helvetica,sans-Serif" font-size="10.00">cinttypes</text>
</a>
</g>
</g>
<!-- Node12&#45;&gt;Node13 -->
<g id="edge14_Node000012_Node000013" class="edge">
<title>Node12&#45;&gt;Node13</title>
<g id="a_edge14_Node000012_Node000013"><a xlink:title=" ">
<path fill="none" stroke="#63b8ff" d="M339.59,-179.59C340.83,-172.93 342.53,-163.75 344.07,-155.44"/>
<polygon fill="#63b8ff" stroke="#63b8ff" points="347.47,-156.26 345.85,-145.79 340.59,-154.98 347.47,-156.26"/>
</a>
</g>
</g>
<!-- Node14&#45;&gt;Node7 -->
<g id="edge21_Node000014_Node000007" class="edge">
<title>Node14&#45;&gt;Node7</title>
<g id="a_edge21_Node000014_Node000007"><a xlink:title=" ">
<path fill="none" stroke="#63b8ff" d="M259.39,-181.83C303.14,-171.56 383.23,-152.75 427.45,-142.37"/>
<polygon fill="#63b8ff" stroke="#63b8ff" points="427.98,-145.84 436.92,-140.15 426.38,-139.03 427.98,-145.84"/>
</a>
</g>
</g>
<!-- Node14&#45;&gt;Node14 -->
<g id="edge16_Node000014_Node000014" class="edge">
<title>Node14&#45;&gt;Node14</title>
<g id="a_edge16_Node000014_Node000014"><a xlink:title=" ">
<path fill="none" stroke="#63b8ff" d="M259.64,-200.5C269.52,-200.39 277.35,-196.89 277.35,-190 277.35,-186.12 274.87,-183.32 270.95,-181.59"/>
<polygon fill="#63b8ff" stroke="#63b8ff" points="271.59,-178.15 261.12,-179.78 270.32,-185.04 271.59,-178.15"/>
</a>
</g>
</g>
<!-- Node15 -->
<g id="Node000015" class="node">
<title>Node15</title>
<g id="a_Node000015"><a xlink:href="../../db/d42/json__utils_8hpp.html" target="_top" xlink:title=" ">
<polygon fill="white" stroke="#666666" points="301.98,-144 181.73,-144 181.73,-124 301.98,-124 301.98,-144"/>
<text text-anchor="middle" x="241.85" y="-130.5" font-family="Helvetica,sans-Serif" font-size="10.00">json_utils/json_utils.hpp</text>
</a>
</g>
</g>
<!-- Node14&#45;&gt;Node15 -->
<g id="edge17_Node000014_Node000015" class="edge">
<title>Node14&#45;&gt;Node15</title>
<g id="a_edge17_Node000014_Node000015"><a xlink:title=" ">
<path fill="none" stroke="#63b8ff" d="M231.12,-179.59C232.72,-172.93 234.93,-163.75 236.93,-155.44"/>
<polygon fill="#63b8ff" stroke="#63b8ff" points="240.32,-156.31 239.26,-145.77 233.52,-154.67 240.32,-156.31"/>
</a>
</g>
</g>
<!-- Node14&#45;&gt;Node17 -->
<g id="edge23_Node000014_Node000017" class="edge">
<title>Node14&#45;&gt;Node17</title>
<g id="a_edge23_Node000014_Node000017"><a xlink:title=" ">
<path fill="none" stroke="#63b8ff" d="M197.98,-181.41C156.23,-170.9 85.91,-152.29 76.85,-144 62.51,-130.87 55.41,-109.46 51.96,-93.58"/>
<polygon fill="#63b8ff" stroke="#63b8ff" points="55.41,-92.99 50.18,-83.78 48.53,-94.24 55.41,-92.99"/>
</a>
</g>
</g>
<!-- Node19 -->
<g id="Node000019" class="node">
<title>Node19</title>
<g id="a_Node000019"><a xlink:title=" ">
<polygon fill="#e0e0e0" stroke="#999999" points="163.6,-144 86.1,-144 86.1,-124 163.6,-124 163.6,-144"/>
<text text-anchor="middle" x="124.85" y="-130.5" font-family="Helvetica,sans-Serif" font-size="10.00">unordered_set</text>
</a>
</g>
</g>
<!-- Node14&#45;&gt;Node19 -->
<g id="edge22_Node000014_Node000019" class="edge">
<title>Node14&#45;&gt;Node19</title>
<g id="a_edge22_Node000014_Node000019"><a xlink:title=" ">
<path fill="none" stroke="#63b8ff" d="M210.74,-179.59C194.88,-171.36 171.57,-159.26 153.23,-149.74"/>
<polygon fill="#63b8ff" stroke="#63b8ff" points="154.94,-146.68 144.45,-145.18 151.71,-152.89 154.94,-146.68"/>
</a>
</g>
</g>
<!-- Node20 -->
<g id="Node000020" class="node">
<title>Node20</title>
<g id="a_Node000020"><a xlink:title=" ">
<polygon fill="#e0e0e0" stroke="#999999" points="268.6,-20 215.1,-20 215.1,0 268.6,0 268.6,-20"/>
<text text-anchor="middle" x="241.85" y="-6.5" font-family="Helvetica,sans-Serif" font-size="10.00">iostream</text>
</a>
</g>
</g>
<!-- Node14&#45;&gt;Node20 -->
<g id="edge24_Node000014_Node000020" class="edge">
<title>Node14&#45;&gt;Node20</title>
<g id="a_edge24_Node000014_Node000020"><a xlink:title=" ">
<path fill="none" stroke="#63b8ff" d="M198.16,-181.91C152.49,-171.2 70.72,-151.36 58.85,-144 20.81,-120.4 -18.63,-90.54 9.85,-56 33.96,-26.77 144.03,-16.29 203.48,-12.73"/>
<polygon fill="#63b8ff" stroke="#63b8ff" points="203.36,-16.24 213.15,-12.19 202.97,-9.25 203.36,-16.24"/>
</a>
</g>
</g>
<!-- Node16 -->
<g id="Node000016" class="node">
<title>Node16</title>
<g id="a_Node000016"><a xlink:title=" ">
<polygon fill="#e0e0e0" stroke="#999999" points="261.73,-82 163.98,-82 163.98,-62 261.73,-62 261.73,-82"/>
<text text-anchor="middle" x="212.85" y="-68.5" font-family="Helvetica,sans-Serif" font-size="10.00">nlohmann/json.hpp</text>
</a>
</g>
</g>
<!-- Node15&#45;&gt;Node16 -->
<g id="edge18_Node000015_Node000016" class="edge">
<title>Node15&#45;&gt;Node16</title>
<g id="a_edge18_Node000015_Node000016"><a xlink:title=" ">
<path fill="none" stroke="#63b8ff" d="M237.32,-123.62C233.3,-115.3 227.29,-102.86 222.23,-92.4"/>
<polygon fill="#63b8ff" stroke="#63b8ff" points="225.42,-90.96 217.91,-83.48 219.12,-94 225.42,-90.96"/>
</a>
</g>
</g>
<!-- Node15&#45;&gt;Node17 -->
<g id="edge19_Node000015_Node000017" class="edge">
<title>Node15&#45;&gt;Node17</title>
<g id="a_edge19_Node000015_Node000017"><a xlink:title=" ">
<path fill="none" stroke="#63b8ff" d="M206.99,-123.53C175.83,-114.87 129.03,-101.42 88.85,-88 87.27,-87.47 85.66,-86.92 84.03,-86.35"/>
<polygon fill="#63b8ff" stroke="#63b8ff" points="85.31,-83.09 74.71,-83 82.94,-89.68 85.31,-83.09"/>
</a>
</g>
</g>
<!-- Node18 -->
<g id="Node000018" class="node">
<title>Node18</title>
<g id="a_Node000018"><a xlink:title=" ">
<polygon fill="#e0e0e0" stroke="#999999" points="146.35,-82 97.35,-82 97.35,-62 146.35,-62 146.35,-82"/>
<text text-anchor="middle" x="121.85" y="-68.5" font-family="Helvetica,sans-Serif" font-size="10.00">fstream</text>
</a>
</g>
</g>
<!-- Node15&#45;&gt;Node18 -->
<g id="edge20_Node000015_Node000018" class="edge">
<title>Node15&#45;&gt;Node18</title>
<g id="a_edge20_Node000015_Node000018"><a xlink:title=" ">
<path fill="none" stroke="#63b8ff" d="M223.1,-123.62C203.64,-113.89 172.96,-98.55 150.46,-87.31"/>
<polygon fill="#63b8ff" stroke="#63b8ff" points="152.33,-84.33 141.82,-82.99 149.2,-90.59 152.33,-84.33"/>
</a>
</g>
</g>
<!-- Node22 -->
<g id="Node000022" class="node">
<title>Node22</title>
<g id="a_Node000022"><a xlink:href="../../df/d13/console__linux_8hpp.html" target="_top" xlink:title=" ">
<polygon fill="white" stroke="#666666" points="624.85,-144 530.85,-144 530.85,-124 624.85,-124 624.85,-144"/>
<text text-anchor="middle" x="577.85" y="-130.5" font-family="Helvetica,sans-Serif" font-size="10.00">console_linux.hpp</text>
</a>
</g>
</g>
<!-- Node21&#45;&gt;Node22 -->
<g id="edge26_Node000021_Node000022" class="edge">
<title>Node21&#45;&gt;Node22</title>
<g id="a_edge26_Node000021_Node000022"><a xlink:title=" ">
<path fill="none" stroke="#63b8ff" d="M463.89,-179.59C485.82,-171.01 518.48,-158.23 543.22,-148.55"/>
<polygon fill="#63b8ff" stroke="#63b8ff" points="544.18,-151.93 552.22,-145.03 541.63,-145.42 544.18,-151.93"/>
</a>
</g>
</g>
<!-- Node23 -->
<g id="Node000023" class="node">
<title>Node23</title>
<g id="a_Node000023"><a xlink:href="../../dd/d90/system_8hpp.html" target="_top" xlink:title=" ">
<polygon fill="white" stroke="#666666" points="540.23,-82 409.48,-82 409.48,-62 540.23,-62 540.23,-82"/>
<text text-anchor="middle" x="474.85" y="-68.5" font-family="Helvetica,sans-Serif" font-size="10.00">sokoban_core/system.hpp</text>
</a>
</g>
</g>
<!-- Node22&#45;&gt;Node23 -->
<g id="edge27_Node000022_Node000023" class="edge">
<title>Node22&#45;&gt;Node23</title>
<g id="a_edge27_Node000022_Node000023"><a xlink:title=" ">
<path fill="none" stroke="#63b8ff" d="M561.76,-123.62C545.43,-114.11 519.9,-99.24 500.73,-88.08"/>
<polygon fill="#63b8ff" stroke="#63b8ff" points="502.54,-85.08 492.14,-83.07 499.02,-91.13 502.54,-85.08"/>
</a>
</g>
</g>
<!-- Node24 -->
<g id="Node000024" class="node">
<title>Node24</title>
<g id="a_Node000024"><a xlink:title=" ">
<polygon fill="#e0e0e0" stroke="#999999" points="549.1,-20 492.6,-20 492.6,0 549.1,0 549.1,-20"/>
<text text-anchor="middle" x="520.85" y="-6.5" font-family="Helvetica,sans-Serif" font-size="10.00">termios.h</text>
</a>
</g>
</g>
<!-- Node22&#45;&gt;Node24 -->
<g id="edge38_Node000022_Node000024" class="edge">
<title>Node22&#45;&gt;Node24</title>
<g id="a_edge38_Node000022_Node000024"><a xlink:title=" ">
<path fill="none" stroke="#63b8ff" d="M575.02,-123.75C570.38,-109.04 560.48,-79.57 548.85,-56 544.44,-47.05 538.73,-37.61 533.63,-29.69"/>
<polygon fill="#63b8ff" stroke="#63b8ff" points="536.71,-28 528.26,-21.6 530.88,-31.87 536.71,-28"/>
</a>
</g>
</g>
<!-- Node25 -->
<g id="Node000025" class="node">
<title>Node25</title>
<g id="a_Node000025"><a xlink:href="../../d7/dff/key__definitions__linux_8hpp.html" target="_top" xlink:title=" ">
<polygon fill="white" stroke="#666666" points="728.23,-88 633.48,-88 633.48,-56 728.23,-56 728.23,-88"/>
<text text-anchor="start" x="641.48" y="-74.5" font-family="Helvetica,sans-Serif" font-size="10.00">tui/key_definitions</text>
<text text-anchor="middle" x="680.85" y="-62.5" font-family="Helvetica,sans-Serif" font-size="10.00">_linux.hpp</text>
</a>
</g>
</g>
<!-- Node22&#45;&gt;Node25 -->
<g id="edge30_Node000022_Node000025" class="edge">
<title>Node22&#45;&gt;Node25</title>
<g id="a_edge30_Node000022_Node000025"><a xlink:title=" ">
<path fill="none" stroke="#63b8ff" d="M593.95,-123.62C607.47,-115.75 627.32,-104.19 644.63,-94.1"/>
<polygon fill="#63b8ff" stroke="#63b8ff" points="646.27,-97.19 653.15,-89.14 642.75,-91.14 646.27,-97.19"/>
</a>
</g>
</g>
<!-- Node26 -->
<g id="Node000026" class="node">
<title>Node26</title>
<g id="a_Node000026"><a xlink:title=" ">
<polygon fill="#e0e0e0" stroke="#999999" points="665.48,-20 620.23,-20 620.23,0 665.48,0 665.48,-20"/>
<text text-anchor="middle" x="642.85" y="-6.5" font-family="Helvetica,sans-Serif" font-size="10.00">cstdint</text>
</a>
</g>
</g>
<!-- Node22&#45;&gt;Node26 -->
<g id="edge39_Node000022_Node000026" class="edge">
<title>Node22&#45;&gt;Node26</title>
<g id="a_edge39_Node000022_Node000026"><a xlink:title=" ">
<path fill="none" stroke="#63b8ff" d="M582.74,-123.83C593.28,-104.05 618.35,-57 632.56,-30.32"/>
<polygon fill="#63b8ff" stroke="#63b8ff" points="635.58,-32.08 637.2,-21.61 629.41,-28.79 635.58,-32.08"/>
</a>
</g>
</g>
<!-- Node27 -->
<g id="Node000027" class="node">
<title>Node27</title>
<g id="a_Node000027"><a xlink:title=" ">
<polygon fill="#e0e0e0" stroke="#999999" points="791.48,-82 746.23,-82 746.23,-62 791.48,-62 791.48,-82"/>
<text text-anchor="middle" x="768.85" y="-68.5" font-family="Helvetica,sans-Serif" font-size="10.00">stdio.h</text>
</a>
</g>
</g>
<!-- Node22&#45;&gt;Node27 -->
<g id="edge32_Node000022_Node000027" class="edge">
<title>Node22&#45;&gt;Node27</title>
<g id="a_edge32_Node000022_Node000027"><a xlink:title=" ">
<path fill="none" stroke="#63b8ff" d="M617.96,-123.57C650.46,-115.48 697.21,-102.79 736.85,-88 737.81,-87.64 738.77,-87.27 739.75,-86.88"/>
<polygon fill="#63b8ff" stroke="#63b8ff" points="740.94,-90.18 748.73,-83 738.16,-83.76 740.94,-90.18"/>
</a>
</g>
</g>
<!-- Node28 -->
<g id="Node000028" class="node">
<title>Node28</title>
<g id="a_Node000028"><a xlink:title=" ">
<polygon fill="#e0e0e0" stroke="#999999" points="856.6,-82 809.1,-82 809.1,-62 856.6,-62 856.6,-82"/>
<text text-anchor="middle" x="832.85" y="-68.5" font-family="Helvetica,sans-Serif" font-size="10.00">stdlib.h</text>
</a>
</g>
</g>
<!-- Node22&#45;&gt;Node28 -->
<g id="edge33_Node000022_Node000028" class="edge">
<title>Node22&#45;&gt;Node28</title>
<g id="a_edge33_Node000022_Node000028"><a xlink:title=" ">
<path fill="none" stroke="#63b8ff" d="M625.16,-124.82C680.58,-115.01 768.88,-98.55 800.85,-88 801.99,-87.63 803.14,-87.22 804.29,-86.79"/>
<polygon fill="#63b8ff" stroke="#63b8ff" points="805.28,-90.17 813.15,-83.08 802.57,-83.72 805.28,-90.17"/>
</a>
</g>
</g>
<!-- Node29 -->
<g id="Node000029" class="node">
<title>Node29</title>
<g id="a_Node000029"><a xlink:title=" ">
<polygon fill="#e0e0e0" stroke="#999999" points="936.73,-82 874.98,-82 874.98,-62 936.73,-62 936.73,-82"/>
<text text-anchor="middle" x="905.85" y="-68.5" font-family="Helvetica,sans-Serif" font-size="10.00">sys/time.h</text>
</a>
</g>
</g>
<!-- Node22&#45;&gt;Node29 -->
<g id="edge34_Node000022_Node000029" class="edge">
<title>Node22&#45;&gt;Node29</title>
<g id="a_edge34_Node000022_Node000029"><a xlink:title=" ">
<path fill="none" stroke="#63b8ff" d="M625.21,-125.37C628.13,-124.91 631.03,-124.45 633.85,-124 736.92,-107.72 764.92,-114.46 865.85,-88 868,-87.44 870.2,-86.8 872.4,-86.11"/>
<polygon fill="#63b8ff" stroke="#63b8ff" points="873.51,-89.43 881.84,-82.88 871.24,-82.81 873.51,-89.43"/>
</a>
</g>
</g>
<!-- Node30 -->
<g id="Node000030" class="node">
<title>Node30</title>
<g id="a_Node000030"><a xlink:title=" ">
<polygon fill="#e0e0e0" stroke="#999999" points="1021.35,-82 954.35,-82 954.35,-62 1021.35,-62 1021.35,-82"/>
<text text-anchor="middle" x="987.85" y="-68.5" font-family="Helvetica,sans-Serif" font-size="10.00">sys/types.h</text>
</a>
</g>
</g>
<!-- Node22&#45;&gt;Node30 -->
<g id="edge35_Node000022_Node000030" class="edge">
<title>Node22&#45;&gt;Node30</title>
<g id="a_edge35_Node000022_Node000030"><a xlink:title=" ">
<path fill="none" stroke="#63b8ff" d="M625.19,-125.24C628.12,-124.81 631.02,-124.39 633.85,-124 772.13,-104.92 809.91,-119.68 945.85,-88 948.46,-87.39 951.13,-86.67 953.8,-85.89"/>
<polygon fill="#63b8ff" stroke="#63b8ff" points="954.73,-89.27 963.15,-82.84 952.56,-82.61 954.73,-89.27"/>
</a>
</g>
</g>
<!-- Node31 -->
<g id="Node000031" class="node">
<title>Node31</title>
<g id="a_Node000031"><a xlink:title=" ">
<polygon fill="#e0e0e0" stroke="#999999" points="330.1,-82 279.6,-82 279.6,-62 330.1,-62 330.1,-82"/>
<text text-anchor="middle" x="304.85" y="-68.5" font-family="Helvetica,sans-Serif" font-size="10.00">unistd.h</text>
</a>
</g>
</g>
<!-- Node22&#45;&gt;Node31 -->
<g id="edge36_Node000022_Node000031" class="edge">
<title>Node22&#45;&gt;Node31</title>
<g id="a_edge36_Node000022_Node000031"><a xlink:title=" ">
<path fill="none" stroke="#63b8ff" d="M530.61,-127.16C482.05,-120.45 404.61,-107.74 339.85,-88 338.46,-87.58 337.06,-87.12 335.65,-86.63"/>
<polygon fill="#63b8ff" stroke="#63b8ff" points="336.93,-83.37 326.34,-83.04 334.41,-89.9 336.93,-83.37"/>
</a>
</g>
</g>
<!-- Node32 -->
<g id="Node000032" class="node">
<title>Node32</title>
<g id="a_Node000032"><a xlink:title=" ">
<polygon fill="#e0e0e0" stroke="#999999" points="391.35,-82 348.35,-82 348.35,-62 391.35,-62 391.35,-82"/>
<text text-anchor="middle" x="369.85" y="-68.5" font-family="Helvetica,sans-Serif" font-size="10.00">fcntl.h</text>
</a>
</g>
</g>
<!-- Node22&#45;&gt;Node32 -->
<g id="edge37_Node000022_Node000032" class="edge">
<title>Node22&#45;&gt;Node32</title>
<g id="a_edge37_Node000022_Node000032"><a xlink:title=" ">
<path fill="none" stroke="#63b8ff" d="M530.49,-123.68C494.39,-115.93 443.74,-103.65 400.85,-88 399.89,-87.65 398.93,-87.28 397.95,-86.9"/>
<polygon fill="#63b8ff" stroke="#63b8ff" points="399.57,-83.78 389,-82.96 396.75,-90.19 399.57,-83.78"/>
</a>
</g>
</g>
<!-- Node23&#45;&gt;Node20 -->
<g id="edge29_Node000023_Node000020" class="edge">
<title>Node23&#45;&gt;Node20</title>
<g id="a_edge29_Node000023_Node000020"><a xlink:title=" ">
<path fill="none" stroke="#63b8ff" d="M438.19,-61.56C395.01,-50.44 323.65,-32.06 279.89,-20.79"/>
<polygon fill="#63b8ff" stroke="#63b8ff" points="280.88,-17.44 270.32,-18.33 279.13,-24.21 280.88,-17.44"/>
</a>
</g>
</g>
<!-- Node23&#45;&gt;Node24 -->
<g id="edge28_Node000023_Node000024" class="edge">
<title>Node23&#45;&gt;Node24</title>
<g id="a_edge28_Node000023_Node000024"><a xlink:title=" ">
<path fill="none" stroke="#63b8ff" d="M482.04,-61.62C488.69,-52.94 498.77,-39.8 506.99,-29.08"/>
<polygon fill="#63b8ff" stroke="#63b8ff" points="509.64,-31.38 512.94,-21.31 504.08,-27.12 509.64,-31.38"/>
</a>
</g>
</g>
<!-- Node25&#45;&gt;Node26 -->
<g id="edge31_Node000025_Node000026" class="edge">
<title>Node25&#45;&gt;Node26</title>
<g id="a_edge31_Node000025_Node000026"><a xlink:title=" ">
<path fill="none" stroke="#63b8ff" d="M671.07,-55.55C666.12,-47.74 660.07,-38.19 654.84,-29.94"/>
<polygon fill="#63b8ff" stroke="#63b8ff" points="657.93,-28.26 649.62,-21.69 652.01,-32.01 657.93,-28.26"/>
</a>
</g>
</g>
</g>
</svg>

<g id="navigator" transform="translate(0 0)" fill="#404254">
  <rect fill="#f2f5e9" fill-opacity="0.5" stroke="#606060" stroke-width=".5" x="0" y="0" width="60" height="60"/>
  <use id="zoomplus" xlink:href="#zoomPlus" x="17" y="9" onmousedown="handleZoom(evt,'in')"/>
  <use id="zoomminus" xlink:href="#zoomMin" x="42" y="9" onmousedown="handleZoom(evt,'out')"/>
  <use id="reset" xlink:href="#resetDef" x="30" y="36" onmousedown="handleReset()"/>
   <use id="arrowup" xlink:href="#arrowUp" x="0" y="0" onmousedown="handlePan(0,-1)"/>
  <use id="arrowright" xlink:href="#arrowRight" x="0" y="0" onmousedown="handlePan(1,0)"/>
  <use id="arrowdown" xlink:href="#arrowDown" x="0" y="0" onmousedown="handlePan(0,1)"/>
  <use id="arrowleft" xlink:href="#arrowLeft" x="0" y="0" onmousedown="handlePan(-1,0)"/>
</g>
<svg viewBox="0 0 15 15" width="100%" height="30px" preserveAspectRatio="xMaxYMin meet">
 <g id="arrow_out" transform="scale(0.3 0.3)">
  <a xlink:href="base__action__factory_8hpp__incl_org.svg" target="_base">
   <rect id="button" ry="5" rx="5" y="6" x="6" height="38" width="38"
        fill="#f2f5e9" fill-opacity="0.5" stroke="#606060" stroke-width="1.0"/>
   <path id="arrow"
     d="M 11.500037,31.436501 C 11.940474,20.09759 22.043105,11.32322 32.158766,21.979434 L 37.068811,17.246167 C 37.068811,17.246167 37.088388,32 37.088388,32 L 22.160133,31.978069 C 22.160133,31.978069 26.997745,27.140456 26.997745,27.140456 C 18.528582,18.264221 13.291696,25.230495 11.500037,31.436501 z"
     style="fill:#404040;"/>
  </a>
 </g>
</svg>

<style type='text/css'>
<![CDATA[
[data-mouse-over-selected='false'] { opacity: 0.7; }
[data-mouse-over-selected='true']  { opacity: 1.0; }
]]>
</style>
<script type="application/ecmascript"><![CDATA[
document.addEventListener('DOMContentLoaded', (event) => {
  highlightEdges();
  highlightAdjacentNodes();
});
]]></script>
</svg>
