<?xml version="1.0" encoding="UTF-8" standalone="no"?>
<!DOCTYPE svg PUBLIC "-//W3C//DTD SVG 1.1//EN"
 "http://www.w3.org/Graphics/SVG/1.1/DTD/svg11.dtd">
<!-- Generated by graphviz version 12.1.2 (20240928.0832)
 -->
<!-- Title: editor_lib/include/editor/view_painter.h Pages: 1 -->
<svg width="253pt" height="204pt"
 viewBox="0.00 0.00 253.12 204.25" xmlns="http://www.w3.org/2000/svg" xmlns:xlink="http://www.w3.org/1999/xlink">

<svg id="main" version="1.1" xmlns="http://www.w3.org/2000/svg" xmlns:xlink="http://www.w3.org/1999/xlink" xml:space="preserve">

<style type="text/css"><![CDATA[
.node, .edge {opacity: 0.7;}
.node.selected, .edge.selected {opacity: 1;}
.edge:hover path { stroke: red; }
.edge:hover polygon { stroke: red; fill: red; }
]]></style>
<script type="application/ecmascript" xlink:href="../../svg.min.js"/>
<svg id="graph" class="graph">
<g id="graph0" class="graph" transform="scale(1 1) rotate(0) translate(4 200.25)">
<title>editor_lib/include/editor/view_painter.h</title>
<!-- Node1 -->
<g id="Node000001" class="node">
<title>Node1</title>
<g id="a_Node000001"><a xlink:title=" ">
<polygon fill="#999999" stroke="#666666" points="207.5,-196.25 99.25,-196.25 99.25,-165.75 207.5,-165.75 207.5,-196.25"/>
<text text-anchor="start" x="107.25" y="-182.75" font-family="Helvetica,sans-Serif" font-size="10.00">editor_lib/include</text>
<text text-anchor="middle" x="153.38" y="-171.5" font-family="Helvetica,sans-Serif" font-size="10.00">/editor/view_painter.h</text>
</a>
</g>
</g>
<!-- Node2 -->
<g id="Node000002" class="node">
<title>Node2</title>
<g id="a_Node000002"><a xlink:href="../../d9/d37/painter_8h.html" target="_top" xlink:title=" ">
<polygon fill="white" stroke="#666666" points="115.75,-129.75 63,-129.75 63,-110.5 115.75,-110.5 115.75,-129.75"/>
<text text-anchor="middle" x="89.38" y="-116.25" font-family="Helvetica,sans-Serif" font-size="10.00">painter.h</text>
</a>
</g>
</g>
<!-- Node1&#45;&gt;Node2 -->
<g id="edge1_Node000001_Node000002" class="edge">
<title>Node1&#45;&gt;Node2</title>
<g id="a_edge1_Node000001_Node000002"><a xlink:title=" ">
<path fill="none" stroke="#63b8ff" d="M137.55,-165.45C128.47,-157.09 117.01,-146.55 107.56,-137.85"/>
<polygon fill="#63b8ff" stroke="#63b8ff" points="110.08,-135.42 100.36,-131.23 105.35,-140.57 110.08,-135.42"/>
</a>
</g>
</g>
<!-- Node5 -->
<g id="Node000005" class="node">
<title>Node5</title>
<g id="a_Node000005"><a xlink:href="../../d4/d67/rect_8h.html" target="_top" xlink:title=" ">
<polygon fill="white" stroke="#666666" points="173.38,-129.75 133.38,-129.75 133.38,-110.5 173.38,-110.5 173.38,-129.75"/>
<text text-anchor="middle" x="153.38" y="-116.25" font-family="Helvetica,sans-Serif" font-size="10.00">rect.h</text>
</a>
</g>
</g>
<!-- Node1&#45;&gt;Node5 -->
<g id="edge5_Node000001_Node000005" class="edge">
<title>Node1&#45;&gt;Node5</title>
<g id="a_edge5_Node000001_Node000005"><a xlink:title=" ">
<path fill="none" stroke="#63b8ff" d="M153.38,-165.45C153.38,-158.21 153.38,-149.34 153.38,-141.44"/>
<polygon fill="#63b8ff" stroke="#63b8ff" points="156.88,-141.71 153.38,-131.71 149.88,-141.71 156.88,-141.71"/>
</a>
</g>
</g>
<!-- Node6 -->
<g id="Node000006" class="node">
<title>Node6</title>
<g id="a_Node000006"><a xlink:title=" ">
<polygon fill="#e0e0e0" stroke="#999999" points="245.12,-129.75 191.62,-129.75 191.62,-110.5 245.12,-110.5 245.12,-129.75"/>
<text text-anchor="middle" x="218.38" y="-116.25" font-family="Helvetica,sans-Serif" font-size="10.00">iostream</text>
</a>
</g>
</g>
<!-- Node1&#45;&gt;Node6 -->
<g id="edge6_Node000001_Node000006" class="edge">
<title>Node1&#45;&gt;Node6</title>
<g id="a_edge6_Node000001_Node000006"><a xlink:title=" ">
<path fill="none" stroke="#63b8ff" d="M169.44,-165.45C178.67,-157.09 190.3,-146.55 199.91,-137.85"/>
<polygon fill="#63b8ff" stroke="#63b8ff" points="202.17,-140.52 207.23,-131.22 197.47,-135.34 202.17,-140.52"/>
</a>
</g>
</g>
<!-- Node3 -->
<g id="Node000003" class="node">
<title>Node3</title>
<g id="a_Node000003"><a xlink:href="../../dc/d12/dummy__converter_8h.html" target="_top" xlink:title=" ">
<polygon fill="white" stroke="#666666" points="100.75,-74.5 0,-74.5 0,-55.25 100.75,-55.25 100.75,-74.5"/>
<text text-anchor="middle" x="50.38" y="-61" font-family="Helvetica,sans-Serif" font-size="10.00">dummy_converter.h</text>
</a>
</g>
</g>
<!-- Node2&#45;&gt;Node3 -->
<g id="edge2_Node000002_Node000003" class="edge">
<title>Node2&#45;&gt;Node3</title>
<g id="a_edge2_Node000002_Node000003"><a xlink:title=" ">
<path fill="none" stroke="#63b8ff" d="M82.93,-110.33C77.72,-103.21 70.19,-92.93 63.68,-84.05"/>
<polygon fill="#63b8ff" stroke="#63b8ff" points="66.58,-82.08 57.85,-76.08 60.93,-86.22 66.58,-82.08"/>
</a>
</g>
</g>
<!-- Node4 -->
<g id="Node000004" class="node">
<title>Node4</title>
<g id="a_Node000004"><a xlink:title=" ">
<polygon fill="#e0e0e0" stroke="#999999" points="109.38,-19.25 69.38,-19.25 69.38,0 109.38,0 109.38,-19.25"/>
<text text-anchor="middle" x="89.38" y="-5.75" font-family="Helvetica,sans-Serif" font-size="10.00">string</text>
</a>
</g>
</g>
<!-- Node2&#45;&gt;Node4 -->
<g id="edge4_Node000002_Node000004" class="edge">
<title>Node2&#45;&gt;Node4</title>
<g id="a_edge4_Node000002_Node000004"><a xlink:title=" ">
<path fill="none" stroke="#63b8ff" d="M95.27,-110.17C102.59,-97.94 113.65,-75.25 109.38,-55.25 107.49,-46.44 103.73,-37.26 99.97,-29.54"/>
<polygon fill="#63b8ff" stroke="#63b8ff" points="103.14,-28.04 95.39,-20.81 96.94,-31.29 103.14,-28.04"/>
</a>
</g>
</g>
<!-- Node3&#45;&gt;Node4 -->
<g id="edge3_Node000003_Node000004" class="edge">
<title>Node3&#45;&gt;Node4</title>
<g id="a_edge3_Node000003_Node000004"><a xlink:title=" ">
<path fill="none" stroke="#63b8ff" d="M56.82,-55.08C62.03,-47.96 69.56,-37.68 76.07,-28.8"/>
<polygon fill="#63b8ff" stroke="#63b8ff" points="78.82,-30.97 81.9,-20.83 73.17,-26.83 78.82,-30.97"/>
</a>
</g>
</g>
</g>
</svg>
</svg>

<style type='text/css'>
<![CDATA[
[data-mouse-over-selected='false'] { opacity: 0.7; }
[data-mouse-over-selected='true']  { opacity: 1.0; }
]]>
</style>
<script type="application/ecmascript"><![CDATA[
document.addEventListener('DOMContentLoaded', (event) => {
  highlightEdges();
  highlightAdjacentNodes();
});
]]></script>
</svg>
