<?xml version="1.0" encoding="UTF-8" standalone="no"?>
<!DOCTYPE svg PUBLIC "-//W3C//DTD SVG 1.1//EN"
 "http://www.w3.org/Graphics/SVG/1.1/DTD/svg11.dtd">
<!-- Generated by graphviz version 12.1.1 (20240910.0053)
 -->
<!-- Title: lib_sokoban_core/include/tui/key_definitions_win.hpp Pages: 1 -->
<svg width="326pt" height="96pt"
 viewBox="0.00 0.00 326.25 96.00" xmlns="http://www.w3.org/2000/svg" xmlns:xlink="http://www.w3.org/1999/xlink">
<g id="graph0" class="graph" transform="scale(1 1) rotate(0) translate(4 92)">
<title>lib_sokoban_core/include/tui/key_definitions_win.hpp</title>
<!-- Node1 -->
<g id="Node000001" class="node">
<title>Node1</title>
<g id="a_Node000001"><a xlink:title=" ">
<polygon fill="#999999" stroke="#666666" points="234.25,-88 97.5,-88 97.5,-56 234.25,-56 234.25,-88"/>
<text text-anchor="start" x="105.5" y="-74.5" font-family="Helvetica,sans-Serif" font-size="10.00">lib_sokoban_core/include</text>
<text text-anchor="middle" x="165.88" y="-62.5" font-family="Helvetica,sans-Serif" font-size="10.00">/tui/key_definitions_win.hpp</text>
</a>
</g>
</g>
<!-- Node2 -->
<g id="Node000002" class="node">
<title>Node2</title>
<g id="a_Node000002"><a xlink:href="../../de/d85/key__definitions_8hpp.html" target="_top" xlink:title=" ">
<polygon fill="white" stroke="#666666" points="163.75,-20 0,-20 0,0 163.75,0 163.75,-20"/>
<text text-anchor="middle" x="81.88" y="-6.5" font-family="Helvetica,sans-Serif" font-size="10.00">sokoban_core/key_definitions.hpp</text>
</a>
</g>
</g>
<!-- Node1&#45;&gt;Node2 -->
<g id="edge1_Node000001_Node000002" class="edge">
<title>Node1&#45;&gt;Node2</title>
<g id="a_edge1_Node000001_Node000002"><a xlink:title=" ">
<path fill="none" stroke="#63b8ff" d="M144.24,-55.55C131.97,-46.78 116.63,-35.83 104.24,-26.97"/>
<polygon fill="#63b8ff" stroke="#63b8ff" points="106.45,-24.25 96.28,-21.29 102.38,-29.95 106.45,-24.25"/>
</a>
</g>
</g>
<!-- Node3 -->
<g id="Node000003" class="node">
<title>Node3</title>
<g id="a_Node000003"><a xlink:href="../../d5/d34/windows_8hpp.html" target="_top" xlink:title=" ">
<polygon fill="white" stroke="#666666" points="318.25,-20 181.5,-20 181.5,0 318.25,0 318.25,-20"/>
<text text-anchor="middle" x="249.88" y="-6.5" font-family="Helvetica,sans-Serif" font-size="10.00">sokoban_core/windows.hpp</text>
</a>
</g>
</g>
<!-- Node1&#45;&gt;Node3 -->
<g id="edge2_Node000001_Node000003" class="edge">
<title>Node1&#45;&gt;Node3</title>
<g id="a_edge2_Node000001_Node000003"><a xlink:title=" ">
<path fill="none" stroke="#63b8ff" d="M187.51,-55.55C199.78,-46.78 215.12,-35.83 227.51,-26.97"/>
<polygon fill="#63b8ff" stroke="#63b8ff" points="229.37,-29.95 235.47,-21.29 225.3,-24.25 229.37,-29.95"/>
</a>
</g>
</g>
</g>
</svg>
