<?xml version="1.0" encoding="UTF-8" standalone="no"?>
<!DOCTYPE svg PUBLIC "-//W3C//DTD SVG 1.1//EN"
 "http://www.w3.org/Graphics/SVG/1.1/DTD/svg11.dtd">
<!-- Generated by graphviz version 12.1.1 (20240910.0053)
 -->
<!-- Title: sokoban::sbg::BaseSessionContext Pages: 1 -->
<svg width="140pt" height="528pt"
 viewBox="0.00 0.00 140.00 528.00" xmlns="http://www.w3.org/2000/svg" xmlns:xlink="http://www.w3.org/1999/xlink">
<g id="graph0" class="graph" transform="scale(1 1) rotate(0) translate(4 524)">
<title>sokoban::sbg::BaseSessionContext</title>
<!-- Node1 -->
<g id="Node000001" class="node">
<title>Node1</title>
<g id="a_Node000001"><a xlink:title=" ">
<polygon fill="#999999" stroke="none" points="132,-224 0,-224 0,0 132,0 132,-224"/>
<text text-anchor="start" x="4.88" y="-210.5" font-family="Helvetica,sans-Serif" font-size="10.00">sokoban::sbg::BaseSession</text>
<text text-anchor="start" x="48.75" y="-198.5" font-family="Helvetica,sans-Serif" font-size="10.00">Context</text>
<text text-anchor="start" x="64.5" y="-182.5" font-family="Helvetica,sans-Serif" font-size="10.00"> </text>
<text text-anchor="start" x="6" y="-166.5" font-family="Helvetica,sans-Serif" font-size="10.00">+</text>
<text text-anchor="start" x="18" y="-166.5" font-family="Helvetica,sans-Serif" font-size="10.00">BaseSessionContext()</text>
<text text-anchor="start" x="6" y="-150.5" font-family="Helvetica,sans-Serif" font-size="10.00">+</text>
<text text-anchor="start" x="18" y="-150.5" font-family="Helvetica,sans-Serif" font-size="10.00">multimodalInterface()</text>
<text text-anchor="start" x="6" y="-134.5" font-family="Helvetica,sans-Serif" font-size="10.00">+</text>
<text text-anchor="start" x="18" y="-134.5" font-family="Helvetica,sans-Serif" font-size="10.00">executeCommand()</text>
<text text-anchor="start" x="6" y="-118.5" font-family="Helvetica,sans-Serif" font-size="10.00">+</text>
<text text-anchor="start" x="18" y="-118.5" font-family="Helvetica,sans-Serif" font-size="10.00">drawLevel()</text>
<text text-anchor="start" x="6" y="-102.5" font-family="Helvetica,sans-Serif" font-size="10.00">+</text>
<text text-anchor="start" x="18" y="-102.5" font-family="Helvetica,sans-Serif" font-size="10.00">initialize()</text>
<text text-anchor="start" x="6" y="-86.5" font-family="Helvetica,sans-Serif" font-size="10.00">+</text>
<text text-anchor="start" x="18" y="-86.5" font-family="Helvetica,sans-Serif" font-size="10.00">loadLevel()</text>
<text text-anchor="start" x="6" y="-70.5" font-family="Helvetica,sans-Serif" font-size="10.00">+</text>
<text text-anchor="start" x="18" y="-70.5" font-family="Helvetica,sans-Serif" font-size="10.00">incrementLevelNumber()</text>
<text text-anchor="start" x="6" y="-54.5" font-family="Helvetica,sans-Serif" font-size="10.00">+</text>
<text text-anchor="start" x="18" y="-54.5" font-family="Helvetica,sans-Serif" font-size="10.00">supportsSaveGames()</text>
<text text-anchor="start" x="6" y="-38.5" font-family="Helvetica,sans-Serif" font-size="10.00">+</text>
<text text-anchor="start" x="18" y="-38.5" font-family="Helvetica,sans-Serif" font-size="10.00">hasNextLevel()</text>
<text text-anchor="start" x="6" y="-22.5" font-family="Helvetica,sans-Serif" font-size="10.00">+</text>
<text text-anchor="start" x="18" y="-22.5" font-family="Helvetica,sans-Serif" font-size="10.00">saveGame()</text>
<text text-anchor="start" x="6" y="-6.5" font-family="Helvetica,sans-Serif" font-size="10.00">+</text>
<text text-anchor="start" x="18" y="-6.5" font-family="Helvetica,sans-Serif" font-size="10.00">loadGame()</text>
<polygon fill="#666666" stroke="#666666" points="0,-194 0,-194 132,-194 132,-194 0,-194"/>
<polygon fill="#666666" stroke="#666666" points="0,-178 0,-178 132,-178 132,-178 0,-178"/>
<polygon fill="none" stroke="#666666" points="0,0 0,-224 132,-224 132,0 0,0"/>
</a>
</g>
</g>
<!-- Node2 -->
<g id="Node000002" class="node">
<title>Node2</title>
<g id="a_Node000002"><a xlink:href="../../d2/df2/classsokoban_1_1_session_context.html" target="_top" xlink:title=" ">
<polygon fill="white" stroke="none" points="128,-520 4,-520 4,-260 128,-260 128,-520"/>
<text text-anchor="start" x="9.75" y="-506.5" font-family="Helvetica,sans-Serif" font-size="10.00">sokoban::SessionContext</text>
<text text-anchor="start" x="8.38" y="-490.5" font-family="Helvetica,sans-Serif" font-size="10.00">#</text>
<text text-anchor="start" x="18" y="-490.5" font-family="Helvetica,sans-Serif" font-size="10.00">player_</text>
<text text-anchor="start" x="8.38" y="-474.5" font-family="Helvetica,sans-Serif" font-size="10.00">#</text>
<text text-anchor="start" x="18" y="-474.5" font-family="Helvetica,sans-Serif" font-size="10.00">console_</text>
<text text-anchor="start" x="8.38" y="-458.5" font-family="Helvetica,sans-Serif" font-size="10.00">#</text>
<text text-anchor="start" x="18" y="-458.5" font-family="Helvetica,sans-Serif" font-size="10.00">modFolderPath_</text>
<text text-anchor="start" x="8.38" y="-442.5" font-family="Helvetica,sans-Serif" font-size="10.00">#</text>
<text text-anchor="start" x="18" y="-442.5" font-family="Helvetica,sans-Serif" font-size="10.00">currentlevelPath_</text>
<text text-anchor="start" x="8" y="-426.5" font-family="Helvetica,sans-Serif" font-size="10.00">+</text>
<text text-anchor="start" x="18" y="-426.5" font-family="Helvetica,sans-Serif" font-size="10.00">multimodalInterface()</text>
<text text-anchor="start" x="8" y="-410.5" font-family="Helvetica,sans-Serif" font-size="10.00">+</text>
<text text-anchor="start" x="18" y="-410.5" font-family="Helvetica,sans-Serif" font-size="10.00">initialize()</text>
<text text-anchor="start" x="8" y="-394.5" font-family="Helvetica,sans-Serif" font-size="10.00">+</text>
<text text-anchor="start" x="18" y="-394.5" font-family="Helvetica,sans-Serif" font-size="10.00">executeCommand()</text>
<text text-anchor="start" x="8" y="-378.5" font-family="Helvetica,sans-Serif" font-size="10.00">+</text>
<text text-anchor="start" x="18" y="-378.5" font-family="Helvetica,sans-Serif" font-size="10.00">drawLevel()</text>
<text text-anchor="start" x="8" y="-362.5" font-family="Helvetica,sans-Serif" font-size="10.00">+</text>
<text text-anchor="start" x="18" y="-362.5" font-family="Helvetica,sans-Serif" font-size="10.00">loadLevel()</text>
<text text-anchor="start" x="8" y="-346.5" font-family="Helvetica,sans-Serif" font-size="10.00">+</text>
<text text-anchor="start" x="18" y="-346.5" font-family="Helvetica,sans-Serif" font-size="10.00">incrementLevelNumber()</text>
<text text-anchor="start" x="8" y="-330.5" font-family="Helvetica,sans-Serif" font-size="10.00">+</text>
<text text-anchor="start" x="18" y="-330.5" font-family="Helvetica,sans-Serif" font-size="10.00">hasNextLevel()</text>
<text text-anchor="start" x="8" y="-314.5" font-family="Helvetica,sans-Serif" font-size="10.00">+</text>
<text text-anchor="start" x="18" y="-314.5" font-family="Helvetica,sans-Serif" font-size="10.00">supportsSaveGames()</text>
<text text-anchor="start" x="8" y="-298.5" font-family="Helvetica,sans-Serif" font-size="10.00">+</text>
<text text-anchor="start" x="18" y="-298.5" font-family="Helvetica,sans-Serif" font-size="10.00">saveGame()</text>
<text text-anchor="start" x="8" y="-282.5" font-family="Helvetica,sans-Serif" font-size="10.00">+</text>
<text text-anchor="start" x="18" y="-282.5" font-family="Helvetica,sans-Serif" font-size="10.00">loadGame()</text>
<text text-anchor="start" x="18" y="-266.5" font-family="Helvetica,sans-Serif" font-size="10.00">and 8 more...</text>
<polygon fill="#666666" stroke="#666666" points="4,-502 4,-502 128,-502 128,-502 4,-502"/>
<polygon fill="#666666" stroke="#666666" points="4,-438 4,-438 16,-438 16,-438 4,-438"/>
<polygon fill="#666666" stroke="#666666" points="16,-438 16,-438 128,-438 128,-438 16,-438"/>
<polygon fill="none" stroke="#666666" points="4,-260 4,-520 128,-520 128,-260 4,-260"/>
</a>
</g>
</g>
<!-- Node2&#45;&gt;Node1 -->
<g id="edge1_Node000001_Node000002" class="edge">
<title>Node2&#45;&gt;Node1</title>
<g id="a_edge1_Node000001_Node000002"><a xlink:title=" ">
<path fill="none" stroke="#63b8ff" d="M66,-248.81C66,-240.39 66,-231.98 66,-223.71"/>
<polygon fill="none" stroke="#63b8ff" points="62.5,-248.78 66,-258.78 69.5,-248.78 62.5,-248.78"/>
</a>
</g>
</g>
</g>
</svg>
