<?xml version="1.0" encoding="UTF-8" standalone="no"?>
<!DOCTYPE svg PUBLIC "-//W3C//DTD SVG 1.1//EN"
 "http://www.w3.org/Graphics/SVG/1.1/DTD/svg11.dtd">
<!-- Generated by graphviz version 12.1.1 (20240910.0053)
 -->
<!-- Title: sokoban::sbg::BaseSessionContext Pages: 1 -->
<!--zoomable 605 -->

<svg id="main" version="1.1" xmlns="http://www.w3.org/2000/svg" xmlns:xlink="http://www.w3.org/1999/xlink" xml:space="preserve" onload="init(evt)">
<style type="text/css"><![CDATA[
.node, .edge {opacity: 0.7;}
.node.selected, .edge.selected {opacity: 1;}
.edge:hover path { stroke: red; }
.edge:hover polygon { stroke: red; fill: red; }
]]></style>

<defs>
  <circle id="rim" cx="0" cy="0" r="7"/>
  <circle id="rim2" cx="0" cy="0" r="3.5"/>
  <g id="zoomPlus">
    <use xlink:href="#rim" fill="#404040"><set attributeName="fill" to="#808080" begin="zoomplus.mouseover" end="zoomplus.mouseout"/></use>
    <path d="M-4,0h8M0,-4v8" fill="none" stroke="white" stroke-width="1.5" pointer-events="none"/>
  </g>
  <g id="zoomMin">
    <use xlink:href="#rim" fill="#404040"><set attributeName="fill" to="#808080" begin="zoomminus.mouseover" end="zoomminus.mouseout"/></use>
    <path d="M-4,0h8" fill="none" stroke="white" stroke-width="1.5" pointer-events="none"/>
  </g>
  <g id="arrowUp" transform="translate(30 24)">
    <use xlink:href="#rim"/>
    <path pointer-events="none" fill="none" stroke="white" stroke-width="1.5" d="M0,-3.0v7 M-2.5,-0.5L0,-3.0L2.5,-0.5"/>
  </g>
  <g id="arrowRight" transform="rotate(90) translate(36 -43)">
    <use xlink:href="#rim"/>
    <path pointer-events="none" fill="none" stroke="white" stroke-width="1.5" d="M0,-3.0v7 M-2.5,-0.5L0,-3.0L2.5,-0.5"/>
  </g>
  <g id="arrowDown" transform="rotate(180) translate(-30 -48)">
    <use xlink:href="#rim"/>
    <path pointer-events="none" fill="none" stroke="white" stroke-width="1.5" d="M0,-3.0v7 M-2.5,-0.5L0,-3.0L2.5,-0.5"/>
  </g>
  <g id="arrowLeft" transform="rotate(270) translate(-36 17)">
    <use xlink:href="#rim"/>
    <path pointer-events="none" fill="none" stroke="white" stroke-width="1.5" d="M0,-3.0v7 M-2.5,-0.5L0,-3.0L2.5,-0.5"/>
  </g>
  <g id="resetDef">
    <use xlink:href="#rim2" fill="#404040"><set attributeName="fill" to="#808080" begin="reset.mouseover" end="reset.mouseout"/></use>
  </g>
</defs>
<script type="application/ecmascript">
var viewWidth = 322;
var viewHeight = 605;
var sectionId = 'dynsection-1';
</script>
<script type="application/ecmascript" xlink:href="../../svg.min.js"/>
<svg id="graph" class="graph">
<g id="viewport">
<title>sokoban::sbg::BaseSessionContext</title>
<!-- Node1 -->
<g id="Node000001" class="node">
<title>Node1</title>
<g id="a_Node000001"><a xlink:title=" ">
<polygon fill="#999999" stroke="none" points="235.5,-224 103.5,-224 103.5,0 235.5,0 235.5,-224"/>
<text text-anchor="start" x="108.38" y="-210.5" font-family="Helvetica,sans-Serif" font-size="10.00">sokoban::sbg::BaseSession</text>
<text text-anchor="start" x="152.25" y="-198.5" font-family="Helvetica,sans-Serif" font-size="10.00">Context</text>
<text text-anchor="start" x="168" y="-182.5" font-family="Helvetica,sans-Serif" font-size="10.00"> </text>
<text text-anchor="start" x="109.5" y="-166.5" font-family="Helvetica,sans-Serif" font-size="10.00">+</text>
<text text-anchor="start" x="121.5" y="-166.5" font-family="Helvetica,sans-Serif" font-size="10.00">BaseSessionContext()</text>
<text text-anchor="start" x="109.5" y="-150.5" font-family="Helvetica,sans-Serif" font-size="10.00">+</text>
<text text-anchor="start" x="121.5" y="-150.5" font-family="Helvetica,sans-Serif" font-size="10.00">multimodalInterface()</text>
<text text-anchor="start" x="109.5" y="-134.5" font-family="Helvetica,sans-Serif" font-size="10.00">+</text>
<text text-anchor="start" x="121.5" y="-134.5" font-family="Helvetica,sans-Serif" font-size="10.00">executeCommand()</text>
<text text-anchor="start" x="109.5" y="-118.5" font-family="Helvetica,sans-Serif" font-size="10.00">+</text>
<text text-anchor="start" x="121.5" y="-118.5" font-family="Helvetica,sans-Serif" font-size="10.00">drawLevel()</text>
<text text-anchor="start" x="109.5" y="-102.5" font-family="Helvetica,sans-Serif" font-size="10.00">+</text>
<text text-anchor="start" x="121.5" y="-102.5" font-family="Helvetica,sans-Serif" font-size="10.00">initialize()</text>
<text text-anchor="start" x="109.5" y="-86.5" font-family="Helvetica,sans-Serif" font-size="10.00">+</text>
<text text-anchor="start" x="121.5" y="-86.5" font-family="Helvetica,sans-Serif" font-size="10.00">loadLevel()</text>
<text text-anchor="start" x="109.5" y="-70.5" font-family="Helvetica,sans-Serif" font-size="10.00">+</text>
<text text-anchor="start" x="121.5" y="-70.5" font-family="Helvetica,sans-Serif" font-size="10.00">incrementLevelNumber()</text>
<text text-anchor="start" x="109.5" y="-54.5" font-family="Helvetica,sans-Serif" font-size="10.00">+</text>
<text text-anchor="start" x="121.5" y="-54.5" font-family="Helvetica,sans-Serif" font-size="10.00">supportsSaveGames()</text>
<text text-anchor="start" x="109.5" y="-38.5" font-family="Helvetica,sans-Serif" font-size="10.00">+</text>
<text text-anchor="start" x="121.5" y="-38.5" font-family="Helvetica,sans-Serif" font-size="10.00">hasNextLevel()</text>
<text text-anchor="start" x="109.5" y="-22.5" font-family="Helvetica,sans-Serif" font-size="10.00">+</text>
<text text-anchor="start" x="121.5" y="-22.5" font-family="Helvetica,sans-Serif" font-size="10.00">saveGame()</text>
<text text-anchor="start" x="109.5" y="-6.5" font-family="Helvetica,sans-Serif" font-size="10.00">+</text>
<text text-anchor="start" x="121.5" y="-6.5" font-family="Helvetica,sans-Serif" font-size="10.00">loadGame()</text>
<polygon fill="#666666" stroke="#666666" points="103.5,-194 103.5,-194 235.5,-194 235.5,-194 103.5,-194"/>
<polygon fill="#666666" stroke="#666666" points="103.5,-178 103.5,-178 235.5,-178 235.5,-178 103.5,-178"/>
<polygon fill="none" stroke="#666666" points="103.5,0 103.5,-224 235.5,-224 235.5,0 103.5,0"/>
</a>
</g>
</g>
<!-- Node2 -->
<g id="Node000002" class="node">
<title>Node2</title>
<g id="a_Node000002"><a xlink:href="../../d2/df2/classsokoban_1_1_session_context.html" target="_top" xlink:title=" ">
<polygon fill="white" stroke="none" points="231.5,-473 107.5,-473 107.5,-261 231.5,-261 231.5,-473"/>
<text text-anchor="start" x="113.25" y="-459.5" font-family="Helvetica,sans-Serif" font-size="10.00">sokoban::SessionContext</text>
<text text-anchor="start" x="168" y="-443.5" font-family="Helvetica,sans-Serif" font-size="10.00"> </text>
<text text-anchor="start" x="111.5" y="-427.5" font-family="Helvetica,sans-Serif" font-size="10.00">+</text>
<text text-anchor="start" x="121.5" y="-427.5" font-family="Helvetica,sans-Serif" font-size="10.00">multimodalInterface()</text>
<text text-anchor="start" x="111.5" y="-411.5" font-family="Helvetica,sans-Serif" font-size="10.00">+</text>
<text text-anchor="start" x="121.5" y="-411.5" font-family="Helvetica,sans-Serif" font-size="10.00">initialize()</text>
<text text-anchor="start" x="111.5" y="-395.5" font-family="Helvetica,sans-Serif" font-size="10.00">+</text>
<text text-anchor="start" x="121.5" y="-395.5" font-family="Helvetica,sans-Serif" font-size="10.00">executeCommand()</text>
<text text-anchor="start" x="111.5" y="-379.5" font-family="Helvetica,sans-Serif" font-size="10.00">+</text>
<text text-anchor="start" x="121.5" y="-379.5" font-family="Helvetica,sans-Serif" font-size="10.00">drawLevel()</text>
<text text-anchor="start" x="111.5" y="-363.5" font-family="Helvetica,sans-Serif" font-size="10.00">+</text>
<text text-anchor="start" x="121.5" y="-363.5" font-family="Helvetica,sans-Serif" font-size="10.00">loadLevel()</text>
<text text-anchor="start" x="111.5" y="-347.5" font-family="Helvetica,sans-Serif" font-size="10.00">+</text>
<text text-anchor="start" x="121.5" y="-347.5" font-family="Helvetica,sans-Serif" font-size="10.00">incrementLevelNumber()</text>
<text text-anchor="start" x="111.5" y="-331.5" font-family="Helvetica,sans-Serif" font-size="10.00">+</text>
<text text-anchor="start" x="121.5" y="-331.5" font-family="Helvetica,sans-Serif" font-size="10.00">hasNextLevel()</text>
<text text-anchor="start" x="111.5" y="-315.5" font-family="Helvetica,sans-Serif" font-size="10.00">+</text>
<text text-anchor="start" x="121.5" y="-315.5" font-family="Helvetica,sans-Serif" font-size="10.00">supportsSaveGames()</text>
<text text-anchor="start" x="111.5" y="-299.5" font-family="Helvetica,sans-Serif" font-size="10.00">+</text>
<text text-anchor="start" x="121.5" y="-299.5" font-family="Helvetica,sans-Serif" font-size="10.00">saveGame()</text>
<text text-anchor="start" x="111.5" y="-283.5" font-family="Helvetica,sans-Serif" font-size="10.00">+</text>
<text text-anchor="start" x="121.5" y="-283.5" font-family="Helvetica,sans-Serif" font-size="10.00">loadGame()</text>
<text text-anchor="start" x="121.5" y="-267.5" font-family="Helvetica,sans-Serif" font-size="10.00">and 8 more...</text>
<polygon fill="#666666" stroke="#666666" points="107.5,-455 107.5,-455 231.5,-455 231.5,-455 107.5,-455"/>
<polygon fill="#666666" stroke="#666666" points="107.5,-439 107.5,-439 231.5,-439 231.5,-439 107.5,-439"/>
<polygon fill="none" stroke="#666666" points="107.5,-261 107.5,-473 231.5,-473 231.5,-261 107.5,-261"/>
</a>
</g>
</g>
<!-- Node2&#45;&gt;Node1 -->
<g id="edge1_Node000001_Node000002" class="edge">
<title>Node2&#45;&gt;Node1</title>
<g id="a_edge1_Node000001_Node000002"><a xlink:title=" ">
<path fill="none" stroke="#63b8ff" d="M169.5,-249.9C169.5,-241.2 169.5,-232.45 169.5,-223.79"/>
<polygon fill="none" stroke="#63b8ff" points="166,-249.76 169.5,-259.76 173,-249.76 166,-249.76"/>
</a>
</g>
</g>
<!-- Node3 -->
<g id="Node000003" class="node">
<title>Node3</title>
<g id="a_Node000003"><a xlink:title=" ">
<polygon fill="white" stroke="none" points="101,-597 0,-597 0,-533 101,-533 101,-597"/>
<text text-anchor="start" x="4.75" y="-583.5" font-family="Helvetica,sans-Serif" font-size="10.00">shared_ptr&lt; sokoban</text>
<text text-anchor="start" x="29.12" y="-571.5" font-family="Helvetica,sans-Serif" font-size="10.00">::Player &gt;</text>
<text text-anchor="start" x="49" y="-555.5" font-family="Helvetica,sans-Serif" font-size="10.00"> </text>
<text text-anchor="start" x="49" y="-539.5" font-family="Helvetica,sans-Serif" font-size="10.00"> </text>
<polygon fill="#666666" stroke="#666666" points="0,-567 0,-567 101,-567 101,-567 0,-567"/>
<polygon fill="#666666" stroke="#666666" points="0,-551 0,-551 101,-551 101,-551 0,-551"/>
<polygon fill="none" stroke="#666666" points="0,-533 0,-597 101,-597 101,-533 0,-533"/>
</a>
</g>
</g>
<!-- Node3&#45;&gt;Node2 -->
<g id="edge2_Node000002_Node000003" class="edge">
<title>Node3&#45;&gt;Node2</title>
<g id="a_edge2_Node000002_Node000003"><a xlink:title=" ">
<path fill="none" stroke="#63b8ff" d="M69.09,-533.38C77.99,-518.73 89.24,-500.19 100.98,-480.86"/>
<polygon fill="none" stroke="#63b8ff" points="101.04,-480.76 100.73,-473.55 107.27,-470.5 107.57,-477.71 101.04,-480.76"/>
</a>
</g>
<text text-anchor="middle" x="112.26" y="-499.5" font-family="Helvetica,sans-Serif" font-size="10.00" fill="grey"> #player_</text>
</g>
<!-- Node4 -->
<g id="Node000004" class="node">
<title>Node4</title>
<g id="a_Node000004"><a xlink:title=" ">
<polygon fill="white" stroke="none" points="220,-597 119,-597 119,-533 220,-533 220,-597"/>
<text text-anchor="start" x="123.75" y="-583.5" font-family="Helvetica,sans-Serif" font-size="10.00">shared_ptr&lt; sokoban</text>
<text text-anchor="start" x="135.75" y="-571.5" font-family="Helvetica,sans-Serif" font-size="10.00">::tui::Console &gt;</text>
<text text-anchor="start" x="168" y="-555.5" font-family="Helvetica,sans-Serif" font-size="10.00"> </text>
<text text-anchor="start" x="168" y="-539.5" font-family="Helvetica,sans-Serif" font-size="10.00"> </text>
<polygon fill="#666666" stroke="#666666" points="119,-567 119,-567 220,-567 220,-567 119,-567"/>
<polygon fill="#666666" stroke="#666666" points="119,-551 119,-551 220,-551 220,-551 119,-551"/>
<polygon fill="none" stroke="#666666" points="119,-533 119,-597 220,-597 220,-533 119,-533"/>
</a>
</g>
</g>
<!-- Node4&#45;&gt;Node2 -->
<g id="edge3_Node000002_Node000004" class="edge">
<title>Node4&#45;&gt;Node2</title>
<g id="a_edge3_Node000002_Node000004"><a xlink:title=" ">
<path fill="none" stroke="#63b8ff" d="M169.5,-533.38C169.5,-519.95 169.5,-503.25 169.5,-485.67"/>
<polygon fill="none" stroke="#63b8ff" points="169.5,-485.64 165.5,-479.64 169.5,-473.64 173.5,-479.64 169.5,-485.64"/>
</a>
</g>
<text text-anchor="middle" x="193.12" y="-499.5" font-family="Helvetica,sans-Serif" font-size="10.00" fill="grey"> #console_</text>
</g>
<!-- Node5 -->
<g id="Node000005" class="node">
<title>Node5</title>
<g id="a_Node000005"><a xlink:title=" ">
<polygon fill="white" stroke="none" points="266.5,-591 238.5,-591 238.5,-539 266.5,-539 266.5,-591"/>
<text text-anchor="start" x="243.12" y="-577.5" font-family="Helvetica,sans-Serif" font-size="10.00">path</text>
<text text-anchor="start" x="251" y="-561.5" font-family="Helvetica,sans-Serif" font-size="10.00"> </text>
<text text-anchor="start" x="251" y="-545.5" font-family="Helvetica,sans-Serif" font-size="10.00"> </text>
<polygon fill="#666666" stroke="#666666" points="238.5,-573 238.5,-573 266.5,-573 266.5,-573 238.5,-573"/>
<polygon fill="#666666" stroke="#666666" points="238.5,-557 238.5,-557 266.5,-557 266.5,-557 238.5,-557"/>
<polygon fill="none" stroke="#666666" points="238.5,-539 238.5,-591 266.5,-591 266.5,-539 238.5,-539"/>
</a>
</g>
</g>
<!-- Node5&#45;&gt;Node2 -->
<g id="edge4_Node000002_Node000005" class="edge">
<title>Node5&#45;&gt;Node2</title>
<g id="a_edge4_Node000002_Node000005"><a xlink:title=" ">
<path fill="none" stroke="#63b8ff" d="M241.99,-539.18C235.87,-524.73 227.66,-505.35 218.97,-484.83"/>
<polygon fill="none" stroke="#63b8ff" points="218.99,-484.87 212.97,-480.91 214.31,-473.82 220.33,-477.79 218.99,-484.87"/>
</a>
</g>
<text text-anchor="middle" x="272.24" y="-505.5" font-family="Helvetica,sans-Serif" font-size="10.00" fill="grey"> #currentlevelPath_</text>
<text text-anchor="middle" x="272.24" y="-493.5" font-family="Helvetica,sans-Serif" font-size="10.00" fill="grey">#modFolderPath_</text>
</g>
</g>
</svg>

<g id="navigator" transform="translate(0 0)" fill="#404254">
  <rect fill="#f2f5e9" fill-opacity="0.5" stroke="#606060" stroke-width=".5" x="0" y="0" width="60" height="60"/>
  <use id="zoomplus" xlink:href="#zoomPlus" x="17" y="9" onmousedown="handleZoom(evt,'in')"/>
  <use id="zoomminus" xlink:href="#zoomMin" x="42" y="9" onmousedown="handleZoom(evt,'out')"/>
  <use id="reset" xlink:href="#resetDef" x="30" y="36" onmousedown="handleReset()"/>
   <use id="arrowup" xlink:href="#arrowUp" x="0" y="0" onmousedown="handlePan(0,-1)"/>
  <use id="arrowright" xlink:href="#arrowRight" x="0" y="0" onmousedown="handlePan(1,0)"/>
  <use id="arrowdown" xlink:href="#arrowDown" x="0" y="0" onmousedown="handlePan(0,1)"/>
  <use id="arrowleft" xlink:href="#arrowLeft" x="0" y="0" onmousedown="handlePan(-1,0)"/>
</g>
<svg viewBox="0 0 15 15" width="100%" height="30px" preserveAspectRatio="xMaxYMin meet">
 <g id="arrow_out" transform="scale(0.3 0.3)">
  <a xlink:href="classsokoban_1_1sbg_1_1_base_session_context__coll__graph_org.svg" target="_base">
   <rect id="button" ry="5" rx="5" y="6" x="6" height="38" width="38"
        fill="#f2f5e9" fill-opacity="0.5" stroke="#606060" stroke-width="1.0"/>
   <path id="arrow"
     d="M 11.500037,31.436501 C 11.940474,20.09759 22.043105,11.32322 32.158766,21.979434 L 37.068811,17.246167 C 37.068811,17.246167 37.088388,32 37.088388,32 L 22.160133,31.978069 C 22.160133,31.978069 26.997745,27.140456 26.997745,27.140456 C 18.528582,18.264221 13.291696,25.230495 11.500037,31.436501 z"
     style="fill:#404040;"/>
  </a>
 </g>
</svg>

<style type='text/css'>
<![CDATA[
[data-mouse-over-selected='false'] { opacity: 0.7; }
[data-mouse-over-selected='true']  { opacity: 1.0; }
]]>
</style>
<script type="application/ecmascript"><![CDATA[
document.addEventListener('DOMContentLoaded', (event) => {
  highlightEdges();
  highlightAdjacentNodes();
});
]]></script>
</svg>
