<?xml version="1.0" encoding="UTF-8" standalone="no"?>
<!DOCTYPE svg PUBLIC "-//W3C//DTD SVG 1.1//EN"
 "http://www.w3.org/Graphics/SVG/1.1/DTD/svg11.dtd">
<!-- Generated by graphviz version 12.1.1 (20240910.0053)
 -->
<!-- Title: sokoban::tui::MenuCollection Pages: 1 -->
<svg width="144pt" height="220pt"
 viewBox="0.00 0.00 144.00 220.00" xmlns="http://www.w3.org/2000/svg" xmlns:xlink="http://www.w3.org/1999/xlink">
<g id="graph0" class="graph" transform="scale(1 1) rotate(0) translate(4 216)">
<title>sokoban::tui::MenuCollection</title>
<!-- Node1 -->
<g id="Node000001" class="node">
<title>Node1</title>
<g id="a_Node000001"><a xlink:title=" ">
<polygon fill="#999999" stroke="none" points="136,-52 0,-52 0,0 136,0 136,-52"/>
<text text-anchor="start" x="4.62" y="-38.5" font-family="Helvetica,sans-Serif" font-size="10.00">sokoban::tui::MenuCollection</text>
<text text-anchor="start" x="66.5" y="-22.5" font-family="Helvetica,sans-Serif" font-size="10.00"> </text>
<text text-anchor="start" x="66.5" y="-6.5" font-family="Helvetica,sans-Serif" font-size="10.00"> </text>
<polygon fill="#666666" stroke="#666666" points="0,-34 0,-34 136,-34 136,-34 0,-34"/>
<polygon fill="#666666" stroke="#666666" points="0,-18 0,-18 136,-18 136,-18 0,-18"/>
<polygon fill="none" stroke="#666666" points="0,0 0,-52 136,-52 136,0 0,0"/>
</a>
</g>
</g>
<!-- Node2 -->
<g id="Node000002" class="node">
<title>Node2</title>
<g id="a_Node000002"><a xlink:href="../../d2/d45/classsokoban_1_1tui_1_1_menu.html" target="_top" xlink:title=" ">
<polygon fill="white" stroke="none" points="124,-212 12,-212 12,-100 124,-100 124,-212"/>
<text text-anchor="start" x="17" y="-198.5" font-family="Helvetica,sans-Serif" font-size="10.00">sokoban::tui::Menu</text>
<text text-anchor="start" x="17" y="-186.5" font-family="Helvetica,sans-Serif" font-size="10.00">&lt; MainMenuEntriesId &gt;</text>
<text text-anchor="start" x="66.5" y="-170.5" font-family="Helvetica,sans-Serif" font-size="10.00"> </text>
<text text-anchor="start" x="28.5" y="-154.5" font-family="Helvetica,sans-Serif" font-size="10.00">+</text>
<text text-anchor="start" x="51" y="-154.5" font-family="Helvetica,sans-Serif" font-size="10.00">Menu()</text>
<text text-anchor="start" x="28.5" y="-138.5" font-family="Helvetica,sans-Serif" font-size="10.00">+</text>
<text text-anchor="start" x="51" y="-138.5" font-family="Helvetica,sans-Serif" font-size="10.00">getValue()</text>
<text text-anchor="start" x="28.5" y="-122.5" font-family="Helvetica,sans-Serif" font-size="10.00">+</text>
<text text-anchor="start" x="51" y="-122.5" font-family="Helvetica,sans-Serif" font-size="10.00">size()</text>
<text text-anchor="start" x="28.5" y="-106.5" font-family="Helvetica,sans-Serif" font-size="10.00">+</text>
<text text-anchor="start" x="51" y="-106.5" font-family="Helvetica,sans-Serif" font-size="10.00">text()</text>
<polygon fill="#666666" stroke="#666666" points="12,-182 12,-182 124,-182 124,-182 12,-182"/>
<polygon fill="#666666" stroke="#666666" points="12,-166 12,-166 124,-166 124,-166 12,-166"/>
<polygon fill="none" stroke="#666666" points="12,-100 12,-212 124,-212 124,-100 12,-100"/>
</a>
</g>
</g>
<!-- Node2&#45;&gt;Node1 -->
<g id="edge1_Node000001_Node000002" class="edge">
<title>Node2&#45;&gt;Node1</title>
<g id="a_edge1_Node000001_Node000002"><a xlink:title=" ">
<path fill="none" stroke="#63b8ff" d="M68,-100.35C68,-88.36 68,-75.94 68,-64.79"/>
<polygon fill="none" stroke="#63b8ff" points="68,-64.85 64,-58.85 68,-52.85 72,-58.85 68,-64.85"/>
</a>
</g>
<text text-anchor="middle" x="95" y="-72.5" font-family="Helvetica,sans-Serif" font-size="10.00" fill="grey"> +mainMenu</text>
</g>
</g>
</svg>
