<?xml version="1.0" encoding="UTF-8" standalone="no"?>
<!DOCTYPE svg PUBLIC "-//W3C//DTD SVG 1.1//EN"
 "http://www.w3.org/Graphics/SVG/1.1/DTD/svg11.dtd">
<!-- Generated by graphviz version 12.1.2 (20240928.0832)
 -->
<!-- Title: editor_lib/include/editor/command.h Pages: 1 -->
<svg width="356pt" height="249pt"
 viewBox="0.00 0.00 356.00 249.25" xmlns="http://www.w3.org/2000/svg" xmlns:xlink="http://www.w3.org/1999/xlink">

<svg id="main" version="1.1" xmlns="http://www.w3.org/2000/svg" xmlns:xlink="http://www.w3.org/1999/xlink" xml:space="preserve">

<style type="text/css"><![CDATA[
.node, .edge {opacity: 0.7;}
.node.selected, .edge.selected {opacity: 1;}
.edge:hover path { stroke: red; }
.edge:hover polygon { stroke: red; fill: red; }
]]></style>
<script type="application/ecmascript" xlink:href="../../svg.min.js"/>
<svg id="graph" class="graph">
<g id="graph0" class="graph" transform="scale(1 1) rotate(0) translate(4 245.25)">
<title>editor_lib/include/editor/command.h</title>
<!-- Node1 -->
<g id="Node000001" class="node">
<title>Node1</title>
<g id="a_Node000001"><a xlink:title=" ">
<polygon fill="#999999" stroke="#666666" points="211,-241.25 114.75,-241.25 114.75,-210.75 211,-210.75 211,-241.25"/>
<text text-anchor="start" x="122.75" y="-227.75" font-family="Helvetica,sans-Serif" font-size="10.00">editor_lib/include</text>
<text text-anchor="middle" x="162.88" y="-216.5" font-family="Helvetica,sans-Serif" font-size="10.00">/editor/command.h</text>
</a>
</g>
</g>
<!-- Node2 -->
<g id="Node000002" class="node">
<title>Node2</title>
<g id="a_Node000002"><a xlink:href="../../da/de3/add__graphics__item__command_8h.html" target="_top" xlink:title=" ">
<polygon fill="white" stroke="#666666" points="103.75,-97 0,-97 0,-55.25 103.75,-55.25 103.75,-97"/>
<text text-anchor="start" x="8" y="-83.5" font-family="Helvetica,sans-Serif" font-size="10.00">editor_lib/include</text>
<text text-anchor="start" x="8" y="-72.25" font-family="Helvetica,sans-Serif" font-size="10.00">/editor/add_graphics</text>
<text text-anchor="middle" x="51.88" y="-61" font-family="Helvetica,sans-Serif" font-size="10.00">_item_command.h</text>
</a>
</g>
</g>
<!-- Node1&#45;&gt;Node2 -->
<g id="edge1_Node000001_Node000002" class="edge">
<title>Node1&#45;&gt;Node2</title>
<g id="a_edge1_Node000001_Node000002"><a xlink:title=" ">
<path fill="none" stroke="#63b8ff" d="M134.73,-202.93C125.23,-194.69 114.99,-184.86 106.88,-174.75 87.27,-150.32 70.57,-118.01 60.88,-97.39"/>
<polygon fill="#63b8ff" stroke="#63b8ff" points="132.45,-205.58 142.36,-209.33 136.95,-200.22 132.45,-205.58"/>
</a>
</g>
</g>
<!-- Node4 -->
<g id="Node000004" class="node">
<title>Node4</title>
<g id="a_Node000004"><a xlink:href="../../d2/dd9/controller_8h.html" target="_top" xlink:title=" ">
<polygon fill="white" stroke="#666666" points="209.5,-169.12 116.25,-169.12 116.25,-138.62 209.5,-138.62 209.5,-169.12"/>
<text text-anchor="start" x="124.25" y="-155.62" font-family="Helvetica,sans-Serif" font-size="10.00">editor_lib/include</text>
<text text-anchor="middle" x="162.88" y="-144.38" font-family="Helvetica,sans-Serif" font-size="10.00">/editor/controller.h</text>
</a>
</g>
</g>
<!-- Node1&#45;&gt;Node4 -->
<g id="edge3_Node000001_Node000004" class="edge">
<title>Node1&#45;&gt;Node4</title>
<g id="a_edge3_Node000001_Node000004"><a xlink:title=" ">
<path fill="none" stroke="#63b8ff" d="M162.88,-199.02C162.88,-189.01 162.88,-177.94 162.88,-169.39"/>
<polygon fill="#63b8ff" stroke="#63b8ff" points="159.38,-198.96 162.88,-208.96 166.38,-198.96 159.38,-198.96"/>
</a>
</g>
</g>
<!-- Node6 -->
<g id="Node000006" class="node">
<title>Node6</title>
<g id="a_Node000006"><a xlink:href="../../d9/d02/remove__graphics__item__command_8h.html" target="_top" xlink:title=" ">
<polygon fill="white" stroke="#666666" points="348,-174.75 227.75,-174.75 227.75,-133 348,-133 348,-174.75"/>
<text text-anchor="start" x="235.75" y="-161.25" font-family="Helvetica,sans-Serif" font-size="10.00">editor_lib/include</text>
<text text-anchor="start" x="235.75" y="-150" font-family="Helvetica,sans-Serif" font-size="10.00">/editor/remove_graphics</text>
<text text-anchor="middle" x="287.88" y="-138.75" font-family="Helvetica,sans-Serif" font-size="10.00">_item_command.h</text>
</a>
</g>
</g>
<!-- Node1&#45;&gt;Node6 -->
<g id="edge6_Node000001_Node000006" class="edge">
<title>Node1&#45;&gt;Node6</title>
<g id="a_edge6_Node000001_Node000006"><a xlink:title=" ">
<path fill="none" stroke="#63b8ff" d="M198.96,-204.76C215.54,-195.46 235.16,-184.45 251.75,-175.14"/>
<polygon fill="#63b8ff" stroke="#63b8ff" points="197.41,-201.61 190.4,-209.56 200.83,-207.72 197.41,-201.61"/>
</a>
</g>
</g>
<!-- Node3 -->
<g id="Node000003" class="node">
<title>Node3</title>
<g id="a_Node000003"><a xlink:href="../../df/d0a/main_8cpp.html" target="_top" xlink:title=" ">
<polygon fill="white" stroke="#666666" points="148.62,-19.25 77.12,-19.25 77.12,0 148.62,0 148.62,-19.25"/>
<text text-anchor="middle" x="112.88" y="-5.75" font-family="Helvetica,sans-Serif" font-size="10.00">src/main.cpp</text>
</a>
</g>
</g>
<!-- Node2&#45;&gt;Node3 -->
<g id="edge2_Node000002_Node000003" class="edge">
<title>Node2&#45;&gt;Node3</title>
<g id="a_edge2_Node000002_Node000003"><a xlink:title=" ">
<path fill="none" stroke="#63b8ff" d="M78.74,-46.72C87.95,-36.98 97.61,-26.76 104.3,-19.7"/>
<polygon fill="#63b8ff" stroke="#63b8ff" points="76.21,-44.3 71.88,-53.97 81.3,-49.11 76.21,-44.3"/>
</a>
</g>
</g>
<!-- Node5 -->
<g id="Node000005" class="node">
<title>Node5</title>
<g id="a_Node000005"><a xlink:href="../../d6/df0/push__button_8h.html" target="_top" xlink:title=" ">
<polygon fill="white" stroke="#666666" points="228.25,-91.38 121.5,-91.38 121.5,-60.88 228.25,-60.88 228.25,-91.38"/>
<text text-anchor="start" x="129.5" y="-77.88" font-family="Helvetica,sans-Serif" font-size="10.00">editor_lib/include</text>
<text text-anchor="middle" x="174.88" y="-66.62" font-family="Helvetica,sans-Serif" font-size="10.00">/editor/push_button.h</text>
</a>
</g>
</g>
<!-- Node4&#45;&gt;Node5 -->
<g id="edge4_Node000004_Node000005" class="edge">
<title>Node4&#45;&gt;Node5</title>
<g id="a_edge4_Node000004_Node000005"><a xlink:title=" ">
<path fill="none" stroke="#63b8ff" d="M166.94,-127.22C168.82,-115.37 170.98,-101.74 172.57,-91.69"/>
<polygon fill="#63b8ff" stroke="#63b8ff" points="163.53,-126.35 165.43,-136.77 170.45,-127.45 163.53,-126.35"/>
</a>
</g>
</g>
<!-- Node5&#45;&gt;Node3 -->
<g id="edge5_Node000005_Node000003" class="edge">
<title>Node5&#45;&gt;Node3</title>
<g id="a_edge5_Node000005_Node000003"><a xlink:title=" ">
<path fill="none" stroke="#63b8ff" d="M152.89,-52.25C141.98,-40.9 129.45,-27.86 121.36,-19.45"/>
<polygon fill="#63b8ff" stroke="#63b8ff" points="150.3,-54.61 159.76,-59.4 155.35,-49.76 150.3,-54.61"/>
</a>
</g>
</g>
</g>
</svg>
</svg>

<style type='text/css'>
<![CDATA[
[data-mouse-over-selected='false'] { opacity: 0.7; }
[data-mouse-over-selected='true']  { opacity: 1.0; }
]]>
</style>
<script type="application/ecmascript"><![CDATA[
document.addEventListener('DOMContentLoaded', (event) => {
  highlightEdges();
  highlightAdjacentNodes();
});
]]></script>
</svg>
