<?xml version="1.0" encoding="UTF-8" standalone="no"?>
<!DOCTYPE svg PUBLIC "-//W3C//DTD SVG 1.1//EN"
 "http://www.w3.org/Graphics/SVG/1.1/DTD/svg11.dtd">
<!-- Generated by graphviz version 12.1.2 (20240928.0832)
 -->
<!-- Title: editor_lib/include/editor/document.h Pages: 1 -->
<svg width="756pt" height="326pt"
 viewBox="0.00 0.00 755.75 326.00" xmlns="http://www.w3.org/2000/svg" xmlns:xlink="http://www.w3.org/1999/xlink">
<g id="graph0" class="graph" transform="scale(1 1) rotate(0) translate(4 322)">
<title>editor_lib/include/editor/document.h</title>
<!-- Node1 -->
<g id="Node000001" class="node">
<title>Node1</title>
<g id="a_Node000001"><a xlink:title=" ">
<polygon fill="#999999" stroke="#666666" points="495.88,-318 399.62,-318 399.62,-287.5 495.88,-287.5 495.88,-318"/>
<text text-anchor="start" x="407.62" y="-304.5" font-family="Helvetica,sans-Serif" font-size="10.00">editor_lib/include</text>
<text text-anchor="middle" x="447.75" y="-293.25" font-family="Helvetica,sans-Serif" font-size="10.00">/editor/document.h</text>
</a>
</g>
</g>
<!-- Node2 -->
<g id="Node000002" class="node">
<title>Node2</title>
<g id="a_Node000002"><a xlink:href="../../d8/d38/graphics__item_8h.html" target="_top" xlink:title=" ">
<polygon fill="white" stroke="#666666" points="116.88,-129.75 32.62,-129.75 32.62,-110.5 116.88,-110.5 116.88,-129.75"/>
<text text-anchor="middle" x="74.75" y="-116.25" font-family="Helvetica,sans-Serif" font-size="10.00">graphics_item.h</text>
</a>
</g>
</g>
<!-- Node1&#45;&gt;Node2 -->
<g id="edge1_Node000001_Node000002" class="edge">
<title>Node1&#45;&gt;Node2</title>
<g id="a_edge1_Node000001_Node000002"><a xlink:title=" ">
<path fill="none" stroke="#63b8ff" d="M399.29,-300.16C319.26,-296.59 164.18,-285.39 122.75,-251.5 89.09,-223.96 79.03,-170.53 76.03,-141.35"/>
<polygon fill="#63b8ff" stroke="#63b8ff" points="79.54,-141.34 75.23,-131.66 72.56,-141.91 79.54,-141.34"/>
</a>
</g>
</g>
<!-- Node3 -->
<g id="Node000003" class="node">
<title>Node3</title>
<g id="a_Node000003"><a xlink:href="../../d5/da3/serializable_8h.html" target="_top" xlink:title=" ">
<polygon fill="white" stroke="#666666" points="71.5,-74.5 0,-74.5 0,-55.25 71.5,-55.25 71.5,-74.5"/>
<text text-anchor="middle" x="35.75" y="-61" font-family="Helvetica,sans-Serif" font-size="10.00">serializable.h</text>
</a>
</g>
</g>
<!-- Node1&#45;&gt;Node3 -->
<g id="edge5_Node000001_Node000003" class="edge">
<title>Node1&#45;&gt;Node3</title>
<g id="a_edge5_Node000001_Node000003"><a xlink:title=" ">
<path fill="none" stroke="#63b8ff" d="M399.35,-299.95C314.79,-295.98 144.5,-284.09 95.75,-251.5 43.49,-216.56 40.34,-190.39 23.75,-129.75 19.73,-115.07 23.28,-98.13 27.54,-85.38"/>
<polygon fill="#63b8ff" stroke="#63b8ff" points="30.79,-86.66 31.07,-76.07 24.25,-84.18 30.79,-86.66"/>
</a>
</g>
</g>
<!-- Node5 -->
<g id="Node000005" class="node">
<title>Node5</title>
<g id="a_Node000005"><a xlink:title=" ">
<polygon fill="#e0e0e0" stroke="#999999" points="170,-74.5 119.5,-74.5 119.5,-55.25 170,-55.25 170,-74.5"/>
<text text-anchor="middle" x="144.75" y="-61" font-family="Helvetica,sans-Serif" font-size="10.00">memory</text>
</a>
</g>
</g>
<!-- Node1&#45;&gt;Node5 -->
<g id="edge18_Node000001_Node000005" class="edge">
<title>Node1&#45;&gt;Node5</title>
<g id="a_edge18_Node000001_Node000005"><a xlink:title=" ">
<path fill="none" stroke="#63b8ff" d="M399.14,-297.53C332.35,-288.9 213.88,-262.88 155.75,-185 134.17,-156.1 136.81,-111.59 140.74,-85.95"/>
<polygon fill="#63b8ff" stroke="#63b8ff" points="144.16,-86.68 142.46,-76.22 137.27,-85.46 144.16,-86.68"/>
</a>
</g>
</g>
<!-- Node6 -->
<g id="Node000006" class="node">
<title>Node6</title>
<g id="a_Node000006"><a xlink:href="../../d7/d8d/graphics__items__prototype__collection_8h.html" target="_top" xlink:title=" ">
<polygon fill="white" stroke="#666666" points="465.25,-251.5 338.25,-251.5 338.25,-221 465.25,-221 465.25,-251.5"/>
<text text-anchor="start" x="346.25" y="-238" font-family="Helvetica,sans-Serif" font-size="10.00">graphics_items_prototype</text>
<text text-anchor="middle" x="401.75" y="-226.75" font-family="Helvetica,sans-Serif" font-size="10.00">_collection.h</text>
</a>
</g>
</g>
<!-- Node1&#45;&gt;Node6 -->
<g id="edge6_Node000001_Node000006" class="edge">
<title>Node1&#45;&gt;Node6</title>
<g id="a_edge6_Node000001_Node000006"><a xlink:title=" ">
<path fill="none" stroke="#63b8ff" d="M437.31,-287.11C431.84,-279.44 425.01,-269.86 418.79,-261.15"/>
<polygon fill="#63b8ff" stroke="#63b8ff" points="421.68,-259.17 413.03,-253.06 415.98,-263.23 421.68,-259.17"/>
</a>
</g>
</g>
<!-- Node8 -->
<g id="Node000008" class="node">
<title>Node8</title>
<g id="a_Node000008"><a xlink:title=" ">
<polygon fill="#e0e0e0" stroke="#999999" points="404.5,-129.75 351,-129.75 351,-110.5 404.5,-110.5 404.5,-129.75"/>
<text text-anchor="middle" x="377.75" y="-116.25" font-family="Helvetica,sans-Serif" font-size="10.00">iostream</text>
</a>
</g>
</g>
<!-- Node1&#45;&gt;Node8 -->
<g id="edge14_Node000001_Node000008" class="edge">
<title>Node1&#45;&gt;Node8</title>
<g id="a_edge14_Node000001_Node000008"><a xlink:title=" ">
<path fill="none" stroke="#63b8ff" d="M461.45,-287.12C484.27,-260.9 525.03,-205 497.75,-165.75 479.49,-139.48 443.83,-128.64 416.11,-124.19"/>
<polygon fill="#63b8ff" stroke="#63b8ff" points="416.66,-120.73 406.28,-122.85 415.72,-127.67 416.66,-120.73"/>
</a>
</g>
</g>
<!-- Node12 -->
<g id="Node000012" class="node">
<title>Node12</title>
<g id="a_Node000012"><a xlink:title=" ">
<polygon fill="#e0e0e0" stroke="#999999" points="576.25,-245.88 533.25,-245.88 533.25,-226.62 576.25,-226.62 576.25,-245.88"/>
<text text-anchor="middle" x="554.75" y="-232.38" font-family="Helvetica,sans-Serif" font-size="10.00">vector</text>
</a>
</g>
</g>
<!-- Node1&#45;&gt;Node12 -->
<g id="edge15_Node000001_Node000012" class="edge">
<title>Node1&#45;&gt;Node12</title>
<g id="a_edge15_Node000001_Node000012"><a xlink:title=" ">
<path fill="none" stroke="#63b8ff" d="M472.03,-287.11C489.45,-276.61 512.84,-262.52 530.3,-251.99"/>
<polygon fill="#63b8ff" stroke="#63b8ff" points="531.75,-255.2 538.51,-247.04 528.14,-249.21 531.75,-255.2"/>
</a>
</g>
</g>
<!-- Node13 -->
<g id="Node000013" class="node">
<title>Node13</title>
<g id="a_Node000013"><a xlink:title=" ">
<polygon fill="#e0e0e0" stroke="#999999" points="671.5,-245.88 594,-245.88 594,-226.62 671.5,-226.62 671.5,-245.88"/>
<text text-anchor="middle" x="632.75" y="-232.38" font-family="Helvetica,sans-Serif" font-size="10.00">unordered_set</text>
</a>
</g>
</g>
<!-- Node1&#45;&gt;Node13 -->
<g id="edge16_Node000001_Node000013" class="edge">
<title>Node1&#45;&gt;Node13</title>
<g id="a_edge16_Node000001_Node000013"><a xlink:title=" ">
<path fill="none" stroke="#63b8ff" d="M489.73,-287.11C521.73,-275.96 565.36,-260.75 595.99,-250.07"/>
<polygon fill="#63b8ff" stroke="#63b8ff" points="596.92,-253.45 605.21,-246.85 594.61,-246.84 596.92,-253.45"/>
</a>
</g>
</g>
<!-- Node14 -->
<g id="Node000014" class="node">
<title>Node14</title>
<g id="a_Node000014"><a xlink:title=" ">
<polygon fill="#e0e0e0" stroke="#999999" points="747.75,-245.88 689.75,-245.88 689.75,-226.62 747.75,-226.62 747.75,-245.88"/>
<text text-anchor="middle" x="718.75" y="-232.38" font-family="Helvetica,sans-Serif" font-size="10.00">functional</text>
</a>
</g>
</g>
<!-- Node1&#45;&gt;Node14 -->
<g id="edge17_Node000001_Node000014" class="edge">
<title>Node1&#45;&gt;Node14</title>
<g id="a_edge17_Node000001_Node000014"><a xlink:title=" ">
<path fill="none" stroke="#63b8ff" d="M496.01,-293.48C543.5,-284.84 617.82,-269.98 680.75,-251.5 682.36,-251.03 683.99,-250.52 685.64,-249.99"/>
<polygon fill="#63b8ff" stroke="#63b8ff" points="686.7,-253.33 695,-246.74 684.4,-246.71 686.7,-253.33"/>
</a>
</g>
</g>
<!-- Node2&#45;&gt;Node3 -->
<g id="edge2_Node000002_Node000003" class="edge">
<title>Node2&#45;&gt;Node3</title>
<g id="a_edge2_Node000002_Node000003"><a xlink:title=" ">
<path fill="none" stroke="#63b8ff" d="M68.31,-110.33C63.09,-103.21 55.56,-92.93 49.06,-84.05"/>
<polygon fill="#63b8ff" stroke="#63b8ff" points="51.96,-82.08 43.22,-76.08 46.31,-86.22 51.96,-82.08"/>
</a>
</g>
</g>
<!-- Node2&#45;&gt;Node5 -->
<g id="edge4_Node000002_Node000005" class="edge">
<title>Node2&#45;&gt;Node5</title>
<g id="a_edge4_Node000002_Node000005"><a xlink:title=" ">
<path fill="none" stroke="#63b8ff" d="M86.62,-110.09C96.84,-102.32 111.82,-90.92 124.01,-81.65"/>
<polygon fill="#63b8ff" stroke="#63b8ff" points="126.01,-84.53 131.85,-75.69 121.77,-78.96 126.01,-84.53"/>
</a>
</g>
</g>
<!-- Node4 -->
<g id="Node000004" class="node">
<title>Node4</title>
<g id="a_Node000004"><a xlink:title=" ">
<polygon fill="#e0e0e0" stroke="#999999" points="58,-19.25 13.5,-19.25 13.5,0 58,0 58,-19.25"/>
<text text-anchor="middle" x="35.75" y="-5.75" font-family="Helvetica,sans-Serif" font-size="10.00">iosfwd</text>
</a>
</g>
</g>
<!-- Node3&#45;&gt;Node4 -->
<g id="edge3_Node000003_Node000004" class="edge">
<title>Node3&#45;&gt;Node4</title>
<g id="a_edge3_Node000003_Node000004"><a xlink:title=" ">
<path fill="none" stroke="#63b8ff" d="M35.75,-55.08C35.75,-48.57 35.75,-39.42 35.75,-31.12"/>
<polygon fill="#63b8ff" stroke="#63b8ff" points="39.25,-31.12 35.75,-21.12 32.25,-31.12 39.25,-31.12"/>
</a>
</g>
</g>
<!-- Node7 -->
<g id="Node000007" class="node">
<title>Node7</title>
<g id="a_Node000007"><a xlink:href="../../d3/d24/primitive__items_8h.html" target="_top" xlink:title=" ">
<polygon fill="white" stroke="#666666" points="254.5,-185 165,-185 165,-165.75 254.5,-165.75 254.5,-185"/>
<text text-anchor="middle" x="209.75" y="-171.5" font-family="Helvetica,sans-Serif" font-size="10.00">primitive_items.h</text>
</a>
</g>
</g>
<!-- Node6&#45;&gt;Node7 -->
<g id="edge7_Node000006_Node000007" class="edge">
<title>Node6&#45;&gt;Node7</title>
<g id="a_edge7_Node000006_Node000007"><a xlink:title=" ">
<path fill="none" stroke="#63b8ff" d="M353.8,-220.55C321.98,-210.79 280.69,-198.13 250.47,-188.86"/>
<polygon fill="#63b8ff" stroke="#63b8ff" points="251.51,-185.52 240.92,-185.93 249.46,-192.21 251.51,-185.52"/>
</a>
</g>
</g>
<!-- Node9 -->
<g id="Node000009" class="node">
<title>Node9</title>
<g id="a_Node000009"><a xlink:title=" ">
<polygon fill="#e0e0e0" stroke="#999999" points="355.12,-185 272.38,-185 272.38,-165.75 355.12,-165.75 355.12,-185"/>
<text text-anchor="middle" x="313.75" y="-171.5" font-family="Helvetica,sans-Serif" font-size="10.00">unordered_map</text>
</a>
</g>
</g>
<!-- Node6&#45;&gt;Node9 -->
<g id="edge11_Node000006_Node000009" class="edge">
<title>Node6&#45;&gt;Node9</title>
<g id="a_edge11_Node000006_Node000009"><a xlink:title=" ">
<path fill="none" stroke="#63b8ff" d="M380,-220.7C366.86,-211.9 350.12,-200.71 336.76,-191.77"/>
<polygon fill="#63b8ff" stroke="#63b8ff" points="338.83,-188.94 328.57,-186.29 334.94,-194.76 338.83,-188.94"/>
</a>
</g>
</g>
<!-- Node10 -->
<g id="Node000010" class="node">
<title>Node10</title>
<g id="a_Node000010"><a xlink:title=" ">
<polygon fill="#e0e0e0" stroke="#999999" points="430.75,-185 372.75,-185 372.75,-165.75 430.75,-165.75 430.75,-185"/>
<text text-anchor="middle" x="401.75" y="-171.5" font-family="Helvetica,sans-Serif" font-size="10.00">stdexcept</text>
</a>
</g>
</g>
<!-- Node6&#45;&gt;Node10 -->
<g id="edge12_Node000006_Node000010" class="edge">
<title>Node6&#45;&gt;Node10</title>
<g id="a_edge12_Node000006_Node000010"><a xlink:title=" ">
<path fill="none" stroke="#63b8ff" d="M401.75,-220.7C401.75,-213.46 401.75,-204.59 401.75,-196.69"/>
<polygon fill="#63b8ff" stroke="#63b8ff" points="405.25,-196.96 401.75,-186.96 398.25,-196.96 405.25,-196.96"/>
</a>
</g>
</g>
<!-- Node11 -->
<g id="Node000011" class="node">
<title>Node11</title>
<g id="a_Node000011"><a xlink:title=" ">
<polygon fill="#e0e0e0" stroke="#999999" points="488.75,-185 448.75,-185 448.75,-165.75 488.75,-165.75 488.75,-185"/>
<text text-anchor="middle" x="468.75" y="-171.5" font-family="Helvetica,sans-Serif" font-size="10.00">string</text>
</a>
</g>
</g>
<!-- Node6&#45;&gt;Node11 -->
<g id="edge13_Node000006_Node000011" class="edge">
<title>Node6&#45;&gt;Node11</title>
<g id="a_edge13_Node000006_Node000011"><a xlink:title=" ">
<path fill="none" stroke="#63b8ff" d="M418.31,-220.7C427.92,-212.25 440.06,-201.58 450.02,-192.83"/>
<polygon fill="#63b8ff" stroke="#63b8ff" points="452.08,-195.68 457.28,-186.45 447.46,-190.42 452.08,-195.68"/>
</a>
</g>
</g>
<!-- Node7&#45;&gt;Node2 -->
<g id="edge8_Node000007_Node000002" class="edge">
<title>Node7&#45;&gt;Node2</title>
<g id="a_edge8_Node000007_Node000002"><a xlink:title=" ">
<path fill="none" stroke="#63b8ff" d="M186.85,-165.34C165.32,-156.85 132.84,-144.04 108.37,-134.39"/>
<polygon fill="#63b8ff" stroke="#63b8ff" points="109.76,-131.17 99.17,-130.76 107.19,-137.68 109.76,-131.17"/>
</a>
</g>
</g>
<!-- Node7&#45;&gt;Node5 -->
<g id="edge10_Node000007_Node000005" class="edge">
<title>Node7&#45;&gt;Node5</title>
<g id="a_edge10_Node000007_Node000005"><a xlink:title=" ">
<path fill="none" stroke="#63b8ff" d="M204.43,-165.5C193.86,-147.85 170.02,-108.05 155.88,-84.45"/>
<polygon fill="#63b8ff" stroke="#63b8ff" points="159.06,-82.95 150.92,-76.18 153.06,-86.55 159.06,-82.95"/>
</a>
</g>
</g>
<!-- Node7&#45;&gt;Node8 -->
<g id="edge9_Node000007_Node000008" class="edge">
<title>Node7&#45;&gt;Node8</title>
<g id="a_edge9_Node000007_Node000008"><a xlink:title=" ">
<path fill="none" stroke="#63b8ff" d="M238.25,-165.34C266.18,-156.49 308.93,-142.94 339.74,-133.17"/>
<polygon fill="#63b8ff" stroke="#63b8ff" points="340.59,-136.58 349.06,-130.22 338.47,-129.9 340.59,-136.58"/>
</a>
</g>
</g>
</g>
</svg>
