<?xml version="1.0" encoding="UTF-8" standalone="no"?>
<!DOCTYPE svg PUBLIC "-//W3C//DTD SVG 1.1//EN"
 "http://www.w3.org/Graphics/SVG/1.1/DTD/svg11.dtd">
<!-- Generated by graphviz version 12.1.2 (20240928.0832)
 -->
<!-- Title: Document Pages: 1 -->
<svg width="383pt" height="333pt"
 viewBox="0.00 0.00 383.00 333.25" xmlns="http://www.w3.org/2000/svg" xmlns:xlink="http://www.w3.org/1999/xlink">
<g id="graph0" class="graph" transform="scale(1 1) rotate(0) translate(4 329.25)">
<title>Document</title>
<!-- Node1 -->
<g id="Node000001" class="node">
<title>Node1</title>
<g id="a_Node000001"><a xlink:title=" ">
<polygon fill="#999999" stroke="none" points="212.5,-214 78.5,-214 78.5,0 212.5,0 212.5,-214"/>
<text text-anchor="start" x="123.38" y="-200.5" font-family="Helvetica,sans-Serif" font-size="10.00">Document</text>
<text text-anchor="start" x="144" y="-185.5" font-family="Helvetica,sans-Serif" font-size="10.00"> </text>
<text text-anchor="start" x="82.5" y="-170.5" font-family="Helvetica,sans-Serif" font-size="10.00">+</text>
<text text-anchor="start" x="92.5" y="-170.5" font-family="Helvetica,sans-Serif" font-size="10.00">read()</text>
<text text-anchor="start" x="82.5" y="-155.5" font-family="Helvetica,sans-Serif" font-size="10.00">+</text>
<text text-anchor="start" x="92.5" y="-155.5" font-family="Helvetica,sans-Serif" font-size="10.00">write()</text>
<text text-anchor="start" x="82.5" y="-140.5" font-family="Helvetica,sans-Serif" font-size="10.00">+</text>
<text text-anchor="start" x="92.5" y="-140.5" font-family="Helvetica,sans-Serif" font-size="10.00">firstItem()</text>
<text text-anchor="start" x="82.5" y="-125.5" font-family="Helvetica,sans-Serif" font-size="10.00">+</text>
<text text-anchor="start" x="92.5" y="-125.5" font-family="Helvetica,sans-Serif" font-size="10.00">endItem()</text>
<text text-anchor="start" x="82.5" y="-110.5" font-family="Helvetica,sans-Serif" font-size="10.00">+</text>
<text text-anchor="start" x="92.5" y="-110.5" font-family="Helvetica,sans-Serif" font-size="10.00">addObserver()</text>
<text text-anchor="start" x="82.5" y="-95.5" font-family="Helvetica,sans-Serif" font-size="10.00">+</text>
<text text-anchor="start" x="92.5" y="-95.5" font-family="Helvetica,sans-Serif" font-size="10.00">addItem()</text>
<text text-anchor="start" x="82.5" y="-80.5" font-family="Helvetica,sans-Serif" font-size="10.00">+</text>
<text text-anchor="start" x="92.5" y="-80.5" font-family="Helvetica,sans-Serif" font-size="10.00">notifyAboutItemChanged()</text>
<text text-anchor="start" x="82.5" y="-65.5" font-family="Helvetica,sans-Serif" font-size="10.00">+</text>
<text text-anchor="start" x="92.5" y="-65.5" font-family="Helvetica,sans-Serif" font-size="10.00">removeItem()</text>
<text text-anchor="start" x="82.88" y="-50.5" font-family="Helvetica,sans-Serif" font-size="10.00">#</text>
<text text-anchor="start" x="92.5" y="-50.5" font-family="Helvetica,sans-Serif" font-size="10.00">onGraphicsItemAdded()</text>
<text text-anchor="start" x="82.88" y="-35.5" font-family="Helvetica,sans-Serif" font-size="10.00">#</text>
<text text-anchor="start" x="92.5" y="-35.5" font-family="Helvetica,sans-Serif" font-size="10.00">onGraphicsItemRemoved()</text>
<text text-anchor="start" x="82.88" y="-20.5" font-family="Helvetica,sans-Serif" font-size="10.00">#</text>
<text text-anchor="start" x="92.5" y="-20.5" font-family="Helvetica,sans-Serif" font-size="10.00">onGraphicsItemModified()</text>
<text text-anchor="start" x="82.88" y="-5.5" font-family="Helvetica,sans-Serif" font-size="10.00">#</text>
<text text-anchor="start" x="92.5" y="-5.5" font-family="Helvetica,sans-Serif" font-size="10.00">notifyAboutItemChanged()</text>
<polygon fill="#666666" stroke="#666666" points="78.5,-197 78.5,-197 212.5,-197 212.5,-197 78.5,-197"/>
<polygon fill="#666666" stroke="#666666" points="78.5,-182 78.5,-182 212.5,-182 212.5,-182 78.5,-182"/>
<polygon fill="none" stroke="#666666" points="78.5,0 78.5,-214 212.5,-214 212.5,0 78.5,0"/>
</a>
</g>
</g>
<!-- Node2 -->
<g id="Node000002" class="node">
<title>Node2</title>
<g id="a_Node000002"><a xlink:href="../../df/d4d/classSerializeble.html" target="_top" xlink:title=" ">
<polygon fill="white" stroke="none" points="59,-325.25 0,-325.25 0,-261.25 59,-261.25 59,-325.25"/>
<text text-anchor="start" x="4.75" y="-311.75" font-family="Helvetica,sans-Serif" font-size="10.00">Serializeble</text>
<text text-anchor="start" x="28" y="-296.75" font-family="Helvetica,sans-Serif" font-size="10.00"> </text>
<text text-anchor="start" x="7.5" y="-281.75" font-family="Helvetica,sans-Serif" font-size="10.00">+</text>
<text text-anchor="start" x="21" y="-281.75" font-family="Helvetica,sans-Serif" font-size="10.00">read()</text>
<text text-anchor="start" x="7.5" y="-266.75" font-family="Helvetica,sans-Serif" font-size="10.00">+</text>
<text text-anchor="start" x="21" y="-266.75" font-family="Helvetica,sans-Serif" font-size="10.00">write()</text>
<polygon fill="#666666" stroke="#666666" points="0,-308.25 0,-308.25 59,-308.25 59,-308.25 0,-308.25"/>
<polygon fill="#666666" stroke="#666666" points="0,-293.25 0,-293.25 59,-293.25 59,-293.25 0,-293.25"/>
<polygon fill="none" stroke="#666666" points="0,-261.25 0,-325.25 59,-325.25 59,-261.25 0,-261.25"/>
</a>
</g>
</g>
<!-- Node2&#45;&gt;Node1 -->
<g id="edge1_Node000001_Node000002" class="edge">
<title>Node2&#45;&gt;Node1</title>
<g id="a_edge1_Node000001_Node000002"><a xlink:title=" ">
<path fill="none" stroke="#63b8ff" d="M55,-251.75C62.23,-240.27 70.46,-227.2 78.93,-213.73"/>
<polygon fill="none" stroke="#63b8ff" points="52.09,-249.8 49.72,-260.13 58.01,-253.53 52.09,-249.8"/>
</a>
</g>
</g>
<!-- Node3 -->
<g id="Node000003" class="node">
<title>Node3</title>
<g id="a_Node000003"><a xlink:title=" ">
<polygon fill="white" stroke="none" points="214,-317.75 77,-317.75 77,-268.75 214,-268.75 214,-317.75"/>
<text text-anchor="start" x="81.75" y="-304.25" font-family="Helvetica,sans-Serif" font-size="10.00">vector&lt; DocumentObserver &gt;</text>
<text text-anchor="start" x="144" y="-289.25" font-family="Helvetica,sans-Serif" font-size="10.00"> </text>
<text text-anchor="start" x="144" y="-274.25" font-family="Helvetica,sans-Serif" font-size="10.00"> </text>
<polygon fill="#666666" stroke="#666666" points="77,-300.75 77,-300.75 214,-300.75 214,-300.75 77,-300.75"/>
<polygon fill="#666666" stroke="#666666" points="77,-285.75 77,-285.75 214,-285.75 214,-285.75 77,-285.75"/>
<polygon fill="none" stroke="#666666" points="77,-268.75 77,-317.75 214,-317.75 214,-268.75 77,-268.75"/>
</a>
</g>
</g>
<!-- Node3&#45;&gt;Node1 -->
<g id="edge2_Node000001_Node000003" class="edge">
<title>Node3&#45;&gt;Node1</title>
<g id="a_edge2_Node000001_Node000003"><a xlink:title=" ">
<path fill="none" stroke="#63b8ff" d="M145.5,-268.91C145.5,-257.45 145.5,-242.69 145.5,-226.77"/>
<polygon fill="none" stroke="#63b8ff" points="145.5,-226.69 141.5,-220.69 145.5,-214.69 149.5,-220.69 145.5,-226.69"/>
</a>
</g>
<text text-anchor="middle" x="170.62" y="-233.75" font-family="Helvetica,sans-Serif" font-size="10.00" fill="grey"> #observers</text>
</g>
<!-- Node4 -->
<g id="Node000004" class="node">
<title>Node4</title>
<g id="a_Node000004"><a xlink:title=" ">
<polygon fill="white" stroke="none" points="375,-323.25 232,-323.25 232,-263.25 375,-263.25 375,-323.25"/>
<text text-anchor="start" x="236.75" y="-309.75" font-family="Helvetica,sans-Serif" font-size="10.00">unordered_set&lt; std</text>
<text text-anchor="start" x="236.75" y="-298.5" font-family="Helvetica,sans-Serif" font-size="10.00">::shared_ptr&lt; GraphicsItem &gt; &gt;</text>
<text text-anchor="start" x="302" y="-283.75" font-family="Helvetica,sans-Serif" font-size="10.00"> </text>
<text text-anchor="start" x="302" y="-268.75" font-family="Helvetica,sans-Serif" font-size="10.00"> </text>
<polygon fill="#666666" stroke="#666666" points="232,-295.25 232,-295.25 375,-295.25 375,-295.25 232,-295.25"/>
<polygon fill="#666666" stroke="#666666" points="232,-280.25 232,-280.25 375,-280.25 375,-280.25 232,-280.25"/>
<polygon fill="none" stroke="#666666" points="232,-263.25 232,-323.25 375,-323.25 375,-263.25 232,-263.25"/>
</a>
</g>
</g>
<!-- Node4&#45;&gt;Node1 -->
<g id="edge3_Node000001_Node000004" class="edge">
<title>Node4&#45;&gt;Node1</title>
<g id="a_edge3_Node000001_Node000004"><a xlink:title=" ">
<path fill="none" stroke="#63b8ff" d="M278.81,-263.46C263.03,-245.05 241.64,-220.11 220.62,-195.6"/>
<polygon fill="none" stroke="#63b8ff" points="220.68,-195.67 213.73,-193.71 212.86,-186.56 219.81,-188.51 220.68,-195.67"/>
</a>
</g>
<text text-anchor="middle" x="295.63" y="-233.75" font-family="Helvetica,sans-Serif" font-size="10.00" fill="grey"> #graphicsItems</text>
</g>
</g>
</svg>
