<?xml version="1.0" encoding="UTF-8" standalone="no"?>
<!DOCTYPE svg PUBLIC "-//W3C//DTD SVG 1.1//EN"
 "http://www.w3.org/Graphics/SVG/1.1/DTD/svg11.dtd">
<!-- Generated by graphviz version 12.1.1 (20240910.0053)
 -->
<!-- Title: lib_sokoban_core/include/sokoban_core/player.hpp Pages: 1 -->
<svg width="468pt" height="152pt"
 viewBox="0.00 0.00 467.62 152.00" xmlns="http://www.w3.org/2000/svg" xmlns:xlink="http://www.w3.org/1999/xlink">
<g id="graph0" class="graph" transform="scale(1 1) rotate(0) translate(4 148)">
<title>lib_sokoban_core/include/sokoban_core/player.hpp</title>
<!-- Node1 -->
<g id="Node000001" class="node">
<title>Node1</title>
<g id="a_Node000001"><a xlink:title=" ">
<polygon fill="#999999" stroke="#666666" points="335.75,-144 208,-144 208,-112 335.75,-112 335.75,-144"/>
<text text-anchor="start" x="216" y="-130.5" font-family="Helvetica,sans-Serif" font-size="10.00">lib_sokoban_core/include</text>
<text text-anchor="middle" x="271.88" y="-118.5" font-family="Helvetica,sans-Serif" font-size="10.00">/sokoban_core/player.hpp</text>
</a>
</g>
</g>
<!-- Node1&#45;&gt;Node1 -->
<g id="edge1_Node000001_Node000001" class="edge">
<title>Node1&#45;&gt;Node1</title>
<g id="a_edge1_Node000001_Node000001"><a xlink:title=" ">
<path fill="none" stroke="#63b8ff" d="M336.06,-138.76C346.55,-137.22 353.75,-133.63 353.75,-128 353.75,-124.66 351.21,-122.03 346.95,-120.13"/>
<polygon fill="#63b8ff" stroke="#63b8ff" points="348.09,-116.81 337.53,-117.63 346.3,-123.58 348.09,-116.81"/>
</a>
</g>
</g>
<!-- Node2 -->
<g id="Node000002" class="node">
<title>Node2</title>
<g id="a_Node000002"><a xlink:href="../../db/d42/json__utils_8hpp.html" target="_top" xlink:title=" ">
<polygon fill="white" stroke="#666666" points="196,-76 75.75,-76 75.75,-56 196,-56 196,-76"/>
<text text-anchor="middle" x="135.88" y="-62.5" font-family="Helvetica,sans-Serif" font-size="10.00">json_utils/json_utils.hpp</text>
</a>
</g>
</g>
<!-- Node1&#45;&gt;Node2 -->
<g id="edge2_Node000001_Node000002" class="edge">
<title>Node1&#45;&gt;Node2</title>
<g id="a_edge2_Node000001_Node000002"><a xlink:title=" ">
<path fill="none" stroke="#63b8ff" d="M236.85,-111.55C215.5,-102.13 188.43,-90.19 167.7,-81.04"/>
<polygon fill="#63b8ff" stroke="#63b8ff" points="169.15,-77.85 158.58,-77.02 166.32,-84.26 169.15,-77.85"/>
</a>
</g>
</g>
<!-- Node4 -->
<g id="Node000004" class="node">
<title>Node4</title>
<g id="a_Node000004"><a xlink:title=" ">
<polygon fill="#e0e0e0" stroke="#999999" points="250.38,-20 189.38,-20 189.38,0 250.38,0 250.38,-20"/>
<text text-anchor="middle" x="219.88" y="-6.5" font-family="Helvetica,sans-Serif" font-size="10.00">filesystem</text>
</a>
</g>
</g>
<!-- Node1&#45;&gt;Node4 -->
<g id="edge8_Node000001_Node000004" class="edge">
<title>Node1&#45;&gt;Node4</title>
<g id="a_edge8_Node000001_Node000004"><a xlink:title=" ">
<path fill="none" stroke="#63b8ff" d="M262.26,-111.75C256.23,-101.81 248.55,-88.41 242.88,-76 236.17,-61.33 230.15,-44.09 225.96,-31.06"/>
<polygon fill="#63b8ff" stroke="#63b8ff" points="229.42,-30.41 223.1,-21.91 222.74,-32.5 229.42,-30.41"/>
</a>
</g>
</g>
<!-- Node6 -->
<g id="Node000006" class="node">
<title>Node6</title>
<g id="a_Node000006"><a xlink:title=" ">
<polygon fill="#e0e0e0" stroke="#999999" points="291.88,-76 251.88,-76 251.88,-56 291.88,-56 291.88,-76"/>
<text text-anchor="middle" x="271.88" y="-62.5" font-family="Helvetica,sans-Serif" font-size="10.00">string</text>
</a>
</g>
</g>
<!-- Node1&#45;&gt;Node6 -->
<g id="edge6_Node000001_Node000006" class="edge">
<title>Node1&#45;&gt;Node6</title>
<g id="a_edge6_Node000001_Node000006"><a xlink:title=" ">
<path fill="none" stroke="#63b8ff" d="M271.88,-111.55C271.88,-104.34 271.88,-95.66 271.88,-87.88"/>
<polygon fill="#63b8ff" stroke="#63b8ff" points="275.38,-87.92 271.88,-77.92 268.38,-87.92 275.38,-87.92"/>
</a>
</g>
</g>
<!-- Node7 -->
<g id="Node000007" class="node">
<title>Node7</title>
<g id="a_Node000007"><a xlink:title=" ">
<polygon fill="#e0e0e0" stroke="#999999" points="387.62,-76 310.12,-76 310.12,-56 387.62,-56 387.62,-76"/>
<text text-anchor="middle" x="348.88" y="-62.5" font-family="Helvetica,sans-Serif" font-size="10.00">unordered_set</text>
</a>
</g>
</g>
<!-- Node1&#45;&gt;Node7 -->
<g id="edge7_Node000001_Node000007" class="edge">
<title>Node1&#45;&gt;Node7</title>
<g id="a_edge7_Node000001_Node000007"><a xlink:title=" ">
<path fill="none" stroke="#63b8ff" d="M291.7,-111.55C302.84,-102.87 316.74,-92.04 328.04,-83.24"/>
<polygon fill="#63b8ff" stroke="#63b8ff" points="329.87,-86.25 335.61,-77.34 325.57,-80.72 329.87,-86.25"/>
</a>
</g>
</g>
<!-- Node8 -->
<g id="Node000008" class="node">
<title>Node8</title>
<g id="a_Node000008"><a xlink:title=" ">
<polygon fill="#e0e0e0" stroke="#999999" points="459.62,-76 406.12,-76 406.12,-56 459.62,-56 459.62,-76"/>
<text text-anchor="middle" x="432.88" y="-62.5" font-family="Helvetica,sans-Serif" font-size="10.00">iostream</text>
</a>
</g>
</g>
<!-- Node1&#45;&gt;Node8 -->
<g id="edge9_Node000001_Node000008" class="edge">
<title>Node1&#45;&gt;Node8</title>
<g id="a_edge9_Node000001_Node000008"><a xlink:title=" ">
<path fill="none" stroke="#63b8ff" d="M313.34,-111.55C339.19,-101.91 372.13,-89.64 396.89,-80.41"/>
<polygon fill="#63b8ff" stroke="#63b8ff" points="398.06,-83.71 406.21,-76.94 395.62,-77.15 398.06,-83.71"/>
</a>
</g>
</g>
<!-- Node3 -->
<g id="Node000003" class="node">
<title>Node3</title>
<g id="a_Node000003"><a xlink:title=" ">
<polygon fill="#e0e0e0" stroke="#999999" points="97.75,-20 0,-20 0,0 97.75,0 97.75,-20"/>
<text text-anchor="middle" x="48.88" y="-6.5" font-family="Helvetica,sans-Serif" font-size="10.00">nlohmann/json.hpp</text>
</a>
</g>
</g>
<!-- Node2&#45;&gt;Node3 -->
<g id="edge3_Node000002_Node000003" class="edge">
<title>Node2&#45;&gt;Node3</title>
<g id="a_edge3_Node000002_Node000003"><a xlink:title=" ">
<path fill="none" stroke="#63b8ff" d="M120.72,-55.59C107.83,-47.59 89.04,-35.93 73.92,-26.54"/>
<polygon fill="#63b8ff" stroke="#63b8ff" points="75.78,-23.58 65.43,-21.28 72.08,-29.53 75.78,-23.58"/>
</a>
</g>
</g>
<!-- Node2&#45;&gt;Node4 -->
<g id="edge4_Node000002_Node000004" class="edge">
<title>Node2&#45;&gt;Node4</title>
<g id="a_edge4_Node000002_Node000004"><a xlink:title=" ">
<path fill="none" stroke="#63b8ff" d="M150.51,-55.59C162.96,-47.59 181.09,-35.93 195.7,-26.54"/>
<polygon fill="#63b8ff" stroke="#63b8ff" points="197.34,-29.65 203.86,-21.3 193.55,-23.76 197.34,-29.65"/>
</a>
</g>
</g>
<!-- Node5 -->
<g id="Node000005" class="node">
<title>Node5</title>
<g id="a_Node000005"><a xlink:title=" ">
<polygon fill="#e0e0e0" stroke="#999999" points="164.38,-20 115.38,-20 115.38,0 164.38,0 164.38,-20"/>
<text text-anchor="middle" x="139.88" y="-6.5" font-family="Helvetica,sans-Serif" font-size="10.00">fstream</text>
</a>
</g>
</g>
<!-- Node2&#45;&gt;Node5 -->
<g id="edge5_Node000002_Node000005" class="edge">
<title>Node2&#45;&gt;Node5</title>
<g id="a_edge5_Node000002_Node000005"><a xlink:title=" ">
<path fill="none" stroke="#63b8ff" d="M136.57,-55.59C137.06,-49.01 137.73,-39.96 138.34,-31.73"/>
<polygon fill="#63b8ff" stroke="#63b8ff" points="141.83,-32.04 139.07,-21.81 134.85,-31.52 141.83,-32.04"/>
</a>
</g>
</g>
</g>
</svg>
