<?xml version="1.0" encoding="UTF-8" standalone="no"?>
<!DOCTYPE svg PUBLIC "-//W3C//DTD SVG 1.1//EN"
 "http://www.w3.org/Graphics/SVG/1.1/DTD/svg11.dtd">
<!-- Generated by graphviz version 12.1.2 (20240928.0832)
 -->
<!-- Title: View Pages: 1 -->
<svg width="204pt" height="243pt"
 viewBox="0.00 0.00 203.50 243.25" xmlns="http://www.w3.org/2000/svg" xmlns:xlink="http://www.w3.org/1999/xlink">

<svg id="main" version="1.1" xmlns="http://www.w3.org/2000/svg" xmlns:xlink="http://www.w3.org/1999/xlink" xml:space="preserve">

<style type="text/css"><![CDATA[
.node, .edge {opacity: 0.7;}
.node.selected, .edge.selected {opacity: 1;}
.edge:hover path { stroke: red; }
.edge:hover polygon { stroke: red; fill: red; }
]]></style>
<script type="application/ecmascript" xlink:href="../../svg.min.js"/>
<svg id="graph" class="graph">
<g id="graph0" class="graph" transform="scale(1 1) rotate(0) translate(4 239.25)">
<title>View</title>
<!-- Node1 -->
<g id="Node000001" class="node">
<title>Node1</title>
<g id="a_Node000001"><a xlink:title=" ">
<polygon fill="#999999" stroke="none" points="142,-109 25,-109 25,0 142,0 142,-109"/>
<text text-anchor="start" x="72.62" y="-95.5" font-family="Helvetica,sans-Serif" font-size="10.00">View</text>
<text text-anchor="start" x="82" y="-80.5" font-family="Helvetica,sans-Serif" font-size="10.00"> </text>
<text text-anchor="start" x="29" y="-65.5" font-family="Helvetica,sans-Serif" font-size="10.00">+</text>
<text text-anchor="start" x="39" y="-65.5" font-family="Helvetica,sans-Serif" font-size="10.00">View()</text>
<text text-anchor="start" x="29" y="-50.5" font-family="Helvetica,sans-Serif" font-size="10.00">+</text>
<text text-anchor="start" x="39" y="-50.5" font-family="Helvetica,sans-Serif" font-size="10.00">View()</text>
<text text-anchor="start" x="29" y="-35.5" font-family="Helvetica,sans-Serif" font-size="10.00">+</text>
<text text-anchor="start" x="39" y="-35.5" font-family="Helvetica,sans-Serif" font-size="10.00">update()</text>
<text text-anchor="start" x="29" y="-20.5" font-family="Helvetica,sans-Serif" font-size="10.00">+</text>
<text text-anchor="start" x="39" y="-20.5" font-family="Helvetica,sans-Serif" font-size="10.00">setDocument()</text>
<text text-anchor="start" x="29.38" y="-5.5" font-family="Helvetica,sans-Serif" font-size="10.00">#</text>
<text text-anchor="start" x="39" y="-5.5" font-family="Helvetica,sans-Serif" font-size="10.00">onDocumentChanged()</text>
<polygon fill="#666666" stroke="#666666" points="25,-92 25,-92 142,-92 142,-92 25,-92"/>
<polygon fill="#666666" stroke="#666666" points="25,-77 25,-77 142,-77 142,-77 25,-77"/>
<polygon fill="none" stroke="#666666" points="25,0 25,-109 142,-109 142,0 25,0"/>
</a>
</g>
</g>
<!-- Node2 -->
<g id="Node000002" class="node">
<title>Node2</title>
<g id="a_Node000002"><a xlink:href="../../dd/ddb/classWidget.html" target="_top" xlink:title=" ">
<polygon fill="white" stroke="none" points="61,-235.25 0,-235.25 0,-156.25 61,-156.25 61,-235.25"/>
<text text-anchor="start" x="15.5" y="-221.75" font-family="Helvetica,sans-Serif" font-size="10.00">Widget</text>
<text text-anchor="start" x="29" y="-206.75" font-family="Helvetica,sans-Serif" font-size="10.00"> </text>
<text text-anchor="start" x="4" y="-191.75" font-family="Helvetica,sans-Serif" font-size="10.00">+</text>
<text text-anchor="start" x="14" y="-191.75" font-family="Helvetica,sans-Serif" font-size="10.00">width()</text>
<text text-anchor="start" x="4" y="-176.75" font-family="Helvetica,sans-Serif" font-size="10.00">+</text>
<text text-anchor="start" x="14" y="-176.75" font-family="Helvetica,sans-Serif" font-size="10.00">height()</text>
<text text-anchor="start" x="4" y="-161.75" font-family="Helvetica,sans-Serif" font-size="10.00">+</text>
<text text-anchor="start" x="14" y="-161.75" font-family="Helvetica,sans-Serif" font-size="10.00">addChild()</text>
<polygon fill="#666666" stroke="#666666" points="0,-218.25 0,-218.25 61,-218.25 61,-218.25 0,-218.25"/>
<polygon fill="#666666" stroke="#666666" points="0,-203.25 0,-203.25 61,-203.25 61,-203.25 0,-203.25"/>
<polygon fill="none" stroke="#666666" points="0,-156.25 0,-235.25 61,-235.25 61,-156.25 0,-156.25"/>
</a>
</g>
</g>
<!-- Node2&#45;&gt;Node1 -->
<g id="edge1_Node000001_Node000002" class="edge">
<title>Node2&#45;&gt;Node1</title>
<g id="a_edge1_Node000001_Node000002"><a xlink:title=" ">
<path fill="none" stroke="#63b8ff" d="M49.17,-145.69C53.7,-133.79 58.57,-121 63.17,-108.91"/>
<polygon fill="none" stroke="#63b8ff" points="45.95,-144.33 45.66,-154.92 52.49,-146.82 45.95,-144.33"/>
</a>
</g>
</g>
<!-- Node3 -->
<g id="Node000003" class="node">
<title>Node3</title>
<g id="a_Node000003"><a xlink:title=" ">
<polygon fill="white" stroke="none" points="195.5,-220.25 79.5,-220.25 79.5,-171.25 195.5,-171.25 195.5,-220.25"/>
<text text-anchor="start" x="84.25" y="-206.75" font-family="Helvetica,sans-Serif" font-size="10.00">shared_ptr&lt; Document &gt;</text>
<text text-anchor="start" x="136" y="-191.75" font-family="Helvetica,sans-Serif" font-size="10.00"> </text>
<text text-anchor="start" x="136" y="-176.75" font-family="Helvetica,sans-Serif" font-size="10.00"> </text>
<polygon fill="#666666" stroke="#666666" points="79.5,-203.25 79.5,-203.25 195.5,-203.25 195.5,-203.25 79.5,-203.25"/>
<polygon fill="#666666" stroke="#666666" points="79.5,-188.25 79.5,-188.25 195.5,-188.25 195.5,-188.25 79.5,-188.25"/>
<polygon fill="none" stroke="#666666" points="79.5,-171.25 79.5,-220.25 195.5,-220.25 195.5,-171.25 79.5,-171.25"/>
</a>
</g>
</g>
<!-- Node3&#45;&gt;Node1 -->
<g id="edge2_Node000001_Node000003" class="edge">
<title>Node3&#45;&gt;Node1</title>
<g id="a_edge2_Node000001_Node000003"><a xlink:title=" ">
<path fill="none" stroke="#63b8ff" d="M128.46,-171.44C123.07,-157.54 115.93,-139.12 108.93,-121.07"/>
<polygon fill="none" stroke="#63b8ff" points="108.91,-121.03 103.01,-116.88 104.57,-109.84 110.47,-113.99 108.91,-121.03"/>
</a>
</g>
<text text-anchor="middle" x="143.09" y="-128.75" font-family="Helvetica,sans-Serif" font-size="10.00" fill="grey"> #document_</text>
</g>
</g>
</svg>
</svg>

<style type='text/css'>
<![CDATA[
[data-mouse-over-selected='false'] { opacity: 0.7; }
[data-mouse-over-selected='true']  { opacity: 1.0; }
]]>
</style>
<script type="application/ecmascript"><![CDATA[
document.addEventListener('DOMContentLoaded', (event) => {
  highlightEdges();
  highlightAdjacentNodes();
});
]]></script>
</svg>
