<?xml version="1.0" encoding="UTF-8" standalone="no"?>
<!DOCTYPE svg PUBLIC "-//W3C//DTD SVG 1.1//EN"
 "http://www.w3.org/Graphics/SVG/1.1/DTD/svg11.dtd">
<!-- Generated by graphviz version 12.1.1 (20240910.0053)
 -->
<!-- Title: lib_sokoban_core/include/tui/console_linux.hpp Pages: 1 -->
<svg width="759pt" height="164pt"
 viewBox="0.00 0.00 758.75 164.00" xmlns="http://www.w3.org/2000/svg" xmlns:xlink="http://www.w3.org/1999/xlink">
<g id="graph0" class="graph" transform="scale(1 1) rotate(0) translate(4 160)">
<title>lib_sokoban_core/include/tui/console_linux.hpp</title>
<!-- Node1 -->
<g id="Node000001" class="node">
<title>Node1</title>
<g id="a_Node000001"><a xlink:title=" ">
<polygon fill="#999999" stroke="#666666" points="463,-156 337.5,-156 337.5,-124 463,-124 463,-156"/>
<text text-anchor="start" x="345.5" y="-142.5" font-family="Helvetica,sans-Serif" font-size="10.00">lib_sokoban_core/include</text>
<text text-anchor="middle" x="400.25" y="-130.5" font-family="Helvetica,sans-Serif" font-size="10.00">/tui/console_linux.hpp</text>
</a>
</g>
</g>
<!-- Node2 -->
<g id="Node000002" class="node">
<title>Node2</title>
<g id="a_Node000002"><a xlink:href="../../dd/d90/system_8hpp.html" target="_top" xlink:title=" ">
<polygon fill="white" stroke="#666666" points="176.62,-82 45.88,-82 45.88,-62 176.62,-62 176.62,-82"/>
<text text-anchor="middle" x="111.25" y="-68.5" font-family="Helvetica,sans-Serif" font-size="10.00">sokoban_core/system.hpp</text>
</a>
</g>
</g>
<!-- Node1&#45;&gt;Node2 -->
<g id="edge1_Node000001_Node000002" class="edge">
<title>Node1&#45;&gt;Node2</title>
<g id="a_edge1_Node000001_Node000002"><a xlink:title=" ">
<path fill="none" stroke="#63b8ff" d="M337.18,-124.6C285.26,-112.74 212.5,-96.12 163.72,-84.98"/>
<polygon fill="#63b8ff" stroke="#63b8ff" points="164.78,-81.63 154.25,-82.82 163.22,-88.46 164.78,-81.63"/>
</a>
</g>
</g>
<!-- Node3 -->
<g id="Node000003" class="node">
<title>Node3</title>
<g id="a_Node000003"><a xlink:title=" ">
<polygon fill="#e0e0e0" stroke="#999999" points="56.5,-20 0,-20 0,0 56.5,0 56.5,-20"/>
<text text-anchor="middle" x="28.25" y="-6.5" font-family="Helvetica,sans-Serif" font-size="10.00">termios.h</text>
</a>
</g>
</g>
<!-- Node1&#45;&gt;Node3 -->
<g id="edge12_Node000001_Node000003" class="edge">
<title>Node1&#45;&gt;Node3</title>
<g id="a_edge12_Node000001_Node000003"><a xlink:title=" ">
<path fill="none" stroke="#63b8ff" d="M337.32,-139.07C244.58,-137.75 77.78,-129.48 37.25,-88 22.95,-73.36 22.46,-48.94 24.42,-31.52"/>
<polygon fill="#63b8ff" stroke="#63b8ff" points="27.86,-32.23 25.9,-21.82 20.94,-31.18 27.86,-32.23"/>
</a>
</g>
</g>
<!-- Node5 -->
<g id="Node000005" class="node">
<title>Node5</title>
<g id="a_Node000005"><a xlink:href="../../d7/dff/key__definitions__linux_8hpp.html" target="_top" xlink:title=" ">
<polygon fill="white" stroke="#666666" points="289.62,-88 194.88,-88 194.88,-56 289.62,-56 289.62,-88"/>
<text text-anchor="start" x="202.88" y="-74.5" font-family="Helvetica,sans-Serif" font-size="10.00">tui/key_definitions</text>
<text text-anchor="middle" x="242.25" y="-62.5" font-family="Helvetica,sans-Serif" font-size="10.00">_linux.hpp</text>
</a>
</g>
</g>
<!-- Node1&#45;&gt;Node5 -->
<g id="edge4_Node000001_Node000005" class="edge">
<title>Node1&#45;&gt;Node5</title>
<g id="a_edge4_Node000001_Node000005"><a xlink:title=" ">
<path fill="none" stroke="#63b8ff" d="M363.21,-123.53C341.3,-114.37 313.32,-102.69 289.79,-92.86"/>
<polygon fill="#63b8ff" stroke="#63b8ff" points="291.31,-89.7 280.73,-89.07 288.61,-96.16 291.31,-89.7"/>
</a>
</g>
</g>
<!-- Node6 -->
<g id="Node000006" class="node">
<title>Node6</title>
<g id="a_Node000006"><a xlink:title=" ">
<polygon fill="#e0e0e0" stroke="#999999" points="301.88,-20 256.62,-20 256.62,0 301.88,0 301.88,-20"/>
<text text-anchor="middle" x="279.25" y="-6.5" font-family="Helvetica,sans-Serif" font-size="10.00">cstdint</text>
</a>
</g>
</g>
<!-- Node1&#45;&gt;Node6 -->
<g id="edge13_Node000001_Node000006" class="edge">
<title>Node1&#45;&gt;Node6</title>
<g id="a_edge13_Node000001_Node000006"><a xlink:title=" ">
<path fill="none" stroke="#63b8ff" d="M378.02,-123.54C365.13,-114.04 348.98,-101.19 336.25,-88 318.63,-69.74 301.76,-45.89 291.01,-29.61"/>
<polygon fill="#63b8ff" stroke="#63b8ff" points="294.08,-27.9 285.71,-21.4 288.2,-31.7 294.08,-27.9"/>
</a>
</g>
</g>
<!-- Node7 -->
<g id="Node000007" class="node">
<title>Node7</title>
<g id="a_Node000007"><a xlink:title=" ">
<polygon fill="#e0e0e0" stroke="#999999" points="390.88,-82 345.62,-82 345.62,-62 390.88,-62 390.88,-82"/>
<text text-anchor="middle" x="368.25" y="-68.5" font-family="Helvetica,sans-Serif" font-size="10.00">stdio.h</text>
</a>
</g>
</g>
<!-- Node1&#45;&gt;Node7 -->
<g id="edge6_Node000001_Node000007" class="edge">
<title>Node1&#45;&gt;Node7</title>
<g id="a_edge6_Node000001_Node000007"><a xlink:title=" ">
<path fill="none" stroke="#63b8ff" d="M392.83,-123.69C388.32,-114.4 382.52,-102.44 377.69,-92.47"/>
<polygon fill="#63b8ff" stroke="#63b8ff" points="380.94,-91.15 373.43,-83.68 374.64,-94.2 380.94,-91.15"/>
</a>
</g>
</g>
<!-- Node8 -->
<g id="Node000008" class="node">
<title>Node8</title>
<g id="a_Node000008"><a xlink:title=" ">
<polygon fill="#e0e0e0" stroke="#999999" points="456,-82 408.5,-82 408.5,-62 456,-62 456,-82"/>
<text text-anchor="middle" x="432.25" y="-68.5" font-family="Helvetica,sans-Serif" font-size="10.00">stdlib.h</text>
</a>
</g>
</g>
<!-- Node1&#45;&gt;Node8 -->
<g id="edge7_Node000001_Node000008" class="edge">
<title>Node1&#45;&gt;Node8</title>
<g id="a_edge7_Node000001_Node000008"><a xlink:title=" ">
<path fill="none" stroke="#63b8ff" d="M407.67,-123.69C412.18,-114.4 417.98,-102.44 422.81,-92.47"/>
<polygon fill="#63b8ff" stroke="#63b8ff" points="425.86,-94.2 427.07,-83.68 419.56,-91.15 425.86,-94.2"/>
</a>
</g>
</g>
<!-- Node9 -->
<g id="Node000009" class="node">
<title>Node9</title>
<g id="a_Node000009"><a xlink:title=" ">
<polygon fill="#e0e0e0" stroke="#999999" points="536.12,-82 474.38,-82 474.38,-62 536.12,-62 536.12,-82"/>
<text text-anchor="middle" x="505.25" y="-68.5" font-family="Helvetica,sans-Serif" font-size="10.00">sys/time.h</text>
</a>
</g>
</g>
<!-- Node1&#45;&gt;Node9 -->
<g id="edge8_Node000001_Node000009" class="edge">
<title>Node1&#45;&gt;Node9</title>
<g id="a_edge8_Node000001_Node000009"><a xlink:title=" ">
<path fill="none" stroke="#63b8ff" d="M424.87,-123.53C441.63,-112.99 463.74,-99.09 480.53,-88.54"/>
<polygon fill="#63b8ff" stroke="#63b8ff" points="482.31,-91.55 488.92,-83.27 478.59,-85.62 482.31,-91.55"/>
</a>
</g>
</g>
<!-- Node10 -->
<g id="Node000010" class="node">
<title>Node10</title>
<g id="a_Node000010"><a xlink:title=" ">
<polygon fill="#e0e0e0" stroke="#999999" points="620.75,-82 553.75,-82 553.75,-62 620.75,-62 620.75,-82"/>
<text text-anchor="middle" x="587.25" y="-68.5" font-family="Helvetica,sans-Serif" font-size="10.00">sys/types.h</text>
</a>
</g>
</g>
<!-- Node1&#45;&gt;Node10 -->
<g id="edge9_Node000001_Node000010" class="edge">
<title>Node1&#45;&gt;Node10</title>
<g id="a_edge9_Node000001_Node000010"><a xlink:title=" ">
<path fill="none" stroke="#63b8ff" d="M444.37,-123.54C473.11,-113.46 511.42,-99.99 545.25,-88 547.01,-87.38 548.8,-86.74 550.62,-86.09"/>
<polygon fill="#63b8ff" stroke="#63b8ff" points="551.37,-89.54 559.62,-82.89 549.02,-82.95 551.37,-89.54"/>
</a>
</g>
</g>
<!-- Node11 -->
<g id="Node000011" class="node">
<title>Node11</title>
<g id="a_Node000011"><a xlink:title=" ">
<polygon fill="#e0e0e0" stroke="#999999" points="689.5,-82 639,-82 639,-62 689.5,-62 689.5,-82"/>
<text text-anchor="middle" x="664.25" y="-68.5" font-family="Helvetica,sans-Serif" font-size="10.00">unistd.h</text>
</a>
</g>
</g>
<!-- Node1&#45;&gt;Node11 -->
<g id="edge10_Node000001_Node000011" class="edge">
<title>Node1&#45;&gt;Node11</title>
<g id="a_edge10_Node000001_Node000011"><a xlink:title=" ">
<path fill="none" stroke="#63b8ff" d="M463.13,-128.52C509.88,-119.9 574.87,-106.16 630.25,-88 631.59,-87.56 632.96,-87.08 634.33,-86.58"/>
<polygon fill="#63b8ff" stroke="#63b8ff" points="635.36,-89.94 643.33,-82.96 632.74,-83.45 635.36,-89.94"/>
</a>
</g>
</g>
<!-- Node12 -->
<g id="Node000012" class="node">
<title>Node12</title>
<g id="a_Node000012"><a xlink:title=" ">
<polygon fill="#e0e0e0" stroke="#999999" points="750.75,-82 707.75,-82 707.75,-62 750.75,-62 750.75,-82"/>
<text text-anchor="middle" x="729.25" y="-68.5" font-family="Helvetica,sans-Serif" font-size="10.00">fcntl.h</text>
</a>
</g>
</g>
<!-- Node1&#45;&gt;Node12 -->
<g id="edge11_Node000001_Node000012" class="edge">
<title>Node1&#45;&gt;Node12</title>
<g id="a_edge11_Node000001_Node000012"><a xlink:title=" ">
<path fill="none" stroke="#63b8ff" d="M463.4,-133.39C524.57,-126.76 619.4,-113.27 698.25,-88 699.39,-87.64 700.54,-87.24 701.69,-86.81"/>
<polygon fill="#63b8ff" stroke="#63b8ff" points="702.68,-90.19 710.51,-83.05 699.94,-83.75 702.68,-90.19"/>
</a>
</g>
</g>
<!-- Node2&#45;&gt;Node3 -->
<g id="edge2_Node000002_Node000003" class="edge">
<title>Node2&#45;&gt;Node3</title>
<g id="a_edge2_Node000002_Node000003"><a xlink:title=" ">
<path fill="none" stroke="#63b8ff" d="M98.28,-61.62C85.49,-52.38 65.69,-38.07 50.4,-27.01"/>
<polygon fill="#63b8ff" stroke="#63b8ff" points="52.51,-24.22 42.35,-21.2 48.41,-29.89 52.51,-24.22"/>
</a>
</g>
</g>
<!-- Node4 -->
<g id="Node000004" class="node">
<title>Node4</title>
<g id="a_Node000004"><a xlink:title=" ">
<polygon fill="#e0e0e0" stroke="#999999" points="138,-20 84.5,-20 84.5,0 138,0 138,-20"/>
<text text-anchor="middle" x="111.25" y="-6.5" font-family="Helvetica,sans-Serif" font-size="10.00">iostream</text>
</a>
</g>
</g>
<!-- Node2&#45;&gt;Node4 -->
<g id="edge3_Node000002_Node000004" class="edge">
<title>Node2&#45;&gt;Node4</title>
<g id="a_edge3_Node000002_Node000004"><a xlink:title=" ">
<path fill="none" stroke="#63b8ff" d="M111.25,-61.62C111.25,-53.56 111.25,-41.65 111.25,-31.41"/>
<polygon fill="#63b8ff" stroke="#63b8ff" points="114.75,-31.63 111.25,-21.63 107.75,-31.63 114.75,-31.63"/>
</a>
</g>
</g>
<!-- Node5&#45;&gt;Node6 -->
<g id="edge5_Node000005_Node000006" class="edge">
<title>Node5&#45;&gt;Node6</title>
<g id="a_edge5_Node000005_Node000006"><a xlink:title=" ">
<path fill="none" stroke="#63b8ff" d="M251.78,-55.55C256.6,-47.74 262.48,-38.19 267.57,-29.94"/>
<polygon fill="#63b8ff" stroke="#63b8ff" points="270.38,-32.05 272.65,-21.7 264.43,-28.37 270.38,-32.05"/>
</a>
</g>
</g>
</g>
</svg>
