<?xml version="1.0" encoding="UTF-8" standalone="no"?>
<!DOCTYPE svg PUBLIC "-//W3C//DTD SVG 1.1//EN"
 "http://www.w3.org/Graphics/SVG/1.1/DTD/svg11.dtd">
<!-- Generated by graphviz version 12.1.1 (20240910.0053)
 -->
<!-- Title: lib_sokoban_core/include/sokoban_core/tile.hpp Pages: 1 -->
<svg width="264pt" height="208pt"
 viewBox="0.00 0.00 264.25 208.00" xmlns="http://www.w3.org/2000/svg" xmlns:xlink="http://www.w3.org/1999/xlink">
<g id="graph0" class="graph" transform="scale(1 1) rotate(0) translate(4 204)">
<title>lib_sokoban_core/include/sokoban_core/tile.hpp</title>
<!-- Node1 -->
<g id="Node000001" class="node">
<title>Node1</title>
<g id="a_Node000001"><a xlink:title=" ">
<polygon fill="#999999" stroke="#666666" points="256.25,-200 130.75,-200 130.75,-168 256.25,-168 256.25,-200"/>
<text text-anchor="start" x="138.75" y="-186.5" font-family="Helvetica,sans-Serif" font-size="10.00">lib_sokoban_core/include</text>
<text text-anchor="middle" x="193.5" y="-174.5" font-family="Helvetica,sans-Serif" font-size="10.00">/sokoban_core/tile.hpp</text>
</a>
</g>
</g>
<!-- Node2 -->
<g id="Node000002" class="node">
<title>Node2</title>
<g id="a_Node000002"><a xlink:href="../../d4/d42/game__object_8hpp.html" target="_top" xlink:title=" ">
<polygon fill="white" stroke="#666666" points="165.62,-132 75.38,-132 75.38,-112 165.62,-112 165.62,-132"/>
<text text-anchor="middle" x="120.5" y="-118.5" font-family="Helvetica,sans-Serif" font-size="10.00">game_object.hpp</text>
</a>
</g>
</g>
<!-- Node1&#45;&gt;Node2 -->
<g id="edge1_Node000001_Node000002" class="edge">
<title>Node1&#45;&gt;Node2</title>
<g id="a_edge1_Node000001_Node000002"><a xlink:title=" ">
<path fill="none" stroke="#63b8ff" d="M174.7,-167.55C164.25,-158.95 151.23,-148.26 140.58,-139.5"/>
<polygon fill="#63b8ff" stroke="#63b8ff" points="143.06,-137.01 133.12,-133.37 138.62,-142.42 143.06,-137.01"/>
</a>
</g>
</g>
<!-- Node5 -->
<g id="Node000005" class="node">
<title>Node5</title>
<g id="a_Node000005"><a xlink:title=" ">
<polygon fill="#e0e0e0" stroke="#999999" points="157.12,-20 105.88,-20 105.88,0 157.12,0 157.12,-20"/>
<text text-anchor="middle" x="131.5" y="-6.5" font-family="Helvetica,sans-Serif" font-size="10.00">memory</text>
</a>
</g>
</g>
<!-- Node1&#45;&gt;Node5 -->
<g id="edge8_Node000001_Node000005" class="edge">
<title>Node1&#45;&gt;Node5</title>
<g id="a_edge8_Node000001_Node000005"><a xlink:title=" ">
<path fill="none" stroke="#63b8ff" d="M201.7,-167.72C213.97,-142.59 233.53,-91.74 212.5,-56 202.8,-39.51 184.62,-28.63 167.95,-21.7"/>
<polygon fill="#63b8ff" stroke="#63b8ff" points="169.32,-18.48 158.72,-18.24 166.85,-25.03 169.32,-18.48"/>
</a>
</g>
</g>
<!-- Node6 -->
<g id="Node000006" class="node">
<title>Node6</title>
<g id="a_Node000006"><a xlink:title=" ">
<polygon fill="#e0e0e0" stroke="#999999" points="203,-76 160,-76 160,-56 203,-56 203,-76"/>
<text text-anchor="middle" x="181.5" y="-62.5" font-family="Helvetica,sans-Serif" font-size="10.00">vector</text>
</a>
</g>
</g>
<!-- Node1&#45;&gt;Node6 -->
<g id="edge7_Node000001_Node000006" class="edge">
<title>Node1&#45;&gt;Node6</title>
<g id="a_edge7_Node000001_Node000006"><a xlink:title=" ">
<path fill="none" stroke="#63b8ff" d="M191.93,-167.84C189.81,-147.32 186.01,-110.63 183.63,-87.62"/>
<polygon fill="#63b8ff" stroke="#63b8ff" points="187.14,-87.53 182.63,-77.94 180.18,-88.25 187.14,-87.53"/>
</a>
</g>
</g>
<!-- Node3 -->
<g id="Node000003" class="node">
<title>Node3</title>
<g id="a_Node000003"><a xlink:href="../../d3/d3e/game__object__id_8hpp.html" target="_top" xlink:title=" ">
<polygon fill="white" stroke="#666666" points="103,-76 0,-76 0,-56 103,-56 103,-76"/>
<text text-anchor="middle" x="51.5" y="-62.5" font-family="Helvetica,sans-Serif" font-size="10.00">game_object_id.hpp</text>
</a>
</g>
</g>
<!-- Node2&#45;&gt;Node3 -->
<g id="edge2_Node000002_Node000003" class="edge">
<title>Node2&#45;&gt;Node3</title>
<g id="a_edge2_Node000002_Node000003"><a xlink:title=" ">
<path fill="none" stroke="#63b8ff" d="M108.48,-111.59C98.49,-103.77 84.04,-92.46 72.19,-83.19"/>
<polygon fill="#63b8ff" stroke="#63b8ff" points="74.61,-80.64 64.57,-77.23 70.29,-86.15 74.61,-80.64"/>
</a>
</g>
</g>
<!-- Node2&#45;&gt;Node5 -->
<g id="edge5_Node000002_Node000005" class="edge">
<title>Node2&#45;&gt;Node5</title>
<g id="a_edge5_Node000002_Node000005"><a xlink:title=" ">
<path fill="none" stroke="#63b8ff" d="M121.44,-111.62C123.2,-94.01 127.04,-55.59 129.43,-31.65"/>
<polygon fill="#63b8ff" stroke="#63b8ff" points="132.9,-32.16 130.41,-21.86 125.94,-31.46 132.9,-32.16"/>
</a>
</g>
</g>
<!-- Node2&#45;&gt;Node6 -->
<g id="edge6_Node000002_Node000006" class="edge">
<title>Node2&#45;&gt;Node6</title>
<g id="a_edge6_Node000002_Node000006"><a xlink:title=" ">
<path fill="none" stroke="#63b8ff" d="M131.13,-111.59C139.78,-103.93 152.23,-92.91 162.58,-83.75"/>
<polygon fill="#63b8ff" stroke="#63b8ff" points="164.7,-86.55 169.86,-77.3 160.06,-81.31 164.7,-86.55"/>
</a>
</g>
</g>
<!-- Node4 -->
<g id="Node000004" class="node">
<title>Node4</title>
<g id="a_Node000004"><a xlink:title=" ">
<polygon fill="#e0e0e0" stroke="#999999" points="71.5,-20 31.5,-20 31.5,0 71.5,0 71.5,-20"/>
<text text-anchor="middle" x="51.5" y="-6.5" font-family="Helvetica,sans-Serif" font-size="10.00">string</text>
</a>
</g>
</g>
<!-- Node3&#45;&gt;Node4 -->
<g id="edge3_Node000003_Node000004" class="edge">
<title>Node3&#45;&gt;Node4</title>
<g id="a_edge3_Node000003_Node000004"><a xlink:title=" ">
<path fill="none" stroke="#63b8ff" d="M51.5,-55.59C51.5,-49.01 51.5,-39.96 51.5,-31.73"/>
<polygon fill="#63b8ff" stroke="#63b8ff" points="55,-31.81 51.5,-21.81 48,-31.81 55,-31.81"/>
</a>
</g>
</g>
<!-- Node3&#45;&gt;Node5 -->
<g id="edge4_Node000003_Node000005" class="edge">
<title>Node3&#45;&gt;Node5</title>
<g id="a_edge4_Node000003_Node000005"><a xlink:title=" ">
<path fill="none" stroke="#63b8ff" d="M65.43,-55.59C77.18,-47.67 94.23,-36.16 108.07,-26.82"/>
<polygon fill="#63b8ff" stroke="#63b8ff" points="109.87,-29.82 116.2,-21.33 105.96,-24.02 109.87,-29.82"/>
</a>
</g>
</g>
</g>
</svg>
