<?xml version="1.0" encoding="UTF-8" standalone="no"?>
<!DOCTYPE svg PUBLIC "-//W3C//DTD SVG 1.1//EN"
 "http://www.w3.org/Graphics/SVG/1.1/DTD/svg11.dtd">
<!-- Generated by graphviz version 12.1.2 (20240928.0832)
 -->
<!-- Title: editor_lib/include/editor/graphics_item.h Pages: 1 -->
<svg width="329pt" height="382pt"
 viewBox="0.00 0.00 329.04 382.25" xmlns="http://www.w3.org/2000/svg" xmlns:xlink="http://www.w3.org/1999/xlink">
<g id="graph0" class="graph" transform="scale(1 1) rotate(0) translate(4 378.25)">
<title>editor_lib/include/editor/graphics_item.h</title>
<!-- Node1 -->
<g id="Node000001" class="node">
<title>Node1</title>
<g id="a_Node000001"><a xlink:title=" ">
<polygon fill="#999999" stroke="#666666" points="234,-374.25 119.75,-374.25 119.75,-343.75 234,-343.75 234,-374.25"/>
<text text-anchor="start" x="127.75" y="-360.75" font-family="Helvetica,sans-Serif" font-size="10.00">editor_lib/include</text>
<text text-anchor="middle" x="176.88" y="-349.5" font-family="Helvetica,sans-Serif" font-size="10.00">/editor/graphics_item.h</text>
</a>
</g>
</g>
<!-- Node2 -->
<g id="Node000002" class="node">
<title>Node2</title>
<g id="a_Node000002"><a xlink:href="../../db/df5/document_8h.html" target="_top" xlink:title=" ">
<polygon fill="white" stroke="#666666" points="181,-163.5 84.75,-163.5 84.75,-133 181,-133 181,-163.5"/>
<text text-anchor="start" x="92.75" y="-150" font-family="Helvetica,sans-Serif" font-size="10.00">editor_lib/include</text>
<text text-anchor="middle" x="132.88" y="-138.75" font-family="Helvetica,sans-Serif" font-size="10.00">/editor/document.h</text>
</a>
</g>
</g>
<!-- Node1&#45;&gt;Node2 -->
<g id="edge1_Node000001_Node000002" class="edge">
<title>Node1&#45;&gt;Node2</title>
<g id="a_edge1_Node000001_Node000002"><a xlink:title=" ">
<path fill="none" stroke="#63b8ff" d="M162.6,-333.51C158.52,-325.53 154.48,-316.48 151.88,-307.75 136.48,-256.24 133.5,-191.77 132.97,-163.57"/>
<polygon fill="#63b8ff" stroke="#63b8ff" points="159.49,-335.13 167.33,-342.27 165.65,-331.8 159.49,-335.13"/>
</a>
</g>
</g>
<!-- Node6 -->
<g id="Node000006" class="node">
<title>Node6</title>
<g id="a_Node000006"><a xlink:href="../../d3/d24/primitive__items_8h.html" target="_top" xlink:title=" ">
<polygon fill="white" stroke="#666666" points="280.62,-307.75 161.12,-307.75 161.12,-277.25 280.62,-277.25 280.62,-307.75"/>
<text text-anchor="start" x="169.12" y="-294.25" font-family="Helvetica,sans-Serif" font-size="10.00">editor_lib/include</text>
<text text-anchor="middle" x="220.88" y="-283" font-family="Helvetica,sans-Serif" font-size="10.00">/editor/primitive_items.h</text>
</a>
</g>
</g>
<!-- Node1&#45;&gt;Node6 -->
<g id="edge6_Node000001_Node000006" class="edge">
<title>Node1&#45;&gt;Node6</title>
<g id="a_edge6_Node000001_Node000006"><a xlink:title=" ">
<path fill="none" stroke="#63b8ff" d="M193.22,-334.04C199.17,-325.32 205.7,-315.74 210.93,-308.08"/>
<polygon fill="#63b8ff" stroke="#63b8ff" points="190.46,-331.88 187.71,-342.11 196.24,-335.83 190.46,-331.88"/>
</a>
</g>
</g>
<!-- Node3 -->
<g id="Node000003" class="node">
<title>Node3</title>
<g id="a_Node000003"><a xlink:href="../../da/de3/add__graphics__item__command_8h.html" target="_top" xlink:title=" ">
<polygon fill="white" stroke="#666666" points="103.75,-97 0,-97 0,-55.25 103.75,-55.25 103.75,-97"/>
<text text-anchor="start" x="8" y="-83.5" font-family="Helvetica,sans-Serif" font-size="10.00">editor_lib/include</text>
<text text-anchor="start" x="8" y="-72.25" font-family="Helvetica,sans-Serif" font-size="10.00">/editor/add_graphics</text>
<text text-anchor="middle" x="51.88" y="-61" font-family="Helvetica,sans-Serif" font-size="10.00">_item_command.h</text>
</a>
</g>
</g>
<!-- Node2&#45;&gt;Node3 -->
<g id="edge2_Node000002_Node000003" class="edge">
<title>Node2&#45;&gt;Node3</title>
<g id="a_edge2_Node000002_Node000003"><a xlink:title=" ">
<path fill="none" stroke="#63b8ff" d="M107.54,-125.31C97.27,-116.42 85.47,-106.21 75.39,-97.49"/>
<polygon fill="#63b8ff" stroke="#63b8ff" points="105.1,-127.83 114.95,-131.73 109.68,-122.54 105.1,-127.83"/>
</a>
</g>
</g>
<!-- Node4 -->
<g id="Node000004" class="node">
<title>Node4</title>
<g id="a_Node000004"><a xlink:href="../../df/d0a/main_8cpp.html" target="_top" xlink:title=" ">
<polygon fill="white" stroke="#666666" points="167.62,-19.25 96.12,-19.25 96.12,0 167.62,0 167.62,-19.25"/>
<text text-anchor="middle" x="131.88" y="-5.75" font-family="Helvetica,sans-Serif" font-size="10.00">src/main.cpp</text>
</a>
</g>
</g>
<!-- Node2&#45;&gt;Node4 -->
<g id="edge5_Node000002_Node000004" class="edge">
<title>Node2&#45;&gt;Node4</title>
<g id="a_edge5_Node000002_Node000004"><a xlink:title=" ">
<path fill="none" stroke="#63b8ff" d="M132.69,-121.4C132.46,-90.33 132.09,-39.85 131.94,-19.52"/>
<polygon fill="#63b8ff" stroke="#63b8ff" points="129.18,-121.14 132.76,-131.12 136.18,-121.09 129.18,-121.14"/>
</a>
</g>
</g>
<!-- Node5 -->
<g id="Node000005" class="node">
<title>Node5</title>
<g id="a_Node000005"><a xlink:href="../../d9/d02/remove__graphics__item__command_8h.html" target="_top" xlink:title=" ">
<polygon fill="white" stroke="#666666" points="280,-97 159.75,-97 159.75,-55.25 280,-55.25 280,-97"/>
<text text-anchor="start" x="167.75" y="-83.5" font-family="Helvetica,sans-Serif" font-size="10.00">editor_lib/include</text>
<text text-anchor="start" x="167.75" y="-72.25" font-family="Helvetica,sans-Serif" font-size="10.00">/editor/remove_graphics</text>
<text text-anchor="middle" x="219.88" y="-61" font-family="Helvetica,sans-Serif" font-size="10.00">_item_command.h</text>
</a>
</g>
</g>
<!-- Node2&#45;&gt;Node5 -->
<g id="edge4_Node000002_Node000005" class="edge">
<title>Node2&#45;&gt;Node5</title>
<g id="a_edge4_Node000002_Node000005"><a xlink:title=" ">
<path fill="none" stroke="#63b8ff" d="M159.76,-125.58C170.87,-116.63 183.68,-106.3 194.61,-97.49"/>
<polygon fill="#63b8ff" stroke="#63b8ff" points="157.67,-122.77 152.08,-131.77 162.06,-128.22 157.67,-122.77"/>
</a>
</g>
</g>
<!-- Node3&#45;&gt;Node4 -->
<g id="edge3_Node000003_Node000004" class="edge">
<title>Node3&#45;&gt;Node4</title>
<g id="a_edge3_Node000003_Node000004"><a xlink:title=" ">
<path fill="none" stroke="#63b8ff" d="M85.64,-47.9C98.16,-37.81 111.5,-27.05 120.62,-19.7"/>
<polygon fill="#63b8ff" stroke="#63b8ff" points="83.52,-45.12 77.93,-54.12 87.91,-50.57 83.52,-45.12"/>
</a>
</g>
</g>
<!-- Node6&#45;&gt;Node4 -->
<g id="edge9_Node000006_Node000004" class="edge">
<title>Node6&#45;&gt;Node4</title>
<g id="a_edge9_Node000006_Node000004"><a xlink:title=" ">
<path fill="none" stroke="#63b8ff" d="M260.07,-270.63C270.7,-262.91 280.91,-253.09 286.88,-241.25 324.09,-167.43 338.7,-121.22 288.88,-55.25 274.31,-35.97 209.51,-22.58 167.84,-15.78"/>
<polygon fill="#63b8ff" stroke="#63b8ff" points="258.35,-267.57 251.98,-276.04 262.24,-273.39 258.35,-267.57"/>
</a>
</g>
</g>
<!-- Node7 -->
<g id="Node000007" class="node">
<title>Node7</title>
<g id="a_Node000007"><a xlink:href="../../d7/d8d/graphics__items__prototype__collection_8h.html" target="_top" xlink:title=" ">
<polygon fill="white" stroke="#666666" points="277.38,-241.25 162.38,-241.25 162.38,-199.5 277.38,-199.5 277.38,-241.25"/>
<text text-anchor="start" x="170.38" y="-227.75" font-family="Helvetica,sans-Serif" font-size="10.00">editor_lib/include</text>
<text text-anchor="start" x="170.38" y="-216.5" font-family="Helvetica,sans-Serif" font-size="10.00">/editor/graphics_items</text>
<text text-anchor="middle" x="219.88" y="-205.25" font-family="Helvetica,sans-Serif" font-size="10.00">_prototype_collection.h</text>
</a>
</g>
</g>
<!-- Node6&#45;&gt;Node7 -->
<g id="edge7_Node000006_Node000007" class="edge">
<title>Node6&#45;&gt;Node7</title>
<g id="a_edge7_Node000006_Node000007"><a xlink:title=" ">
<path fill="none" stroke="#63b8ff" d="M220.51,-265.72C220.39,-257.81 220.27,-249.23 220.17,-241.74"/>
<polygon fill="#63b8ff" stroke="#63b8ff" points="217,-265.51 220.65,-275.46 224,-265.41 217,-265.51"/>
</a>
</g>
</g>
<!-- Node7&#45;&gt;Node2 -->
<g id="edge8_Node000007_Node000002" class="edge">
<title>Node7&#45;&gt;Node2</title>
<g id="a_edge8_Node000007_Node000002"><a xlink:title=" ">
<path fill="none" stroke="#63b8ff" d="M185.89,-191.98C174.02,-182.42 161.16,-172.05 151.07,-163.92"/>
<polygon fill="#63b8ff" stroke="#63b8ff" points="183.55,-194.59 193.53,-198.14 187.94,-189.14 183.55,-194.59"/>
</a>
</g>
</g>
</g>
</svg>
