<?xml version="1.0" encoding="UTF-8" standalone="no"?>
<!DOCTYPE svg PUBLIC "-//W3C//DTD SVG 1.1//EN"
 "http://www.w3.org/Graphics/SVG/1.1/DTD/svg11.dtd">
<!-- Generated by graphviz version 12.1.1 (20240910.0053)
 -->
<!-- Title: lib_sokoban_core/include/sokoban_core/game_object_id.hpp Pages: 1 -->
<svg width="602pt" height="528pt"
 viewBox="0.00 0.00 601.75 528.00" xmlns="http://www.w3.org/2000/svg" xmlns:xlink="http://www.w3.org/1999/xlink">
<g id="graph0" class="graph" transform="scale(1 1) rotate(0) translate(4 524)">
<title>lib_sokoban_core/include/sokoban_core/game_object_id.hpp</title>
<!-- Node1 -->
<g id="Node000001" class="node">
<title>Node1</title>
<g id="a_Node000001"><a xlink:title=" ">
<polygon fill="#999999" stroke="#666666" points="478.62,-520 308.88,-520 308.88,-488 478.62,-488 478.62,-520"/>
<text text-anchor="start" x="316.88" y="-506.5" font-family="Helvetica,sans-Serif" font-size="10.00">lib_sokoban_core/include</text>
<text text-anchor="middle" x="393.75" y="-494.5" font-family="Helvetica,sans-Serif" font-size="10.00">/sokoban_core/game_object_id.hpp</text>
</a>
</g>
</g>
<!-- Node2 -->
<g id="Node000002" class="node">
<title>Node2</title>
<g id="a_Node000002"><a xlink:href="../../d4/d42/game__object_8hpp.html" target="_top" xlink:title=" ">
<polygon fill="white" stroke="#666666" points="419.25,-452 262.25,-452 262.25,-420 419.25,-420 419.25,-452"/>
<text text-anchor="start" x="270.25" y="-438.5" font-family="Helvetica,sans-Serif" font-size="10.00">lib_sokoban_core/include</text>
<text text-anchor="middle" x="340.75" y="-426.5" font-family="Helvetica,sans-Serif" font-size="10.00">/sokoban_core/game_object.hpp</text>
</a>
</g>
</g>
<!-- Node1&#45;&gt;Node2 -->
<g id="edge1_Node000001_Node000002" class="edge">
<title>Node1&#45;&gt;Node2</title>
<g id="a_edge1_Node000001_Node000002"><a xlink:title=" ">
<path fill="none" stroke="#63b8ff" d="M374.37,-478.87C367.22,-469.96 359.32,-460.12 352.98,-452.22"/>
<polygon fill="#63b8ff" stroke="#63b8ff" points="371.52,-480.91 380.51,-486.51 376.98,-476.52 371.52,-480.91"/>
</a>
</g>
</g>
<!-- Node10 -->
<g id="Node000010" class="node">
<title>Node10</title>
<g id="a_Node000010"><a xlink:href="../../d8/dd9/game__object__factory_8hpp.html" target="_top" xlink:title=" ">
<polygon fill="white" stroke="#666666" points="538.88,-384 400.62,-384 400.62,-340 538.88,-340 538.88,-384"/>
<text text-anchor="start" x="408.62" y="-370.5" font-family="Helvetica,sans-Serif" font-size="10.00">lib_sokoban_core/include</text>
<text text-anchor="start" x="408.62" y="-358.5" font-family="Helvetica,sans-Serif" font-size="10.00">/sokoban_core/game_object</text>
<text text-anchor="middle" x="469.75" y="-346.5" font-family="Helvetica,sans-Serif" font-size="10.00">_factory.hpp</text>
</a>
</g>
</g>
<!-- Node1&#45;&gt;Node10 -->
<g id="edge21_Node000001_Node000010" class="edge">
<title>Node1&#45;&gt;Node10</title>
<g id="a_edge21_Node000001_Node000010"><a xlink:title=" ">
<path fill="none" stroke="#63b8ff" d="M411.84,-478.45C417.56,-470.23 423.7,-460.9 428.75,-452 441.44,-429.66 453.42,-402.71 461.12,-384.36"/>
<polygon fill="#63b8ff" stroke="#63b8ff" points="409,-476.41 406.06,-486.58 414.7,-480.46 409,-476.41"/>
</a>
</g>
</g>
<!-- Node3 -->
<g id="Node000003" class="node">
<title>Node3</title>
<g id="a_Node000003"><a xlink:href="../../d1/dab/game__action_8hpp.html" target="_top" xlink:title=" ">
<polygon fill="white" stroke="#666666" points="239.25,-378 82.25,-378 82.25,-346 239.25,-346 239.25,-378"/>
<text text-anchor="start" x="90.25" y="-364.5" font-family="Helvetica,sans-Serif" font-size="10.00">lib_sokoban_core/include</text>
<text text-anchor="middle" x="160.75" y="-352.5" font-family="Helvetica,sans-Serif" font-size="10.00">/sokoban_core/game_action.hpp</text>
</a>
</g>
</g>
<!-- Node2&#45;&gt;Node3 -->
<g id="edge2_Node000002_Node000003" class="edge">
<title>Node2&#45;&gt;Node3</title>
<g id="a_edge2_Node000002_Node000003"><a xlink:title=" ">
<path fill="none" stroke="#63b8ff" d="M291.78,-415.41C262.69,-403.78 226.33,-389.23 199.3,-378.42"/>
<polygon fill="#63b8ff" stroke="#63b8ff" points="290.15,-418.53 300.73,-418.99 292.75,-412.03 290.15,-418.53"/>
</a>
</g>
</g>
<!-- Node2&#45;&gt;Node10 -->
<g id="edge12_Node000002_Node000010" class="edge">
<title>Node2&#45;&gt;Node10</title>
<g id="a_edge12_Node000002_Node000010"><a xlink:title=" ">
<path fill="none" stroke="#63b8ff" d="M378.37,-414C395.03,-404.7 414.61,-393.78 431.36,-384.43"/>
<polygon fill="#63b8ff" stroke="#63b8ff" points="376.77,-410.89 369.75,-418.82 380.18,-417 376.77,-410.89"/>
</a>
</g>
</g>
<!-- Node14 -->
<g id="Node000014" class="node">
<title>Node14</title>
<g id="a_Node000014"><a xlink:href="../../df/d7a/tile_8hpp.html" target="_top" xlink:title=" ">
<polygon fill="white" stroke="#666666" points="382.5,-378 257,-378 257,-346 382.5,-346 382.5,-378"/>
<text text-anchor="start" x="265" y="-364.5" font-family="Helvetica,sans-Serif" font-size="10.00">lib_sokoban_core/include</text>
<text text-anchor="middle" x="319.75" y="-352.5" font-family="Helvetica,sans-Serif" font-size="10.00">/sokoban_core/tile.hpp</text>
</a>
</g>
</g>
<!-- Node2&#45;&gt;Node14 -->
<g id="edge18_Node000002_Node000014" class="edge">
<title>Node2&#45;&gt;Node14</title>
<g id="a_edge18_Node000002_Node000014"><a xlink:title=" ">
<path fill="none" stroke="#63b8ff" d="M333.11,-408.82C330.12,-398.55 326.79,-387.12 324.2,-378.25"/>
<polygon fill="#63b8ff" stroke="#63b8ff" points="329.71,-409.66 335.87,-418.28 336.43,-407.7 329.71,-409.66"/>
</a>
</g>
</g>
<!-- Node4 -->
<g id="Node000004" class="node">
<title>Node4</title>
<g id="a_Node000004"><a xlink:href="../../d9/dc0/base__game_8hpp.html" target="_top" xlink:title=" ">
<polygon fill="white" stroke="#666666" points="275.25,-168 160.25,-168 160.25,-136 275.25,-136 275.25,-168"/>
<text text-anchor="start" x="168.25" y="-154.5" font-family="Helvetica,sans-Serif" font-size="10.00">lib_base_game/include</text>
<text text-anchor="middle" x="217.75" y="-142.5" font-family="Helvetica,sans-Serif" font-size="10.00">/base_game.hpp</text>
</a>
</g>
</g>
<!-- Node3&#45;&gt;Node4 -->
<g id="edge3_Node000003_Node000004" class="edge">
<title>Node3&#45;&gt;Node4</title>
<g id="a_edge3_Node000003_Node000004"><a xlink:title=" ">
<path fill="none" stroke="#63b8ff" d="M179.63,-336.23C186.05,-326.63 192.63,-315.26 196.75,-304 214.12,-256.52 217.26,-195.84 217.74,-168.08"/>
<polygon fill="#63b8ff" stroke="#63b8ff" points="176.86,-334.07 173.98,-344.26 182.59,-338.09 176.86,-334.07"/>
</a>
</g>
</g>
<!-- Node8 -->
<g id="Node000008" class="node">
<title>Node8</title>
<g id="a_Node000008"><a xlink:href="../../dc/d77/base__game__action_8hpp.html" target="_top" xlink:title=" ">
<polygon fill="white" stroke="#666666" points="187.5,-304 68,-304 68,-272 187.5,-272 187.5,-304"/>
<text text-anchor="start" x="76" y="-290.5" font-family="Helvetica,sans-Serif" font-size="10.00">lib_base_game/include</text>
<text text-anchor="middle" x="127.75" y="-278.5" font-family="Helvetica,sans-Serif" font-size="10.00">/base_game_action.hpp</text>
</a>
</g>
</g>
<!-- Node3&#45;&gt;Node8 -->
<g id="edge7_Node000003_Node000008" class="edge">
<title>Node3&#45;&gt;Node8</title>
<g id="a_edge7_Node000003_Node000008"><a xlink:title=" ">
<path fill="none" stroke="#63b8ff" d="M149.05,-335.48C144.27,-325.04 138.89,-313.31 134.74,-304.25"/>
<polygon fill="#63b8ff" stroke="#63b8ff" points="145.77,-336.72 153.12,-344.35 152.14,-333.81 145.77,-336.72"/>
</a>
</g>
</g>
<!-- Node5 -->
<g id="Node000005" class="node">
<title>Node5</title>
<g id="a_Node000005"><a xlink:href="../../d5/ddc/base__session__context_8hpp.html" target="_top" xlink:title=" ">
<polygon fill="white" stroke="#666666" points="273.38,-100 138.12,-100 138.12,-68 273.38,-68 273.38,-100"/>
<text text-anchor="start" x="146.12" y="-86.5" font-family="Helvetica,sans-Serif" font-size="10.00">lib_base_game/include</text>
<text text-anchor="middle" x="205.75" y="-74.5" font-family="Helvetica,sans-Serif" font-size="10.00">/base_session_context.hpp</text>
</a>
</g>
</g>
<!-- Node4&#45;&gt;Node5 -->
<g id="edge4_Node000004_Node000005" class="edge">
<title>Node4&#45;&gt;Node5</title>
<g id="a_edge4_Node000004_Node000005"><a xlink:title=" ">
<path fill="none" stroke="#63b8ff" d="M212.95,-124.6C211.44,-116.32 209.83,-107.46 208.52,-100.22"/>
<polygon fill="#63b8ff" stroke="#63b8ff" points="209.46,-124.99 214.7,-134.2 216.35,-123.74 209.46,-124.99"/>
</a>
</g>
</g>
<!-- Node6 -->
<g id="Node000006" class="node">
<title>Node6</title>
<g id="a_Node000006"><a xlink:href="../../d0/d8e/base__game__action_8cpp.html" target="_top" xlink:title=" ">
<polygon fill="white" stroke="#666666" points="119.5,-32 0,-32 0,0 119.5,0 119.5,-32"/>
<text text-anchor="start" x="8" y="-18.5" font-family="Helvetica,sans-Serif" font-size="10.00">lib_base_game/include</text>
<text text-anchor="middle" x="59.75" y="-6.5" font-family="Helvetica,sans-Serif" font-size="10.00">/base_game_action.cpp</text>
</a>
</g>
</g>
<!-- Node5&#45;&gt;Node6 -->
<g id="edge5_Node000005_Node000006" class="edge">
<title>Node5&#45;&gt;Node6</title>
<g id="a_edge5_Node000005_Node000006"><a xlink:title=" ">
<path fill="none" stroke="#63b8ff" d="M161.27,-62.89C139.66,-53.12 114.09,-41.56 94.02,-32.49"/>
<polygon fill="#63b8ff" stroke="#63b8ff" points="159.59,-65.97 170.14,-66.9 162.47,-59.59 159.59,-65.97"/>
</a>
</g>
</g>
<!-- Node7 -->
<g id="Node000007" class="node">
<title>Node7</title>
<g id="a_Node000007"><a xlink:href="../../db/db9/lib__base__game_2include_2mod_8hpp.html" target="_top" xlink:title=" ">
<polygon fill="white" stroke="#666666" points="263.25,-32 148.25,-32 148.25,0 263.25,0 263.25,-32"/>
<text text-anchor="start" x="156.25" y="-18.5" font-family="Helvetica,sans-Serif" font-size="10.00">lib_base_game/include</text>
<text text-anchor="middle" x="205.75" y="-6.5" font-family="Helvetica,sans-Serif" font-size="10.00">/mod.hpp</text>
</a>
</g>
</g>
<!-- Node5&#45;&gt;Node7 -->
<g id="edge6_Node000005_Node000007" class="edge">
<title>Node5&#45;&gt;Node7</title>
<g id="a_edge6_Node000005_Node000007"><a xlink:title=" ">
<path fill="none" stroke="#63b8ff" d="M205.75,-56.31C205.75,-48.12 205.75,-39.38 205.75,-32.22"/>
<polygon fill="#63b8ff" stroke="#63b8ff" points="202.25,-56.18 205.75,-66.18 209.25,-56.18 202.25,-56.18"/>
</a>
</g>
</g>
<!-- Node8&#45;&gt;Node6 -->
<g id="edge11_Node000008_Node000006" class="edge">
<title>Node8&#45;&gt;Node6</title>
<g id="a_edge11_Node000008_Node000006"><a xlink:title=" ">
<path fill="none" stroke="#63b8ff" d="M84.09,-265.33C73.18,-257.66 62.86,-247.91 56.75,-236 21.52,-167.32 44.05,-69.85 54.89,-32.44"/>
<polygon fill="#63b8ff" stroke="#63b8ff" points="82.16,-268.26 92.46,-270.72 85.95,-262.37 82.16,-268.26"/>
</a>
</g>
</g>
<!-- Node9 -->
<g id="Node000009" class="node">
<title>Node9</title>
<g id="a_Node000009"><a xlink:href="../../db/d29/base__action__factory_8hpp.html" target="_top" xlink:title=" ">
<polygon fill="white" stroke="#666666" points="190.12,-236 65.38,-236 65.38,-204 190.12,-204 190.12,-236"/>
<text text-anchor="start" x="73.38" y="-222.5" font-family="Helvetica,sans-Serif" font-size="10.00">lib_base_game/include</text>
<text text-anchor="middle" x="127.75" y="-210.5" font-family="Helvetica,sans-Serif" font-size="10.00">/base_action_factory.hpp</text>
</a>
</g>
</g>
<!-- Node8&#45;&gt;Node9 -->
<g id="edge8_Node000008_Node000009" class="edge">
<title>Node8&#45;&gt;Node9</title>
<g id="a_edge8_Node000008_Node000009"><a xlink:title=" ">
<path fill="none" stroke="#63b8ff" d="M127.75,-260.31C127.75,-252.12 127.75,-243.38 127.75,-236.22"/>
<polygon fill="#63b8ff" stroke="#63b8ff" points="124.25,-260.18 127.75,-270.18 131.25,-260.18 124.25,-260.18"/>
</a>
</g>
</g>
<!-- Node9&#45;&gt;Node4 -->
<g id="edge9_Node000009_Node000004" class="edge">
<title>Node9&#45;&gt;Node4</title>
<g id="a_edge9_Node000009_Node000004"><a xlink:title=" ">
<path fill="none" stroke="#63b8ff" d="M157.55,-197.15C170.36,-187.75 185.03,-177 196.68,-168.45"/>
<polygon fill="#63b8ff" stroke="#63b8ff" points="155.84,-194.06 149.84,-202.8 159.98,-199.71 155.84,-194.06"/>
</a>
</g>
</g>
<!-- Node9&#45;&gt;Node5 -->
<g id="edge10_Node000009_Node000005" class="edge">
<title>Node9&#45;&gt;Node5</title>
<g id="a_edge10_Node000009_Node000005"><a xlink:title=" ">
<path fill="none" stroke="#63b8ff" d="M131.23,-192.72C134.37,-175.61 140.2,-153.33 150.75,-136 159.21,-122.1 172.52,-109.61 183.93,-100.47"/>
<polygon fill="#63b8ff" stroke="#63b8ff" points="127.85,-191.69 129.69,-202.12 134.76,-192.81 127.85,-191.69"/>
</a>
</g>
</g>
<!-- Node11 -->
<g id="Node000011" class="node">
<title>Node11</title>
<g id="a_Node000011"><a xlink:href="../../de/d37/base__game__object__factory_8hpp.html" target="_top" xlink:title=" ">
<polygon fill="white" stroke="#666666" points="593.75,-304 439.75,-304 439.75,-272 593.75,-272 593.75,-304"/>
<text text-anchor="start" x="447.75" y="-290.5" font-family="Helvetica,sans-Serif" font-size="10.00">lib_base_game/include</text>
<text text-anchor="middle" x="516.75" y="-278.5" font-family="Helvetica,sans-Serif" font-size="10.00">/base_game_object_factory.hpp</text>
</a>
</g>
</g>
<!-- Node10&#45;&gt;Node11 -->
<g id="edge13_Node000010_Node000011" class="edge">
<title>Node10&#45;&gt;Node11</title>
<g id="a_edge13_Node000010_Node000011"><a xlink:title=" ">
<path fill="none" stroke="#63b8ff" d="M489.81,-330.26C495.72,-321.22 501.92,-311.73 506.88,-304.13"/>
<polygon fill="#63b8ff" stroke="#63b8ff" points="486.96,-328.23 484.42,-338.52 492.82,-332.06 486.96,-328.23"/>
</a>
</g>
</g>
<!-- Node13 -->
<g id="Node000013" class="node">
<title>Node13</title>
<g id="a_Node000013"><a xlink:href="../../df/d74/tile__map_8hpp.html" target="_top" xlink:title=" ">
<polygon fill="white" stroke="#666666" points="421.88,-304 283.62,-304 283.62,-272 421.88,-272 421.88,-304"/>
<text text-anchor="start" x="291.62" y="-290.5" font-family="Helvetica,sans-Serif" font-size="10.00">lib_sokoban_core/include</text>
<text text-anchor="middle" x="352.75" y="-278.5" font-family="Helvetica,sans-Serif" font-size="10.00">/sokoban_core/tile_map.hpp</text>
</a>
</g>
</g>
<!-- Node10&#45;&gt;Node13 -->
<g id="edge16_Node000010_Node000013" class="edge">
<title>Node10&#45;&gt;Node13</title>
<g id="a_edge16_Node000010_Node000013"><a xlink:title=" ">
<path fill="none" stroke="#63b8ff" d="M425.23,-333.6C409.22,-323.75 391.72,-312.98 377.93,-304.5"/>
<polygon fill="#63b8ff" stroke="#63b8ff" points="423.32,-336.54 433.67,-338.8 426.99,-330.58 423.32,-336.54"/>
</a>
</g>
</g>
<!-- Node11&#45;&gt;Node5 -->
<g id="edge15_Node000011_Node000005" class="edge">
<title>Node11&#45;&gt;Node5</title>
<g id="a_edge15_Node000011_Node000005"><a xlink:title=" ">
<path fill="none" stroke="#63b8ff" d="M516.79,-260.31C515.46,-242.49 510.97,-219.56 497.75,-204 440.85,-137.05 340.52,-107.27 273.58,-94.38"/>
<polygon fill="#63b8ff" stroke="#63b8ff" points="513.28,-260.32 517.2,-270.16 520.28,-260.02 513.28,-260.32"/>
</a>
</g>
</g>
<!-- Node12 -->
<g id="Node000012" class="node">
<title>Node12</title>
<g id="a_Node000012"><a xlink:href="../../d0/da1/base__game__object__factory_8cpp.html" target="_top" xlink:title=" ">
<polygon fill="white" stroke="#666666" points="488.75,-236 334.75,-236 334.75,-204 488.75,-204 488.75,-236"/>
<text text-anchor="start" x="342.75" y="-222.5" font-family="Helvetica,sans-Serif" font-size="10.00">lib_base_game/include</text>
<text text-anchor="middle" x="411.75" y="-210.5" font-family="Helvetica,sans-Serif" font-size="10.00">/base_game_object_factory.cpp</text>
</a>
</g>
</g>
<!-- Node11&#45;&gt;Node12 -->
<g id="edge14_Node000011_Node000012" class="edge">
<title>Node11&#45;&gt;Node12</title>
<g id="a_edge14_Node000011_Node000012"><a xlink:title=" ">
<path fill="none" stroke="#63b8ff" d="M482.59,-265.53C467.46,-256.02 450.01,-245.05 436.21,-236.38"/>
<polygon fill="#63b8ff" stroke="#63b8ff" points="480.52,-268.36 490.85,-270.72 484.25,-262.44 480.52,-268.36"/>
</a>
</g>
</g>
<!-- Node13&#45;&gt;Node4 -->
<g id="edge17_Node000013_Node000004" class="edge">
<title>Node13&#45;&gt;Node4</title>
<g id="a_edge17_Node000013_Node000004"><a xlink:title=" ">
<path fill="none" stroke="#63b8ff" d="M329.43,-263.56C312.83,-246.9 289.97,-224.03 269.75,-204 257.53,-191.9 243.62,-178.26 233.26,-168.14"/>
<polygon fill="#63b8ff" stroke="#63b8ff" points="326.89,-265.97 336.43,-270.59 331.85,-261.03 326.89,-265.97"/>
</a>
</g>
</g>
<!-- Node14&#45;&gt;Node4 -->
<g id="edge19_Node000014_Node000004" class="edge">
<title>Node14&#45;&gt;Node4</title>
<g id="a_edge19_Node000014_Node000004"><a xlink:title=" ">
<path fill="none" stroke="#63b8ff" d="M298.3,-337.23C290.19,-327.43 281.33,-315.64 274.75,-304 248.41,-257.41 229.64,-196.29 221.81,-168.25"/>
<polygon fill="#63b8ff" stroke="#63b8ff" points="295.62,-339.48 304.77,-344.81 300.94,-334.93 295.62,-339.48"/>
</a>
</g>
</g>
<!-- Node14&#45;&gt;Node13 -->
<g id="edge20_Node000014_Node000013" class="edge">
<title>Node14&#45;&gt;Node13</title>
<g id="a_edge20_Node000014_Node000013"><a xlink:title=" ">
<path fill="none" stroke="#63b8ff" d="M331.45,-335.48C336.23,-325.04 341.61,-313.31 345.76,-304.25"/>
<polygon fill="#63b8ff" stroke="#63b8ff" points="328.36,-333.81 327.38,-344.35 334.73,-336.72 328.36,-333.81"/>
</a>
</g>
</g>
</g>
</svg>
