<?xml version="1.0" encoding="UTF-8" standalone="no"?>
<!DOCTYPE svg PUBLIC "-//W3C//DTD SVG 1.1//EN"
 "http://www.w3.org/Graphics/SVG/1.1/DTD/svg11.dtd">
<!-- Generated by graphviz version 12.1.1 (20240910.0053)
 -->
<!-- Title: lib_sokoban_core/include/sokoban_core/session_context.hpp Pages: 1 -->
<svg width="1219pt" height="276pt"
 viewBox="0.00 0.00 1219.41 276.00" xmlns="http://www.w3.org/2000/svg" xmlns:xlink="http://www.w3.org/1999/xlink">
<g id="graph0" class="graph" transform="scale(1 1) rotate(0) translate(4 272)">
<title>lib_sokoban_core/include/sokoban_core/session_context.hpp</title>
<!-- Node1 -->
<g id="Node000001" class="node">
<title>Node1</title>
<g id="a_Node000001"><a xlink:title=" ">
<polygon fill="#999999" stroke="#666666" points="656.38,-268 483.62,-268 483.62,-236 656.38,-236 656.38,-268"/>
<text text-anchor="start" x="491.62" y="-254.5" font-family="Helvetica,sans-Serif" font-size="10.00">lib_sokoban_core/include</text>
<text text-anchor="middle" x="570" y="-242.5" font-family="Helvetica,sans-Serif" font-size="10.00">/sokoban_core/session_context.hpp</text>
</a>
</g>
</g>
<!-- Node2 -->
<g id="Node000002" class="node">
<title>Node2</title>
<g id="a_Node000002"><a xlink:href="../../d7/dc7/command_8hpp.html" target="_top" xlink:title=" ">
<polygon fill="white" stroke="#666666" points="112.75,-200 35.25,-200 35.25,-180 112.75,-180 112.75,-200"/>
<text text-anchor="middle" x="74" y="-186.5" font-family="Helvetica,sans-Serif" font-size="10.00">command.hpp</text>
</a>
</g>
</g>
<!-- Node1&#45;&gt;Node2 -->
<g id="edge1_Node000001_Node000002" class="edge">
<title>Node1&#45;&gt;Node2</title>
<g id="a_edge1_Node000001_Node000002"><a xlink:title=" ">
<path fill="none" stroke="#63b8ff" d="M483.32,-240.51C379.35,-227.94 208.57,-207.28 124.28,-197.08"/>
<polygon fill="#63b8ff" stroke="#63b8ff" points="124.83,-193.62 114.48,-195.9 123.99,-200.57 124.83,-193.62"/>
</a>
</g>
</g>
<!-- Node4 -->
<g id="Node000004" class="node">
<title>Node4</title>
<g id="a_Node000004"><a xlink:href="../../dd/dc8/game__state_8hpp.html" target="_top" xlink:title=" ">
<polygon fill="white" stroke="#666666" points="308.88,-200 223.12,-200 223.12,-180 308.88,-180 308.88,-200"/>
<text text-anchor="middle" x="266" y="-186.5" font-family="Helvetica,sans-Serif" font-size="10.00">game_state.hpp</text>
</a>
</g>
</g>
<!-- Node1&#45;&gt;Node4 -->
<g id="edge3_Node000001_Node000004" class="edge">
<title>Node1&#45;&gt;Node4</title>
<g id="a_edge3_Node000001_Node000004"><a xlink:title=" ">
<path fill="none" stroke="#63b8ff" d="M491.71,-235.55C437.97,-224.94 368,-211.13 320.3,-201.72"/>
<polygon fill="#63b8ff" stroke="#63b8ff" points="321.25,-198.34 310.76,-199.83 319.9,-205.21 321.25,-198.34"/>
</a>
</g>
</g>
<!-- Node6 -->
<g id="Node000006" class="node">
<title>Node6</title>
<g id="a_Node000006"><a xlink:href="../../d9/d85/player_8hpp.html" target="_top" xlink:title=" ">
<polygon fill="white" stroke="#666666" points="433.5,-200 372.5,-200 372.5,-180 433.5,-180 433.5,-200"/>
<text text-anchor="middle" x="403" y="-186.5" font-family="Helvetica,sans-Serif" font-size="10.00">player.hpp</text>
</a>
</g>
</g>
<!-- Node1&#45;&gt;Node6 -->
<g id="edge5_Node000001_Node000006" class="edge">
<title>Node1&#45;&gt;Node6</title>
<g id="a_edge5_Node000001_Node000006"><a xlink:title=" ">
<path fill="none" stroke="#63b8ff" d="M526.99,-235.55C500.05,-225.87 465.7,-213.53 439.98,-204.29"/>
<polygon fill="#63b8ff" stroke="#63b8ff" points="441.2,-201.01 430.61,-200.92 438.84,-207.59 441.2,-201.01"/>
</a>
</g>
</g>
<!-- Node9 -->
<g id="Node000009" class="node">
<title>Node9</title>
<g id="a_Node000009"><a xlink:title=" ">
<polygon fill="#e0e0e0" stroke="#999999" points="473.5,-82 412.5,-82 412.5,-62 473.5,-62 473.5,-82"/>
<text text-anchor="middle" x="443" y="-68.5" font-family="Helvetica,sans-Serif" font-size="10.00">filesystem</text>
</a>
</g>
</g>
<!-- Node1&#45;&gt;Node9 -->
<g id="edge31_Node000001_Node000009" class="edge">
<title>Node1&#45;&gt;Node9</title>
<g id="a_edge31_Node000001_Node000009"><a xlink:title=" ">
<path fill="none" stroke="#63b8ff" d="M572.02,-235.59C574.54,-209.8 575.87,-157.46 551,-124 546.13,-117.44 506.3,-99.62 476.42,-86.9"/>
<polygon fill="#63b8ff" stroke="#63b8ff" points="477.91,-83.73 467.34,-83.06 475.19,-90.17 477.91,-83.73"/>
</a>
</g>
</g>
<!-- Node14 -->
<g id="Node000014" class="node">
<title>Node14</title>
<g id="a_Node000014"><a xlink:href="../../d5/ddc/console_8hpp.html" target="_top" xlink:title=" ">
<polygon fill="white" stroke="#666666" points="680,-200 598,-200 598,-180 680,-180 680,-200"/>
<text text-anchor="middle" x="639" y="-186.5" font-family="Helvetica,sans-Serif" font-size="10.00">tui/console.hpp</text>
</a>
</g>
</g>
<!-- Node1&#45;&gt;Node14 -->
<g id="edge15_Node000001_Node000014" class="edge">
<title>Node1&#45;&gt;Node14</title>
<g id="a_edge15_Node000001_Node000014"><a xlink:title=" ">
<path fill="none" stroke="#63b8ff" d="M587.77,-235.55C597.55,-227.04 609.7,-216.48 619.72,-207.77"/>
<polygon fill="#63b8ff" stroke="#63b8ff" points="621.79,-210.6 627.04,-201.4 617.2,-205.32 621.79,-210.6"/>
</a>
</g>
</g>
<!-- Node26 -->
<g id="Node000026" class="node">
<title>Node26</title>
<g id="a_Node000026"><a xlink:title=" ">
<polygon fill="#e0e0e0" stroke="#999999" points="749.62,-200 698.38,-200 698.38,-180 749.62,-180 749.62,-200"/>
<text text-anchor="middle" x="724" y="-186.5" font-family="Helvetica,sans-Serif" font-size="10.00">memory</text>
</a>
</g>
</g>
<!-- Node1&#45;&gt;Node26 -->
<g id="edge30_Node000001_Node000026" class="edge">
<title>Node1&#45;&gt;Node26</title>
<g id="a_edge30_Node000001_Node000026"><a xlink:title=" ">
<path fill="none" stroke="#63b8ff" d="M609.66,-235.55C634.28,-225.96 665.62,-213.75 689.26,-204.54"/>
<polygon fill="#63b8ff" stroke="#63b8ff" points="690.4,-207.85 698.44,-200.96 687.85,-201.33 690.4,-207.85"/>
</a>
</g>
</g>
<!-- Node27 -->
<g id="Node000027" class="node">
<title>Node27</title>
<g id="a_Node000027"><a xlink:title=" ">
<polygon fill="#e0e0e0" stroke="#999999" points="812.25,-200 767.75,-200 767.75,-180 812.25,-180 812.25,-200"/>
<text text-anchor="middle" x="790" y="-186.5" font-family="Helvetica,sans-Serif" font-size="10.00">iosfwd</text>
</a>
</g>
</g>
<!-- Node1&#45;&gt;Node27 -->
<g id="edge32_Node000001_Node000027" class="edge">
<title>Node1&#45;&gt;Node27</title>
<g id="a_edge32_Node000001_Node000027"><a xlink:title=" ">
<path fill="none" stroke="#63b8ff" d="M628.4,-235.55C663.16,-226.28 708.41,-214.1 756.4,-200.7"/>
<polygon fill="#63b8ff" stroke="#63b8ff" points="757.18,-204.11 765.87,-198.04 755.3,-197.37 757.18,-204.11"/>
</a>
</g>
</g>
<!-- Node3 -->
<g id="Node000003" class="node">
<title>Node3</title>
<g id="a_Node000003"><a xlink:href="../../de/d85/key__definitions_8hpp.html" target="_top" xlink:title=" ">
<polygon fill="white" stroke="#666666" points="100,-144 0,-144 0,-124 100,-124 100,-144"/>
<text text-anchor="middle" x="50" y="-130.5" font-family="Helvetica,sans-Serif" font-size="10.00">key_definitions.hpp</text>
</a>
</g>
</g>
<!-- Node2&#45;&gt;Node3 -->
<g id="edge2_Node000002_Node000003" class="edge">
<title>Node2&#45;&gt;Node3</title>
<g id="a_edge2_Node000002_Node000003"><a xlink:title=" ">
<path fill="none" stroke="#63b8ff" d="M69.82,-179.59C66.76,-172.7 62.49,-163.1 58.7,-154.57"/>
<polygon fill="#63b8ff" stroke="#63b8ff" points="62.01,-153.4 54.75,-145.68 55.61,-156.24 62.01,-153.4"/>
</a>
</g>
</g>
<!-- Node5 -->
<g id="Node000005" class="node">
<title>Node5</title>
<g id="a_Node000005"><a xlink:title=" ">
<polygon fill="#e0e0e0" stroke="#999999" points="173.88,-144 118.12,-144 118.12,-124 173.88,-124 173.88,-144"/>
<text text-anchor="middle" x="146" y="-130.5" font-family="Helvetica,sans-Serif" font-size="10.00">cinttypes</text>
</a>
</g>
</g>
<!-- Node4&#45;&gt;Node5 -->
<g id="edge4_Node000004_Node000005" class="edge">
<title>Node4&#45;&gt;Node5</title>
<g id="a_edge4_Node000004_Node000005"><a xlink:title=" ">
<path fill="none" stroke="#63b8ff" d="M245.1,-179.59C226.37,-171.17 198.64,-158.69 177.28,-149.07"/>
<polygon fill="#63b8ff" stroke="#63b8ff" points="179,-146.01 168.45,-145.1 176.13,-152.4 179,-146.01"/>
</a>
</g>
</g>
<!-- Node6&#45;&gt;Node6 -->
<g id="edge6_Node000006_Node000006" class="edge">
<title>Node6&#45;&gt;Node6</title>
<g id="a_edge6_Node000006_Node000006"><a xlink:title=" ">
<path fill="none" stroke="#63b8ff" d="M433.78,-200.5C443.67,-200.39 451.5,-196.89 451.5,-190 451.5,-186.12 449.02,-183.32 445.09,-181.59"/>
<polygon fill="#63b8ff" stroke="#63b8ff" points="445.74,-178.15 435.27,-179.78 444.47,-185.04 445.74,-178.15"/>
</a>
</g>
</g>
<!-- Node7 -->
<g id="Node000007" class="node">
<title>Node7</title>
<g id="a_Node000007"><a xlink:href="../../db/d42/json__utils_8hpp.html" target="_top" xlink:title=" ">
<polygon fill="white" stroke="#666666" points="350.12,-144 229.88,-144 229.88,-124 350.12,-124 350.12,-144"/>
<text text-anchor="middle" x="290" y="-130.5" font-family="Helvetica,sans-Serif" font-size="10.00">json_utils/json_utils.hpp</text>
</a>
</g>
</g>
<!-- Node6&#45;&gt;Node7 -->
<g id="edge7_Node000006_Node000007" class="edge">
<title>Node6&#45;&gt;Node7</title>
<g id="a_edge7_Node000006_Node000007"><a xlink:title=" ">
<path fill="none" stroke="#63b8ff" d="M383.32,-179.59C365.84,-171.24 340.05,-158.92 320,-149.34"/>
<polygon fill="#63b8ff" stroke="#63b8ff" points="321.73,-146.29 311.2,-145.13 318.72,-152.6 321.73,-146.29"/>
</a>
</g>
</g>
<!-- Node6&#45;&gt;Node9 -->
<g id="edge13_Node000006_Node000009" class="edge">
<title>Node6&#45;&gt;Node9</title>
<g id="a_edge13_Node000006_Node000009"><a xlink:title=" ">
<path fill="none" stroke="#63b8ff" d="M399.65,-179.82C395.49,-166.9 389.76,-142.83 397,-124 402.11,-110.71 412.46,-98.72 422.06,-89.71"/>
<polygon fill="#63b8ff" stroke="#63b8ff" points="424.13,-92.54 429.34,-83.32 419.52,-87.28 424.13,-92.54"/>
</a>
</g>
</g>
<!-- Node11 -->
<g id="Node000011" class="node">
<title>Node11</title>
<g id="a_Node000011"><a xlink:title=" ">
<polygon fill="#e0e0e0" stroke="#999999" points="446,-144 406,-144 406,-124 446,-124 446,-144"/>
<text text-anchor="middle" x="426" y="-130.5" font-family="Helvetica,sans-Serif" font-size="10.00">string</text>
</a>
</g>
</g>
<!-- Node6&#45;&gt;Node11 -->
<g id="edge11_Node000006_Node000011" class="edge">
<title>Node6&#45;&gt;Node11</title>
<g id="a_edge11_Node000006_Node000011"><a xlink:title=" ">
<path fill="none" stroke="#63b8ff" d="M407.01,-179.59C409.91,-172.78 413.94,-163.32 417.54,-154.86"/>
<polygon fill="#63b8ff" stroke="#63b8ff" points="420.75,-156.26 421.45,-145.69 414.31,-153.52 420.75,-156.26"/>
</a>
</g>
</g>
<!-- Node12 -->
<g id="Node000012" class="node">
<title>Node12</title>
<g id="a_Node000012"><a xlink:title=" ">
<polygon fill="#e0e0e0" stroke="#999999" points="541.75,-144 464.25,-144 464.25,-124 541.75,-124 541.75,-144"/>
<text text-anchor="middle" x="503" y="-130.5" font-family="Helvetica,sans-Serif" font-size="10.00">unordered_set</text>
</a>
</g>
</g>
<!-- Node6&#45;&gt;Node12 -->
<g id="edge12_Node000006_Node000012" class="edge">
<title>Node6&#45;&gt;Node12</title>
<g id="a_edge12_Node000006_Node000012"><a xlink:title=" ">
<path fill="none" stroke="#63b8ff" d="M420.42,-179.59C435.67,-171.36 458.08,-159.26 475.71,-149.74"/>
<polygon fill="#63b8ff" stroke="#63b8ff" points="476.98,-153.03 484.11,-145.2 473.65,-146.87 476.98,-153.03"/>
</a>
</g>
</g>
<!-- Node13 -->
<g id="Node000013" class="node">
<title>Node13</title>
<g id="a_Node000013"><a xlink:title=" ">
<polygon fill="#e0e0e0" stroke="#999999" points="627.75,-20 574.25,-20 574.25,0 627.75,0 627.75,-20"/>
<text text-anchor="middle" x="601" y="-6.5" font-family="Helvetica,sans-Serif" font-size="10.00">iostream</text>
</a>
</g>
</g>
<!-- Node6&#45;&gt;Node13 -->
<g id="edge14_Node000006_Node000013" class="edge">
<title>Node6&#45;&gt;Node13</title>
<g id="a_edge14_Node000006_Node000013"><a xlink:title=" ">
<path fill="none" stroke="#63b8ff" d="M372.29,-185.92C325.4,-180.51 239.46,-167.58 221,-144 196.89,-113.2 195.02,-85.24 221,-56 243.46,-30.73 470.5,-17.19 562.55,-12.71"/>
<polygon fill="#63b8ff" stroke="#63b8ff" points="562.51,-16.21 572.33,-12.24 562.18,-9.22 562.51,-16.21"/>
</a>
</g>
</g>
<!-- Node8 -->
<g id="Node000008" class="node">
<title>Node8</title>
<g id="a_Node000008"><a xlink:title=" ">
<polygon fill="#e0e0e0" stroke="#999999" points="327.88,-82 230.12,-82 230.12,-62 327.88,-62 327.88,-82"/>
<text text-anchor="middle" x="279" y="-68.5" font-family="Helvetica,sans-Serif" font-size="10.00">nlohmann/json.hpp</text>
</a>
</g>
</g>
<!-- Node7&#45;&gt;Node8 -->
<g id="edge8_Node000007_Node000008" class="edge">
<title>Node7&#45;&gt;Node8</title>
<g id="a_edge8_Node000007_Node000008"><a xlink:title=" ">
<path fill="none" stroke="#63b8ff" d="M288.28,-123.62C286.8,-115.56 284.62,-103.65 282.74,-93.41"/>
<polygon fill="#63b8ff" stroke="#63b8ff" points="286.19,-92.81 280.94,-83.6 279.3,-94.07 286.19,-92.81"/>
</a>
</g>
</g>
<!-- Node7&#45;&gt;Node9 -->
<g id="edge9_Node000007_Node000009" class="edge">
<title>Node7&#45;&gt;Node9</title>
<g id="a_edge9_Node000007_Node000009"><a xlink:title=" ">
<path fill="none" stroke="#63b8ff" d="M313.91,-123.62C339.32,-113.66 379.74,-97.81 408.58,-86.5"/>
<polygon fill="#63b8ff" stroke="#63b8ff" points="409.57,-89.87 417.6,-82.96 407.01,-83.35 409.57,-89.87"/>
</a>
</g>
</g>
<!-- Node10 -->
<g id="Node000010" class="node">
<title>Node10</title>
<g id="a_Node000010"><a xlink:title=" ">
<polygon fill="#e0e0e0" stroke="#999999" points="394.5,-82 345.5,-82 345.5,-62 394.5,-62 394.5,-82"/>
<text text-anchor="middle" x="370" y="-68.5" font-family="Helvetica,sans-Serif" font-size="10.00">fstream</text>
</a>
</g>
</g>
<!-- Node7&#45;&gt;Node10 -->
<g id="edge10_Node000007_Node000010" class="edge">
<title>Node7&#45;&gt;Node10</title>
<g id="a_edge10_Node000007_Node000010"><a xlink:title=" ">
<path fill="none" stroke="#63b8ff" d="M302.5,-123.62C314.83,-114.38 333.91,-100.07 348.65,-89.01"/>
<polygon fill="#63b8ff" stroke="#63b8ff" points="350.48,-92.02 356.38,-83.22 346.28,-86.42 350.48,-92.02"/>
</a>
</g>
</g>
<!-- Node15 -->
<g id="Node000015" class="node">
<title>Node15</title>
<g id="a_Node000015"><a xlink:href="../../df/d13/console__linux_8hpp.html" target="_top" xlink:title=" ">
<polygon fill="white" stroke="#666666" points="857,-144 763,-144 763,-124 857,-124 857,-144"/>
<text text-anchor="middle" x="810" y="-130.5" font-family="Helvetica,sans-Serif" font-size="10.00">console_linux.hpp</text>
</a>
</g>
</g>
<!-- Node14&#45;&gt;Node15 -->
<g id="edge16_Node000014_Node000015" class="edge">
<title>Node14&#45;&gt;Node15</title>
<g id="a_edge16_Node000014_Node000015"><a xlink:title=" ">
<path fill="none" stroke="#63b8ff" d="M668.79,-179.59C696.57,-170.82 738.25,-157.66 769.14,-147.9"/>
<polygon fill="#63b8ff" stroke="#63b8ff" points="770.06,-151.28 778.54,-144.94 767.95,-144.61 770.06,-151.28"/>
</a>
</g>
</g>
<!-- Node16 -->
<g id="Node000016" class="node">
<title>Node16</title>
<g id="a_Node000016"><a xlink:href="../../dd/d90/system_8hpp.html" target="_top" xlink:title=" ">
<polygon fill="white" stroke="#666666" points="1045.38,-82 914.62,-82 914.62,-62 1045.38,-62 1045.38,-82"/>
<text text-anchor="middle" x="980" y="-68.5" font-family="Helvetica,sans-Serif" font-size="10.00">sokoban_core/system.hpp</text>
</a>
</g>
</g>
<!-- Node15&#45;&gt;Node16 -->
<g id="edge17_Node000015_Node000016" class="edge">
<title>Node15&#45;&gt;Node16</title>
<g id="a_edge17_Node000015_Node000016"><a xlink:title=" ">
<path fill="none" stroke="#63b8ff" d="M836.56,-123.62C865.05,-113.57 910.5,-97.53 942.6,-86.2"/>
<polygon fill="#63b8ff" stroke="#63b8ff" points="943.65,-89.54 951.92,-82.91 941.32,-82.94 943.65,-89.54"/>
</a>
</g>
</g>
<!-- Node17 -->
<g id="Node000017" class="node">
<title>Node17</title>
<g id="a_Node000017"><a xlink:title=" ">
<polygon fill="#e0e0e0" stroke="#999999" points="1054.25,-20 997.75,-20 997.75,0 1054.25,0 1054.25,-20"/>
<text text-anchor="middle" x="1026" y="-6.5" font-family="Helvetica,sans-Serif" font-size="10.00">termios.h</text>
</a>
</g>
</g>
<!-- Node15&#45;&gt;Node17 -->
<g id="edge28_Node000015_Node000017" class="edge">
<title>Node15&#45;&gt;Node17</title>
<g id="a_edge28_Node000015_Node000017"><a xlink:title=" ">
<path fill="none" stroke="#63b8ff" d="M857.32,-131.22C921.09,-127.71 1029.47,-117.46 1054,-88 1068.3,-70.82 1054.49,-45.71 1041.7,-28.89"/>
<polygon fill="#63b8ff" stroke="#63b8ff" points="1044.49,-26.77 1035.46,-21.24 1039.06,-31.2 1044.49,-26.77"/>
</a>
</g>
</g>
<!-- Node18 -->
<g id="Node000018" class="node">
<title>Node18</title>
<g id="a_Node000018"><a xlink:href="../../d7/dff/key__definitions__linux_8hpp.html" target="_top" xlink:title=" ">
<polygon fill="white" stroke="#666666" points="1195.38,-88 1100.62,-88 1100.62,-56 1195.38,-56 1195.38,-88"/>
<text text-anchor="start" x="1108.62" y="-74.5" font-family="Helvetica,sans-Serif" font-size="10.00">tui/key_definitions</text>
<text text-anchor="middle" x="1148" y="-62.5" font-family="Helvetica,sans-Serif" font-size="10.00">_linux.hpp</text>
</a>
</g>
</g>
<!-- Node15&#45;&gt;Node18 -->
<g id="edge20_Node000015_Node000018" class="edge">
<title>Node15&#45;&gt;Node18</title>
<g id="a_edge20_Node000015_Node000018"><a xlink:title=" ">
<path fill="none" stroke="#63b8ff" d="M857.26,-126.5C912.57,-118.62 1006.8,-104.35 1087,-88 1087.67,-87.86 1088.34,-87.73 1089.01,-87.58"/>
<polygon fill="#63b8ff" stroke="#63b8ff" points="1089.63,-91.03 1098.65,-85.48 1088.14,-84.19 1089.63,-91.03"/>
</a>
</g>
</g>
<!-- Node19 -->
<g id="Node000019" class="node">
<title>Node19</title>
<g id="a_Node000019"><a xlink:title=" ">
<polygon fill="#e0e0e0" stroke="#999999" points="1207.62,-20 1162.38,-20 1162.38,0 1207.62,0 1207.62,-20"/>
<text text-anchor="middle" x="1185" y="-6.5" font-family="Helvetica,sans-Serif" font-size="10.00">cstdint</text>
</a>
</g>
</g>
<!-- Node15&#45;&gt;Node19 -->
<g id="edge29_Node000015_Node000019" class="edge">
<title>Node15&#45;&gt;Node19</title>
<g id="a_edge29_Node000015_Node000019"><a xlink:title=" ">
<path fill="none" stroke="#63b8ff" d="M857.26,-131.07C956.9,-126.51 1181.25,-113.49 1204,-88 1218.27,-72.01 1208.16,-46.99 1198.04,-29.84"/>
<polygon fill="#63b8ff" stroke="#63b8ff" points="1201.11,-28.14 1192.77,-21.6 1195.21,-31.91 1201.11,-28.14"/>
</a>
</g>
</g>
<!-- Node20 -->
<g id="Node000020" class="node">
<title>Node20</title>
<g id="a_Node000020"><a xlink:title=" ">
<polygon fill="#e0e0e0" stroke="#999999" points="536.62,-82 491.38,-82 491.38,-62 536.62,-62 536.62,-82"/>
<text text-anchor="middle" x="514" y="-68.5" font-family="Helvetica,sans-Serif" font-size="10.00">stdio.h</text>
</a>
</g>
</g>
<!-- Node15&#45;&gt;Node20 -->
<g id="edge22_Node000015_Node000020" class="edge">
<title>Node15&#45;&gt;Node20</title>
<g id="a_edge22_Node000015_Node000020"><a xlink:title=" ">
<path fill="none" stroke="#63b8ff" d="M762.61,-129.02C708.84,-123.58 619.01,-111.66 545,-88 543.86,-87.64 542.71,-87.24 541.56,-86.81"/>
<polygon fill="#63b8ff" stroke="#63b8ff" points="543.31,-83.75 532.74,-83.05 540.57,-90.19 543.31,-83.75"/>
</a>
</g>
</g>
<!-- Node21 -->
<g id="Node000021" class="node">
<title>Node21</title>
<g id="a_Node000021"><a xlink:title=" ">
<polygon fill="#e0e0e0" stroke="#999999" points="601.75,-82 554.25,-82 554.25,-62 601.75,-62 601.75,-82"/>
<text text-anchor="middle" x="578" y="-68.5" font-family="Helvetica,sans-Serif" font-size="10.00">stdlib.h</text>
</a>
</g>
</g>
<!-- Node15&#45;&gt;Node21 -->
<g id="edge23_Node000015_Node000021" class="edge">
<title>Node15&#45;&gt;Node21</title>
<g id="a_edge23_Node000015_Node000021"><a xlink:title=" ">
<path fill="none" stroke="#63b8ff" d="M762.61,-125.11C721.82,-117.65 661.69,-105.05 611,-88 609.84,-87.61 608.66,-87.19 607.48,-86.75"/>
<polygon fill="#63b8ff" stroke="#63b8ff" points="608.91,-83.55 598.33,-82.98 606.24,-90.03 608.91,-83.55"/>
</a>
</g>
</g>
<!-- Node22 -->
<g id="Node000022" class="node">
<title>Node22</title>
<g id="a_Node000022"><a xlink:title=" ">
<polygon fill="#e0e0e0" stroke="#999999" points="681.88,-82 620.12,-82 620.12,-62 681.88,-62 681.88,-82"/>
<text text-anchor="middle" x="651" y="-68.5" font-family="Helvetica,sans-Serif" font-size="10.00">sys/time.h</text>
</a>
</g>
</g>
<!-- Node15&#45;&gt;Node22 -->
<g id="edge24_Node000015_Node000022" class="edge">
<title>Node15&#45;&gt;Node22</title>
<g id="a_edge24_Node000015_Node000022"><a xlink:title=" ">
<path fill="none" stroke="#63b8ff" d="M785.16,-123.62C758.63,-113.62 716.37,-97.67 686.38,-86.35"/>
<polygon fill="#63b8ff" stroke="#63b8ff" points="687.94,-83.2 677.35,-82.94 685.47,-89.75 687.94,-83.2"/>
</a>
</g>
</g>
<!-- Node23 -->
<g id="Node000023" class="node">
<title>Node23</title>
<g id="a_Node000023"><a xlink:title=" ">
<polygon fill="#e0e0e0" stroke="#999999" points="766.5,-82 699.5,-82 699.5,-62 766.5,-62 766.5,-82"/>
<text text-anchor="middle" x="733" y="-68.5" font-family="Helvetica,sans-Serif" font-size="10.00">sys/types.h</text>
</a>
</g>
</g>
<!-- Node15&#45;&gt;Node23 -->
<g id="edge25_Node000015_Node000023" class="edge">
<title>Node15&#45;&gt;Node23</title>
<g id="a_edge25_Node000015_Node000023"><a xlink:title=" ">
<path fill="none" stroke="#63b8ff" d="M797.97,-123.62C786.22,-114.47 768.08,-100.34 753.96,-89.33"/>
<polygon fill="#63b8ff" stroke="#63b8ff" points="756.18,-86.63 746.14,-83.24 751.88,-92.15 756.18,-86.63"/>
</a>
</g>
</g>
<!-- Node24 -->
<g id="Node000024" class="node">
<title>Node24</title>
<g id="a_Node000024"><a xlink:title=" ">
<polygon fill="#e0e0e0" stroke="#999999" points="835.25,-82 784.75,-82 784.75,-62 835.25,-62 835.25,-82"/>
<text text-anchor="middle" x="810" y="-68.5" font-family="Helvetica,sans-Serif" font-size="10.00">unistd.h</text>
</a>
</g>
</g>
<!-- Node15&#45;&gt;Node24 -->
<g id="edge26_Node000015_Node000024" class="edge">
<title>Node15&#45;&gt;Node24</title>
<g id="a_edge26_Node000015_Node000024"><a xlink:title=" ">
<path fill="none" stroke="#63b8ff" d="M810,-123.62C810,-115.56 810,-103.65 810,-93.41"/>
<polygon fill="#63b8ff" stroke="#63b8ff" points="813.5,-93.63 810,-83.63 806.5,-93.63 813.5,-93.63"/>
</a>
</g>
</g>
<!-- Node25 -->
<g id="Node000025" class="node">
<title>Node25</title>
<g id="a_Node000025"><a xlink:title=" ">
<polygon fill="#e0e0e0" stroke="#999999" points="896.5,-82 853.5,-82 853.5,-62 896.5,-62 896.5,-82"/>
<text text-anchor="middle" x="875" y="-68.5" font-family="Helvetica,sans-Serif" font-size="10.00">fcntl.h</text>
</a>
</g>
</g>
<!-- Node15&#45;&gt;Node25 -->
<g id="edge27_Node000015_Node000025" class="edge">
<title>Node15&#45;&gt;Node25</title>
<g id="a_edge27_Node000015_Node000025"><a xlink:title=" ">
<path fill="none" stroke="#63b8ff" d="M820.16,-123.62C829.94,-114.59 844.97,-100.72 856.82,-89.78"/>
<polygon fill="#63b8ff" stroke="#63b8ff" points="859.04,-92.49 864.02,-83.14 854.29,-87.35 859.04,-92.49"/>
</a>
</g>
</g>
<!-- Node16&#45;&gt;Node13 -->
<g id="edge19_Node000016_Node000013" class="edge">
<title>Node16&#45;&gt;Node13</title>
<g id="a_edge19_Node000016_Node000013"><a xlink:title=" ">
<path fill="none" stroke="#63b8ff" d="M935.46,-61.57C925.77,-59.63 915.56,-57.67 906,-56 810.31,-39.25 697,-23.63 639.15,-15.96"/>
<polygon fill="#63b8ff" stroke="#63b8ff" points="639.88,-12.53 629.51,-14.69 638.96,-19.47 639.88,-12.53"/>
</a>
</g>
</g>
<!-- Node16&#45;&gt;Node17 -->
<g id="edge18_Node000016_Node000017" class="edge">
<title>Node16&#45;&gt;Node17</title>
<g id="a_edge18_Node000016_Node000017"><a xlink:title=" ">
<path fill="none" stroke="#63b8ff" d="M987.19,-61.62C993.84,-52.94 1003.92,-39.8 1012.14,-29.08"/>
<polygon fill="#63b8ff" stroke="#63b8ff" points="1014.79,-31.38 1018.09,-21.31 1009.23,-27.12 1014.79,-31.38"/>
</a>
</g>
</g>
<!-- Node18&#45;&gt;Node19 -->
<g id="edge21_Node000018_Node000019" class="edge">
<title>Node18&#45;&gt;Node19</title>
<g id="a_edge21_Node000018_Node000019"><a xlink:title=" ">
<path fill="none" stroke="#63b8ff" d="M1157.53,-55.55C1162.35,-47.74 1168.23,-38.19 1173.32,-29.94"/>
<polygon fill="#63b8ff" stroke="#63b8ff" points="1176.13,-32.05 1178.4,-21.7 1170.18,-28.37 1176.13,-32.05"/>
</a>
</g>
</g>
</g>
</svg>
