<?xml version="1.0" encoding="UTF-8" standalone="no"?>
<!DOCTYPE svg PUBLIC "-//W3C//DTD SVG 1.1//EN"
 "http://www.w3.org/Graphics/SVG/1.1/DTD/svg11.dtd">
<!-- Generated by graphviz version 12.1.2 (20240928.0832)
 -->
<!-- Title: editor_lib/include/editor/widget.h Pages: 1 -->
<svg width="298pt" height="227pt"
 viewBox="0.00 0.00 298.00 226.75" xmlns="http://www.w3.org/2000/svg" xmlns:xlink="http://www.w3.org/1999/xlink">
<g id="graph0" class="graph" transform="scale(1 1) rotate(0) translate(4 222.75)">
<title>editor_lib/include/editor/widget.h</title>
<!-- Node1 -->
<g id="Node000001" class="node">
<title>Node1</title>
<g id="a_Node000001"><a xlink:title=" ">
<polygon fill="#999999" stroke="#666666" points="212,-218.75 123.25,-218.75 123.25,-188.25 212,-188.25 212,-218.75"/>
<text text-anchor="start" x="131.25" y="-205.25" font-family="Helvetica,sans-Serif" font-size="10.00">editor_lib/include</text>
<text text-anchor="middle" x="167.62" y="-194" font-family="Helvetica,sans-Serif" font-size="10.00">/editor/widget.h</text>
</a>
</g>
</g>
<!-- Node2 -->
<g id="Node000002" class="node">
<title>Node2</title>
<g id="a_Node000002"><a xlink:href="../../d2/dd9/controller_8h.html" target="_top" xlink:title=" ">
<polygon fill="white" stroke="#666666" points="93.25,-152.25 0,-152.25 0,-121.75 93.25,-121.75 93.25,-152.25"/>
<text text-anchor="start" x="8" y="-138.75" font-family="Helvetica,sans-Serif" font-size="10.00">editor_lib/include</text>
<text text-anchor="middle" x="46.62" y="-127.5" font-family="Helvetica,sans-Serif" font-size="10.00">/editor/controller.h</text>
</a>
</g>
</g>
<!-- Node1&#45;&gt;Node2 -->
<g id="edge1_Node000001_Node000002" class="edge">
<title>Node1&#45;&gt;Node2</title>
<g id="a_edge1_Node000001_Node000002"><a xlink:title=" ">
<path fill="none" stroke="#63b8ff" d="M130.19,-182.54C112.02,-172.86 90.58,-161.43 73.97,-152.58"/>
<polygon fill="#63b8ff" stroke="#63b8ff" points="128.36,-185.54 138.83,-187.15 131.65,-179.36 128.36,-185.54"/>
</a>
</g>
</g>
<!-- Node5 -->
<g id="Node000005" class="node">
<title>Node5</title>
<g id="a_Node000005"><a xlink:href="../../d7/deb/main__window_8h.html" target="_top" xlink:title=" ">
<polygon fill="white" stroke="#666666" points="224,-152.25 111.25,-152.25 111.25,-121.75 224,-121.75 224,-152.25"/>
<text text-anchor="start" x="119.25" y="-138.75" font-family="Helvetica,sans-Serif" font-size="10.00">editor_lib/include</text>
<text text-anchor="middle" x="167.62" y="-127.5" font-family="Helvetica,sans-Serif" font-size="10.00">/editor/main_window.h</text>
</a>
</g>
</g>
<!-- Node1&#45;&gt;Node5 -->
<g id="edge4_Node000001_Node000005" class="edge">
<title>Node1&#45;&gt;Node5</title>
<g id="a_edge4_Node000001_Node000005"><a xlink:title=" ">
<path fill="none" stroke="#63b8ff" d="M167.62,-176.56C167.62,-168.39 167.62,-159.66 167.62,-152.58"/>
<polygon fill="#63b8ff" stroke="#63b8ff" points="164.13,-176.35 167.63,-186.35 171.13,-176.35 164.13,-176.35"/>
</a>
</g>
</g>
<!-- Node6 -->
<g id="Node000006" class="node">
<title>Node6</title>
<g id="a_Node000006"><a xlink:href="../../d3/dda/view_8h.html" target="_top" xlink:title=" ">
<polygon fill="white" stroke="#666666" points="290,-85.75 201.25,-85.75 201.25,-55.25 290,-55.25 290,-85.75"/>
<text text-anchor="start" x="209.25" y="-72.25" font-family="Helvetica,sans-Serif" font-size="10.00">editor_lib/include</text>
<text text-anchor="middle" x="245.62" y="-61" font-family="Helvetica,sans-Serif" font-size="10.00">/editor/view.h</text>
</a>
</g>
</g>
<!-- Node1&#45;&gt;Node6 -->
<g id="edge6_Node000001_Node000006" class="edge">
<title>Node1&#45;&gt;Node6</title>
<g id="a_edge6_Node000001_Node000006"><a xlink:title=" ">
<path fill="none" stroke="#63b8ff" d="M204.42,-181.54C215.11,-173.69 225.75,-163.82 232.62,-152.25 244.88,-131.62 246.62,-103.04 246.39,-85.99"/>
<polygon fill="#63b8ff" stroke="#63b8ff" points="202.63,-178.52 196.35,-187.05 206.58,-184.3 202.63,-178.52"/>
</a>
</g>
</g>
<!-- Node3 -->
<g id="Node000003" class="node">
<title>Node3</title>
<g id="a_Node000003"><a xlink:href="../../d6/df0/push__button_8h.html" target="_top" xlink:title=" ">
<polygon fill="white" stroke="#666666" points="120,-85.75 13.25,-85.75 13.25,-55.25 120,-55.25 120,-85.75"/>
<text text-anchor="start" x="21.25" y="-72.25" font-family="Helvetica,sans-Serif" font-size="10.00">editor_lib/include</text>
<text text-anchor="middle" x="66.62" y="-61" font-family="Helvetica,sans-Serif" font-size="10.00">/editor/push_button.h</text>
</a>
</g>
</g>
<!-- Node2&#45;&gt;Node3 -->
<g id="edge2_Node000002_Node000003" class="edge">
<title>Node2&#45;&gt;Node3</title>
<g id="a_edge2_Node000002_Node000003"><a xlink:title=" ">
<path fill="none" stroke="#63b8ff" d="M54.49,-110.63C57.08,-102.3 59.86,-93.33 62.1,-86.08"/>
<polygon fill="#63b8ff" stroke="#63b8ff" points="51.23,-109.33 51.61,-119.92 57.92,-111.4 51.23,-109.33"/>
</a>
</g>
</g>
<!-- Node4 -->
<g id="Node000004" class="node">
<title>Node4</title>
<g id="a_Node000004"><a xlink:href="../../df/d0a/main_8cpp.html" target="_top" xlink:title=" ">
<polygon fill="white" stroke="#666666" points="203.38,-19.25 131.88,-19.25 131.88,0 203.38,0 203.38,-19.25"/>
<text text-anchor="middle" x="167.62" y="-5.75" font-family="Helvetica,sans-Serif" font-size="10.00">src/main.cpp</text>
</a>
</g>
</g>
<!-- Node3&#45;&gt;Node4 -->
<g id="edge3_Node000003_Node000004" class="edge">
<title>Node3&#45;&gt;Node4</title>
<g id="a_edge3_Node000003_Node000004"><a xlink:title=" ">
<path fill="none" stroke="#63b8ff" d="M101.61,-49.1C118.84,-39.06 138.73,-27.47 152.14,-19.65"/>
<polygon fill="#63b8ff" stroke="#63b8ff" points="100.04,-45.97 93.16,-54.03 103.56,-52.02 100.04,-45.97"/>
</a>
</g>
</g>
<!-- Node5&#45;&gt;Node4 -->
<g id="edge5_Node000005_Node000004" class="edge">
<title>Node5&#45;&gt;Node4</title>
<g id="a_edge5_Node000005_Node000004"><a xlink:title=" ">
<path fill="none" stroke="#63b8ff" d="M167.62,-110.24C167.62,-82 167.62,-38.25 167.62,-19.57"/>
<polygon fill="#63b8ff" stroke="#63b8ff" points="164.13,-110.1 167.63,-120.1 171.13,-110.1 164.13,-110.1"/>
</a>
</g>
</g>
<!-- Node6&#45;&gt;Node4 -->
<g id="edge7_Node000006_Node000004" class="edge">
<title>Node6&#45;&gt;Node4</title>
<g id="a_edge7_Node000006_Node000004"><a xlink:title=" ">
<path fill="none" stroke="#63b8ff" d="M217.3,-48.12C204.33,-38.33 189.66,-27.26 179.65,-19.7"/>
<polygon fill="#63b8ff" stroke="#63b8ff" points="215.05,-50.8 225.14,-54.03 219.26,-45.22 215.05,-50.8"/>
</a>
</g>
</g>
</g>
</svg>
