<?xml version="1.0" encoding="UTF-8" standalone="no"?>
<!DOCTYPE svg PUBLIC "-//W3C//DTD SVG 1.1//EN"
 "http://www.w3.org/Graphics/SVG/1.1/DTD/svg11.dtd">
<!-- Generated by graphviz version 12.1.1 (20240910.0053)
 -->
<!-- Title: lib_base_game/include/base_game_object_factory.hpp Pages: 1 -->
<svg width="779pt" height="276pt"
 viewBox="0.00 0.00 779.25 276.00" xmlns="http://www.w3.org/2000/svg" xmlns:xlink="http://www.w3.org/1999/xlink">
<g id="graph0" class="graph" transform="scale(1 1) rotate(0) translate(4 272)">
<title>lib_base_game/include/base_game_object_factory.hpp</title>
<!-- Node1 -->
<g id="Node000001" class="node">
<title>Node1</title>
<g id="a_Node000001"><a xlink:title=" ">
<polygon fill="#999999" stroke="#666666" points="553.5,-268 399.5,-268 399.5,-236 553.5,-236 553.5,-268"/>
<text text-anchor="start" x="407.5" y="-254.5" font-family="Helvetica,sans-Serif" font-size="10.00">lib_base_game/include</text>
<text text-anchor="middle" x="476.5" y="-242.5" font-family="Helvetica,sans-Serif" font-size="10.00">/base_game_object_factory.hpp</text>
</a>
</g>
</g>
<!-- Node2 -->
<g id="Node000002" class="node">
<title>Node2</title>
<g id="a_Node000002"><a xlink:href="../../d8/dd9/game__object__factory_8hpp.html" target="_top" xlink:title=" ">
<polygon fill="white" stroke="#666666" points="265.12,-200 129.88,-200 129.88,-168 265.12,-168 265.12,-200"/>
<text text-anchor="start" x="137.88" y="-186.5" font-family="Helvetica,sans-Serif" font-size="10.00">sokoban_core/game_object</text>
<text text-anchor="middle" x="197.5" y="-174.5" font-family="Helvetica,sans-Serif" font-size="10.00">_factory.hpp</text>
</a>
</g>
</g>
<!-- Node1&#45;&gt;Node2 -->
<g id="edge1_Node000001_Node000002" class="edge">
<title>Node1&#45;&gt;Node2</title>
<g id="a_edge1_Node000001_Node000002"><a xlink:title=" ">
<path fill="none" stroke="#63b8ff" d="M411.09,-235.53C370.05,-225.82 316.95,-213.26 273.97,-203.09"/>
<polygon fill="#63b8ff" stroke="#63b8ff" points="275,-199.74 264.46,-200.84 273.38,-206.55 275,-199.74"/>
</a>
</g>
</g>
<!-- Node8 -->
<g id="Node000008" class="node">
<title>Node8</title>
<g id="a_Node000008"><a xlink:title=" ">
<polygon fill="#e0e0e0" stroke="#999999" points="307.88,-132 225.12,-132 225.12,-112 307.88,-112 307.88,-132"/>
<text text-anchor="middle" x="266.5" y="-118.5" font-family="Helvetica,sans-Serif" font-size="10.00">unordered_map</text>
</a>
</g>
</g>
<!-- Node1&#45;&gt;Node8 -->
<g id="edge16_Node000001_Node000008" class="edge">
<title>Node1&#45;&gt;Node8</title>
<g id="a_edge16_Node000001_Node000008"><a xlink:title=" ">
<path fill="none" stroke="#63b8ff" d="M436.06,-235.6C413.95,-226.49 386.47,-214 363.5,-200 334.29,-182.19 303.92,-156.77 285.11,-140.09"/>
<polygon fill="#63b8ff" stroke="#63b8ff" points="287.53,-137.55 277.76,-133.47 282.85,-142.76 287.53,-137.55"/>
</a>
</g>
</g>
<!-- Node9 -->
<g id="Node000009" class="node">
<title>Node9</title>
<g id="a_Node000009"><a xlink:href="../../db/d42/json__utils_8hpp.html" target="_top" xlink:title=" ">
<polygon fill="white" stroke="#666666" points="492.62,-194 372.38,-194 372.38,-174 492.62,-174 492.62,-194"/>
<text text-anchor="middle" x="432.5" y="-180.5" font-family="Helvetica,sans-Serif" font-size="10.00">json_utils/json_utils.hpp</text>
</a>
</g>
</g>
<!-- Node1&#45;&gt;Node9 -->
<g id="edge11_Node000001_Node000009" class="edge">
<title>Node1&#45;&gt;Node9</title>
<g id="a_edge11_Node000001_Node000009"><a xlink:title=" ">
<path fill="none" stroke="#63b8ff" d="M466.29,-235.69C459.96,-226.2 451.78,-213.92 445.06,-203.83"/>
<polygon fill="#63b8ff" stroke="#63b8ff" points="448.01,-201.95 439.55,-195.58 442.19,-205.84 448.01,-201.95"/>
</a>
</g>
</g>
<!-- Node11 -->
<g id="Node000011" class="node">
<title>Node11</title>
<g id="a_Node000011"><a xlink:title=" ">
<polygon fill="#e0e0e0" stroke="#999999" points="569,-132 508,-132 508,-112 569,-112 569,-132"/>
<text text-anchor="middle" x="538.5" y="-118.5" font-family="Helvetica,sans-Serif" font-size="10.00">filesystem</text>
</a>
</g>
</g>
<!-- Node1&#45;&gt;Node11 -->
<g id="edge17_Node000001_Node000011" class="edge">
<title>Node1&#45;&gt;Node11</title>
<g id="a_edge17_Node000001_Node000011"><a xlink:title=" ">
<path fill="none" stroke="#63b8ff" d="M483.97,-235.84C488.95,-225.7 495.64,-212.06 501.5,-200 510.98,-180.46 521.73,-158.08 529.18,-142.5"/>
<polygon fill="#63b8ff" stroke="#63b8ff" points="532.16,-144.39 533.31,-133.86 525.84,-141.37 532.16,-144.39"/>
</a>
</g>
</g>
<!-- Node13 -->
<g id="Node000013" class="node">
<title>Node13</title>
<g id="a_Node000013"><a xlink:href="../../d6/db2/objects__to__symbol__hasher_8hpp.html" target="_top" xlink:title=" ">
<polygon fill="white" stroke="#666666" points="700,-194 549,-194 549,-174 700,-174 700,-194"/>
<text text-anchor="middle" x="624.5" y="-180.5" font-family="Helvetica,sans-Serif" font-size="10.00">objects_to_symbol_hasher.hpp</text>
</a>
</g>
</g>
<!-- Node1&#45;&gt;Node13 -->
<g id="edge15_Node000001_Node000013" class="edge">
<title>Node1&#45;&gt;Node13</title>
<g id="a_edge15_Node000001_Node000013"><a xlink:title=" ">
<path fill="none" stroke="#63b8ff" d="M511.2,-235.53C535.95,-224.49 568.95,-209.77 592.95,-199.07"/>
<polygon fill="#63b8ff" stroke="#63b8ff" points="594.2,-202.35 601.9,-195.08 591.35,-195.95 594.2,-202.35"/>
</a>
</g>
</g>
<!-- Node14 -->
<g id="Node000014" class="node">
<title>Node14</title>
<g id="a_Node000014"><a xlink:title=" ">
<polygon fill="#e0e0e0" stroke="#999999" points="771.25,-194 717.75,-194 717.75,-174 771.25,-174 771.25,-194"/>
<text text-anchor="middle" x="744.5" y="-180.5" font-family="Helvetica,sans-Serif" font-size="10.00">iostream</text>
</a>
</g>
</g>
<!-- Node1&#45;&gt;Node14 -->
<g id="edge18_Node000001_Node000014" class="edge">
<title>Node1&#45;&gt;Node14</title>
<g id="a_edge18_Node000001_Node000014"><a xlink:title=" ">
<path fill="none" stroke="#63b8ff" d="M553.81,-237.89C599.64,-229.18 658.53,-216.34 709.5,-200 710.88,-199.56 712.28,-199.08 713.69,-198.58"/>
<polygon fill="#63b8ff" stroke="#63b8ff" points="714.95,-201.85 722.98,-194.94 712.39,-195.33 714.95,-201.85"/>
</a>
</g>
</g>
<!-- Node3 -->
<g id="Node000003" class="node">
<title>Node3</title>
<g id="a_Node000003"><a xlink:href="../../d3/d3e/game__object__id_8hpp.html" target="_top" xlink:title=" ">
<polygon fill="white" stroke="#666666" points="103,-76 0,-76 0,-56 103,-56 103,-76"/>
<text text-anchor="middle" x="51.5" y="-62.5" font-family="Helvetica,sans-Serif" font-size="10.00">game_object_id.hpp</text>
</a>
</g>
</g>
<!-- Node2&#45;&gt;Node3 -->
<g id="edge2_Node000002_Node000003" class="edge">
<title>Node2&#45;&gt;Node3</title>
<g id="a_edge2_Node000002_Node000003"><a xlink:title=" ">
<path fill="none" stroke="#63b8ff" d="M129.63,-168.29C108.19,-160.65 86.06,-149.16 70.5,-132 59.49,-119.87 54.84,-101.68 52.88,-87.63"/>
<polygon fill="#63b8ff" stroke="#63b8ff" points="56.37,-87.29 51.89,-77.69 49.4,-87.98 56.37,-87.29"/>
</a>
</g>
</g>
<!-- Node6 -->
<g id="Node000006" class="node">
<title>Node6</title>
<g id="a_Node000006"><a xlink:href="../../d4/d42/game__object_8hpp.html" target="_top" xlink:title=" ">
<polygon fill="white" stroke="#666666" points="169.62,-132 79.38,-132 79.38,-112 169.62,-112 169.62,-132"/>
<text text-anchor="middle" x="124.5" y="-118.5" font-family="Helvetica,sans-Serif" font-size="10.00">game_object.hpp</text>
</a>
</g>
</g>
<!-- Node2&#45;&gt;Node6 -->
<g id="edge5_Node000002_Node000006" class="edge">
<title>Node2&#45;&gt;Node6</title>
<g id="a_edge5_Node000002_Node000006"><a xlink:title=" ">
<path fill="none" stroke="#63b8ff" d="M178.7,-167.55C168.25,-158.95 155.23,-148.26 144.58,-139.5"/>
<polygon fill="#63b8ff" stroke="#63b8ff" points="147.06,-137.01 137.12,-133.37 142.62,-142.42 147.06,-137.01"/>
</a>
</g>
</g>
<!-- Node7 -->
<g id="Node000007" class="node">
<title>Node7</title>
<g id="a_Node000007"><a xlink:title=" ">
<polygon fill="#e0e0e0" stroke="#999999" points="211,-76 168,-76 168,-56 211,-56 211,-76"/>
<text text-anchor="middle" x="189.5" y="-62.5" font-family="Helvetica,sans-Serif" font-size="10.00">vector</text>
</a>
</g>
</g>
<!-- Node2&#45;&gt;Node7 -->
<g id="edge10_Node000002_Node000007" class="edge">
<title>Node2&#45;&gt;Node7</title>
<g id="a_edge10_Node000002_Node000007"><a xlink:title=" ">
<path fill="none" stroke="#63b8ff" d="M196.45,-167.84C195.04,-147.32 192.51,-110.63 190.92,-87.62"/>
<polygon fill="#63b8ff" stroke="#63b8ff" points="194.43,-87.68 190.26,-77.95 187.45,-88.16 194.43,-87.68"/>
</a>
</g>
</g>
<!-- Node2&#45;&gt;Node8 -->
<g id="edge9_Node000002_Node000008" class="edge">
<title>Node2&#45;&gt;Node8</title>
<g id="a_edge9_Node000002_Node000008"><a xlink:title=" ">
<path fill="none" stroke="#63b8ff" d="M215.27,-167.55C225.05,-159.04 237.2,-148.48 247.22,-139.77"/>
<polygon fill="#63b8ff" stroke="#63b8ff" points="249.29,-142.6 254.54,-133.4 244.7,-137.32 249.29,-142.6"/>
</a>
</g>
</g>
<!-- Node4 -->
<g id="Node000004" class="node">
<title>Node4</title>
<g id="a_Node000004"><a xlink:title=" ">
<polygon fill="#e0e0e0" stroke="#999999" points="71.5,-20 31.5,-20 31.5,0 71.5,0 71.5,-20"/>
<text text-anchor="middle" x="51.5" y="-6.5" font-family="Helvetica,sans-Serif" font-size="10.00">string</text>
</a>
</g>
</g>
<!-- Node3&#45;&gt;Node4 -->
<g id="edge3_Node000003_Node000004" class="edge">
<title>Node3&#45;&gt;Node4</title>
<g id="a_edge3_Node000003_Node000004"><a xlink:title=" ">
<path fill="none" stroke="#63b8ff" d="M51.5,-55.59C51.5,-49.01 51.5,-39.96 51.5,-31.73"/>
<polygon fill="#63b8ff" stroke="#63b8ff" points="55,-31.81 51.5,-21.81 48,-31.81 55,-31.81"/>
</a>
</g>
</g>
<!-- Node5 -->
<g id="Node000005" class="node">
<title>Node5</title>
<g id="a_Node000005"><a xlink:title=" ">
<polygon fill="#e0e0e0" stroke="#999999" points="149.12,-20 97.88,-20 97.88,0 149.12,0 149.12,-20"/>
<text text-anchor="middle" x="123.5" y="-6.5" font-family="Helvetica,sans-Serif" font-size="10.00">memory</text>
</a>
</g>
</g>
<!-- Node3&#45;&gt;Node5 -->
<g id="edge4_Node000003_Node000005" class="edge">
<title>Node3&#45;&gt;Node5</title>
<g id="a_edge4_Node000003_Node000005"><a xlink:title=" ">
<path fill="none" stroke="#63b8ff" d="M64.04,-55.59C74.47,-47.77 89.55,-36.46 101.91,-27.19"/>
<polygon fill="#63b8ff" stroke="#63b8ff" points="103.99,-30.01 109.89,-21.21 99.79,-24.41 103.99,-30.01"/>
</a>
</g>
</g>
<!-- Node6&#45;&gt;Node3 -->
<g id="edge6_Node000006_Node000003" class="edge">
<title>Node6&#45;&gt;Node3</title>
<g id="a_edge6_Node000006_Node000003"><a xlink:title=" ">
<path fill="none" stroke="#63b8ff" d="M111.78,-111.59C101.11,-103.7 85.62,-92.24 73.02,-82.92"/>
<polygon fill="#63b8ff" stroke="#63b8ff" points="75.41,-80.33 65.29,-77.2 71.24,-85.96 75.41,-80.33"/>
</a>
</g>
</g>
<!-- Node6&#45;&gt;Node5 -->
<g id="edge7_Node000006_Node000005" class="edge">
<title>Node6&#45;&gt;Node5</title>
<g id="a_edge7_Node000006_Node000005"><a xlink:title=" ">
<path fill="none" stroke="#63b8ff" d="M124.41,-111.62C124.25,-94.01 123.91,-55.59 123.69,-31.65"/>
<polygon fill="#63b8ff" stroke="#63b8ff" points="127.19,-31.84 123.6,-21.87 120.19,-31.9 127.19,-31.84"/>
</a>
</g>
</g>
<!-- Node6&#45;&gt;Node7 -->
<g id="edge8_Node000006_Node000007" class="edge">
<title>Node6&#45;&gt;Node7</title>
<g id="a_edge8_Node000006_Node000007"><a xlink:title=" ">
<path fill="none" stroke="#63b8ff" d="M135.82,-111.59C145.14,-103.85 158.58,-92.69 169.68,-83.47"/>
<polygon fill="#63b8ff" stroke="#63b8ff" points="171.69,-86.35 177.14,-77.27 167.21,-80.96 171.69,-86.35"/>
</a>
</g>
</g>
<!-- Node10 -->
<g id="Node000010" class="node">
<title>Node10</title>
<g id="a_Node000010"><a xlink:title=" ">
<polygon fill="#e0e0e0" stroke="#999999" points="423.38,-132 325.62,-132 325.62,-112 423.38,-112 423.38,-132"/>
<text text-anchor="middle" x="374.5" y="-118.5" font-family="Helvetica,sans-Serif" font-size="10.00">nlohmann/json.hpp</text>
</a>
</g>
</g>
<!-- Node9&#45;&gt;Node10 -->
<g id="edge12_Node000009_Node000010" class="edge">
<title>Node9&#45;&gt;Node10</title>
<g id="a_edge12_Node000009_Node000010"><a xlink:title=" ">
<path fill="none" stroke="#63b8ff" d="M423.44,-173.62C414.79,-164.68 401.56,-150.99 391.03,-140.1"/>
<polygon fill="#63b8ff" stroke="#63b8ff" points="393.83,-137.96 384.36,-133.2 388.79,-142.82 393.83,-137.96"/>
</a>
</g>
</g>
<!-- Node9&#45;&gt;Node11 -->
<g id="edge13_Node000009_Node000011" class="edge">
<title>Node9&#45;&gt;Node11</title>
<g id="a_edge13_Node000009_Node000011"><a xlink:title=" ">
<path fill="none" stroke="#63b8ff" d="M449.06,-173.62C465.94,-164.07 492.38,-149.11 512.14,-137.92"/>
<polygon fill="#63b8ff" stroke="#63b8ff" points="513.76,-141.03 520.74,-133.05 510.31,-134.93 513.76,-141.03"/>
</a>
</g>
</g>
<!-- Node12 -->
<g id="Node000012" class="node">
<title>Node12</title>
<g id="a_Node000012"><a xlink:title=" ">
<polygon fill="#e0e0e0" stroke="#999999" points="490,-132 441,-132 441,-112 490,-112 490,-132"/>
<text text-anchor="middle" x="465.5" y="-118.5" font-family="Helvetica,sans-Serif" font-size="10.00">fstream</text>
</a>
</g>
</g>
<!-- Node9&#45;&gt;Node12 -->
<g id="edge14_Node000009_Node000012" class="edge">
<title>Node9&#45;&gt;Node12</title>
<g id="a_edge14_Node000009_Node000012"><a xlink:title=" ">
<path fill="none" stroke="#63b8ff" d="M437.66,-173.62C442.28,-165.21 449.22,-152.6 455.01,-142.07"/>
<polygon fill="#63b8ff" stroke="#63b8ff" points="458.01,-143.89 459.76,-133.44 451.87,-140.51 458.01,-143.89"/>
</a>
</g>
</g>
</g>
</svg>
