<?xml version="1.0" encoding="UTF-8" standalone="no"?>
<!DOCTYPE svg PUBLIC "-//W3C//DTD SVG 1.1//EN"
 "http://www.w3.org/Graphics/SVG/1.1/DTD/svg11.dtd">
<!-- Generated by graphviz version 12.1.2 (20240928.0832)
 -->
<!-- Title: MainWindow Pages: 1 -->
<svg width="73pt" height="172pt"
 viewBox="0.00 0.00 73.00 172.00" xmlns="http://www.w3.org/2000/svg" xmlns:xlink="http://www.w3.org/1999/xlink">
<g id="graph0" class="graph" transform="scale(1 1) rotate(0) translate(4 168)">
<title>MainWindow</title>
<!-- Node1 -->
<g id="Node000001" class="node">
<title>Node1</title>
<g id="a_Node000001"><a xlink:title=" ">
<polygon fill="#999999" stroke="none" points="65,-49 0,-49 0,0 65,0 65,-49"/>
<text text-anchor="start" x="4.75" y="-35.5" font-family="Helvetica,sans-Serif" font-size="10.00">MainWindow</text>
<text text-anchor="start" x="31" y="-20.5" font-family="Helvetica,sans-Serif" font-size="10.00"> </text>
<text text-anchor="start" x="31" y="-5.5" font-family="Helvetica,sans-Serif" font-size="10.00"> </text>
<polygon fill="#666666" stroke="#666666" points="0,-32 0,-32 65,-32 65,-32 0,-32"/>
<polygon fill="#666666" stroke="#666666" points="0,-17 0,-17 65,-17 65,-17 0,-17"/>
<polygon fill="none" stroke="#666666" points="0,0 0,-49 65,-49 65,0 0,0"/>
</a>
</g>
</g>
<!-- Node2 -->
<g id="Node000002" class="node">
<title>Node2</title>
<g id="a_Node000002"><a xlink:href="../../dd/ddb/classWidget.html" target="_top" xlink:title=" ">
<polygon fill="white" stroke="none" points="63,-164 2,-164 2,-85 63,-85 63,-164"/>
<text text-anchor="start" x="17.5" y="-150.5" font-family="Helvetica,sans-Serif" font-size="10.00">Widget</text>
<text text-anchor="start" x="31" y="-135.5" font-family="Helvetica,sans-Serif" font-size="10.00"> </text>
<text text-anchor="start" x="6" y="-120.5" font-family="Helvetica,sans-Serif" font-size="10.00">+</text>
<text text-anchor="start" x="16" y="-120.5" font-family="Helvetica,sans-Serif" font-size="10.00">width()</text>
<text text-anchor="start" x="6" y="-105.5" font-family="Helvetica,sans-Serif" font-size="10.00">+</text>
<text text-anchor="start" x="16" y="-105.5" font-family="Helvetica,sans-Serif" font-size="10.00">height()</text>
<text text-anchor="start" x="6" y="-90.5" font-family="Helvetica,sans-Serif" font-size="10.00">+</text>
<text text-anchor="start" x="16" y="-90.5" font-family="Helvetica,sans-Serif" font-size="10.00">addChild()</text>
<polygon fill="#666666" stroke="#666666" points="2,-147 2,-147 63,-147 63,-147 2,-147"/>
<polygon fill="#666666" stroke="#666666" points="2,-132 2,-132 63,-132 63,-132 2,-132"/>
<polygon fill="none" stroke="#666666" points="2,-85 2,-164 63,-164 63,-85 2,-85"/>
</a>
</g>
</g>
<!-- Node2&#45;&gt;Node1 -->
<g id="edge1_Node000001_Node000002" class="edge">
<title>Node2&#45;&gt;Node1</title>
<g id="a_edge1_Node000001_Node000002"><a xlink:title=" ">
<path fill="none" stroke="#63b8ff" d="M32.5,-73.71C32.5,-65.03 32.5,-56.38 32.5,-48.85"/>
<polygon fill="none" stroke="#63b8ff" points="29,-73.54 32.5,-83.54 36,-73.54 29,-73.54"/>
</a>
</g>
</g>
</g>
</svg>
