<?xml version="1.0" encoding="UTF-8" standalone="no"?>
<!DOCTYPE svg PUBLIC "-//W3C//DTD SVG 1.1//EN"
 "http://www.w3.org/Graphics/SVG/1.1/DTD/svg11.dtd">
<!-- Generated by graphviz version 12.1.2 (20240928.0832)
 -->
<!-- Title: RemoveGraphicsItemCommand Pages: 1 -->
<svg width="170pt" height="157pt"
 viewBox="0.00 0.00 170.00 157.00" xmlns="http://www.w3.org/2000/svg" xmlns:xlink="http://www.w3.org/1999/xlink">

<svg id="main" version="1.1" xmlns="http://www.w3.org/2000/svg" xmlns:xlink="http://www.w3.org/1999/xlink" xml:space="preserve">

<style type="text/css"><![CDATA[
.node, .edge {opacity: 0.7;}
.node.selected, .edge.selected {opacity: 1;}
.edge:hover path { stroke: red; }
.edge:hover polygon { stroke: red; fill: red; }
]]></style>
<script type="application/ecmascript" xlink:href="../../svg.min.js"/>
<svg id="graph" class="graph">
<g id="graph0" class="graph" transform="scale(1 1) rotate(0) translate(4 153)">
<title>RemoveGraphicsItemCommand</title>
<!-- Node1 -->
<g id="Node000001" class="node">
<title>Node1</title>
<g id="a_Node000001"><a xlink:title=" ">
<polygon fill="#999999" stroke="none" points="162,-64 0,-64 0,0 162,0 162,-64"/>
<text text-anchor="start" x="11.62" y="-50.5" font-family="Helvetica,sans-Serif" font-size="10.00">RemoveGraphicsItemCommand</text>
<text text-anchor="start" x="79.5" y="-35.5" font-family="Helvetica,sans-Serif" font-size="10.00"> </text>
<text text-anchor="start" x="4" y="-20.5" font-family="Helvetica,sans-Serif" font-size="10.00">+</text>
<text text-anchor="start" x="14" y="-20.5" font-family="Helvetica,sans-Serif" font-size="10.00">RemoveGraphicsItemCommand()</text>
<text text-anchor="start" x="4" y="-5.5" font-family="Helvetica,sans-Serif" font-size="10.00">+</text>
<text text-anchor="start" x="14" y="-5.5" font-family="Helvetica,sans-Serif" font-size="10.00">execute()</text>
<polygon fill="#666666" stroke="#666666" points="0,-47 0,-47 162,-47 162,-47 0,-47"/>
<polygon fill="#666666" stroke="#666666" points="0,-32 0,-32 162,-32 162,-32 0,-32"/>
<polygon fill="none" stroke="#666666" points="0,0 0,-64 162,-64 162,0 0,0"/>
</a>
</g>
</g>
<!-- Node2 -->
<g id="Node000002" class="node">
<title>Node2</title>
<g id="a_Node000002"><a xlink:href="../../d9/d71/classCommand.html" target="_top" xlink:title=" ">
<polygon fill="white" stroke="none" points="109.5,-149 52.5,-149 52.5,-100 109.5,-100 109.5,-149"/>
<text text-anchor="start" x="58.88" y="-135.5" font-family="Helvetica,sans-Serif" font-size="10.00">Command</text>
<text text-anchor="start" x="79.5" y="-120.5" font-family="Helvetica,sans-Serif" font-size="10.00"> </text>
<text text-anchor="start" x="56.5" y="-105.5" font-family="Helvetica,sans-Serif" font-size="10.00">+</text>
<text text-anchor="start" x="66.5" y="-105.5" font-family="Helvetica,sans-Serif" font-size="10.00">execute()</text>
<polygon fill="#666666" stroke="#666666" points="52.5,-132 52.5,-132 109.5,-132 109.5,-132 52.5,-132"/>
<polygon fill="#666666" stroke="#666666" points="52.5,-117 52.5,-117 109.5,-117 109.5,-117 52.5,-117"/>
<polygon fill="none" stroke="#666666" points="52.5,-100 52.5,-149 109.5,-149 109.5,-100 52.5,-100"/>
</a>
</g>
</g>
<!-- Node2&#45;&gt;Node1 -->
<g id="edge1_Node000001_Node000002" class="edge">
<title>Node2&#45;&gt;Node1</title>
<g id="a_edge1_Node000001_Node000002"><a xlink:title=" ">
<path fill="none" stroke="#63b8ff" d="M81,-88.93C81,-80.64 81,-71.84 81,-63.74"/>
<polygon fill="none" stroke="#63b8ff" points="77.5,-88.68 81,-98.68 84.5,-88.68 77.5,-88.68"/>
</a>
</g>
</g>
</g>
</svg>
</svg>

<style type='text/css'>
<![CDATA[
[data-mouse-over-selected='false'] { opacity: 0.7; }
[data-mouse-over-selected='true']  { opacity: 1.0; }
]]>
</style>
<script type="application/ecmascript"><![CDATA[
document.addEventListener('DOMContentLoaded', (event) => {
  highlightEdges();
  highlightAdjacentNodes();
});
]]></script>
</svg>
