<?xml version="1.0" encoding="UTF-8" standalone="no"?>
<!DOCTYPE svg PUBLIC "-//W3C//DTD SVG 1.1//EN"
 "http://www.w3.org/Graphics/SVG/1.1/DTD/svg11.dtd">
<!-- Generated by graphviz version 12.1.1 (20240910.0053)
 -->
<!-- Title: lib_sokoban_core/include/tui/console.hpp Pages: 1 -->
<svg width="759pt" height="220pt"
 viewBox="0.00 0.00 758.75 220.00" xmlns="http://www.w3.org/2000/svg" xmlns:xlink="http://www.w3.org/1999/xlink">
<g id="graph0" class="graph" transform="scale(1 1) rotate(0) translate(4 216)">
<title>lib_sokoban_core/include/tui/console.hpp</title>
<!-- Node1 -->
<g id="Node000001" class="node">
<title>Node1</title>
<g id="a_Node000001"><a xlink:title=" ">
<polygon fill="#999999" stroke="#666666" points="463,-212 337.5,-212 337.5,-180 463,-180 463,-212"/>
<text text-anchor="start" x="345.5" y="-198.5" font-family="Helvetica,sans-Serif" font-size="10.00">lib_sokoban_core/include</text>
<text text-anchor="middle" x="400.25" y="-186.5" font-family="Helvetica,sans-Serif" font-size="10.00">/tui/console.hpp</text>
</a>
</g>
</g>
<!-- Node2 -->
<g id="Node000002" class="node">
<title>Node2</title>
<g id="a_Node000002"><a xlink:href="../../df/d13/console__linux_8hpp.html" target="_top" xlink:title=" ">
<polygon fill="white" stroke="#666666" points="447.25,-144 353.25,-144 353.25,-124 447.25,-124 447.25,-144"/>
<text text-anchor="middle" x="400.25" y="-130.5" font-family="Helvetica,sans-Serif" font-size="10.00">console_linux.hpp</text>
</a>
</g>
</g>
<!-- Node1&#45;&gt;Node2 -->
<g id="edge1_Node000001_Node000002" class="edge">
<title>Node1&#45;&gt;Node2</title>
<g id="a_edge1_Node000001_Node000002"><a xlink:title=" ">
<path fill="none" stroke="#63b8ff" d="M400.25,-179.55C400.25,-172.34 400.25,-163.66 400.25,-155.88"/>
<polygon fill="#63b8ff" stroke="#63b8ff" points="403.75,-155.92 400.25,-145.92 396.75,-155.92 403.75,-155.92"/>
</a>
</g>
</g>
<!-- Node3 -->
<g id="Node000003" class="node">
<title>Node3</title>
<g id="a_Node000003"><a xlink:href="../../dd/d90/system_8hpp.html" target="_top" xlink:title=" ">
<polygon fill="white" stroke="#666666" points="176.62,-82 45.88,-82 45.88,-62 176.62,-62 176.62,-82"/>
<text text-anchor="middle" x="111.25" y="-68.5" font-family="Helvetica,sans-Serif" font-size="10.00">sokoban_core/system.hpp</text>
</a>
</g>
</g>
<!-- Node2&#45;&gt;Node3 -->
<g id="edge2_Node000002_Node000003" class="edge">
<title>Node2&#45;&gt;Node3</title>
<g id="a_edge2_Node000002_Node000003"><a xlink:title=" ">
<path fill="none" stroke="#63b8ff" d="M354.78,-123.56C304.32,-113.08 222.82,-96.16 168.17,-84.82"/>
<polygon fill="#63b8ff" stroke="#63b8ff" points="168.92,-81.4 158.42,-82.79 167.5,-88.25 168.92,-81.4"/>
</a>
</g>
</g>
<!-- Node4 -->
<g id="Node000004" class="node">
<title>Node4</title>
<g id="a_Node000004"><a xlink:title=" ">
<polygon fill="#e0e0e0" stroke="#999999" points="56.5,-20 0,-20 0,0 56.5,0 56.5,-20"/>
<text text-anchor="middle" x="28.25" y="-6.5" font-family="Helvetica,sans-Serif" font-size="10.00">termios.h</text>
</a>
</g>
</g>
<!-- Node2&#45;&gt;Node4 -->
<g id="edge13_Node000002_Node000004" class="edge">
<title>Node2&#45;&gt;Node4</title>
<g id="a_edge13_Node000002_Node000004"><a xlink:title=" ">
<path fill="none" stroke="#63b8ff" d="M353.03,-130.36C259.8,-124.69 59.15,-110.05 37.25,-88 22.83,-73.48 22.36,-49.03 24.37,-31.58"/>
<polygon fill="#63b8ff" stroke="#63b8ff" points="27.8,-32.26 25.86,-21.85 20.88,-31.2 27.8,-32.26"/>
</a>
</g>
</g>
<!-- Node6 -->
<g id="Node000006" class="node">
<title>Node6</title>
<g id="a_Node000006"><a xlink:href="../../d7/dff/key__definitions__linux_8hpp.html" target="_top" xlink:title=" ">
<polygon fill="white" stroke="#666666" points="289.62,-88 194.88,-88 194.88,-56 289.62,-56 289.62,-88"/>
<text text-anchor="start" x="202.88" y="-74.5" font-family="Helvetica,sans-Serif" font-size="10.00">tui/key_definitions</text>
<text text-anchor="middle" x="242.25" y="-62.5" font-family="Helvetica,sans-Serif" font-size="10.00">_linux.hpp</text>
</a>
</g>
</g>
<!-- Node2&#45;&gt;Node6 -->
<g id="edge5_Node000002_Node000006" class="edge">
<title>Node2&#45;&gt;Node6</title>
<g id="a_edge5_Node000002_Node000006"><a xlink:title=" ">
<path fill="none" stroke="#63b8ff" d="M375.56,-123.62C353.73,-115.33 321.16,-102.96 293.68,-92.53"/>
<polygon fill="#63b8ff" stroke="#63b8ff" points="295.05,-89.31 284.46,-89.03 292.56,-95.85 295.05,-89.31"/>
</a>
</g>
</g>
<!-- Node7 -->
<g id="Node000007" class="node">
<title>Node7</title>
<g id="a_Node000007"><a xlink:title=" ">
<polygon fill="#e0e0e0" stroke="#999999" points="301.88,-20 256.62,-20 256.62,0 301.88,0 301.88,-20"/>
<text text-anchor="middle" x="279.25" y="-6.5" font-family="Helvetica,sans-Serif" font-size="10.00">cstdint</text>
</a>
</g>
</g>
<!-- Node2&#45;&gt;Node7 -->
<g id="edge14_Node000002_Node000007" class="edge">
<title>Node2&#45;&gt;Node7</title>
<g id="a_edge14_Node000002_Node000007"><a xlink:title=" ">
<path fill="none" stroke="#63b8ff" d="M383.92,-123.56C370.3,-115.23 350.83,-102.23 336.25,-88 318.09,-70.28 301.33,-46.33 290.75,-29.87"/>
<polygon fill="#63b8ff" stroke="#63b8ff" points="293.82,-28.17 285.54,-21.56 287.89,-31.89 293.82,-28.17"/>
</a>
</g>
</g>
<!-- Node8 -->
<g id="Node000008" class="node">
<title>Node8</title>
<g id="a_Node000008"><a xlink:title=" ">
<polygon fill="#e0e0e0" stroke="#999999" points="390.88,-82 345.62,-82 345.62,-62 390.88,-62 390.88,-82"/>
<text text-anchor="middle" x="368.25" y="-68.5" font-family="Helvetica,sans-Serif" font-size="10.00">stdio.h</text>
</a>
</g>
</g>
<!-- Node2&#45;&gt;Node8 -->
<g id="edge7_Node000002_Node000008" class="edge">
<title>Node2&#45;&gt;Node8</title>
<g id="a_edge7_Node000002_Node000008"><a xlink:title=" ">
<path fill="none" stroke="#63b8ff" d="M395.25,-123.62C390.76,-115.21 384.04,-102.6 378.42,-92.07"/>
<polygon fill="#63b8ff" stroke="#63b8ff" points="381.62,-90.62 373.82,-83.45 375.44,-93.92 381.62,-90.62"/>
</a>
</g>
</g>
<!-- Node9 -->
<g id="Node000009" class="node">
<title>Node9</title>
<g id="a_Node000009"><a xlink:title=" ">
<polygon fill="#e0e0e0" stroke="#999999" points="456,-82 408.5,-82 408.5,-62 456,-62 456,-82"/>
<text text-anchor="middle" x="432.25" y="-68.5" font-family="Helvetica,sans-Serif" font-size="10.00">stdlib.h</text>
</a>
</g>
</g>
<!-- Node2&#45;&gt;Node9 -->
<g id="edge8_Node000002_Node000009" class="edge">
<title>Node2&#45;&gt;Node9</title>
<g id="a_edge8_Node000002_Node000009"><a xlink:title=" ">
<path fill="none" stroke="#63b8ff" d="M405.25,-123.62C409.74,-115.21 416.46,-102.6 422.08,-92.07"/>
<polygon fill="#63b8ff" stroke="#63b8ff" points="425.06,-93.92 426.68,-83.45 418.88,-90.62 425.06,-93.92"/>
</a>
</g>
</g>
<!-- Node10 -->
<g id="Node000010" class="node">
<title>Node10</title>
<g id="a_Node000010"><a xlink:title=" ">
<polygon fill="#e0e0e0" stroke="#999999" points="536.12,-82 474.38,-82 474.38,-62 536.12,-62 536.12,-82"/>
<text text-anchor="middle" x="505.25" y="-68.5" font-family="Helvetica,sans-Serif" font-size="10.00">sys/time.h</text>
</a>
</g>
</g>
<!-- Node2&#45;&gt;Node10 -->
<g id="edge9_Node000002_Node000010" class="edge">
<title>Node2&#45;&gt;Node10</title>
<g id="a_edge9_Node000002_Node000010"><a xlink:title=" ">
<path fill="none" stroke="#63b8ff" d="M416.66,-123.62C433.38,-114.07 459.57,-99.11 479.14,-87.92"/>
<polygon fill="#63b8ff" stroke="#63b8ff" points="480.7,-91.06 487.64,-83.06 477.23,-84.98 480.7,-91.06"/>
</a>
</g>
</g>
<!-- Node11 -->
<g id="Node000011" class="node">
<title>Node11</title>
<g id="a_Node000011"><a xlink:title=" ">
<polygon fill="#e0e0e0" stroke="#999999" points="620.75,-82 553.75,-82 553.75,-62 620.75,-62 620.75,-82"/>
<text text-anchor="middle" x="587.25" y="-68.5" font-family="Helvetica,sans-Serif" font-size="10.00">sys/types.h</text>
</a>
</g>
</g>
<!-- Node2&#45;&gt;Node11 -->
<g id="edge10_Node000002_Node000011" class="edge">
<title>Node2&#45;&gt;Node11</title>
<g id="a_edge10_Node000002_Node000011"><a xlink:title=" ">
<path fill="none" stroke="#63b8ff" d="M432.05,-123.55C461.51,-114.7 506.49,-100.93 545.25,-88 547.07,-87.39 548.93,-86.76 550.8,-86.12"/>
<polygon fill="#63b8ff" stroke="#63b8ff" points="551.83,-89.47 560.11,-82.87 549.52,-82.86 551.83,-89.47"/>
</a>
</g>
</g>
<!-- Node12 -->
<g id="Node000012" class="node">
<title>Node12</title>
<g id="a_Node000012"><a xlink:title=" ">
<polygon fill="#e0e0e0" stroke="#999999" points="689.5,-82 639,-82 639,-62 689.5,-62 689.5,-82"/>
<text text-anchor="middle" x="664.25" y="-68.5" font-family="Helvetica,sans-Serif" font-size="10.00">unistd.h</text>
</a>
</g>
</g>
<!-- Node2&#45;&gt;Node12 -->
<g id="edge11_Node000002_Node000012" class="edge">
<title>Node2&#45;&gt;Node12</title>
<g id="a_edge11_Node000002_Node000012"><a xlink:title=" ">
<path fill="none" stroke="#63b8ff" d="M447.71,-126.86C494.75,-120.05 568.53,-107.39 630.25,-88 631.6,-87.58 632.97,-87.11 634.34,-86.62"/>
<polygon fill="#63b8ff" stroke="#63b8ff" points="635.35,-89.99 643.35,-83.04 632.77,-83.48 635.35,-89.99"/>
</a>
</g>
</g>
<!-- Node13 -->
<g id="Node000013" class="node">
<title>Node13</title>
<g id="a_Node000013"><a xlink:title=" ">
<polygon fill="#e0e0e0" stroke="#999999" points="750.75,-82 707.75,-82 707.75,-62 750.75,-62 750.75,-82"/>
<text text-anchor="middle" x="729.25" y="-68.5" font-family="Helvetica,sans-Serif" font-size="10.00">fcntl.h</text>
</a>
</g>
</g>
<!-- Node2&#45;&gt;Node13 -->
<g id="edge12_Node000002_Node000013" class="edge">
<title>Node2&#45;&gt;Node13</title>
<g id="a_edge12_Node000002_Node000013"><a xlink:title=" ">
<path fill="none" stroke="#63b8ff" d="M447.68,-130.24C507.31,-125.78 612.28,-114.62 698.25,-88 699.42,-87.64 700.6,-87.24 701.79,-86.81"/>
<polygon fill="#63b8ff" stroke="#63b8ff" points="703.02,-90.09 710.85,-82.95 700.28,-83.64 703.02,-90.09"/>
</a>
</g>
</g>
<!-- Node3&#45;&gt;Node4 -->
<g id="edge3_Node000003_Node000004" class="edge">
<title>Node3&#45;&gt;Node4</title>
<g id="a_edge3_Node000003_Node000004"><a xlink:title=" ">
<path fill="none" stroke="#63b8ff" d="M98.28,-61.62C85.49,-52.38 65.69,-38.07 50.4,-27.01"/>
<polygon fill="#63b8ff" stroke="#63b8ff" points="52.51,-24.22 42.35,-21.2 48.41,-29.89 52.51,-24.22"/>
</a>
</g>
</g>
<!-- Node5 -->
<g id="Node000005" class="node">
<title>Node5</title>
<g id="a_Node000005"><a xlink:title=" ">
<polygon fill="#e0e0e0" stroke="#999999" points="138,-20 84.5,-20 84.5,0 138,0 138,-20"/>
<text text-anchor="middle" x="111.25" y="-6.5" font-family="Helvetica,sans-Serif" font-size="10.00">iostream</text>
</a>
</g>
</g>
<!-- Node3&#45;&gt;Node5 -->
<g id="edge4_Node000003_Node000005" class="edge">
<title>Node3&#45;&gt;Node5</title>
<g id="a_edge4_Node000003_Node000005"><a xlink:title=" ">
<path fill="none" stroke="#63b8ff" d="M111.25,-61.62C111.25,-53.56 111.25,-41.65 111.25,-31.41"/>
<polygon fill="#63b8ff" stroke="#63b8ff" points="114.75,-31.63 111.25,-21.63 107.75,-31.63 114.75,-31.63"/>
</a>
</g>
</g>
<!-- Node6&#45;&gt;Node7 -->
<g id="edge6_Node000006_Node000007" class="edge">
<title>Node6&#45;&gt;Node7</title>
<g id="a_edge6_Node000006_Node000007"><a xlink:title=" ">
<path fill="none" stroke="#63b8ff" d="M251.78,-55.55C256.6,-47.74 262.48,-38.19 267.57,-29.94"/>
<polygon fill="#63b8ff" stroke="#63b8ff" points="270.38,-32.05 272.65,-21.7 264.43,-28.37 270.38,-32.05"/>
</a>
</g>
</g>
</g>
</svg>
