<?xml version="1.0" encoding="UTF-8" standalone="no"?>
<!DOCTYPE svg PUBLIC "-//W3C//DTD SVG 1.1//EN"
 "http://www.w3.org/Graphics/SVG/1.1/DTD/svg11.dtd">
<!-- Generated by graphviz version 12.1.1 (20240910.0053)
 -->
<!-- Title: lib_sokoban_core/include/sokoban_core/session_context.hpp Pages: 1 -->
<svg width="481pt" height="448pt"
 viewBox="0.00 0.00 480.67 448.00" xmlns="http://www.w3.org/2000/svg" xmlns:xlink="http://www.w3.org/1999/xlink">
<g id="graph0" class="graph" transform="scale(1 1) rotate(0) translate(4 444)">
<title>lib_sokoban_core/include/sokoban_core/session_context.hpp</title>
<!-- Node1 -->
<g id="Node000001" class="node">
<title>Node1</title>
<g id="a_Node000001"><a xlink:title=" ">
<polygon fill="#999999" stroke="#666666" points="338.04,-440 165.29,-440 165.29,-408 338.04,-408 338.04,-440"/>
<text text-anchor="start" x="173.29" y="-426.5" font-family="Helvetica,sans-Serif" font-size="10.00">lib_sokoban_core/include</text>
<text text-anchor="middle" x="251.67" y="-414.5" font-family="Helvetica,sans-Serif" font-size="10.00">/sokoban_core/session_context.hpp</text>
</a>
</g>
</g>
<!-- Node2 -->
<g id="Node000002" class="node">
<title>Node2</title>
<g id="a_Node000002"><a xlink:href="../../d5/ddc/base__session__context_8hpp.html" target="_top" xlink:title=" ">
<polygon fill="white" stroke="#666666" points="214.29,-100 79.04,-100 79.04,-68 214.29,-68 214.29,-100"/>
<text text-anchor="start" x="87.04" y="-86.5" font-family="Helvetica,sans-Serif" font-size="10.00">lib_base_game/include</text>
<text text-anchor="middle" x="146.67" y="-74.5" font-family="Helvetica,sans-Serif" font-size="10.00">/base_session_context.hpp</text>
</a>
</g>
</g>
<!-- Node1&#45;&gt;Node2 -->
<g id="edge1_Node000001_Node000002" class="edge">
<title>Node1&#45;&gt;Node2</title>
<g id="a_edge1_Node000001_Node000002"><a xlink:title=" ">
<path fill="none" stroke="#63b8ff" d="M245.7,-396.68C240.13,-369.77 232.67,-326.7 232.67,-289 232.67,-289 232.67,-289 232.67,-219 232.67,-181.16 234.17,-167.81 213.67,-136 204.16,-121.26 188.85,-109.13 175.26,-100.4"/>
<polygon fill="#63b8ff" stroke="#63b8ff" points="242.25,-397.3 247.78,-406.35 249.1,-395.83 242.25,-397.3"/>
</a>
</g>
</g>
<!-- Node4 -->
<g id="Node000004" class="node">
<title>Node4</title>
<g id="a_Node000004"><a xlink:href="../../db/db9/lib__base__game_2include_2mod_8hpp.html" target="_top" xlink:title=" ">
<polygon fill="white" stroke="#666666" points="328.17,-32 213.17,-32 213.17,0 328.17,0 328.17,-32"/>
<text text-anchor="start" x="221.17" y="-18.5" font-family="Helvetica,sans-Serif" font-size="10.00">lib_base_game/include</text>
<text text-anchor="middle" x="270.67" y="-6.5" font-family="Helvetica,sans-Serif" font-size="10.00">/mod.hpp</text>
</a>
</g>
</g>
<!-- Node1&#45;&gt;Node4 -->
<g id="edge4_Node000001_Node000004" class="edge">
<title>Node1&#45;&gt;Node4</title>
<g id="a_edge4_Node000001_Node000004"><a xlink:title=" ">
<path fill="none" stroke="#63b8ff" d="M257.63,-396.68C263.21,-369.77 270.67,-326.7 270.67,-289 270.67,-289 270.67,-289 270.67,-151 270.67,-107.96 270.67,-57.15 270.67,-32.27"/>
<polygon fill="#63b8ff" stroke="#63b8ff" points="254.24,-395.83 255.56,-406.35 261.08,-397.3 254.24,-395.83"/>
</a>
</g>
</g>
<!-- Node5 -->
<g id="Node000005" class="node">
<title>Node5</title>
<g id="a_Node000005"><a xlink:href="../../d1/dab/game__action_8hpp.html" target="_top" xlink:title=" ">
<polygon fill="white" stroke="#666666" points="204.17,-372 47.17,-372 47.17,-340 204.17,-340 204.17,-372"/>
<text text-anchor="start" x="55.17" y="-358.5" font-family="Helvetica,sans-Serif" font-size="10.00">lib_sokoban_core/include</text>
<text text-anchor="middle" x="125.67" y="-346.5" font-family="Helvetica,sans-Serif" font-size="10.00">/sokoban_core/game_action.hpp</text>
</a>
</g>
</g>
<!-- Node1&#45;&gt;Node5 -->
<g id="edge5_Node000001_Node000005" class="edge">
<title>Node1&#45;&gt;Node5</title>
<g id="a_edge5_Node000001_Node000005"><a xlink:title=" ">
<path fill="none" stroke="#63b8ff" d="M211.97,-402.2C193.52,-392.54 171.97,-381.26 155.02,-372.38"/>
<polygon fill="#63b8ff" stroke="#63b8ff" points="210.3,-405.28 220.79,-406.82 213.55,-399.08 210.3,-405.28"/>
</a>
</g>
</g>
<!-- Node9 -->
<g id="Node000009" class="node">
<title>Node9</title>
<g id="a_Node000009"><a xlink:href="../../d7/d87/lib__sokoban__core_2include_2sokoban__core_2mod_8hpp.html" target="_top" xlink:title=" ">
<polygon fill="white" stroke="#666666" points="460.42,-372 334.92,-372 334.92,-340 460.42,-340 460.42,-372"/>
<text text-anchor="start" x="342.92" y="-358.5" font-family="Helvetica,sans-Serif" font-size="10.00">lib_sokoban_core/include</text>
<text text-anchor="middle" x="397.67" y="-346.5" font-family="Helvetica,sans-Serif" font-size="10.00">/sokoban_core/mod.hpp</text>
</a>
</g>
</g>
<!-- Node1&#45;&gt;Node9 -->
<g id="edge13_Node000001_Node000009" class="edge">
<title>Node1&#45;&gt;Node9</title>
<g id="a_edge13_Node000001_Node000009"><a xlink:title=" ">
<path fill="none" stroke="#63b8ff" d="M296.15,-402.89C317.76,-393.12 343.33,-381.56 363.4,-372.49"/>
<polygon fill="#63b8ff" stroke="#63b8ff" points="294.95,-399.59 287.28,-406.9 297.83,-405.97 294.95,-399.59"/>
</a>
</g>
</g>
<!-- Node3 -->
<g id="Node000003" class="node">
<title>Node3</title>
<g id="a_Node000003"><a xlink:href="../../d0/d8e/base__game__action_8cpp.html" target="_top" xlink:title=" ">
<polygon fill="white" stroke="#666666" points="135.42,-32 15.92,-32 15.92,0 135.42,0 135.42,-32"/>
<text text-anchor="start" x="23.92" y="-18.5" font-family="Helvetica,sans-Serif" font-size="10.00">lib_base_game/include</text>
<text text-anchor="middle" x="75.67" y="-6.5" font-family="Helvetica,sans-Serif" font-size="10.00">/base_game_action.cpp</text>
</a>
</g>
</g>
<!-- Node2&#45;&gt;Node3 -->
<g id="edge2_Node000002_Node000003" class="edge">
<title>Node2&#45;&gt;Node3</title>
<g id="a_edge2_Node000002_Node000003"><a xlink:title=" ">
<path fill="none" stroke="#63b8ff" d="M121.91,-59.99C112.02,-50.79 100.9,-40.46 92.05,-32.22"/>
<polygon fill="#63b8ff" stroke="#63b8ff" points="119.38,-62.42 129.09,-66.66 124.15,-57.29 119.38,-62.42"/>
</a>
</g>
</g>
<!-- Node2&#45;&gt;Node4 -->
<g id="edge3_Node000002_Node000004" class="edge">
<title>Node2&#45;&gt;Node4</title>
<g id="a_edge3_Node000002_Node000004"><a xlink:title=" ">
<path fill="none" stroke="#63b8ff" d="M185.74,-62.2C203.89,-52.54 225.1,-41.26 241.78,-32.38"/>
<polygon fill="#63b8ff" stroke="#63b8ff" points="184.26,-59.03 177.08,-66.81 187.55,-65.21 184.26,-59.03"/>
</a>
</g>
</g>
<!-- Node6 -->
<g id="Node000006" class="node">
<title>Node6</title>
<g id="a_Node000006"><a xlink:href="../../d9/dc0/base__game_8hpp.html" target="_top" xlink:title=" ">
<polygon fill="white" stroke="#666666" points="204.17,-168 89.17,-168 89.17,-136 204.17,-136 204.17,-168"/>
<text text-anchor="start" x="97.17" y="-154.5" font-family="Helvetica,sans-Serif" font-size="10.00">lib_base_game/include</text>
<text text-anchor="middle" x="146.67" y="-142.5" font-family="Helvetica,sans-Serif" font-size="10.00">/base_game.hpp</text>
</a>
</g>
</g>
<!-- Node5&#45;&gt;Node6 -->
<g id="edge6_Node000005_Node000006" class="edge">
<title>Node5&#45;&gt;Node6</title>
<g id="a_edge6_Node000005_Node000006"><a xlink:title=" ">
<path fill="none" stroke="#63b8ff" d="M141.39,-329.61C145.51,-321.69 149.43,-312.74 151.67,-304 164.02,-255.72 155.28,-195.93 149.96,-168.31"/>
<polygon fill="#63b8ff" stroke="#63b8ff" points="138.34,-327.88 136.51,-338.32 144.45,-331.3 138.34,-327.88"/>
</a>
</g>
</g>
<!-- Node7 -->
<g id="Node000007" class="node">
<title>Node7</title>
<g id="a_Node000007"><a xlink:href="../../dc/d77/base__game__action_8hpp.html" target="_top" xlink:title=" ">
<polygon fill="white" stroke="#666666" points="142.42,-304 22.92,-304 22.92,-272 142.42,-272 142.42,-304"/>
<text text-anchor="start" x="30.92" y="-290.5" font-family="Helvetica,sans-Serif" font-size="10.00">lib_base_game/include</text>
<text text-anchor="middle" x="82.67" y="-278.5" font-family="Helvetica,sans-Serif" font-size="10.00">/base_game_action.hpp</text>
</a>
</g>
</g>
<!-- Node5&#45;&gt;Node7 -->
<g id="edge8_Node000005_Node000007" class="edge">
<title>Node5&#45;&gt;Node7</title>
<g id="a_edge8_Node000005_Node000007"><a xlink:title=" ">
<path fill="none" stroke="#63b8ff" d="M109.58,-330.3C103.87,-321.55 97.62,-311.96 92.59,-304.22"/>
<polygon fill="#63b8ff" stroke="#63b8ff" points="106.48,-331.96 114.87,-338.42 112.34,-328.14 106.48,-331.96"/>
</a>
</g>
</g>
<!-- Node6&#45;&gt;Node2 -->
<g id="edge7_Node000006_Node000002" class="edge">
<title>Node6&#45;&gt;Node2</title>
<g id="a_edge7_Node000006_Node000002"><a xlink:title=" ">
<path fill="none" stroke="#63b8ff" d="M146.67,-124.31C146.67,-116.12 146.67,-107.38 146.67,-100.22"/>
<polygon fill="#63b8ff" stroke="#63b8ff" points="143.17,-124.18 146.67,-134.18 150.17,-124.18 143.17,-124.18"/>
</a>
</g>
</g>
<!-- Node7&#45;&gt;Node3 -->
<g id="edge12_Node000007_Node000003" class="edge">
<title>Node7&#45;&gt;Node3</title>
<g id="a_edge12_Node000007_Node000003"><a xlink:title=" ">
<path fill="none" stroke="#63b8ff" d="M39.01,-265.33C28.1,-257.66 17.77,-247.91 11.67,-236 -24.94,-164.63 36.41,-69.14 63.65,-32.35"/>
<polygon fill="#63b8ff" stroke="#63b8ff" points="37.08,-268.26 47.38,-270.72 40.87,-262.37 37.08,-268.26"/>
</a>
</g>
</g>
<!-- Node8 -->
<g id="Node000008" class="node">
<title>Node8</title>
<g id="a_Node000008"><a xlink:href="../../db/d29/base__action__factory_8hpp.html" target="_top" xlink:title=" ">
<polygon fill="white" stroke="#666666" points="145.04,-236 20.29,-236 20.29,-204 145.04,-204 145.04,-236"/>
<text text-anchor="start" x="28.29" y="-222.5" font-family="Helvetica,sans-Serif" font-size="10.00">lib_base_game/include</text>
<text text-anchor="middle" x="82.67" y="-210.5" font-family="Helvetica,sans-Serif" font-size="10.00">/base_action_factory.hpp</text>
</a>
</g>
</g>
<!-- Node7&#45;&gt;Node8 -->
<g id="edge9_Node000007_Node000008" class="edge">
<title>Node7&#45;&gt;Node8</title>
<g id="a_edge9_Node000007_Node000008"><a xlink:title=" ">
<path fill="none" stroke="#63b8ff" d="M82.67,-260.31C82.67,-252.12 82.67,-243.38 82.67,-236.22"/>
<polygon fill="#63b8ff" stroke="#63b8ff" points="79.17,-260.18 82.67,-270.18 86.17,-260.18 79.17,-260.18"/>
</a>
</g>
</g>
<!-- Node8&#45;&gt;Node2 -->
<g id="edge11_Node000008_Node000002" class="edge">
<title>Node8&#45;&gt;Node2</title>
<g id="a_edge11_Node000008_Node000002"><a xlink:title=" ">
<path fill="none" stroke="#63b8ff" d="M75.55,-192.85C72.34,-175.79 70.98,-153.53 79.67,-136 87.2,-120.81 101.66,-108.91 115.23,-100.44"/>
<polygon fill="#63b8ff" stroke="#63b8ff" points="72.04,-193.22 77.63,-202.23 78.88,-191.7 72.04,-193.22"/>
</a>
</g>
</g>
<!-- Node8&#45;&gt;Node6 -->
<g id="edge10_Node000008_Node000006" class="edge">
<title>Node8&#45;&gt;Node6</title>
<g id="a_edge10_Node000008_Node000006"><a xlink:title=" ">
<path fill="none" stroke="#63b8ff" d="M105.52,-195.43C114.3,-186.38 124.08,-176.29 131.9,-168.22"/>
<polygon fill="#63b8ff" stroke="#63b8ff" points="103.01,-192.99 98.56,-202.61 108.04,-197.86 103.01,-192.99"/>
</a>
</g>
</g>
<!-- Node9&#45;&gt;Node4 -->
<g id="edge14_Node000009_Node000004" class="edge">
<title>Node9&#45;&gt;Node4</title>
<g id="a_edge14_Node000009_Node000004"><a xlink:title=" ">
<path fill="none" stroke="#63b8ff" d="M420.9,-331.16C442.93,-305.96 472.67,-263.98 472.67,-221 472.67,-221 472.67,-221 472.67,-151 472.67,-81.35 388.24,-45.75 328.55,-29.29"/>
<polygon fill="#63b8ff" stroke="#63b8ff" points="418.34,-328.78 414.22,-338.54 423.53,-333.48 418.34,-328.78"/>
</a>
</g>
</g>
<!-- Node10 -->
<g id="Node000010" class="node">
<title>Node10</title>
<g id="a_Node000010"><a xlink:href="../../df/d0a/main_8cpp.html" target="_top" xlink:title=" ">
<polygon fill="white" stroke="#666666" points="434.04,-230 309.29,-230 309.29,-210 434.04,-210 434.04,-230"/>
<text text-anchor="middle" x="371.67" y="-216.5" font-family="Helvetica,sans-Serif" font-size="10.00">sokoban_driver/main.cpp</text>
</a>
</g>
</g>
<!-- Node9&#45;&gt;Node10 -->
<g id="edge15_Node000009_Node000010" class="edge">
<title>Node9&#45;&gt;Node10</title>
<g id="a_edge15_Node000009_Node000010"><a xlink:title=" ">
<path fill="none" stroke="#63b8ff" d="M410.53,-329.54C417.19,-312.83 422.62,-290.71 415.67,-272 409.31,-254.9 394.36,-239.7 383.65,-230.44"/>
<polygon fill="#63b8ff" stroke="#63b8ff" points="407.52,-327.69 406.7,-338.25 413.92,-330.5 407.52,-327.69"/>
</a>
</g>
</g>
<!-- Node11 -->
<g id="Node000011" class="node">
<title>Node11</title>
<g id="a_Node000011"><a xlink:href="../../d5/d6f/mod__dynamic__library_8hpp.html" target="_top" xlink:title=" ">
<polygon fill="white" stroke="#666666" points="406.42,-304 298.92,-304 298.92,-272 406.42,-272 406.42,-304"/>
<text text-anchor="start" x="306.92" y="-290.5" font-family="Helvetica,sans-Serif" font-size="10.00">sokoban_driver/mod</text>
<text text-anchor="middle" x="352.67" y="-278.5" font-family="Helvetica,sans-Serif" font-size="10.00">_dynamic_library.hpp</text>
</a>
</g>
</g>
<!-- Node9&#45;&gt;Node11 -->
<g id="edge16_Node000009_Node000011" class="edge">
<title>Node9&#45;&gt;Node11</title>
<g id="a_edge16_Node000009_Node000011"><a xlink:title=" ">
<path fill="none" stroke="#63b8ff" d="M380.83,-330.3C374.86,-321.55 368.32,-311.96 363.05,-304.22"/>
<polygon fill="#63b8ff" stroke="#63b8ff" points="377.85,-332.15 386.38,-338.44 383.64,-328.21 377.85,-332.15"/>
</a>
</g>
</g>
<!-- Node11&#45;&gt;Node10 -->
<g id="edge17_Node000011_Node000010" class="edge">
<title>Node11&#45;&gt;Node10</title>
<g id="a_edge17_Node000011_Node000010"><a xlink:title=" ">
<path fill="none" stroke="#63b8ff" d="M360.25,-260.66C363.34,-249.92 366.71,-238.21 368.99,-230.32"/>
<polygon fill="#63b8ff" stroke="#63b8ff" points="356.9,-259.66 357.49,-270.24 363.62,-261.6 356.9,-259.66"/>
</a>
</g>
</g>
</g>
</svg>
