<?xml version="1.0" encoding="UTF-8" standalone="no"?>
<!DOCTYPE svg PUBLIC "-//W3C//DTD SVG 1.1//EN"
 "http://www.w3.org/Graphics/SVG/1.1/DTD/svg11.dtd">
<!-- Generated by graphviz version 12.1.1 (20240910.0053)
 -->
<!-- Title: lib_sokoban_core/include/sokoban_core/action_result.hpp Pages: 1 -->
<svg width="272pt" height="152pt"
 viewBox="0.00 0.00 271.75 152.00" xmlns="http://www.w3.org/2000/svg" xmlns:xlink="http://www.w3.org/1999/xlink">
<g id="graph0" class="graph" transform="scale(1 1) rotate(0) translate(4 148)">
<title>lib_sokoban_core/include/sokoban_core/action_result.hpp</title>
<!-- Node1 -->
<g id="Node000001" class="node">
<title>Node1</title>
<g id="a_Node000001"><a xlink:title=" ">
<polygon fill="#999999" stroke="#666666" points="225.38,-144 68.38,-144 68.38,-112 225.38,-112 225.38,-144"/>
<text text-anchor="start" x="76.38" y="-130.5" font-family="Helvetica,sans-Serif" font-size="10.00">lib_sokoban_core/include</text>
<text text-anchor="middle" x="146.88" y="-118.5" font-family="Helvetica,sans-Serif" font-size="10.00">/sokoban_core/action_result.hpp</text>
</a>
</g>
</g>
<!-- Node2 -->
<g id="Node000002" class="node">
<title>Node2</title>
<g id="a_Node000002"><a xlink:href="../../dd/dc8/game__state_8hpp.html" target="_top" xlink:title=" ">
<polygon fill="white" stroke="#666666" points="85.75,-76 0,-76 0,-56 85.75,-56 85.75,-76"/>
<text text-anchor="middle" x="42.88" y="-62.5" font-family="Helvetica,sans-Serif" font-size="10.00">game_state.hpp</text>
</a>
</g>
</g>
<!-- Node1&#45;&gt;Node2 -->
<g id="edge1_Node000001_Node000002" class="edge">
<title>Node1&#45;&gt;Node2</title>
<g id="a_edge1_Node000001_Node000002"><a xlink:title=" ">
<path fill="none" stroke="#63b8ff" d="M120.09,-111.55C104.29,-102.43 84.4,-90.96 68.76,-81.93"/>
<polygon fill="#63b8ff" stroke="#63b8ff" points="70.9,-79.13 60.49,-77.16 67.41,-85.19 70.9,-79.13"/>
</a>
</g>
</g>
<!-- Node4 -->
<g id="Node000004" class="node">
<title>Node4</title>
<g id="a_Node000004"><a xlink:title=" ">
<polygon fill="#e0e0e0" stroke="#999999" points="135.75,-76 104,-76 104,-56 135.75,-56 135.75,-76"/>
<text text-anchor="middle" x="119.88" y="-62.5" font-family="Helvetica,sans-Serif" font-size="10.00">any</text>
</a>
</g>
</g>
<!-- Node1&#45;&gt;Node4 -->
<g id="edge3_Node000001_Node000004" class="edge">
<title>Node1&#45;&gt;Node4</title>
<g id="a_edge3_Node000001_Node000004"><a xlink:title=" ">
<path fill="none" stroke="#63b8ff" d="M139.92,-111.55C136.52,-104 132.39,-94.82 128.77,-86.77"/>
<polygon fill="#63b8ff" stroke="#63b8ff" points="132.03,-85.47 124.73,-77.79 125.64,-88.34 132.03,-85.47"/>
</a>
</g>
</g>
<!-- Node5 -->
<g id="Node000005" class="node">
<title>Node5</title>
<g id="a_Node000005"><a xlink:title=" ">
<polygon fill="#e0e0e0" stroke="#999999" points="196.38,-76 153.38,-76 153.38,-56 196.38,-56 196.38,-76"/>
<text text-anchor="middle" x="174.88" y="-62.5" font-family="Helvetica,sans-Serif" font-size="10.00">vector</text>
</a>
</g>
</g>
<!-- Node1&#45;&gt;Node5 -->
<g id="edge4_Node000001_Node000005" class="edge">
<title>Node1&#45;&gt;Node5</title>
<g id="a_edge4_Node000001_Node000005"><a xlink:title=" ">
<path fill="none" stroke="#63b8ff" d="M154.09,-111.55C157.61,-104 161.89,-94.82 165.65,-86.77"/>
<polygon fill="#63b8ff" stroke="#63b8ff" points="168.79,-88.32 169.84,-77.78 162.44,-85.36 168.79,-88.32"/>
</a>
</g>
</g>
<!-- Node6 -->
<g id="Node000006" class="node">
<title>Node6</title>
<g id="a_Node000006"><a xlink:title=" ">
<polygon fill="#e0e0e0" stroke="#999999" points="263.75,-76 214,-76 214,-56 263.75,-56 263.75,-76"/>
<text text-anchor="middle" x="238.88" y="-62.5" font-family="Helvetica,sans-Serif" font-size="10.00">optional</text>
</a>
</g>
</g>
<!-- Node1&#45;&gt;Node6 -->
<g id="edge5_Node000001_Node000006" class="edge">
<title>Node1&#45;&gt;Node6</title>
<g id="a_edge5_Node000001_Node000006"><a xlink:title=" ">
<path fill="none" stroke="#63b8ff" d="M170.57,-111.55C184.28,-102.61 201.47,-91.39 215.18,-82.45"/>
<polygon fill="#63b8ff" stroke="#63b8ff" points="216.72,-85.63 223.18,-77.23 212.89,-79.77 216.72,-85.63"/>
</a>
</g>
</g>
<!-- Node3 -->
<g id="Node000003" class="node">
<title>Node3</title>
<g id="a_Node000003"><a xlink:title=" ">
<polygon fill="#e0e0e0" stroke="#999999" points="70.75,-20 15,-20 15,0 70.75,0 70.75,-20"/>
<text text-anchor="middle" x="42.88" y="-6.5" font-family="Helvetica,sans-Serif" font-size="10.00">cinttypes</text>
</a>
</g>
</g>
<!-- Node2&#45;&gt;Node3 -->
<g id="edge2_Node000002_Node000003" class="edge">
<title>Node2&#45;&gt;Node3</title>
<g id="a_edge2_Node000002_Node000003"><a xlink:title=" ">
<path fill="none" stroke="#63b8ff" d="M42.88,-55.59C42.88,-49.01 42.88,-39.96 42.88,-31.73"/>
<polygon fill="#63b8ff" stroke="#63b8ff" points="46.38,-31.81 42.88,-21.81 39.38,-31.81 46.38,-31.81"/>
</a>
</g>
</g>
</g>
</svg>
