<?xml version="1.0" encoding="UTF-8" standalone="no"?>
<!DOCTYPE svg PUBLIC "-//W3C//DTD SVG 1.1//EN"
 "http://www.w3.org/Graphics/SVG/1.1/DTD/svg11.dtd">
<!-- Generated by graphviz version 12.1.1 (20240910.0053)
 -->
<!-- Title: sokoban::MultimodalInterface Pages: 1 -->
<svg width="152pt" height="160pt"
 viewBox="0.00 0.00 152.00 160.00" xmlns="http://www.w3.org/2000/svg" xmlns:xlink="http://www.w3.org/1999/xlink">

<svg id="main" version="1.1" xmlns="http://www.w3.org/2000/svg" xmlns:xlink="http://www.w3.org/1999/xlink" xml:space="preserve" onload="init(evt)">
<style type="text/css"><![CDATA[
.node, .edge {opacity: 0.7;}
.node.selected, .edge.selected {opacity: 1;}
.edge:hover path { stroke: red; }
.edge:hover polygon { stroke: red; fill: red; }
]]></style>
<script type="application/ecmascript" xlink:href="../../svg.min.js"/>
<svg id="graph" class="graph">
<g id="graph0" class="graph" transform="scale(1 1) rotate(0) translate(4 156)">
<title>sokoban::MultimodalInterface</title>
<!-- Node1 -->
<g id="Node000001" class="node">
<title>Node1</title>
<g id="a_Node000001"><a xlink:title=" ">
<polygon fill="#999999" stroke="none" points="141,-152 3,-152 3,-100 141,-100 141,-152"/>
<text text-anchor="start" x="7.88" y="-138.5" font-family="Helvetica,sans-Serif" font-size="10.00">sokoban::MultimodalInterface</text>
<text text-anchor="start" x="70.5" y="-122.5" font-family="Helvetica,sans-Serif" font-size="10.00"> </text>
<text text-anchor="start" x="12.5" y="-106.5" font-family="Helvetica,sans-Serif" font-size="10.00">+</text>
<text text-anchor="start" x="28" y="-106.5" font-family="Helvetica,sans-Serif" font-size="10.00">~MultimodalInterface()</text>
<polygon fill="#666666" stroke="#666666" points="3,-134 3,-134 141,-134 141,-134 3,-134"/>
<polygon fill="#666666" stroke="#666666" points="3,-118 3,-118 141,-118 141,-118 3,-118"/>
<polygon fill="none" stroke="#666666" points="3,-100 3,-152 141,-152 141,-100 3,-100"/>
</a>
</g>
</g>
<!-- Node2 -->
<g id="Node000002" class="node">
<title>Node2</title>
<g id="a_Node000002"><a xlink:href="../../d6/dc2/classsokoban_1_1sbg_1_1_base_multimodal_interface.html" target="_top" xlink:title=" ">
<polygon fill="white" stroke="none" points="144,-64 0,-64 0,0 144,0 144,-64"/>
<text text-anchor="start" x="4.88" y="-50.5" font-family="Helvetica,sans-Serif" font-size="10.00">sokoban::sbg::BaseMultimodal</text>
<text text-anchor="start" x="52.88" y="-38.5" font-family="Helvetica,sans-Serif" font-size="10.00">Interface</text>
<text text-anchor="start" x="70.5" y="-22.5" font-family="Helvetica,sans-Serif" font-size="10.00"> </text>
<text text-anchor="start" x="70.5" y="-6.5" font-family="Helvetica,sans-Serif" font-size="10.00"> </text>
<polygon fill="#666666" stroke="#666666" points="0,-34 0,-34 144,-34 144,-34 0,-34"/>
<polygon fill="#666666" stroke="#666666" points="0,-18 0,-18 144,-18 144,-18 0,-18"/>
<polygon fill="none" stroke="#666666" points="0,0 0,-64 144,-64 144,0 0,0"/>
</a>
</g>
</g>
<!-- Node1&#45;&gt;Node2 -->
<g id="edge1_Node000001_Node000002" class="edge">
<title>Node1&#45;&gt;Node2</title>
<g id="a_edge1_Node000001_Node000002"><a xlink:title=" ">
<path fill="none" stroke="#63b8ff" d="M72,-89.06C72,-80.78 72,-72.04 72,-63.98"/>
<polygon fill="none" stroke="#63b8ff" points="68.5,-88.83 72,-98.83 75.5,-88.83 68.5,-88.83"/>
</a>
</g>
</g>
</g>
</svg>
</svg>

<style type='text/css'>
<![CDATA[
[data-mouse-over-selected='false'] { opacity: 0.7; }
[data-mouse-over-selected='true']  { opacity: 1.0; }
]]>
</style>
<script type="application/ecmascript"><![CDATA[
document.addEventListener('DOMContentLoaded', (event) => {
  highlightEdges();
  highlightAdjacentNodes();
});
]]></script>
</svg>
