<?xml version="1.0" encoding="UTF-8" standalone="no"?>
<!DOCTYPE svg PUBLIC "-//W3C//DTD SVG 1.1//EN"
 "http://www.w3.org/Graphics/SVG/1.1/DTD/svg11.dtd">
<!-- Generated by graphviz version 12.1.1 (20240910.0053)
 -->
<!-- Title: lib_sokoban_core/include/sokoban_core/game_object_factory.hpp Pages: 1 -->
<svg width="316pt" height="220pt"
 viewBox="0.00 0.00 315.88 220.00" xmlns="http://www.w3.org/2000/svg" xmlns:xlink="http://www.w3.org/1999/xlink">

<svg id="main" version="1.1" xmlns="http://www.w3.org/2000/svg" xmlns:xlink="http://www.w3.org/1999/xlink" xml:space="preserve" onload="init(evt)">
<style type="text/css"><![CDATA[
.node, .edge {opacity: 0.7;}
.node.selected, .edge.selected {opacity: 1;}
.edge:hover path { stroke: red; }
.edge:hover polygon { stroke: red; fill: red; }
]]></style>
<script type="application/ecmascript" xlink:href="../../svg.min.js"/>
<svg id="graph" class="graph">
<g id="graph0" class="graph" transform="scale(1 1) rotate(0) translate(4 216)">
<title>lib_sokoban_core/include/sokoban_core/game_object_factory.hpp</title>
<!-- Node1 -->
<g id="Node000001" class="node">
<title>Node1</title>
<g id="a_Node000001"><a xlink:title=" ">
<polygon fill="#999999" stroke="#666666" points="229.62,-212 91.38,-212 91.38,-168 229.62,-168 229.62,-212"/>
<text text-anchor="start" x="99.38" y="-198.5" font-family="Helvetica,sans-Serif" font-size="10.00">lib_sokoban_core/include</text>
<text text-anchor="start" x="99.38" y="-186.5" font-family="Helvetica,sans-Serif" font-size="10.00">/sokoban_core/game_object</text>
<text text-anchor="middle" x="160.5" y="-174.5" font-family="Helvetica,sans-Serif" font-size="10.00">_factory.hpp</text>
</a>
</g>
</g>
<!-- Node2 -->
<g id="Node000002" class="node">
<title>Node2</title>
<g id="a_Node000002"><a xlink:href="../../d3/d3e/game__object__id_8hpp.html" target="_top" xlink:title=" ">
<polygon fill="white" stroke="#666666" points="103,-76 0,-76 0,-56 103,-56 103,-76"/>
<text text-anchor="middle" x="51.5" y="-62.5" font-family="Helvetica,sans-Serif" font-size="10.00">game_object_id.hpp</text>
</a>
</g>
</g>
<!-- Node1&#45;&gt;Node2 -->
<g id="edge1_Node000001_Node000002" class="edge">
<title>Node1&#45;&gt;Node2</title>
<g id="a_edge1_Node000001_Node000002"><a xlink:title=" ">
<path fill="none" stroke="#63b8ff" d="M113.36,-167.76C97.79,-158.71 81.62,-146.78 70.5,-132 60.76,-119.06 56,-101.21 53.68,-87.49"/>
<polygon fill="#63b8ff" stroke="#63b8ff" points="57.18,-87.25 52.37,-77.81 50.24,-88.19 57.18,-87.25"/>
</a>
</g>
</g>
<!-- Node5 -->
<g id="Node000005" class="node">
<title>Node5</title>
<g id="a_Node000005"><a xlink:href="../../d4/d42/game__object_8hpp.html" target="_top" xlink:title=" ">
<polygon fill="white" stroke="#666666" points="169.62,-132 79.38,-132 79.38,-112 169.62,-112 169.62,-132"/>
<text text-anchor="middle" x="124.5" y="-118.5" font-family="Helvetica,sans-Serif" font-size="10.00">game_object.hpp</text>
</a>
</g>
</g>
<!-- Node1&#45;&gt;Node5 -->
<g id="edge4_Node000001_Node000005" class="edge">
<title>Node1&#45;&gt;Node5</title>
<g id="a_edge4_Node000001_Node000005"><a xlink:title=" ">
<path fill="none" stroke="#63b8ff" d="M148.91,-167.75C144.45,-159.57 139.37,-150.27 135.02,-142.28"/>
<polygon fill="#63b8ff" stroke="#63b8ff" points="138.22,-140.85 130.36,-133.75 132.08,-144.2 138.22,-140.85"/>
</a>
</g>
</g>
<!-- Node6 -->
<g id="Node000006" class="node">
<title>Node6</title>
<g id="a_Node000006"><a xlink:title=" ">
<polygon fill="#e0e0e0" stroke="#999999" points="211,-76 168,-76 168,-56 211,-56 211,-76"/>
<text text-anchor="middle" x="189.5" y="-62.5" font-family="Helvetica,sans-Serif" font-size="10.00">vector</text>
</a>
</g>
</g>
<!-- Node1&#45;&gt;Node6 -->
<g id="edge9_Node000001_Node000006" class="edge">
<title>Node1&#45;&gt;Node6</title>
<g id="a_edge9_Node000001_Node000006"><a xlink:title=" ">
<path fill="none" stroke="#63b8ff" d="M168.05,-167.54C171.58,-156.94 175.63,-143.9 178.5,-132 182.04,-117.31 184.86,-100.49 186.75,-87.64"/>
<polygon fill="#63b8ff" stroke="#63b8ff" points="190.2,-88.23 188.12,-77.84 183.27,-87.26 190.2,-88.23"/>
</a>
</g>
</g>
<!-- Node7 -->
<g id="Node000007" class="node">
<title>Node7</title>
<g id="a_Node000007"><a xlink:title=" ">
<polygon fill="#e0e0e0" stroke="#999999" points="307.88,-132 225.12,-132 225.12,-112 307.88,-112 307.88,-132"/>
<text text-anchor="middle" x="266.5" y="-118.5" font-family="Helvetica,sans-Serif" font-size="10.00">unordered_map</text>
</a>
</g>
</g>
<!-- Node1&#45;&gt;Node7 -->
<g id="edge8_Node000001_Node000007" class="edge">
<title>Node1&#45;&gt;Node7</title>
<g id="a_edge8_Node000001_Node000007"><a xlink:title=" ">
<path fill="none" stroke="#63b8ff" d="M194.92,-167.57C210.29,-158 228.05,-146.94 242.03,-138.24"/>
<polygon fill="#63b8ff" stroke="#63b8ff" points="243.53,-141.42 250.17,-133.17 239.83,-135.48 243.53,-141.42"/>
</a>
</g>
</g>
<!-- Node3 -->
<g id="Node000003" class="node">
<title>Node3</title>
<g id="a_Node000003"><a xlink:title=" ">
<polygon fill="#e0e0e0" stroke="#999999" points="71.5,-20 31.5,-20 31.5,0 71.5,0 71.5,-20"/>
<text text-anchor="middle" x="51.5" y="-6.5" font-family="Helvetica,sans-Serif" font-size="10.00">string</text>
</a>
</g>
</g>
<!-- Node2&#45;&gt;Node3 -->
<g id="edge2_Node000002_Node000003" class="edge">
<title>Node2&#45;&gt;Node3</title>
<g id="a_edge2_Node000002_Node000003"><a xlink:title=" ">
<path fill="none" stroke="#63b8ff" d="M51.5,-55.59C51.5,-49.01 51.5,-39.96 51.5,-31.73"/>
<polygon fill="#63b8ff" stroke="#63b8ff" points="55,-31.81 51.5,-21.81 48,-31.81 55,-31.81"/>
</a>
</g>
</g>
<!-- Node4 -->
<g id="Node000004" class="node">
<title>Node4</title>
<g id="a_Node000004"><a xlink:title=" ">
<polygon fill="#e0e0e0" stroke="#999999" points="149.12,-20 97.88,-20 97.88,0 149.12,0 149.12,-20"/>
<text text-anchor="middle" x="123.5" y="-6.5" font-family="Helvetica,sans-Serif" font-size="10.00">memory</text>
</a>
</g>
</g>
<!-- Node2&#45;&gt;Node4 -->
<g id="edge3_Node000002_Node000004" class="edge">
<title>Node2&#45;&gt;Node4</title>
<g id="a_edge3_Node000002_Node000004"><a xlink:title=" ">
<path fill="none" stroke="#63b8ff" d="M64.04,-55.59C74.47,-47.77 89.55,-36.46 101.91,-27.19"/>
<polygon fill="#63b8ff" stroke="#63b8ff" points="103.99,-30.01 109.89,-21.21 99.79,-24.41 103.99,-30.01"/>
</a>
</g>
</g>
<!-- Node5&#45;&gt;Node2 -->
<g id="edge5_Node000005_Node000002" class="edge">
<title>Node5&#45;&gt;Node2</title>
<g id="a_edge5_Node000005_Node000002"><a xlink:title=" ">
<path fill="none" stroke="#63b8ff" d="M111.78,-111.59C101.11,-103.7 85.62,-92.24 73.02,-82.92"/>
<polygon fill="#63b8ff" stroke="#63b8ff" points="75.41,-80.33 65.29,-77.2 71.24,-85.96 75.41,-80.33"/>
</a>
</g>
</g>
<!-- Node5&#45;&gt;Node4 -->
<g id="edge6_Node000005_Node000004" class="edge">
<title>Node5&#45;&gt;Node4</title>
<g id="a_edge6_Node000005_Node000004"><a xlink:title=" ">
<path fill="none" stroke="#63b8ff" d="M124.41,-111.62C124.25,-94.01 123.91,-55.59 123.69,-31.65"/>
<polygon fill="#63b8ff" stroke="#63b8ff" points="127.19,-31.84 123.6,-21.87 120.19,-31.9 127.19,-31.84"/>
</a>
</g>
</g>
<!-- Node5&#45;&gt;Node6 -->
<g id="edge7_Node000005_Node000006" class="edge">
<title>Node5&#45;&gt;Node6</title>
<g id="a_edge7_Node000005_Node000006"><a xlink:title=" ">
<path fill="none" stroke="#63b8ff" d="M135.82,-111.59C145.14,-103.85 158.58,-92.69 169.68,-83.47"/>
<polygon fill="#63b8ff" stroke="#63b8ff" points="171.69,-86.35 177.14,-77.27 167.21,-80.96 171.69,-86.35"/>
</a>
</g>
</g>
</g>
</svg>
</svg>

<style type='text/css'>
<![CDATA[
[data-mouse-over-selected='false'] { opacity: 0.7; }
[data-mouse-over-selected='true']  { opacity: 1.0; }
]]>
</style>
<script type="application/ecmascript"><![CDATA[
document.addEventListener('DOMContentLoaded', (event) => {
  highlightEdges();
  highlightAdjacentNodes();
});
]]></script>
</svg>
