<?xml version="1.0" encoding="UTF-8" standalone="no"?>
<!DOCTYPE svg PUBLIC "-//W3C//DTD SVG 1.1//EN"
 "http://www.w3.org/Graphics/SVG/1.1/DTD/svg11.dtd">
<!-- Generated by graphviz version 12.1.1 (20240910.0053)
 -->
<!-- Title: sokoban::SessionContext Pages: 1 -->
<svg width="322pt" height="344pt"
 viewBox="0.00 0.00 322.24 344.00" xmlns="http://www.w3.org/2000/svg" xmlns:xlink="http://www.w3.org/1999/xlink">
<g id="graph0" class="graph" transform="scale(1 1) rotate(0) translate(4 340)">
<title>sokoban::SessionContext</title>
<!-- Node1 -->
<g id="Node000001" class="node">
<title>Node1</title>
<g id="a_Node000001"><a xlink:title=" ">
<polygon fill="#999999" stroke="none" points="231.5,-212 107.5,-212 107.5,0 231.5,0 231.5,-212"/>
<text text-anchor="start" x="113.25" y="-198.5" font-family="Helvetica,sans-Serif" font-size="10.00">sokoban::SessionContext</text>
<text text-anchor="start" x="168" y="-182.5" font-family="Helvetica,sans-Serif" font-size="10.00"> </text>
<text text-anchor="start" x="111.5" y="-166.5" font-family="Helvetica,sans-Serif" font-size="10.00">+</text>
<text text-anchor="start" x="121.5" y="-166.5" font-family="Helvetica,sans-Serif" font-size="10.00">multimodalInterface()</text>
<text text-anchor="start" x="111.5" y="-150.5" font-family="Helvetica,sans-Serif" font-size="10.00">+</text>
<text text-anchor="start" x="121.5" y="-150.5" font-family="Helvetica,sans-Serif" font-size="10.00">initialize()</text>
<text text-anchor="start" x="111.5" y="-134.5" font-family="Helvetica,sans-Serif" font-size="10.00">+</text>
<text text-anchor="start" x="121.5" y="-134.5" font-family="Helvetica,sans-Serif" font-size="10.00">executeCommand()</text>
<text text-anchor="start" x="111.5" y="-118.5" font-family="Helvetica,sans-Serif" font-size="10.00">+</text>
<text text-anchor="start" x="121.5" y="-118.5" font-family="Helvetica,sans-Serif" font-size="10.00">drawLevel()</text>
<text text-anchor="start" x="111.5" y="-102.5" font-family="Helvetica,sans-Serif" font-size="10.00">+</text>
<text text-anchor="start" x="121.5" y="-102.5" font-family="Helvetica,sans-Serif" font-size="10.00">loadLevel()</text>
<text text-anchor="start" x="111.5" y="-86.5" font-family="Helvetica,sans-Serif" font-size="10.00">+</text>
<text text-anchor="start" x="121.5" y="-86.5" font-family="Helvetica,sans-Serif" font-size="10.00">incrementLevelNumber()</text>
<text text-anchor="start" x="111.5" y="-70.5" font-family="Helvetica,sans-Serif" font-size="10.00">+</text>
<text text-anchor="start" x="121.5" y="-70.5" font-family="Helvetica,sans-Serif" font-size="10.00">hasNextLevel()</text>
<text text-anchor="start" x="111.5" y="-54.5" font-family="Helvetica,sans-Serif" font-size="10.00">+</text>
<text text-anchor="start" x="121.5" y="-54.5" font-family="Helvetica,sans-Serif" font-size="10.00">supportsSaveGames()</text>
<text text-anchor="start" x="111.5" y="-38.5" font-family="Helvetica,sans-Serif" font-size="10.00">+</text>
<text text-anchor="start" x="121.5" y="-38.5" font-family="Helvetica,sans-Serif" font-size="10.00">saveGame()</text>
<text text-anchor="start" x="111.5" y="-22.5" font-family="Helvetica,sans-Serif" font-size="10.00">+</text>
<text text-anchor="start" x="121.5" y="-22.5" font-family="Helvetica,sans-Serif" font-size="10.00">loadGame()</text>
<text text-anchor="start" x="121.5" y="-6.5" font-family="Helvetica,sans-Serif" font-size="10.00">and 8 more...</text>
<polygon fill="#666666" stroke="#666666" points="107.5,-194 107.5,-194 231.5,-194 231.5,-194 107.5,-194"/>
<polygon fill="#666666" stroke="#666666" points="107.5,-178 107.5,-178 231.5,-178 231.5,-178 107.5,-178"/>
<polygon fill="none" stroke="#666666" points="107.5,0 107.5,-212 231.5,-212 231.5,0 107.5,0"/>
</a>
</g>
</g>
<!-- Node2 -->
<g id="Node000002" class="node">
<title>Node2</title>
<g id="a_Node000002"><a xlink:title=" ">
<polygon fill="white" stroke="none" points="101,-336 0,-336 0,-272 101,-272 101,-336"/>
<text text-anchor="start" x="4.75" y="-322.5" font-family="Helvetica,sans-Serif" font-size="10.00">shared_ptr&lt; sokoban</text>
<text text-anchor="start" x="29.12" y="-310.5" font-family="Helvetica,sans-Serif" font-size="10.00">::Player &gt;</text>
<text text-anchor="start" x="49" y="-294.5" font-family="Helvetica,sans-Serif" font-size="10.00"> </text>
<text text-anchor="start" x="49" y="-278.5" font-family="Helvetica,sans-Serif" font-size="10.00"> </text>
<polygon fill="#666666" stroke="#666666" points="0,-306 0,-306 101,-306 101,-306 0,-306"/>
<polygon fill="#666666" stroke="#666666" points="0,-290 0,-290 101,-290 101,-290 0,-290"/>
<polygon fill="none" stroke="#666666" points="0,-272 0,-336 101,-336 101,-272 0,-272"/>
</a>
</g>
</g>
<!-- Node2&#45;&gt;Node1 -->
<g id="edge1_Node000001_Node000002" class="edge">
<title>Node2&#45;&gt;Node1</title>
<g id="a_edge1_Node000001_Node000002"><a xlink:title=" ">
<path fill="none" stroke="#63b8ff" d="M69.09,-272.38C77.99,-257.73 89.24,-239.19 100.98,-219.86"/>
<polygon fill="none" stroke="#63b8ff" points="101.04,-219.76 100.73,-212.55 107.27,-209.5 107.57,-216.71 101.04,-219.76"/>
</a>
</g>
<text text-anchor="middle" x="112.26" y="-238.5" font-family="Helvetica,sans-Serif" font-size="10.00" fill="grey"> #player_</text>
</g>
<!-- Node3 -->
<g id="Node000003" class="node">
<title>Node3</title>
<g id="a_Node000003"><a xlink:title=" ">
<polygon fill="white" stroke="none" points="220,-336 119,-336 119,-272 220,-272 220,-336"/>
<text text-anchor="start" x="123.75" y="-322.5" font-family="Helvetica,sans-Serif" font-size="10.00">shared_ptr&lt; sokoban</text>
<text text-anchor="start" x="135.75" y="-310.5" font-family="Helvetica,sans-Serif" font-size="10.00">::tui::Console &gt;</text>
<text text-anchor="start" x="168" y="-294.5" font-family="Helvetica,sans-Serif" font-size="10.00"> </text>
<text text-anchor="start" x="168" y="-278.5" font-family="Helvetica,sans-Serif" font-size="10.00"> </text>
<polygon fill="#666666" stroke="#666666" points="119,-306 119,-306 220,-306 220,-306 119,-306"/>
<polygon fill="#666666" stroke="#666666" points="119,-290 119,-290 220,-290 220,-290 119,-290"/>
<polygon fill="none" stroke="#666666" points="119,-272 119,-336 220,-336 220,-272 119,-272"/>
</a>
</g>
</g>
<!-- Node3&#45;&gt;Node1 -->
<g id="edge2_Node000001_Node000003" class="edge">
<title>Node3&#45;&gt;Node1</title>
<g id="a_edge2_Node000001_Node000003"><a xlink:title=" ">
<path fill="none" stroke="#63b8ff" d="M169.5,-272.38C169.5,-258.95 169.5,-242.25 169.5,-224.67"/>
<polygon fill="none" stroke="#63b8ff" points="169.5,-224.64 165.5,-218.64 169.5,-212.64 173.5,-218.64 169.5,-224.64"/>
</a>
</g>
<text text-anchor="middle" x="193.12" y="-238.5" font-family="Helvetica,sans-Serif" font-size="10.00" fill="grey"> #console_</text>
</g>
<!-- Node4 -->
<g id="Node000004" class="node">
<title>Node4</title>
<g id="a_Node000004"><a xlink:title=" ">
<polygon fill="white" stroke="none" points="266.5,-330 238.5,-330 238.5,-278 266.5,-278 266.5,-330"/>
<text text-anchor="start" x="243.12" y="-316.5" font-family="Helvetica,sans-Serif" font-size="10.00">path</text>
<text text-anchor="start" x="251" y="-300.5" font-family="Helvetica,sans-Serif" font-size="10.00"> </text>
<text text-anchor="start" x="251" y="-284.5" font-family="Helvetica,sans-Serif" font-size="10.00"> </text>
<polygon fill="#666666" stroke="#666666" points="238.5,-312 238.5,-312 266.5,-312 266.5,-312 238.5,-312"/>
<polygon fill="#666666" stroke="#666666" points="238.5,-296 238.5,-296 266.5,-296 266.5,-296 238.5,-296"/>
<polygon fill="none" stroke="#666666" points="238.5,-278 238.5,-330 266.5,-330 266.5,-278 238.5,-278"/>
</a>
</g>
</g>
<!-- Node4&#45;&gt;Node1 -->
<g id="edge3_Node000001_Node000004" class="edge">
<title>Node4&#45;&gt;Node1</title>
<g id="a_edge3_Node000001_Node000004"><a xlink:title=" ">
<path fill="none" stroke="#63b8ff" d="M241.99,-278.18C235.87,-263.73 227.66,-244.35 218.97,-223.83"/>
<polygon fill="none" stroke="#63b8ff" points="218.99,-223.87 212.97,-219.91 214.31,-212.82 220.33,-216.79 218.99,-223.87"/>
</a>
</g>
<text text-anchor="middle" x="272.24" y="-244.5" font-family="Helvetica,sans-Serif" font-size="10.00" fill="grey"> #currentlevelPath_</text>
<text text-anchor="middle" x="272.24" y="-232.5" font-family="Helvetica,sans-Serif" font-size="10.00" fill="grey">#modFolderPath_</text>
</g>
</g>
</svg>
