<?xml version="1.0" encoding="UTF-8" standalone="no"?>
<!DOCTYPE svg PUBLIC "-//W3C//DTD SVG 1.1//EN"
 "http://www.w3.org/Graphics/SVG/1.1/DTD/svg11.dtd">
<!-- Generated by graphviz version 12.1.2 (20240928.0832)
 -->
<!-- Title: GraphicsTextItem Pages: 1 -->
<svg width="95pt" height="332pt"
 viewBox="0.00 0.00 95.00 332.00" xmlns="http://www.w3.org/2000/svg" xmlns:xlink="http://www.w3.org/1999/xlink">
<g id="graph0" class="graph" transform="scale(1 1) rotate(0) translate(4 328)">
<title>GraphicsTextItem</title>
<!-- Node1 -->
<g id="Node000001" class="node">
<title>Node1</title>
<g id="a_Node000001"><a xlink:title=" ">
<polygon fill="#999999" stroke="none" points="87,-109 0,-109 0,0 87,0 87,-109"/>
<text text-anchor="start" x="4.88" y="-95.5" font-family="Helvetica,sans-Serif" font-size="10.00">GraphicsTextItem</text>
<text text-anchor="start" x="42" y="-80.5" font-family="Helvetica,sans-Serif" font-size="10.00"> </text>
<text text-anchor="start" x="14" y="-65.5" font-family="Helvetica,sans-Serif" font-size="10.00">+</text>
<text text-anchor="start" x="34" y="-65.5" font-family="Helvetica,sans-Serif" font-size="10.00">read()</text>
<text text-anchor="start" x="14" y="-50.5" font-family="Helvetica,sans-Serif" font-size="10.00">+</text>
<text text-anchor="start" x="34" y="-50.5" font-family="Helvetica,sans-Serif" font-size="10.00">write()</text>
<text text-anchor="start" x="14" y="-35.5" font-family="Helvetica,sans-Serif" font-size="10.00">+</text>
<text text-anchor="start" x="34" y="-35.5" font-family="Helvetica,sans-Serif" font-size="10.00">uuid()</text>
<text text-anchor="start" x="14" y="-20.5" font-family="Helvetica,sans-Serif" font-size="10.00">+</text>
<text text-anchor="start" x="34" y="-20.5" font-family="Helvetica,sans-Serif" font-size="10.00">Draw()</text>
<text text-anchor="start" x="14" y="-5.5" font-family="Helvetica,sans-Serif" font-size="10.00">+</text>
<text text-anchor="start" x="34" y="-5.5" font-family="Helvetica,sans-Serif" font-size="10.00">clone()</text>
<polygon fill="#666666" stroke="#666666" points="0,-92 0,-92 87,-92 87,-92 0,-92"/>
<polygon fill="#666666" stroke="#666666" points="0,-77 0,-77 87,-77 87,-77 0,-77"/>
<polygon fill="none" stroke="#666666" points="0,0 0,-109 87,-109 87,0 0,0"/>
</a>
</g>
</g>
<!-- Node2 -->
<g id="Node000002" class="node">
<title>Node2</title>
<g id="a_Node000002"><a xlink:href="../../d8/d48/classGraphicsItem.html" target="_top" xlink:title=" ">
<polygon fill="white" stroke="none" points="77.5,-224 9.5,-224 9.5,-145 77.5,-145 77.5,-224"/>
<text text-anchor="start" x="14.25" y="-210.5" font-family="Helvetica,sans-Serif" font-size="10.00">GraphicsItem</text>
<text text-anchor="start" x="42" y="-195.5" font-family="Helvetica,sans-Serif" font-size="10.00"> </text>
<text text-anchor="start" x="18.5" y="-180.5" font-family="Helvetica,sans-Serif" font-size="10.00">+</text>
<text text-anchor="start" x="33.5" y="-180.5" font-family="Helvetica,sans-Serif" font-size="10.00">uuid()</text>
<text text-anchor="start" x="18.5" y="-165.5" font-family="Helvetica,sans-Serif" font-size="10.00">+</text>
<text text-anchor="start" x="33.5" y="-165.5" font-family="Helvetica,sans-Serif" font-size="10.00">Draw()</text>
<text text-anchor="start" x="18.5" y="-150.5" font-family="Helvetica,sans-Serif" font-size="10.00">+</text>
<text text-anchor="start" x="33.5" y="-150.5" font-family="Helvetica,sans-Serif" font-size="10.00">clone()</text>
<polygon fill="#666666" stroke="#666666" points="9.5,-207 9.5,-207 77.5,-207 77.5,-207 9.5,-207"/>
<polygon fill="#666666" stroke="#666666" points="9.5,-192 9.5,-192 77.5,-192 77.5,-192 9.5,-192"/>
<polygon fill="none" stroke="#666666" points="9.5,-145 9.5,-224 77.5,-224 77.5,-145 9.5,-145"/>
</a>
</g>
</g>
<!-- Node2&#45;&gt;Node1 -->
<g id="edge1_Node000001_Node000002" class="edge">
<title>Node2&#45;&gt;Node1</title>
<g id="a_edge1_Node000001_Node000002"><a xlink:title=" ">
<path fill="none" stroke="#63b8ff" d="M43.5,-133.71C43.5,-125.46 43.5,-116.88 43.5,-108.55"/>
<polygon fill="none" stroke="#63b8ff" points="40,-133.58 43.5,-143.58 47,-133.58 40,-133.58"/>
</a>
</g>
</g>
<!-- Node3 -->
<g id="Node000003" class="node">
<title>Node3</title>
<g id="a_Node000003"><a xlink:href="../../df/d4d/classSerializeble.html" target="_top" xlink:title=" ">
<polygon fill="white" stroke="none" points="73,-324 14,-324 14,-260 73,-260 73,-324"/>
<text text-anchor="start" x="18.75" y="-310.5" font-family="Helvetica,sans-Serif" font-size="10.00">Serializeble</text>
<text text-anchor="start" x="42" y="-295.5" font-family="Helvetica,sans-Serif" font-size="10.00"> </text>
<text text-anchor="start" x="21.5" y="-280.5" font-family="Helvetica,sans-Serif" font-size="10.00">+</text>
<text text-anchor="start" x="35" y="-280.5" font-family="Helvetica,sans-Serif" font-size="10.00">read()</text>
<text text-anchor="start" x="21.5" y="-265.5" font-family="Helvetica,sans-Serif" font-size="10.00">+</text>
<text text-anchor="start" x="35" y="-265.5" font-family="Helvetica,sans-Serif" font-size="10.00">write()</text>
<polygon fill="#666666" stroke="#666666" points="14,-307 14,-307 73,-307 73,-307 14,-307"/>
<polygon fill="#666666" stroke="#666666" points="14,-292 14,-292 73,-292 73,-292 14,-292"/>
<polygon fill="none" stroke="#666666" points="14,-260 14,-324 73,-324 73,-260 14,-260"/>
</a>
</g>
</g>
<!-- Node3&#45;&gt;Node2 -->
<g id="edge2_Node000002_Node000003" class="edge">
<title>Node3&#45;&gt;Node2</title>
<g id="a_edge2_Node000002_Node000003"><a xlink:title=" ">
<path fill="none" stroke="#63b8ff" d="M43.5,-248.79C43.5,-240.48 43.5,-231.81 43.5,-223.65"/>
<polygon fill="none" stroke="#63b8ff" points="40,-248.69 43.5,-258.69 47,-248.69 40,-248.69"/>
</a>
</g>
</g>
</g>
</svg>
