<?xml version="1.0" encoding="UTF-8" standalone="no"?>
<!DOCTYPE svg PUBLIC "-//W3C//DTD SVG 1.1//EN"
 "http://www.w3.org/Graphics/SVG/1.1/DTD/svg11.dtd">
<!-- Generated by graphviz version 12.1.1 (20240910.0053)
 -->
<!-- Title: lib_sokoban_core/include/sokoban_core/command.hpp Pages: 1 -->
<svg width="529pt" height="516pt"
 viewBox="0.00 0.00 529.00 516.00" xmlns="http://www.w3.org/2000/svg" xmlns:xlink="http://www.w3.org/1999/xlink">
<g id="graph0" class="graph" transform="scale(1 1) rotate(0) translate(4 512)">
<title>lib_sokoban_core/include/sokoban_core/command.hpp</title>
<!-- Node1 -->
<g id="Node000001" class="node">
<title>Node1</title>
<g id="a_Node000001"><a xlink:title=" ">
<polygon fill="#999999" stroke="#666666" points="350.12,-508 205.88,-508 205.88,-476 350.12,-476 350.12,-508"/>
<text text-anchor="start" x="213.88" y="-494.5" font-family="Helvetica,sans-Serif" font-size="10.00">lib_sokoban_core/include</text>
<text text-anchor="middle" x="278" y="-482.5" font-family="Helvetica,sans-Serif" font-size="10.00">/sokoban_core/command.hpp</text>
</a>
</g>
</g>
<!-- Node2 -->
<g id="Node000002" class="node">
<title>Node2</title>
<g id="a_Node000002"><a xlink:href="../../db/d29/base__action__factory_8hpp.html" target="_top" xlink:title=" ">
<polygon fill="white" stroke="#666666" points="409.38,-236 284.62,-236 284.62,-204 409.38,-204 409.38,-236"/>
<text text-anchor="start" x="292.62" y="-222.5" font-family="Helvetica,sans-Serif" font-size="10.00">lib_base_game/include</text>
<text text-anchor="middle" x="347" y="-210.5" font-family="Helvetica,sans-Serif" font-size="10.00">/base_action_factory.hpp</text>
</a>
</g>
</g>
<!-- Node1&#45;&gt;Node2 -->
<g id="edge1_Node000001_Node000002" class="edge">
<title>Node1&#45;&gt;Node2</title>
<g id="a_edge1_Node000001_Node000002"><a xlink:title=" ">
<path fill="none" stroke="#63b8ff" d="M274.72,-464.13C270.69,-421.31 267.61,-335.91 297,-272 303.48,-257.92 315.55,-245.43 326.21,-236.33"/>
<polygon fill="#63b8ff" stroke="#63b8ff" points="271.23,-464.42 275.75,-474 278.19,-463.69 271.23,-464.42"/>
</a>
</g>
</g>
<!-- Node4 -->
<g id="Node000004" class="node">
<title>Node4</title>
<g id="a_Node000004"><a xlink:href="../../d5/ddc/base__session__context_8hpp.html" target="_top" xlink:title=" ">
<polygon fill="white" stroke="#666666" points="422.62,-100 287.38,-100 287.38,-68 422.62,-68 422.62,-100"/>
<text text-anchor="start" x="295.38" y="-86.5" font-family="Helvetica,sans-Serif" font-size="10.00">lib_base_game/include</text>
<text text-anchor="middle" x="355" y="-74.5" font-family="Helvetica,sans-Serif" font-size="10.00">/base_session_context.hpp</text>
</a>
</g>
</g>
<!-- Node1&#45;&gt;Node4 -->
<g id="edge7_Node000001_Node000004" class="edge">
<title>Node1&#45;&gt;Node4</title>
<g id="a_edge7_Node000001_Node000004"><a xlink:title=" ">
<path fill="none" stroke="#63b8ff" d="M361.68,-479.74C431.96,-465.03 521,-431.65 521,-357 521,-357 521,-357 521,-219 521,-157.7 451.62,-119.66 402.57,-100.42"/>
<polygon fill="#63b8ff" stroke="#63b8ff" points="361.19,-476.27 352.06,-481.65 362.55,-483.14 361.19,-476.27"/>
</a>
</g>
</g>
<!-- Node7 -->
<g id="Node000007" class="node">
<title>Node7</title>
<g id="a_Node000007"><a xlink:href="../../da/d4c/session__context_8hpp.html" target="_top" xlink:title=" ">
<polygon fill="white" stroke="#666666" points="250.38,-440 77.62,-440 77.62,-408 250.38,-408 250.38,-440"/>
<text text-anchor="start" x="85.62" y="-426.5" font-family="Helvetica,sans-Serif" font-size="10.00">lib_sokoban_core/include</text>
<text text-anchor="middle" x="164" y="-414.5" font-family="Helvetica,sans-Serif" font-size="10.00">/sokoban_core/session_context.hpp</text>
</a>
</g>
</g>
<!-- Node1&#45;&gt;Node7 -->
<g id="edge8_Node000001_Node000007" class="edge">
<title>Node1&#45;&gt;Node7</title>
<g id="a_edge8_Node000001_Node000007"><a xlink:title=" ">
<path fill="none" stroke="#63b8ff" d="M241.38,-469.8C224.85,-460.23 205.68,-449.13 190.56,-440.38"/>
<polygon fill="#63b8ff" stroke="#63b8ff" points="239.55,-472.79 249.96,-474.77 243.06,-466.73 239.55,-472.79"/>
</a>
</g>
</g>
<!-- Node3 -->
<g id="Node000003" class="node">
<title>Node3</title>
<g id="a_Node000003"><a xlink:href="../../d9/dc0/base__game_8hpp.html" target="_top" xlink:title=" ">
<polygon fill="white" stroke="#666666" points="454.5,-168 339.5,-168 339.5,-136 454.5,-136 454.5,-168"/>
<text text-anchor="start" x="347.5" y="-154.5" font-family="Helvetica,sans-Serif" font-size="10.00">lib_base_game/include</text>
<text text-anchor="middle" x="397" y="-142.5" font-family="Helvetica,sans-Serif" font-size="10.00">/base_game.hpp</text>
</a>
</g>
</g>
<!-- Node2&#45;&gt;Node3 -->
<g id="edge2_Node000002_Node000003" class="edge">
<title>Node2&#45;&gt;Node3</title>
<g id="a_edge2_Node000002_Node000003"><a xlink:title=" ">
<path fill="none" stroke="#63b8ff" d="M365.49,-194.59C372.19,-185.75 379.54,-176.04 385.47,-168.22"/>
<polygon fill="#63b8ff" stroke="#63b8ff" points="362.76,-192.4 359.51,-202.49 368.34,-196.63 362.76,-192.4"/>
</a>
</g>
</g>
<!-- Node2&#45;&gt;Node4 -->
<g id="edge6_Node000002_Node000004" class="edge">
<title>Node2&#45;&gt;Node4</title>
<g id="a_edge6_Node000002_Node000004"><a xlink:title=" ">
<path fill="none" stroke="#63b8ff" d="M336.55,-193.21C331.24,-176.79 326.73,-155.08 331,-136 333.82,-123.39 340.11,-110.23 345.55,-100.43"/>
<polygon fill="#63b8ff" stroke="#63b8ff" points="333.1,-193.97 339.75,-202.22 339.7,-191.63 333.1,-193.97"/>
</a>
</g>
</g>
<!-- Node3&#45;&gt;Node4 -->
<g id="edge3_Node000003_Node000004" class="edge">
<title>Node3&#45;&gt;Node4</title>
<g id="a_edge3_Node000003_Node000004"><a xlink:title=" ">
<path fill="none" stroke="#63b8ff" d="M381.1,-126.02C375.58,-117.34 369.56,-107.88 364.69,-100.22"/>
<polygon fill="#63b8ff" stroke="#63b8ff" points="378.12,-127.86 386.45,-134.42 384.03,-124.1 378.12,-127.86"/>
</a>
</g>
</g>
<!-- Node5 -->
<g id="Node000005" class="node">
<title>Node5</title>
<g id="a_Node000005"><a xlink:href="../../d0/d8e/base__game__action_8cpp.html" target="_top" xlink:title=" ">
<polygon fill="white" stroke="#666666" points="462.75,-32 343.25,-32 343.25,0 462.75,0 462.75,-32"/>
<text text-anchor="start" x="351.25" y="-18.5" font-family="Helvetica,sans-Serif" font-size="10.00">lib_base_game/include</text>
<text text-anchor="middle" x="403" y="-6.5" font-family="Helvetica,sans-Serif" font-size="10.00">/base_game_action.cpp</text>
</a>
</g>
</g>
<!-- Node4&#45;&gt;Node5 -->
<g id="edge4_Node000004_Node000005" class="edge">
<title>Node4&#45;&gt;Node5</title>
<g id="a_edge4_Node000004_Node000005"><a xlink:title=" ">
<path fill="none" stroke="#63b8ff" d="M372.76,-58.59C379.18,-49.75 386.24,-40.04 391.93,-32.22"/>
<polygon fill="#63b8ff" stroke="#63b8ff" points="370.07,-56.32 367.02,-66.47 375.74,-60.44 370.07,-56.32"/>
</a>
</g>
</g>
<!-- Node6 -->
<g id="Node000006" class="node">
<title>Node6</title>
<g id="a_Node000006"><a xlink:href="../../db/db9/lib__base__game_2include_2mod_8hpp.html" target="_top" xlink:title=" ">
<polygon fill="white" stroke="#666666" points="259.5,-32 144.5,-32 144.5,0 259.5,0 259.5,-32"/>
<text text-anchor="start" x="152.5" y="-18.5" font-family="Helvetica,sans-Serif" font-size="10.00">lib_base_game/include</text>
<text text-anchor="middle" x="202" y="-6.5" font-family="Helvetica,sans-Serif" font-size="10.00">/mod.hpp</text>
</a>
</g>
</g>
<!-- Node4&#45;&gt;Node6 -->
<g id="edge5_Node000004_Node000006" class="edge">
<title>Node4&#45;&gt;Node6</title>
<g id="a_edge5_Node000004_Node000006"><a xlink:title=" ">
<path fill="none" stroke="#63b8ff" d="M308.7,-63.03C285.98,-53.23 259.04,-41.61 237.91,-32.49"/>
<polygon fill="#63b8ff" stroke="#63b8ff" points="307.17,-66.18 317.74,-66.93 309.94,-59.75 307.17,-66.18"/>
</a>
</g>
</g>
<!-- Node7&#45;&gt;Node4 -->
<g id="edge9_Node000007_Node000004" class="edge">
<title>Node7&#45;&gt;Node4</title>
<g id="a_edge9_Node000007_Node000004"><a xlink:title=" ">
<path fill="none" stroke="#63b8ff" d="M192.46,-400.16C201.05,-392.05 209.83,-382.34 216,-372 235.69,-339.03 240,-327.4 240,-289 240,-289 240,-289 240,-219 240,-165.2 294.05,-122.19 328.04,-100.46"/>
<polygon fill="#63b8ff" stroke="#63b8ff" points="190.27,-397.42 185.16,-406.69 194.94,-402.63 190.27,-397.42"/>
</a>
</g>
</g>
<!-- Node7&#45;&gt;Node6 -->
<g id="edge10_Node000007_Node000006" class="edge">
<title>Node7&#45;&gt;Node6</title>
<g id="a_edge10_Node000007_Node000006"><a xlink:title=" ">
<path fill="none" stroke="#63b8ff" d="M175.82,-397.42C186.97,-370.89 202,-327.93 202,-289 202,-289 202,-289 202,-151 202,-107.96 202,-57.15 202,-32.27"/>
<polygon fill="#63b8ff" stroke="#63b8ff" points="172.72,-395.77 171.93,-406.33 179.13,-398.56 172.72,-395.77"/>
</a>
</g>
</g>
<!-- Node8 -->
<g id="Node000008" class="node">
<title>Node8</title>
<g id="a_Node000008"><a xlink:href="../../d1/dab/game__action_8hpp.html" target="_top" xlink:title=" ">
<polygon fill="white" stroke="#666666" points="463.5,-372 306.5,-372 306.5,-340 463.5,-340 463.5,-372"/>
<text text-anchor="start" x="314.5" y="-358.5" font-family="Helvetica,sans-Serif" font-size="10.00">lib_sokoban_core/include</text>
<text text-anchor="middle" x="385" y="-346.5" font-family="Helvetica,sans-Serif" font-size="10.00">/sokoban_core/game_action.hpp</text>
</a>
</g>
</g>
<!-- Node7&#45;&gt;Node8 -->
<g id="edge11_Node000007_Node000008" class="edge">
<title>Node7&#45;&gt;Node8</title>
<g id="a_edge11_Node000007_Node000008"><a xlink:title=" ">
<path fill="none" stroke="#63b8ff" d="M226.47,-404.34C260.15,-394.28 301.23,-382.02 333.13,-372.49"/>
<polygon fill="#63b8ff" stroke="#63b8ff" points="225.85,-400.88 217.26,-407.09 227.85,-407.58 225.85,-400.88"/>
</a>
</g>
</g>
<!-- Node10 -->
<g id="Node000010" class="node">
<title>Node10</title>
<g id="a_Node000010"><a xlink:href="../../d7/d87/lib__sokoban__core_2include_2sokoban__core_2mod_8hpp.html" target="_top" xlink:title=" ">
<polygon fill="white" stroke="#666666" points="137.75,-372 12.25,-372 12.25,-340 137.75,-340 137.75,-372"/>
<text text-anchor="start" x="20.25" y="-358.5" font-family="Helvetica,sans-Serif" font-size="10.00">lib_sokoban_core/include</text>
<text text-anchor="middle" x="75" y="-346.5" font-family="Helvetica,sans-Serif" font-size="10.00">/sokoban_core/mod.hpp</text>
</a>
</g>
</g>
<!-- Node7&#45;&gt;Node10 -->
<g id="edge16_Node000007_Node000010" class="edge">
<title>Node7&#45;&gt;Node10</title>
<g id="a_edge16_Node000007_Node000010"><a xlink:title=" ">
<path fill="none" stroke="#63b8ff" d="M134.16,-400.87C121.58,-391.55 107.25,-380.91 95.84,-372.45"/>
<polygon fill="#63b8ff" stroke="#63b8ff" points="132.02,-403.65 142.14,-406.79 136.19,-398.02 132.02,-403.65"/>
</a>
</g>
</g>
<!-- Node8&#45;&gt;Node3 -->
<g id="edge12_Node000008_Node000003" class="edge">
<title>Node8&#45;&gt;Node3</title>
<g id="a_edge12_Node000008_Node000003"><a xlink:title=" ">
<path fill="none" stroke="#63b8ff" d="M414.95,-332.04C423.01,-324.12 430.69,-314.56 435,-304 454.42,-256.45 424.08,-196.31 407.15,-168.45"/>
<polygon fill="#63b8ff" stroke="#63b8ff" points="412.72,-329.33 407.66,-338.64 417.42,-334.52 412.72,-329.33"/>
</a>
</g>
</g>
<!-- Node9 -->
<g id="Node000009" class="node">
<title>Node9</title>
<g id="a_Node000009"><a xlink:href="../../dc/d77/base__game__action_8hpp.html" target="_top" xlink:title=" ">
<polygon fill="white" stroke="#666666" points="425.75,-304 306.25,-304 306.25,-272 425.75,-272 425.75,-304"/>
<text text-anchor="start" x="314.25" y="-290.5" font-family="Helvetica,sans-Serif" font-size="10.00">lib_base_game/include</text>
<text text-anchor="middle" x="366" y="-278.5" font-family="Helvetica,sans-Serif" font-size="10.00">/base_game_action.hpp</text>
</a>
</g>
</g>
<!-- Node8&#45;&gt;Node9 -->
<g id="edge13_Node000008_Node000009" class="edge">
<title>Node8&#45;&gt;Node9</title>
<g id="a_edge13_Node000008_Node000009"><a xlink:title=" ">
<path fill="none" stroke="#63b8ff" d="M377.48,-328.89C375.07,-320.52 372.49,-311.54 370.38,-304.22"/>
<polygon fill="#63b8ff" stroke="#63b8ff" points="374.04,-329.6 380.17,-338.24 380.77,-327.66 374.04,-329.6"/>
</a>
</g>
</g>
<!-- Node9&#45;&gt;Node2 -->
<g id="edge14_Node000009_Node000002" class="edge">
<title>Node9&#45;&gt;Node2</title>
<g id="a_edge14_Node000009_Node000002"><a xlink:title=" ">
<path fill="none" stroke="#63b8ff" d="M358.48,-260.89C356.07,-252.52 353.49,-243.54 351.38,-236.22"/>
<polygon fill="#63b8ff" stroke="#63b8ff" points="355.04,-261.6 361.17,-270.24 361.77,-259.66 355.04,-261.6"/>
</a>
</g>
</g>
<!-- Node9&#45;&gt;Node5 -->
<g id="edge15_Node000009_Node000005" class="edge">
<title>Node9&#45;&gt;Node5</title>
<g id="a_edge15_Node000009_Node000005"><a xlink:title=" ">
<path fill="none" stroke="#63b8ff" d="M394.49,-264.18C418.88,-242.5 451.92,-207.43 464,-168 479.66,-116.91 438.95,-58.95 416.57,-32.12"/>
<polygon fill="#63b8ff" stroke="#63b8ff" points="392.38,-261.38 387.09,-270.56 396.95,-266.68 392.38,-261.38"/>
</a>
</g>
</g>
<!-- Node10&#45;&gt;Node6 -->
<g id="edge17_Node000010_Node000006" class="edge">
<title>Node10&#45;&gt;Node6</title>
<g id="a_edge17_Node000010_Node000006"><a xlink:title=" ">
<path fill="none" stroke="#63b8ff" d="M51.76,-331.16C29.74,-305.96 0,-263.98 0,-221 0,-221 0,-221 0,-151 0,-81.35 84.42,-45.75 144.11,-29.29"/>
<polygon fill="#63b8ff" stroke="#63b8ff" points="49.14,-333.48 58.44,-338.54 54.32,-328.78 49.14,-333.48"/>
</a>
</g>
</g>
<!-- Node11 -->
<g id="Node000011" class="node">
<title>Node11</title>
<g id="a_Node000011"><a xlink:href="../../df/d0a/main_8cpp.html" target="_top" xlink:title=" ">
<polygon fill="white" stroke="#666666" points="163.38,-230 38.63,-230 38.63,-210 163.38,-210 163.38,-230"/>
<text text-anchor="middle" x="101" y="-216.5" font-family="Helvetica,sans-Serif" font-size="10.00">sokoban_driver/main.cpp</text>
</a>
</g>
</g>
<!-- Node10&#45;&gt;Node11 -->
<g id="edge18_Node000010_Node000011" class="edge">
<title>Node10&#45;&gt;Node11</title>
<g id="a_edge18_Node000010_Node000011"><a xlink:title=" ">
<path fill="none" stroke="#63b8ff" d="M62.14,-329.54C55.48,-312.83 50.05,-290.71 57,-272 63.36,-254.9 78.31,-239.7 89.01,-230.44"/>
<polygon fill="#63b8ff" stroke="#63b8ff" points="58.74,-330.5 65.97,-338.25 65.15,-327.69 58.74,-330.5"/>
</a>
</g>
</g>
<!-- Node12 -->
<g id="Node000012" class="node">
<title>Node12</title>
<g id="a_Node000012"><a xlink:href="../../d5/d6f/mod__dynamic__library_8hpp.html" target="_top" xlink:title=" ">
<polygon fill="white" stroke="#666666" points="173.75,-304 66.25,-304 66.25,-272 173.75,-272 173.75,-304"/>
<text text-anchor="start" x="74.25" y="-290.5" font-family="Helvetica,sans-Serif" font-size="10.00">sokoban_driver/mod</text>
<text text-anchor="middle" x="120" y="-278.5" font-family="Helvetica,sans-Serif" font-size="10.00">_dynamic_library.hpp</text>
</a>
</g>
</g>
<!-- Node10&#45;&gt;Node12 -->
<g id="edge19_Node000010_Node000012" class="edge">
<title>Node10&#45;&gt;Node12</title>
<g id="a_edge19_Node000010_Node000012"><a xlink:title=" ">
<path fill="none" stroke="#63b8ff" d="M91.84,-330.3C97.81,-321.55 104.35,-311.96 109.62,-304.22"/>
<polygon fill="#63b8ff" stroke="#63b8ff" points="89.03,-328.21 86.29,-338.44 94.81,-332.15 89.03,-328.21"/>
</a>
</g>
</g>
<!-- Node12&#45;&gt;Node11 -->
<g id="edge20_Node000012_Node000011" class="edge">
<title>Node12&#45;&gt;Node11</title>
<g id="a_edge20_Node000012_Node000011"><a xlink:title=" ">
<path fill="none" stroke="#63b8ff" d="M112.42,-260.66C109.33,-249.92 105.95,-238.21 103.68,-230.32"/>
<polygon fill="#63b8ff" stroke="#63b8ff" points="109.04,-261.6 115.17,-270.24 115.77,-259.66 109.04,-261.6"/>
</a>
</g>
</g>
</g>
</svg>
