<?xml version="1.0" encoding="UTF-8" standalone="no"?>
<!DOCTYPE svg PUBLIC "-//W3C//DTD SVG 1.1//EN"
 "http://www.w3.org/Graphics/SVG/1.1/DTD/svg11.dtd">
<!-- Generated by graphviz version 12.1.2 (20240928.0832)
 -->
<!-- Title: editor_lib/include/editor/painter.h Pages: 1 -->
<svg width="142pt" height="149pt"
 viewBox="0.00 0.00 141.75 149.00" xmlns="http://www.w3.org/2000/svg" xmlns:xlink="http://www.w3.org/1999/xlink">

<svg id="main" version="1.1" xmlns="http://www.w3.org/2000/svg" xmlns:xlink="http://www.w3.org/1999/xlink" xml:space="preserve">

<style type="text/css"><![CDATA[
.node, .edge {opacity: 0.7;}
.node.selected, .edge.selected {opacity: 1;}
.edge:hover path { stroke: red; }
.edge:hover polygon { stroke: red; fill: red; }
]]></style>
<script type="application/ecmascript" xlink:href="../../svg.min.js"/>
<svg id="graph" class="graph">
<g id="graph0" class="graph" transform="scale(1 1) rotate(0) translate(4 145)">
<title>editor_lib/include/editor/painter.h</title>
<!-- Node1 -->
<g id="Node000001" class="node">
<title>Node1</title>
<g id="a_Node000001"><a xlink:title=" ">
<polygon fill="#999999" stroke="#666666" points="133.75,-141 45,-141 45,-110.5 133.75,-110.5 133.75,-141"/>
<text text-anchor="start" x="53" y="-127.5" font-family="Helvetica,sans-Serif" font-size="10.00">editor_lib/include</text>
<text text-anchor="middle" x="89.38" y="-116.25" font-family="Helvetica,sans-Serif" font-size="10.00">/editor/painter.h</text>
</a>
</g>
</g>
<!-- Node2 -->
<g id="Node000002" class="node">
<title>Node2</title>
<g id="a_Node000002"><a xlink:href="../../dc/d12/dummy__converter_8h.html" target="_top" xlink:title=" ">
<polygon fill="white" stroke="#666666" points="100.75,-74.5 0,-74.5 0,-55.25 100.75,-55.25 100.75,-74.5"/>
<text text-anchor="middle" x="50.38" y="-61" font-family="Helvetica,sans-Serif" font-size="10.00">dummy_converter.h</text>
</a>
</g>
</g>
<!-- Node1&#45;&gt;Node2 -->
<g id="edge1_Node000001_Node000002" class="edge">
<title>Node1&#45;&gt;Node2</title>
<g id="a_edge1_Node000001_Node000002"><a xlink:title=" ">
<path fill="none" stroke="#63b8ff" d="M79.73,-110.2C74.6,-102.44 68.22,-92.81 62.72,-84.51"/>
<polygon fill="#63b8ff" stroke="#63b8ff" points="65.66,-82.62 57.22,-76.21 59.83,-86.48 65.66,-82.62"/>
</a>
</g>
</g>
<!-- Node3 -->
<g id="Node000003" class="node">
<title>Node3</title>
<g id="a_Node000003"><a xlink:title=" ">
<polygon fill="#e0e0e0" stroke="#999999" points="109.38,-19.25 69.38,-19.25 69.38,0 109.38,0 109.38,-19.25"/>
<text text-anchor="middle" x="89.38" y="-5.75" font-family="Helvetica,sans-Serif" font-size="10.00">string</text>
</a>
</g>
</g>
<!-- Node1&#45;&gt;Node3 -->
<g id="edge3_Node000001_Node000003" class="edge">
<title>Node1&#45;&gt;Node3</title>
<g id="a_edge3_Node000001_Node000003"><a xlink:title=" ">
<path fill="none" stroke="#63b8ff" d="M97.88,-110.26C105.04,-96.3 113.5,-74.53 109.38,-55.25 107.49,-46.44 103.73,-37.26 99.97,-29.54"/>
<polygon fill="#63b8ff" stroke="#63b8ff" points="103.14,-28.04 95.39,-20.81 96.94,-31.29 103.14,-28.04"/>
</a>
</g>
</g>
<!-- Node2&#45;&gt;Node3 -->
<g id="edge2_Node000002_Node000003" class="edge">
<title>Node2&#45;&gt;Node3</title>
<g id="a_edge2_Node000002_Node000003"><a xlink:title=" ">
<path fill="none" stroke="#63b8ff" d="M56.82,-55.08C62.03,-47.96 69.56,-37.68 76.07,-28.8"/>
<polygon fill="#63b8ff" stroke="#63b8ff" points="78.82,-30.97 81.9,-20.83 73.17,-26.83 78.82,-30.97"/>
</a>
</g>
</g>
</g>
</svg>
</svg>

<style type='text/css'>
<![CDATA[
[data-mouse-over-selected='false'] { opacity: 0.7; }
[data-mouse-over-selected='true']  { opacity: 1.0; }
]]>
</style>
<script type="application/ecmascript"><![CDATA[
document.addEventListener('DOMContentLoaded', (event) => {
  highlightEdges();
  highlightAdjacentNodes();
});
]]></script>
</svg>
