<?xml version="1.0" encoding="UTF-8" standalone="no"?>
<!DOCTYPE svg PUBLIC "-//W3C//DTD SVG 1.1//EN"
 "http://www.w3.org/Graphics/SVG/1.1/DTD/svg11.dtd">
<!-- Generated by graphviz version 12.1.2 (20240928.0832)
 -->
<!-- Title: src/main.cpp Pages: 1 -->
<!--zoomable 437 -->

<svg id="main" version="1.1" xmlns="http://www.w3.org/2000/svg" xmlns:xlink="http://www.w3.org/1999/xlink" xml:space="preserve" onload="init(evt)">

<style type="text/css"><![CDATA[
.node, .edge {opacity: 0.7;}
.node.selected, .edge.selected {opacity: 1;}
.edge:hover path { stroke: red; }
.edge:hover polygon { stroke: red; fill: red; }
]]></style>

<defs>
  <circle id="rim" cx="0" cy="0" r="7"/>
  <circle id="rim2" cx="0" cy="0" r="3.5"/>
  <g id="zoomPlus">
    <use xlink:href="#rim" fill="#404040"><set attributeName="fill" to="#808080" begin="zoomplus.mouseover" end="zoomplus.mouseout"/></use>
    <path d="M-4,0h8M0,-4v8" fill="none" stroke="white" stroke-width="1.5" pointer-events="none"/>
  </g>
  <g id="zoomMin">
    <use xlink:href="#rim" fill="#404040"><set attributeName="fill" to="#808080" begin="zoomminus.mouseover" end="zoomminus.mouseout"/></use>
    <path d="M-4,0h8" fill="none" stroke="white" stroke-width="1.5" pointer-events="none"/>
  </g>
  <g id="arrowUp" transform="translate(30 24)">
    <use xlink:href="#rim"/>
    <path pointer-events="none" fill="none" stroke="white" stroke-width="1.5" d="M0,-3.0v7 M-2.5,-0.5L0,-3.0L2.5,-0.5"/>
  </g>
  <g id="arrowRight" transform="rotate(90) translate(36 -43)">
    <use xlink:href="#rim"/>
    <path pointer-events="none" fill="none" stroke="white" stroke-width="1.5" d="M0,-3.0v7 M-2.5,-0.5L0,-3.0L2.5,-0.5"/>
  </g>
  <g id="arrowDown" transform="rotate(180) translate(-30 -48)">
    <use xlink:href="#rim"/>
    <path pointer-events="none" fill="none" stroke="white" stroke-width="1.5" d="M0,-3.0v7 M-2.5,-0.5L0,-3.0L2.5,-0.5"/>
  </g>
  <g id="arrowLeft" transform="rotate(270) translate(-36 17)">
    <use xlink:href="#rim"/>
    <path pointer-events="none" fill="none" stroke="white" stroke-width="1.5" d="M0,-3.0v7 M-2.5,-0.5L0,-3.0L2.5,-0.5"/>
  </g>
  <g id="resetDef">
    <use xlink:href="#rim2" fill="#404040"><set attributeName="fill" to="#808080" begin="reset.mouseover" end="reset.mouseout"/></use>
  </g>
</defs>
<script type="application/ecmascript">
var viewWidth = 1013;
var viewHeight = 437;
var sectionId = 'dynsection-0';
</script>
<script type="application/ecmascript" xlink:href="../../svg.min.js"/>
<svg id="graph" class="graph">
<g id="viewport">
<title>src/main.cpp</title>
<!-- Node1 -->
<g id="Node000001" class="node">
<title>Node1</title>
<g id="a_Node000001"><a xlink:title=" ">
<polygon fill="#999999" stroke="#666666" points="661.75,-428.5 590.25,-428.5 590.25,-409.25 661.75,-409.25 661.75,-428.5"/>
<text text-anchor="middle" x="626" y="-415" font-family="Helvetica,sans-Serif" font-size="10.00">src/main.cpp</text>
</a>
</g>
</g>
<!-- Node2 -->
<g id="Node000002" class="node">
<title>Node2</title>
<g id="a_Node000002"><a xlink:href="../../db/df5/document_8h.html" target="_top" xlink:title=" ">
<polygon fill="white" stroke="#666666" points="469.62,-306.75 376.38,-306.75 376.38,-287.5 469.62,-287.5 469.62,-306.75"/>
<text text-anchor="middle" x="423" y="-293.25" font-family="Helvetica,sans-Serif" font-size="10.00">editor/document.h</text>
</a>
</g>
</g>
<!-- Node1&#45;&gt;Node2 -->
<g id="edge1_Node000001_Node000002" class="edge">
<title>Node1&#45;&gt;Node2</title>
<g id="a_edge1_Node000001_Node000002"><a xlink:title=" ">
<path fill="none" stroke="#63b8ff" d="M610.74,-408.87C576.06,-388.42 491.02,-338.25 448.32,-313.06"/>
<polygon fill="#63b8ff" stroke="#63b8ff" points="450.13,-310.07 439.74,-308 446.57,-316.09 450.13,-310.07"/>
</a>
</g>
</g>
<!-- Node6 -->
<g id="Node000006" class="node">
<title>Node6</title>
<g id="a_Node000006"><a xlink:title=" ">
<polygon fill="#e0e0e0" stroke="#999999" points="633.25,-74.5 582.75,-74.5 582.75,-55.25 633.25,-55.25 633.25,-74.5"/>
<text text-anchor="middle" x="608" y="-61" font-family="Helvetica,sans-Serif" font-size="10.00">memory</text>
</a>
</g>
</g>
<!-- Node1&#45;&gt;Node6 -->
<g id="edge40_Node000001_Node000006" class="edge">
<title>Node1&#45;&gt;Node6</title>
<g id="a_edge40_Node000001_Node000006"><a xlink:title=" ">
<path fill="none" stroke="#63b8ff" d="M662.25,-416.9C729.87,-414.33 871.61,-405.18 907,-373.25 932.65,-350.1 927,-332.68 927,-298.12 927,-298.12 927,-298.12 927,-174.38 927,-125.69 882.71,-129.78 838,-110.5 773.57,-82.72 691.55,-72.12 644.89,-68.16"/>
<polygon fill="#63b8ff" stroke="#63b8ff" points="645.3,-64.68 635.06,-67.38 644.75,-71.66 645.3,-64.68"/>
</a>
</g>
</g>
<!-- Node8 -->
<g id="Node000008" class="node">
<title>Node8</title>
<g id="a_Node000008"><a xlink:href="../../d3/d24/primitive__items_8h.html" target="_top" xlink:title=" ">
<polygon fill="white" stroke="#666666" points="269.75,-185 180.25,-185 180.25,-165.75 269.75,-165.75 269.75,-185"/>
<text text-anchor="middle" x="225" y="-171.5" font-family="Helvetica,sans-Serif" font-size="10.00">primitive_items.h</text>
</a>
</g>
</g>
<!-- Node1&#45;&gt;Node8 -->
<g id="edge37_Node000001_Node000008" class="edge">
<title>Node1&#45;&gt;Node8</title>
<g id="a_edge37_Node000001_Node000008"><a xlink:title=" ">
<path fill="none" stroke="#63b8ff" d="M589.94,-414.24C487.5,-403.26 197.62,-367.38 127,-306.75 96.68,-280.72 76.98,-253.66 100,-221 115.67,-198.77 143.46,-187.55 168.87,-181.92"/>
<polygon fill="#63b8ff" stroke="#63b8ff" points="169.31,-185.4 178.46,-180.05 167.97,-178.53 169.31,-185.4"/>
</a>
</g>
</g>
<!-- Node9 -->
<g id="Node000009" class="node">
<title>Node9</title>
<g id="a_Node000009"><a xlink:title=" ">
<polygon fill="#e0e0e0" stroke="#999999" points="112.75,-129.75 59.25,-129.75 59.25,-110.5 112.75,-110.5 112.75,-129.75"/>
<text text-anchor="middle" x="86" y="-116.25" font-family="Helvetica,sans-Serif" font-size="10.00">iostream</text>
</a>
</g>
</g>
<!-- Node1&#45;&gt;Node9 -->
<g id="edge38_Node000001_Node000009" class="edge">
<title>Node1&#45;&gt;Node9</title>
<g id="a_edge38_Node000001_Node000009"><a xlink:title=" ">
<path fill="none" stroke="#63b8ff" d="M589.76,-417.11C515.86,-414.9 342.88,-406.3 202,-373.25 108.75,-351.37 0,-393.91 0,-298.12 0,-298.12 0,-298.12 0,-235.25 0,-193.01 38.04,-156.48 63.52,-136.74"/>
<polygon fill="#63b8ff" stroke="#63b8ff" points="65.41,-139.7 71.35,-130.93 61.23,-134.08 65.41,-139.7"/>
</a>
</g>
</g>
<!-- Node13 -->
<g id="Node000013" class="node">
<title>Node13</title>
<g id="a_Node000013"><a xlink:title=" ">
<polygon fill="#e0e0e0" stroke="#999999" points="680.5,-185 637.5,-185 637.5,-165.75 680.5,-165.75 680.5,-185"/>
<text text-anchor="middle" x="659" y="-171.5" font-family="Helvetica,sans-Serif" font-size="10.00">vector</text>
</a>
</g>
</g>
<!-- Node1&#45;&gt;Node13 -->
<g id="edge41_Node000001_Node000013" class="edge">
<title>Node1&#45;&gt;Node13</title>
<g id="a_edge41_Node000001_Node000013"><a xlink:title=" ">
<path fill="none" stroke="#63b8ff" d="M624.56,-408.95C621.4,-387.72 614.68,-332.65 622,-287.5 627.38,-254.31 641.25,-217.62 650.4,-195.81"/>
<polygon fill="#63b8ff" stroke="#63b8ff" points="653.57,-197.3 654.31,-186.73 647.14,-194.53 653.57,-197.3"/>
</a>
</g>
</g>
<!-- Node16 -->
<g id="Node000016" class="node">
<title>Node16</title>
<g id="a_Node000016"><a xlink:href="../../d7/deb/main__window_8h.html" target="_top" xlink:title=" ">
<polygon fill="white" stroke="#666666" points="740.88,-306.75 631.12,-306.75 631.12,-287.5 740.88,-287.5 740.88,-306.75"/>
<text text-anchor="middle" x="686" y="-293.25" font-family="Helvetica,sans-Serif" font-size="10.00">editor/main_window.h</text>
</a>
</g>
</g>
<!-- Node1&#45;&gt;Node16 -->
<g id="edge20_Node000001_Node000016" class="edge">
<title>Node1&#45;&gt;Node16</title>
<g id="a_edge20_Node000001_Node000016"><a xlink:title=" ">
<path fill="none" stroke="#63b8ff" d="M630.51,-408.87C640.2,-389.54 663.17,-343.68 676.32,-317.44"/>
<polygon fill="#63b8ff" stroke="#63b8ff" points="679.41,-319.09 680.76,-308.58 673.15,-315.96 679.41,-319.09"/>
</a>
</g>
</g>
<!-- Node18 -->
<g id="Node000018" class="node">
<title>Node18</title>
<g id="a_Node000018"><a xlink:href="../../d3/dda/view_8h.html" target="_top" xlink:title=" ">
<polygon fill="white" stroke="#666666" points="206.38,-306.75 135.62,-306.75 135.62,-287.5 206.38,-287.5 206.38,-306.75"/>
<text text-anchor="middle" x="171" y="-293.25" font-family="Helvetica,sans-Serif" font-size="10.00">editor/view.h</text>
</a>
</g>
</g>
<!-- Node1&#45;&gt;Node18 -->
<g id="edge23_Node000001_Node000018" class="edge">
<title>Node1&#45;&gt;Node18</title>
<g id="a_edge23_Node000001_Node000018"><a xlink:title=" ">
<path fill="none" stroke="#63b8ff" d="M591.43,-408.78C510.29,-387.42 307.63,-334.09 216.57,-310.12"/>
<polygon fill="#63b8ff" stroke="#63b8ff" points="217.55,-306.76 206.98,-307.6 215.76,-313.53 217.55,-306.76"/>
</a>
</g>
</g>
<!-- Node19 -->
<g id="Node000019" class="node">
<title>Node19</title>
<g id="a_Node000019"><a xlink:href="../../d6/df0/push__button_8h.html" target="_top" xlink:title=" ">
<polygon fill="white" stroke="#666666" points="777.88,-367.62 674.12,-367.62 674.12,-348.38 777.88,-348.38 777.88,-367.62"/>
<text text-anchor="middle" x="726" y="-354.12" font-family="Helvetica,sans-Serif" font-size="10.00">editor/push_button.h</text>
</a>
</g>
</g>
<!-- Node1&#45;&gt;Node19 -->
<g id="edge28_Node000001_Node000019" class="edge">
<title>Node1&#45;&gt;Node19</title>
<g id="a_edge28_Node000001_Node000019"><a xlink:title=" ">
<path fill="none" stroke="#63b8ff" d="M641.19,-408.93C657.05,-399.6 682.18,-384.8 700.98,-373.73"/>
<polygon fill="#63b8ff" stroke="#63b8ff" points="702.52,-376.88 709.36,-368.79 698.97,-370.85 702.52,-376.88"/>
</a>
</g>
</g>
<!-- Node22 -->
<g id="Node000022" class="node">
<title>Node22</title>
<g id="a_Node000022"><a xlink:href="../../da/de3/add__graphics__item__command_8h.html" target="_top" xlink:title=" ">
<polygon fill="white" stroke="#666666" points="898.38,-373.25 797.62,-373.25 797.62,-342.75 898.38,-342.75 898.38,-373.25"/>
<text text-anchor="start" x="805.62" y="-359.75" font-family="Helvetica,sans-Serif" font-size="10.00">editor/add_graphics</text>
<text text-anchor="middle" x="848" y="-348.5" font-family="Helvetica,sans-Serif" font-size="10.00">_item_command.h</text>
</a>
</g>
</g>
<!-- Node1&#45;&gt;Node22 -->
<g id="edge33_Node000001_Node000022" class="edge">
<title>Node1&#45;&gt;Node22</title>
<g id="a_edge33_Node000001_Node000022"><a xlink:title=" ">
<path fill="none" stroke="#63b8ff" d="M660.2,-408.8C693.74,-399.91 745.61,-386.15 786.35,-375.35"/>
<polygon fill="#63b8ff" stroke="#63b8ff" points="787.03,-378.79 795.79,-372.85 785.23,-372.03 787.03,-378.79"/>
</a>
</g>
</g>
<!-- Node23 -->
<g id="Node000023" class="node">
<title>Node23</title>
<g id="a_Node000023"><a xlink:title=" ">
<polygon fill="#e0e0e0" stroke="#999999" points="1004.5,-367.62 955.5,-367.62 955.5,-348.38 1004.5,-348.38 1004.5,-367.62"/>
<text text-anchor="middle" x="980" y="-354.12" font-family="Helvetica,sans-Serif" font-size="10.00">fstream</text>
</a>
</g>
</g>
<!-- Node1&#45;&gt;Node23 -->
<g id="edge39_Node000001_Node000023" class="edge">
<title>Node1&#45;&gt;Node23</title>
<g id="a_edge39_Node000001_Node000023"><a xlink:title=" ">
<path fill="none" stroke="#63b8ff" d="M661.9,-415.25C720.87,-410.4 841.61,-398.15 941,-373.25 942.87,-372.78 944.78,-372.25 946.7,-371.68"/>
<polygon fill="#63b8ff" stroke="#63b8ff" points="947.73,-375.03 956.13,-368.58 945.54,-368.38 947.73,-375.03"/>
</a>
</g>
</g>
<!-- Node3 -->
<g id="Node000003" class="node">
<title>Node3</title>
<g id="a_Node000003"><a xlink:href="../../d8/d38/graphics__item_8h.html" target="_top" xlink:title=" ">
<polygon fill="white" stroke="#666666" points="302.12,-129.75 217.88,-129.75 217.88,-110.5 302.12,-110.5 302.12,-129.75"/>
<text text-anchor="middle" x="260" y="-116.25" font-family="Helvetica,sans-Serif" font-size="10.00">graphics_item.h</text>
</a>
</g>
</g>
<!-- Node2&#45;&gt;Node3 -->
<g id="edge2_Node000002_Node000003" class="edge">
<title>Node2&#45;&gt;Node3</title>
<g id="a_edge2_Node000002_Node000003"><a xlink:title=" ">
<path fill="none" stroke="#63b8ff" d="M388.02,-287.16C367.04,-280.29 341.01,-268.97 323,-251.5 314.37,-243.13 283.44,-174.42 268.37,-140.26"/>
<polygon fill="#63b8ff" stroke="#63b8ff" points="271.76,-139.27 264.53,-131.52 265.35,-142.08 271.76,-139.27"/>
</a>
</g>
</g>
<!-- Node4 -->
<g id="Node000004" class="node">
<title>Node4</title>
<g id="a_Node000004"><a xlink:href="../../d5/da3/serializable_8h.html" target="_top" xlink:title=" ">
<polygon fill="white" stroke="#666666" points="241.75,-74.5 170.25,-74.5 170.25,-55.25 241.75,-55.25 241.75,-74.5"/>
<text text-anchor="middle" x="206" y="-61" font-family="Helvetica,sans-Serif" font-size="10.00">serializable.h</text>
</a>
</g>
</g>
<!-- Node2&#45;&gt;Node4 -->
<g id="edge6_Node000002_Node000004" class="edge">
<title>Node2&#45;&gt;Node4</title>
<g id="a_edge6_Node000002_Node000004"><a xlink:title=" ">
<path fill="none" stroke="#63b8ff" d="M395.43,-287C370.85,-278.6 334.05,-265.37 303,-251.5 276.41,-239.62 270.99,-234.15 245,-221 212.37,-204.49 190.4,-216.01 171,-185 150.89,-152.86 174.93,-108.66 191.95,-84.13"/>
<polygon fill="#63b8ff" stroke="#63b8ff" points="194.71,-86.29 197.77,-76.14 189.06,-82.16 194.71,-86.29"/>
</a>
</g>
</g>
<!-- Node2&#45;&gt;Node6 -->
<g id="edge19_Node000002_Node000006" class="edge">
<title>Node2&#45;&gt;Node6</title>
<g id="a_edge19_Node000002_Node000006"><a xlink:title=" ">
<path fill="none" stroke="#63b8ff" d="M469.86,-291.8C500.17,-286.7 538.57,-275.62 564,-251.5 610.32,-207.57 611.83,-124.57 609.75,-86.23"/>
<polygon fill="#63b8ff" stroke="#63b8ff" points="613.25,-86.1 609.06,-76.37 606.27,-86.59 613.25,-86.1"/>
</a>
</g>
</g>
<!-- Node7 -->
<g id="Node000007" class="node">
<title>Node7</title>
<g id="a_Node000007"><a xlink:href="../../d7/d8d/graphics__items__prototype__collection_8h.html" target="_top" xlink:title=" ">
<polygon fill="white" stroke="#666666" points="554.5,-251.5 427.5,-251.5 427.5,-221 554.5,-221 554.5,-251.5"/>
<text text-anchor="start" x="435.5" y="-238" font-family="Helvetica,sans-Serif" font-size="10.00">graphics_items_prototype</text>
<text text-anchor="middle" x="491" y="-226.75" font-family="Helvetica,sans-Serif" font-size="10.00">_collection.h</text>
</a>
</g>
</g>
<!-- Node2&#45;&gt;Node7 -->
<g id="edge7_Node000002_Node000007" class="edge">
<title>Node2&#45;&gt;Node7</title>
<g id="a_edge7_Node000002_Node000007"><a xlink:title=" ">
<path fill="none" stroke="#63b8ff" d="M433.33,-287.18C441.89,-279.77 454.42,-268.92 465.62,-259.22"/>
<polygon fill="#63b8ff" stroke="#63b8ff" points="467.8,-261.96 473.07,-252.77 463.22,-256.67 467.8,-261.96"/>
</a>
</g>
</g>
<!-- Node2&#45;&gt;Node9 -->
<g id="edge15_Node000002_Node000009" class="edge">
<title>Node2&#45;&gt;Node9</title>
<g id="a_edge15_Node000002_Node000009"><a xlink:title=" ">
<path fill="none" stroke="#63b8ff" d="M376.07,-288.62C340.81,-281.87 291.91,-270.1 252,-251.5 230.76,-241.6 229.06,-233.11 209,-221 178.71,-202.72 165.55,-207.2 138,-185 121.85,-171.99 107.31,-153.22 97.74,-139.39"/>
<polygon fill="#63b8ff" stroke="#63b8ff" points="100.75,-137.59 92.28,-131.22 94.92,-141.48 100.75,-137.59"/>
</a>
</g>
</g>
<!-- Node2&#45;&gt;Node13 -->
<g id="edge16_Node000002_Node000013" class="edge">
<title>Node2&#45;&gt;Node13</title>
<g id="a_edge16_Node000002_Node000013"><a xlink:title=" ">
<path fill="none" stroke="#63b8ff" d="M470.1,-292.06C507.03,-287.07 558.44,-276 597,-251.5 619.46,-237.23 637.73,-212.12 648.48,-194.89"/>
<polygon fill="#63b8ff" stroke="#63b8ff" points="651.28,-197.03 653.39,-186.65 645.27,-193.44 651.28,-197.03"/>
</a>
</g>
</g>
<!-- Node14 -->
<g id="Node000014" class="node">
<title>Node14</title>
<g id="a_Node000014"><a xlink:title=" ">
<polygon fill="#e0e0e0" stroke="#999999" points="409.75,-245.88 332.25,-245.88 332.25,-226.62 409.75,-226.62 409.75,-245.88"/>
<text text-anchor="middle" x="371" y="-232.38" font-family="Helvetica,sans-Serif" font-size="10.00">unordered_set</text>
</a>
</g>
</g>
<!-- Node2&#45;&gt;Node14 -->
<g id="edge17_Node000002_Node000014" class="edge">
<title>Node2&#45;&gt;Node14</title>
<g id="a_edge17_Node000002_Node000014"><a xlink:title=" ">
<path fill="none" stroke="#63b8ff" d="M415.1,-287.18C407.54,-278.62 395.93,-265.48 386.52,-254.82"/>
<polygon fill="#63b8ff" stroke="#63b8ff" points="389.22,-252.59 379.97,-247.41 383.97,-257.22 389.22,-252.59"/>
</a>
</g>
</g>
<!-- Node15 -->
<g id="Node000015" class="node">
<title>Node15</title>
<g id="a_Node000015"><a xlink:title=" ">
<polygon fill="#e0e0e0" stroke="#999999" points="200,-245.88 142,-245.88 142,-226.62 200,-226.62 200,-245.88"/>
<text text-anchor="middle" x="171" y="-232.38" font-family="Helvetica,sans-Serif" font-size="10.00">functional</text>
</a>
</g>
</g>
<!-- Node2&#45;&gt;Node15 -->
<g id="edge18_Node000002_Node000015" class="edge">
<title>Node2&#45;&gt;Node15</title>
<g id="a_edge18_Node000002_Node000015"><a xlink:title=" ">
<path fill="none" stroke="#63b8ff" d="M376.16,-287.65C333.57,-279.58 269.14,-266.47 214,-251.5 211.89,-250.93 209.74,-250.31 207.57,-249.67"/>
<polygon fill="#63b8ff" stroke="#63b8ff" points="208.82,-246.39 198.23,-246.75 206.73,-253.07 208.82,-246.39"/>
</a>
</g>
</g>
<!-- Node3&#45;&gt;Node4 -->
<g id="edge3_Node000003_Node000004" class="edge">
<title>Node3&#45;&gt;Node4</title>
<g id="a_edge3_Node000003_Node000004"><a xlink:title=" ">
<path fill="none" stroke="#63b8ff" d="M251.08,-110.33C243.55,-102.9 232.53,-92.04 223.27,-82.91"/>
<polygon fill="#63b8ff" stroke="#63b8ff" points="225.77,-80.45 216.19,-75.92 220.85,-85.44 225.77,-80.45"/>
</a>
</g>
</g>
<!-- Node3&#45;&gt;Node6 -->
<g id="edge5_Node000003_Node000006" class="edge">
<title>Node3&#45;&gt;Node6</title>
<g id="a_edge5_Node000003_Node000006"><a xlink:title=" ">
<path fill="none" stroke="#63b8ff" d="M302.5,-112.57C307.06,-111.87 311.62,-111.17 316,-110.5 407.85,-96.41 515.97,-79.91 571.31,-71.47"/>
<polygon fill="#63b8ff" stroke="#63b8ff" points="571.76,-74.94 581.11,-69.97 570.7,-68.02 571.76,-74.94"/>
</a>
</g>
</g>
<!-- Node5 -->
<g id="Node000005" class="node">
<title>Node5</title>
<g id="a_Node000005"><a xlink:title=" ">
<polygon fill="#e0e0e0" stroke="#999999" points="228.25,-19.25 183.75,-19.25 183.75,0 228.25,0 228.25,-19.25"/>
<text text-anchor="middle" x="206" y="-5.75" font-family="Helvetica,sans-Serif" font-size="10.00">iosfwd</text>
</a>
</g>
</g>
<!-- Node4&#45;&gt;Node5 -->
<g id="edge4_Node000004_Node000005" class="edge">
<title>Node4&#45;&gt;Node5</title>
<g id="a_edge4_Node000004_Node000005"><a xlink:title=" ">
<path fill="none" stroke="#63b8ff" d="M206,-55.08C206,-48.57 206,-39.42 206,-31.12"/>
<polygon fill="#63b8ff" stroke="#63b8ff" points="209.5,-31.12 206,-21.12 202.5,-31.12 209.5,-31.12"/>
</a>
</g>
</g>
<!-- Node7&#45;&gt;Node8 -->
<g id="edge8_Node000007_Node000008" class="edge">
<title>Node7&#45;&gt;Node8</title>
<g id="a_edge8_Node000007_Node000008"><a xlink:title=" ">
<path fill="none" stroke="#63b8ff" d="M427.29,-221.15C381.29,-210.97 319.96,-197.39 276.93,-187.87"/>
<polygon fill="#63b8ff" stroke="#63b8ff" points="277.85,-184.49 267.33,-185.74 276.34,-191.32 277.85,-184.49"/>
</a>
</g>
</g>
<!-- Node10 -->
<g id="Node000010" class="node">
<title>Node10</title>
<g id="a_Node000010"><a xlink:title=" ">
<polygon fill="#e0e0e0" stroke="#999999" points="446.38,-185 363.62,-185 363.62,-165.75 446.38,-165.75 446.38,-185"/>
<text text-anchor="middle" x="405" y="-171.5" font-family="Helvetica,sans-Serif" font-size="10.00">unordered_map</text>
</a>
</g>
</g>
<!-- Node7&#45;&gt;Node10 -->
<g id="edge12_Node000007_Node000010" class="edge">
<title>Node7&#45;&gt;Node10</title>
<g id="a_edge12_Node000007_Node000010"><a xlink:title=" ">
<path fill="none" stroke="#63b8ff" d="M469.74,-220.7C456.9,-211.9 440.55,-200.71 427.49,-191.77"/>
<polygon fill="#63b8ff" stroke="#63b8ff" points="429.74,-189.07 419.51,-186.31 425.78,-194.84 429.74,-189.07"/>
</a>
</g>
</g>
<!-- Node11 -->
<g id="Node000011" class="node">
<title>Node11</title>
<g id="a_Node000011"><a xlink:title=" ">
<polygon fill="#e0e0e0" stroke="#999999" points="522,-185 464,-185 464,-165.75 522,-165.75 522,-185"/>
<text text-anchor="middle" x="493" y="-171.5" font-family="Helvetica,sans-Serif" font-size="10.00">stdexcept</text>
</a>
</g>
</g>
<!-- Node7&#45;&gt;Node11 -->
<g id="edge13_Node000007_Node000011" class="edge">
<title>Node7&#45;&gt;Node11</title>
<g id="a_edge13_Node000007_Node000011"><a xlink:title=" ">
<path fill="none" stroke="#63b8ff" d="M491.49,-220.7C491.74,-213.46 492.04,-204.59 492.31,-196.69"/>
<polygon fill="#63b8ff" stroke="#63b8ff" points="495.8,-197.08 492.64,-186.96 488.8,-196.84 495.8,-197.08"/>
</a>
</g>
</g>
<!-- Node12 -->
<g id="Node000012" class="node">
<title>Node12</title>
<g id="a_Node000012"><a xlink:title=" ">
<polygon fill="#e0e0e0" stroke="#999999" points="580,-185 540,-185 540,-165.75 580,-165.75 580,-185"/>
<text text-anchor="middle" x="560" y="-171.5" font-family="Helvetica,sans-Serif" font-size="10.00">string</text>
</a>
</g>
</g>
<!-- Node7&#45;&gt;Node12 -->
<g id="edge14_Node000007_Node000012" class="edge">
<title>Node7&#45;&gt;Node12</title>
<g id="a_edge14_Node000007_Node000012"><a xlink:title=" ">
<path fill="none" stroke="#63b8ff" d="M508.06,-220.7C517.96,-212.25 530.46,-201.58 540.71,-192.83"/>
<polygon fill="#63b8ff" stroke="#63b8ff" points="542.88,-195.59 548.21,-186.43 538.33,-190.26 542.88,-195.59"/>
</a>
</g>
</g>
<!-- Node8&#45;&gt;Node3 -->
<g id="edge9_Node000008_Node000003" class="edge">
<title>Node8&#45;&gt;Node3</title>
<g id="a_edge9_Node000008_Node000003"><a xlink:title=" ">
<path fill="none" stroke="#63b8ff" d="M230.78,-165.58C235.41,-158.53 242.07,-148.4 247.87,-139.58"/>
<polygon fill="#63b8ff" stroke="#63b8ff" points="250.7,-141.65 253.26,-131.37 244.85,-137.81 250.7,-141.65"/>
</a>
</g>
</g>
<!-- Node8&#45;&gt;Node6 -->
<g id="edge11_Node000008_Node000006" class="edge">
<title>Node8&#45;&gt;Node6</title>
<g id="a_edge11_Node000008_Node000006"><a xlink:title=" ">
<path fill="none" stroke="#63b8ff" d="M218.29,-165.34C209.07,-151.75 195.13,-126.01 209,-110.5 232.95,-83.72 477.14,-71.13 571.27,-67.24"/>
<polygon fill="#63b8ff" stroke="#63b8ff" points="571.13,-70.75 580.98,-66.85 570.85,-63.76 571.13,-70.75"/>
</a>
</g>
</g>
<!-- Node8&#45;&gt;Node9 -->
<g id="edge10_Node000008_Node000009" class="edge">
<title>Node8&#45;&gt;Node9</title>
<g id="a_edge10_Node000008_Node000009"><a xlink:title=" ">
<path fill="none" stroke="#63b8ff" d="M201.42,-165.34C179.16,-156.81 145.51,-143.92 120.28,-134.26"/>
<polygon fill="#63b8ff" stroke="#63b8ff" points="121.7,-131.05 111.11,-130.74 119.19,-137.59 121.7,-131.05"/>
</a>
</g>
</g>
<!-- Node17 -->
<g id="Node000017" class="node">
<title>Node17</title>
<g id="a_Node000017"><a xlink:href="../../df/d65/widget_8h.html" target="_top" xlink:title=" ">
<polygon fill="white" stroke="#666666" points="739,-245.88 687,-245.88 687,-226.62 739,-226.62 739,-245.88"/>
<text text-anchor="middle" x="713" y="-232.38" font-family="Helvetica,sans-Serif" font-size="10.00">widget.h</text>
</a>
</g>
</g>
<!-- Node16&#45;&gt;Node17 -->
<g id="edge21_Node000016_Node000017" class="edge">
<title>Node16&#45;&gt;Node17</title>
<g id="a_edge21_Node000016_Node000017"><a xlink:title=" ">
<path fill="none" stroke="#63b8ff" d="M690.1,-287.18C693.83,-279.06 699.45,-266.79 704.19,-256.45"/>
<polygon fill="#63b8ff" stroke="#63b8ff" points="707.24,-258.2 708.23,-247.65 700.88,-255.28 707.24,-258.2"/>
</a>
</g>
</g>
<!-- Node17&#45;&gt;Node13 -->
<g id="edge22_Node000017_Node000013" class="edge">
<title>Node17&#45;&gt;Node13</title>
<g id="a_edge22_Node000017_Node000013"><a xlink:title=" ">
<path fill="none" stroke="#63b8ff" d="M704.8,-226.31C696.87,-217.66 684.65,-204.34 674.82,-193.62"/>
<polygon fill="#63b8ff" stroke="#63b8ff" points="677.64,-191.52 668.3,-186.52 672.48,-196.25 677.64,-191.52"/>
</a>
</g>
</g>
<!-- Node18&#45;&gt;Node6 -->
<g id="edge25_Node000018_Node000006" class="edge">
<title>Node18&#45;&gt;Node6</title>
<g id="a_edge25_Node000018_Node000006"><a xlink:title=" ">
<path fill="none" stroke="#63b8ff" d="M160.27,-287.15C143.89,-272.36 116.23,-242.4 133,-221 174.21,-168.39 215.05,-204.4 279,-185 389.04,-151.61 516.24,-102.47 575.05,-79.12"/>
<polygon fill="#63b8ff" stroke="#63b8ff" points="576.14,-82.45 584.14,-75.5 573.55,-75.95 576.14,-82.45"/>
</a>
</g>
</g>
<!-- Node18&#45;&gt;Node9 -->
<g id="edge27_Node000018_Node000009" class="edge">
<title>Node18&#45;&gt;Node9</title>
<g id="a_edge27_Node000018_Node000009"><a xlink:title=" ">
<path fill="none" stroke="#63b8ff" d="M146.09,-287.13C130.16,-280.01 110.57,-268.42 100,-251.5 78.76,-217.5 80.12,-168.58 83.03,-141.36"/>
<polygon fill="#63b8ff" stroke="#63b8ff" points="86.47,-142.07 84.26,-131.7 79.53,-141.18 86.47,-142.07"/>
</a>
</g>
</g>
<!-- Node18&#45;&gt;Node15 -->
<g id="edge26_Node000018_Node000015" class="edge">
<title>Node18&#45;&gt;Node15</title>
<g id="a_edge26_Node000018_Node000015"><a xlink:title=" ">
<path fill="none" stroke="#63b8ff" d="M171,-287.18C171,-279.4 171,-267.83 171,-257.78"/>
<polygon fill="#63b8ff" stroke="#63b8ff" points="174.5,-257.79 171,-247.79 167.5,-257.79 174.5,-257.79"/>
</a>
</g>
</g>
<!-- Node18&#45;&gt;Node17 -->
<g id="edge24_Node000018_Node000017" class="edge">
<title>Node18&#45;&gt;Node17</title>
<g id="a_edge24_Node000018_Node000017"><a xlink:title=" ">
<path fill="none" stroke="#63b8ff" d="M206.56,-292.26C304.1,-281.67 575.22,-252.22 675.28,-241.35"/>
<polygon fill="#63b8ff" stroke="#63b8ff" points="675.54,-244.84 685.1,-240.28 674.78,-237.88 675.54,-244.84"/>
</a>
</g>
</g>
<!-- Node20 -->
<g id="Node000020" class="node">
<title>Node20</title>
<g id="a_Node000020"><a xlink:href="../../d2/dd9/controller_8h.html" target="_top" xlink:title=" ">
<polygon fill="white" stroke="#666666" points="822.62,-306.75 759.38,-306.75 759.38,-287.5 822.62,-287.5 822.62,-306.75"/>
<text text-anchor="middle" x="791" y="-293.25" font-family="Helvetica,sans-Serif" font-size="10.00">controller.h</text>
</a>
</g>
</g>
<!-- Node19&#45;&gt;Node20 -->
<g id="edge29_Node000019_Node000020" class="edge">
<title>Node19&#45;&gt;Node20</title>
<g id="a_edge29_Node000019_Node000020"><a xlink:title=" ">
<path fill="none" stroke="#63b8ff" d="M735.87,-348.06C745.61,-339.24 760.72,-325.55 772.66,-314.73"/>
<polygon fill="#63b8ff" stroke="#63b8ff" points="774.85,-317.47 779.91,-308.17 770.15,-312.29 774.85,-317.47"/>
</a>
</g>
</g>
<!-- Node20&#45;&gt;Node6 -->
<g id="edge32_Node000020_Node000006" class="edge">
<title>Node20&#45;&gt;Node6</title>
<g id="a_edge32_Node000020_Node000006"><a xlink:title=" ">
<path fill="none" stroke="#63b8ff" d="M786.79,-287.42C779.67,-273.04 764.4,-243.63 748,-221 708.63,-166.66 653.06,-109.86 625.25,-82.52"/>
<polygon fill="#63b8ff" stroke="#63b8ff" points="627.95,-80.26 618.34,-75.78 623.06,-85.27 627.95,-80.26"/>
</a>
</g>
</g>
<!-- Node20&#45;&gt;Node17 -->
<g id="edge30_Node000020_Node000017" class="edge">
<title>Node20&#45;&gt;Node17</title>
<g id="a_edge30_Node000020_Node000017"><a xlink:title=" ">
<path fill="none" stroke="#63b8ff" d="M779.15,-287.18C767.13,-278.11 748.26,-263.87 733.75,-252.91"/>
<polygon fill="#63b8ff" stroke="#63b8ff" points="736.26,-250.42 726.17,-247.19 732.04,-256.01 736.26,-250.42"/>
</a>
</g>
</g>
<!-- Node21 -->
<g id="Node000021" class="node">
<title>Node21</title>
<g id="a_Node000021"><a xlink:href="../../d0/d09/command_8h.html" target="_top" xlink:title=" ">
<polygon fill="white" stroke="#666666" points="861.12,-245.88 794.88,-245.88 794.88,-226.62 861.12,-226.62 861.12,-245.88"/>
<text text-anchor="middle" x="828" y="-232.38" font-family="Helvetica,sans-Serif" font-size="10.00">command.h</text>
</a>
</g>
</g>
<!-- Node20&#45;&gt;Node21 -->
<g id="edge31_Node000020_Node000021" class="edge">
<title>Node20&#45;&gt;Node21</title>
<g id="a_edge31_Node000020_Node000021"><a xlink:title=" ">
<path fill="none" stroke="#63b8ff" d="M796.62,-287.18C801.84,-278.88 809.76,-266.27 816.34,-255.8"/>
<polygon fill="#63b8ff" stroke="#63b8ff" points="819.16,-257.89 821.52,-247.56 813.24,-254.16 819.16,-257.89"/>
</a>
</g>
</g>
<!-- Node22&#45;&gt;Node2 -->
<g id="edge35_Node000022_Node000002" class="edge">
<title>Node22&#45;&gt;Node2</title>
<g id="a_edge35_Node000022_Node000002"><a xlink:title=" ">
<path fill="none" stroke="#63b8ff" d="M797.16,-344.69C793.73,-344 790.32,-343.34 787,-342.75 679.74,-323.7 553.26,-310.18 481.16,-303.31"/>
<polygon fill="#63b8ff" stroke="#63b8ff" points="481.86,-299.86 471.58,-302.41 481.2,-306.83 481.86,-299.86"/>
</a>
</g>
</g>
<!-- Node22&#45;&gt;Node6 -->
<g id="edge36_Node000022_Node000006" class="edge">
<title>Node22&#45;&gt;Node6</title>
<g id="a_edge36_Node000022_Node000006"><a xlink:title=" ">
<path fill="none" stroke="#63b8ff" d="M856.5,-342.43C868.5,-320.42 889,-277.02 889,-237.25 889,-237.25 889,-237.25 889,-174.38 889,-122.52 720.36,-85.89 644.37,-72.02"/>
<polygon fill="#63b8ff" stroke="#63b8ff" points="645.38,-68.65 634.92,-70.33 644.15,-75.54 645.38,-68.65"/>
</a>
</g>
</g>
<!-- Node22&#45;&gt;Node21 -->
<g id="edge34_Node000022_Node000021" class="edge">
<title>Node22&#45;&gt;Node21</title>
<g id="a_edge34_Node000022_Node000021"><a xlink:title=" ">
<path fill="none" stroke="#63b8ff" d="M845.55,-342.32C841.99,-321.03 835.4,-281.54 831.38,-257.51"/>
<polygon fill="#63b8ff" stroke="#63b8ff" points="834.85,-257.02 829.75,-247.73 827.95,-258.17 834.85,-257.02"/>
</a>
</g>
</g>
</g>
</svg>

<g id="navigator" transform="translate(0 0)" fill="#404254">
  <rect fill="#f2f5e9" fill-opacity="0.5" stroke="#606060" stroke-width=".5" x="0" y="0" width="60" height="60"/>
  <use id="zoomplus" xlink:href="#zoomPlus" x="17" y="9" onmousedown="handleZoom(evt,'in')"/>
  <use id="zoomminus" xlink:href="#zoomMin" x="42" y="9" onmousedown="handleZoom(evt,'out')"/>
  <use id="reset" xlink:href="#resetDef" x="30" y="36" onmousedown="handleReset()"/>
   <use id="arrowup" xlink:href="#arrowUp" x="0" y="0" onmousedown="handlePan(0,-1)"/>
  <use id="arrowright" xlink:href="#arrowRight" x="0" y="0" onmousedown="handlePan(1,0)"/>
  <use id="arrowdown" xlink:href="#arrowDown" x="0" y="0" onmousedown="handlePan(0,1)"/>
  <use id="arrowleft" xlink:href="#arrowLeft" x="0" y="0" onmousedown="handlePan(-1,0)"/>
</g>
<svg viewBox="0 0 15 15" width="100%" height="30px" preserveAspectRatio="xMaxYMin meet">
 <g id="arrow_out" transform="scale(0.3 0.3)">
  <a xlink:href="main_8cpp__incl_org.svg" target="_base">
   <rect id="button" ry="5" rx="5" y="6" x="6" height="38" width="38"
        fill="#f2f5e9" fill-opacity="0.5" stroke="#606060" stroke-width="1.0"/>
   <path id="arrow"
     d="M 11.500037,31.436501 C 11.940474,20.09759 22.043105,11.32322 32.158766,21.979434 L 37.068811,17.246167 C 37.068811,17.246167 37.088388,32 37.088388,32 L 22.160133,31.978069 C 22.160133,31.978069 26.997745,27.140456 26.997745,27.140456 C 18.528582,18.264221 13.291696,25.230495 11.500037,31.436501 z"
     style="fill:#404040;"/>
  </a>
 </g>
</svg>

<style type='text/css'>
<![CDATA[
[data-mouse-over-selected='false'] { opacity: 0.7; }
[data-mouse-over-selected='true']  { opacity: 1.0; }
]]>
</style>
<script type="application/ecmascript"><![CDATA[
document.addEventListener('DOMContentLoaded', (event) => {
  highlightEdges();
  highlightAdjacentNodes();
});
]]></script>
</svg>
